<svg width="142" height="145" viewBox="0 0 142 145" fill="none" xmlns="http://www.w3.org/2000/svg">
<path d="M141.6 4.8C124.533 5.59999 114.667 6.13333 112 6.4C100.8 7.2 91.0667 8.53333 82.8 10.4C80.1333 11.2 76.1333 12.4 70.8 14C69.4667 14 67.3333 14.6667 64.4 16C60.4 18.9333 54.4 28.6667 46.4 45.2C56.8 40.6667 67.3333 38.4 78 38.4C101.733 38.4 113.6 48.1333 113.6 67.6C113.6 85.4667 105.2 102.8 88.4 119.6C71.6 136.4 54.2667 144.8 36.4 144.8C26.5333 144.8 18 141.6 10.8 135.2C3.6 128.8 1.41561e-07 120.8 1.41561e-07 111.2C1.41561e-07 109.6 0.933333 106.133 2.8 100.8C4.93333 95.2 6.53333 92.4 7.6 92.4C9.2 92.4 10 93.2 10 94.8C10 95.0667 9.2 96.9333 7.6 100.4C6.26667 103.6 5.6 106.533 5.6 109.2C5.6 128.4 15.2 138 34.4 138C44.5333 138 54.1333 135.467 63.2 130.4C72.5333 125.067 81.2 116.267 89.2 104C97.2 91.7333 101.2 80.5333 101.2 70.4C101.2 60.8 99.0667 54.2667 94.8 50.8C90.8 47.0667 84 45.2 74.4 45.2C65.0667 45.2 53.7333 51.0667 40.4 62.8C38.8 64.6667 36.5333 66.9333 33.6 69.6C32.5333 70.4 31.4667 70.8 30.4 70.8C26.6667 70.8 24.8 69.2 24.8 66C24.8 65.2 29.0667 58.2667 37.6 45.2C46.1333 32.1333 51.0667 23.3333 52.4 18.8C48.6667 16.4 46.8 14.8 46.8 14C55.0667 7.33333 59.4667 3.99999 60 3.99999C61.0667 3.99999 62.8 4.13333 65.2 4.39999C67.6 4.39999 69.3333 4.39999 70.4 4.39999C76.5333 4.39999 85.6 3.73332 97.6 2.39999C109.867 0.799996 119.067 -1.43051e-06 125.2 -1.43051e-06C131.333 -1.43051e-06 136.8 0.533329 141.6 1.59999V4.8Z" fill="url(#paint0_linear)"/>
<defs>
<linearGradient id="paint0_linear" x1="60.1775" y1="-162" x2="209.878" y2="-109.639" gradientUnits="userSpaceOnUse">
<stop stop-color="#54B991"/>
<stop offset="1" stop-color="#54B3B9"/>
</linearGradient>
</defs>
</svg>
