<svg width="14" height="14" viewBox="0 0 14 14" fill="none" xmlns="http://www.w3.org/2000/svg">
<path d="M13.3652 10.8551L10.3165 8.08306C10.1724 7.95207 9.98298 7.88221 9.78832 7.88823C9.59367 7.89425 9.40897 7.97567 9.27322 8.11531L7.47847 9.96106C7.04647 9.87856 6.17797 9.60781 5.28397 8.71606C4.38997 7.82131 4.11922 6.95056 4.03897 6.52156L5.88322 4.72606C6.02303 4.5904 6.10457 4.40567 6.11059 4.21096C6.11661 4.01625 6.04663 3.82684 5.91547 3.68281L3.14422 0.634807C3.013 0.490325 2.83063 0.402685 2.63583 0.390502C2.44104 0.378319 2.24917 0.442551 2.10097 0.569557L0.473467 1.96531C0.343801 2.09544 0.266407 2.26864 0.255967 2.45206C0.244717 2.63956 0.0302174 7.08106 3.47422 10.5266C6.47872 13.5303 10.2422 13.7501 11.2787 13.7501C11.4302 13.7501 11.5232 13.7456 11.548 13.7441C11.7314 13.7338 11.9045 13.6561 12.034 13.5258L13.429 11.8976C13.5565 11.7498 13.6212 11.5581 13.6093 11.3633C13.5974 11.1686 13.5098 10.9861 13.3652 10.8551Z" fill="#B0B0B0"/>
</svg>
