<svg width="13" height="13" viewBox="0 0 13 13" fill="none" xmlns="http://www.w3.org/2000/svg">
<path d="M10.9584 6.41671H10.0834V4.08337C10.0834 3.77396 9.9605 3.47721 9.7417 3.25842C9.52291 3.03962 9.22617 2.91671 8.91675 2.91671H6.58341V2.04171C6.58341 1.65493 6.42977 1.284 6.15628 1.01051C5.88279 0.737019 5.51186 0.583374 5.12508 0.583374C4.73831 0.583374 4.36737 0.737019 4.09388 1.01051C3.82039 1.284 3.66675 1.65493 3.66675 2.04171V2.91671H1.33341C1.024 2.91671 0.727249 3.03962 0.508457 3.25842C0.289664 3.47721 0.166748 3.77396 0.166748 4.08337V6.30004H1.04175C1.91675 6.30004 2.61675 7.00004 2.61675 7.87504C2.61675 8.75004 1.91675 9.45004 1.04175 9.45004H0.166748V11.6667C0.166748 11.9761 0.289664 12.2729 0.508457 12.4917C0.727249 12.7105 1.024 12.8334 1.33341 12.8334H3.55008V11.9584C3.55008 11.0834 4.25008 10.3834 5.12508 10.3834C6.00008 10.3834 6.70008 11.0834 6.70008 11.9584V12.8334H8.91675C9.22617 12.8334 9.52291 12.7105 9.7417 12.4917C9.9605 12.2729 10.0834 11.9761 10.0834 11.6667V9.33337H10.9584C11.3452 9.33337 11.7161 9.17973 11.9896 8.90624C12.2631 8.63275 12.4167 8.26182 12.4167 7.87504C12.4167 7.48827 12.2631 7.11733 11.9896 6.84384C11.7161 6.57035 11.3452 6.41671 10.9584 6.41671Z" fill="#B0B0B0"/>
</svg>
