<svg width="37" height="44" viewBox="0 0 37 44" fill="none" xmlns="http://www.w3.org/2000/svg">
<g clip-path="url(#clip0)">
<path d="M0 18.3048V31.1954C0 34.7475 1.2419 37.7696 3.72569 40.2618C6.20949 42.754 9.22145 44.0001 12.7616 44.0001H16.4444C19.642 44.0001 22.4255 42.9545 24.7951 40.8634C27.1647 38.7723 28.5779 36.1512 29.0347 33.0001H29.206C31.2045 33.0001 32.9317 32.284 34.3877 30.8517C35.8438 29.4194 36.5718 27.7006 36.5718 25.6954C36.5718 23.6902 35.8438 21.9571 34.3877 20.4962C32.9317 19.0353 31.2045 18.3048 29.206 18.3048C29.206 17.3308 28.8492 16.4858 28.1354 15.7696C27.4217 15.0535 26.5795 14.6954 25.6088 14.6954H3.68287C2.65509 14.6954 1.78434 15.0535 1.0706 15.7696C0.356867 16.4858 0 17.3308 0 18.3048ZM29.206 22.0001C30.2338 22.0001 31.1046 22.3582 31.8183 23.0743C32.532 23.7905 32.8889 24.6642 32.8889 25.6954C32.8889 26.6694 32.532 27.5144 31.8183 28.2306C31.1046 28.9467 30.2338 29.3048 29.206 29.3048V22.0001ZM25.6088 31.1954C25.6088 33.7163 24.7238 35.8647 22.9537 37.6407C21.1836 39.4168 19.0139 40.3048 16.4444 40.3048H12.7616C10.2492 40.3048 8.10802 39.4168 6.33796 37.6407C4.5679 35.8647 3.68287 33.7163 3.68287 31.1954V18.3048H25.6088V31.1954ZM12.419 2.92199C12.99 1.83345 12.8187 0.974076 11.9051 0.343868C10.9344 -0.286341 10.135 -0.143112 9.50694 0.773555L8.56481 1.97668C7.53704 3.63814 7.12307 5.4285 7.32292 7.34777C7.52276 9.26705 8.30787 10.9142 9.67824 12.2892C10.0208 12.6329 10.4491 12.8048 10.963 12.8048C11.4769 12.8048 11.9051 12.6329 12.2477 12.2892C12.99 11.4298 12.99 10.5704 12.2477 9.71105C11.5054 8.96626 11.0772 8.06392 10.963 7.00402C10.8488 5.94413 11.1057 4.95585 11.7338 4.03918L12.419 2.92199ZM18.8426 7.47668L19.5278 6.78918C20.3272 5.9871 20.3843 5.12772 19.6991 4.21106C19.4707 3.86731 19.0853 3.68111 18.5428 3.65246C18.0004 3.62382 17.5579 3.75272 17.2153 4.03918L16.4444 4.72668C15.1883 5.81522 14.6458 7.10428 14.8171 8.59387C14.9884 10.198 15.902 11.4871 17.5579 12.4611C17.6721 12.6902 17.9005 12.8048 18.2431 12.8048C18.9282 12.8048 19.4992 12.5183 19.956 11.9454C20.5841 10.8569 20.3272 9.99751 19.1852 9.3673C18.5571 8.96626 18.2431 8.65116 18.2431 8.42199L18.8426 7.47668Z" fill="url(#paint0_linear)"/>
</g>
<defs>
<linearGradient id="paint0_linear" x1="17.0973" y1="-0.0412584" x2="39.6941" y2="23.0532" gradientUnits="userSpaceOnUse">
<stop stop-color="#54B991"/>
<stop offset="1" stop-color="#54B3B9"/>
</linearGradient>
<clipPath id="clip0">
<rect width="37" height="44" fill="white"/>
</clipPath>
</defs>
</svg>
