<svg width="188" height="62" viewBox="0 0 188 62" fill="none" xmlns="http://www.w3.org/2000/svg">
<path fill-rule="evenodd" clip-rule="evenodd" d="M99.0315 27.061C99.251 26.9146 99.1883 26.5338 99.1256 26.2703L98.0283 26.241C98.0597 26.241 98.091 26.241 98.091 26.2703C98.1224 26.2995 98.1537 26.2995 98.1851 26.2995L99.0942 26.3288L99.0315 27.061Z" fill="#677C4B"/>
<path fill-rule="evenodd" clip-rule="evenodd" d="M89.5955 30.634C89.4701 30.5169 89.5328 30.6047 89.4388 30.429C89.4388 30.3997 89.3761 30.2826 89.3447 30.224L89.3761 30.7804L89.5955 30.634Z" fill="#677C4B"/>
<path fill-rule="evenodd" clip-rule="evenodd" d="M95.9593 11.3925C95.9593 12.1539 96.1161 12.6518 95.5518 13.0325C95.1756 13.2961 94.4232 13.5597 94.0157 13.1497C93.1693 12.359 94.6113 11.2461 95.9593 11.3925ZM95.8966 10.2503C95.9593 10.3089 95.9907 10.1917 96.0534 10.5432L95.9593 11.0703L95.2383 11.0996C93.953 11.1582 93.0125 11.5389 92.8558 12.5932C92.699 13.4133 93.232 13.8819 94.0157 13.9111C95.2697 13.999 95.1129 13.4426 95.9593 13.179L95.9907 13.9111C97.9657 13.9111 97.6522 13.9697 97.6835 13.6768C96.8058 13.3254 96.9312 12.974 96.9938 11.9489C97.0252 11.2753 97.1506 10.4553 96.8371 9.89886C96.555 9.3717 96.0534 9.16669 95.2383 9.13741C94.3919 9.10812 94.047 9.40099 93.3887 9.66457V10.426C93.8903 10.3675 93.8276 10.0746 94.047 9.75243C94.8935 9.63528 95.5204 9.66457 95.8966 10.2503Z" fill="#DBCF71"/>
<path fill-rule="evenodd" clip-rule="evenodd" d="M105.803 55.059C106.116 55.5569 106.367 56.1719 106.022 56.6698C105.803 57.0212 105.395 57.6363 104.643 57.2848C103.389 56.6698 104.8 55.1762 105.803 55.059ZM103.138 55.0883C103.201 54.854 103.013 54.034 104.204 53.7704C104.988 53.5654 105.427 54.1219 105.615 54.6197C105.458 54.7955 103.796 55.4691 103.514 56.3184C103.389 56.6405 103.389 57.2555 103.514 57.5484C103.608 57.7534 103.984 58.0756 104.173 58.1634C104.517 58.2806 104.956 58.1927 105.27 58.0756C106.461 57.5777 106.022 56.9041 106.586 56.6991L106.775 57.3141C107.464 57.2848 108.06 57.0505 108.279 56.5527L107.652 56.6112C106.869 55.7326 106.869 53.9754 105.709 53.214C105.019 52.7454 102.636 53.5361 102.762 54.7369C102.793 55.2055 102.793 55.0883 103.138 55.0883Z" fill="#DBCF71"/>
<path fill-rule="evenodd" clip-rule="evenodd" d="M91.3508 56.9333C91.3821 57.6655 91.2567 58.1633 90.8179 58.4855C90.4103 58.7491 89.6579 58.9248 89.2504 58.5733C88.6548 58.0755 89.1877 57.4604 89.5639 57.2262C90.1282 56.904 90.5984 56.9333 91.3508 56.9333ZM91.2881 55.8204C91.4135 55.9668 91.4135 55.879 91.4448 56.2011C91.4762 56.4061 91.4135 56.4647 91.3821 56.6697L89.6893 56.699C87.7143 56.8454 87.2127 59.5691 89.6266 59.3934C90.2849 59.3348 90.473 58.9541 91.1313 58.8076L91.1627 59.5105C91.6329 59.5984 92.3853 59.7448 92.6988 59.5691C92.5734 59.2176 92.6675 59.4812 92.1659 59.2176C92.0091 58.134 92.6674 56.4647 92.2286 55.469C91.727 54.3854 89.9401 54.6489 88.8429 55.1175L88.7802 55.9083C89.4385 55.7325 89.1877 55.6154 89.5326 55.2347C90.473 55.0004 91.1 55.1175 91.2881 55.8204Z" fill="#DBCF71"/>
<path fill-rule="evenodd" clip-rule="evenodd" d="M78.4664 52.101C78.7172 51.4567 79.4696 50.9296 80.3787 51.3689C81.1624 51.7203 81.037 52.7454 80.5041 53.2139C80.0338 53.1847 79.7517 52.9504 79.4069 52.7454L78.4664 52.101ZM80.0025 55.469C79.6263 55.0883 78.9053 55.4397 78.0588 54.5904C77.5259 54.0633 77.6513 53.0089 78.1215 52.5111C78.9053 52.8039 80.6608 53.9461 81.3191 54.0925C81.6013 53.3311 82.2596 51.9546 80.7549 51.1639C80.1592 50.871 79.689 50.8124 78.9053 50.8417C77.2124 50.9296 75.2374 54.034 78.2783 55.4983C78.9053 55.7912 79.4695 55.9376 80.0025 55.469Z" fill="#DBCF71"/>
<path fill-rule="evenodd" clip-rule="evenodd" d="M81.1625 55.6155L81.2252 55.3519C81.0998 55.2055 81.4447 55.2055 80.9431 55.264L80.4102 56.4648C80.5983 56.6698 80.9431 56.787 81.1939 56.9334C81.476 57.0798 81.7582 57.2555 82.1344 57.3727C84.172 57.8999 85.3006 56.0841 84.1407 55.1469C83.6391 54.7369 82.9808 54.5319 82.5419 54.0633C82.5419 53.3604 82.9808 52.8918 83.8586 53.1847C84.5796 53.419 84.6423 53.8583 84.6736 54.649C85.1439 54.5904 85.3006 54.034 85.3633 53.5947C84.4542 52.9211 82.73 51.9546 81.8209 53.3311C80.8177 54.854 83.451 55.4983 83.6391 56.1426C83.6391 56.9334 83.0435 57.2263 82.2597 56.992C81.1939 56.6112 81.1625 56.2012 81.1625 55.6155Z" fill="#DBCF71"/>
<path fill-rule="evenodd" clip-rule="evenodd" d="M86.2411 54.1219L85.4887 54.1805C85.52 54.5905 85.7081 54.5026 86.147 54.5905C86.0216 56.2012 84.3601 58.3099 86.147 58.6906C86.868 58.837 87.4323 58.7492 87.5264 58.1634C87.1188 58.1634 86.8994 58.1927 86.5859 58.0756C86.0843 57.197 86.9307 55.7326 87.1502 54.8833C87.6518 54.9712 88.1533 55.2348 88.6236 54.9712C88.6549 54.6198 88.6863 54.6198 88.216 54.5319C87.9025 54.444 87.6204 54.444 87.3069 54.4147L87.8712 52.5111L86.8053 52.599C86.4918 53.3311 86.7426 53.4483 86.2411 54.1219Z" fill="#DBCF71"/>
<path fill-rule="evenodd" clip-rule="evenodd" d="M100.442 55.0883C100.223 54.7954 100.317 54.6783 100.16 54.3268C99.6896 54.3268 99.5956 54.5025 99.2508 54.6783C98.7492 54.9126 98.467 54.7368 98.467 55.2347H99.5015L100.223 58.7784C99.6896 58.9834 99.6583 58.7491 99.5642 59.1591C99.6583 59.2177 99.4388 59.3349 100.254 59.1591L101.821 58.837C102.292 58.7491 102.354 58.837 102.354 58.4563L101.571 58.5734C100.944 58.017 100.661 56.3476 100.756 55.3519C101.602 54.7076 101.821 55.1468 102.323 55.264C102.386 54.854 102.292 54.2682 102.135 53.9754C100.724 53.9168 101.132 54.5904 100.442 55.0883Z" fill="#DBCF71"/>
<path fill-rule="evenodd" clip-rule="evenodd" d="M75.9272 48.5866C75.8331 49.2602 73.7955 51.3103 73.3252 51.3395C72.9177 51.1931 73.0431 51.1345 72.5415 51.1052C72.6356 51.4567 74.4224 52.921 74.7673 53.0089C74.8927 52.101 73.2625 52.716 75.8645 50.4024C76.1153 50.1681 76.5228 49.8166 76.9931 49.8752C77.5887 49.9631 77.5573 50.3438 77.62 50.9588C78.0903 50.8124 78.6546 50.4317 78.5605 49.7873C78.0589 49.4359 77.4633 49.5238 76.7109 49.4945L77.2125 48.7037L75.4256 47.9716C75.4883 48.5573 75.551 48.1766 75.9272 48.5866Z" fill="#DBCF71"/>
<path fill-rule="evenodd" clip-rule="evenodd" d="M100.254 10.1332L99.972 10.2503L99.9406 9.31317L99.5331 9.37175C99.2196 9.40103 99.0628 9.48889 98.7494 9.51818C98.1537 9.54747 98.2164 9.37175 98.1537 9.84034C98.4045 10.0161 98.5613 9.95748 98.9688 9.95748C99.0628 10.6896 99.0001 11.5975 99.0001 12.359C99.0001 13.7062 99.0628 13.6183 98.4672 13.6769C97.9343 13.7355 98.2164 13.589 98.0283 13.8526L98.4672 13.9698C98.7494 13.9991 99.5958 13.8526 99.7525 14.0576C100.129 13.9991 100.662 14.1455 100.975 14.0283C100.881 13.794 101.289 13.8526 100.035 13.6769V12.6226C100.035 11.9197 99.9093 11.0118 100.317 10.5139C100.912 9.81105 101.351 10.4261 101.884 10.5725C102.041 10.3089 102.198 9.6939 101.978 9.37175C101.195 9.0203 100.38 9.72319 100.254 10.1332Z" fill="#DBCF71"/>
<path fill-rule="evenodd" clip-rule="evenodd" d="M91.2256 1.28862C93.1066 0.849318 98.6867 1.40577 100.568 1.72792C105.27 2.57723 109.251 4.24658 113.013 6.73595C114.8 7.90742 118.562 11.0997 119.408 12.5347C119.753 12.6519 120.976 14.4091 121.258 14.7898C121.822 15.522 122.449 16.4591 122.825 17.3963H175.304V20.7057C177.247 20.94 178.188 20.8814 179.912 21.4965C187.498 24.2494 188.94 32.889 183.423 37.897C181.448 39.7128 179.128 40.7378 175.304 40.7378V43.9594L123.546 43.9887C122.982 44.1058 121.477 46.8881 121.195 47.2981C120.474 48.4403 119.565 49.5531 118.687 50.4317C114.675 54.5026 110.631 57.402 104.706 59.2763C98.2478 61.2971 90.8808 61.4728 84.4542 59.3935C81.5074 58.4563 78.7801 57.3434 76.5543 55.7912C74.6733 54.4733 72.5416 53.0383 71.0369 51.3982C69.5635 49.7874 69.3127 49.641 67.8079 47.5616C67.275 46.8295 65.8643 44.8673 65.6762 43.9887H12.3829C12.1948 43.3444 12.3829 42.085 12.3202 41.3236C12.2888 40.8257 11.944 41.0014 11.3483 40.9721C9.21661 40.8843 7.55511 40.2107 5.98766 39.1271C4.5456 38.1313 4.13807 37.9849 3.04085 36.4034C0.156744 32.2154 0.846421 27.4124 4.10672 24.2787C5.58012 22.8437 7.30432 21.7308 9.56145 21.2329C10.596 20.9986 11.2543 21.0864 12.2888 20.9986L12.3202 17.4256H66.021C66.3345 16.7813 66.4912 16.4006 66.8988 15.8441C67.275 15.317 67.5885 14.8484 67.9646 14.3212C69.9083 11.6561 73.0118 8.66887 75.7705 6.79452C79.1876 4.51016 86.0217 1.49363 91.2256 1.28862ZM90.3165 0.175722C89.282 0.146435 88.0594 0.55645 87.0248 0.702884L84.8931 1.23004C84.4856 1.34719 84.2975 1.37648 83.89 1.49362L81.0058 2.51866C80.661 2.63581 80.4729 2.78224 80.1281 2.92867L79.2503 3.3094C77.2126 4.15872 74.642 5.94521 72.9178 7.32168L69.1873 10.6897C67.1182 12.8276 66.8047 13.9991 65.5821 15.3755L64.9551 16.0784C63.7639 16.0784 62.5726 16.0784 61.3814 16.0784H12.6963C10.4392 16.0784 11.0035 15.522 11.0035 19.6807C9.49875 19.71 7.8059 20.2957 6.55194 20.8814C5.98766 21.145 5.20394 21.4672 4.70235 21.8479L1.97498 24.6594C1.88094 24.8351 1.84959 24.8937 1.7242 25.0694C1.5988 25.3037 1.5988 25.2452 1.4734 25.4795C1.25396 25.8309 1.19126 26.0945 1.00317 26.4459C0.877771 26.7095 0.031349 29.0231 0 29.4917V32.1861L0.595629 34.324C0.721025 34.6755 0.877771 35.0269 1.00317 35.3198C1.12856 35.6127 1.28531 35.8762 1.4734 36.1984L2.28847 37.4577C2.91545 38.3949 3.88728 39.1856 4.76505 39.8885C4.76505 39.8885 4.7964 39.9178 4.82775 39.9178C5.89361 40.7671 7.17892 41.4114 8.55828 41.7336C9.342 41.9093 10.2198 42.1143 11.0349 42.1143V44.5158C11.0349 44.8966 10.9408 45.0723 11.2543 45.1601C11.6305 45.2773 63.8266 45.1601 64.6417 45.1601L66.9301 48.4695C67.5571 49.436 68.3408 50.2853 69.1246 51.1639L71.2563 53.1554C71.2563 53.1554 71.2876 53.1847 71.319 53.214L71.5071 53.3897C73.0432 54.7076 73.6075 55.2055 75.3003 56.4062C75.363 56.4648 75.4884 56.5527 75.5198 56.5527C75.7706 56.6991 75.5825 56.6112 75.7392 56.6698L76.5543 57.197L77.5574 57.7241C77.7769 57.8413 77.7455 57.8413 77.9336 57.9291L84.8304 60.7407L86.5546 61.18C87.8086 61.4143 88.9058 61.795 90.3478 61.8243C90.8181 61.8243 90.8808 61.9707 91.257 62H97.903C98.4672 62 98.4672 61.8829 98.8121 61.8243C99.1883 61.7657 99.4391 61.8536 99.8152 61.7657C100.129 61.7071 100.442 61.59 100.693 61.5607C101.101 61.5021 101.351 61.5021 101.696 61.385L102.574 61.18C102.887 61.1214 103.107 61.0628 103.42 60.9457C103.703 60.8578 104.079 60.77 104.267 60.7114C105.489 60.4771 109.095 58.8663 110.223 58.3099C110.38 58.222 110.223 58.3099 110.411 58.1927L115.176 55.3226L118.562 52.2768C119.252 51.4861 120.035 50.9882 120.725 50.1096C120.882 49.9046 121.007 49.7581 121.164 49.5239L124.267 45.1016H129.534C130.004 45.1016 129.973 45.1894 130.318 45.1894C130.725 45.1894 130.663 45.1016 131.102 45.1016C133.359 45.0137 135.867 45.1016 138.155 45.1016C142.857 45.1016 147.56 45.1016 152.262 45.1016C152.795 45.1016 153.422 45.0723 153.955 45.1016C154.394 45.1309 154.363 45.2187 154.739 45.1894C156.526 45.0723 157.278 45.1016 159.128 45.1016C160.193 45.1016 168.971 45.043 169.598 45.1308L176.558 45.0723C176.84 44.9258 176.683 42.29 176.683 41.8507C177.718 41.8507 178.47 41.7336 179.285 41.4993C179.63 41.4114 179.787 41.3821 180.131 41.265C180.727 41.06 182.451 40.3571 182.733 40.0057L183.016 39.8007C183.956 39.4199 186.025 36.9306 186.589 35.9348C186.683 35.7884 186.683 35.7005 186.777 35.5541C187.561 34.1776 188 32.7426 188 31.1318C188 28.7303 187.875 27.4417 186.746 25.6259C186.621 25.4502 186.652 25.4209 186.558 25.2452C185.837 23.898 183.642 21.6722 182.2 20.9693C181.636 20.7057 181.197 20.4421 180.633 20.2078C180.069 19.9736 179.567 19.7978 178.877 19.6221C178.219 19.4757 177.341 19.505 176.683 19.3585C176.683 18.9485 176.746 16.2834 176.652 16.137C176.495 15.8734 175.46 16.0198 175.084 16.0198H123.985C123.578 15.9027 123.139 15.0827 122.951 14.8484L121.133 12.3883C120.976 12.154 120.944 12.1833 120.788 11.9783C120.662 11.8318 120.568 11.7147 120.443 11.539C119.44 10.2504 116.43 7.67312 115.396 6.88238C115.114 6.64809 114.831 6.50166 114.549 6.26736L113.17 5.33018C112.261 4.71516 111.289 4.188 110.286 3.66084L108.781 2.92867C108.53 2.84081 108.436 2.81153 108.217 2.72367C105.521 1.49362 102.323 0.732171 99.3137 0.263583C99.0942 0.234297 98.8748 0.205009 98.624 0.175722C98.1537 0.087862 98.5299 0.0292867 98.0283 0H91.7899L90.3165 0.175722Z" fill="#DDCF71"/>
<path fill-rule="evenodd" clip-rule="evenodd" d="M163.422 32.7425C164.802 32.6546 166.369 32.7425 167.749 32.7425C168.376 32.7425 169.128 32.6546 169.598 33.0647C170.131 33.504 170.664 35.5247 169.692 36.0519C168.94 36.4619 164.3 36.3155 163.391 36.2569L163.422 32.7425ZM163.548 26.7973C164.927 26.768 166.369 26.768 167.749 26.7973C169.41 26.8266 170.162 26.8559 170.068 28.5545C169.974 30.2238 169.316 30.2238 167.655 30.2238C166.307 30.2238 164.927 30.2238 163.548 30.2238V26.7973ZM171.605 31.6003C171.573 31.571 171.542 31.571 171.542 31.5417C171.542 31.5125 171.51 31.4832 171.479 31.4246L171.73 31.3367C172.357 31.1025 172.702 30.6631 173.015 30.0774C173.423 29.316 173.548 26.6509 172.827 25.7723C172.482 25.333 171.887 24.8937 171.197 24.6887C169.63 24.2201 162.607 24.1615 160.695 24.3372V38.7756C162.607 38.922 169.943 38.922 171.416 38.3948C174.081 37.4577 173.611 33.8847 172.984 32.8596C172.702 32.3618 172.043 31.8639 171.605 31.6003Z" fill="#DDCF71"/>
<path fill-rule="evenodd" clip-rule="evenodd" d="M44.1393 31.1903C44.2647 32.9768 43.8258 34.529 42.6973 35.2319C41.6941 35.8469 38.7786 35.8176 37.9009 35.0855C36.9604 34.2947 37.0544 31.8346 38.6219 31.3075C39.2175 31.1025 43.2302 31.1025 44.1393 31.1903ZM45.1738 36.1105L45.3933 35.9348L45.4873 36.2276C45.6441 37.1062 46.8667 37.8384 47.9326 37.897L48.6536 37.7213L48.873 35.4662C48.152 35.4662 47.9639 35.4662 47.7131 34.939C46.9607 33.3282 48.246 27.3538 46.3338 24.8937C45.3306 23.6343 43.6377 23.1072 41.2552 23.1072C37.0858 23.0779 38.2771 23.4001 35.2049 23.9858C35.2049 24.7472 35.6124 25.8016 35.9572 26.358C36.741 26.358 42.133 24.6594 43.481 26.2701C43.9512 26.8559 44.1393 27.7345 44.108 28.6424C40.2834 28.6424 36.1453 27.9981 34.5465 31.2196C34.1076 32.1275 34.0763 33.6797 34.233 34.7926C34.3898 35.8176 35.1735 36.7548 35.8005 37.1355C37.5247 38.1898 41.9449 38.7756 44.0453 36.9598C44.202 36.8719 44.9544 36.2276 45.1738 36.1105Z" fill="#DDCF71"/>
<path fill-rule="evenodd" clip-rule="evenodd" d="M21.6309 25.7723C26.5527 25.7723 28.3709 25.5966 28.4023 30.6047C28.4336 35.6713 26.5213 35.3491 21.5996 35.3491L21.6309 25.7723ZM18.3706 37.7213C19.844 37.8678 22.0698 37.7506 23.6059 37.7506C26.7094 37.7506 29.4682 38.0142 31.0356 34.8512C31.6626 33.5333 31.6626 32.0983 31.6626 30.5168C31.6626 26.9731 31.2237 25.0109 28.2142 23.898C26.8348 23.4001 25.2047 23.283 23.6059 23.2537C22.0698 23.2244 19.844 23.1658 18.3706 23.283V37.7213Z" fill="#DDCF71"/>
<path fill-rule="evenodd" clip-rule="evenodd" d="M71.4758 35.5833V26.153C72.9805 26.0066 75.7392 26.0066 76.8365 26.6509C78.1845 27.4416 78.3099 28.9938 78.3099 30.8389C78.3099 32.7132 78.2158 34.324 76.9305 35.1148C75.9587 35.7591 72.7611 35.7591 71.4758 35.5833ZM68.2468 38.0141V38.102C70.6607 38.102 76.523 38.3949 78.3099 37.6627C80.8805 36.6084 81.6329 34.1483 81.6329 30.8682C81.6329 22.6386 76.4603 23.6344 68.2468 23.6344V38.0141Z" fill="#DDCF71"/>
<path fill-rule="evenodd" clip-rule="evenodd" d="M54.9862 35.4955L54.9549 26.0066C59.7199 26.0066 61.789 25.6259 61.789 30.7803C61.789 32.6254 61.7263 34.1483 60.441 35.0269C59.3751 35.7884 56.5223 35.4955 54.9862 35.4955ZM51.6946 37.9849C54.2339 38.0141 59.7199 38.2192 61.6949 37.5163C64.4536 36.5205 65.0806 34.1776 65.1433 30.8682C65.1747 27.5588 64.5477 25.2159 61.7576 24.1615C59.5318 23.3415 54.5787 23.4001 51.8827 23.5172L51.6946 37.9849Z" fill="#DDCF71"/>
<path fill-rule="evenodd" clip-rule="evenodd" d="M157.466 34.1776C157.403 33.709 157.497 32.3911 157.497 31.8054V24.3665H154.425C154.425 25.5966 154.551 33.094 154.331 33.5918C154.425 35.4369 153.516 36.3155 151.635 36.4327C149.472 36.5498 148.375 36.3741 147.842 34.6462C147.434 33.3868 147.685 30.8682 147.685 29.4331C147.716 28.0274 147.591 25.4794 147.81 24.2201H144.425C144.425 26.8852 144.425 29.4917 144.425 32.1275C144.425 34.8512 144.519 36.8427 146.462 38.0727C148.218 39.1563 152.231 39.1563 153.861 38.7756C154.958 38.512 155.961 38.0141 156.463 37.3113C156.996 36.6084 157.591 35.1148 157.466 34.1776Z" fill="#DDCF71"/>
<path fill-rule="evenodd" clip-rule="evenodd" d="M103.295 35.1441L102.699 37.4578C103.859 38.2778 114.424 40.3864 115.364 35.7299C115.709 33.9726 115.333 32.3912 114.33 31.5126C111.885 29.4039 106.587 29.8139 106.336 28.4374C105.928 26.1238 107.37 26.1531 109.471 26.1531C111.603 26.1531 111.885 26.3874 113.672 26.7974C114.299 26.9438 114.173 26.8267 114.205 26.7681C114.455 26.4752 114.832 24.9523 114.832 24.4837C114.549 24.3373 113.045 24.0152 112.637 23.9273C111.791 23.7223 111.007 23.693 110.066 23.6637C106.963 23.5759 103.107 23.9566 103.107 27.7053C103.107 31.3368 105.74 31.8054 109.251 32.5376C111.07 32.9183 112.574 32.7719 112.324 34.9391C112.167 36.4913 109.502 36.1691 108.06 36.052C104.925 35.7884 104.549 35.232 103.295 35.1441Z" fill="#DDCF71"/>
<path fill-rule="evenodd" clip-rule="evenodd" d="M137.152 30.9268C136.995 31.0439 137.152 31.0147 136.776 31.044L133.641 31.0147C133.484 30.5461 133.547 27.1781 133.578 26.5338C134.174 26.4459 137.309 26.3874 137.716 26.6509C139.346 26.5631 139.346 27.7638 139.346 29.111C139.346 30.5168 138.688 31.0147 137.152 30.9268ZM133.766 33.3576C135.71 33.3869 139.503 33.5626 140.977 32.8304C142.889 31.8933 142.889 28.9939 142.701 27.1781C142.262 22.7851 134.581 24.2787 130.475 24.0151L130.443 38.4828H133.61V33.6505C133.641 33.3869 133.61 33.504 133.766 33.3576Z" fill="#DDCF71"/>
<path fill-rule="evenodd" clip-rule="evenodd" d="M89.5955 30.634L89.3447 30.7804L89.3133 30.2239C89.2506 28.4375 86.3979 24.0737 85.9276 23.8394C85.6141 23.693 83.1689 23.7516 82.636 23.7809C82.636 24.6302 86.586 30.0189 87.401 31.3661C87.9026 32.2154 87.8086 32.274 87.8086 33.3576C87.8086 34.3827 87.6832 37.4285 87.8713 38.2192H90.9748C91.1629 37.5749 91.0375 34.2655 91.0375 33.3576C91.0375 31.6297 91.5077 31.4247 92.605 29.8432C93.2946 28.8182 94.0157 27.9396 94.7367 26.9145C95.0815 26.4167 96.6803 24.3666 96.6176 23.7809C95.8653 23.7516 93.7335 23.6051 93.326 23.9273C92.8557 24.308 92.1661 25.3038 91.7585 25.8895L90.3792 27.9396C90.097 28.4667 89.7209 30.0482 89.5955 30.634Z" fill="#DDCF71"/>
<path fill-rule="evenodd" clip-rule="evenodd" d="M180.194 29.931C180.194 29.0817 180.947 28.3202 181.918 28.3202C183.141 28.3202 183.956 29.1402 183.956 30.1946C183.987 32.0103 180.194 32.8597 180.194 29.931ZM180.978 27.2659C180.163 27.5588 179.598 27.9688 179.191 28.6131C178.846 29.1695 178.721 30.3996 178.972 31.1318C179.379 32.3032 181.197 33.5625 183.11 32.889C185.68 31.9811 186.182 29.111 183.737 27.5295C183.141 27.1195 181.856 26.9437 180.978 27.2659Z" fill="#DDCF71"/>
<path fill-rule="evenodd" clip-rule="evenodd" d="M6.36389 28.5253C8.90316 27.9103 9.84363 31.0147 7.55516 31.8933C6.48929 32.3033 5.42342 31.454 5.17263 30.7804C4.79644 29.7847 5.51747 28.7303 6.36389 28.5253ZM6.1758 27.3246C3.44844 27.8517 2.8528 31.1318 5.10993 32.6548C5.76826 33.0941 6.86548 33.2112 7.8373 33.0648C9.90633 32.7719 11.2543 29.4332 8.77777 27.6467C8.15079 27.2367 7.08492 27.1489 6.1758 27.3246Z" fill="#DDCF71"/>
<path fill-rule="evenodd" clip-rule="evenodd" d="M91.1316 12.3298C90.4105 13.882 88.4669 13.5012 88.4356 12.2419C88.4356 11.8612 88.4042 11.0119 88.4669 10.6604C88.6863 9.34251 91.0689 9.25465 91.257 10.8361C91.2883 11.3047 91.3197 11.949 91.1316 12.3298ZM91.9466 12.3883C92.0407 11.8026 92.3855 11.8026 92.2601 10.7483C92.1974 10.2211 91.9466 9.75252 91.6331 9.43037C90.5673 8.28819 88.7804 9.60609 88.561 9.63538V6.82385H86.7741C86.8368 7.02886 86.5233 6.97029 86.9308 6.99957C87.6518 7.02886 87.5264 6.99957 87.5264 8.2589C87.5264 8.87392 87.5264 9.48894 87.5578 10.104C87.5578 11.3047 87.401 12.5348 87.4324 13.7062L87.9967 13.4427C89.2193 14.087 90.097 13.9405 91.1316 13.1205L91.8212 12.4469C91.8839 12.4176 91.9153 12.4176 91.9466 12.3883Z" fill="#DDCF71"/>
<path fill-rule="evenodd" clip-rule="evenodd" d="M98.0284 26.2116L99.1256 26.2409C99.1883 26.5044 99.251 26.8852 99.0316 27.0316C98.9375 27.6173 98.4046 28.0566 98.0284 28.2909C98.4359 29.9896 100.16 28.9938 100.662 27.2366C100.913 26.3287 100.85 24.5422 100.818 23.4879C100.254 23.4293 98.4987 23.3708 97.9971 23.5172L98.0284 26.2116Z" fill="#DDCF71"/>
<path fill-rule="evenodd" clip-rule="evenodd" d="M108.029 52.1304L107.903 52.3061L107.841 52.0132L107.558 51.7204C107.026 51.984 106.367 52.5404 106.21 53.1554C106.681 53.0676 106.555 52.9797 106.931 52.8333C107.37 53.1261 108.875 55.0298 109.063 55.8205C108.906 56.172 108.875 56.0841 108.718 56.3477C108.718 56.5234 108.687 56.4648 108.906 56.4648C109.628 56.0548 110.631 55.5862 110.881 54.9712L110.223 55.1762C109.502 54.8248 107.276 52.189 109.063 51.4568C110.129 51.0175 110.631 51.779 111.038 52.4233C111.32 52.8626 112.01 54.0926 112.386 54.2976C112.794 54.1512 113.577 53.5947 113.734 53.3019L113.076 53.4483C112.167 52.804 111.697 51.3397 110.913 50.7539C110.004 50.0803 108.468 50.256 108.029 52.1304Z" fill="#DDCF71"/>
<path fill-rule="evenodd" clip-rule="evenodd" d="M98.2791 59.5399C98.3731 59.4813 98.185 59.4813 98.5612 59.4227C98.6553 59.4227 98.9061 59.4227 99.0315 59.4227C98.9061 59.2177 99.0628 59.3641 98.7807 59.247L98.5299 59.1591C98.4985 59.1591 98.4672 59.1299 98.4358 59.1299C97.9343 58.8956 98.091 57.9877 98.091 57.1969C98.091 56.4062 98.091 55.5862 98.091 54.7954L96.2101 55.3226C96.5549 55.5569 96.9311 55.5569 97.1192 55.9083C97.3073 56.289 97.2446 56.7869 97.2446 57.1969C97.2446 57.7534 97.37 58.7491 96.2101 59.1006C94.2978 59.6863 94.674 56.1133 94.674 54.9418L93.2633 55.3226C92.8557 55.4397 92.9811 55.3519 92.8557 55.6154C93.42 56.0547 93.8589 55.264 93.8275 56.9041C93.8275 58.6906 93.5767 59.862 95.6458 59.7156C96.0533 59.6863 96.3041 59.5984 96.5549 59.4227C96.9311 59.1591 96.837 59.1006 97.2132 58.8956L97.2446 59.5692L98.2791 59.5399Z" fill="#DDCF71"/>
<path fill-rule="evenodd" clip-rule="evenodd" d="M110.254 48.3816C110.537 48.8502 110.975 49.0552 111.289 49.4945L111.164 50.256L111.665 49.9924C113.013 50.3438 113.922 53.4189 115.552 52.0132C115.991 51.6325 115.866 51.3689 115.866 50.8417C115.333 51.0174 115.458 51.2517 114.957 51.4274C114.236 51.1346 112.856 49.846 112.574 49.2017C112.794 48.7916 112.982 48.8209 113.358 48.5574C113.389 48.2059 113.421 48.3231 113.327 48.0595C112.95 48.0009 112.449 48.5574 111.979 48.7624L110.662 47.4445L110.254 48.3816Z" fill="#DDCF71"/>
<path fill-rule="evenodd" clip-rule="evenodd" d="M98.4359 59.1592C98.8748 59.1885 98.9061 59.1006 99.0942 59.3349C98.9061 59.5985 99.2509 59.452 98.7807 59.5399C98.7494 59.5399 98.3418 59.5399 98.2791 59.5399L97.2133 59.5985L97.1819 58.9249C96.7744 59.1299 96.8998 59.1885 96.5236 59.452C96.2728 59.6278 96.022 59.7156 95.6145 59.7449C93.5454 59.8913 93.7962 58.7199 93.7962 56.9334C93.7962 55.2933 93.3887 56.0548 92.8244 55.6448C92.9498 55.3812 92.8244 55.469 93.2319 55.3519L94.6426 54.9712C94.6426 56.1426 94.2664 59.7156 96.1787 59.1299C97.3386 58.7784 97.2133 57.7827 97.2133 57.2262C97.2133 56.8162 97.2759 56.2891 97.0879 55.9376C96.8998 55.5862 96.5236 55.5862 96.1787 55.3519L98.0597 54.8247C98.091 55.6155 98.0597 56.4355 98.0597 57.2262C98.0597 57.9877 97.9029 58.8956 98.4359 59.1592ZM89.6895 56.6698C89.7522 56.6405 89.6581 56.5819 90.097 56.5526H91.351L91.2883 55.8205C91.1002 55.1469 90.4732 55.0297 89.5328 55.2055C89.1879 55.5862 89.4073 55.7326 88.7804 55.8791L88.8431 55.0883C89.9716 54.6197 91.7585 54.3561 92.2288 55.4398C92.6676 56.4355 92.0093 58.1048 92.1661 59.1884C92.6676 59.4227 92.5423 59.1592 92.699 59.5399C92.3855 59.7156 91.6018 59.5692 91.1629 59.4813L91.1315 58.7784C90.4732 58.9249 90.2851 59.3056 89.6268 59.3642C87.2129 59.5399 87.7145 56.7869 89.6895 56.6698ZM100.442 55.0883C100.223 54.7954 100.317 54.6783 100.16 54.3269C99.6898 54.3269 99.5958 54.5026 99.2509 54.6783C98.7494 54.9126 98.4672 54.7369 98.4672 55.2347H99.5017L100.223 58.7784C99.6898 58.9834 99.6585 58.7492 99.5644 59.1592C99.6585 59.2177 99.439 59.3349 100.254 59.1592L101.822 58.837C102.292 58.7492 102.354 58.837 102.354 58.4563L101.571 58.5734C100.944 58.017 100.662 56.3476 100.756 55.3519C101.602 54.7076 101.822 55.1469 102.323 55.264C102.386 54.854 102.292 54.2683 102.135 53.9754C100.724 53.9168 101.132 54.5904 100.442 55.0883ZM103.138 55.0883C102.825 55.0883 102.793 55.2055 102.731 54.7076C102.605 53.5068 104.956 52.7161 105.677 53.1847C106.837 53.9754 106.837 55.7326 107.621 56.5819L108.248 56.5234C108.029 57.0212 107.433 57.2555 106.743 57.2848L106.555 56.6698C105.991 56.8748 106.43 57.5484 105.239 58.0463C104.925 58.1927 104.455 58.2806 104.141 58.1341C103.953 58.0756 103.577 57.7241 103.483 57.5191C103.358 57.2262 103.389 56.6112 103.483 56.2891C103.797 55.4397 105.427 54.7662 105.583 54.5904C105.395 54.0633 104.988 53.5361 104.173 53.7411C103.013 54.034 103.201 54.854 103.138 55.0883ZM80.9431 55.264C81.1312 55.1762 80.661 55.0883 81.288 55.1762C81.288 55.5276 81.3507 55.3812 81.1626 55.6155C81.1626 56.2012 81.1939 56.6112 82.2911 56.9334C83.0749 57.1677 83.6705 56.8748 83.6705 56.0841C83.4824 55.4398 80.8491 54.7662 81.8522 53.2725C82.7614 51.9253 84.4542 52.8918 85.3947 53.5361C85.332 53.9754 85.1439 54.5026 84.705 54.5904C84.6423 53.7997 84.611 53.3604 83.8899 53.1261C83.0122 52.8332 82.5733 53.3018 82.5733 54.0047C83.0122 54.5026 83.6705 54.6783 84.1721 55.0883C85.332 56.0548 84.2034 57.8705 82.1657 57.3141C81.8209 57.2262 81.5074 57.0212 81.2253 56.8748C80.9745 56.7284 80.6296 56.6112 80.4415 56.4062L80.9431 55.264ZM86.2411 54.1218L85.4887 54.1804C85.5201 54.5904 85.7082 54.5026 86.1471 54.5904C86.0217 56.2012 84.3602 58.3099 86.1471 58.6906C86.8681 58.837 87.4324 58.7491 87.5264 58.1634C87.1189 58.1634 86.8994 58.1927 86.5859 58.0756C86.0844 57.197 86.9308 55.7326 87.1502 54.8833C87.6518 54.9712 88.1534 55.2347 88.6236 54.9712C88.655 54.6197 88.6863 54.6197 88.2161 54.5319C87.9026 54.444 87.6205 54.444 87.307 54.4147L87.8712 52.5111L86.8054 52.5989C86.4919 53.3311 86.7427 53.4483 86.2411 54.1218ZM80.0026 55.469C79.6265 55.0883 78.9054 55.4398 78.059 54.5904C77.5261 54.0633 77.6515 53.0089 78.1217 52.5111C78.9054 52.8039 80.661 53.9461 81.3193 54.0926C81.6014 53.3311 82.2598 51.9546 80.755 51.1639C80.1594 50.871 79.6892 50.8124 78.9054 50.8417C77.2126 50.9296 75.2376 54.034 78.2785 55.4983C78.9054 55.7912 79.4697 55.9376 80.0026 55.469ZM108.875 56.4941C109.596 56.0841 110.599 55.6155 110.85 55.0005L110.192 55.2055C109.471 54.854 107.245 52.2182 109.032 51.486C110.098 51.0467 110.599 51.8082 111.007 52.4525C111.289 52.8918 111.979 54.1218 112.355 54.3269C112.762 54.1804 113.546 53.624 113.703 53.3311L113.045 53.4775C112.135 52.8332 111.665 51.3689 110.881 50.7832C109.972 50.0803 108.436 50.256 107.997 52.1304L107.778 52.0132L107.496 51.7203C106.963 51.9839 106.304 52.5404 106.148 53.1554C106.618 53.0675 106.493 52.9797 106.869 52.8332C107.308 53.1261 108.812 55.0297 109 55.8205C108.844 56.1719 108.812 56.0841 108.656 56.3476L108.562 56.5526C109.189 56.6405 108.656 56.5819 108.875 56.4941ZM114.957 51.4568C115.458 51.281 115.333 51.0467 115.866 50.871C115.866 51.3982 115.96 51.6618 115.552 52.0425C113.954 53.4775 113.013 50.3731 111.665 50.0217L111.164 50.2853L111.289 49.5238C110.975 49.0552 110.537 48.8795 110.254 48.4109L110.599 47.503L111.916 48.8209C112.386 48.6159 112.888 48.0888 113.264 48.1181C113.389 48.3816 113.358 48.2938 113.295 48.6159C112.919 48.8795 112.731 48.8209 112.512 49.2602C112.856 49.8753 114.236 51.1346 114.957 51.4568ZM73.3567 51.3396C73.8269 51.3396 75.8646 49.2603 75.9586 48.5867C75.5511 48.1766 75.5197 48.5574 75.457 48.0009L77.2439 48.7331L76.7423 49.5238C77.5261 49.5824 78.0904 49.4653 78.5919 49.8167C78.686 50.4317 78.1217 50.8417 77.6515 50.9882C77.5888 50.3731 77.6201 49.9924 77.0245 49.9046C76.5856 49.8167 76.1467 50.1974 75.8959 50.4317C73.294 52.7454 74.9241 52.1303 74.7987 53.0382C74.4539 52.9504 72.667 51.486 72.5729 51.1346C73.0745 51.1346 72.9491 51.1932 73.3567 51.3396ZM18.3705 23.2829C19.8752 23.1658 22.0697 23.2243 23.6058 23.2536C25.1732 23.2829 26.8347 23.3708 28.2141 23.8979C31.2236 25.0108 31.6625 26.973 31.6625 30.5167C31.6625 32.0982 31.6938 33.5626 31.0355 34.8512C29.468 38.0141 26.7093 37.7506 23.6058 37.7506C22.0383 37.7506 19.8439 37.8677 18.3705 37.7213V23.2829ZM51.9139 23.5172C54.61 23.4001 59.5631 23.3415 61.7889 24.1615C64.5789 25.1866 65.2059 27.5295 65.1746 30.8682C65.1432 34.1776 64.4849 36.5205 61.7262 37.5163C59.7512 38.2191 54.2338 38.0141 51.7258 37.9849L51.9139 23.5172ZM68.2781 23.6344C76.5229 23.6344 81.6955 22.6386 81.6641 30.8682C81.6641 34.119 80.8804 36.5791 78.3411 37.6627C76.5229 38.4242 70.692 38.102 68.2781 38.102V38.0141V23.6344ZM180.978 27.2659C181.824 26.9438 183.11 27.1488 183.737 27.5295C186.182 29.1403 185.712 32.0104 183.11 32.889C181.197 33.5626 179.379 32.3032 178.971 31.1318C178.721 30.3996 178.846 29.1695 179.191 28.6131C179.598 27.9688 180.194 27.5588 180.978 27.2659ZM6.17573 27.3245C7.08485 27.1488 8.15072 27.2073 8.7777 27.6759C11.2543 29.4331 9.90627 32.8011 7.83723 33.094C6.86541 33.2111 5.76819 33.1233 5.10986 32.684C2.85273 31.161 3.44837 27.8809 6.17573 27.3245ZM133.766 33.3576L133.672 38.512C133.233 38.6877 130.851 38.6877 130.381 38.512C130.255 37.7213 130.381 27.0023 130.349 24.7473C130.349 24.6594 130.349 24.3372 130.349 24.2787C130.412 23.8687 130.286 24.103 130.506 24.0151C134.581 24.2787 142.262 22.785 142.732 27.1781C142.92 28.9938 142.92 31.8932 141.008 32.8304C139.472 33.5626 135.71 33.3868 133.766 33.3576ZM171.73 31.3368C171.604 31.4832 171.698 31.3953 171.604 31.6296C172.043 31.8932 172.702 32.3911 172.984 32.8597C173.611 33.8847 174.081 37.4577 171.416 38.3949C169.974 38.8927 162.607 38.922 160.695 38.7756V24.3372C162.607 24.1615 169.629 24.2201 171.197 24.6887C171.887 24.8937 172.482 25.333 172.827 25.7723C173.517 26.6509 173.423 29.316 173.015 30.0774C172.702 30.6632 172.357 31.1025 171.73 31.3368ZM99.0315 27.0609L99.0942 26.3287L98.1851 26.2995C98.1537 26.2995 98.1224 26.2995 98.091 26.2702C98.0597 26.2409 98.0283 26.2409 98.0283 26.2409V23.6051C98.5299 23.4586 100.285 23.5172 100.85 23.5758C100.881 24.6008 100.944 26.4166 100.693 27.3245C100.191 29.0817 98.4672 30.0774 98.0597 28.3788C98.4045 28.0859 98.9688 27.6466 99.0315 27.0609ZM103.295 35.1441C104.549 35.2319 104.925 35.8176 108.091 36.0812C109.533 36.1984 112.167 36.5205 112.355 34.9683C112.606 32.8011 111.101 32.9475 109.283 32.5668C105.772 31.8346 103.138 31.3661 103.138 27.7345C103.138 23.9565 106.994 23.6051 110.098 23.6929C111.038 23.7222 111.822 23.7515 112.668 23.9565C113.076 24.0444 114.581 24.3665 114.863 24.513C114.863 24.9815 114.487 26.5045 114.236 26.7973C114.173 26.8559 114.298 26.9438 113.703 26.8266C111.916 26.4166 111.634 26.1823 109.502 26.1823C107.433 26.1823 105.96 26.153 106.367 28.4667C106.618 29.8431 111.916 29.4331 114.361 31.5418C115.364 32.4204 115.741 34.0019 115.396 35.7591C114.487 40.4157 103.922 38.2777 102.731 37.487L103.295 35.1441ZM48.6536 37.7506L48.5282 38.0434C48.3715 38.0434 48.3088 38.0434 48.1207 38.0141C47.7759 37.9556 48.0267 37.9849 47.9013 37.9263C46.8667 37.8677 45.6441 37.1648 45.456 36.2569C45.2993 36.1105 45.3933 36.1398 45.1426 36.1398C44.9231 36.2277 44.1707 36.9013 44.0453 37.0184C41.9136 38.8342 37.5247 38.2777 35.8005 37.1941C35.1736 36.8134 34.3898 35.9055 34.2331 34.8512C34.0763 33.7383 34.0763 32.1861 34.5466 31.2782C36.1454 28.0274 40.2835 28.701 44.108 28.701C44.1394 27.7931 43.9513 26.9145 43.481 26.3287C42.133 24.6887 36.741 26.3873 35.9573 26.4166C35.6438 25.8894 35.2363 24.8058 35.2049 24.0444C38.2771 23.4586 37.1172 23.1365 41.2553 23.1658C43.6065 23.1951 45.3306 23.6929 46.3338 24.9523C48.2461 27.3831 46.9608 33.3868 47.7132 34.9976C47.964 35.5248 48.1207 35.5248 48.8731 35.5248L48.6536 37.7506ZM157.466 34.1776C157.591 35.1148 156.996 36.6084 156.494 37.2527C155.961 37.9556 154.958 38.4534 153.892 38.717C152.262 39.127 148.281 39.127 146.494 38.0141C144.519 36.8134 144.456 34.7926 144.456 32.0689C144.456 29.4624 144.456 26.8266 144.456 24.1615H147.842C149.159 24.3665 156.714 23.9565 157.529 24.2787H154.425H157.623C157.748 25.8016 157.654 27.7052 157.654 29.2574C157.623 29.9017 157.748 34.0311 157.466 34.1776ZM89.3133 30.2239C89.3447 30.2824 89.4073 30.3996 89.4073 30.4289C89.5014 30.6046 89.47 30.5167 89.5641 30.6339C89.7208 30.0482 90.097 28.4667 90.3792 27.9688L91.7585 25.9187C92.1661 25.3037 92.8557 24.3372 93.326 23.9565C93.7335 23.6344 95.8652 23.7808 96.6176 23.8101C96.649 24.3958 95.0815 26.4752 94.7367 26.9438C94.0157 27.9395 93.2946 28.8474 92.6049 29.8724C91.5391 31.4539 91.0375 31.6589 91.0375 33.3868C91.0375 34.2947 91.1629 37.6041 90.9748 38.2484H87.8712C87.6832 37.4284 87.8086 34.4119 87.8086 33.3868C87.8086 32.3032 87.9026 32.2447 87.401 31.3953C86.5859 30.0482 82.636 24.6594 82.636 23.8101C83.1689 23.7808 85.6455 23.7222 85.9276 23.8687C86.3979 24.0737 89.2506 28.4374 89.3133 30.2239ZM119.408 12.5054C119.22 12.6518 118.625 12.5933 118.217 12.5933H100.003V13.6476C101.257 13.794 100.85 13.7354 100.944 13.999C100.662 14.1162 100.129 13.9697 99.7212 14.0283C97.7148 14.1162 98.3732 14.204 97.8089 13.794L97.6208 13.7062C97.6208 14.0283 97.9029 13.9697 95.9279 13.9405L95.8966 13.2083C95.0502 13.4719 95.2069 14.0283 93.953 13.9405C93.1379 13.8819 92.6049 13.4133 92.793 12.6226C92.3228 12.6226 92.0407 12.769 91.9153 12.4175C91.8839 12.4468 91.8526 12.4468 91.8526 12.4761L91.1629 13.1497C90.1284 13.9697 89.2506 14.1162 88.028 13.4719L87.4637 13.7354C87.4324 12.564 87.5891 11.3339 87.5891 10.1332C87.5891 9.51816 87.5578 8.90314 87.5578 8.28811C87.5578 7.02878 87.6518 7.05807 86.9621 7.02878C86.5232 7.02878 86.8367 7.05807 86.8054 6.85307C87.5891 7.02879 88.3728 6.79449 89.0625 6.79449C89.8776 6.79449 90.724 6.79449 91.5391 6.79449V1.6986C91.445 1.58145 91.445 1.61074 91.351 1.52288C91.1629 1.52288 91.257 1.55216 91.257 1.31787C86.053 1.55216 79.2189 4.53941 75.8646 6.79449C73.1059 8.66884 69.971 11.6561 68.0587 14.3212C67.6825 14.8483 67.369 15.3169 66.9928 15.8441C66.5853 16.4005 66.4285 16.8106 66.115 17.4256H12.3828L12.3515 20.9986C11.317 21.1157 10.6586 20.9986 9.62412 21.2329C7.36699 21.7307 5.6428 22.8729 4.16939 24.2787C0.909096 27.4416 0.21942 32.2154 3.10353 36.4034C4.16939 37.9849 4.57693 38.1313 6.05033 39.127C7.61778 40.2106 9.31063 40.8842 11.411 40.9721C12.0066 41.0014 12.3515 40.8257 12.3828 41.3235C12.4142 42.0557 12.2574 43.315 12.4455 43.9886H65.7388C65.9269 44.8672 67.3377 46.8295 67.8706 47.5616C69.3753 49.6117 69.6575 49.7874 71.0995 51.3982C72.5729 53.0382 74.7047 54.5026 76.617 55.7912C78.8427 57.3141 81.5701 58.427 84.5169 59.3935C90.9435 61.4728 98.3105 61.2971 104.768 59.2763C110.693 57.402 114.737 54.5319 118.75 50.4317C119.596 49.5531 120.537 48.4402 121.258 47.298C121.509 46.888 123.045 44.0765 123.609 43.9886L175.366 43.9593V40.7378C179.191 40.7378 181.511 39.7128 183.486 37.897C188.972 32.889 187.561 24.2494 179.975 21.4964C178.25 20.8814 177.31 20.9107 175.366 20.7057V17.3963H122.888C122.512 16.4298 121.885 15.5219 121.321 14.7898C120.976 14.3798 119.722 12.6518 119.408 12.5054Z" fill="#15402F"/>
<path fill-rule="evenodd" clip-rule="evenodd" d="M91.2255 1.28862C91.2255 1.52291 91.1628 1.49362 91.3195 1.49362C91.4449 1.61077 91.4136 1.58148 91.5076 1.66934V6.76523C90.6926 6.76523 89.8461 6.76523 89.0311 6.76523C88.3414 6.76523 87.5577 6.99953 86.7739 6.8238H88.5608V9.63533C88.7803 9.60605 90.5358 8.28814 91.633 9.43032C91.9465 9.75248 92.1973 10.2211 92.26 10.7482C92.3541 11.8025 92.0092 11.8025 91.9465 12.3883C92.0719 12.7397 92.3541 12.5933 92.8243 12.5933C92.981 11.539 93.9215 11.129 95.2068 11.0997L95.583 11.0118C95.8338 10.9532 95.677 11.0411 95.9278 10.9532L95.8965 10.2796C95.5517 9.66462 94.8933 9.63533 94.0155 9.75248C93.8275 10.1039 93.8588 10.3675 93.3572 10.4261V9.66462C94.0155 9.40104 94.3604 9.10817 95.2068 9.13745C96.0219 9.16674 96.5548 9.37175 96.8056 9.89891C97.1191 10.4846 96.9937 11.2754 96.9624 11.949C96.8997 12.974 96.7743 13.3255 97.652 13.6769L97.8401 13.7648C98.4044 14.1748 97.7461 14.0869 99.7524 13.9991C99.5957 13.794 98.7806 13.9112 98.4671 13.9112L98.0282 13.794C98.2163 13.5305 97.9342 13.6769 98.4671 13.6183C99.0627 13.5598 99 13.6476 99 12.3004C99 11.5683 99.0627 10.6311 98.9687 9.89891C98.5612 9.89891 98.4358 9.95749 98.1536 9.78177C98.2163 9.31318 98.1536 9.4889 98.7493 9.45961C99.0627 9.43032 99.2195 9.34246 99.533 9.31318C99.5957 9.28389 99.4389 9.16674 100.003 9.22532C100.097 10.3382 99.9405 9.86963 100.223 10.0746C100.348 9.66462 101.163 8.99102 101.916 9.31318C102.135 9.66462 101.978 10.2796 101.821 10.5139C101.32 10.3675 100.85 9.75248 100.254 10.4554C99.8465 10.9532 99.9719 11.8611 99.9719 12.564H118.186C118.593 12.564 119.189 12.6226 119.377 12.4761C118.499 11.0411 114.769 7.87813 112.982 6.67737C109.22 4.21729 105.238 2.51865 100.536 1.66934C98.6865 1.37647 93.1064 0.849315 91.2255 1.28862Z" fill="#15402F"/>
<path fill-rule="evenodd" clip-rule="evenodd" d="M154.331 33.5625C154.268 32.0396 154.331 30.4582 154.331 28.9352C154.331 27.9981 154.206 24.9815 154.394 24.3079H157.497C156.714 24.0151 149.127 24.3958 147.811 24.1908C147.591 25.4501 147.685 27.9981 147.685 29.4038C147.654 30.8389 147.434 33.3575 147.842 34.6169C148.375 36.3155 149.472 36.5205 151.635 36.4034C153.516 36.2862 154.425 35.4076 154.331 33.5625Z" fill="#15402F"/>
<path fill-rule="evenodd" clip-rule="evenodd" d="M71.4758 35.5834C72.7611 35.7298 75.9587 35.7591 76.9305 35.1441C78.2159 34.3533 78.3099 32.7425 78.3099 30.8682C78.3099 29.0231 78.1845 27.4709 76.8365 26.6802C75.7393 26.0359 72.9806 26.0359 71.4758 26.1823V35.5834Z" fill="#15402F"/>
<path fill-rule="evenodd" clip-rule="evenodd" d="M54.9861 35.4954C56.5535 35.4954 59.4063 35.7883 60.4722 35.0269C61.7575 34.1483 61.8202 32.6253 61.8202 30.7803C61.8202 25.6258 59.7511 26.0066 54.9861 26.0066V35.4954Z" fill="#15402F"/>
<path fill-rule="evenodd" clip-rule="evenodd" d="M21.6309 35.3491C26.5213 35.3491 28.4649 35.642 28.4336 30.6047C28.4022 25.5966 26.5527 25.7724 21.6622 25.7724L21.6309 35.3491Z" fill="#15402F"/>
<path fill-rule="evenodd" clip-rule="evenodd" d="M44.1393 31.1904C43.2616 31.1026 39.2175 31.1026 38.5906 31.3076C37.0545 31.8347 36.9604 34.2948 37.8695 35.0855C38.7473 35.8177 41.6941 35.847 42.6659 35.232C43.8258 34.5291 44.2647 32.9769 44.1393 31.1904Z" fill="#15402F"/>
<path fill-rule="evenodd" clip-rule="evenodd" d="M137.152 30.9268C138.688 31.0147 139.346 30.5168 139.346 29.1111C139.346 27.7639 139.346 26.5631 137.716 26.651C136.399 26.6217 135.02 26.5631 133.672 26.5631V30.8976L137.152 30.9268Z" fill="#15402F"/>
<path fill-rule="evenodd" clip-rule="evenodd" d="M163.422 36.257C164.331 36.3156 168.971 36.4327 169.723 36.052C170.695 35.5248 170.162 33.504 169.629 33.0647C169.159 32.684 168.407 32.7426 167.78 32.7426C166.369 32.7426 164.833 32.684 163.454 32.7426L163.422 36.257Z" fill="#15402F"/>
<path fill-rule="evenodd" clip-rule="evenodd" d="M163.548 30.2239C164.927 30.2239 166.307 30.2239 167.655 30.2239C169.316 30.2239 170.006 30.2532 170.068 28.5546C170.162 26.8559 169.41 26.8266 167.749 26.7974C166.369 26.7681 164.927 26.7681 163.548 26.7974V30.2239Z" fill="#15402F"/>
<path fill-rule="evenodd" clip-rule="evenodd" d="M6.36386 28.5253C5.51744 28.7303 4.79642 29.7847 5.1726 30.7804C5.4234 31.454 6.48926 32.3033 7.55513 31.8933C9.8436 31.0147 8.90313 27.9103 6.36386 28.5253Z" fill="#15402F"/>
<path fill-rule="evenodd" clip-rule="evenodd" d="M180.194 29.9311C180.194 32.8305 183.956 31.9812 183.956 30.1947C183.956 29.1403 183.141 28.3203 181.918 28.3203C180.978 28.3496 180.194 29.1111 180.194 29.9311Z" fill="#15402F"/>
<path fill-rule="evenodd" clip-rule="evenodd" d="M91.1314 12.3296C91.3195 11.9489 91.2882 11.3046 91.2255 10.836C91.0687 9.25454 88.6862 9.3424 88.4354 10.6603C88.3727 11.0117 88.4041 11.8611 88.4041 12.2418C88.4668 13.5011 90.4418 13.8818 91.1314 12.3296Z" fill="#15402F"/>
<path fill-rule="evenodd" clip-rule="evenodd" d="M91.3511 56.9334C90.5987 56.9334 90.1284 56.9041 89.5642 57.2263C89.188 57.4606 88.6237 58.0756 89.2507 58.5735C89.6582 58.9249 90.4106 58.7492 90.8181 58.4856C91.257 58.1928 91.3824 57.6949 91.3511 56.9334Z" fill="#15402F"/>
<path fill-rule="evenodd" clip-rule="evenodd" d="M105.803 55.0591C104.8 55.1762 103.389 56.6698 104.643 57.2849C105.395 57.6656 105.803 57.0213 106.022 56.6699C106.367 56.1427 106.116 55.557 105.803 55.0591Z" fill="#15402F"/>
<path fill-rule="evenodd" clip-rule="evenodd" d="M78.4666 52.1011L79.407 52.7747C79.7519 52.9797 80.034 53.214 80.5042 53.2433C81.0372 52.7747 81.1626 51.779 80.3788 51.3982C79.4697 50.9297 78.7173 51.4861 78.4666 52.1011Z" fill="#15402F"/>
<path fill-rule="evenodd" clip-rule="evenodd" d="M95.9592 11.3925C94.6426 11.2168 93.2005 12.359 94.0156 13.1497C94.4231 13.5597 95.1755 13.2668 95.5517 13.0325C96.116 12.6811 95.9592 12.1832 95.9592 11.3925Z" fill="#15402F"/>
<path fill-rule="evenodd" clip-rule="evenodd" d="M133.766 33.3576C133.609 33.504 133.641 33.3869 133.609 33.6505V38.4828H130.443L130.475 24.0151C130.255 24.1323 130.381 23.898 130.318 24.2787C130.318 24.3373 130.318 24.6594 130.318 24.7473C130.349 27.0024 130.224 37.7213 130.349 38.5121C130.788 38.6585 133.171 38.6585 133.641 38.5121L133.766 33.3576Z" fill="#526C3E"/>
<path fill-rule="evenodd" clip-rule="evenodd" d="M154.331 33.5626C154.551 33.0647 154.425 25.5673 154.425 24.3373H157.497V31.7761C157.497 32.3911 157.403 33.6797 157.466 34.1483C157.717 34.0019 157.591 29.8725 157.591 29.2574C157.591 27.7052 157.685 25.7723 157.56 24.2787H154.362C154.174 24.9523 154.3 27.9688 154.3 28.906C154.331 30.4582 154.3 32.0397 154.331 33.5626Z" fill="#A2A661"/>
<path fill-rule="evenodd" clip-rule="evenodd" d="M137.152 30.9268L133.704 30.8975V26.563C135.052 26.563 136.431 26.6216 137.748 26.6509C137.34 26.358 134.205 26.4459 133.61 26.5338C133.547 27.1781 133.484 30.546 133.672 31.0146L136.807 31.0439C137.152 31.0146 136.995 31.0439 137.152 30.9268Z" fill="#6D814B"/>
<path fill-rule="evenodd" clip-rule="evenodd" d="M89.6895 56.6699L91.3823 56.6406C91.4136 56.4356 91.4763 56.4063 91.445 56.172C91.4136 55.8498 91.4136 55.9377 91.2882 55.7913L91.3509 56.5234H90.097C89.6581 56.582 89.7522 56.6406 89.6895 56.6699Z" fill="#5F7749"/>
<path fill-rule="evenodd" clip-rule="evenodd" d="M90.3164 0.175722L91.8525 0H90.3164V0.175722Z" fill="#FFFEF6"/>
<path fill-rule="evenodd" clip-rule="evenodd" d="M100.254 10.1332C99.972 9.95747 100.097 10.3968 100.035 9.28387C99.4704 9.2253 99.6272 9.34245 99.5645 9.37174L99.972 9.31316L100.003 10.2503L100.254 10.1332Z" fill="#89945B"/>
<path fill-rule="evenodd" clip-rule="evenodd" d="M98.2791 59.5399C98.3418 59.5399 98.7493 59.5399 98.7806 59.5399C99.2509 59.4521 98.9374 59.5985 99.0941 59.3349C98.8747 59.0713 98.8433 59.1592 98.4358 59.1592C98.4671 59.1592 98.4985 59.1885 98.5298 59.1885L98.7806 59.2763C99.0628 59.3935 98.906 59.2471 99.0314 59.4521C98.9374 59.4521 98.6866 59.4521 98.5612 59.4521C98.185 59.4814 98.3418 59.4813 98.2791 59.5399Z" fill="#8C9655"/>
<path fill-rule="evenodd" clip-rule="evenodd" d="M95.207 11.0997L95.9281 11.0704L96.0221 10.5432C95.9594 10.1918 95.9281 10.3089 95.8654 10.2504L95.8967 10.924C95.6459 11.0118 95.8027 10.9532 95.5519 10.9825L95.207 11.0997Z" fill="#70834F"/>
<path fill-rule="evenodd" clip-rule="evenodd" d="M47.9326 37.897C48.058 37.9556 47.8072 37.9263 48.1521 37.9849C48.3402 38.0142 48.4029 38.0142 48.5596 38.0142L48.685 37.7213L47.9326 37.897Z" fill="#839050"/>
<path fill-rule="evenodd" clip-rule="evenodd" d="M76.5543 57.2848L75.7393 56.7577C75.8647 57.0213 75.7393 56.9334 76.0214 57.0798C76.1781 57.197 76.3349 57.2556 76.5543 57.2848Z" fill="#FDFDF6"/>
<path fill-rule="evenodd" clip-rule="evenodd" d="M81.1625 55.6155C81.3506 55.3812 81.2879 55.5276 81.2879 55.1762C80.6296 55.0883 81.0998 55.1762 80.9431 55.264C81.4447 55.2054 81.0998 55.2055 81.2252 55.3519L81.1625 55.6155Z" fill="#6B7E48"/>
<path fill-rule="evenodd" clip-rule="evenodd" d="M45.4873 36.257L45.3933 35.9641L45.1738 36.1398C45.4246 36.1398 45.3306 36.1105 45.4873 36.257Z" fill="#72854C"/>
<path fill-rule="evenodd" clip-rule="evenodd" d="M171.604 31.6004C171.698 31.3954 171.604 31.4539 171.73 31.3075L171.479 31.3954C171.479 31.4539 171.51 31.4832 171.542 31.5125C171.542 31.5711 171.604 31.5711 171.604 31.6004Z" fill="#889455"/>
<path fill-rule="evenodd" clip-rule="evenodd" d="M108.029 52.1303L107.809 52.0132L107.903 52.306L108.029 52.1303Z" fill="#617847"/>
<path fill-rule="evenodd" clip-rule="evenodd" d="M108.875 56.4941C108.656 56.4941 108.687 56.5527 108.687 56.377L108.593 56.582C109.189 56.6405 108.656 56.582 108.875 56.4941Z" fill="#567144"/>
<path fill-rule="evenodd" clip-rule="evenodd" d="M182.733 40.1521C183.016 40.0643 182.922 40.1522 183.016 39.9471L182.733 40.1521Z" fill="#F6F1D2"/>
</svg>
