<svg width="108" height="51" viewBox="0 0 108 51" fill="none" xmlns="http://www.w3.org/2000/svg">
<path d="M89.4141 23.1199L100.932 30.7888H107.888V38.4577H89.4141V23.1199ZM100.932 0.0754883V28.031L89.4141 20.3622V0.0377197H100.932V0.0754883Z" fill="#E11E34"/>
<path d="M73.3338 50.7734H72.0997V45.0689H74.3809C75.428 45.0689 76.5499 45.3712 76.5499 46.6556C76.5499 47.4489 76.0637 47.9023 75.3158 48.0156L76.7742 50.8112H75.2784L73.9321 47.94C74.7174 47.94 75.241 47.6756 75.241 46.8067C75.241 45.9378 74.7922 45.56 73.9695 45.56H73.3712V50.7734H73.3338ZM67.2382 48.5067H69.0706L68.3975 46.0889C68.3601 45.9378 68.2853 45.7489 68.1357 45.7489C68.0235 45.7489 67.9487 45.9756 67.9113 46.0889L67.2382 48.5067ZM67.0886 48.9978L66.6025 50.7734H66.0415L67.4252 45.7867C67.5748 45.2956 67.874 44.9178 68.4349 44.9178C69.0332 44.9178 69.3698 45.3334 69.5568 45.8623L71.0152 50.7734H69.7438L69.2202 48.9978H67.0886ZM60.2825 50.7734V41.4423H61.554V45.0689C61.741 45.0689 61.8906 45.0311 62.0028 45.0311C62.9377 44.9934 63.8726 45.1445 64.5831 45.8245C65.144 46.3534 65.4058 47.0712 65.4058 47.9778C65.4058 48.8089 65.144 49.4889 64.5831 49.98C64.0595 50.5089 63.349 50.7356 62.4889 50.7356H60.2825V50.7734ZM61.5166 50.2823C61.741 50.32 61.928 50.32 62.1523 50.32C63.6108 50.32 64.0969 49.64 64.0969 48.2045C64.0969 46.7689 63.6482 45.5223 62.0402 45.5223C61.9654 45.5223 61.8532 45.5223 61.6662 45.56C61.5914 45.56 61.554 45.56 61.554 45.56V50.2823H61.5166ZM102.877 50.7734V41.4423H104.148V45.0689C104.335 45.0689 104.485 45.0311 104.597 45.0311C105.532 44.9934 106.467 45.1445 107.177 45.8245C107.738 46.3534 108 47.0712 108 47.9778C108 48.8089 107.738 49.4889 107.177 49.98C106.654 50.5089 105.943 50.7356 105.083 50.7356H102.877V50.7734ZM104.111 50.2823C104.335 50.32 104.522 50.32 104.747 50.32C106.205 50.32 106.691 49.64 106.691 48.2045C106.691 46.7689 106.242 45.5223 104.634 45.5223C104.56 45.5223 104.447 45.5223 104.26 45.56C104.186 45.56 104.148 45.56 104.148 45.56V50.2823H104.111ZM98.2396 45.0689V48.7712C98.2396 49.6023 98.6136 50.2067 99.4737 50.2067C99.885 50.2067 100.184 50.0934 100.371 49.8289C100.558 49.5645 100.633 49.1489 100.633 48.5445V45.1067H101.194V48.96C101.194 50.2067 100.483 51 99.2119 51C97.7535 51 96.9681 50.2445 96.9681 48.7712V45.0689H98.2396ZM93.8269 41.4423H95.0983V49.8289C95.0983 50.0178 95.1357 50.1312 95.2105 50.1689C95.3601 50.2823 95.8463 50.2445 96.0706 50.2445V50.7356H94.687C94.3878 50.7356 94.1634 50.66 94.0139 50.5467C93.9017 50.3956 93.8269 50.1312 93.8269 49.7156V41.4423ZM92.7424 49.5267C92.2936 50.3956 91.5083 50.9623 90.4986 50.9623C89.7133 50.9623 89.0776 50.66 88.554 50.0934C88.0305 49.5267 87.7687 48.7712 87.7687 47.9023C87.7687 47.0712 88.0305 46.3534 88.554 45.7867C89.0776 45.22 89.7507 44.9178 90.536 44.9178C91.4709 44.9178 92.2562 45.3334 92.6676 46.2023L92.1814 46.4667C91.8823 45.8245 91.4335 45.4089 90.723 45.4089C90.1994 45.4089 89.7881 45.6356 89.4889 46.0512C89.1897 46.4667 89.0776 47.1089 89.0776 47.94C89.0776 48.6956 89.2271 49.3 89.5263 49.7912C89.8255 50.2445 90.1994 50.5089 90.6856 50.5089C91.4709 50.5089 91.9571 49.9423 92.2936 49.3001L92.7424 49.5267ZM84.7022 50.7734L84.2535 50.0934C83.6177 50.66 82.8698 50.9245 82.0097 50.9245C81.1496 50.9245 80.4017 50.6223 79.8033 50.0178C79.205 49.4134 78.9058 48.6956 78.9058 47.8267C78.9058 46.4667 79.6911 45.5978 80.7756 44.8423L80.2895 44.1245C80.1025 43.8601 80.0277 43.6334 80.0277 43.3311C80.0277 42.9156 80.2147 42.5756 80.5886 42.2734C80.9626 41.9712 81.4113 41.82 81.9349 41.82C82.3836 41.82 82.7576 41.9712 83.0568 42.2356C83.3559 42.5378 83.5055 42.8778 83.5055 43.3311C83.5055 44.1623 83.0194 44.6534 82.3836 45.1067L84.5152 48.3556C84.5526 48.1667 84.5526 48.0156 84.59 47.9023C84.6274 47.3356 84.5152 46.7689 84.3656 46.2023H85.0014C85.151 46.6556 85.2258 47.1089 85.2258 47.5623C85.2258 48.0911 85.151 48.6201 85.0014 49.1112L86.1233 50.7734H84.7022ZM83.8795 49.5267L81.374 45.7867C80.626 46.3156 80.1773 46.92 80.1773 47.8645C80.1773 48.5445 80.3643 49.1111 80.7756 49.5645C81.187 50.0178 81.6731 50.2067 82.3089 50.2067C82.9446 50.2067 83.4307 49.9423 83.8795 49.5267ZM81.6731 44.1623C82.0097 43.9356 82.3836 43.5956 82.3836 43.1423C82.3836 42.6511 82.0471 42.4245 81.5983 42.4245C81.4113 42.4245 81.2618 42.4623 81.1122 42.5756C80.8504 42.7645 80.8878 43.0289 81 43.2556L81.6731 44.1623Z" fill="#180004"/>
<path d="M34.3671 38.4578H22.8491V10.2378L34.3671 17.8689V38.4578ZM34.3671 0.0755615V15.1111L22.8491 7.48002V0.0755615H34.3671Z" fill="#E11E34"/>
<path d="M78.6814 25.0467V30.7511H86.3476V38.3822H67.126V17.3778L78.6814 25.0467ZM67.1634 0H86.3102V7.66888H78.644V14.9978H86.3102V22.2889H78.644L67.126 14.6578V0H67.1634Z" fill="#E11E34"/>
<path fill-rule="evenodd" clip-rule="evenodd" d="M37.4335 38.4578H48.8767V0.0755615H37.4335C37.4335 12.8445 37.4709 25.6511 37.4335 38.4578Z" fill="#E11E34"/>
<path fill-rule="evenodd" clip-rule="evenodd" d="M50.6717 6.95112C50.9335 7.02668 51.1205 7.02668 51.3449 7.14001C52.0554 7.44223 52.2798 8.00891 52.3546 8.80224C52.4668 9.93558 52.4667 11.1445 52.4667 12.2778V26.6334C52.4667 27.5778 52.4667 30.6378 51.831 31.3556C51.4197 31.7711 51.1205 31.7711 50.6717 31.96V38.4578C53.1025 38.4578 55.9072 38.5333 58.2632 38.0422C59.6842 37.74 60.6939 37.2867 61.741 36.4934C61.9654 36.3045 62.3019 35.9645 62.4889 35.7C63.4238 34.5289 63.6482 32.98 63.7978 31.4311C63.91 30.1467 63.9474 28.7867 63.9474 27.5022C63.9474 24.7822 63.9474 22.0622 63.9474 19.3422C63.9474 16.6222 63.9848 13.9022 63.91 11.1822C63.8726 9.8978 63.8352 8.57557 63.6856 7.3289C63.536 6.04446 63.2742 5.17558 62.6759 4.26891C62.3767 3.7778 61.7036 2.98447 61.2548 2.64447C61.0679 2.49336 60.9183 2.34223 60.6939 2.2289C59.6468 1.51112 57.9266 0.906692 56.0942 0.566692C54.1496 0.188914 52.018 0.0755672 50.6343 0.151123L50.6717 6.95112Z" fill="#E11E34"/>
<path d="M11.4806 15.0733H19.7452V22.9311H11.4806V38.4578H0V2.79557L11.4806 10.4645V15.0733ZM1.08449 0.793349C0.822718 0.60446 0.822714 0.0755615 1.38366 0.0755615H19.7452V8.42447H12.5277L11.4806 7.74447C7.6662 5.17558 4.8989 3.36224 1.08449 0.793349Z" fill="#E11E34"/>
</svg>
