<svg width="43" height="26" viewBox="0 0 43 26" fill="none" xmlns="http://www.w3.org/2000/svg">
<g clip-path="url(#clip0)">
<path d="M35.6001 11.9892L40.186 15.7746H42.9554V19.5599H35.6001V11.9892V11.9892ZM40.186 0.61459V14.4133L35.6001 10.628V0.595947H40.186V0.61459Z" fill="#E11E34"/>
<path d="M29.1978 25.6385H28.7065V22.8228H29.6147C30.0316 22.8228 30.4783 22.972 30.4783 23.606C30.4783 23.9976 30.2847 24.2213 29.9869 24.2773L30.5676 25.6572H29.972L29.436 24.24C29.7487 24.24 29.9571 24.1095 29.9571 23.6806C29.9571 23.2517 29.7785 23.0652 29.4509 23.0652H29.2127V25.6385H29.1978ZM26.7709 24.5197H27.5004L27.2324 23.3263C27.2175 23.2517 27.1878 23.1585 27.1282 23.1585C27.0835 23.1585 27.0537 23.2704 27.0389 23.3263L26.7709 24.5197ZM26.7113 24.7621L26.5177 25.6385H26.2944L26.8453 23.1771C26.9049 22.9347 27.024 22.7482 27.2473 22.7482C27.4855 22.7482 27.6195 22.9533 27.694 23.2144L28.2747 25.6385H27.7684L27.56 24.7621H26.7113ZM24.0015 25.6385V21.0327H24.5077V22.8228C24.5821 22.8228 24.6417 22.8042 24.6864 22.8042C25.0586 22.7855 25.4308 22.8601 25.7137 23.1958C25.9371 23.4568 26.0413 23.8111 26.0413 24.2586C26.0413 24.6689 25.9371 25.0045 25.7137 25.2469C25.5053 25.508 25.2224 25.6199 24.8799 25.6199H24.0015V25.6385ZM24.4928 25.3961C24.5821 25.4147 24.6566 25.4147 24.7459 25.4147C25.3266 25.4147 25.5202 25.0791 25.5202 24.3705C25.5202 23.6619 25.3415 23.0466 24.7013 23.0466C24.6715 23.0466 24.6268 23.0466 24.5524 23.0652C24.5226 23.0652 24.5077 23.0652 24.5077 23.0652V25.3961H24.4928ZM40.9603 25.6385V21.0327H41.4665V22.8228C41.5409 22.8228 41.6005 22.8042 41.6452 22.8042C42.0174 22.7855 42.3896 22.8601 42.6725 23.1958C42.8959 23.4568 43.0001 23.8111 43.0001 24.2586C43.0001 24.6689 42.8959 25.0045 42.6725 25.2469C42.4641 25.508 42.1812 25.6199 41.8387 25.6199H40.9603V25.6385ZM41.4516 25.3961C41.5409 25.4147 41.6154 25.4147 41.7047 25.4147C42.2854 25.4147 42.479 25.0791 42.479 24.3705C42.479 23.6619 42.3003 23.0466 41.6601 23.0466C41.6303 23.0466 41.5856 23.0466 41.5112 23.0652C41.4814 23.0652 41.4665 23.0652 41.4665 23.0652V25.3961H41.4516ZM39.114 22.8228V24.6502C39.114 25.0605 39.2629 25.3588 39.6053 25.3588C39.7691 25.3588 39.8882 25.3029 39.9627 25.1723C40.0371 25.0418 40.0669 24.8367 40.0669 24.5383V22.8415H40.2902V24.7435C40.2902 25.3588 40.0074 25.7504 39.5011 25.7504C38.9204 25.7504 38.6078 25.3774 38.6078 24.6502V22.8228H39.114ZM37.3571 21.0327H37.8633V25.1723C37.8633 25.2656 37.8782 25.3215 37.908 25.3402C37.9675 25.3961 38.1611 25.3775 38.2504 25.3775V25.6199H37.6995C37.5804 25.6199 37.4911 25.5826 37.4315 25.5266C37.3869 25.452 37.3571 25.3215 37.3571 25.1164V21.0327ZM36.9253 25.0232C36.7466 25.452 36.4339 25.7317 36.0319 25.7317C35.7193 25.7317 35.4661 25.5826 35.2577 25.3029C35.0493 25.0232 34.945 24.6502 34.945 24.2213C34.945 23.8111 35.0493 23.4568 35.2577 23.1771C35.4661 22.8974 35.7342 22.7482 36.0468 22.7482C36.4191 22.7482 36.7317 22.9534 36.8955 23.3822L36.702 23.5128C36.5828 23.1958 36.4042 22.9906 36.1213 22.9906C35.9128 22.9906 35.749 23.1025 35.6299 23.3076C35.5108 23.5128 35.4661 23.8298 35.4661 24.24C35.4661 24.6129 35.5257 24.9113 35.6448 25.1537C35.7639 25.3775 35.9128 25.508 36.1064 25.508C36.4191 25.508 36.6126 25.2283 36.7466 24.9113L36.9253 25.0232ZM33.7241 25.6385L33.5454 25.3029C33.2923 25.5826 32.9945 25.7131 32.6521 25.7131C32.3096 25.7131 32.0119 25.5639 31.7736 25.2656C31.5354 24.9672 31.4163 24.6129 31.4163 24.184C31.4163 23.5128 31.729 23.0839 32.1607 22.7109L31.9672 22.3567C31.8927 22.2261 31.863 22.1142 31.863 21.9651C31.863 21.7599 31.9374 21.5921 32.0863 21.4429C32.2352 21.2938 32.4139 21.2192 32.6223 21.2192C32.801 21.2192 32.9499 21.2938 33.069 21.4243C33.1881 21.5735 33.2477 21.7413 33.2477 21.9651C33.2477 22.3753 33.0541 22.6177 32.801 22.8415L33.6497 24.4451C33.6646 24.3519 33.6646 24.2773 33.6794 24.2213C33.6943 23.9416 33.6497 23.6619 33.5901 23.3822H33.8432C33.9028 23.606 33.9326 23.8298 33.9326 24.0535C33.9326 24.3146 33.9028 24.5756 33.8432 24.818L34.2899 25.6385H33.7241V25.6385ZM33.3966 25.0232L32.399 23.1771C32.1012 23.4382 31.9225 23.7365 31.9225 24.2027C31.9225 24.5383 31.997 24.818 32.1607 25.0418C32.3245 25.2656 32.5181 25.3588 32.7712 25.3588C33.0243 25.3588 33.2179 25.2283 33.3966 25.0232ZM32.5181 22.3753C32.6521 22.2634 32.801 22.0956 32.801 21.8718C32.801 21.6294 32.667 21.5175 32.4883 21.5175C32.4139 21.5175 32.3543 21.5362 32.2948 21.5921C32.1905 21.6854 32.2054 21.8159 32.2501 21.9278L32.5181 22.3753Z" fill="#180004"/>
<path d="M13.6833 19.5598H9.09741V5.63053L13.6833 9.39722V19.5598ZM13.6833 0.614502V8.03599L9.09741 4.26931V0.614502H13.6833V0.614502Z" fill="#E11E34"/>
<path d="M31.3268 12.9401V15.7557H34.3791V19.5224H26.7261V9.15473L31.3268 12.9401ZM26.741 0.577148H34.3642V4.36247H31.3119V7.97997H34.3642V11.5788H31.3119L26.7261 7.81215V0.577148H26.741Z" fill="#E11E34"/>
<path fill-rule="evenodd" clip-rule="evenodd" d="M14.9041 19.5598H19.4601V0.614502H14.9041C14.9041 6.91717 14.9189 13.2385 14.9041 19.5598Z" fill="#E11E34"/>
<path fill-rule="evenodd" clip-rule="evenodd" d="M20.1748 4.00822C20.279 4.04552 20.3535 4.04552 20.4428 4.10146C20.7257 4.25063 20.815 4.53034 20.8448 4.92193C20.8895 5.48134 20.8895 6.07804 20.8895 6.63745V13.7233C20.8895 14.1895 20.8895 15.6999 20.6364 16.0541C20.4726 16.2593 20.3535 16.2593 20.1748 16.3525V19.5598C21.1426 19.5598 22.2593 19.5971 23.1973 19.3546C23.7631 19.2055 24.1651 18.9817 24.582 18.5901C24.6713 18.4969 24.8053 18.3291 24.8798 18.1985C25.252 17.6205 25.3414 16.856 25.4009 16.0914C25.4456 15.4574 25.4605 14.7862 25.4605 14.1522C25.4605 12.8096 25.4605 11.467 25.4605 10.1244C25.4605 8.78184 25.4754 7.43926 25.4456 6.09668C25.4307 5.46269 25.4158 4.81004 25.3562 4.19469C25.2967 3.5607 25.1925 3.13182 24.9542 2.6843C24.8351 2.44189 24.5671 2.0503 24.3884 1.88248C24.314 1.80789 24.2544 1.7333 24.1651 1.67736C23.7482 1.32306 23.0633 1.02472 22.3337 0.856898C21.5595 0.670429 20.7108 0.614481 20.1599 0.651775L20.1748 4.00822Z" fill="#E11E34"/>
<path d="M4.57098 8.01734H7.8615V11.8959H4.57098V19.5598H0V1.95708L4.57098 5.74241V8.01734ZM0.431788 0.968798C0.327564 0.875564 0.327562 0.614502 0.5509 0.614502H7.8615V4.73548H4.98788L4.57098 4.39984C3.05229 3.13185 1.95049 2.23679 0.431788 0.968798Z" fill="#E11E34"/>
</g>
<defs>
<clipPath id="clip0">
<rect width="43" height="25.1734" fill="white" transform="translate(0 0.577148)"/>
</clipPath>
</defs>
</svg>
