<svg width="43" height="52" viewBox="0 0 43 52" fill="none" xmlns="http://www.w3.org/2000/svg">
<g clip-path="url(#clip0)" filter="url(#filter0_i)">
<path fill-rule="evenodd" clip-rule="evenodd" d="M22.7686 16.1987C22.6368 16.2595 22.7027 16.6851 22.7192 16.8878H22.4061L22.4391 14.314C22.3238 14.5977 22.3567 16.6243 22.4061 16.908L22.7192 16.9283L22.7686 16.1987Z" fill="#140002"/>
<path fill-rule="evenodd" clip-rule="evenodd" d="M35.5531 15.1248L35.5037 14.6992C35.7508 14.7195 36.0968 14.76 36.311 14.6587H35.4872C35.4378 15.0235 35.4213 14.9424 35.5531 15.1248Z" fill="#140002"/>
<path fill-rule="evenodd" clip-rule="evenodd" d="M24.7291 14.9019L24.9433 15.9963L24.4326 16.0977L24.7291 14.9019ZM22.4226 14.3142L22.3896 16.888H22.7027C22.6862 16.7056 22.6203 16.2801 22.7521 16.199C22.8015 16.0166 22.851 15.9355 22.9333 15.7937L23.3946 17.2528C23.9054 17.4352 24.0866 17.5974 24.2678 16.888L24.3172 16.6043L24.9927 16.3814L25.1739 16.9488L25.5034 16.9286C25.4211 16.3206 25.108 15.591 25.141 15.0033L25.0092 14.6385C24.9762 14.4966 24.9762 14.4763 24.9433 14.3548H24.449L23.823 17.2934C23.6418 17.0096 23.3123 15.7329 23.2134 15.3073L23.6582 14.3142L23.2793 14.3345L22.7027 15.4694C22.6862 15.2465 22.7521 14.2332 22.6038 14.2129L22.4226 14.3142Z" fill="#140002"/>
<path fill-rule="evenodd" clip-rule="evenodd" d="M28.057 14.922L28.2712 15.9961L27.7605 16.1379L28.057 14.922ZM27.6616 14.9625L27.1509 17.4552L27.5298 17.2728C27.5628 17.131 27.5792 17.0094 27.5957 16.8878C27.6616 16.5433 27.6946 16.523 28.3865 16.3811C28.4359 16.8878 28.4195 16.9283 28.8149 16.9283C28.8478 16.3811 28.4524 15.5502 28.4689 14.9422C28.3536 14.7801 28.3536 14.618 28.2877 14.3545H27.7934L27.6616 14.9625Z" fill="#140002"/>
<path fill-rule="evenodd" clip-rule="evenodd" d="M37.3162 16.0974L37.135 16.1582L37.2338 15.9555L37.4645 14.922L37.6787 15.9961L37.3162 16.0974ZM37.1185 14.4558C37.1515 15.0436 36.6572 16.7257 36.5583 17.4552L36.9373 17.2526C37.0361 16.7257 37.0032 16.6243 37.2009 16.523L37.8105 16.3609L37.8764 16.8878L38.2059 16.9081L38.2223 16.6041C38.2059 16.4825 38.1729 16.4014 38.1564 16.3001C38.107 16.0974 38.0576 15.8745 38.0082 15.6718C37.9258 15.2665 37.7446 14.8004 37.7775 14.3748L37.3656 14.3342C37.135 14.395 37.2668 14.314 37.1185 14.4558Z" fill="#140002"/>
<path fill-rule="evenodd" clip-rule="evenodd" d="M30.9567 16.8067C31.0555 16.9283 30.8743 16.9081 31.2203 16.9081C31.4015 16.3609 31.1049 16.3204 31.5168 15.7934L31.9452 17.1918L32.2088 17.3539C32.4394 17.1715 32.4065 17.4958 32.077 16.3204C31.731 15.0233 31.6651 15.5705 32.2252 14.2937L31.8793 14.314C31.731 14.5369 31.3685 15.2462 31.2697 15.4692L31.2532 14.1519L30.9402 14.3343L30.9567 16.8067Z" fill="#140002"/>
<path fill-rule="evenodd" clip-rule="evenodd" d="M29.8859 16.6043C29.5234 16.5029 29.3916 16.1381 29.4081 15.6112C29.4246 15.2262 29.5234 14.6587 29.8694 14.679C30.3472 14.6992 30.5778 16.2597 29.8859 16.6043ZM29.1445 14.8006C29.1445 15.6112 28.8809 16.2192 29.441 16.8069C29.6882 17.0704 30.0671 17.0501 30.3142 16.8475C30.479 16.7056 30.5943 16.3611 30.6767 16.0165C30.7096 15.1654 30.5613 14.1723 29.7705 14.3142C29.3092 14.4155 29.4081 14.5574 29.1445 14.8006Z" fill="#140002"/>
<path fill-rule="evenodd" clip-rule="evenodd" d="M38.8318 15.8542V15.53V15.0436V14.6991C39.8697 14.5572 39.4578 15.6718 38.8318 15.8542ZM38.634 17.354L38.6011 17.2729L38.7823 17.2526C38.8812 16.9486 38.8317 16.746 38.8482 16.3609C39.2436 16.0772 39.8038 15.7934 39.8203 15.1449C39.8367 14.2937 39.1448 14.2937 38.5187 14.3343C38.5187 14.8409 38.5187 15.3476 38.5187 15.8542C38.5187 16.1177 38.5187 16.3812 38.5187 16.6446C38.5022 17.5769 38.4858 17.2324 38.634 17.354Z" fill="#140002"/>
<path fill-rule="evenodd" clip-rule="evenodd" d="M35.5038 15.5302C35.7839 15.6315 36.031 15.8747 36.0969 16.2598L35.9322 16.5638L35.4873 16.6043L35.5038 15.5302ZM36.0475 16.9083C36.3111 16.6854 36.2781 16.7867 36.4429 16.4219C36.4759 15.6112 35.9651 15.4491 35.5532 15.1249C35.4214 14.9425 35.4544 15.0235 35.5038 14.679H36.3276L36.2287 14.375H35.1908L35.1743 16.9691L36.0475 16.9083Z" fill="#140002"/>
<path fill-rule="evenodd" clip-rule="evenodd" d="M26.1459 15.8137L26.047 15.8745L26.0635 14.6585C26.2283 14.5977 26.0965 14.5977 26.2942 14.618C26.6401 14.6585 26.3271 14.618 26.4589 14.6991C26.6072 14.8004 26.5578 14.7599 26.6566 14.8815C26.7555 15.4489 26.4754 15.6921 26.1459 15.8137ZM25.767 17.3945C26.1624 17.05 26.08 17.0905 26.08 16.3001C26.7884 16.0772 27.1179 15.53 27.0191 14.6788C26.8049 14.5572 26.8708 14.4153 26.5578 14.3343C26.3436 14.2735 25.9811 14.314 25.7505 14.314L25.767 17.3945Z" fill="#140002"/>
<path fill-rule="evenodd" clip-rule="evenodd" d="M33.6585 16.9083L33.7409 16.5435H32.9336L32.9171 15.8544L33.4114 15.5707V15.2059L32.9171 15.4694L32.9336 14.8006C33.0489 14.6384 32.6865 14.679 33.708 14.679C33.6585 14.1926 33.708 14.2939 33.2466 14.2939C33.0325 14.2939 32.8018 14.2939 32.5876 14.2939V16.888L33.6585 16.9083Z" fill="#140002"/>
<path fill-rule="evenodd" clip-rule="evenodd" d="M7.11724 10.7877C6.12873 12.1861 5.45325 12.9765 5.18965 15.226C4.8931 17.739 5.8157 18.8132 6.70536 20.0291L8.15517 21.6707C8.78122 22.3192 10.1157 23.5555 10.9395 23.0286C11.1701 22.8867 11.5161 22.4206 11.6644 22.1571C11.8621 21.8328 12.0598 21.4883 12.2575 21.1235C12.3728 20.9411 12.4552 20.7993 12.5705 20.6169C12.7517 20.3331 12.6858 20.3534 12.9329 20.1507L13.0483 19.8467C13.3943 19.259 13.9379 18.5294 13.6743 17.8404C12.8506 15.6921 10.5935 14.0708 13.9215 11.8213C13.905 11.8213 13.7238 11.7807 13.6084 11.7807L13.7402 11.5375C13.2954 11.7605 13.7402 11.801 13.3448 11.6997L13.4766 11.4565C13.0483 11.0106 13.8391 11.112 12.9 11.1322C12.8506 10.9701 12.8011 10.7472 12.7682 10.5648L13.1636 10.4837C13.1471 10.4634 13.1307 10.4432 13.1307 10.4432L13.0153 10.3216C12.7517 10.0176 13.1142 10.281 12.8835 10.0784C12.7517 9.95677 12.6199 10.0784 12.3893 10.0784C12.4387 9.79464 12.3893 9.89597 12.587 9.9973C12.554 9.81491 12.5375 9.77437 12.554 9.69331C12.554 9.65278 12.5705 9.61224 12.5705 9.59198C12.7352 9.10559 12.867 9.42985 12.6529 9.10559C12.8341 8.96372 12.7023 9.12585 12.7847 8.86239C12.6529 8.67999 12.6693 8.80159 12.587 8.45706C12.7517 8.4368 12.867 8.33546 13.0483 8.376L13.2295 8.4976C13.246 8.51786 13.3943 8.59893 13.4272 8.59893C13.4766 8.82186 13.4437 8.70026 13.4766 8.82186C13.526 9.02452 13.5096 8.92319 13.559 9.00425C13.6249 8.92319 13.7897 9.10559 13.6249 8.7408C13.559 8.57866 13.6414 8.80159 13.4931 8.59893C13.7897 8.47733 13.6249 8.51786 13.7567 8.2544C13.8226 8.11253 13.9544 8.11254 14.0862 8.03147L13.9709 7.93014C13.8391 7.80854 13.6743 7.78828 13.7732 7.48428C13.7897 7.46401 13.8061 7.44375 13.8226 7.42348C13.8226 7.38295 13.8391 7.36269 13.8391 7.32215C13.4272 7.30189 13.8391 7.22082 13.3778 7.16002C13.4766 7.60588 13.6579 7.46401 13.3119 7.56534C13.246 7.34242 13.246 7.38295 13.246 7.07895C13.4931 7.01816 13.4437 7.01815 13.3778 6.83576C13.559 6.87629 13.5261 6.85603 13.6249 6.89656C13.7567 6.95736 13.7238 6.93709 13.7732 6.99789C13.7897 6.97762 13.8061 6.95735 13.8226 6.93709L14.0368 6.61283C14.0203 6.59256 13.9874 6.59256 13.9874 6.5723L13.8556 6.34937C12.7682 6.63309 11.0877 7.52481 10.1487 8.11254C9.53908 8.47733 9.0613 8.86239 8.56705 9.26771C7.97394 9.75411 7.52912 10.3013 7.11724 10.7877Z" fill="#140002"/>
<path fill-rule="evenodd" clip-rule="evenodd" d="M40.2157 17.8404C38.2058 19.1172 35.5368 18.7119 33.2138 18.57C31.9947 18.4889 30.7096 18.3673 29.4904 18.5295C27.7276 18.7524 26.8709 19.4415 26.3931 19.482C26.0307 19.9278 24.4655 20.3534 24.9268 21.6099C25.0257 21.8937 25.1905 22.1166 25.3223 22.4206C25.4705 22.7651 25.52 23.0894 25.5529 23.515C25.6023 24.2851 25.4705 25.3795 25.8659 25.9064C26.179 26.1091 28.3866 24.3662 29.3916 23.8595C32.1924 22.4409 35.4709 23.1097 38.3705 22.0558C40.8583 21.1641 41.3525 19.9076 41.7314 19.7252C41.7644 19.5225 42.2092 18.8132 42.5222 17.7593C42.687 17.1716 42.7858 16.5434 42.8517 15.9354C42.8682 15.834 42.8847 15.6719 42.8847 15.5908C42.8847 15.2058 42.9012 15.53 42.8353 15.3882C42.3904 16.2799 40.9901 17.354 40.2157 17.8404Z" fill="#140002"/>
<path fill-rule="evenodd" clip-rule="evenodd" d="M8.18813 28.6222C7.38085 29.4734 6.6889 30.2435 6.5571 32.2904C6.52415 32.9592 6.4912 34.2968 6.67242 34.8845C6.90307 35.6343 7.19963 35.9383 7.97395 36.0802C9.20959 36.3031 13.1471 36.1613 13.905 36.9314C14.4651 36.8908 16.6399 38.0866 17.2494 38.3906C19.6054 39.6268 21.7636 40.4375 24.3831 40.782C25.454 40.9238 27.8429 41.471 27.9912 40.0119C27.464 39.8903 26.7556 39.87 26.1954 39.8092C25.5858 39.7281 25.2069 39.6065 24.6303 39.4444C23.6088 39.1404 22.472 39.0188 21.4835 38.6946C19.1605 37.9447 14.3333 33.2834 10.61 33.4456C9.19311 33.5064 8.12223 33.8104 8.50116 31.6419C8.73181 30.3043 8.99541 29.1086 9.06131 27.6899C9.04484 27.7102 9.02836 27.7102 9.01189 27.7305L8.36936 28.3993C8.25403 28.5614 8.33641 28.5006 8.18813 28.6222Z" fill="#140002"/>
<path fill-rule="evenodd" clip-rule="evenodd" d="M15.4206 19.178C15.7501 19.3806 16.2114 19.3198 16.5903 19.2996C18.9463 18.5902 19.6547 18.9956 21.2034 20.475C21.5494 20.7993 22.1589 21.8126 22.5049 22.3193L23.3616 23.6568C23.5923 24.0419 23.8064 24.3864 24.0041 24.7917C24.8279 26.4333 25.9482 30.1218 27.1674 31.581C27.2662 31.7026 27.2827 31.6823 27.3815 31.8039C27.4474 31.9052 27.4804 31.966 27.5628 32.0673C27.9746 32.6145 28.6501 33.3847 29.3915 33.7089C29.5727 33.9724 30.8084 34.4182 31.1708 34.3169C31.1379 34.0737 30.38 33.2631 30.1658 33.0199C29.3421 32.1079 28.749 31.1756 28.3371 30.7298C27.7934 30.1015 27.8593 30.061 27.5792 29.7367C27.431 29.5543 27.4639 29.5746 27.3486 29.3922C26.6566 28.3586 25.9482 27.2642 25.4375 25.9064C24.7785 24.1635 25.3716 23.6771 24.4654 22.0153C23.8064 21.0627 24.2183 21.5086 23.444 20.5966C22.9168 19.9886 22.3896 19.3198 21.7965 18.7929C21.121 18.2052 20.7256 17.8201 19.9348 17.2527C16.0961 14.5572 14.3662 17.8809 14.3662 18.6308C14.5639 18.8942 15.0252 19.0766 15.4206 19.178Z" fill="#140002"/>
<path fill-rule="evenodd" clip-rule="evenodd" d="M14.2675 6.20755L13.7898 6.41021L13.9216 6.63314C13.938 6.6534 13.9545 6.65341 13.971 6.67367L13.7568 6.99794C13.7403 7.0182 13.7239 7.03847 13.7074 7.05873C13.658 7.0182 13.6909 7.0182 13.5591 6.9574C13.4603 6.91687 13.4932 6.93714 13.312 6.8966C13.3779 7.079 13.4273 7.079 13.1802 7.1398C13.1802 7.44379 13.1802 7.40326 13.2461 7.62619C13.5921 7.52486 13.4108 7.66673 13.312 7.22087C13.7733 7.28167 13.3449 7.36273 13.7733 7.38299C13.7568 7.40326 13.7568 7.44379 13.7568 7.48433C13.7568 7.50459 13.7239 7.52486 13.7074 7.54512C13.625 7.86938 13.7898 7.88965 13.9051 7.99098L14.0204 8.09232C13.8886 8.15311 13.7733 8.15312 13.6909 8.31525C13.5591 8.57871 13.7403 8.53817 13.4273 8.65977C13.5756 8.8827 13.4932 8.63951 13.5591 8.80164C13.7239 9.16643 13.5591 8.98403 13.4932 9.0651C13.4438 8.98403 13.4603 9.0651 13.4108 8.8827C13.3779 8.7611 13.4108 8.8827 13.3614 8.65977C13.3285 8.6395 13.1802 8.55844 13.1637 8.55844L12.9825 8.43685C12.8013 8.37605 12.6859 8.49764 12.5212 8.51791C12.6036 8.86244 12.5871 8.72057 12.7189 8.92324C12.6365 9.1867 12.7683 9.0043 12.5871 9.16643C12.8013 9.49069 12.6695 9.16643 12.5047 9.65282C12.5047 9.67309 12.4882 9.69336 12.4882 9.75416C12.4882 9.83522 12.5047 9.87575 12.5212 10.0582C12.3235 9.95682 12.3729 9.85549 12.3235 10.1392C12.5706 10.1392 12.6859 10.0176 12.8177 10.1392C13.0484 10.3216 12.6859 10.0784 12.9495 10.3824L13.0649 10.504C13.0813 10.5243 13.0978 10.5445 13.0978 10.5445L12.7024 10.6256C12.7354 10.7877 12.7848 11.0309 12.8342 11.1931C13.7733 11.1728 12.999 11.0715 13.4108 11.5173L13.279 11.7605C13.658 11.8619 13.2296 11.8416 13.6744 11.5984L13.5426 11.8416C13.658 11.8416 13.8392 11.8821 13.8557 11.8821C14.1852 11.6795 15.0748 10.9499 15.3384 10.9093L15.5691 10.6864C16.607 9.97708 18.0898 8.90297 18.963 8.01125C19.1936 7.78832 18.9629 7.86939 19.243 7.82886C19.4737 7.4438 19.6055 7.42353 19.8856 7.05873C20.0833 6.81554 20.3304 6.61287 20.5446 6.34941C20.7587 6.08595 20.9564 5.86302 21.1377 5.57929C22.1921 3.97825 22.8181 2.84334 23.1147 0.391113C21.7143 2.05295 21.2365 2.76227 19.2266 4.03905C17.6779 4.9713 16.1128 5.49823 14.2675 6.20755Z" fill="#140002"/>
<path fill-rule="evenodd" clip-rule="evenodd" d="M22.2744 29.2301C21.5001 29.3922 19.5561 28.5005 18.93 28.1357C16.92 26.9805 18.238 25.2376 18.5346 25.1971C18.6994 25.1768 19.1607 25.7443 19.2925 25.947C19.7373 26.5955 20.3963 27.2035 20.9564 27.7304C21.4836 28.1965 22.3239 28.7437 22.2744 29.2301ZM15.948 27.8115C15.8492 28.6424 16.1787 29.6152 16.5082 30.061C17.3813 31.2365 19.5396 30.5069 20.7258 30.4461C21.4177 30.4056 22.4392 30.588 22.7193 29.9597C23.0158 29.2504 22.8346 28.0749 22.4721 27.5885L20.1821 25.1363C20.0668 25.0147 19.9679 24.9539 19.8526 24.8323C19.7702 24.7513 19.7702 24.7107 19.6879 24.6297C19.2266 24.123 18.7653 23.9406 18.4522 23.6974C17.8591 23.6569 17.8262 24.0217 17.612 24.5689C17.3649 25.1971 17.2331 25.2376 17.0024 25.5619C16.607 26.1091 16.0633 26.6968 15.948 27.8115Z" fill="#140002"/>
<path fill-rule="evenodd" clip-rule="evenodd" d="M7.52901 26.6361C7.89146 26.5347 8.45162 26.7171 8.8635 26.6969C10.5275 26.6158 10.3133 25.9065 10.6428 25.4606C10.7911 25.258 11.1535 24.8121 11.3677 24.731C11.4171 24.5689 11.4501 24.5081 11.4666 24.2852C10.6263 23.5151 8.61637 23.0489 7.31484 23.2111C6.49108 23.3124 3.65737 23.8191 3.26196 24.4878C3.64089 25.3593 5.40373 26.0484 6.27691 26.2915L7.52901 26.6361Z" fill="#140002"/>
<path fill-rule="evenodd" clip-rule="evenodd" d="M29.1774 38.0662L29.8858 37.3164C29.9847 37.2151 30.3965 36.7287 30.446 36.4855C30.6601 35.5735 29.7705 35.1884 29.095 35.229C28.3866 35.2695 25.5199 35.7356 25.3881 36.6679C25.2728 37.5393 26.2119 37.8636 26.8873 37.7622C27.8429 37.6204 27.7605 37.0935 28.3207 36.6273L28.6831 36.7692C28.8479 37.4583 28.6337 37.7825 28.3042 38.1473C28.1394 38.3094 27.9747 38.4108 27.777 38.5324C27.5628 38.654 27.3651 38.735 27.4475 39.0796C27.8099 39.2012 28.1394 38.8364 28.3866 38.6337L28.9467 38.127C29.1939 37.9852 28.9797 38.0865 29.1774 38.0662Z" fill="#140002"/>
<path fill-rule="evenodd" clip-rule="evenodd" d="M19.4406 26.6968C18.8145 27.3453 19.2923 28.0952 19.869 28.3991C20.3138 28.6221 21.2199 29.0679 21.7142 28.845C21.7142 28.3789 21.2199 28.156 20.6762 27.6493C20.2808 27.2845 19.7701 26.6968 19.4406 26.6968Z" fill="#140002"/>
<path fill-rule="evenodd" clip-rule="evenodd" d="M34.0376 16.0164L34.3506 16.0569H34.5483L34.8614 16.0367V15.6921L34.5483 15.6719H34.3506L34.0541 15.6921L34.0376 16.0164Z" fill="#140002"/>
<path fill-rule="evenodd" clip-rule="evenodd" d="M32.5218 16.9283C32.8513 16.9891 33.3785 17.0296 33.6586 16.9081H32.5877V14.314C32.39 14.9422 32.6372 16.1785 32.5218 16.9283Z" fill="#856D5A"/>
<path fill-rule="evenodd" clip-rule="evenodd" d="M26.1461 15.8138L26.0967 15.5909V14.6789L26.4756 14.6991C26.3438 14.6181 26.6404 14.6586 26.3109 14.6181C26.1131 14.5978 26.2285 14.5978 26.0802 14.6586L26.0637 15.8746L26.1461 15.8138Z" fill="#6B5448"/>
<path fill-rule="evenodd" clip-rule="evenodd" d="M16.0798 51.1582L16.0139 51.1785C15.8986 51.2798 15.9315 51.0569 15.915 51.3406C16.1951 51.2595 15.9809 51.3406 16.0798 51.1582Z" fill="#5F4A3F"/>
<path fill-rule="evenodd" clip-rule="evenodd" d="M37.316 16.0974C37.1842 16.0164 37.1677 16.219 37.2336 15.9556L37.1348 16.1582L37.316 16.0974Z" fill="#6F574B"/>
<path fill-rule="evenodd" clip-rule="evenodd" d="M13.8062 51.6043L13.7568 51.5637L13.658 51.6651L13.8062 51.6043Z" fill="#675044"/>
</g>
<defs>
<filter id="filter0_i" x="0" y="0.391113" width="43" height="60.3404" filterUnits="userSpaceOnUse" color-interpolation-filters="sRGB">
<feFlood flood-opacity="0" result="BackgroundImageFix"/>
<feBlend mode="normal" in="SourceGraphic" in2="BackgroundImageFix" result="shape"/>
<feColorMatrix in="SourceAlpha" type="matrix" values="0 0 0 0 0 0 0 0 0 0 0 0 0 0 0 0 0 0 127 0" result="hardAlpha"/>
<feOffset dy="4"/>
<feGaussianBlur stdDeviation="2"/>
<feComposite in2="hardAlpha" operator="arithmetic" k2="-1" k3="1"/>
<feColorMatrix type="matrix" values="0 0 0 0 0 0 0 0 0 0 0 0 0 0 0 0 0 0 0.25 0"/>
<feBlend mode="normal" in2="shape" result="effect1_innerShadow"/>
</filter>
<clipPath id="clip0">
<rect width="43" height="56.3404" fill="white" transform="translate(0 0.391113)"/>
</clipPath>
</defs>
</svg>
