<svg width="71" height="27" viewBox="0 0 71 27" fill="none" xmlns="http://www.w3.org/2000/svg">
<path fill-rule="evenodd" clip-rule="evenodd" d="M37.1753 25.8912C37.3411 25.9042 37.3529 25.8651 37.4239 25.9693C37.3529 26.0865 37.4831 26.0214 37.3055 26.0605C37.2937 26.0605 37.1398 26.0605 37.1161 26.0605L36.7136 26.0865L36.7017 25.787C36.5478 25.8781 36.5952 25.9042 36.4531 26.0214C36.3584 26.0995 36.2637 26.1386 36.1098 26.1516C35.3284 26.2168 35.4231 25.6958 35.4231 24.9014C35.4231 24.1721 35.2692 24.5107 35.0561 24.3283C35.1034 24.2111 35.0561 24.2502 35.21 24.1981L35.7428 24.0288C35.7428 24.5497 35.6007 26.1386 36.3229 25.8781C36.7609 25.7219 36.7136 25.2791 36.7136 25.0316C36.7136 24.8493 36.7373 24.6149 36.6662 24.4586C36.5952 24.3023 36.4531 24.3023 36.3229 24.1981L37.0332 23.9637C37.0451 24.3153 37.0332 24.68 37.0332 25.0316C37.0332 25.3702 36.974 25.774 37.1753 25.8912ZM33.8722 24.7842C33.8958 24.7711 33.8603 24.7451 34.0261 24.7321H34.4996L34.476 24.4065C34.4049 24.1069 34.1681 24.0548 33.813 24.133C33.6827 24.3023 33.7656 24.3674 33.5288 24.4325L33.5525 24.0809C33.9787 23.8725 34.6535 23.7553 34.8311 24.2372C34.9969 24.68 34.7483 25.4223 34.8075 25.9042C34.9969 26.0084 34.9495 25.8912 35.0087 26.0605C34.8903 26.1386 34.5944 26.0735 34.4286 26.0344L34.4168 25.7219C34.1681 25.787 34.0971 25.9563 33.8485 25.9823C32.9369 26.0605 33.1263 24.8363 33.8722 24.7842ZM37.933 24.0809C37.8501 23.9507 37.8857 23.8986 37.8265 23.7423C37.6489 23.7423 37.6134 23.8204 37.4831 23.8986C37.2937 24.0028 37.1872 23.9246 37.1872 24.146H37.5778L37.8501 25.7219C37.6489 25.813 37.637 25.7088 37.6015 25.8912C37.637 25.9172 37.5542 25.9693 37.862 25.8912L38.4539 25.7479C38.6315 25.7088 38.6552 25.7479 38.6552 25.5786L38.3592 25.6307C38.1225 25.3832 38.0159 24.6409 38.0514 24.1981C38.3711 23.9116 38.4539 24.1069 38.6434 24.159C38.6671 23.9767 38.6315 23.7162 38.5723 23.586C38.0396 23.56 38.1935 23.8595 37.933 24.0809ZM38.9512 24.0809C38.8328 24.0809 38.821 24.133 38.7973 23.9116C38.7499 23.3776 39.6379 23.026 39.9102 23.2344C40.3482 23.586 40.3482 24.3674 40.6442 24.7451L40.881 24.719C40.7981 24.9404 40.5732 25.0446 40.3127 25.0577L40.2417 24.7842C40.0286 24.8753 40.1943 25.1749 39.7444 25.3963C39.626 25.4614 39.4484 25.5005 39.3301 25.4353C39.259 25.4093 39.1169 25.253 39.0814 25.1618C39.0341 25.0316 39.0459 24.7581 39.0814 24.6149C39.1998 24.2372 39.8155 23.9376 39.8747 23.8595C39.8036 23.6251 39.6497 23.3906 39.3419 23.4818C38.9038 23.612 38.9749 23.9767 38.9512 24.0809ZM30.569 24.159C30.64 24.12 30.4625 24.0809 30.6992 24.12C30.6992 24.2762 30.7229 24.2111 30.6519 24.3153C30.6519 24.5758 30.6637 24.7581 31.0781 24.9014C31.3741 25.0056 31.599 24.8753 31.599 24.5237C31.528 24.2372 30.5335 23.9376 30.9123 23.2734C31.2557 22.6744 31.895 23.1041 32.2502 23.3906C32.2265 23.586 32.1555 23.8204 31.9897 23.8595C31.966 23.5079 31.9542 23.3125 31.6819 23.2083C31.3504 23.0781 31.1846 23.2865 31.1846 23.599C31.3504 23.8204 31.599 23.8986 31.7884 24.0809C32.2265 24.5107 31.8003 25.3181 31.0307 25.0707C30.9005 25.0316 30.7821 24.9404 30.6756 24.8753C30.5808 24.8102 30.4506 24.7581 30.3796 24.667L30.569 24.159ZM32.5698 23.6511L32.2857 23.6772C32.2975 23.8595 32.3686 23.8204 32.5343 23.8595C32.487 24.5758 31.8595 25.5135 32.5343 25.6828C32.8066 25.7479 33.0197 25.7088 33.0552 25.4484C32.9013 25.4484 32.8185 25.4614 32.7001 25.4093C32.5106 25.0186 32.8303 24.3674 32.9132 23.9897C33.1026 24.0288 33.292 24.146 33.4696 24.0288C33.4815 23.8725 33.4933 23.8725 33.3157 23.8334C33.1973 23.7944 33.0908 23.7944 32.9724 23.7814L33.1855 22.9348L32.7829 22.9739C32.6646 23.2995 32.7593 23.3516 32.5698 23.6511ZM30.2138 24.2502C30.0718 24.0809 29.7995 24.2372 29.4798 23.8595C29.2785 23.6251 29.3259 23.1562 29.5035 22.9348C29.7995 23.0651 30.4625 23.573 30.7111 23.6381C30.8176 23.2995 31.0663 22.6874 30.498 22.3357C30.273 22.2055 30.0954 22.1795 29.7995 22.1925C29.1601 22.2315 28.4143 23.612 29.5627 24.2632C29.7995 24.3935 30.0126 24.4586 30.2138 24.2502ZM41.1178 24.706C41.3901 24.5237 41.7689 24.3153 41.8637 24.0418L41.615 24.133C41.3427 23.9767 40.5021 22.8046 41.177 22.479C41.5795 22.2836 41.7689 22.6223 41.9229 22.9088C42.0294 23.1041 42.2899 23.6511 42.4319 23.7423C42.5858 23.6772 42.8818 23.4297 42.941 23.2995L42.6924 23.3646C42.3491 23.0781 42.1715 22.4269 41.8755 22.1664C41.5322 21.8539 40.952 21.932 40.7863 22.7655L40.7034 22.7134L40.5969 22.5832C40.3956 22.7004 40.147 22.9478 40.0878 23.2213C40.2654 23.1823 40.218 23.1432 40.3601 23.0781C40.5258 23.2083 41.0941 24.0548 41.1651 24.4065C41.1059 24.5628 41.0941 24.5237 41.0349 24.6409L40.9994 24.7321C41.2362 24.7711 41.0349 24.7451 41.1178 24.706ZM43.4146 22.466C43.604 22.3878 43.5567 22.2836 43.7579 22.2055C43.7579 22.4399 43.7935 22.5571 43.6395 22.7264C43.0357 23.3646 42.6806 21.9841 42.1715 21.8278L41.982 21.945L42.0294 21.6064C41.911 21.398 41.7453 21.3199 41.6387 21.1115L41.7689 20.7078L42.2662 21.2939C42.4438 21.2027 42.6332 20.9683 42.7753 20.9813C42.8226 21.0985 42.8108 21.0594 42.7871 21.2027C42.645 21.3199 42.574 21.2939 42.4911 21.4892C42.6214 21.7627 43.1423 22.3227 43.4146 22.466ZM27.7039 22.4139C27.8815 22.4139 28.651 21.4892 28.6866 21.1897C28.5327 21.0073 28.5208 21.1766 28.4971 20.9292L29.172 21.2548L28.9825 21.6064C29.2785 21.6325 29.4916 21.5804 29.6811 21.7367C29.7166 22.0101 29.5035 22.1925 29.3259 22.2576C29.3022 21.9841 29.314 21.8148 29.0891 21.7757C28.9233 21.7367 28.7576 21.906 28.6629 22.0101C27.6802 23.039 28.2959 22.7655 28.2485 23.1692C28.1183 23.1302 27.4434 22.479 27.4079 22.3227C27.5974 22.3227 27.55 22.3488 27.7039 22.4139ZM6.93785 9.93733C7.50614 9.88524 8.33489 9.91128 8.91501 9.92431C9.50697 9.93733 10.1345 9.9764 10.6554 10.2108C11.7919 10.7057 11.9577 11.5783 11.9577 13.1541C11.9577 13.8574 11.9695 14.5086 11.7209 15.0816C11.129 16.4882 10.0871 16.371 8.91501 16.371C8.32305 16.371 7.4943 16.4231 6.93785 16.3579V9.93733ZM19.6059 10.0415C20.624 9.98943 22.4946 9.96338 23.3352 10.328C24.3889 10.7839 24.6257 11.8257 24.6139 13.3104C24.602 14.7821 24.3534 15.824 23.3115 16.2668C22.5657 16.5793 20.482 16.4882 19.5348 16.4751L19.6059 10.0415ZM25.7859 10.0936C28.8997 10.0936 30.8531 9.65081 30.8413 13.3104C30.8413 14.756 30.5453 15.85 29.5863 16.3319C28.8997 16.6705 26.6976 16.5272 25.7859 16.5272V16.4882V10.0936ZM68.3481 11.7085C68.6677 11.5653 69.1531 11.6564 69.3899 11.8257C70.3134 12.542 70.1358 13.8183 69.1531 14.2091C68.4309 14.5086 67.7443 13.9486 67.5903 13.4276C67.4956 13.1021 67.543 12.5551 67.6732 12.3076C67.8271 12.0211 68.0521 11.8388 68.3481 11.7085ZM2.33238 11.7346C2.67572 11.6564 3.07826 11.6825 3.31504 11.8909C4.25034 12.6723 3.74126 14.17 2.95987 14.3002C2.59285 14.3523 2.17847 14.3132 1.92985 14.1179C1.07742 13.4407 1.30237 11.982 2.33238 11.7346ZM50.5181 14.4174L50.4826 16.7096C50.3169 16.7877 49.4171 16.7877 49.2395 16.7096C49.1922 16.3579 49.2395 11.5913 49.2277 10.5885C49.2277 10.5494 49.2277 10.4062 49.2277 10.3801C49.2514 10.1978 49.204 10.302 49.2869 10.2629C50.826 10.3801 53.7266 9.71593 53.9042 11.6695C53.9752 12.4769 53.9752 13.7662 53.253 14.183C52.6729 14.5086 51.2522 14.4305 50.5181 14.4174ZM64.8555 13.5188C64.8081 13.5839 64.8436 13.5449 64.8081 13.649C64.9739 13.7663 65.2225 13.9877 65.3291 14.196C65.5658 14.6519 65.7434 16.2407 64.7371 16.6575C64.1925 16.8789 61.4103 16.8919 60.6881 16.8268V10.4062C61.4103 10.328 64.0623 10.3541 64.6542 10.5625C64.9147 10.6536 65.1396 10.849 65.2699 11.0443C65.5303 11.435 65.4948 12.6202 65.3409 12.9588C65.2225 13.2193 65.0923 13.4146 64.8555 13.5188ZM37.4003 11.6174L37.4239 11.2918L37.0806 11.2788C37.0688 11.2788 37.0569 11.2788 37.0451 11.2657C37.0332 11.2527 37.0214 11.2527 37.0214 11.2527V10.0806C37.2108 10.0155 37.8738 10.0415 38.0869 10.0676C38.0988 10.5234 38.1224 11.3308 38.0277 11.7346C37.8383 12.516 37.1871 12.9588 37.0332 12.2034C37.1635 12.0732 37.3766 11.8778 37.4003 11.6174ZM39.0104 15.2119C39.484 15.2509 39.626 15.5114 40.8218 15.6286C41.3664 15.6807 42.3609 15.824 42.4319 15.1337C42.5267 14.17 41.9584 14.2351 41.2717 14.0658C39.9457 13.7402 38.9512 13.5318 38.9512 11.9169C38.9512 10.2369 40.4074 10.0806 41.5795 10.1197C41.9347 10.1327 42.2307 10.1457 42.5503 10.2369C42.7042 10.2759 43.2725 10.4192 43.3791 10.4843C43.3791 10.6927 43.237 11.3699 43.1423 11.5002C43.1186 11.5262 43.166 11.5653 42.941 11.5132C42.2662 11.3308 42.1596 11.2267 41.3546 11.2267C40.5732 11.2267 40.0167 11.2136 40.1706 12.2425C40.2654 12.8546 42.2662 12.6723 43.1897 13.61C43.5685 14.0007 43.7106 14.7039 43.5803 15.4854C43.237 17.5561 39.2472 16.6054 38.7973 16.2537L39.0104 15.2119ZM18.3746 16.371L18.3272 16.5012C18.268 16.5012 18.2443 16.5012 18.1733 16.4882C18.0431 16.4621 18.1378 16.4751 18.0904 16.4491C17.6997 16.4231 17.238 16.1105 17.167 15.7068C17.1078 15.6416 17.1433 15.6547 17.0486 15.6547C16.9657 15.6937 16.6816 15.9933 16.6342 16.0454C15.8291 16.8528 14.1716 16.6054 13.5205 16.1235C13.2837 15.9542 12.9877 15.5505 12.9285 15.0816C12.8693 14.5867 12.8693 13.8965 13.0469 13.4928C13.6507 12.0471 15.2135 12.3467 16.6579 12.3467C16.6697 11.943 16.5987 11.5523 16.4211 11.2918C15.912 10.5625 13.8757 11.3178 13.5797 11.3308C13.4613 11.0964 13.3074 10.6146 13.2955 10.2759C14.4558 10.0155 14.0177 9.87221 15.5805 9.88524C16.4685 9.89826 17.1196 10.1197 17.4985 10.6797C18.2207 11.7606 17.7353 14.4305 18.0194 15.1467C18.1141 15.3812 18.1733 15.3812 18.4574 15.3812L18.3746 16.371ZM59.4686 14.7821C59.516 15.1988 59.291 15.863 59.1016 16.1496C58.9003 16.4621 58.5215 16.6835 58.119 16.8007C57.5033 16.9831 55.9997 16.9831 55.3249 16.4882C54.579 15.9542 54.5553 15.0556 54.5553 13.8444C54.5553 12.6853 54.5553 11.5132 54.5553 10.328H55.834C56.3312 10.4192 59.1845 10.2369 59.4923 10.3801H58.3202H59.5278C59.5752 11.0574 59.5397 11.9039 59.5397 12.5941C59.5278 12.8807 59.5752 14.717 59.4686 14.7821ZM33.7301 13.0239C33.7419 13.05 33.7656 13.1021 33.7656 13.1151C33.8011 13.1932 33.7893 13.1541 33.8248 13.2062C33.884 12.9458 34.0261 12.2425 34.1326 12.0211L34.6535 11.1095C34.8075 10.836 35.0679 10.4062 35.2455 10.2369C35.3994 10.0936 36.2045 10.1587 36.4886 10.1718C36.5005 10.4322 35.9085 11.3569 35.7783 11.5653C35.506 12.0081 35.2337 12.4118 34.9732 12.8676C34.5707 13.5709 34.3812 13.6621 34.3812 14.4305C34.3812 14.8342 34.4286 16.3058 34.3576 16.5924H33.1855C33.1144 16.2277 33.1618 14.8863 33.1618 14.4305C33.1618 13.9486 33.1973 13.9225 33.0079 13.5449C32.7001 12.9458 31.2083 10.5494 31.2083 10.1718C31.4096 10.1587 32.3449 10.1327 32.4514 10.1978C32.629 10.289 33.7064 12.2295 33.7301 13.0239ZM45.0958 5.14467C45.0247 5.20979 44.7998 5.18374 44.6459 5.18374H37.7673V5.65259C38.2408 5.71771 38.0869 5.69166 38.1225 5.80887C38.0159 5.86096 37.8146 5.79585 37.6607 5.82189C36.903 5.86096 37.1516 5.90003 36.9385 5.71771L36.8675 5.67863C36.8675 5.82189 36.974 5.79585 36.2282 5.78282L36.2163 5.45723C35.8967 5.57445 35.9559 5.82189 35.4823 5.78282C35.1745 5.75678 34.9732 5.5484 35.0442 5.19676C34.8667 5.19676 34.7601 5.26188 34.7127 5.1056C34.7009 5.11862 34.6891 5.11862 34.6891 5.13165L34.4286 5.43119C34.0379 5.79585 33.7064 5.86096 33.2447 5.57445L33.0316 5.69166C33.0197 5.17072 33.0789 4.62373 33.0789 4.08976C33.0789 3.81627 33.0671 3.54277 33.0671 3.26928C33.0671 2.70927 33.1026 2.72229 32.8421 2.70927C32.6764 2.70927 32.7948 2.72229 32.7829 2.63113C33.0789 2.70927 33.3749 2.60508 33.6354 2.60508C33.9432 2.60508 34.2629 2.60508 34.5707 2.60508V0.338984C34.5352 0.28689 34.5352 0.299913 34.4996 0.260842C34.4286 0.260842 34.4641 0.273866 34.4641 0.169678C32.4988 0.273866 29.9178 1.60227 28.651 2.60508C27.6092 3.43859 26.4253 4.76699 25.7031 5.95213C25.561 6.18655 25.4426 6.39493 25.3005 6.62935C25.1466 6.8768 25.0874 7.05913 24.969 7.33263H4.67656L4.66472 8.92149C4.27402 8.97359 4.0254 8.9215 3.6347 9.02569C2.78228 9.24709 2.13112 9.755 1.57467 10.3801C0.343389 11.7867 0.0829256 13.9095 1.17214 15.7719C1.57467 16.4751 1.72858 16.5403 2.28503 16.9831C2.87699 17.4649 3.51631 17.7645 4.30954 17.8035C4.53449 17.8166 4.66472 17.7384 4.67656 17.9598C4.6884 18.2854 4.6292 18.8454 4.70023 19.145H24.827C24.898 19.5357 25.4308 20.4083 25.632 20.7338C26.2003 21.6455 26.3069 21.7236 26.8515 22.4399C27.4079 23.1692 28.213 23.8204 28.9352 24.3935C29.7758 25.0707 30.8058 25.5656 31.9187 25.9954C34.3457 26.92 37.128 26.8419 39.5668 25.9433C41.8045 25.1098 43.3317 23.8334 44.8471 22.0101C45.1668 21.6194 45.522 21.1246 45.7943 20.6166C45.889 20.4343 46.4691 19.184 46.6822 19.145L66.2288 19.1319V17.6994C67.6732 17.6994 68.5493 17.2435 69.2952 16.4361C71.3671 14.2091 70.8343 10.3671 67.9692 9.1429C67.318 8.8694 66.9629 8.88242 66.2288 8.79126V7.3196H46.4099C46.2679 6.88982 46.0311 6.48609 45.818 6.1605C45.6877 5.97818 45.2142 5.20979 45.0958 5.14467Z" fill="#15402F"/>
<path fill-rule="evenodd" clip-rule="evenodd" d="M34.4522 0.156554C34.4522 0.260742 34.4285 0.247718 34.4877 0.247718C34.535 0.299812 34.5232 0.286788 34.5587 0.325858V2.59195C34.2509 2.59195 33.9312 2.59195 33.6234 2.59195C33.363 2.59195 33.067 2.69614 32.771 2.618H33.4458V3.86826C33.5287 3.85524 34.1917 3.26918 34.6061 3.7771C34.7245 3.92035 34.8192 4.12873 34.8429 4.36315C34.8784 4.832 34.7482 4.832 34.7245 5.09247C34.7718 5.24876 34.8784 5.18364 35.056 5.18364C35.1152 4.71479 35.4703 4.53246 35.9558 4.51944L36.0978 4.48037C36.1925 4.45432 36.1333 4.49339 36.2281 4.45432L36.2162 4.15478C36.086 3.88128 35.8374 3.86826 35.5059 3.92036C35.4348 4.07664 35.4467 4.19385 35.2572 4.2199V3.88128C35.5059 3.76407 35.6361 3.63384 35.9558 3.64686C36.2636 3.65988 36.4648 3.75105 36.5596 3.98547C36.6779 4.24594 36.6306 4.59758 36.6188 4.89712C36.5951 5.35294 36.5477 5.50923 36.8792 5.66551L36.9503 5.70458C37.1634 5.88691 36.9147 5.84784 37.6724 5.80877C37.6133 5.7176 37.3054 5.7697 37.187 5.7697L37.0213 5.7176C37.0923 5.60039 36.9858 5.66551 37.187 5.63946C37.412 5.61341 37.3883 5.65248 37.3883 5.0534C37.3883 4.72781 37.412 4.31106 37.3765 3.98547C37.2226 3.98547 37.1752 4.01152 37.0686 3.93338C37.0923 3.725 37.0686 3.80314 37.2936 3.79012C37.412 3.7771 37.4712 3.73803 37.5896 3.725C37.6133 3.71198 37.5541 3.65988 37.7672 3.68593C37.8027 4.18083 37.7435 3.97245 37.85 4.06361C37.8974 3.88129 38.2052 3.58174 38.4894 3.725C38.5722 3.88128 38.513 4.15478 38.4538 4.25897C38.2644 4.19385 38.0868 3.92035 37.8619 4.23292C37.708 4.45432 37.7553 4.85805 37.7553 5.17062H44.6339C44.7878 5.17062 45.0128 5.19666 45.0838 5.13154C44.7523 4.49339 43.3435 3.08685 42.6686 2.55288C41.2479 1.45891 39.7443 0.703541 37.9684 0.325858C37.2699 0.195623 35.1625 -0.0387991 34.4522 0.156554Z" fill="#15402F"/>
<path fill-rule="evenodd" clip-rule="evenodd" d="M58.2847 14.5086C58.2611 13.8314 58.2847 13.1281 58.2847 12.4509C58.2847 12.0341 58.2374 10.6927 58.3084 10.3932H59.4805C59.1845 10.2629 56.3194 10.4322 55.8222 10.3411C55.7393 10.9011 55.7748 12.0341 55.7748 12.6593C55.763 13.2974 55.6801 14.4174 55.834 14.9774C56.0353 15.7328 56.4496 15.824 57.2666 15.7719C57.9769 15.7198 58.3203 15.3291 58.2847 14.5086Z" fill="#15402F"/>
<path fill-rule="evenodd" clip-rule="evenodd" d="M26.9937 15.4072C27.4791 15.4723 28.6867 15.4854 29.0537 15.2119C29.5391 14.8602 29.5746 14.1439 29.5746 13.3104C29.5746 12.4899 29.5272 11.7997 29.0182 11.4481C28.6038 11.1615 27.5619 11.1615 26.9937 11.2267V15.4072Z" fill="#15402F"/>
<path fill-rule="evenodd" clip-rule="evenodd" d="M20.7661 15.3682C21.3581 15.3682 22.4355 15.4984 22.838 15.1598C23.3234 14.7691 23.3471 14.0919 23.3471 13.2714C23.3471 10.9792 22.5657 11.1486 20.7661 11.1486V15.3682Z" fill="#15402F"/>
<path fill-rule="evenodd" clip-rule="evenodd" d="M8.16919 15.303C10.0161 15.303 10.7501 15.4332 10.7383 13.1932C10.7265 10.9661 10.028 11.0443 8.18103 11.0443L8.16919 15.303Z" fill="#15402F"/>
<path fill-rule="evenodd" clip-rule="evenodd" d="M16.6697 13.4535C16.3382 13.4144 14.811 13.4144 14.5742 13.5056C13.9941 13.74 13.9586 14.834 14.3019 15.1856C14.6334 15.5112 15.7463 15.5243 16.1133 15.2508C16.5514 14.9382 16.7171 14.2479 16.6697 13.4535Z" fill="#15402F"/>
<path fill-rule="evenodd" clip-rule="evenodd" d="M51.7968 13.3363C52.3769 13.3753 52.6256 13.1539 52.6256 12.5288C52.6256 11.9297 52.6256 11.3958 52.0099 11.4348C51.5127 11.4218 50.9918 11.3958 50.4827 11.3958V13.3232L51.7968 13.3363Z" fill="#15402F"/>
<path fill-rule="evenodd" clip-rule="evenodd" d="M61.718 15.7067C62.0614 15.7328 63.8136 15.7849 64.0977 15.6156C64.4647 15.3811 64.2634 14.4825 64.0622 14.2872C63.8846 14.1179 63.6004 14.1439 63.3637 14.1439C62.8309 14.1439 62.2508 14.1179 61.7299 14.1439L61.718 15.7067Z" fill="#15402F"/>
<path fill-rule="evenodd" clip-rule="evenodd" d="M61.7654 13.0238C62.2863 13.0238 62.8072 13.0238 63.3163 13.0238C63.9438 13.0238 64.2043 13.0368 64.2279 12.2814C64.2635 11.526 63.9793 11.513 63.3518 11.5C62.8309 11.487 62.2863 11.487 61.7654 11.5V13.0238Z" fill="#15402F"/>
<path fill-rule="evenodd" clip-rule="evenodd" d="M2.40332 12.2685C2.08366 12.3597 1.81136 12.8285 1.95343 13.2713C2.04814 13.5708 2.45067 13.9485 2.85321 13.7662C3.71747 13.3755 3.3623 11.995 2.40332 12.2685Z" fill="#15402F"/>
<path fill-rule="evenodd" clip-rule="evenodd" d="M68.052 12.8935C68.052 14.1829 69.4727 13.8052 69.4727 13.0108C69.4727 12.5419 69.1649 12.1772 68.7032 12.1772C68.348 12.1903 68.052 12.5289 68.052 12.8935Z" fill="#15402F"/>
<path fill-rule="evenodd" clip-rule="evenodd" d="M34.4168 5.06652C34.4878 4.89721 34.476 4.6107 34.4523 4.40232C34.3931 3.69905 33.4933 3.73812 33.3986 4.32418C33.3749 4.48046 33.3867 4.85814 33.3867 5.02745C33.4104 5.58746 34.1563 5.75677 34.4168 5.06652Z" fill="#15402F"/>
<path fill-rule="evenodd" clip-rule="evenodd" d="M34.4995 24.9012C34.2154 24.9012 34.0378 24.8882 33.8247 25.0314C33.6826 25.1356 33.4695 25.4091 33.7063 25.6305C33.8602 25.7868 34.1443 25.7086 34.2983 25.5914C34.464 25.4612 34.5114 25.2398 34.4995 24.9012Z" fill="#15402F"/>
<path fill-rule="evenodd" clip-rule="evenodd" d="M39.9576 24.0676C39.5788 24.1197 39.046 24.7839 39.5196 25.0574C39.8037 25.2267 39.9576 24.9402 40.0405 24.7839C40.1707 24.5495 40.076 24.289 39.9576 24.0676Z" fill="#15402F"/>
<path fill-rule="evenodd" clip-rule="evenodd" d="M29.6338 22.7523L29.989 23.0518C30.1192 23.143 30.2258 23.2472 30.4033 23.2602C30.6046 23.0518 30.652 22.609 30.356 22.4397C30.0126 22.2313 29.7285 22.4788 29.6338 22.7523Z" fill="#15402F"/>
<path fill-rule="evenodd" clip-rule="evenodd" d="M36.2401 4.64965C35.7429 4.57151 35.1983 5.07943 35.5061 5.43106C35.66 5.61339 35.9442 5.48315 36.0862 5.37897C36.2993 5.22268 36.2401 5.00129 36.2401 4.64965Z" fill="#15402F"/>
</svg>
