<svg width="154" height="58" viewBox="0 0 154 58" fill="none" xmlns="http://www.w3.org/2000/svg">
<g clip-path="url(#clip0)">
<path d="M71.998 22.3623H74.8799V14.7197H76.8413V24H65.168V14.7197H67.1357V22.3623H70.0176V14.7197H71.998V22.3623ZM86.6357 14.7197L83.7603 21.2832C83.4006 22.1042 83.0641 22.6966 82.751 23.0605C82.4378 23.4202 82.0654 23.689 81.6338 23.8667C81.2064 24.0402 80.6816 24.127 80.0596 24.127C79.5264 24.127 79.0312 24.0635 78.5742 23.9365V22.248C78.9551 22.4004 79.4185 22.4766 79.9644 22.4766C80.3071 22.4766 80.5864 22.3983 80.8022 22.2417C81.0181 22.0851 81.2021 21.7995 81.3545 21.3848L78.1426 14.7197H80.2246L82.5161 19.8931H82.5796C82.6431 19.6561 82.7869 19.2773 83.0112 18.7568L84.6045 14.7197H86.6357ZM91.6821 16.2241C90.9416 16.2241 90.3682 16.5034 89.9619 17.062C89.5557 17.6164 89.3525 18.3908 89.3525 19.3853C89.3525 21.4546 90.1291 22.4893 91.6821 22.4893C92.3338 22.4893 93.123 22.3263 94.0498 22.0005V23.6509C93.2881 23.9683 92.4375 24.127 91.498 24.127C90.1481 24.127 89.1156 23.7186 88.4004 22.9019C87.6852 22.0809 87.3276 20.9045 87.3276 19.3726C87.3276 18.4077 87.5033 17.5635 87.8545 16.8398C88.2057 16.112 88.7093 15.5555 89.3652 15.1704C90.0254 14.7811 90.7977 14.5864 91.6821 14.5864C92.5835 14.5864 93.4891 14.8044 94.3989 15.2402L93.7642 16.8398C93.4172 16.6748 93.068 16.5309 92.7168 16.4082C92.3656 16.2855 92.0207 16.2241 91.6821 16.2241ZM99.6103 24H97.6426V16.3574H95.1226V14.7197H102.13V16.3574H99.6103V24ZM105.526 19.0869H106.174C106.779 19.0869 107.232 18.9684 107.532 18.7314C107.833 18.4902 107.983 18.1411 107.983 17.6841C107.983 17.2228 107.856 16.8822 107.602 16.6621C107.352 16.4421 106.959 16.332 106.421 16.332H105.526V19.0869ZM109.97 17.6143C109.97 18.613 109.657 19.3768 109.03 19.9058C108.408 20.4347 107.522 20.6992 106.371 20.6992H105.526V24H103.559V14.7197H106.523C107.649 14.7197 108.503 14.9631 109.087 15.4497C109.676 15.9321 109.97 16.6536 109.97 17.6143ZM118.069 21.0991C118.069 22.064 117.748 22.7897 117.104 23.2764C116.465 23.7588 115.518 24 114.261 24H111.722V14.7197H113.689V18.2808H114.324C115.513 18.2808 116.434 18.5283 117.085 19.0234C117.741 19.5143 118.069 20.2062 118.069 21.0991ZM113.689 22.3877H114.204C114.851 22.3877 115.325 22.2819 115.625 22.0703C115.926 21.8545 116.076 21.5308 116.076 21.0991C116.076 20.6675 115.93 20.3586 115.638 20.1724C115.35 19.9862 114.843 19.8931 114.115 19.8931H113.689V22.3877ZM121.161 24H119.199V14.7197H121.161V24ZM123.503 14.7197H125.274V19.2012L125.249 20.4009L125.185 21.7656H125.223L129.508 14.7197H131.863V24H130.111V19.5439C130.111 18.9473 130.149 18.0628 130.225 16.8906H130.174L125.871 24H123.503V14.7197ZM130.758 11.7046C130.678 12.4959 130.38 13.0736 129.863 13.4375C129.347 13.7972 128.602 13.9771 127.629 13.9771C126.626 13.9771 125.883 13.8035 125.401 13.4565C124.923 13.1095 124.654 12.5256 124.595 11.7046H126.328C126.357 12.1405 126.465 12.4473 126.651 12.625C126.842 12.7985 127.18 12.8853 127.667 12.8853C128.094 12.8853 128.412 12.79 128.619 12.5996C128.831 12.4049 128.96 12.1066 129.006 11.7046H130.758ZM66.522 41L64.221 31.38H66.21L67.757 38.166L69.564 31.38H71.332L73.126 38.166L74.673 31.38H76.662L74.361 41H72.398L70.448 34.214L68.485 41H66.522ZM77.7177 41V31.38H79.6417V41H77.7177ZM84.6621 41V33.577C84.6621 33.005 84.7747 32.5587 85.0001 32.238C85.2254 31.9173 85.5071 31.6963 85.8451 31.575C86.1831 31.445 86.5211 31.38 86.8591 31.38C87.1711 31.38 87.5567 31.3843 88.0161 31.393C88.4841 31.4017 88.9781 31.419 89.4981 31.445C90.0267 31.4623 90.5337 31.497 91.0191 31.549V33.161H87.3921C87.1234 33.161 86.9197 33.2347 86.7811 33.382C86.6511 33.5207 86.5861 33.7027 86.5861 33.928V35.579L90.3951 35.683V37.204L86.5861 37.308V41H84.6621ZM92.2412 41V31.38H94.1652V41H92.2412Z" fill="url(#paint0_linear)"/>
<g clip-path="url(#clip1)">
<path d="M18.8283 28.7147C17.9527 29.5902 17.9527 31.0151 18.8283 31.8992C19.7038 32.7747 21.1287 32.7747 22.0128 31.8992C28.0729 25.8391 37.9356 25.8391 43.9957 31.8992C44.4334 32.337 45.0085 32.5602 45.5837 32.5602C46.1588 32.5602 46.7339 32.337 47.1716 31.8992C48.0472 31.0237 48.0472 29.5988 47.1716 28.7147C39.3605 20.8949 26.6394 20.8949 18.8283 28.7147Z" fill="url(#paint1_linear)"/>
<path d="M24.9057 34.7919C24.0301 35.6674 24.0301 37.0923 24.9057 37.9764C25.7812 38.852 27.2061 38.852 28.0902 37.9764C30.7941 35.264 35.2061 35.264 37.91 37.9764C38.3477 38.4142 38.9228 38.6374 39.4979 38.6374C40.0731 38.6374 40.6482 38.4142 41.0859 37.9764C41.9615 37.1009 41.9615 35.676 41.0859 34.8005C36.631 30.3284 29.3692 30.3284 24.9057 34.7919Z" fill="url(#paint2_linear)"/>
<path d="M32.9999 45.8735C34.6543 45.8735 35.9956 44.5323 35.9956 42.8778C35.9956 41.2233 34.6543 39.8821 32.9999 39.8821C31.3454 39.8821 30.0042 41.2233 30.0042 42.8778C30.0042 44.5323 31.3454 45.8735 32.9999 45.8735Z" fill="url(#paint3_linear)"/>
<path d="M53.3433 22.5344C42.1245 11.3241 23.8755 11.3241 12.6567 22.5344C11.7811 23.41 11.7811 24.8349 12.6567 25.719C13.5322 26.5945 14.9571 26.5945 15.8412 25.719C25.3004 16.2512 40.6996 16.2512 50.1674 25.719C50.6051 26.1568 51.1803 26.3799 51.7554 26.3799C52.3305 26.3799 52.9056 26.1568 53.3433 25.719C54.2189 24.8434 54.2189 23.4186 53.3433 22.5344Z" fill="url(#paint4_linear)"/>
</g>
</g>
<defs>
<linearGradient id="paint0_linear" x1="128.983" y1="12" x2="134.918" y2="43.7347" gradientUnits="userSpaceOnUse">
<stop stop-color="#54B991"/>
<stop offset="1" stop-color="#54B3B9"/>
</linearGradient>
<linearGradient id="paint1_linear" x1="32.0361" y1="22.8499" x2="34.5123" y2="32.1578" gradientUnits="userSpaceOnUse">
<stop stop-color="#54B991"/>
<stop offset="1" stop-color="#54B3B9"/>
</linearGradient>
<linearGradient id="paint2_linear" x1="32.4273" y1="31.4453" x2="34.6456" y2="38.0863" gradientUnits="userSpaceOnUse">
<stop stop-color="#54B991"/>
<stop offset="1" stop-color="#54B3B9"/>
</linearGradient>
<linearGradient id="paint3_linear" x1="32.8051" y1="39.8821" x2="35.8148" y2="43.5863" gradientUnits="userSpaceOnUse">
<stop stop-color="#54B991"/>
<stop offset="1" stop-color="#54B3B9"/>
</linearGradient>
<linearGradient id="paint4_linear" x1="31.635" y1="14.1267" x2="34.4576" y2="26.0344" gradientUnits="userSpaceOnUse">
<stop stop-color="#54B991"/>
<stop offset="1" stop-color="#54B3B9"/>
</linearGradient>
<clipPath id="clip0">
<rect width="155" height="58" fill="white"/>
</clipPath>
<clipPath id="clip1">
<rect width="42" height="42" fill="white" transform="translate(12 9)"/>
</clipPath>
</defs>
</svg>
