<svg width="203" height="58" viewBox="0 0 203 58" fill="none" xmlns="http://www.w3.org/2000/svg">
<g clip-path="url(#clip0)">
<path d="M64.0635 22.3623H64.7808C65.3944 21.1351 65.8789 19.91 66.2344 18.687C66.5898 17.4598 66.8543 16.1374 67.0278 14.7197H72.436V22.3623H73.6738V26.7041H71.7759V24H65.9614V26.7041H64.0635V22.3623ZM68.5894 16.3574C68.4539 17.3265 68.2275 18.3527 67.9102 19.436C67.597 20.5194 67.2437 21.4948 66.8501 22.3623H70.4746V16.3574H68.5894ZM77.0762 19.0869H77.7236C78.3288 19.0869 78.7816 18.9684 79.082 18.7314C79.3825 18.4902 79.5327 18.1411 79.5327 17.6841C79.5327 17.2228 79.4058 16.8822 79.1519 16.6621C78.9022 16.4421 78.5086 16.332 77.9712 16.332H77.0762V19.0869ZM81.5195 17.6143C81.5195 18.613 81.2064 19.3768 80.5801 19.9058C79.958 20.4347 79.0715 20.6992 77.9204 20.6992H77.0762V24H75.1084V14.7197H78.0728C79.1984 14.7197 80.0532 14.9631 80.6372 15.4497C81.2254 15.9321 81.5195 16.6536 81.5195 17.6143ZM90.7236 14.7197L87.8481 21.2832C87.4884 22.1042 87.152 22.6966 86.8389 23.0605C86.5257 23.4202 86.1533 23.689 85.7217 23.8667C85.2943 24.0402 84.7695 24.127 84.1475 24.127C83.6143 24.127 83.1191 24.0635 82.6621 23.9365V22.248C83.043 22.4004 83.5063 22.4766 84.0522 22.4766C84.395 22.4766 84.6743 22.3983 84.8901 22.2417C85.106 22.0851 85.29 21.7995 85.4424 21.3848L82.2305 14.7197H84.3125L86.604 19.8931H86.6675C86.731 19.6561 86.8748 19.2773 87.0991 18.7568L88.6924 14.7197H90.7236ZM94.0244 19.1758L90.9077 14.7197H92.9326L95.9351 19.2139V14.7197H97.7695V19.2139L100.772 14.7197H102.803L99.6802 19.1758L102.981 24H100.874L97.7695 19.2964V24H95.9351V19.2964L92.8311 24H90.7236L94.0244 19.1758ZM109.5 24H104.155V14.7197H109.5V16.332H106.123V18.3696H109.265V19.9819H106.123V22.375H109.5V24ZM115.384 16.2241C114.644 16.2241 114.07 16.5034 113.664 17.062C113.258 17.6164 113.055 18.3908 113.055 19.3853C113.055 21.4546 113.831 22.4893 115.384 22.4893C116.036 22.4893 116.825 22.3263 117.752 22.0005V23.6509C116.99 23.9683 116.14 24.127 115.2 24.127C113.85 24.127 112.818 23.7186 112.103 22.9019C111.387 22.0809 111.03 20.9045 111.03 19.3726C111.03 18.4077 111.205 17.5635 111.557 16.8398C111.908 16.112 112.411 15.5555 113.067 15.1704C113.728 14.7811 114.5 14.5864 115.384 14.5864C116.286 14.5864 117.191 14.8044 118.101 15.2402L117.466 16.8398C117.119 16.6748 116.77 16.5309 116.419 16.4082C116.068 16.2855 115.723 16.2241 115.384 16.2241ZM127.299 24H125.064L121.7 19.2964V24H119.732V14.7197H121.7V19.2139L125.026 14.7197H127.121L123.738 19.1758L127.299 24ZM134.148 24L133.475 21.791H130.092L129.419 24H127.299L130.574 14.6816H132.98L136.268 24H134.148ZM133.005 20.1406C132.383 18.139 132.032 17.007 131.952 16.7446C131.875 16.4823 131.82 16.2749 131.787 16.1226C131.647 16.6642 131.247 18.0036 130.587 20.1406H133.005ZM140.565 20.439L138.395 24H136.211L138.852 19.9185C138.327 19.7069 137.925 19.381 137.646 18.9409C137.366 18.4966 137.227 17.974 137.227 17.373C137.227 16.5225 137.527 15.8687 138.128 15.4116C138.733 14.9504 139.601 14.7197 140.73 14.7197H143.752V24H141.784V20.439H140.565ZM141.784 16.332H140.813C140.305 16.332 139.912 16.423 139.632 16.605C139.353 16.7869 139.213 17.0895 139.213 17.5127C139.213 17.9232 139.349 18.2469 139.62 18.4839C139.89 18.7209 140.305 18.8394 140.864 18.8394H141.784V16.332ZM70.8491 41L70.1763 38.791H66.793L66.1201 41H64L67.2754 31.6816H69.6812L72.9692 41H70.8491ZM69.7065 37.1406C69.0845 35.139 68.7332 34.007 68.6528 33.7446C68.5767 33.4823 68.5216 33.2749 68.4878 33.1226C68.3481 33.6642 67.9482 35.0036 67.2881 37.1406H69.7065ZM77.2793 41H75.3115V33.3574H72.7915V31.7197H79.7993V33.3574H77.2793V41ZM85.1567 41L82.9224 33.7192H82.8652C82.9456 35.2004 82.9858 36.1885 82.9858 36.6836V41H81.2275V31.7197H83.9062L86.1025 38.8164H86.1406L88.4702 31.7197H91.1489V41H89.3145V36.6074C89.3145 36.4001 89.3166 36.161 89.3208 35.8901C89.3293 35.6193 89.3589 34.8999 89.4097 33.7319H89.3525L86.9595 41H85.1567ZM101.915 36.3472C101.915 37.8833 101.534 39.064 100.772 39.8892C100.01 40.7144 98.9185 41.127 97.4966 41.127C96.0747 41.127 94.9829 40.7144 94.2212 39.8892C93.4595 39.064 93.0786 37.8791 93.0786 36.3345C93.0786 34.7899 93.4595 33.6113 94.2212 32.7988C94.9871 31.9821 96.0832 31.5737 97.5093 31.5737C98.9354 31.5737 100.025 31.9842 100.778 32.8052C101.536 33.6261 101.915 34.8068 101.915 36.3472ZM95.1416 36.3472C95.1416 37.384 95.3384 38.1647 95.7319 38.6895C96.1255 39.2142 96.7137 39.4766 97.4966 39.4766C99.0666 39.4766 99.8516 38.4334 99.8516 36.3472C99.8516 34.2567 99.0708 33.2114 97.5093 33.2114C96.7264 33.2114 96.1361 33.4759 95.7383 34.0049C95.3405 34.5296 95.1416 35.3104 95.1416 36.3472ZM107.78 33.2241C107.039 33.2241 106.466 33.5034 106.06 34.062C105.653 34.6164 105.45 35.3908 105.45 36.3853C105.45 38.4546 106.227 39.4893 107.78 39.4893C108.431 39.4893 109.221 39.3263 110.147 39.0005V40.6509C109.386 40.9683 108.535 41.127 107.596 41.127C106.246 41.127 105.213 40.7186 104.498 39.9019C103.783 39.0809 103.425 37.9045 103.425 36.3726C103.425 35.4077 103.601 34.5635 103.952 33.8398C104.303 33.112 104.807 32.5555 105.463 32.1704C106.123 31.7811 106.895 31.5864 107.78 31.5864C108.681 31.5864 109.587 31.8044 110.497 32.2402L109.862 33.8398C109.515 33.6748 109.166 33.5309 108.814 33.4082C108.463 33.2855 108.118 33.2241 107.78 33.2241ZM117.308 38.1816H117.396C118.078 38.1816 118.611 38.0039 118.996 37.6484C119.385 37.2887 119.58 36.7979 119.58 36.1758C119.58 35.6003 119.4 35.139 119.041 34.792C118.681 34.4408 118.19 34.2651 117.568 34.2651H117.308V38.1816ZM115.537 41.127V39.6987H115.397C114.61 39.6987 113.92 39.5612 113.328 39.2861C112.735 39.0068 112.268 38.59 111.925 38.0356C111.586 37.4813 111.417 36.8656 111.417 36.1885C111.417 35.5326 111.567 34.9422 111.868 34.4175C112.172 33.8885 112.61 33.4759 113.182 33.1797C113.753 32.8792 114.426 32.729 115.2 32.729H115.537V31.5864H117.308V32.729H117.644C118.414 32.729 119.085 32.8792 119.656 33.1797C120.228 33.4759 120.666 33.8885 120.97 34.4175C121.275 34.9422 121.427 35.5326 121.427 36.1885C121.427 36.8656 121.256 37.4813 120.913 38.0356C120.575 38.59 120.109 39.0068 119.517 39.2861C118.924 39.5612 118.234 39.6987 117.447 39.6987H117.308V41.127H115.537ZM115.537 34.2651H115.276C114.654 34.2651 114.163 34.4386 113.804 34.7856C113.444 35.1326 113.264 35.596 113.264 36.1758C113.264 36.7852 113.455 37.2718 113.835 37.6357C114.216 37.9997 114.754 38.1816 115.448 38.1816H115.537V34.2651ZM128.53 41H123.186V31.7197H128.53V33.332H125.153V35.3696H128.295V36.9819H125.153V39.375H128.53V41ZM132.44 36.0869H133.088C133.693 36.0869 134.146 35.9684 134.446 35.7314C134.747 35.4902 134.897 35.1411 134.897 34.6841C134.897 34.2228 134.77 33.8822 134.516 33.6621C134.266 33.4421 133.873 33.332 133.335 33.332H132.44V36.0869ZM136.884 34.6143C136.884 35.613 136.571 36.3768 135.944 36.9058C135.322 37.4347 134.436 37.6992 133.285 37.6992H132.44V41H130.473V31.7197H133.437C134.563 31.7197 135.417 31.9631 136.001 32.4497C136.59 32.9321 136.884 33.6536 136.884 34.6143ZM144 41L143.327 38.791H139.943L139.271 41H137.15L140.426 31.6816H142.832L146.12 41H144ZM142.857 37.1406C142.235 35.139 141.884 34.007 141.803 33.7446C141.727 33.4823 141.672 33.2749 141.638 33.1226C141.499 33.6642 141.099 35.0036 140.438 37.1406H142.857Z" fill="url(#paint0_linear)"/>
<g clip-path="url(#clip1)">
<path d="M18 23.3048V36.1954C18 39.7475 19.2419 42.7696 21.7257 45.2618C24.2095 47.754 27.2215 49.0001 30.7616 49.0001H34.4444C37.642 49.0001 40.4255 47.9545 42.7951 45.8634C45.1647 43.7723 46.5779 41.1512 47.0347 38.0001H47.206C49.2045 38.0001 50.9317 37.284 52.3877 35.8517C53.8438 34.4194 54.5718 32.7006 54.5718 30.6954C54.5718 28.6902 53.8438 26.9571 52.3877 25.4962C50.9317 24.0353 49.2045 23.3048 47.206 23.3048C47.206 22.3308 46.8492 21.4858 46.1354 20.7696C45.4217 20.0535 44.5795 19.6954 43.6088 19.6954H21.6829C20.6551 19.6954 19.7843 20.0535 19.0706 20.7696C18.3569 21.4858 18 22.3308 18 23.3048ZM47.206 27.0001C48.2338 27.0001 49.1046 27.3582 49.8183 28.0743C50.532 28.7905 50.8889 29.6642 50.8889 30.6954C50.8889 31.6694 50.532 32.5144 49.8183 33.2306C49.1046 33.9467 48.2338 34.3048 47.206 34.3048V27.0001ZM43.6088 36.1954C43.6088 38.7163 42.7238 40.8647 40.9537 42.6407C39.1836 44.4168 37.0139 45.3048 34.4444 45.3048H30.7616C28.2492 45.3048 26.108 44.4168 24.338 42.6407C22.5679 40.8647 21.6829 38.7163 21.6829 36.1954V23.3048H43.6088V36.1954ZM30.419 7.92199C30.99 6.83345 30.8187 5.97408 29.9051 5.34387C28.9344 4.71366 28.135 4.85689 27.5069 5.77356L26.5648 6.97668C25.537 8.63814 25.1231 10.4285 25.3229 12.3478C25.5228 14.267 26.3079 15.9142 27.6782 17.2892C28.0208 17.6329 28.4491 17.8048 28.963 17.8048C29.4769 17.8048 29.9051 17.6329 30.2477 17.2892C30.99 16.4298 30.99 15.5704 30.2477 14.7111C29.5054 13.9663 29.0772 13.0639 28.963 12.004C28.8488 10.9441 29.1057 9.95585 29.7338 9.03918L30.419 7.92199ZM36.8426 12.4767L37.5278 11.7892C38.3272 10.9871 38.3843 10.1277 37.6991 9.21106C37.4707 8.86731 37.0853 8.68111 36.5428 8.65246C36.0004 8.62382 35.5579 8.75272 35.2153 9.03918L34.4444 9.72668C33.1883 10.8152 32.6458 12.1043 32.8171 13.5939C32.9884 15.198 33.902 16.4871 35.5579 17.4611C35.6721 17.6902 35.9005 17.8048 36.2431 17.8048C36.9282 17.8048 37.4992 17.5183 37.956 16.9454C38.5841 15.8569 38.3272 14.9975 37.1852 14.3673C36.5571 13.9663 36.2431 13.6512 36.2431 13.422L36.8426 12.4767Z" fill="url(#paint1_linear)"/>
</g>
</g>
<defs>
<linearGradient id="paint0_linear" x1="128.983" y1="12" x2="134.918" y2="43.7347" gradientUnits="userSpaceOnUse">
<stop stop-color="#54B991"/>
<stop offset="1" stop-color="#54B3B9"/>
</linearGradient>
<linearGradient id="paint1_linear" x1="35.0973" y1="4.95874" x2="57.6941" y2="28.0532" gradientUnits="userSpaceOnUse">
<stop stop-color="#54B991"/>
<stop offset="1" stop-color="#54B3B9"/>
</linearGradient>
<clipPath id="clip0">
<rect width="203" height="58" fill="white"/>
</clipPath>
<clipPath id="clip1">
<rect width="37" height="44" fill="white" transform="translate(18 5)"/>
</clipPath>
</defs>
</svg>
