<svg width="186" height="60" viewBox="0 0 186 60" fill="none" xmlns="http://www.w3.org/2000/svg">
<g clip-path="url(#clip0)">
<path d="M73.594 19.346C73.594 20.308 73.4337 21.1487 73.113 21.868C72.801 22.5787 72.32 23.1333 71.67 23.532C71.02 23.9307 70.188 24.13 69.174 24.13C68.1687 24.13 67.3367 23.9307 66.678 23.532C66.028 23.1333 65.5427 22.5743 65.222 21.855C64.91 21.1357 64.754 20.295 64.754 19.333C64.754 18.371 64.91 17.5347 65.222 16.824C65.5427 16.1133 66.028 15.563 66.678 15.173C67.3367 14.7743 68.173 14.575 69.187 14.575C70.1923 14.575 71.02 14.7743 71.67 15.173C72.32 15.563 72.801 16.1177 73.113 16.837C73.4337 17.5477 73.594 18.384 73.594 19.346ZM66.821 19.346C66.821 20.3167 67.0073 21.0837 67.38 21.647C67.7527 22.2017 68.3507 22.479 69.174 22.479C70.0147 22.479 70.617 22.2017 70.981 21.647C71.345 21.0837 71.527 20.3167 71.527 19.346C71.527 18.3667 71.345 17.5997 70.981 17.045C70.617 16.4903 70.019 16.213 69.187 16.213C68.355 16.213 67.7527 16.4903 67.38 17.045C67.0073 17.5997 66.821 18.3667 66.821 19.346ZM78.6981 24H76.7351V16.356H74.2131V14.718H81.2201V16.356H78.6981V24ZM89.349 24H87.386V16.356H85.111C85.059 16.7547 85.0026 17.188 84.942 17.656C84.89 18.124 84.8293 18.6007 84.76 19.086C84.6993 19.5627 84.6343 20.0177 84.565 20.451C84.4956 20.8757 84.4263 21.2527 84.357 21.582C84.2443 22.1193 84.0927 22.5787 83.902 22.96C83.72 23.3413 83.4643 23.6317 83.135 23.831C82.8143 24.0303 82.394 24.13 81.874 24.13C81.536 24.13 81.224 24.0823 80.938 23.987V22.375C81.0507 22.4097 81.159 22.44 81.263 22.466C81.3757 22.492 81.497 22.505 81.627 22.505C81.8783 22.505 82.069 22.375 82.199 22.115C82.3377 21.8463 82.4763 21.348 82.615 20.62C82.667 20.3427 82.7407 19.9093 82.836 19.32C82.9313 18.7307 83.0353 18.0417 83.148 17.253C83.2693 16.4557 83.382 15.6107 83.486 14.718H89.349V24ZM91.6905 14.718H93.4585V19.203C93.4585 19.4197 93.4542 19.6623 93.4455 19.931C93.4368 20.1997 93.4282 20.464 93.4195 20.724C93.4108 20.9753 93.4022 21.1963 93.3935 21.387C93.3848 21.569 93.3762 21.6947 93.3675 21.764H93.4065L97.6965 14.718H100.05V24H98.2945V19.541C98.2945 19.307 98.2988 19.0513 98.3075 18.774C98.3162 18.488 98.3248 18.215 98.3335 17.955C98.3508 17.695 98.3638 17.4697 98.3725 17.279C98.3898 17.0797 98.4028 16.9497 98.4115 16.889H98.3595L94.0565 24H91.6905V14.718ZM109.517 24H107.554V20.412C107.008 20.6027 106.505 20.7457 106.046 20.841C105.595 20.9363 105.14 20.984 104.681 20.984C103.814 20.984 103.134 20.776 102.64 20.36C102.154 19.9353 101.912 19.333 101.912 18.553V14.718H103.875V17.994C103.875 18.4447 103.979 18.7827 104.187 19.008C104.395 19.2333 104.746 19.346 105.24 19.346C105.604 19.346 105.968 19.307 106.332 19.229C106.696 19.151 107.103 19.034 107.554 18.878V14.718H109.517V24ZM119.456 24H117.493V19.996H113.814V24H111.851V14.718H113.814V18.358H117.493V14.718H119.456V24ZM127.472 24L126.796 21.79H123.416L122.74 24H120.621L123.897 14.679H126.302L129.591 24H127.472ZM125.652 17.981C125.609 17.8337 125.552 17.6473 125.483 17.422C125.414 17.1967 125.344 16.967 125.275 16.733C125.206 16.499 125.149 16.2953 125.106 16.122C125.063 16.2953 125.002 16.512 124.924 16.772C124.855 17.0233 124.785 17.266 124.716 17.5C124.655 17.7253 124.608 17.8857 124.573 17.981L123.91 20.139H126.328L125.652 17.981ZM133.887 20.438L131.716 24H129.532L132.171 19.918C131.919 19.814 131.668 19.6623 131.417 19.463C131.165 19.255 130.957 18.982 130.793 18.644C130.628 18.2973 130.546 17.8727 130.546 17.37C130.546 16.512 130.853 15.8577 131.469 15.407C132.084 14.9477 132.946 14.718 134.056 14.718H137.072V24H135.109V20.438H133.887ZM134.134 16.33C133.631 16.33 133.237 16.421 132.951 16.603C132.673 16.785 132.535 17.0883 132.535 17.513C132.535 17.9203 132.669 18.2453 132.938 18.488C133.215 18.722 133.631 18.839 134.186 18.839H135.109V16.33H134.134ZM72.736 41H70.5L67.133 36.294V41H65.17V31.718H67.133V36.216L70.461 31.718H72.554L69.174 36.177L72.736 41ZM78.4804 38.283C78.2204 38.8723 77.943 39.3837 77.6484 39.817C77.3624 40.2417 76.994 40.5667 76.5434 40.792C76.0927 41.0173 75.5034 41.13 74.7754 41.13C74.55 41.13 74.303 41.1127 74.0344 41.078C73.7657 41.0433 73.5187 40.9957 73.2934 40.935V39.245C73.5014 39.3317 73.731 39.3923 73.9824 39.427C74.2337 39.4617 74.4677 39.479 74.6844 39.479C75.1177 39.479 75.4297 39.375 75.6204 39.167C75.811 38.9503 75.9627 38.6903 76.0754 38.387L72.8644 31.718H74.9444L76.6734 35.735C76.734 35.865 76.8164 36.0513 76.9204 36.294C77.0244 36.528 77.1024 36.7273 77.1544 36.892H77.2194C77.2714 36.736 77.345 36.5323 77.4404 36.281C77.5444 36.0297 77.6354 35.8087 77.7134 35.618L79.3254 31.718H81.3534L78.4804 38.283ZM90.0255 41H87.7765L85.6185 37.49L83.4605 41H81.3545L84.4355 36.216L81.5495 31.718H83.7205L85.7225 35.059L87.6855 31.718H89.8045L86.8925 36.32L90.0255 41ZM98.8004 41H96.8374V36.996H93.1584V41H91.1954V31.718H93.1584V35.358H96.8374V31.718H98.8004V41ZM104.256 37.438L102.085 41H99.9008L102.54 36.918C102.288 36.814 102.037 36.6623 101.786 36.463C101.534 36.255 101.326 35.982 101.162 35.644C100.997 35.2973 100.915 34.8727 100.915 34.37C100.915 33.512 101.222 32.8577 101.838 32.407C102.453 31.9477 103.315 31.718 104.425 31.718H107.441V41H105.478V37.438H104.256ZM104.503 33.33C104 33.33 103.606 33.421 103.32 33.603C103.042 33.785 102.904 34.0883 102.904 34.513C102.904 34.9203 103.038 35.2453 103.307 35.488C103.584 35.722 104 35.839 104.555 35.839H105.478V33.33H104.503Z" fill="url(#paint0_linear)"/>
<path d="M53.0473 38.3309H51.8295C51.3594 29.454 45.0396 22.1491 36.7685 20.42L37.0106 18.0432C37.09 17.2675 36.8434 16.4904 36.3352 15.9116C35.827 15.3322 35.0999 15 34.3405 15H31.6601C30.9001 15 30.1736 15.3328 29.6648 15.9116C29.1566 16.4911 28.9106 17.2681 28.99 18.0432L29.2322 20.42C20.961 22.1491 14.6413 29.4534 14.1712 38.3302H12.9533C11.8763 38.3302 11 39.2299 11 40.3358V42.9944C11 44.1003 11.8763 45 12.9533 45H53.0467C54.1237 45 55 44.1003 55 42.9944V40.3358C55 39.2306 54.1244 38.3309 53.0473 38.3309ZM31.5297 17.6361C31.5645 17.597 31.6078 17.5771 31.6601 17.5771H34.3405C34.3922 17.5771 34.4361 17.597 34.471 17.6361C34.5058 17.6759 34.5207 17.7229 34.5149 17.7753L34.2805 20.0772C33.8575 20.0481 33.4307 20.0315 33.0006 20.0315C32.5699 20.0315 32.1438 20.0481 31.7208 20.0772L31.4858 17.7753C31.4806 17.7229 31.4954 17.6759 31.5297 17.6361ZM52.4907 42.4236H13.5099V40.9073H18.7978C19.4913 40.9073 20.0531 40.3305 20.0531 39.6191C20.0531 38.9077 19.4913 38.3309 18.7978 38.3309H16.6856C17.2216 29.5687 24.3337 22.6086 33 22.6086C41.667 22.6086 48.779 29.5687 49.315 38.3309H24.6365C23.943 38.3309 23.3819 38.9077 23.3819 39.6191C23.3819 40.3305 23.943 40.9073 24.6365 40.9073H52.4907V42.4236Z" fill="url(#paint1_linear)"/>
</g>
<defs>
<linearGradient id="paint0_linear" x1="128.983" y1="12" x2="134.918" y2="43.7347" gradientUnits="userSpaceOnUse">
<stop stop-color="#54B991"/>
<stop offset="1" stop-color="#54B3B9"/>
</linearGradient>
<linearGradient id="paint1_linear" x1="31.57" y1="15" x2="44.6225" y2="38.5614" gradientUnits="userSpaceOnUse">
<stop stop-color="#54B991"/>
<stop offset="1" stop-color="#54B3B9"/>
</linearGradient>
<clipPath id="clip0">
<rect width="186" height="60" fill="white"/>
</clipPath>
</defs>
</svg>
