<svg width="12" height="11" viewBox="0 0 12 11" fill="none" xmlns="http://www.w3.org/2000/svg">
<path d="M6.25576 2.81956C4.73114 2.81956 3.50138 4.0163 3.50138 5.49998C3.50138 6.98365 4.73114 8.18039 6.25576 8.18039C7.78039 8.18039 9.01015 6.98365 9.01015 5.49998C9.01015 4.0163 7.78039 2.81956 6.25576 2.81956ZM6.25576 7.2426C5.27051 7.2426 4.46505 6.4611 4.46505 5.49998C4.46505 4.53886 5.26812 3.75736 6.25576 3.75736C7.24341 3.75736 8.04647 4.53886 8.04647 5.49998C8.04647 6.4611 7.24101 7.2426 6.25576 7.2426ZM9.76527 2.70992C9.76527 3.05751 9.47761 3.33512 9.12282 3.33512C8.76564 3.33512 8.48037 3.05518 8.48037 2.70992C8.48037 2.36466 8.76803 2.08473 9.12282 2.08473C9.47761 2.08473 9.76527 2.36466 9.76527 2.70992ZM11.5895 3.34445C11.5488 2.50697 11.3522 1.76513 10.7218 1.15393C10.0937 0.542729 9.33138 0.351438 8.47078 0.309447C7.58382 0.260458 4.92532 0.260458 4.03835 0.309447C3.18015 0.349105 2.41784 0.540397 1.78738 1.1516C1.15691 1.7628 0.962742 2.50463 0.919592 3.34212C0.869251 4.20526 0.869251 6.79236 0.919592 7.65551C0.960344 8.49299 1.15691 9.23483 1.78738 9.84603C2.41784 10.4572 3.17776 10.6485 4.03835 10.6905C4.92532 10.7395 7.58382 10.7395 8.47078 10.6905C9.33138 10.6509 10.0937 10.4596 10.7218 9.84603C11.3498 9.23483 11.5464 8.49299 11.5895 7.65551C11.6399 6.79236 11.6399 4.20759 11.5895 3.34445ZM10.4437 8.58164C10.2567 9.03887 9.89472 9.39113 9.42247 9.57542C8.71529 9.84836 7.03725 9.78538 6.25576 9.78538C5.47428 9.78538 3.79384 9.84603 3.08906 9.57542C2.61921 9.39346 2.25723 9.0412 2.06785 8.58164C1.78738 7.89346 1.8521 6.26048 1.8521 5.49998C1.8521 4.73948 1.78978 3.10417 2.06785 2.41832C2.25483 1.96109 2.61681 1.60883 3.08906 1.42454C3.79623 1.1516 5.47428 1.21458 6.25576 1.21458C7.03725 1.21458 8.71769 1.15393 9.42247 1.42454C9.89232 1.6065 10.2543 1.95875 10.4437 2.41832C10.7241 3.1065 10.6594 4.73948 10.6594 5.49998C10.6594 6.26048 10.7241 7.89579 10.4437 8.58164Z" fill="url(#paint0_linear)"/>
<defs>
<linearGradient id="paint0_linear" x1="5.90534" y1="0.272705" x2="11.1257" y2="6.87659" gradientUnits="userSpaceOnUse">
<stop stop-color="#54B991"/>
<stop offset="1" stop-color="#54B3B9"/>
</linearGradient>
</defs>
</svg>
