<svg width="44" height="30" viewBox="0 0 44 30" fill="none" xmlns="http://www.w3.org/2000/svg">
<path d="M42.0473 23.3309H40.8295C40.3594 14.454 34.0396 7.14911 25.7685 5.42001L26.0106 3.04316C26.09 2.26745 25.8434 1.49042 25.3352 0.911622C24.827 0.332162 24.0999 0 23.3405 0H20.6601C19.9001 0 19.1736 0.332825 18.6648 0.911622C18.1566 1.49108 17.9106 2.26812 17.99 3.04316L18.2322 5.42001C9.96102 7.14911 3.64127 14.4534 3.17118 23.3302H1.95333C0.876255 23.3302 0 24.2299 0 25.3358V27.9944C0 29.1003 0.876255 30 1.95333 30H42.0467C43.1237 30 44 29.1003 44 27.9944V25.3358C44 24.2306 43.1244 23.3309 42.0473 23.3309ZM20.5297 2.63608C20.5645 2.59696 20.6078 2.57707 20.6601 2.57707H23.3405C23.3922 2.57707 23.4361 2.59696 23.471 2.63608C23.5058 2.67586 23.5207 2.72293 23.5149 2.77531L23.2805 5.07724C22.8575 5.04807 22.4307 5.03149 22.0006 5.03149C21.5699 5.03149 21.1438 5.04807 20.7208 5.07724L20.4858 2.77531C20.4806 2.72293 20.4954 2.67586 20.5297 2.63608ZM41.4907 27.4236H2.50995V25.9073H7.79783C8.49134 25.9073 9.05313 25.3305 9.05313 24.6191C9.05313 23.9077 8.49134 23.3309 7.79783 23.3309H5.68565C6.2216 14.5687 13.3337 7.60857 22 7.60857C30.667 7.60857 37.779 14.5687 38.315 23.3309H13.6365C12.943 23.3309 12.3819 23.9077 12.3819 24.6191C12.3819 25.3305 12.943 25.9073 13.6365 25.9073H41.4907V27.4236Z" fill="url(#paint0_linear)"/>
<defs>
<linearGradient id="paint0_linear" x1="20.57" y1="9.01334e-07" x2="33.6225" y2="23.5614" gradientUnits="userSpaceOnUse">
<stop stop-color="#54B991"/>
<stop offset="1" stop-color="#54B3B9"/>
</linearGradient>
</defs>
</svg>
