<svg width="107" height="109" viewBox="0 0 107 109" fill="none" xmlns="http://www.w3.org/2000/svg">
<path d="M106.7 3.6C93.9 4.2 86.5 4.6 84.5 4.8C76.1 5.4 68.8 6.4 62.6 7.8C60.6 8.4 57.6 9.3 53.6 10.5C52.6 10.5 51 11 48.8 12C45.8 14.2 41.3 21.5 35.3 33.9C43.1 30.5 51 28.8 59 28.8C76.8 28.8 85.7 36.1 85.7 50.7C85.7 64.1 79.4 77.1 66.8 89.7C54.2 102.3 41.2 108.6 27.8 108.6C20.4 108.6 14 106.2 8.6 101.4C3.2 96.6 0.5 90.6 0.5 83.4C0.5 82.2 1.2 79.6 2.6 75.6C4.2 71.4 5.4 69.3 6.2 69.3C7.4 69.3 8 69.9 8 71.1C8 71.3 7.4 72.7 6.2 75.3C5.2 77.7 4.7 79.9 4.7 81.9C4.7 96.3 11.9 103.5 26.3 103.5C33.9 103.5 41.1 101.6 47.9 97.8C54.9 93.8 61.4 87.2 67.4 78C73.4 68.8 76.4 60.4 76.4 52.8C76.4 45.6 74.8 40.7 71.6 38.1C68.6 35.3 63.5 33.9 56.3 33.9C49.3 33.9 40.8 38.3 30.8 47.1C29.6 48.5 27.9 50.2 25.7 52.2C24.9 52.8 24.1 53.1 23.3 53.1C20.5 53.1 19.1 51.9 19.1 49.5C19.1 48.9 22.3 43.7 28.7 33.9C35.1 24.1 38.8 17.5 39.8 14.1C37 12.3 35.6 11.1 35.6 10.5C41.8 5.5 45.1 3 45.5 3C46.3 3 47.6 3.09999 49.4 3.29999C51.2 3.29999 52.5 3.29999 53.3 3.29999C57.9 3.29999 64.7 2.79999 73.7 1.79999C82.9 0.599997 89.8 -1.07288e-06 94.4 -1.07288e-06C99 -1.07288e-06 103.1 0.399997 106.7 1.19999V3.6Z" fill="#D5F3E8"/>
</svg>
