<svg width="276" height="257" viewBox="0 0 276 257" fill="none" xmlns="http://www.w3.org/2000/svg">
<path d="M138 256.148C123.744 256.148 109.956 250.333 99.3226 239.759H95.116C83.0804 239.759 71.3954 235.794 61.4632 228.128H37.8594C36.2235 228.128 34.9382 226.674 34.9382 224.824V195.085C24.5385 185.701 17.177 172.616 14.022 158.077C5.37511 151.336 0 139.97 0 128.074C0 116.179 5.37511 104.812 14.022 98.0712C17.177 83.5324 24.5385 70.4474 34.9382 61.0632V31.3246C34.9382 29.4742 36.2235 28.0204 37.8594 28.0204H61.4632C71.3954 20.3544 83.0804 16.3892 95.116 16.3892H99.3226C110.073 5.81549 123.744 0 138 0C152.256 0 166.044 5.81549 176.677 16.3892H180.884C192.92 16.3892 204.605 20.3544 214.537 28.0204H238.141C239.776 28.0204 241.062 29.4742 241.062 31.3246V61.0632C251.461 70.4474 258.823 83.5324 261.978 98.0712C270.625 104.812 276 116.179 276 128.074C276 139.97 270.625 151.336 261.978 158.077C258.823 172.616 251.461 185.701 241.062 195.085V224.824C241.062 226.674 239.776 228.128 238.141 228.128H214.537C204.605 235.794 192.92 239.759 180.884 239.759H176.677C166.044 250.333 152.256 256.148 138 256.148Z" fill="white"/>
<path d="M138 256.148C123.744 256.148 109.956 250.333 99.3226 239.759H95.116C83.0804 239.759 71.3954 235.794 61.4632 228.128H37.8594C36.2235 228.128 34.9382 226.674 34.9382 224.824V195.085C24.5385 185.701 17.177 172.616 14.022 158.077C5.37511 151.336 0 139.97 0 128.074C0 116.179 5.37511 104.812 14.022 98.0712C17.177 83.5324 24.5385 70.4474 34.9382 61.0632V31.3246C34.9382 29.4742 36.2235 28.0204 37.8594 28.0204H61.4632C71.3954 20.3544 83.0804 16.3892 95.116 16.3892H99.3226C110.073 5.8155 123.744 0 138 0C152.256 0 166.044 5.8155 176.677 16.3892H180.884C192.92 16.3892 204.605 20.3544 214.537 28.0204H238.141C239.776 28.0204 241.062 29.4742 241.062 31.3246V61.0632C251.461 70.4474 258.823 83.5324 261.978 98.0712C270.625 104.812 276 116.179 276 128.074C276 139.97 270.625 151.336 261.978 158.077C258.823 172.616 251.461 185.701 241.062 195.085V224.824C241.062 226.674 239.776 228.128 238.141 228.128H214.537C204.605 235.794 192.92 239.759 180.884 239.759H176.677C166.044 250.333 152.256 256.148 138 256.148ZM40.7807 221.519H62.398C62.9822 221.519 63.5665 221.784 64.0339 222.18C73.1482 229.45 83.8984 233.283 95.116 233.283H100.491C101.192 233.283 101.893 233.547 102.478 234.076C112.293 244.121 124.913 249.54 138.117 249.54C151.321 249.54 163.941 243.988 173.756 234.076C174.34 233.547 175.041 233.283 175.743 233.283H181.118C192.335 233.283 203.086 229.45 212.2 222.18C212.667 221.784 213.251 221.519 213.836 221.519H235.453V193.499C235.453 192.442 235.92 191.516 236.622 190.856C246.904 182 254.032 169.444 256.837 155.301C256.953 154.376 257.421 153.715 258.122 153.187C265.717 147.768 270.508 138.119 270.508 127.942C270.508 117.765 265.834 108.116 258.122 102.697C257.421 102.169 256.953 101.508 256.837 100.582C254.032 86.4401 246.904 73.8839 236.622 65.0284C235.92 64.3675 235.453 63.4423 235.453 62.3849V34.3646H213.836C213.251 34.3646 212.667 34.1002 212.2 33.7037C203.086 26.4343 192.335 22.6013 181.118 22.6013H175.743C175.041 22.6013 174.34 22.337 173.756 21.8083C163.941 11.7633 151.321 6.34421 138.117 6.34421C124.913 6.34421 112.293 11.8954 102.478 21.8083C101.893 22.337 101.192 22.6013 100.491 22.6013H95.116C83.8984 22.6013 73.1482 26.4343 64.0339 33.7037C63.5665 34.1002 62.9822 34.3646 62.398 34.3646H40.7807V62.3849C40.7807 63.4423 40.3133 64.3675 39.6122 65.0284C29.3294 73.8839 22.2015 86.4401 19.3971 100.582C19.2803 101.508 18.8129 102.169 18.1118 102.697C10.5165 108.116 5.72566 117.765 5.72566 127.942C5.72566 138.119 10.3997 147.768 18.1118 153.187C18.8129 153.715 19.2803 154.376 19.3971 155.301C22.2015 169.444 29.3294 182 39.6122 190.856C40.3133 191.516 40.7807 192.442 40.7807 193.499V221.519Z" fill="#CABAA3"/>
</svg>
