<svg width="209" height="219" viewBox="0 0 209 219" fill="none" xmlns="http://www.w3.org/2000/svg">
<g clip-path="url(#clip0)">
<path d="M111.435 163.051C111.035 163.051 111.035 163.051 111.435 163.051C111.035 163.051 111.035 163.051 111.435 163.051C111.035 163.051 111.435 163.051 111.435 163.051ZM167.352 146.666C167.352 146.666 166.953 146.666 167.352 146.666C166.953 146.666 166.953 146.666 166.553 146.666L166.953 147.066C166.953 147.066 167.352 147.066 167.352 146.666ZM52.3225 189.427C51.9231 189.027 51.9231 189.027 52.3225 189.427C51.9231 189.427 51.9231 189.427 51.9231 189.427C51.9231 189.427 51.9231 189.427 52.3225 189.427C51.9231 189.427 52.3225 189.427 52.3225 189.427ZM29.9556 205.812C29.9556 205.812 29.9556 205.412 29.9556 205.812C29.5562 205.812 29.5563 205.812 29.1569 205.812C29.1569 205.812 29.1569 205.812 29.1569 206.212C29.5563 205.812 29.5562 205.812 29.9556 205.812ZM173.343 87.9197L172.944 87.5201C172.944 87.5201 172.544 87.5201 172.544 87.9197V88.3193C173.343 88.3193 173.343 87.9197 173.343 87.9197ZM197.707 138.673C197.707 138.673 198.107 138.673 197.707 138.673C198.107 138.673 198.107 138.274 198.107 138.274C198.107 138.274 197.707 138.274 197.707 138.673ZM49.926 187.429H49.5266L49.1273 187.828H49.5266C49.926 187.828 49.926 187.429 49.926 187.429ZM46.3314 193.423C46.7308 193.423 47.1302 193.423 47.1302 193.423L47.5296 193.024L47.1302 192.624C46.7308 192.624 46.7308 193.024 46.3314 193.423ZM75.8877 186.63C77.4853 186.23 77.4852 186.23 77.4852 185.031C76.6864 185.431 76.2871 185.83 75.8877 186.63ZM56.3166 188.628C55.9172 188.628 55.5178 188.628 55.1184 188.628C54.719 189.027 55.1184 189.427 54.719 189.827C55.1184 189.827 55.5177 189.827 55.9172 189.827C56.716 189.827 57.1154 189.827 56.3166 188.628ZM179.734 75.9307C178.935 75.9307 178.535 75.531 178.535 75.531C178.136 75.9306 178.136 76.3303 178.136 76.7299C178.536 76.7299 178.935 77.1296 178.935 77.1296C179.334 77.1296 179.334 76.7299 179.734 75.9307ZM147.781 156.657C149.379 156.257 149.778 155.458 149.778 154.259C148.58 154.659 148.181 155.058 147.781 156.657ZM265.207 45.1588C264.009 45.1588 263.61 45.5584 263.61 46.3577C263.61 46.7573 264.009 47.1569 264.408 46.7573C265.207 46.7573 265.606 45.958 265.207 45.1588C265.606 45.1588 265.606 45.1588 265.207 45.1588ZM117.826 169.445C116.627 169.445 116.228 170.245 115.829 170.644C115.429 171.044 115.429 171.044 115.03 171.443C116.627 171.443 117.426 170.644 117.826 169.445ZM131.405 29.9726C130.207 30.3723 129.408 30.7719 129.009 31.1715C128.61 31.1715 128.609 31.9708 128.609 31.9708C128.609 32.3704 129.009 32.3704 129.408 32.3704C129.808 32.3704 130.606 32.3704 130.606 31.9708C131.405 31.9708 131.405 31.1715 131.405 29.9726ZM37.145 199.818C34.3492 201.416 34.3491 201.416 33.5503 203.015C35.9467 201.816 35.9468 201.816 37.145 199.818ZM44.7338 194.622C41.5385 195.821 41.5385 195.821 40.3403 197.42C42.3373 197.819 43.5355 196.62 44.7338 194.622ZM154.571 150.662C152.174 151.462 151.376 152.261 151.775 154.259C152.973 153.46 154.571 152.661 154.571 150.662ZM162.559 144.668C165.355 143.869 165.355 143.469 164.556 141.87C163.358 142.27 162.958 143.069 162.559 144.668ZM208.891 85.9215C208.891 87.1204 209.29 87.5201 208.891 87.9197C208.891 88.3193 208.491 88.719 208.491 89.1186C208.491 89.5182 208.891 89.9179 208.891 89.9179C209.29 89.9179 209.689 89.9179 210.089 89.9179C210.488 89.5182 210.888 89.1186 211.287 88.719C211.686 87.9197 211.686 87.1204 211.287 86.7208C210.888 86.3212 210.089 86.3212 208.891 85.9215ZM208.092 129.482C210.089 129.482 210.888 129.082 211.686 127.883C212.485 126.684 214.083 125.485 214.083 123.487C211.287 124.686 209.689 126.684 208.092 129.482ZM163.358 146.666C160.562 146.666 159.364 147.865 158.166 149.464C157.367 150.662 155.769 151.062 155.769 153.06C159.364 151.861 161.361 149.863 163.358 146.666ZM80.6804 181.035C81.0798 181.834 80.2811 182.234 80.2811 182.633C79.8817 183.033 79.8817 183.432 80.2811 183.832C80.6805 183.832 81.0798 183.832 81.4793 183.432C83.0769 182.234 84.2751 180.635 85.4733 178.637C85.4733 178.237 85.4733 177.838 85.4733 177.438C82.2781 178.237 81.0799 178.637 79.0829 181.035C79.0829 181.035 79.0829 181.434 79.0829 181.834C79.4823 181.434 80.281 181.035 80.6804 181.035ZM103.047 172.642C107.441 171.044 109.438 167.447 112.234 165.049C112.234 165.049 112.234 164.65 112.234 164.25C112.234 164.25 112.234 164.25 111.834 164.25C111.435 164.25 111.035 164.25 110.636 164.25C107.041 165.849 104.645 168.246 102.648 171.443C102.648 171.843 103.047 172.243 103.047 172.642ZM242.041 101.108C240.444 101.507 239.645 101.507 238.846 101.907C237.648 102.307 236.05 103.106 234.852 103.905C233.654 105.104 231.657 104.704 230.458 105.504C229.66 105.903 229.26 106.703 228.461 107.102C228.062 107.502 228.062 108.301 228.062 109.1C230.059 109.5 230.858 107.901 232.056 107.102C236.849 107.901 239.645 105.504 242.041 101.108ZM86.2722 180.635C88.2692 181.035 89.4675 180.635 90.2663 179.436C92.2633 177.038 93.8611 174.641 95.8581 172.243C95.8581 171.843 95.8581 171.443 95.8581 170.644C93.4617 171.843 91.8639 172.642 90.2663 173.841C89.8669 174.241 89.068 174.641 88.6686 175.44C87.4703 177.038 87.071 178.637 86.2722 180.635ZM25.9615 90.3175C25.1627 91.9161 23.9645 93.5146 23.5651 95.1131C22.3668 100.708 21.5681 105.903 20.3698 111.498C18.7722 118.292 17.574 125.485 15.9763 132.279V132.679C13.9793 140.672 12.3816 148.664 11.5828 156.657C11.1834 161.053 10.3846 165.049 9.98521 169.445C9.5858 173.841 8.78698 178.237 7.98816 183.033C7.18935 189.427 6.39053 195.422 5.99112 201.816C5.99112 203.015 5.99112 204.214 5.99112 205.412C6.39053 208.609 8.38755 210.208 11.5828 209.409C13.9793 208.609 15.9763 207.81 17.9734 206.212C21.568 203.414 24.7633 200.617 28.358 198.219C31.9527 195.821 34.7486 192.224 38.7426 189.827C39.5415 189.427 40.3403 188.628 40.7397 187.828C42.3373 185.83 44.3343 184.232 45.9319 182.633C51.1243 177.838 56.3165 173.042 61.5088 168.646C68.6982 162.252 75.4883 155.058 81.8788 148.265C83.077 147.066 83.8758 145.867 85.074 144.668C89.0681 139.872 93.0622 135.476 97.0563 130.681C99.8521 127.484 103.047 124.286 106.243 121.089C107.041 120.29 107.84 119.091 108.639 117.892C112.633 112.297 115.429 106.303 117.426 99.9088C117.825 99.1095 117.826 98.3102 117.826 97.5109C117.826 92.7153 116.627 87.9197 113.033 84.323C112.633 83.9234 112.633 83.5237 112.234 83.1241C111.435 81.9252 111.036 81.1259 110.237 79.927C105.843 74.3321 100.251 69.9361 94.6597 65.5401C91.8638 63.542 88.6686 61.9434 85.4733 60.7445C83.4763 59.9453 81.4793 59.146 79.4822 58.7464C72.6923 56.3485 65.9024 55.1496 59.1125 54.75C55.5178 54.75 52.3225 55.1496 48.7279 55.5493C44.3344 55.9489 40.3403 57.1478 36.3462 58.7464C33.5503 60.3449 31.5533 62.3431 30.3551 65.1405C29.5562 67.1387 28.7574 68.7372 28.358 70.7354C26.7604 76.7299 25.5621 83.1241 23.9645 89.5182C23.9645 89.9179 23.9645 89.9179 23.9645 90.3175C25.1627 90.3175 25.5621 90.7171 25.9615 90.3175ZM96.6567 58.7464C96.2573 59.5456 95.858 60.3449 95.4585 61.1442C95.0591 61.9434 95.8579 62.7427 96.6567 62.3431C97.0561 62.3431 97.855 61.9434 98.2545 61.5438C99.0533 60.7445 100.252 59.5456 101.05 58.7464C100.651 59.5456 100.651 59.9453 100.251 60.7445C99.8521 61.1442 99.4526 61.9434 99.4526 62.3431C99.0532 63.1423 99.4527 63.542 100.251 63.9416C100.651 63.9416 101.45 63.9416 101.45 63.9416C102.248 63.1423 102.648 62.7427 103.447 61.9434C105.044 59.9453 106.642 57.9471 108.639 55.5493C109.438 54.3504 110.636 53.1515 112.633 52.3522C109.438 55.9489 106.642 59.5456 104.246 62.7427C103.447 63.542 103.047 64.3412 102.648 65.1405C102.648 65.5401 103.047 65.9398 103.447 66.3394C105.044 65.1405 106.243 63.9416 107.441 62.7427C106.642 63.9416 105.843 64.7409 105.444 65.9398C105.044 66.7391 105.044 67.1387 105.444 67.938C105.843 68.3376 106.642 68.7372 107.441 68.3376C107.84 68.3376 108.24 67.938 108.639 67.938C108.639 68.3376 108.639 69.1369 108.24 69.5365C108.24 71.135 109.038 71.9343 110.636 71.135C110.636 71.135 111.035 71.135 111.435 71.135C111.435 71.9343 110.636 72.7336 111.834 73.5328C112.633 73.1332 113.432 72.7336 114.231 72.7336C113.831 73.9325 113.831 74.7318 113.432 75.9307C113.831 77.1296 114.231 77.9288 115.03 79.1277C115.828 80.3266 116.228 80.3266 118.225 79.5274C118.225 80.3266 117.826 81.1259 117.826 81.5255C117.826 82.7244 118.225 83.5237 119.423 83.5237C120.621 82.7244 121.42 81.9252 122.618 81.1259C122.618 83.1241 121.42 84.323 119.823 85.9215C121.42 87.9197 121.021 90.7171 123.417 92.3157C122.618 95.1131 123.018 95.5128 124.216 96.7117C124.615 97.1113 125.015 96.7117 125.414 96.7117C122.219 102.307 122.219 102.706 122.618 105.104C123.417 104.704 124.216 104.305 125.015 103.905C125.015 105.104 124.216 105.903 123.417 106.703C121.819 108.301 120.222 110.299 119.024 112.297C118.624 112.697 118.225 113.097 117.826 113.896C116.627 115.894 115.03 117.892 113.831 119.891C112.633 121.489 111.435 122.688 110.636 124.286C109.438 126.684 107.84 128.682 105.843 130.681C103.447 133.078 101.05 135.476 98.6538 138.274C92.2632 145.467 85.0739 152.261 78.6833 159.854C77.8845 160.653 77.4851 161.453 76.6863 161.852C71.8934 165.449 67.8995 169.845 63.9054 174.241C61.9084 176.639 59.9112 179.036 57.9142 181.434C57.5148 182.234 57.1154 183.033 57.5148 183.832C58.3136 185.031 59.1124 185.83 59.5118 186.63C61.5088 186.63 61.1095 184.631 62.3077 184.232C67.1006 184.631 68.2987 184.232 72.6922 181.434C76.2869 179.436 79.8817 177.038 83.077 174.641C90.6657 169.845 98.2545 164.25 105.843 159.055C111.435 155.058 116.228 151.062 121.82 147.066C130.607 140.672 139.394 134.277 147.781 127.084C150.976 124.286 153.772 121.889 156.568 118.692C160.961 113.097 164.556 106.703 168.151 100.708C168.95 99.5091 169.349 98.3102 169.349 97.1113C169.349 96.312 169.749 95.5128 170.148 95.1131C172.145 92.3157 172.944 89.1186 174.142 85.5219C175.34 81.5255 174.941 77.5292 173.343 73.9325C172.145 71.135 170.947 67.938 168.55 65.9398C168.151 65.5401 168.151 65.1405 167.752 64.7409C166.953 62.7427 165.355 60.7445 163.358 59.146C161.76 57.5474 159.763 56.3485 158.166 54.75C154.571 50.7537 150.577 47.5566 146.183 44.7591C141.391 41.562 135.799 39.1642 130.606 36.7664C130.207 36.7664 129.808 36.3668 129.009 36.3668C123.817 35.1679 119.024 34.3686 113.831 34.7683C110.237 35.1679 106.243 35.1679 103.047 37.1661C100.252 38.7646 97.4557 40.3631 95.0592 42.3613C94.2604 42.7609 93.4616 43.5602 93.0622 44.3595C89.8669 47.9562 87.8698 51.9525 85.4733 55.5493C85.0739 55.9489 85.0739 56.7482 84.6745 57.9471C85.4733 57.5474 86.2721 57.5474 86.6715 57.5474C87.4703 56.7482 88.2693 55.9489 89.0681 55.1496C89.0681 55.9489 88.6686 56.7482 88.6686 57.1478C88.6686 57.5474 89.0681 57.9471 89.0681 58.3467C89.4675 58.3467 89.8669 58.3467 90.2663 57.9471C91.4645 56.7482 92.2633 55.5493 93.4615 54.3504C93.0621 55.1496 92.6627 56.3485 92.2633 57.1478C91.8639 57.9471 91.4645 58.7463 91.4645 59.146C94.6597 61.9434 95.4586 61.9434 98.2545 59.5456C95.858 59.146 96.2573 58.7464 96.6567 58.7464ZM173.343 64.3412C173.743 66.3394 171.746 67.5383 171.746 69.1369C172.544 71.135 173.343 72.7336 174.142 74.3321C174.541 74.3321 175.34 73.9325 175.74 73.9325C176.139 73.5329 176.539 73.1332 176.938 73.1332C177.337 73.5328 177.737 73.9325 178.136 74.3321C178.935 74.7318 179.734 74.7318 180.133 75.1314C181.731 75.9307 181.731 77.5292 180.133 78.7281C179.334 79.1277 178.535 79.5274 177.337 79.5274C176.938 79.5274 176.139 79.5274 175.74 79.5274C175.34 83.9234 175.34 83.9234 177.337 85.9215C177.737 85.5219 178.535 85.1223 179.334 84.7226C178.535 85.9215 177.337 87.1204 176.538 88.3193C175.74 89.5182 174.941 90.7171 175.74 92.3157C176.938 91.5164 177.737 91.1168 178.935 90.3175C177.337 92.7153 174.941 94.3139 173.343 96.7117C171.746 99.1095 169.349 100.708 168.55 103.905C170.547 103.505 171.346 102.307 172.145 101.108C172.944 100.308 174.142 99.1095 174.941 98.3102C176.139 97.5109 176.938 95.9124 178.136 95.5128C178.536 96.312 177.737 96.7117 177.337 97.1113C173.743 100.708 170.148 104.305 166.553 107.901C164.157 110.299 162.559 113.097 160.962 115.495C160.962 115.495 161.361 115.894 161.361 116.294C160.962 117.892 159.763 118.292 158.565 119.091C156.568 121.089 154.172 122.688 152.574 125.086C151.376 127.084 149.778 128.682 148.18 129.881C145.784 131.88 142.988 133.878 140.592 135.476C134.601 139.473 129.009 143.869 123.417 148.265C122.219 149.464 120.621 150.263 119.423 151.462C117.426 153.46 116.228 155.458 117.027 158.255C117.426 160.653 118.624 161.453 120.621 161.453C124.216 161.453 127.811 161.053 131.006 158.655C131.405 158.255 132.204 158.255 132.603 157.856C140.192 153.859 147.382 149.064 153.772 143.469C158.965 139.073 163.757 134.677 168.151 129.881C168.95 129.082 169.749 128.283 170.947 127.484C174.541 123.887 178.536 119.891 181.731 115.894C187.323 109.9 192.515 103.505 197.707 97.1113C200.902 93.115 204.098 89.1186 206.894 84.7226C210.488 78.7281 213.683 72.3339 216.879 65.9398C220.074 59.5456 219.675 53.1515 218.077 46.3577C218.077 45.958 217.677 45.5584 217.278 45.1588C216.08 44.3595 215.281 42.761 214.482 41.9617C211.287 38.365 207.692 34.7683 203.299 32.7701C202.5 32.3704 201.302 31.9708 200.104 31.5712C193.314 27.9744 186.124 25.177 178.935 22.3796C176.938 21.5803 174.941 21.1807 172.944 21.1807C168.151 20.781 163.358 20.781 158.166 20.781C151.376 20.781 145.784 23.9781 140.991 28.7737C138.595 31.1715 136.997 34.7682 135 37.5657C135 37.5657 135 37.9653 135 38.365C137.397 39.9635 137.396 39.9635 140.192 39.5639C140.592 41.9617 140.592 41.9617 142.189 42.761C143.787 43.5602 143.787 43.5602 146.183 42.761C146.183 43.5602 145.784 43.9599 145.784 44.7591C146.583 45.5584 147.382 46.3577 148.18 47.1569C148.979 47.9562 149.778 47.9562 150.976 47.5566C151.376 47.1569 151.775 47.1569 152.175 46.7573C151.775 47.9562 151.775 49.1551 151.775 49.9544C153.772 51.9526 155.769 53.9507 157.766 55.9489C158.166 56.3485 158.565 56.7482 159.364 57.1478C160.562 57.9471 161.361 57.9471 162.16 57.1478C163.358 56.3485 164.556 55.1496 166.154 53.9507C164.956 56.3485 162.16 56.7482 162.16 59.146C164.157 60.7445 165.355 63.1423 167.352 64.7409C168.151 63.9416 169.349 63.542 170.148 62.7427C169.749 63.542 169.349 64.3412 169.349 65.1405C169.349 65.9398 169.349 66.7391 169.349 67.1387C169.349 67.938 170.547 68.3376 171.346 67.938C171.746 65.5401 172.544 64.7409 173.343 64.3412ZM206.494 28.3741C206.494 28.7737 206.494 29.1734 206.494 29.9726C206.494 30.3723 206.894 30.7719 206.894 30.7719C208.092 30.7719 208.092 32.3704 209.29 32.3704C210.089 32.7701 210.888 33.1697 212.086 33.5693C212.885 33.1697 213.683 32.7701 214.482 31.9708C214.083 33.1697 213.683 33.969 213.284 34.3686C216.08 37.5657 218.476 40.3631 220.873 43.5602C221.672 43.1606 222.071 43.1606 222.87 42.761C222.47 43.5602 222.47 43.9599 222.071 44.7591C221.272 46.3577 221.672 47.5566 222.47 49.1551C223.669 48.3558 224.867 47.1569 225.666 46.3577C224.867 47.5566 224.468 48.3558 223.669 49.5547C223.269 50.354 222.87 51.5529 222.47 52.7518C222.071 54.3504 223.269 54.3504 224.467 54.75C222.87 57.9471 221.272 61.1442 220.473 64.3412C220.473 64.7409 220.074 65.1405 220.074 65.5401C218.077 69.5365 216.08 73.1332 213.684 77.1296C212.885 79.1277 211.686 80.7263 211.686 83.1241C212.086 83.5237 212.885 84.323 213.284 84.7226C214.482 86.3212 214.882 87.9197 213.684 89.5182C212.885 90.3175 211.686 91.5164 210.488 91.9161C209.29 92.3157 208.491 91.5164 207.293 91.1168C207.293 91.1168 206.893 91.1168 206.494 91.1168C205.296 91.9161 204.497 93.5146 203.698 94.7135C205.296 95.1131 205.695 93.5146 206.894 93.5146C205.296 95.5128 203.698 96.7117 202.101 98.7099C200.104 100.708 198.106 102.706 196.509 105.104C195.311 106.703 194.112 108.701 192.914 110.299C192.115 111.099 191.317 111.898 190.917 113.097C190.118 114.695 188.521 116.294 187.322 117.493C186.524 118.292 185.725 119.091 184.926 119.891C180.932 123.887 176.938 127.883 172.944 131.48C172.145 131.88 171.346 132.679 171.346 133.478C170.947 135.876 170.547 138.274 170.547 140.272C170.547 142.67 172.145 143.869 174.541 144.268C175.74 144.268 176.938 144.268 178.136 144.268C178.935 144.268 180.133 143.469 180.932 143.469C183.728 143.069 185.725 141.87 187.722 140.272C191.716 137.075 195.71 133.878 199.305 130.681C202.5 127.883 205.296 125.086 208.092 122.288C212.086 118.292 216.479 114.296 220.074 109.9C226.864 102.706 233.255 95.5128 239.645 87.9197C241.642 85.1223 244.038 82.7245 246.036 79.927C248.033 77.1296 249.63 73.9325 252.027 71.135C255.222 67.5383 257.219 63.1423 259.216 58.7464C260.814 55.1496 261.213 51.5529 262.012 47.5566C262.811 44.3595 260.414 41.562 260.814 38.7646C260.814 37.9653 260.414 37.1661 260.015 36.7664C258.817 33.1697 256.82 29.573 254.823 26.3759C253.225 23.9781 251.228 21.9799 248.432 20.3814C242.84 17.1843 237.248 14.7865 231.257 12.7883C230.459 12.3887 230.059 11.9891 229.26 11.9891C228.461 11.9891 227.663 12.3887 226.464 12.7883C227.663 11.1898 226.864 10.3905 225.666 9.59124C224.468 9.1916 223.269 8.79197 222.071 8.39233C217.278 6.79379 212.086 5.99452 206.894 5.59489C204.098 5.19525 201.701 5.59489 199.305 5.99453C194.911 7.19343 191.317 9.1916 188.92 12.7883C187.722 14.3869 186.923 15.9854 185.725 17.1843C184.926 18.3832 184.527 19.9817 184.527 21.5803C186.124 21.5803 187.322 21.5803 188.521 21.9799C188.92 22.3796 189.319 23.5785 190.518 23.1788C191.716 23.1788 192.515 24.7774 194.112 24.3777C194.512 24.3777 194.512 25.177 194.911 25.5766C195.71 26.3759 196.509 26.3759 197.308 25.5766C197.707 25.177 198.106 24.7774 198.506 24.7774V25.177C198.506 27.1752 198.905 27.5748 200.503 26.3759C200.503 26.3759 200.503 26.3759 200.902 25.9763C200.902 26.3759 200.902 26.3759 200.902 26.7756C200.902 28.3741 201.302 28.7737 202.899 27.9745C203.299 27.9745 203.698 27.5748 204.098 27.1752C204.098 27.5748 204.098 27.5748 203.698 27.9745C203.299 28.3741 203.299 29.1733 204.098 29.573C204.497 29.9726 205.296 29.9726 205.695 29.573C205.695 29.1733 206.095 28.7737 206.494 28.3741ZM228.861 113.097C228.462 112.297 228.461 111.898 227.263 112.297C224.068 113.496 222.87 116.294 221.672 119.491C223.269 119.891 224.467 119.091 225.266 118.292C226.065 117.493 226.864 116.294 227.663 115.095C227.663 115.894 227.263 116.693 228.062 117.093C228.462 117.493 229.26 117.093 229.66 117.093C230.858 116.294 232.456 115.894 233.254 114.695C234.453 113.097 235.251 111.498 236.45 109.9C236.849 109.5 236.45 109.1 236.45 108.701C235.651 108.701 235.651 108.701 235.251 109.1C232.456 109.1 230.459 110.699 228.861 113.097ZM163.758 139.073C160.562 141.071 158.166 143.869 155.769 147.066C155.769 147.066 155.769 147.865 155.769 148.265C158.166 147.865 159.364 146.266 160.562 144.668C161.76 142.67 163.358 141.471 163.758 139.073C164.157 139.073 164.157 138.673 164.157 138.673C163.757 138.673 163.758 139.073 163.758 139.073ZM63.9054 204.613C64.3048 203.015 64.7042 201.416 65.1036 199.818C63.506 199.018 62.3078 200.617 61.1095 200.617C62.3078 199.018 63.9053 198.219 65.5029 197.42C67.5 196.221 67.8993 194.223 68.6981 191.825C67.4999 191.825 67.1005 192.224 66.7011 192.224C68.2987 191.026 69.4971 189.427 71.0947 188.228C72.6924 187.029 73.8906 185.431 75.0888 183.432C71.8936 183.432 71.8936 186.63 69.8966 187.828C68.2989 186.63 67.4999 186.63 66.7011 187.828C65.5029 189.027 64.7043 190.226 63.9054 191.825C63.506 192.624 62.7071 193.024 62.3077 193.823C62.3077 193.423 61.9083 193.024 61.5088 192.224C60.3106 193.024 59.1124 193.823 57.9142 194.223C57.5148 194.223 56.716 193.823 56.716 193.823C56.3166 193.823 55.5178 194.223 55.1184 194.622C54.3196 195.821 53.5208 197.02 52.7219 198.219C52.7219 197.819 52.7219 197.02 52.7219 196.62C52.3225 196.221 51.923 196.221 51.5236 196.62C49.926 197.42 48.7278 198.619 47.5296 199.818C43.1361 203.414 38.7426 206.611 34.3491 210.208C32.7515 211.407 31.5532 212.606 29.5562 213.005L29.1569 212.606C29.5563 211.807 29.9556 211.007 30.3551 210.208C33.5503 209.409 35.9468 207.411 38.3432 205.412C38.7426 205.013 39.1421 204.613 39.1421 204.214C39.5415 202.215 41.1391 201.416 42.3373 200.617C45.5326 198.619 48.3285 196.62 51.1243 193.823C51.5237 193.423 52.3225 192.624 52.3225 191.425C51.9231 191.825 51.1243 191.825 50.7249 192.224C47.1302 195.422 42.7368 197.819 39.1421 201.016C36.7456 203.015 33.9498 205.013 31.1539 207.011C29.9557 208.21 27.9587 208.61 27.1598 210.208C25.9616 211.407 24.7634 211.807 23.1658 212.206C23.1658 211.407 22.7663 210.608 22.7663 209.808C20.7693 211.407 19.571 213.405 18.3728 215.803C17.574 215.004 17.1746 214.604 16.7752 214.204C17.574 214.204 17.9733 213.805 17.5739 212.606C17.1745 213.405 17.1746 213.805 16.7752 214.204C15.577 214.604 15.577 215.803 15.1776 216.602C14.7782 217.401 14.7781 217.801 14.3787 219C13.9793 218.201 13.5799 218.201 13.5799 217.801C13.5799 217.002 13.9793 215.803 14.3787 215.004C11.9823 214.604 11.1834 215.803 9.98521 217.002C8.78698 217.002 9.58587 215.803 9.18646 215.403L8.78703 215.004C5.59176 215.403 3.99413 213.005 2.79591 210.608C1.99709 208.609 1.59763 206.212 1.99704 203.814C2.79586 197.42 3.5947 191.026 4.39352 185.031C4.39352 183.832 4.79295 182.234 4.79295 181.035C3.59472 180.635 3.59475 181.434 3.19534 181.834C2.39652 183.033 1.59766 184.631 0.399433 186.23C2.4372e-05 185.83 0 185.83 0 185.83C0.798817 184.232 1.59766 182.234 2.39647 180.635C3.19529 179.036 3.99413 177.038 4.79295 175.44C5.99117 173.042 6.39053 170.245 5.99112 167.847C5.59172 165.849 5.99115 164.25 6.39056 162.252C6.39056 161.453 6.39058 160.653 6.78999 159.454C5.19236 159.854 5.19231 161.053 3.99408 161.453C4.39349 160.254 4.39354 159.454 4.79295 158.255C5.19236 156.657 5.99117 155.458 6.78999 153.859C7.58881 151.462 7.58873 149.064 7.58873 146.666C7.58873 146.266 6.78996 146.266 6.39056 146.666C6.39056 146.266 6.39058 145.867 6.78999 145.467C8.38762 142.67 9.18646 139.872 9.18646 136.675C9.18646 134.277 9.98523 132.279 10.3846 129.881C10.3846 129.482 10.3846 129.082 9.58577 128.682C9.18637 128.682 9.18644 128.682 8.78703 129.082C8.78703 127.484 9.98526 126.684 10.7841 125.086C11.1835 124.286 11.5829 123.487 11.1835 122.288C10.7841 121.489 11.1834 121.089 11.5828 120.69C12.781 119.091 12.7811 117.493 12.7811 114.695C8.78703 119.091 6.79001 123.487 3.19534 127.084C3.59475 126.684 3.59467 125.885 3.99408 125.485C6.39053 121.889 9.18644 118.292 10.7841 114.296C11.1835 113.496 11.9823 112.697 12.3817 111.898C13.9793 109.5 15.1775 106.703 15.5769 103.905C15.5769 103.106 15.1775 103.106 14.3787 103.505C15.1775 102.307 15.5769 101.108 16.3758 99.9088C15.5769 99.5091 15.1775 99.5091 14.3787 99.1095C17.9734 97.5109 17.574 93.9142 18.3728 90.7172C16.7752 91.5164 15.9764 91.9161 15.1776 92.3157C15.577 91.1168 16.3758 89.9179 16.7752 88.719C16.3758 88.719 15.9763 88.3193 15.5769 88.3193C15.9763 87.1204 16.7751 87.1204 17.5739 86.3212C19.571 84.7226 20.7693 82.7245 21.1687 79.927C21.1687 78.7281 21.568 77.9288 21.9675 77.1296C22.7663 75.9307 23.1657 75.1314 23.5651 73.9325C23.9645 73.1332 23.5651 72.3339 23.5651 71.5347C24.3639 70.3358 25.1627 68.7372 25.9615 67.5383C27.1598 64.7409 28.358 61.9434 30.3551 59.5456C30.7545 58.7463 31.5533 57.9471 32.3521 57.5474C34.7485 56.3485 37.145 54.3504 40.3403 53.5511C42.3373 53.1515 43.9349 52.3522 45.9319 51.9526C46.7308 51.5529 47.5296 51.1533 48.3284 51.1533C51.9231 51.1533 55.1183 49.5547 57.9142 47.9562C58.3136 47.5566 58.713 47.5566 59.5118 47.1569C58.713 48.7555 56.3166 48.3558 56.3166 50.7537C56.716 50.7537 57.5148 51.1533 57.9142 50.7537C59.9112 49.9544 61.5089 49.1551 63.1066 48.3558C64.7042 47.5566 66.3019 46.7573 67.8995 45.958C66.3019 47.5566 63.9053 48.3558 62.3077 50.7537C63.1065 51.1533 63.5059 51.5529 63.5059 51.5529C64.7041 51.5529 65.5029 51.1533 66.7011 50.7537C67.8993 50.354 69.4971 49.5547 71.0947 48.7555C70.2959 49.5547 69.497 50.354 68.6981 51.1533C69.0976 52.3522 69.8965 51.9526 70.2959 51.9526C71.4941 51.5529 72.6923 51.1533 74.29 50.354C73.8905 51.1533 73.4911 51.5529 73.4911 51.9526C75.4881 53.1515 75.8876 53.1515 77.0859 51.9526C80.6805 48.3558 84.2753 44.7591 87.8699 41.1624C89.4676 39.5639 91.4646 37.9653 93.8611 37.1661C94.2605 37.1661 94.2603 37.1661 94.6597 36.7664C97.0561 33.969 100.251 33.969 103.447 32.7701C105.843 31.9708 108.24 31.9708 110.636 31.5712C112.633 31.1715 114.63 30.7719 116.228 30.3723C117.027 30.7719 117.426 31.1715 118.225 31.5712C118.624 31.9708 119.423 31.5712 119.823 31.9708C123.817 33.5693 127.411 32.3704 130.606 29.9726C132.603 28.7737 134.201 27.1752 136.198 25.5766C138.595 23.5785 140.991 21.9799 144.186 20.781C146.183 19.9818 148.58 18.7828 150.577 17.9836C150.976 17.5839 151.775 17.5839 152.175 17.5839C154.172 17.1843 156.169 17.1843 157.766 15.9854C159.763 16.385 161.361 16.7847 163.358 15.5858C163.757 15.5858 164.157 15.5858 164.556 15.5858C166.154 15.9854 167.751 15.5858 168.55 13.9872C168.95 13.188 169.349 12.3887 170.148 11.5894C170.547 10.7901 171.346 10.3905 171.746 9.59124C171.346 10.7901 170.547 11.989 170.148 13.188C169.749 14.3869 169.748 15.5858 170.547 15.9854C171.745 16.7847 173.343 16.385 173.743 15.5858C174.542 14.3869 175.34 13.188 175.74 11.9891C178.136 7.9927 180.133 3.99634 182.529 0.399629C182.529 -6.1039e-06 182.929 0 182.929 0C182.929 0.79927 182.53 1.59853 182.13 2.3978C180.133 5.99452 178.535 9.59124 176.538 13.188C175.74 14.3869 175.34 15.5858 174.541 16.7847C176.938 18.7828 178.136 18.7828 179.334 16.7847C180.133 15.5858 180.533 14.3869 181.331 13.188C181.731 12.3887 182.53 11.989 182.929 11.1898C182.53 12.3887 182.53 13.5876 182.13 15.1861C182.53 14.7865 183.328 14.7865 183.328 14.7865C184.127 13.9872 185.326 13.188 185.725 11.9891C189.32 7.19343 194.112 4.79561 200.104 4.39598C203.299 3.99634 206.494 4.39598 209.689 5.19525C212.885 5.59489 216.08 6.39416 218.876 7.19343C220.473 7.59306 222.071 7.9927 223.669 7.19343C224.468 7.9927 224.867 9.59124 226.065 9.59124C226.464 9.59124 227.263 9.1916 227.663 9.1916C227.663 9.99087 227.663 10.7901 228.062 11.1898C228.462 11.5894 229.26 11.989 230.059 12.3887C232.056 12.7883 233.654 13.9872 235.651 14.3869C237.249 15.1861 239.246 15.9854 241.243 16.385C242.441 16.385 243.24 17.1843 244.038 17.9836C246.435 19.1825 248.831 20.781 251.228 21.9799C252.825 24.3777 254.822 26.7755 256.42 29.1734C258.018 31.5712 259.216 34.3686 260.814 37.1661C261.612 36.3668 262.411 35.5675 263.21 34.3686C263.609 35.5675 262.811 35.9672 262.811 36.7664C262.411 37.5657 262.012 38.7646 262.012 39.5639C262.012 40.3631 262.012 41.1624 262.012 41.9617C263.609 42.3613 264.009 40.7628 264.808 40.3631C264.408 41.562 264.009 42.7609 263.61 43.5602C264.009 44.3595 264.808 44.3595 265.207 43.9599C266.006 43.5602 266.405 43.1606 267.204 42.761C267.603 42.761 268.003 42.7609 268.802 43.1606C267.604 44.3595 266.805 44.7591 266.405 45.5584C265.606 46.3577 264.808 47.1569 265.207 48.7555C265.606 48.7555 266.405 48.7555 266.805 48.7555C268.003 48.3558 268.802 47.9562 269.601 47.5566C269.601 47.9562 270 48.3558 270 48.3558C268.802 49.5547 267.603 51.1533 266.405 52.3522C266.006 53.1515 265.207 53.5511 264.408 53.9507C264.808 53.1515 265.606 52.3522 265.207 51.1533C264.009 51.1533 262.811 51.1533 262.012 51.9526C261.213 52.7518 261.213 54.3504 260.814 55.1496C260.814 55.5493 260.814 55.9489 261.613 56.3485C262.411 55.5493 263.609 54.3504 264.408 53.1515C264.808 54.3504 264.808 55.1496 266.805 55.1496C262.411 57.1478 259.615 59.9453 258.018 63.9416C259.615 64.7409 260.414 63.1423 262.012 63.1423C262.411 63.9416 262.012 64.3412 261.613 64.3412C260.414 65.5401 259.216 66.739 258.018 67.5383C258.018 67.1387 258.018 66.739 257.219 66.3394C256.42 66.739 255.222 67.5383 254.823 69.5365C256.021 68.7372 256.82 68.3376 257.618 67.5383C258.018 67.938 258.817 68.3376 259.216 68.3376C260.015 68.3376 260.814 67.938 262.012 67.5383C258.417 69.9361 254.423 70.7354 252.825 74.3321C253.624 75.1314 254.423 74.7318 254.823 74.7318C256.42 73.9325 258.018 73.5328 259.615 73.1332C257.219 74.3321 254.822 75.531 252.426 76.3303C249.231 77.5292 248.033 80.3266 246.036 83.1241C246.834 83.1241 247.234 83.1241 247.633 83.1241C249.231 82.7244 250.829 81.9252 251.627 80.3266C254.823 81.1259 256.82 79.1277 259.615 77.9288C260.015 79.1277 258.816 79.5274 258.417 79.927C258.018 80.7263 257.219 81.1259 256.82 81.9252C256.42 81.5256 256.021 81.1259 255.621 80.7263C253.225 81.5256 251.228 82.7244 250.03 85.1223C249.231 84.323 248.432 84.323 247.633 84.323C247.234 84.323 246.834 84.7226 246.435 84.7226C244.038 86.7208 241.243 87.9197 239.645 91.1168C240.843 92.7153 240.843 93.115 242.041 92.3157C242.84 91.9161 243.639 91.5164 244.438 91.1168C245.237 90.7172 245.636 89.9179 246.834 89.1186C246.834 89.9179 246.834 90.7172 246.834 90.7172C245.237 91.9161 244.038 93.115 242.041 93.115C240.843 93.115 239.645 94.3139 238.447 95.1131C237.648 95.9124 236.849 96.7117 235.251 96.7117C234.852 96.7117 234.053 97.1113 233.654 97.5109C232.056 99.5091 230.459 101.507 229.26 103.905C230.858 104.305 232.056 103.905 232.855 102.706C233.654 101.907 234.053 100.708 234.453 99.9088C234.453 100.308 234.852 101.108 234.852 101.507C237.249 101.907 238.447 99.9088 240.044 99.9088C242.041 99.5091 243.24 97.9106 244.438 96.7117C244.837 97.1113 245.237 97.511 245.636 97.9106C245.636 97.9106 245.636 98.3102 245.237 98.3102C242.84 99.1095 241.243 101.108 240.044 103.106C238.047 105.903 236.05 109.1 234.053 111.898C233.254 113.097 233.255 113.097 233.654 115.095C231.257 115.894 230.458 118.292 228.461 119.891C228.461 119.491 228.461 118.692 228.461 117.892C228.062 117.892 227.263 117.892 226.864 117.892C224.468 119.091 221.672 120.29 219.275 121.089C216.879 122.288 215.681 123.887 214.882 126.684C216.479 127.084 216.879 126.684 218.476 126.684C214.882 128.283 211.686 130.681 209.689 134.277C209.689 134.677 208.89 135.077 208.491 135.077C208.89 133.878 209.29 133.078 209.689 131.88C209.689 131.48 209.689 131.08 209.29 131.08C208.89 131.08 208.491 131.08 208.491 131.48C208.092 132.279 207.692 132.679 206.894 133.478C206.095 133.078 205.695 132.679 205.296 131.88C204.098 131.88 202.899 132.279 202.101 133.478C200.902 135.077 199.305 136.276 198.905 138.274C202.5 137.874 205.695 136.675 208.891 134.677C208.891 136.675 207.293 137.474 206.494 139.872C206.494 138.673 206.494 138.274 206.494 137.075C202.5 137.874 198.106 138.673 195.311 141.87C194.112 141.87 193.713 141.071 192.515 141.471C190.917 142.27 189.719 143.069 188.521 144.668C187.322 145.867 186.524 147.465 184.926 147.865C185.326 147.465 185.725 147.066 185.725 146.266C186.124 145.867 186.524 145.068 186.923 144.668C186.524 144.668 186.124 144.268 185.725 144.268C181.731 145.068 178.536 147.066 176.139 150.662C175.74 151.462 174.941 152.261 174.142 153.06C171.346 152.661 171.346 152.661 166.953 154.259C168.151 153.46 168.55 153.06 168.95 152.661C170.547 151.462 172.145 150.662 174.142 149.464C174.142 149.464 174.541 148.664 174.142 148.664L173.743 148.265C170.947 147.865 168.151 147.865 166.154 150.662C165.355 151.861 164.556 152.661 163.758 153.859C163.358 154.259 163.758 155.058 163.758 155.458C162.959 156.257 161.76 157.456 160.562 158.255C160.163 156.257 160.962 154.659 162.16 153.06C162.959 151.861 164.157 150.263 165.355 148.664C164.556 148.664 163.757 148.664 163.358 148.664C158.964 150.263 158.166 151.062 155.769 155.058C154.971 156.257 154.172 157.856 153.373 159.454C153.373 159.854 153.373 160.653 153.373 161.053C152.574 161.852 151.775 162.252 150.976 163.451C150.178 164.25 149.778 165.449 148.979 166.248C147.781 167.847 147.382 169.445 145.784 170.644C145.784 168.646 147.781 167.447 147.781 165.449C147.382 164.65 146.583 165.049 146.183 165.449C145.784 165.449 145.385 165.849 144.586 165.849C144.985 165.449 144.985 165.449 144.985 165.449C145.385 165.449 145.784 165.049 145.784 165.049C149.379 163.85 150.976 161.053 152.973 157.856C153.772 156.657 153.373 155.458 153.772 153.859C150.976 154.259 150.177 154.659 148.58 155.858C147.382 156.657 146.183 157.456 144.985 158.655C144.586 158.255 143.787 158.255 143.388 157.856C142.988 157.456 142.189 157.057 141.79 157.057C142.189 156.657 142.988 156.257 143.388 155.858C143.388 155.858 143.388 155.858 143.388 155.458C143.388 155.458 143.388 155.458 143.388 155.058V155.458C142.988 155.858 142.189 156.257 141.79 156.657C140.192 158.255 138.195 159.854 136.198 161.852C136.198 160.653 136.997 160.254 137.396 159.454C137.796 158.655 138.595 158.255 138.994 157.456C139.394 157.057 139.793 156.257 140.192 155.858C140.592 155.058 141.391 154.659 140.991 153.859C138.195 154.659 136.997 155.458 135 157.456C132.204 160.653 129.009 163.85 125.814 167.047C125.814 167.047 125.414 167.447 125.015 167.447C125.015 167.047 125.015 166.248 125.414 165.849C126.213 164.65 127.411 163.451 128.21 162.651C128.609 161.852 129.009 161.453 130.207 160.254C129.009 160.653 128.609 160.653 128.21 160.653C125.015 162.651 122.618 165.449 120.222 168.246C119.822 168.646 119.423 169.445 118.225 169.046C119.423 167.447 120.222 165.849 121.42 163.85C119.423 163.85 118.225 164.25 117.426 165.449C117.027 165.849 117.027 166.248 117.027 166.248C116.228 169.046 113.831 171.044 112.234 173.841C110.636 176.239 109.038 178.637 107.441 181.434C107.041 181.834 106.642 182.234 105.843 183.033C105.843 181.434 106.642 180.635 107.441 179.836C108.24 178.637 108.639 177.838 109.438 176.639C109.837 175.839 110.237 174.641 111.036 173.442C110.636 173.442 110.237 173.042 109.438 173.042C109.038 170.644 111.834 169.445 112.234 167.047C111.834 167.047 111.036 167.047 111.036 167.047C108.639 167.847 106.642 169.445 105.044 171.044C102.249 174.241 99.4526 177.438 96.6567 181.035C96.6567 179.436 97.0563 178.637 97.8551 177.438C98.654 176.239 99.4527 175.04 100.251 173.841C99.8521 173.042 99.0532 173.042 98.6538 173.442C97.4555 174.241 96.2575 175.44 95.0592 176.239C94.2604 177.038 93.4615 177.838 92.6626 179.036C92.2632 177.438 92.6628 176.639 93.8611 175.44C96.2575 173.042 98.6538 170.644 99.4526 167.447C99.4526 166.648 100.252 166.248 101.05 165.849C102.249 165.049 103.047 164.25 104.246 163.451C104.645 163.051 105.044 162.651 105.044 161.852C104.645 161.852 104.246 161.453 104.246 161.453C101.849 163.051 99.0532 164.25 97.4556 167.047C97.0562 167.447 96.6568 167.847 96.2574 168.246C94.2604 169.845 93.0621 172.243 91.4645 174.241C91.0651 175.04 90.6657 176.239 90.2663 177.438C88.2692 177.838 86.6716 179.836 85.4733 181.834C84.2751 183.832 83.0768 185.83 80.6804 187.029C81.4792 185.83 81.8787 185.031 82.2781 183.832C82.6775 183.033 83.0769 182.234 83.4763 181.035C82.6775 181.035 82.2781 181.035 82.2781 181.035C79.8817 181.834 77.8845 183.432 76.6863 185.431C75.8875 186.23 75.0887 187.029 74.6893 187.828C73.8904 189.027 73.0917 189.827 72.2929 191.026C71.4941 193.024 70.6954 194.622 69.8966 196.62C69.8966 197.02 69.497 197.02 68.6981 197.819C69.497 195.821 69.8965 194.622 70.2959 193.823C71.0947 191.825 70.6953 189.827 72.2929 188.228C72.2929 188.228 72.293 187.429 71.8936 187.429C71.8936 187.429 71.4941 187.029 71.0947 187.029C69.4971 187.828 67.8994 188.628 66.3018 189.427C65.503 190.226 65.1037 191.425 65.9025 192.624C63.506 194.622 62.7071 197.42 61.5088 199.818C65.5029 202.215 64.7043 203.414 63.9054 204.613Z" fill="#D0D0D0"/>
</g>
<defs>
<clipPath id="clip0">
<rect width="209" height="219" fill="white"/>
</clipPath>
</defs>
</svg>
