<svg width="277" height="257" viewBox="0 0 277 257" fill="none" xmlns="http://www.w3.org/2000/svg">
<path d="M138.5 256.148C124.193 256.148 110.354 250.333 99.6825 239.759H95.4606C83.3814 239.759 71.6541 235.794 61.6859 228.128H37.9966C36.3548 228.128 35.0648 226.674 35.0648 224.824V195.085C24.6274 185.701 17.2392 172.616 14.0728 158.077C5.39458 151.336 0 139.97 0 128.074C0 116.179 5.39458 104.812 14.0728 98.0712C17.2392 83.5324 24.6274 70.4474 35.0648 61.0632V31.3246C35.0648 29.4742 36.3548 28.0204 37.9966 28.0204H61.6859C71.6541 20.3544 83.3814 16.3892 95.4606 16.3892H99.6825C110.472 5.8155 124.193 0 138.5 0C152.807 0 166.646 5.8155 177.318 16.3892H181.539C193.619 16.3892 205.346 20.3544 215.314 28.0204H239.003C240.645 28.0204 241.935 29.4742 241.935 31.3246V61.0632C252.373 70.4474 259.761 83.5324 262.927 98.0712C271.605 104.812 277 116.179 277 128.074C277 139.97 271.605 151.336 262.927 158.077C259.761 172.616 252.373 185.701 241.935 195.085V224.824C241.935 226.674 240.645 228.128 239.003 228.128H215.314C205.346 235.794 193.619 239.759 181.539 239.759H177.318C166.646 250.333 152.807 256.148 138.5 256.148ZM40.9284 221.519H62.624C63.2104 221.519 63.7968 221.784 64.2659 222.18C73.4132 229.45 84.2024 233.283 95.4606 233.283H100.855C101.559 233.283 102.262 233.547 102.849 234.076C112.7 244.121 125.365 249.54 138.617 249.54C151.869 249.54 164.535 243.988 174.386 234.076C174.972 233.547 175.676 233.283 176.379 233.283H181.774C193.032 233.283 203.821 229.45 212.969 222.18C213.438 221.784 214.024 221.519 214.61 221.519H236.306V193.499C236.306 192.442 236.775 191.516 237.479 190.856C247.799 182 254.953 169.444 257.767 155.301C257.884 154.376 258.353 153.715 259.057 153.187C266.68 147.768 271.488 138.119 271.488 127.942C271.488 117.765 266.797 108.116 259.057 102.697C258.353 102.169 257.884 101.508 257.767 100.582C254.953 86.4401 247.799 73.8839 237.479 65.0284C236.775 64.3675 236.306 63.4423 236.306 62.3849V34.3646H214.61C214.024 34.3646 213.438 34.1002 212.969 33.7037C203.821 26.4343 193.032 22.6013 181.774 22.6013H176.379C175.676 22.6013 174.972 22.337 174.386 21.8083C164.535 11.7633 151.869 6.34421 138.617 6.34421C125.365 6.34421 112.7 11.8954 102.849 21.8083C102.262 22.337 101.559 22.6013 100.855 22.6013H95.4606C84.2024 22.6013 73.4132 26.4343 64.2659 33.7037C63.7968 34.1002 63.2104 34.3646 62.624 34.3646H40.9284V62.3849C40.9284 63.4423 40.4594 64.3675 39.7557 65.0284C29.4356 73.8839 22.282 86.4401 19.4674 100.582C19.3501 101.508 18.881 102.169 18.1774 102.697C10.5546 108.116 5.7464 117.765 5.7464 127.942C5.7464 138.119 10.4373 147.768 18.1774 153.187C18.881 153.715 19.3501 154.376 19.4674 155.301C22.282 169.444 29.4356 182 39.7557 190.856C40.4594 191.516 40.9284 192.442 40.9284 193.499V221.519Z" fill="#CABAA3"/>
</svg>
