<svg width="12" height="20" viewBox="0 0 12 20" fill="none" xmlns="http://www.w3.org/2000/svg">
<path d="M11.6379 10.7798L2.85714 19.6789C2.64592 19.893 2.38944 20 2.08769 20C1.78595 20 1.52947 19.893 1.31825 19.6789L0.322489 18.6697C0.111268 18.4557 0.00565763 18.1957 0.00565762 17.8899C-0.0245168 17.5841 0.0660065 17.3242 0.277228 17.1101L7.29279 10L0.277227 2.88991C0.0660058 2.67584 -0.0245175 2.4159 0.00565693 2.11009C0.00565691 1.80428 0.111267 1.54434 0.322489 1.33027L1.31825 0.3211C1.52947 0.107033 1.78595 -7.80664e-08 2.08769 -9.1256e-08C2.38944 -1.04446e-07 2.64592 0.107033 2.85714 0.3211L11.6379 9.22018C11.8793 9.43425 12 9.69419 12 10C12 10.3058 11.8793 10.5657 11.6379 10.7798Z" fill="#494949"/>
</svg>
