<svg width="162" height="55" viewBox="0 0 162 55" fill="none" xmlns="http://www.w3.org/2000/svg">
<path d="M49.316 6.97185C49.8647 10.7075 48.3079 14.4435 44.6457 18.1797C41.2422 21.7658 37.5892 23.8451 33.6869 24.4177C29.6747 25.0065 27.4427 23.7626 26.9908 20.6862C26.668 18.4888 27.0013 17.3175 27.9906 17.1723C28.3754 17.1158 28.604 17.3348 28.6767 17.8292C28.7009 17.9941 28.7097 18.2453 28.7032 18.583C28.6966 18.9207 28.7054 19.1719 28.7296 19.3367C29.0443 21.4792 30.6032 22.3448 33.4063 21.9335C36.3193 21.506 39.4112 19.6213 42.6822 16.2792C45.9531 12.937 47.3868 9.89258 46.9834 7.14578C46.588 4.4539 44.1094 3.44267 39.5476 4.11208C38.6132 4.24919 37.7144 4.4372 36.8511 4.67611C32.197 5.86414 27.1053 8.6597 21.5759 13.0628C16.0384 17.4109 11.6065 22.2142 8.2801 27.4725C4.60279 33.3996 3.11918 38.7804 3.82924 43.6148C4.27304 46.6363 5.62873 48.7944 7.89632 50.0891C9.91986 51.2513 12.498 51.6026 15.6309 51.1429C25.634 49.675 34.7619 44.351 43.0146 35.1709C43.2102 34.9739 43.418 34.8592 43.6378 34.827C44.2974 34.7302 44.6796 35.0389 44.7845 35.753C44.8248 36.0277 44.7512 36.2911 44.5636 36.5431C41.092 40.8125 36.7977 44.6415 31.6808 48.0301C26.0545 51.7739 20.7956 54.0047 15.904 54.7225C11.8918 55.3113 8.52798 54.9631 5.81262 53.6779C2.61722 52.1826 0.741144 49.5397 0.184387 45.7491C-0.477267 41.2443 0.64179 36.0573 3.54156 30.1882C6.95563 23.2334 11.8186 17.1603 18.1306 11.9689C24.8808 6.32041 31.8559 2.96789 39.0559 1.91136C45.2666 0.999997 48.6866 2.68683 49.316 6.97185Z" fill="black"/>
<path d="M72.316 32.4707C72.3725 32.8552 72.2762 33.3464 72.0271 33.9441C70.8593 36.697 69.3958 39.1566 67.6366 41.3228C65.3534 44.1271 63.0577 45.6987 60.7493 46.0374C57.6714 46.4891 55.85 44.7921 55.2852 40.9466C55.1561 40.0676 55.3142 38.2766 55.7593 35.5736C54.2472 38.6577 53.2647 40.5696 52.8119 41.3095C51.3129 43.7182 49.8488 45.0273 48.4198 45.237C46.6061 45.5032 45.4733 44.0981 45.0214 41.0216C44.7632 39.2637 45.0297 37.0639 45.8208 34.4225C46.6653 31.3803 47.8295 29.7503 49.3135 29.5325C50.138 29.4116 50.5824 29.5708 50.647 30.0103C50.6551 30.0652 50.1261 31.4336 49.0602 34.1154C48.0412 36.7343 47.6285 38.7029 47.8222 40.0214C48.0804 41.7793 48.7316 42.5817 49.7759 42.4285C51.5347 42.1704 54.106 37.6963 57.4898 29.0062C57.7615 28.1806 58.1813 27.0247 58.749 25.5384C59.0692 25.0424 59.4492 24.7622 59.8889 24.6977C60.3835 24.6251 60.8555 24.7803 61.3048 25.1633C61.8009 25.4834 62.0894 25.9181 62.1701 26.4674C62.162 26.4125 61.443 28.398 60.0131 32.424C58.6381 36.442 58.0999 39.4673 58.3984 41.4999C58.6808 43.4227 59.7289 44.251 61.5426 43.9848C63.0816 43.759 64.7113 42.6219 66.4317 40.5736C67.5813 39.2264 68.8232 37.3606 70.1574 34.9761C71.2732 33.0165 71.8861 32.0287 71.9961 32.0125C72.1609 31.9883 72.2676 32.1411 72.316 32.4707Z" fill="black"/>
<path d="M88.5268 31.0179C88.543 31.1277 88.5122 31.3006 88.4345 31.5365C87.3752 33.8806 85.6046 36.1608 83.1228 38.3769C80.4922 40.7271 77.9677 42.0797 75.5494 42.4346C72.0868 42.9427 70.0368 41.0267 69.3993 36.6868C68.9798 33.8301 69.7565 30.5173 71.7295 26.7483C73.8351 22.7354 76.2895 20.5233 79.0925 20.1119C79.6421 20.0313 80.1456 20.2099 80.603 20.6479C81.1153 21.0778 81.4118 21.5674 81.4925 22.1168C81.7426 23.8198 80.7536 26.0695 78.5254 28.8657C76.5317 31.347 74.6255 33.0858 72.8067 34.0823C72.6237 35.5121 72.6008 36.694 72.7379 37.6279C73.0688 39.8803 74.251 40.8573 76.2846 40.5589C78.2082 40.2766 80.2622 39.1615 82.4466 37.2135C84.3334 35.5336 85.8897 33.7058 87.1155 31.7301C87.4195 31.1242 87.7639 30.7931 88.1486 30.7366C88.3685 30.7044 88.4945 30.7981 88.5268 31.0179ZM79.1644 23.4686C79.0676 22.8094 78.6894 22.5281 78.0299 22.6249C77.2055 22.7459 76.1819 24.1869 74.9591 26.9478C73.8998 29.292 73.294 31.0925 73.1417 32.3495C74.482 31.5355 75.8086 30.2465 77.1216 28.4825C78.6772 26.4584 79.3581 24.7871 79.1644 23.4686Z" fill="black"/>
<path d="M107.296 27.4219C107.328 27.6417 107.207 27.968 106.934 28.401C105.422 31.485 103.131 34.4307 100.063 37.238C98.2696 38.7919 96.2738 39.7302 94.0754 40.0528C90.0082 40.6496 87.6559 38.778 87.0184 34.4381C86.623 31.7462 87.6713 28.5619 90.1632 24.8851C92.71 21.2003 95.3025 19.1643 97.9407 18.7772C99.6995 18.5191 100.68 19.0768 100.881 20.4502C100.962 20.9995 100.691 22.0214 100.068 23.5158C99.4926 24.9472 98.9574 25.6992 98.4627 25.7718C98.2429 25.804 98.1128 25.6828 98.0724 25.4081C98.0402 25.1884 98.0702 24.8192 98.1624 24.3006C98.3096 23.7739 98.3631 23.3732 98.3228 23.0985C98.1533 21.9449 97.3541 21.4729 95.9251 21.6826C93.9464 21.9729 92.3498 23.526 91.1351 26.3419C89.9981 28.9219 89.5829 31.2557 89.8895 33.3433C90.3898 36.7494 92.1239 38.2346 95.0919 37.7991C98.8293 37.2507 102.356 34.1235 105.673 28.4176C106.126 27.6777 106.545 27.2796 106.929 27.2231C107.149 27.1909 107.271 27.2571 107.296 27.4219Z" fill="black"/>
<path d="M138.451 23.5236C138.483 23.7434 138.452 23.9163 138.359 24.0423C137.267 26.1666 135.99 28.1779 134.528 30.076C132.488 32.6203 130.671 34.0093 129.077 34.2432C126.494 34.6223 124.782 31.9551 123.943 26.2418C123.814 25.3628 123.696 24.3699 123.59 23.2631C121.869 25.3114 120.107 28.7969 118.304 33.7195C117.705 35.3787 116.911 36.2809 115.922 36.4261C115.592 36.4744 115.329 36.4009 115.132 36.2053C114.878 35.6252 114.683 34.8682 114.546 33.9343C114.312 32.3411 114.241 29.3771 114.334 25.0422C114.404 22.8432 114.395 21.4416 114.306 20.8373C114.242 20.3978 114.127 20.1901 113.962 20.2143C113.149 21.1755 111.9 23.1827 110.214 26.236C108.397 29.5332 106.491 33.3765 104.497 37.7659C104.239 38.3087 104.001 38.5963 103.781 38.6285C103.341 38.6931 103.049 38.2309 102.904 37.2421C102.863 36.9674 102.859 36.7436 102.889 36.5707C103.718 33.4187 104.396 29.054 104.924 23.4767C104.921 22.6914 104.98 21.5605 105.1 20.0837C105.153 19.683 105.454 19.2461 106.002 18.7728C106.605 18.2915 107.127 18.0185 107.566 17.954C107.951 17.8976 108.168 18.0341 108.216 18.3638C108.297 18.9131 107.618 23.2778 106.181 31.4578C107.772 28.5305 109.406 25.5128 111.083 22.4045C111.614 21.4288 112.41 19.9651 113.47 18.0136C114.15 16.9038 114.929 16.2844 115.808 16.1553C116.688 16.0263 117.2 16.4562 117.345 17.445C117.45 18.1592 117.468 19.6158 117.398 21.8147C117.319 23.9588 117.332 27.0997 117.434 31.2376C118.65 28.8143 120.569 25.2497 123.19 20.5438C123.917 19.3709 124.719 18.72 125.599 18.591C126.423 18.47 126.912 18.9314 127.065 19.9752C127.194 20.8542 127.251 22.1928 127.234 23.9911C127.209 25.7344 127.262 27.0456 127.391 27.9246C127.81 30.7812 128.762 32.1007 130.246 31.8829C132.335 31.5765 134.661 28.878 137.226 23.7875C137.475 23.1897 137.71 22.8747 137.93 22.8425C138.204 22.8022 138.378 23.0292 138.451 23.5236ZM127.873 9.41831C120.706 8.78643 115.634 9.61487 112.657 11.9036C112.101 12.3219 111.683 12.9164 111.403 13.687C111.295 14.0958 111.289 14.6298 111.386 15.289C111.483 15.9483 111.473 16.4548 111.356 16.8086L111.063 17.1042C110.57 17.5694 110.266 17.2211 110.151 16.0594C110.084 14.8347 110.209 13.778 110.528 12.8895C110.892 11.5453 111.685 10.4468 112.908 9.594C115.116 7.8108 118.223 6.79366 122.229 6.54258C123.218 6.39741 126.612 6.37642 132.41 6.47963C135.962 6.57582 138.242 6.24112 139.253 5.47552C139.856 4.99418 140.251 4.4312 140.437 3.78658C140.662 3.02402 140.62 2.35672 140.311 1.78468C140.057 1.20458 140.008 0.678652 140.164 0.206903C140.265 0.135836 140.316 0.100302 140.316 0.100302C140.716 -0.2389 140.989 0.282234 141.135 1.6637C141.337 3.03711 141.322 4.07762 141.089 4.78525C140.498 6.49937 139.78 7.72714 138.935 8.46855C137.674 9.43928 135.523 9.89519 132.482 9.83629C132.128 9.71987 131.448 9.67931 130.443 9.71461C130.003 9.77913 129.147 9.68037 127.873 9.41831Z" fill="black"/>
<path d="M161.992 19.9009C162.032 20.1755 161.924 20.5843 161.667 21.1271C159.821 25.3824 157.907 28.2167 155.925 29.63C155.009 30.2696 154.056 30.662 153.066 30.8072C149.714 31.2991 147.69 29.1829 146.996 24.4584C146.883 23.6892 146.817 22.8571 146.798 21.962C144.076 29.0398 141.286 32.7884 138.428 33.2078C136.724 33.4578 135.735 32.6489 135.46 30.7811C135.041 27.9244 135.911 24.2892 138.07 19.8756C140.221 15.4071 142.523 12.5438 144.977 11.2858C145.855 10.7641 146.734 10.4388 147.613 10.3097C149.592 10.0194 151.122 10.4964 152.203 11.7407C152.408 11.9912 152.519 12.1714 152.535 12.2813C152.543 12.3362 152.363 12.4468 151.994 12.6132C151.625 12.7795 151.379 13.0121 151.254 13.311C150.25 15.6471 150.062 18.9576 150.692 23.2426C151.273 27.198 152.415 29.0507 154.119 28.8007C155.328 28.6233 156.838 27.0548 158.65 24.0952C160.508 21.0727 161.519 19.5493 161.684 19.5251C161.849 19.5009 161.951 19.6262 161.992 19.9009ZM148.602 13.0268C148.374 13.0041 148.123 13.0129 147.848 13.0533C145.649 13.3759 143.574 15.1114 141.622 18.26C138.867 22.8172 137.678 26.3869 138.058 28.9689C138.227 30.1225 138.697 30.6429 139.466 30.53C140.675 30.3525 142.056 28.8592 143.609 26.0498C145.801 22.2486 147.466 17.9076 148.602 13.0268Z" fill="black"/>
</svg>
