<svg width="74" height="80" viewBox="0 0 74 80" fill="none" xmlns="http://www.w3.org/2000/svg">
<g filter="url(#filter0_i)">
<path fill-rule="evenodd" clip-rule="evenodd" d="M39.1832 22.446C38.9564 22.5324 39.0698 23.1367 39.0981 23.4244H38.5594L38.6161 19.7698C38.4177 20.1727 38.4744 23.0503 38.5594 23.4532L39.0981 23.482L39.1832 22.446Z" fill="#7B6453"/>
<path fill-rule="evenodd" clip-rule="evenodd" d="M61.1847 20.9209L61.0996 20.3166C61.5249 20.3454 62.1203 20.4029 62.4889 20.259H61.0713C60.9862 20.777 60.9579 20.6619 61.1847 20.9209Z" fill="#7B6453"/>
<path fill-rule="evenodd" clip-rule="evenodd" d="M16.6712 73.8417C16.9831 73.1799 17.777 72.0576 18.7126 72.1727C18.7693 72.8058 18.344 72.8633 17.862 73.2086C17.5218 73.4389 17.1249 73.7266 16.6712 73.8417ZM26.9348 73.3813C27.2467 72.9784 28.1824 72.4317 28.6927 72.0863C29.0329 71.8561 30.3655 70.8489 30.7908 71.3094C31.4712 72.0863 27.672 73.295 26.9348 73.3813ZM19.7333 76.3453C19.8467 75.1942 21.5479 72.9784 22.4268 72.0576C22.7103 71.7698 23.2207 71.2806 23.731 71.1655C23.7877 71.7122 23.1356 72.6331 22.8521 72.9209C22.9088 73.3237 22.8237 73.0072 22.9939 73.3813C22.4835 73.6978 20.4421 76.1439 19.7333 76.3453ZM29.3165 69.4101C29.6 68.777 30.3088 68 30.7057 67.4245L32.9456 64.5755C33.2291 64.259 33.5126 64.1151 33.7962 63.741C34.1364 63.3094 34.2214 63.2806 34.6751 62.9353C36.1778 61.7842 36.2061 63.223 34.9019 64.8633C33.7962 66.2446 34.0513 65.7554 33.6544 66.1871C32.6621 67.3094 33.4843 66.4173 32.4069 67.3957C32.1233 67.6547 31.8115 67.8561 31.4429 68.1151C30.8191 68.5755 30.0253 69.0935 29.3165 69.4101ZM29.7984 67.1079L26.4245 72.5755C26.0276 73.3237 24.6099 74.9928 23.8444 75.0791C23.7027 74.072 24.3264 73.7842 24.1847 72.8058L23.7877 72.6907L23.5042 72.8058L23.6743 72.6619C23.7877 72.3166 24.2414 71.482 24.128 71.0504C23.9862 70.446 23.2207 70.5324 22.767 70.7914C22.0015 71.223 21.1793 72.259 20.6689 72.9784C19.9318 74.0144 19.1096 75.0216 18.0889 75.7986C17.862 75.9712 17.7486 76.0863 17.5218 76.2302C15.7356 77.4389 15.4237 76.4029 15.9624 75.1079C16.2176 74.4748 17.4368 74.2158 18.6276 73.2662C18.7693 73.1511 19.0529 72.8058 19.1663 72.6907C19.3647 72.4604 19.3931 72.3166 19.3647 72C19.1379 71.7986 18.5425 71.4532 18.2873 71.3094C17.6636 71.3669 17.0398 71.8849 16.7563 72.1727C16.5011 72.4317 16.0191 73.036 15.764 73.4389C14.9984 74.6187 14.7716 75.2806 14.9984 76.8921C16.5011 77.6978 17.0398 77.1223 18.5709 75.9425C19.0529 75.5684 18.9678 75.3094 19.5348 75.0504C19.3647 75.7986 18.9678 76.3741 19.5348 77.0072C20.3004 76.8921 21.0659 75.6834 21.4061 75.4245C22.7387 74.3597 22.4835 74.0144 23.2774 73.6978C22.5119 77.5252 25.0919 74.6763 25.3471 74.5324C25.1486 75.1079 24.3831 76.0863 24.8935 76.5468L26.4245 73.9568C27.0199 73.8993 27.4735 73.6691 28.0122 73.7554C28.7494 74.3597 28.6643 75.4245 29.4582 75.8849C30.0253 76 30.3655 75.8849 30.6774 75.5396C32.0667 74.1583 31.4712 74.6475 31.2728 74.4748C30.9892 75.1655 30.1954 75.4532 29.5716 74.964C29.1463 74.6475 28.8061 73.9856 28.3525 73.4964C29.7134 72.8921 32.1801 72.2878 31.3578 70.7338C30.5356 69.2086 27.672 72.0576 27.672 72.0576C27.5019 72.3166 27.8705 72.1727 27.3885 72.3165C27.4168 71.9137 27.3601 72.2302 27.5586 72.0863C27.8705 71.3381 28.636 70.2446 29.3165 69.8417C31.131 68.8345 32.095 68.259 33.5126 66.8489C33.9663 66.3885 34.59 65.8705 35.0153 65.295C35.1854 65.0648 35.2988 64.9784 35.4406 64.7194C35.6107 64.4892 35.6958 64.259 35.8659 64.1439C36.0927 63.5108 36.3762 62.964 36.2912 62.1871C35.5257 61.4964 35.2138 61.5252 34.2498 62.1871C33.8812 62.4461 33.6827 62.6187 33.3425 62.8489L29.7984 67.1079Z" fill="#140002"/>
<path fill-rule="evenodd" clip-rule="evenodd" d="M36.915 66.7626L37.5104 67.0216L39.1548 65.6979C39.8636 64.8921 38.6728 65.3813 40.7426 64.1152C41.1395 63.8562 46.0161 60.9209 45.279 63.3957C44.9671 64.4605 43.3227 67.108 42.7273 68.0576C42.2453 68.8058 42.5571 68.4029 40.9977 69.0072C40.0338 69.3813 39.8069 69.5828 38.9564 69.6116C38.4177 69.6403 38.4177 69.6403 38.3893 70.1008C39.5234 70.3885 40.941 69.4101 42.0468 69.0936C41.905 69.5252 37.5954 75.7698 36.9717 76.5468C36.6882 76.9209 36.4897 77.3813 36.1778 77.4389C36.1495 78.8777 37.1702 77.8706 37.6805 77.4101L39.0414 75.9713C39.0131 74.9353 39.0131 75.2806 39.5234 74.5036L43.1525 69.2375C43.7196 68.4029 43.2943 68.5756 44.3717 68.2303C45.7043 67.7986 46.7249 67.5396 48.1426 67.4245C47.6039 68.4893 44.882 72.0864 45.1089 73.4677C45.279 73.554 45.3924 73.6116 45.6192 73.4965C45.7326 73.4101 45.7043 73.4101 45.846 73.2662C45.8744 73.2375 45.8744 73.2375 45.9027 73.2087L46.1012 73.036C46.1295 72.777 46.0728 72.9785 46.1862 72.7195C46.2146 72.6619 46.3847 72.4605 46.4131 72.4029C46.6115 72.1439 46.6682 72.0864 46.8667 71.8562L47.7456 70.7051C47.2069 70.6188 46.8951 71.4245 46.2713 71.8562C46.4698 71.3094 48.7663 67.5108 49.305 67.3382L50.1556 67.2806C50.751 67.1655 50.2407 67.3094 50.4675 67.108C50.1556 66.8778 49.9288 66.9641 49.5035 66.9641C49.787 66.4461 50.0989 66.1008 50.4675 65.6116C50.6376 65.4101 51.4031 64.3166 51.4882 64.2878C51.5732 63.8849 51.7433 63.5396 51.4882 63.1367C50.9211 63.2518 50.184 64.4893 49.8154 64.9785C47.4621 68.1439 49.4468 66.59 46.1012 67.3094C45.364 67.4821 44.7403 67.6835 44.0315 67.8562C44.5134 66.5324 46.2997 64.7195 45.6759 62.6475C45.1372 61.6403 44.2016 61.7842 43.0675 62.1871C41.5364 62.7051 39.892 63.7986 38.6445 64.7195C37.482 65.554 37.4253 65.813 36.8016 66.3022L36.915 66.7626Z" fill="#140002"/>
<path fill-rule="evenodd" clip-rule="evenodd" d="M10.1218 65.928C8.44905 66.5324 6.1525 68.259 5.21687 69.7842C4.76323 70.5324 4.73488 71.2806 5.10346 72.1151C5.67051 73.0647 6.94637 74.7626 7.17319 75.482C7.68354 77.0359 6.35097 78.2158 5.35863 78.6762C4.28123 79.1942 1.98469 79.5395 1.07741 78.705C0.141773 77.8705 1.67281 76.6043 2.35327 75.9424C2.60844 75.7122 2.46668 75.9136 2.60844 75.5683L2.21151 75.6259C1.70116 76.0863 0.595412 76.777 0.283535 77.8129C-0.396925 80.1439 4.87664 80.8345 7.57012 78.0719C7.8253 77.8129 7.882 77.6403 8.10882 77.4676C8.05212 76.0863 8.19388 76.0863 7.48507 74.8777C7.05978 74.1583 6.60614 73.5827 6.18085 72.8921C5.78392 72.259 5.13181 71.223 5.69886 70.4172C7.37166 68.0863 15.2253 64.0575 16.4161 64.9496C16.9548 65.3525 16.1893 66.2734 15.9058 66.5899C15.4521 67.0791 15.1119 67.4244 14.6582 67.9136C13.6943 67.8273 13.8644 67.8561 13.1839 68.4892C12.9571 68.6906 12.7586 68.777 12.5602 68.9784C12.3333 69.2086 12.2766 69.3525 12.0215 69.5539C11.5962 69.9568 9.78162 71.5395 10.5188 71.9712C11.0008 72.259 12.7586 70.5036 13.1272 70.2158C13.4958 69.8993 13.4958 69.8993 13.836 69.4676C14.4031 68.7482 16.0475 67.5108 16.5295 66.3021C16.9548 66.1295 17.5786 64.6331 16.3594 64.1726C15.0835 63.9424 10.8874 65.1798 10.1218 65.928Z" fill="#140002"/>
<path fill-rule="evenodd" clip-rule="evenodd" d="M17.1532 66.9065L13.6659 71.9425C13.0988 72.0001 12.4751 72.0001 12.2766 72.3742L13.4958 72.2591C13.269 73.0648 12.2483 74.0432 11.3693 77.0936C11.2843 77.9857 11.2843 78.9641 12.3333 78.849C12.7303 78.7914 12.9571 78.6475 13.269 78.4461C13.6092 78.2159 13.836 78.1871 13.9211 77.6691C13.6092 77.8994 12.6452 78.7627 12.0782 78.4749C11.5111 78.1296 11.7946 77.2663 12.0214 76.6619C12.39 75.6835 13.2406 74.3022 13.7793 73.4677C13.9778 73.1799 14.1195 72.9785 14.2896 72.7195C14.9701 71.626 14.9134 72.2878 15.3954 72.3166C15.4237 72.3166 15.7923 72.2303 15.8207 72.2303C16.728 71.9713 16.4728 71.9713 16.5578 71.626L14.9418 71.7986L16.7563 69.0936C17.0965 68.5756 17.3517 68.2591 17.7203 67.7986C17.8904 67.5972 18.0605 67.3094 18.2023 67.1655C18.5142 66.8202 18.4858 67.0792 18.5425 66.4173L17.7487 66.2734C17.5218 66.5612 17.4084 66.6763 17.1532 66.9065Z" fill="#140002"/>
<path fill-rule="evenodd" clip-rule="evenodd" d="M65.636 68.1727C65.9479 67.5396 66.8269 66.331 67.6774 66.5324C67.7341 66.9353 67.6491 66.9353 67.3939 67.1367C66.9119 67.482 66.1747 68.0863 65.636 68.1727ZM63.9916 71.1079C64.7004 72.6331 67.0253 70.6763 67.6491 70.1583C68.3295 69.5827 69.1518 68.6907 69.6904 67.9425C69.9173 67.6259 70.1441 67.482 70.2008 66.964C69.9173 67.0504 70.0023 66.9353 69.7755 67.223L67.8475 69.3525C67.1104 70.072 66.0613 71.2518 64.8989 71.0792C64.5303 70.5899 64.587 69.9856 64.9272 69.3525C65.2675 68.6907 68.7548 67.5108 68.2728 66.3885C68.1594 66.1007 68.046 66.1583 67.7341 65.9856C67.479 65.8417 67.5073 65.813 67.2521 65.6691C66.6567 65.5252 65.4092 66.8202 65.2391 67.0504C64.5303 68 63.4245 69.7266 63.9916 71.1079Z" fill="#140002"/>
<path fill-rule="evenodd" clip-rule="evenodd" d="M42.5571 20.6043L42.9256 22.1582L42.0467 22.3021L42.5571 20.6043ZM38.5877 19.7697L38.531 23.4244H39.0697C39.0413 23.1654 38.9279 22.5611 39.1548 22.446C39.2398 22.187 39.3249 22.0719 39.4666 21.8705L40.2605 23.9424C41.1394 24.2014 41.4513 24.4316 41.7632 23.4244L41.8482 23.0215L43.0107 22.705L43.3226 23.5107L43.8896 23.482C43.7479 22.6187 43.2092 21.5827 43.2659 20.7482L43.039 20.2302C42.9823 20.0287 42.9823 20 42.9256 19.8273H42.0751L40.9977 24C40.6858 23.5971 40.1187 21.7841 39.9486 21.1798L40.7141 19.7697L40.062 19.7985L39.0697 21.41C39.0413 21.0935 39.1548 19.6546 38.8996 19.6259L38.5877 19.7697Z" fill="#140002"/>
<path fill-rule="evenodd" clip-rule="evenodd" d="M49.5035 72.6331C49.2199 72.1439 49.5034 71.6259 49.8437 71.0791C50.4674 70.0719 51.8851 68.4604 53.246 68.3453C53.1042 68.7194 52.9341 68.7482 52.9908 69.1798C53.0192 69.5827 53.246 69.3813 52.9341 69.8705C52.5655 70.446 50.4674 73.036 49.5035 72.6331ZM48.6529 72.6043C50.5808 74.6763 53.5579 69.6691 53.5579 69.6691C53.6713 69.5827 53.6429 69.6115 53.7847 69.554C53.9548 69.4676 53.8697 69.5252 54.0115 69.4101C53.5295 68.0863 53.9264 67.6259 52.1969 68.1151L51.7717 67.7698C50.4958 68.2014 48.3977 70.9928 48.6529 72.6043Z" fill="#140002"/>
<path fill-rule="evenodd" clip-rule="evenodd" d="M48.2844 20.6332L48.6529 22.1583L47.774 22.3598L48.2844 20.6332ZM47.6039 20.6907L46.725 24.2303L47.3771 23.9713C47.4338 23.7698 47.4621 23.5972 47.4905 23.4245C47.6039 22.9353 47.6606 22.9065 48.8514 22.7051C48.9365 23.4245 48.9081 23.4821 49.5886 23.4821C49.6453 22.7051 48.9648 21.5252 48.9932 20.6619C48.7947 20.4317 48.7947 20.2015 48.6813 19.8274H47.8307L47.6039 20.6907Z" fill="#140002"/>
<path fill-rule="evenodd" clip-rule="evenodd" d="M64.2184 22.3022L63.9065 22.3885L64.0766 22.1007L64.4736 20.6331L64.8422 22.1583L64.2184 22.3022ZM63.8782 19.9712C63.9349 20.8058 63.0843 23.1943 62.9142 24.2302L63.5663 23.9425C63.7364 23.1943 63.6797 23.0504 64.0199 22.9065L65.069 22.6763L65.1824 23.4245L65.7494 23.4533L65.7778 23.0216C65.7494 22.8489 65.6927 22.7338 65.6644 22.59C65.5793 22.3022 65.4943 21.9856 65.4092 21.6979C65.2674 21.1223 64.9556 20.4605 65.0123 19.8561L64.3035 19.7986C63.9065 19.8849 64.1333 19.7698 63.8782 19.9712Z" fill="#140002"/>
<path fill-rule="evenodd" clip-rule="evenodd" d="M53.2743 23.3093C53.4444 23.482 53.1326 23.4532 53.728 23.4532C54.0398 22.6762 53.5295 22.6187 54.2383 21.8705L54.9755 23.8561L55.4291 24.0863C55.8261 23.8273 55.7694 24.2878 55.2023 22.6187C54.6069 20.777 54.4935 21.5539 55.4575 19.741L54.8621 19.7698C54.6069 20.0863 53.9831 21.0935 53.813 21.4101L53.7847 19.5396L53.246 19.7985L53.2743 23.3093Z" fill="#140002"/>
<path fill-rule="evenodd" clip-rule="evenodd" d="M51.4315 23.0216C50.8077 22.8778 50.5809 22.3598 50.6092 21.6116C50.6376 21.0648 50.8077 20.259 51.4031 20.2878C52.2253 20.3166 52.6223 22.5324 51.4315 23.0216ZM50.1556 20.4605C50.1556 21.6116 49.702 22.4749 50.6659 23.3094C51.0912 23.6835 51.7433 23.6547 52.1686 23.367C52.4521 23.1655 52.6506 22.6763 52.7924 22.1871C52.8491 20.9785 52.5939 19.5684 51.233 19.7698C50.4391 19.9137 50.6092 20.1152 50.1556 20.4605Z" fill="#140002"/>
<path fill-rule="evenodd" clip-rule="evenodd" d="M66.8268 21.9568V21.4964V20.8058V20.3165C68.613 20.1151 67.9042 21.6978 66.8268 21.9568ZM66.4865 24.0863L66.4298 23.9712L66.7417 23.9424C66.9118 23.5108 66.8268 23.223 66.8551 22.6763C67.5356 22.2734 68.4996 21.8705 68.5279 20.9496C68.5563 19.741 67.3655 19.741 66.2881 19.7986C66.2881 20.518 66.2881 21.2374 66.2881 21.9568C66.2881 22.3309 66.2881 22.705 66.2881 23.0791C66.2597 24.4029 66.2314 23.9137 66.4865 24.0863Z" fill="#140002"/>
<path fill-rule="evenodd" clip-rule="evenodd" d="M61.0996 21.4964C61.5816 21.6403 62.0069 21.9856 62.1203 22.5323L61.8368 22.964L61.0713 23.0215L61.0996 21.4964ZM62.0353 23.4532C62.4889 23.1367 62.4322 23.2805 62.7157 22.7626C62.7724 21.6115 61.8935 21.3813 61.1847 20.9208C60.9579 20.6618 61.0146 20.7769 61.0996 20.2877H62.5173L62.3471 19.8561H60.5609L60.5326 23.5395L62.0353 23.4532Z" fill="#140002"/>
<path fill-rule="evenodd" clip-rule="evenodd" d="M44.9954 21.8993L44.8253 21.9856L44.8536 20.259C45.1372 20.1726 44.9103 20.1727 45.2506 20.2014C45.846 20.259 45.3073 20.2014 45.5341 20.3165C45.7893 20.4604 45.7042 20.4029 45.8743 20.5755C46.0444 21.3813 45.5625 21.7266 44.9954 21.8993ZM44.3433 24.1439C45.0238 23.6547 44.882 23.7122 44.882 22.5899C46.1011 22.2734 46.6682 21.4964 46.4981 20.2878C46.1295 20.1151 46.2429 19.9137 45.7042 19.7985C45.3356 19.7122 44.7119 19.7698 44.3149 19.7698L44.3433 24.1439Z" fill="#140002"/>
<path fill-rule="evenodd" clip-rule="evenodd" d="M57.9242 23.4532L58.066 22.9352H56.6767L56.6483 21.9568L57.4989 21.5539V21.0359L56.6483 21.41L56.6767 20.4604C56.8752 20.2302 56.2514 20.2877 58.0093 20.2877C57.9242 19.5971 58.0093 19.741 57.2154 19.741C56.8468 19.741 56.4499 19.741 56.0813 19.741V23.4244L57.9242 23.4532Z" fill="#140002"/>
<path fill-rule="evenodd" clip-rule="evenodd" d="M12.2483 14.7626C10.5471 16.7482 9.38465 17.8705 8.93101 21.0648C8.42067 24.6331 10.0084 26.1583 11.5394 27.8849L14.0345 30.2158C15.1119 31.1367 17.4084 32.8921 18.826 32.1439C19.223 31.9425 19.8184 31.2806 20.0735 30.9065C20.4138 30.4461 20.754 29.9568 21.0942 29.4389C21.2927 29.1799 21.4345 28.9784 21.6329 28.7194C21.9448 28.3166 21.8314 28.3453 22.2567 28.0576L22.4552 27.6259C23.0506 26.7914 23.9862 25.7554 23.5325 24.777C22.1149 21.7266 18.2306 19.4245 23.9578 16.2302C23.9295 16.2302 23.6176 16.1727 23.4191 16.1727L23.646 15.8274C22.8804 16.1439 23.646 16.2015 22.9655 16.0576L23.1923 15.7123C22.4552 15.0792 23.8161 15.223 22.2 15.2518C22.1149 15.0216 22.0299 14.7051 21.9732 14.4461L22.6536 14.331C22.6253 14.3022 22.5969 14.2734 22.5969 14.2734L22.3984 14.1007C21.9448 13.6691 22.5686 14.0432 22.1716 13.7554C21.9448 13.5827 21.718 13.7554 21.3211 13.7554C21.4061 13.3525 21.3211 13.4964 21.6613 13.6403C21.6046 13.3813 21.5762 13.3238 21.6046 13.2087C21.6046 13.1511 21.6329 13.0935 21.6329 13.0648C21.9165 12.3741 22.1433 12.8346 21.7747 12.3741C22.0866 12.1727 21.8598 12.4029 22.0015 12.0288C21.7747 11.7698 21.803 11.9425 21.6613 11.4533C21.9448 11.4245 22.1433 11.2806 22.4552 11.3381L22.767 11.5108C22.7954 11.5396 23.0506 11.6547 23.1073 11.6547C23.1923 11.9712 23.1356 11.7986 23.1923 11.9712C23.2774 12.259 23.249 12.1151 23.3341 12.2302C23.4475 12.1151 23.731 12.3741 23.4475 11.8561C23.3341 11.6259 23.4758 11.9425 23.2207 11.6547C23.731 11.482 23.4475 11.5396 23.6743 11.1655C23.7877 10.964 24.0145 10.9641 24.2414 10.8489L24.0429 10.7051C23.8161 10.5324 23.5326 10.5036 23.7027 10.072C23.731 10.0432 23.7594 10.0144 23.7877 9.98563C23.7877 9.92808 23.8161 9.8993 23.8161 9.84175C23.1073 9.81297 23.8161 9.69786 23.0222 9.61153C23.1923 10.2446 23.5042 10.0432 22.9088 10.1871C22.7954 9.87052 22.7954 9.92808 22.7954 9.49642C23.2207 9.41009 23.1356 9.41009 23.0222 9.15109C23.3341 9.20865 23.2774 9.17988 23.4475 9.23743C23.6743 9.32376 23.6176 9.29499 23.7027 9.38132C23.731 9.35254 23.7594 9.32376 23.7877 9.29498L24.1563 8.83456C24.128 8.80578 24.0712 8.80577 24.0712 8.777L23.8444 8.46045C21.9732 8.86333 19.0812 10.1295 17.4651 10.964C16.4161 11.482 15.5939 12.0288 14.7433 12.6043C13.7226 13.295 12.9571 14.072 12.2483 14.7626Z" fill="#140002"/>
<path fill-rule="evenodd" clip-rule="evenodd" d="M69.2084 24.7769C65.7494 26.5899 61.1563 26.0143 57.1586 25.8129C55.0605 25.6978 52.849 25.5251 50.7509 25.7554C47.7172 26.0719 46.2429 27.0503 45.4207 27.1079C44.7969 27.741 42.1034 28.3453 42.8973 30.1295C43.0674 30.5323 43.3509 30.8489 43.5778 31.2805C43.8329 31.7697 43.918 32.2302 43.9747 32.8345C44.0598 33.928 43.8329 35.482 44.5134 36.2302C45.0521 36.5179 48.8513 34.0431 50.5808 33.3237C55.4007 31.3093 61.0429 32.2589 66.0329 30.7625C70.3142 29.4964 71.1647 27.7122 71.8168 27.4532C71.8735 27.1654 72.6391 26.1582 73.1778 24.6618C73.4613 23.8273 73.6314 22.9352 73.7448 22.0719C73.7732 21.928 73.8015 21.6978 73.8015 21.5827C73.8015 21.0359 73.8299 21.4964 73.7165 21.2949C72.9509 22.5611 70.541 24.0863 69.2084 24.7769Z" fill="#140002"/>
<path fill-rule="evenodd" clip-rule="evenodd" d="M14.0912 40.0863C12.702 41.2949 11.5112 42.3885 11.2844 45.2949C11.2276 46.2446 11.1709 48.1439 11.4828 48.9784C11.8798 50.0431 12.3901 50.4748 13.7227 50.6762C15.8491 50.9928 22.6253 50.7913 23.9296 51.8849C24.8935 51.8273 28.6361 53.5252 29.6851 53.9568C33.7395 55.7122 37.4537 56.8633 41.9617 57.3525C43.8047 57.5539 47.9158 58.3309 48.1709 56.259C47.2637 56.0863 46.0445 56.0575 45.0805 55.9712C44.0315 55.8561 43.3794 55.6834 42.387 55.4532C40.6292 55.0216 38.6728 54.8489 36.9717 54.3885C32.974 53.3237 24.6667 46.705 18.2591 46.9352C15.8207 47.0216 13.9778 47.4532 14.6299 44.3741C15.0269 42.4748 15.4805 40.777 15.5939 38.7626C15.5656 38.7914 15.5372 38.7913 15.5089 38.8201L14.4031 39.7698C14.2047 40 14.3464 39.9136 14.0912 40.0863Z" fill="#140002"/>
<path fill-rule="evenodd" clip-rule="evenodd" d="M26.5379 26.6763C27.105 26.964 27.8989 26.8777 28.551 26.8489C32.6054 25.8417 33.8245 26.4173 36.4897 28.518C37.0851 28.9784 38.1341 30.4173 38.7295 31.1367L40.2038 33.036C40.6008 33.5827 40.9694 34.072 41.3096 34.6475C42.7272 36.9784 44.6552 42.2158 46.7533 44.2878C46.9234 44.4604 46.9517 44.4317 47.1219 44.6043C47.2353 44.7482 47.292 44.8345 47.4337 44.9784C48.1425 45.7554 49.305 46.8489 50.5808 47.3094C50.8927 47.6835 53.0192 48.3166 53.6429 48.1727C53.5862 47.8274 52.282 46.6763 51.9134 46.331C50.4958 45.036 49.4751 43.7122 48.7663 43.0792C47.8307 42.1871 47.9441 42.1295 47.4621 41.6691C47.2069 41.4101 47.2636 41.4389 47.0651 41.1799C45.8743 39.7122 44.6552 38.1583 43.7763 36.2302C42.6422 33.7554 43.6628 33.0648 42.1035 30.7051C40.9694 29.3525 41.6782 29.9856 40.3456 28.6907C39.4383 27.8274 38.531 26.8777 37.5104 26.1295C36.3479 25.295 35.6674 24.7482 34.3065 23.9425C27.7004 20.1151 24.7234 24.8345 24.7234 25.8993C25.0636 26.2734 25.8575 26.5324 26.5379 26.6763Z" fill="#140002"/>
<path fill-rule="evenodd" clip-rule="evenodd" d="M24.5532 8.259L23.731 8.54677L23.9578 8.86331C23.9862 8.89208 24.0145 8.89209 24.0429 8.92086L23.6743 9.3813C23.646 9.41007 23.6176 9.43885 23.5893 9.46762C23.5042 9.41007 23.5609 9.41007 23.3341 9.32374C23.164 9.26618 23.2207 9.29496 22.9088 9.23741C23.0222 9.4964 23.1073 9.4964 22.682 9.58273C22.682 10.0144 22.682 9.95684 22.7954 10.2734C23.3908 10.1295 23.0789 10.3309 22.9088 9.69784C23.7027 9.78418 22.9655 9.89928 23.7027 9.92806C23.6743 9.95683 23.6743 10.0144 23.6743 10.0719C23.6743 10.1007 23.6176 10.1295 23.5893 10.1583C23.4475 10.6187 23.731 10.6475 23.9295 10.7914L24.1279 10.9353C23.9011 11.0216 23.7027 11.0216 23.5609 11.2518C23.3341 11.6259 23.646 11.5683 23.1073 11.741C23.3624 12.0575 23.2207 11.7122 23.3341 11.9424C23.6176 12.4604 23.3341 12.2014 23.2207 12.3165C23.1356 12.2014 23.164 12.3165 23.0789 12.0576C23.0222 11.8849 23.0789 12.0575 22.9938 11.741C22.9371 11.7122 22.682 11.5971 22.6536 11.5971L22.3417 11.4245C22.0299 11.3381 21.8314 11.5108 21.5479 11.5396C21.6896 12.0288 21.6613 11.8273 21.8881 12.1151C21.7463 12.4892 21.9732 12.2302 21.6613 12.4604C22.0299 12.9209 21.803 12.4604 21.5195 13.1511C21.5195 13.1799 21.4912 13.2086 21.4912 13.295C21.4912 13.4101 21.5195 13.4676 21.5479 13.7266C21.2076 13.5827 21.2927 13.4388 21.2076 13.8417C21.6329 13.8417 21.8314 13.6691 22.0582 13.8417C22.4551 14.1007 21.8314 13.7554 22.285 14.187L22.4835 14.3597C22.5119 14.3885 22.5402 14.4173 22.5402 14.4173L21.8597 14.5324C21.9165 14.7626 22.0015 15.1079 22.0866 15.3381C23.7027 15.3093 22.3701 15.1655 23.0789 15.7986L22.8521 16.1439C23.5042 16.2878 22.767 16.259 23.5325 15.9137L23.3057 16.259C23.5042 16.259 23.8161 16.3165 23.8444 16.3165C24.4115 16.0288 25.9425 14.9928 26.3961 14.9352L26.7931 14.6187C28.5793 13.6115 31.131 12.0863 32.6337 10.8201C33.0306 10.5036 32.6337 10.6187 33.1157 10.5612C33.5126 10.0144 33.7394 9.98561 34.2214 9.46762C34.5617 9.1223 34.987 8.83453 35.3555 8.46043C35.7241 8.08633 36.0643 7.76979 36.3762 7.36691C38.1908 5.09353 39.2682 3.48201 39.7785 0C37.3686 2.35971 36.5463 3.36691 33.0873 5.17986C30.4222 6.5036 27.7287 7.2518 24.5532 8.259Z" fill="#140002"/>
<path fill-rule="evenodd" clip-rule="evenodd" d="M38.3326 40.9497C37 41.1799 33.6544 39.9137 32.577 39.3957C29.118 37.7555 31.3862 35.2806 31.8966 35.2231C32.1801 35.1943 32.974 36.0001 33.2008 36.2878C33.9663 37.2087 35.1004 38.072 36.0644 38.8202C36.9717 39.4821 38.4177 40.2591 38.3326 40.9497ZM27.4452 38.9353C27.2751 40.1152 27.8422 41.4965 28.4092 42.1296C29.9119 43.7986 33.6261 42.7627 35.6675 42.6763C36.8583 42.6188 38.6161 42.8778 39.0981 41.9857C39.6085 40.9785 39.2966 39.3094 38.6728 38.6188L34.7318 35.1368C34.5334 34.9641 34.3633 34.8778 34.1648 34.7051C34.023 34.59 34.023 34.5324 33.8813 34.4173C33.0874 33.6979 32.2935 33.4389 31.7548 33.0936C30.7341 33.036 30.6774 33.554 30.3088 34.331C29.8836 35.2231 29.6567 35.2806 29.2598 35.7411C28.5793 36.5181 27.6437 37.3526 27.4452 38.9353Z" fill="#140002"/>
<path fill-rule="evenodd" clip-rule="evenodd" d="M12.9571 37.2662C13.5808 37.1223 14.5448 37.3813 15.2536 37.3525C18.1172 37.2374 17.7486 36.2302 18.3157 35.5971C18.5709 35.3094 19.1946 34.6763 19.5632 34.5612C19.6483 34.331 19.705 34.2446 19.7333 33.9281C18.2873 32.8346 14.8283 32.1727 12.5885 32.4029C11.1709 32.5468 6.29423 33.2662 5.61377 34.2158C6.26588 35.4533 9.2996 36.4317 10.8023 36.777L12.9571 37.2662Z" fill="#140002"/>
<path fill-rule="evenodd" clip-rule="evenodd" d="M50.2123 53.4964L51.4315 52.4316C51.6016 52.2877 52.3104 51.5971 52.3954 51.2518C52.764 49.9568 51.233 49.41 50.0705 49.4676C48.8514 49.5252 43.9181 50.187 43.6912 51.5108C43.4928 52.7482 45.1089 53.2086 46.2713 53.0647C47.9158 52.8633 47.774 52.1151 48.738 51.4532L49.3617 51.6546C49.6453 52.6331 49.2767 53.0935 48.7096 53.6115C48.4261 53.8417 48.1426 53.9856 47.8023 54.1583C47.4338 54.3309 47.0935 54.446 47.2353 54.9352C47.859 55.1079 48.4261 54.5899 48.8514 54.3021L49.8154 53.5827C50.2407 53.3813 49.8721 53.5252 50.2123 53.4964Z" fill="#140002"/>
<path fill-rule="evenodd" clip-rule="evenodd" d="M58.066 71.9136C58.2361 72.2589 58.2077 72.2014 58.6897 72.2589C58.9732 71.8561 59.0583 71.9712 59.4552 71.223L58.8598 71.1654C58.8598 70.1294 59.5119 69.5827 58.8882 68.8057L58.5196 68.7194C58.066 69.2949 55.9395 72.2877 55.0606 72.0575C54.692 71.1079 56.2797 69.2086 56.3081 68.4028L56.1096 68.0575C55.4575 68.0863 55.5142 68.3165 55.174 68.8057C54.7204 69.4963 53.6997 71.9424 53.9265 72.4891C54.2951 73.3812 55.2024 72.7769 55.7127 72.4028C55.9962 72.2014 55.9679 72.115 56.1947 71.8848L57.6123 70.5035C57.8391 70.2445 57.8108 70.187 58.0943 69.9856C57.9242 70.7338 57.6974 71.1366 58.066 71.9136Z" fill="#140002"/>
<path fill-rule="evenodd" clip-rule="evenodd" d="M61.2981 69.7842L61.3831 69.8417C61.8368 70.3021 62.0069 70.8489 61.6099 71.3957C60.9295 72.2878 60.3908 71.8273 59.9371 71.9424C60.1072 72.518 60.731 72.4316 61.2414 72.259C61.4965 72.1726 61.5816 72.0863 61.8084 71.9424L62.4038 71.482C62.4322 71.1654 62.3471 71.5108 62.5172 71.0791C62.5739 70.9352 62.6306 70.8201 62.6306 70.6762C62.7157 69.7842 60.7877 67.9137 62.9709 66.9352C64.0483 66.446 63.9915 67.1079 64.4735 67.1942C64.5019 66.5899 64.0482 66.3309 63.5096 66.1583C62.5456 65.9856 61.695 66.7914 61.3831 67.2518C60.731 68.1439 60.8444 68.8057 61.2981 69.7842Z" fill="#140002"/>
<path fill-rule="evenodd" clip-rule="evenodd" d="M33.456 37.3525C32.3786 38.2734 33.2008 39.3382 34.1932 39.7698C34.9587 40.0863 36.5181 40.7194 37.3686 40.4029C37.3686 39.741 36.5181 39.4245 35.5824 38.7051C34.902 38.1871 34.0231 37.3525 33.456 37.3525Z" fill="#140002"/>
<path fill-rule="evenodd" clip-rule="evenodd" d="M58.5763 22.1871L59.115 22.2446H59.4552L59.9939 22.2159V21.7267L59.4552 21.6979H59.115L58.6046 21.7267L58.5763 22.1871Z" fill="#140002"/>
<path fill-rule="evenodd" clip-rule="evenodd" d="M55.9678 23.482C56.5348 23.5683 57.4421 23.6259 57.9241 23.4532H56.0812V19.7698C55.741 20.6619 56.1663 22.4173 55.9678 23.482Z" fill="#856D5A"/>
<path fill-rule="evenodd" clip-rule="evenodd" d="M44.9954 21.8993L44.9103 21.5827V20.2877L45.5625 20.3165C45.3356 20.2014 45.846 20.259 45.2789 20.2014C44.9387 20.1726 45.1372 20.1726 44.882 20.259L44.8536 21.9856L44.9954 21.8993Z" fill="#6B5448"/>
<path fill-rule="evenodd" clip-rule="evenodd" d="M27.6721 72.0863L27.5587 72.1151C27.3602 72.259 27.4169 71.9424 27.3885 72.3453C27.8705 72.2302 27.502 72.3453 27.6721 72.0863Z" fill="#5F4A3F"/>
<path fill-rule="evenodd" clip-rule="evenodd" d="M64.2184 22.3022C63.9916 22.187 63.9632 22.4748 64.0766 22.1007L63.9065 22.3885L64.2184 22.3022Z" fill="#6F574B"/>
<path fill-rule="evenodd" clip-rule="evenodd" d="M23.7594 72.7194L23.6744 72.6619L23.5043 72.8057L23.7594 72.7194Z" fill="#675044"/>
</g>
<defs>
<filter id="filter0_i" x="0" y="0" width="74" height="84" filterUnits="userSpaceOnUse" color-interpolation-filters="sRGB">
<feFlood flood-opacity="0" result="BackgroundImageFix"/>
<feBlend mode="normal" in="SourceGraphic" in2="BackgroundImageFix" result="shape"/>
<feColorMatrix in="SourceAlpha" type="matrix" values="0 0 0 0 0 0 0 0 0 0 0 0 0 0 0 0 0 0 127 0" result="hardAlpha"/>
<feOffset dy="4"/>
<feGaussianBlur stdDeviation="2"/>
<feComposite in2="hardAlpha" operator="arithmetic" k2="-1" k3="1"/>
<feColorMatrix type="matrix" values="0 0 0 0 0 0 0 0 0 0 0 0 0 0 0 0 0 0 0.25 0"/>
<feBlend mode="normal" in2="shape" result="effect1_innerShadow"/>
</filter>
</defs>
</svg>
