<svg width="12" height="8" viewBox="0 0 12 8" fill="none" xmlns="http://www.w3.org/2000/svg">
<path fill-rule="evenodd" clip-rule="evenodd" d="M10.1714 5.49367C10.1714 5.49367 11.0836 6.5158 11.3092 6.98879C11.3136 6.99561 11.317 7.00317 11.3194 7.01119C11.4113 7.18592 11.4339 7.32289 11.3888 7.42402C11.3126 7.59107 11.0548 7.67491 10.9674 7.68195H9.35506C9.24279 7.68195 9.00924 7.64867 8.72492 7.42594C8.50772 7.25377 8.29166 6.97023 8.08236 6.69309C7.76983 6.28155 7.49961 5.92441 7.226 5.92441C7.19145 5.92433 7.15712 5.93082 7.12446 5.94361C6.91742 6.01786 6.65453 6.35259 6.65453 7.24417C6.65453 7.52322 6.46047 7.68195 6.32451 7.68195H5.58606C5.33445 7.68195 4.02452 7.58211 2.86296 6.19259C1.43965 4.49137 0.161311 1.07869 0.1489 1.04861C0.0693564 0.827796 0.236341 0.707469 0.416865 0.707469H2.04497C2.26329 0.707469 2.33437 0.857238 2.38401 0.991646C2.44155 1.14589 2.6548 1.76289 3.00456 2.45605C3.57096 3.5838 3.91903 4.0427 4.19715 4.0427C4.2494 4.04288 4.30077 4.02742 4.34608 3.9979C4.70939 3.77133 4.64169 2.29924 4.62477 1.99586C4.62477 1.93698 4.6242 1.33855 4.43804 1.04925C4.3049 0.841877 4.07812 0.761232 3.94103 0.731791C3.9777 0.671627 4.05555 0.579462 4.1554 0.525059C4.40419 0.384251 4.85381 0.36377 5.30004 0.36377H5.54769C6.03172 0.37145 6.15696 0.406652 6.33297 0.457215C6.68725 0.55322 6.69402 0.813716 6.66299 1.70081C6.65397 1.95426 6.64438 2.23972 6.64438 2.57574C6.64438 2.64742 6.64156 2.72743 6.64156 2.80871C6.63084 3.26378 6.61673 3.77645 6.89993 3.98702C6.93666 4.01298 6.97907 4.02673 7.02235 4.0267C7.12051 4.0267 7.41442 4.0267 8.21155 2.47461C8.56132 1.78913 8.8321 0.980765 8.85072 0.919962C8.86651 0.88604 8.9139 0.790674 8.97144 0.752272C9.01238 0.727563 9.05823 0.71522 9.10458 0.71643H11.0198C11.2286 0.71643 11.3702 0.752272 11.3978 0.841877C11.4441 0.987166 11.3888 1.43071 10.5144 2.77223C10.3671 2.9956 10.2379 3.18889 10.1245 3.35786C9.33193 4.53809 9.33193 4.59761 10.1714 5.49367Z" fill="url(#paint0_linear)"/>
<defs>
<linearGradient id="paint0_linear" x1="5.40322" y1="0.36377" x2="8.50132" y2="6.24249" gradientUnits="userSpaceOnUse">
<stop stop-color="#54B991"/>
<stop offset="1" stop-color="#54B3B9"/>
</linearGradient>
</defs>
</svg>
