<svg width="42" height="42" viewBox="0 0 42 42" fill="none" xmlns="http://www.w3.org/2000/svg">
<g clip-path="url(#clip0)">
<path d="M6.82828 19.7147C5.95275 20.5902 5.95275 22.0151 6.82828 22.8992C7.70382 23.7747 9.12871 23.7747 10.0128 22.8992C16.0729 16.8391 25.9356 16.8391 31.9957 22.8992C32.4334 23.337 33.0085 23.5602 33.5837 23.5602C34.1588 23.5602 34.7339 23.337 35.1716 22.8992C36.0472 22.0237 36.0472 20.5988 35.1716 19.7147C27.3605 11.8949 14.6394 11.8949 6.82828 19.7147Z" fill="url(#paint0_linear)"/>
<path d="M12.9057 25.7919C12.0301 26.6674 12.0301 28.0923 12.9057 28.9764C13.7812 29.852 15.2061 29.852 16.0902 28.9764C18.7941 26.264 23.2061 26.264 25.91 28.9764C26.3477 29.4142 26.9228 29.6374 27.4979 29.6374C28.0731 29.6374 28.6482 29.4142 29.0859 28.9764C29.9615 28.1009 29.9615 26.676 29.0859 25.8005C24.631 21.3284 17.3692 21.3284 12.9057 25.7919Z" fill="url(#paint1_linear)"/>
<path d="M20.9999 36.8735C22.6543 36.8735 23.9956 35.5323 23.9956 33.8778C23.9956 32.2233 22.6543 30.8821 20.9999 30.8821C19.3454 30.8821 18.0042 32.2233 18.0042 33.8778C18.0042 35.5323 19.3454 36.8735 20.9999 36.8735Z" fill="url(#paint2_linear)"/>
<path d="M41.3433 13.5344C30.1245 2.32413 11.8755 2.32413 0.656652 13.5344C-0.218884 14.41 -0.218884 15.8349 0.656652 16.719C1.53219 17.5945 2.95708 17.5945 3.8412 16.719C13.3004 7.25117 28.6996 7.25117 38.1674 16.719C38.6051 17.1568 39.1803 17.3799 39.7554 17.3799C40.3305 17.3799 40.9056 17.1568 41.3433 16.719C42.2189 15.8434 42.2189 14.4186 41.3433 13.5344Z" fill="url(#paint3_linear)"/>
</g>
<defs>
<linearGradient id="paint0_linear" x1="20.0361" y1="13.8499" x2="22.5123" y2="23.1578" gradientUnits="userSpaceOnUse">
<stop stop-color="#54B991"/>
<stop offset="1" stop-color="#54B3B9"/>
</linearGradient>
<linearGradient id="paint1_linear" x1="20.4273" y1="22.4453" x2="22.6456" y2="29.0863" gradientUnits="userSpaceOnUse">
<stop stop-color="#54B991"/>
<stop offset="1" stop-color="#54B3B9"/>
</linearGradient>
<linearGradient id="paint2_linear" x1="20.8051" y1="30.8821" x2="23.8148" y2="34.5863" gradientUnits="userSpaceOnUse">
<stop stop-color="#54B991"/>
<stop offset="1" stop-color="#54B3B9"/>
</linearGradient>
<linearGradient id="paint3_linear" x1="19.635" y1="5.12671" x2="22.4576" y2="17.0344" gradientUnits="userSpaceOnUse">
<stop stop-color="#54B991"/>
<stop offset="1" stop-color="#54B3B9"/>
</linearGradient>
<clipPath id="clip0">
<rect width="42" height="42" fill="white"/>
</clipPath>
</defs>
</svg>
