<svg width="20" height="50" viewBox="0 0 20 50" fill="none" xmlns="http://www.w3.org/2000/svg">
<path d="M9.22018 49.6379L0.321101 40.8571C0.107034 40.6459 0 40.3894 0 40.0877C0 39.786 0.107034 39.5295 0.321101 39.3182L1.33028 38.3225C1.54434 38.1113 1.80428 38.0057 2.11009 38.0057C2.4159 37.9755 2.67584 38.066 2.88991 38.2772L10 45.2928L17.1101 38.2772C17.3242 38.066 17.5841 37.9755 17.8899 38.0057C18.1957 38.0057 18.4557 38.1113 18.6697 38.3225L19.6789 39.3182C19.893 39.5295 20 39.786 20 40.0877C20 40.3894 19.893 40.6459 19.6789 40.8571L10.7798 49.6379C10.5657 49.8793 10.3058 50 10 50C9.69419 50 9.43425 49.8793 9.22018 49.6379Z" fill="#180004"/>
<path d="M9.22018 30.6379L0.321101 21.8571C0.107034 21.6459 0 21.3894 0 21.0877C0 20.786 0.107034 20.5295 0.321101 20.3182L1.33028 19.3225C1.54434 19.1113 1.80428 19.0057 2.11009 19.0057C2.4159 18.9755 2.67584 19.066 2.88991 19.2772L10 26.2928L17.1101 19.2772C17.3242 19.066 17.5841 18.9755 17.8899 19.0057C18.1957 19.0057 18.4557 19.1113 18.6697 19.3225L19.6789 20.3182C19.893 20.5295 20 20.786 20 21.0877C20 21.3894 19.893 21.6459 19.6789 21.8571L10.7798 30.6379C10.5657 30.8793 10.3058 31 10 31C9.69419 31 9.43425 30.8793 9.22018 30.6379Z" fill="#180004"/>
<path d="M9.22018 11.6379L0.321101 2.85714C0.107034 2.64592 0 2.38944 0 2.08769C0 1.78595 0.107034 1.52947 0.321101 1.31825L1.33028 0.322489C1.54434 0.111268 1.80428 0.00565771 2.11009 0.00565771C2.4159 -0.0245167 2.67584 0.0660066 2.88991 0.277228L10 7.29279L17.1101 0.277228C17.3242 0.0660066 17.5841 -0.0245167 17.8899 0.00565771C18.1957 0.00565771 18.4557 0.111268 18.6697 0.322489L19.6789 1.31825C19.893 1.52947 20 1.78595 20 2.08769C20 2.38944 19.893 2.64592 19.6789 2.85714L10.7798 11.6379C10.5657 11.8793 10.3058 12 10 12C9.69419 12 9.43425 11.8793 9.22018 11.6379Z" fill="#180004"/>
</svg>
