<svg width="97" height="132" viewBox="0 0 97 132" fill="none" xmlns="http://www.w3.org/2000/svg">
<path d="M18.5761 18.6161C18.4863 18.6215 18.4863 18.6215 18.5761 18.6161C18.4863 18.6215 18.4863 18.6215 18.5761 18.6161ZM48.4608 19.4066C48.4608 19.4066 48.4661 19.4932 48.5559 19.4878L48.6457 19.4823C48.5506 19.4012 48.5506 19.4012 48.4608 19.4066C48.4555 19.32 48.4555 19.32 48.4608 19.4066ZM19.0304 18.6753C18.8665 18.946 18.8665 18.946 19.1412 19.0162C19.136 18.9296 19.0356 18.7619 19.0304 18.6753ZM82.2422 102.09C82.3215 101.911 82.3109 101.738 82.2106 101.57C82.2106 101.57 82.1155 101.489 82.031 101.581C82.031 101.581 81.9464 101.673 81.9517 101.76C81.9569 101.847 82.052 101.928 82.2422 102.09ZM84.5423 92.477C84.5318 92.3038 84.4367 92.2227 84.3469 92.2281C84.2571 92.2336 84.1725 92.3257 84.1778 92.4123L84.1831 92.4989C84.1883 92.5854 84.2834 92.6666 84.3732 92.6611C84.463 92.6556 84.5528 92.6502 84.5423 92.477ZM46.4745 19.3536C46.485 19.5267 46.4903 19.6133 46.5854 19.6945C46.6857 19.8622 46.8706 19.9379 46.9551 19.8458C47.0397 19.7538 46.9393 19.586 46.8442 19.5049C46.7544 19.5104 46.6646 19.5158 46.4745 19.3536ZM24.8735 16.9296C24.8841 17.1028 24.8893 17.1893 24.8946 17.2759C24.9949 17.4437 25.1851 17.6059 25.37 17.6816L25.4598 17.6761L25.5443 17.5841C25.3542 17.4218 25.2486 17.1675 24.8735 16.9296ZM85.149 120.251C85.1385 120.078 85.1279 119.905 85.2125 119.813C84.8427 119.661 84.8427 119.661 84.7634 119.84C84.5944 120.024 84.6102 120.284 84.7105 120.452C84.795 120.36 84.8743 120.181 85.149 120.251ZM74.8341 109.232C74.7443 109.238 74.6597 109.33 74.4854 109.427L74.4906 109.514C74.5012 109.687 74.686 109.763 74.8657 109.752C75.0453 109.741 75.2196 109.643 75.2144 109.557C75.2989 109.465 75.1035 109.216 74.8341 109.232ZM11.8124 25.98C12.0026 26.1422 12.0976 26.2234 12.198 26.3911C12.2931 26.4722 12.3881 26.5533 12.573 26.629C12.573 26.629 12.6628 26.6236 12.7526 26.6181C12.7526 26.6181 12.8372 26.5261 12.8319 26.4395C12.8214 26.2663 12.721 26.0986 12.626 26.0174C12.5309 25.9363 12.4358 25.8552 12.3513 25.9472C12.2667 26.0393 12.1769 26.0447 12.0818 25.9636C11.9868 25.8825 11.9022 25.9745 11.8124 25.98ZM72.0082 107.231C72.1191 107.572 72.1349 107.832 72.2405 108.086C72.3461 108.341 72.3461 108.341 72.7053 108.319C72.679 107.886 72.5681 107.545 72.452 107.118C72.2776 107.215 72.1878 107.221 72.0082 107.231ZM17.5941 15.8077C17.425 15.9918 17.2348 15.8296 17.0605 15.9271C17.0657 16.0137 17.0763 16.1869 17.1713 16.268C17.1766 16.3546 17.2769 16.5223 17.2822 16.6089C17.4881 17.0309 17.7786 17.3609 17.9846 17.7829C17.9898 17.8695 18.0849 17.9506 18.1747 17.9452C18.1747 17.9452 18.2645 17.9397 18.3543 17.9343C18.3543 17.9343 18.4389 17.8422 18.3491 17.8477C18.2487 17.6799 18.2382 17.5068 18.1378 17.339C18.0375 17.1713 17.9425 17.0902 18.0217 16.9116C18.1115 16.9061 18.2066 16.9872 18.2013 16.9006C18.2859 16.8086 18.2806 16.722 18.1856 16.6409C18.08 16.3866 17.8845 16.1377 17.5941 15.8077ZM49.1744 17.7989C49.1849 17.9721 49.1901 18.0587 49.2007 18.2318C49.2112 18.405 49.3063 18.4862 49.3168 18.6593C49.3326 18.9191 49.4329 19.0868 49.6231 19.2491C49.7181 19.3302 49.7287 19.5034 49.8237 19.5845C49.8343 19.7577 49.8395 19.8443 49.85 20.0175C49.8606 20.1906 49.9557 20.2718 50.0507 20.3529C50.2356 20.4286 50.336 20.5963 50.6001 20.4933C50.5896 20.3201 50.6689 20.1415 50.5738 20.0604C50.4524 19.5463 50.2465 19.1243 50.0405 18.7022C49.9297 18.3613 49.4754 18.302 49.3645 17.9611C49.3645 17.9611 49.2694 17.88 49.1796 17.8855C49.2642 17.7934 49.2642 17.7934 49.1744 17.7989ZM73.2557 104.027C73.1658 104.032 73.076 104.038 72.9862 104.043C72.7168 104.06 72.7221 104.146 72.6428 104.325C72.648 104.411 72.6586 104.585 72.7536 104.666C72.9385 104.741 72.9491 104.915 72.9596 105.088C73.0705 105.429 73.0862 105.688 73.1971 106.029C73.2076 106.202 73.2181 106.376 73.1336 106.468C72.9803 106.912 73.0014 107.258 73.2073 107.68C73.2918 107.588 73.3764 107.496 73.556 107.485C73.6458 107.48 73.7356 107.474 73.8307 107.555C73.9258 107.636 74.0208 107.717 74.1106 107.712C74.1847 107.447 74.2587 107.182 74.1531 106.927C74.058 106.846 74.1373 106.667 74.2218 106.575C74.3909 106.391 74.3751 106.132 74.4544 105.953C74.5337 105.774 74.4281 105.52 74.3278 105.352C74.2274 105.185 74.1271 105.017 73.9475 105.028C73.7679 105.039 73.6675 104.871 73.6623 104.784C73.4616 104.449 73.3613 104.281 73.2557 104.027ZM24.7716 24.1493C25.1414 24.3006 25.2469 24.5549 25.4424 24.8038C25.4476 24.8904 25.5374 24.8849 25.5427 24.9715C25.7171 24.874 25.8967 24.8631 25.9865 24.8576C26.1503 24.5869 26.145 24.5003 25.9549 24.3381C25.7648 24.1758 25.5746 24.0136 25.4743 23.8458C25.2048 23.8622 24.9354 23.8786 24.7558 23.8895C24.5604 23.6407 24.3702 23.4784 24.3544 23.2186C24.3439 23.0455 24.2489 22.9643 24.2383 22.7912C24.0219 22.1959 23.8952 21.5953 23.5044 21.0976C23.1188 20.6865 22.8231 20.2699 22.2684 20.0429C21.9885 19.8861 21.6345 19.9945 21.6556 20.3409C21.6661 20.514 21.6766 20.6872 21.6819 20.7738C21.8878 21.1958 22.099 21.7044 22.3948 22.121C22.6905 22.5376 22.9915 23.0407 23.2873 23.4573C23.6886 24.1282 24.1745 24.707 24.5758 25.3779C24.6762 25.5456 24.8558 25.5347 25.0407 25.6104C25.1992 25.2531 25.0884 24.9122 24.8877 24.5768C24.8772 24.4036 24.8719 24.317 24.7716 24.1493ZM83.16 108.292C83.1653 108.378 83.1705 108.465 83.2656 108.546C83.2551 108.373 83.16 108.292 83.16 108.292L83.1547 108.205C83.1547 108.205 83.1495 108.119 83.1442 108.032L83.0597 108.124C82.9751 108.216 83.0702 108.297 83.16 108.292ZM23.16 25.8116C22.9698 25.6494 22.8642 25.3951 22.5102 25.5035C22.4204 25.509 22.3253 25.4278 22.2303 25.3467C22.1352 25.2656 21.9503 25.1899 21.8553 25.1088C21.7707 25.2008 21.776 25.2874 21.6914 25.3794C21.3217 25.2281 21.1263 24.9793 20.9256 24.6438C20.8305 24.5627 20.9098 24.384 20.8993 24.2109C20.894 24.1243 20.9785 24.0322 20.9733 23.9456C20.9628 23.7724 20.9575 23.6858 20.8571 23.5181C20.7621 23.437 20.7568 23.3504 20.6618 23.2693C20.1071 23.0423 19.8959 22.5337 19.6002 22.1171C19.41 21.9548 19.3044 21.7005 19.2886 21.4407C19.2833 21.3542 19.2781 21.2676 19.183 21.1864C18.9876 20.9376 18.9718 20.6778 18.956 20.4181C18.9455 20.2449 18.8504 20.1638 18.8399 19.9906C18.6392 19.6551 18.4333 19.2331 18.2273 18.8111C18.1112 18.3836 17.8155 17.967 17.5197 17.5504C17.2187 17.0473 17.0023 16.4521 16.5269 16.0464C16.4318 15.9653 16.4265 15.8787 16.3262 15.711C16.2153 15.3701 16.0147 15.0346 15.7242 14.7047C15.5235 14.3692 15.2383 14.1258 15.1222 13.6983C15.0166 13.444 14.911 13.1897 14.6363 13.1195C14.33 12.5298 13.9444 12.1187 13.728 11.5234C13.6171 11.1826 13.4112 10.7605 13.3003 10.4196C13.295 10.333 13.1102 10.2574 13.1049 10.1708C12.9095 9.92192 12.6295 9.76512 12.6085 9.41877C12.6032 9.33217 12.5134 9.33762 12.5081 9.25103C12.2387 9.26741 12.1279 8.92651 11.943 8.85084C11.8584 8.94289 11.7686 8.94836 11.6841 9.04041C11.589 8.95928 11.589 8.95927 11.4939 8.87814C11.3989 8.79701 11.3038 8.71588 11.3831 8.53724C11.4623 8.3586 11.6525 8.52087 11.7423 8.51541C11.8268 8.42336 11.9959 8.23926 12.0752 8.06062C12.519 7.94674 12.8835 8.01148 13.174 8.34146C13.3641 8.50372 13.4697 8.75804 13.6599 8.9203C13.7549 9.00143 13.755 9.00144 13.8448 8.99598C13.8395 8.90939 13.8342 8.82278 13.9188 8.73073C14.0086 8.72527 14.1036 8.80641 14.1036 8.80641C14.2092 9.06072 14.2303 9.40707 14.3359 9.66139C14.4415 9.91569 14.6317 10.078 14.8271 10.3268C15.2179 10.8245 15.6087 11.3222 16.0048 11.9065C16.1051 12.0742 16.3005 12.3231 16.4009 12.4908C16.5065 12.7451 16.7917 12.9885 16.8973 13.2428C17.1931 13.6594 17.4888 14.076 17.7845 14.4925C17.9852 14.828 18.1859 15.1634 18.4711 15.4068C18.6665 15.6556 18.7721 15.9099 18.7879 16.1697C18.7932 16.2563 18.8037 16.4295 18.8988 16.5106C19.2103 17.1869 19.5218 17.8633 20.0077 18.4421C20.0077 18.4421 20.0975 18.4366 20.1028 18.5232C20.1821 18.3446 20.1768 18.258 20.1663 18.0848C20.2561 18.0794 20.3512 18.1605 20.441 18.155C20.5413 18.3228 20.7315 18.485 20.8318 18.6528C21.0114 18.6418 21.1065 18.7229 21.2861 18.712C21.5608 18.7822 21.7404 18.7713 21.9043 18.5006C21.9888 18.4086 22.1684 18.3977 22.3586 18.5599C22.4589 18.7277 22.6438 18.8033 22.7441 18.9711C22.9395 19.2199 23.1244 19.2956 23.3991 19.3658C23.6685 19.3494 23.8534 19.4251 24.0383 19.5007C24.1281 19.4953 24.2179 19.4898 24.2179 19.4898C24.3025 19.3978 24.2074 19.3166 24.2021 19.2301C24.0965 18.9757 23.9962 18.808 24.0702 18.5428C24.1442 18.2775 24.1284 18.0178 24.1126 17.758C24.0968 17.4982 24.0863 17.3251 24.0705 17.0653C24.2501 17.0544 24.34 17.0489 24.5248 17.1246C24.509 16.8648 24.4034 16.6105 24.3876 16.3507C24.4775 16.3453 24.5673 16.3398 24.7469 16.3289C25.1061 16.3071 25.365 16.1175 25.439 15.8523C25.4338 15.7657 25.5236 15.7602 25.5183 15.6737C26.1365 15.4623 26.8602 15.5052 27.4096 15.6456C27.7583 15.4506 28.0172 15.261 28.4715 15.3203C28.6616 15.4826 28.9416 15.6394 29.2216 15.7962C29.5068 16.0396 29.8765 16.1909 30.2463 16.3422C30.4312 16.4179 30.7059 16.4881 30.9858 16.6449C31.1602 16.5474 31.1391 16.2011 31.5934 16.2604C31.7836 16.4226 31.979 16.6715 31.8204 17.0287C31.7464 17.294 31.7569 17.4671 31.8573 17.6348C31.9629 17.8892 31.9734 18.0624 32.079 18.3167C32.1688 18.3112 32.1741 18.3978 32.2639 18.3923C32.8133 18.5328 33.109 18.9493 33.1406 19.4689C33.1617 19.8152 33.3571 20.0641 33.637 20.2209C33.8272 20.3831 34.0173 20.5454 34.2075 20.7077C34.4029 20.9565 34.6828 21.1133 34.873 21.2756C35.2533 21.6001 35.5385 21.8435 35.8342 22.26C36.13 22.6766 36.5103 23.0011 36.8958 23.4122L36.9856 23.4068C37.16 23.3093 37.0649 23.2281 37.0544 23.055C37.0439 22.8818 37.0281 22.622 36.8379 22.4598C36.3626 22.0541 36.1514 21.5455 35.7553 20.9612C35.9402 21.0369 36.03 21.0314 36.1198 21.0259C36.2096 21.0205 36.2941 20.9284 36.3839 20.923C36.4685 20.8309 36.5583 20.8255 36.7327 20.728C36.9123 20.7171 37.0074 20.7982 37.187 20.7872C37.3666 20.7763 37.4564 20.7709 37.636 20.7599C37.8262 20.9222 38.1061 21.079 38.4654 21.0572C38.645 21.0463 38.74 21.1274 38.9249 21.2031C39.4743 21.3435 39.7385 21.2405 39.971 20.618C39.9658 20.5314 40.0451 20.3528 40.0398 20.2662C40.2247 20.3419 40.3197 20.423 40.5099 20.5852C40.5152 20.6718 40.5257 20.845 40.531 20.9316C40.5362 21.0182 40.6313 21.0993 40.6366 21.1859C40.7369 21.3536 40.9218 21.4293 41.0961 21.3318C41.2705 21.2343 41.3498 21.0557 41.2494 20.8879C41.0593 20.7257 41.0435 20.4659 40.9379 20.2116C40.8428 20.1305 40.8323 19.9573 40.827 19.8707C40.8112 19.6109 40.7162 19.5298 40.526 19.3675C40.3359 19.2053 40.0506 18.9619 39.945 18.7076C39.7496 18.4587 39.5595 18.2965 39.2743 18.0531C39.1792 17.9719 39.0841 17.8908 39.0789 17.8042C38.9785 17.6365 38.8782 17.4688 39.0473 17.2847C39.1318 17.1926 39.2164 17.1006 39.2111 17.014C39.6496 16.8135 39.8503 17.149 40.2201 17.3003C40.3046 17.2083 40.3839 17.0296 40.3786 16.943C40.4579 16.7644 40.3576 16.5967 40.5267 16.4126C40.606 16.2339 40.5954 16.0607 40.6747 15.8821C40.754 15.7035 40.8333 15.5248 40.9126 15.3462C40.9073 15.2596 40.9073 15.2596 40.902 15.173C40.6168 14.9296 40.6168 14.9296 40.601 14.6699C40.6855 14.5778 40.8704 14.6535 40.9602 14.648C41.1399 14.6371 41.3247 14.7128 41.5942 14.6964C41.684 14.6909 41.7738 14.6855 41.8636 14.68C42.1278 14.5771 42.2969 14.393 42.561 14.29C42.4502 13.9491 41.906 13.8953 42.0593 13.4514C42.1439 13.3593 42.2337 13.3539 42.3288 13.435C42.6087 13.5918 42.9732 13.6566 43.1739 13.992C43.1791 14.0786 43.364 14.1543 43.4539 14.1488C43.9134 14.2947 44.1141 14.6301 44.3993 14.8735C44.4944 14.9546 44.5947 15.1224 44.6951 15.2901C44.8957 15.6255 45.0911 15.8744 45.5507 16.0202C45.6458 16.1014 45.7356 16.0959 45.8307 16.177C46.0156 16.2527 46.1159 16.4204 46.3008 16.4961C46.3959 16.5772 46.4962 16.745 46.5913 16.8261C47.0456 16.8854 47.5052 17.0313 47.7956 17.3612C48.0861 17.6912 48.0861 17.6912 48.1124 18.1242C48.0226 18.1296 47.9328 18.1351 47.9381 18.2217C47.8483 18.2271 47.8535 18.3137 47.769 18.4058C47.7742 18.4924 47.8693 18.5735 47.8693 18.5735L47.9644 18.6546C48.1493 18.7303 48.4187 18.7139 48.6934 18.7841C48.4875 18.3621 48.551 17.9237 48.2552 17.5071C48.0545 17.1717 47.9437 16.8308 47.9173 16.3978C47.9068 16.2247 47.9808 15.9594 48.2502 15.943C48.3401 15.9376 48.4246 15.8455 48.5092 15.7535C48.5937 15.6614 48.6782 15.5694 48.7628 15.4773C48.8579 15.5585 48.8631 15.6451 48.8631 15.6451C48.8789 15.9048 48.8895 16.078 49.0796 16.2403C49.3754 16.6568 49.5813 17.0789 49.9616 17.4034C49.9774 17.6632 50.1675 17.8254 50.3524 17.9011L50.4475 17.9822C50.6587 18.4908 51.039 18.8154 51.34 19.3185C51.3505 19.4917 51.361 19.6649 51.1867 19.7624C51.0123 19.8599 51.0281 20.1197 51.0386 20.2929C51.1758 21.0667 51.5719 21.651 52.3114 21.9537C52.5914 22.1105 52.6759 22.0184 52.7447 21.6666L52.7394 21.58C52.919 21.5691 52.9033 21.3093 52.9878 21.2173C53.0829 21.2984 53.1779 21.3795 53.1832 21.4661C53.1197 21.9045 53.3256 22.3266 53.6161 22.6565C54.102 23.2354 54.6725 23.7222 55.0685 24.3064C55.3643 24.723 55.9242 25.0366 56.3045 25.3611L56.3996 25.4423C56.8486 25.415 57.1338 25.6584 57.3345 25.9938C57.3398 26.0804 57.4348 26.1615 57.5246 26.156C57.8944 26.3074 58.0898 26.5563 58.2852 26.8051C58.4807 27.054 58.7659 27.2973 59.1304 27.3621C59.4949 27.4268 59.7854 27.7568 60.0706 28.0002C60.1656 28.0814 60.266 28.2491 60.4509 28.3247C60.5459 28.4059 60.6463 28.5736 60.6515 28.6602C60.6673 28.9199 60.8575 29.0822 60.868 29.2554C60.9736 29.5097 61.0739 29.6774 61.2641 29.8397C61.3644 30.0074 61.4595 30.0885 61.47 30.2617C61.5809 30.6026 61.6865 30.8569 61.8819 31.1058C61.9822 31.2735 62.0878 31.5278 62.1934 31.7821C62.2885 31.8632 62.299 32.0364 62.3941 32.1175C62.4944 32.2853 62.5948 32.453 62.6951 32.6207C62.7057 32.7939 62.8958 32.9561 62.9961 33.1238C63.0965 33.2916 63.1968 33.4593 63.2073 33.6325C63.2231 33.8922 63.2389 34.152 63.1649 34.4172C63.1807 34.677 63.1912 34.8502 63.2968 35.1045C63.4024 35.3588 63.5133 35.6997 63.6241 36.0406C63.6347 36.2138 63.7403 36.4681 63.9251 36.5438C64.015 36.5383 64.0202 36.6249 64.0255 36.7115C64.2367 37.2201 64.5324 37.6367 64.7436 38.1453C64.7489 38.2319 64.7542 38.3185 64.8493 38.3996C65.145 38.8162 65.3562 39.3248 65.5621 39.7468C65.7681 40.1689 66.0585 40.4988 66.1799 41.0129C66.1852 41.0995 66.1852 41.0995 66.2803 41.1806C66.7556 41.5863 66.8823 42.187 67.0988 42.7822C67.4103 43.4585 67.7271 44.2214 68.0386 44.8978C68.4452 45.6552 68.8519 46.4127 69.2637 47.2568C69.3693 47.5111 69.4749 47.7654 69.5805 48.0197C69.6914 48.3606 69.8921 48.696 70.003 49.0369C70.2036 49.3724 70.2247 49.7187 70.4201 49.9676C70.4201 49.9676 70.4254 50.0542 70.5152 50.0487C70.6471 50.736 71.1382 51.4014 71.36 52.0832C71.4708 52.4241 71.6715 52.7595 71.8722 53.095C71.9725 53.2627 71.983 53.4359 72.0834 53.6036C72.2946 54.1122 72.5005 54.5342 72.7117 55.0429C72.8173 55.2972 72.9282 55.638 73.039 55.9789C73.1394 56.1467 73.2397 56.3144 73.2502 56.4876C73.3506 56.6553 73.4509 56.823 73.5513 56.9907C73.8628 57.6671 74.0845 58.3489 74.3961 59.0252C74.4013 59.1118 74.4964 59.1929 74.5915 59.2741C74.8872 59.6906 75.0984 60.1992 75.13 60.7188C75.1458 60.9786 75.3465 61.314 75.4521 61.5683C75.5682 61.9958 75.7689 62.3312 75.885 62.7587L75.8902 62.8453C76.1755 63.0887 76.2018 63.5217 76.3972 63.7705C76.6877 64.1005 76.8038 64.528 77.0045 64.8634C77.1206 65.2909 77.3213 65.6263 77.3476 66.0593C77.3529 66.1459 77.3529 66.1459 77.3582 66.2325C77.749 66.7302 77.696 67.3417 77.997 67.8449C78.0023 67.9315 78.0023 67.9315 78.0075 68.0181C78.0233 68.2779 77.944 68.4565 78.1394 68.7053C78.2398 68.8731 78.2556 69.1328 78.3559 69.3006C78.4615 69.5549 78.5724 69.8958 78.678 70.1501C78.7836 70.4044 78.8046 70.7507 79.0001 70.9996C79.1955 71.2484 79.3961 71.5839 79.2376 71.9412C79.5333 72.3577 79.734 72.6932 79.7603 73.1261C79.7656 73.2127 79.8606 73.2939 79.8606 73.2939C80.0718 73.8025 80.2778 74.2245 80.4943 74.8197C80.716 75.5015 80.943 76.2699 81.1647 76.9517C81.17 77.0383 81.265 77.1194 81.2703 77.206C81.4762 77.628 81.7667 77.958 81.7032 78.3964C81.7085 78.483 81.8088 78.6507 81.9092 78.8184C82.2154 79.4082 82.4372 80.09 82.6589 80.7718C82.6642 80.8584 82.6642 80.8584 82.7593 80.9395C82.9652 81.3615 83.1711 81.7836 83.2027 82.3031C83.2185 82.5629 83.4139 82.8117 83.4297 83.0715C83.6514 83.7533 83.8784 84.5217 84.1001 85.2035C84.2005 85.3712 84.1265 85.6364 84.2268 85.8041C84.4327 86.2262 84.5541 86.7402 84.6702 87.1677C84.6808 87.3409 84.7759 87.422 84.7864 87.5952C84.8127 88.0282 85.0081 88.277 85.1242 88.7045C85.1348 88.8777 85.3302 89.1265 85.5996 89.1102C85.7792 89.0992 85.9536 89.0017 86.0276 88.7365C86.0223 88.6499 86.1016 88.4713 86.0963 88.3847C86.0805 88.1249 86.0648 87.8652 86.0437 87.5188C86.0226 87.1724 85.9118 86.8315 85.8009 86.4906C85.7957 86.404 85.7851 86.2309 85.8697 86.1388C85.9489 85.9602 86.0335 85.8681 86.1128 85.6895C86.2079 85.7706 86.2977 85.7652 86.3029 85.8518C86.4138 86.1927 86.6145 86.5281 86.6408 86.961C86.6513 87.1342 86.7464 87.2153 86.7569 87.3885C86.8783 87.9026 86.9944 88.3301 87.1158 88.8442C87.1316 89.1039 87.1421 89.2771 87.1579 89.5369C86.9889 89.721 86.9043 89.813 86.6401 89.916C86.2862 90.0244 85.9427 90.3061 85.5835 90.3279C85.4937 90.3333 85.4091 90.4254 85.3246 90.5174C85.1608 90.7881 85.0868 91.0533 85.1976 91.3942C85.3032 91.6486 85.319 91.9083 85.4246 92.1626C85.5355 92.5035 85.3716 92.7742 85.0229 92.9693C84.5051 93.3484 84.4206 93.4404 84.7269 94.0302C84.8272 94.1979 84.8377 94.3711 84.843 94.4576C84.864 94.804 84.9696 95.0583 85.0805 95.3992C85.2917 95.9078 85.5029 96.4165 85.6295 97.0171C85.6506 97.3635 85.846 97.6123 85.9569 97.9532C86.1681 98.4619 85.9302 98.9978 85.497 99.2848C85.4072 99.2903 85.3174 99.2958 85.2276 99.3012C85.1378 99.3067 84.9581 99.3176 84.8683 99.3231C84.5091 99.3449 84.2502 99.5345 84.3663 99.9619C84.4877 100.476 84.3397 101.006 84.3713 101.526C84.3818 101.699 84.3025 101.878 84.0384 101.981C83.864 102.078 83.7794 102.17 83.7054 102.436C83.6156 102.441 83.4413 102.539 83.3514 102.544C83.3514 102.544 83.2616 102.549 83.2564 102.463C83.0662 102.301 82.8708 102.052 82.7705 101.884C82.6754 101.803 82.5856 101.808 82.4905 101.727C82.4165 101.992 82.5221 102.247 82.353 102.431C82.2632 102.436 82.1681 102.355 82.0783 102.361C81.9303 102.891 81.9303 102.891 82.1362 103.313C82.3158 103.302 82.4955 103.291 82.6751 103.28C82.7807 103.535 82.7965 103.794 82.6274 103.979C82.6274 103.979 82.5428 104.071 82.5481 104.157C82.3685 104.168 82.2892 104.347 82.2047 104.439C82.2099 104.525 82.305 104.607 82.3103 104.693C82.3313 105.039 82.3471 105.299 82.5425 105.548C82.6376 105.629 82.6429 105.716 82.6481 105.802C82.6639 106.062 82.6744 106.235 82.6902 106.495C82.7008 106.668 82.7958 106.749 82.9755 106.739C82.9649 106.565 83.0442 106.387 83.0284 106.127C83.0021 105.694 82.9705 105.174 82.8544 104.747C82.7488 104.493 82.9073 104.135 82.6274 103.979C82.7172 103.973 82.8968 103.962 82.9866 103.957C83.1768 104.119 83.2824 104.373 83.2929 104.546C83.3087 104.806 83.4195 105.147 83.4353 105.407C83.4459 105.58 83.4564 105.753 83.6465 105.916C83.7311 105.824 83.8209 105.818 83.8157 105.731C83.8051 105.558 83.8791 105.293 83.7788 105.125C83.6732 104.871 83.7472 104.606 83.7314 104.346L83.816 104.254C83.911 104.335 84.0008 104.33 84.0061 104.416C84.1222 104.844 84.3334 105.352 84.365 105.872C84.3808 106.132 84.4864 106.386 84.2275 106.575C84.1272 106.408 83.8578 106.424 83.8472 106.251C83.8472 106.251 83.7521 106.17 83.6623 106.175C83.5725 106.181 83.5778 106.267 83.488 106.273C83.4192 106.625 83.3505 106.976 83.6357 107.22C83.8258 107.382 83.8364 107.555 83.8416 107.642C83.9525 107.983 84.1532 108.318 84.4384 108.562C84.6285 108.724 84.7394 109.065 84.6654 109.33C84.3061 109.352 84.0367 109.368 83.6775 109.39C83.3554 108.541 83.3607 108.627 82.8218 108.66C82.7267 108.579 82.7268 108.579 82.6422 108.671C82.5524 108.676 82.5524 108.676 82.4626 108.682C82.3728 108.687 82.283 108.693 82.2882 108.779C82.2935 108.866 82.2988 108.952 82.304 109.039C82.304 109.039 82.304 109.039 82.3093 109.126C82.7689 109.271 82.7899 109.618 82.9008 109.959C83.0274 110.559 83.1541 111.16 83.4604 111.75C83.566 112.004 83.5818 112.264 83.6874 112.518C83.9568 112.502 83.8512 112.248 83.9357 112.155C84.1048 111.971 84.3795 112.042 84.649 112.025C84.8391 112.187 85.0345 112.436 85.2299 112.685C85.1454 112.777 84.9763 112.961 84.8917 113.053C84.897 113.14 84.9973 113.308 85.0871 113.302C85.552 113.535 85.5783 113.968 85.7842 114.39C85.7155 114.741 85.9161 115.077 85.9372 115.423C85.9425 115.51 85.9425 115.51 85.9477 115.596C85.8684 115.775 85.6888 115.786 85.5938 115.705C85.4089 115.629 85.2187 115.467 85.0338 115.391C84.9335 115.224 84.923 115.05 85.0023 114.872C85.0815 114.693 85.0763 114.607 84.9759 114.439C84.9759 114.439 85.0658 114.433 85.0605 114.347C85.0605 114.347 85.0658 114.433 84.9759 114.439C84.7911 114.363 84.696 114.282 84.5111 114.206C84.4213 114.212 84.3262 114.131 84.3262 114.131C84.4003 113.865 84.3792 113.519 84.4532 113.254C84.3581 113.173 84.2578 113.005 84.1627 112.924C84.0729 112.929 83.9778 112.848 83.888 112.854C83.8933 112.94 83.8986 113.027 83.9038 113.113C83.8298 113.379 83.8403 113.552 84.1203 113.709C84.1203 113.709 84.1308 113.882 84.1361 113.968C84.2312 114.05 84.321 114.044 84.416 114.125C84.3315 114.217 84.2469 114.309 84.1624 114.401C84.0831 114.58 84.0936 114.753 84.1042 114.926C84.2098 115.181 84.2308 115.527 84.2466 115.787C84.2624 116.047 84.3733 116.387 84.648 116.458C85.0177 116.609 85.1286 116.95 85.324 117.199C85.2395 117.291 85.0704 117.475 84.9858 117.567C84.896 117.572 84.8062 117.578 84.7164 117.583C84.6266 117.589 84.5473 117.767 84.6424 117.849C84.6476 117.935 84.7427 118.016 84.748 118.103C84.7585 118.276 84.9329 118.179 85.028 118.26C85.0437 118.519 85.1493 118.774 85.1651 119.034C85.2707 119.288 85.2865 119.548 85.3921 119.802C85.503 120.143 85.4342 120.495 84.9957 120.695C84.9112 120.787 84.8266 120.879 84.7421 120.971C84.6628 121.15 84.4989 121.421 84.4197 121.599C84.3457 121.864 84.1871 122.222 84.1131 122.487C84.1183 122.574 84.1236 122.66 84.1289 122.747C84.0391 122.752 83.9493 122.758 83.9493 122.758L83.9545 122.844C84.0443 122.839 84.1341 122.833 84.1341 122.833C84.1447 123.006 84.1499 123.093 83.9809 123.277C83.8065 123.375 83.7272 123.553 83.6479 123.732C83.4683 123.743 83.2834 123.667 83.1143 123.851C83.0351 124.03 82.8449 123.868 82.6653 123.879C82.5597 123.624 82.3643 123.375 82.0896 123.305C81.9047 123.23 81.8044 123.062 81.6142 122.9C81.4241 122.737 81.5034 122.559 81.2234 122.402C81.0385 122.326 80.9382 122.158 80.8431 122.077C80.7217 121.563 80.8961 121.466 81.3135 120.919C81.2185 120.838 81.2132 120.751 81.1129 120.583C81.1076 120.497 81.1023 120.41 81.0918 120.237C81.1606 119.885 81.2293 119.533 81.2981 119.182C81.2981 119.182 81.3879 119.176 81.4777 119.171L81.483 119.257L81.4777 119.171C81.4619 118.911 81.3615 118.743 81.1767 118.668C80.9865 118.505 80.7964 118.343 80.696 118.175C80.4954 117.84 80.4743 117.494 80.6276 117.05C80.7069 116.871 80.6911 116.611 80.6806 116.438C80.649 115.919 80.4325 115.323 80.4907 114.798C80.4855 114.712 80.4855 114.712 80.3904 114.631C80.3851 114.544 80.2003 114.468 80.2796 114.29C80.269 114.117 80.2585 113.943 80.3325 113.678C80.4118 113.5 80.4013 113.326 80.3009 113.159C80.2006 112.991 80.1953 112.904 80.2746 112.726C80.3486 112.46 80.3328 112.201 80.1427 112.038C80.0371 111.784 80.1059 111.432 80.0901 111.172C80.0848 111.086 80.0795 110.999 80.0743 110.913C80.0322 110.22 79.9901 109.527 79.0656 109.149C79.0656 109.149 78.8913 109.246 78.8015 109.252C78.8067 109.339 78.8067 109.339 78.8067 109.339C78.8225 109.598 78.9334 109.939 78.9492 110.199C78.9544 110.286 78.8699 110.378 78.8699 110.378C78.7801 110.383 78.6903 110.389 78.685 110.302C78.5847 110.134 78.4843 109.966 78.384 109.799C78.2837 109.631 78.1886 109.55 78.0037 109.474C77.8188 109.399 77.729 109.404 77.6497 109.583C77.6497 109.583 77.5599 109.588 77.4701 109.594C77.3803 109.599 77.1954 109.523 77.0105 109.448C77.1849 109.35 77.2694 109.258 77.354 109.166C77.7925 108.966 77.9563 108.695 77.9248 108.175C77.909 107.916 77.8932 107.656 77.9619 107.304C77.8669 107.223 77.7665 107.055 77.5816 106.98C77.307 106.909 77.0428 107.012 76.8474 106.763C77.0957 106.401 77.4392 106.119 77.7826 105.837C77.9359 105.394 77.8251 105.053 77.6244 104.717C77.5346 104.723 77.4448 104.728 77.355 104.734C76.9059 104.761 76.5309 104.523 76.2404 104.193C76.1401 104.025 76.0397 103.858 75.9447 103.776L75.8549 103.782C75.6805 103.879 75.5907 103.885 75.4163 103.982C75.4637 104.762 75.6009 105.536 75.8279 106.304C76.0973 106.288 76.0921 106.201 76.0815 106.028C76.0763 105.941 76.0763 105.941 76.1608 105.849C76.1608 105.849 76.2506 105.844 76.3404 105.838C76.6256 106.082 76.6467 106.428 76.4829 106.699C76.3983 106.791 76.4036 106.877 76.319 106.969C76.1447 107.067 76.0654 107.246 76.1657 107.413C76.1763 107.586 76.1815 107.673 76.1023 107.852C76.0282 108.117 76.1286 108.285 76.4033 108.355C76.6779 108.425 76.773 108.506 76.7888 108.766C76.905 109.193 76.7464 109.551 76.5878 109.908C76.424 110.179 76.4451 110.525 76.4661 110.871C76.371 110.79 76.3658 110.704 76.2654 110.536C76.0858 110.547 75.9009 110.471 75.7213 110.482C75.4519 110.498 75.1825 110.515 74.9078 110.445C74.7229 110.369 74.4587 110.472 74.2791 110.483C74.1311 111.013 74.2524 111.527 74.3686 111.955C74.3738 112.041 74.4689 112.123 74.5587 112.117C74.9338 112.355 75.0446 112.696 75.1555 113.037C75.2664 113.378 75.1976 113.73 75.3983 114.065C75.5091 114.406 75.3453 114.677 75.1815 114.947C75.3822 115.283 75.4878 115.537 75.6884 115.872C75.7888 116.04 75.8838 116.121 76.0687 116.197C76.2536 116.273 76.3539 116.44 76.2799 116.706C76.1954 116.798 76.2957 116.965 76.3908 117.047C76.4911 117.214 76.5016 117.387 76.5122 117.561C76.4276 117.653 76.4382 117.826 76.3536 117.918C76.2743 118.097 76.1898 118.189 76.2003 118.362C76.3006 118.529 76.3164 118.789 76.5911 118.859L76.6862 118.941C76.702 119.2 76.8023 119.368 76.8129 119.541C76.9132 119.709 77.0135 119.877 77.0241 120.05C77.1349 120.391 77.0609 120.656 76.7122 120.851C76.5378 120.949 76.4586 121.127 76.2737 121.051C76.2737 121.051 76.1891 121.144 76.1046 121.236C75.9092 120.987 75.8036 120.732 75.7825 120.386C75.7667 120.126 75.5661 119.791 75.4605 119.537C75.4552 119.45 75.2703 119.374 75.1805 119.38C75.0062 119.477 74.9164 119.483 74.7315 119.407C74.7262 119.32 74.6259 119.153 74.6153 118.98C74.4147 118.644 74.4782 118.206 74.642 117.935C74.8058 117.664 74.7847 117.318 74.6791 117.064C74.5683 116.723 74.5525 116.463 74.5314 116.117C74.5209 115.943 74.5051 115.684 74.3995 115.429C74.389 115.256 74.2939 115.175 74.2834 115.002C74.2518 114.482 74.2202 113.963 74.0936 113.362C73.9774 112.935 73.8666 112.594 73.6606 112.172C73.5603 112.004 73.555 111.917 73.6396 111.825C73.6343 111.739 73.7189 111.647 73.7189 111.647C73.6027 111.219 73.5712 110.7 73.2807 110.37C73.1909 110.375 73.0113 110.386 72.8316 110.397C72.5622 110.413 72.4829 110.592 72.4089 110.857C72.4089 110.857 72.4089 110.857 72.4142 110.944C72.3665 111.642 72.1023 111.745 71.3628 111.442C71.3522 111.269 71.4421 111.264 71.5319 111.258L71.6217 111.253C71.7062 111.161 71.7009 111.074 71.6957 110.988C71.6957 110.988 71.6006 110.906 71.5108 110.912C71.1516 110.934 70.7818 110.782 70.4966 110.539C70.4808 110.279 70.5496 109.927 70.539 109.754C70.3489 109.592 70.164 109.516 70.1482 109.256C70.1166 108.737 70.1166 108.737 70.5762 108.883C70.8509 108.953 71.0252 108.856 70.9196 108.601C70.9091 108.428 70.8933 108.168 70.9726 107.99C70.9673 107.903 70.9568 107.73 70.9515 107.643C70.9252 107.21 70.9887 106.772 71.1473 106.415C71.2318 106.323 71.2213 106.149 71.3006 105.971C71.4749 105.873 71.6493 105.776 71.8236 105.678C71.8661 104.893 71.8187 104.114 71.5917 103.346C71.5812 103.173 71.3858 102.924 71.2009 102.848C70.736 102.616 70.6199 102.188 70.3294 101.858C70.2344 101.777 70.134 101.609 70.039 101.528C70.039 101.528 69.8541 101.453 69.8593 101.539C69.8646 101.626 69.7801 101.718 69.8699 101.712C69.8751 101.799 69.965 101.793 70.06 101.875C70.1551 101.956 70.1603 102.042 70.1656 102.129C69.912 102.405 69.7482 102.676 69.5843 102.946C69.505 103.125 69.2409 103.228 69.0613 103.239C68.7073 103.347 68.3533 103.456 67.9835 103.304C67.8937 103.31 67.8937 103.31 67.8039 103.315C67.4342 103.164 67.2704 103.435 67.0062 103.538C66.9164 103.543 66.9269 103.716 66.9269 103.716C66.9322 103.803 66.9374 103.889 66.9427 103.976C66.948 104.063 66.9532 104.149 66.8687 104.241C66.6098 104.431 66.5358 104.696 66.5516 104.956C66.5726 105.302 66.4035 105.486 66.1499 105.762C65.7061 105.876 65.4314 105.806 65.0564 105.568C64.7711 105.325 64.581 105.163 64.3856 104.914C64.2853 104.746 64.0899 104.497 63.905 104.421C63.7148 104.259 63.4401 104.189 63.176 104.292C63.0914 104.384 62.9118 104.395 62.822 104.4C62.8325 104.574 62.8378 104.66 62.8483 104.833C62.9486 105.001 62.8799 105.353 63.1546 105.423C63.1598 105.51 63.07 105.515 63.0753 105.602C62.8112 105.705 62.4572 105.813 62.1825 105.743C61.7282 105.684 61.4693 105.873 61.2209 106.236C61.0571 106.507 60.9883 106.858 60.6343 106.967C60.3596 106.897 60.085 106.826 59.9001 106.751C59.6201 106.594 59.7839 106.323 59.5938 106.161C59.4987 106.08 59.4935 105.993 59.3931 105.826C59.224 106.01 59.2346 106.183 59.2503 106.443C59.2661 106.702 59.2819 106.962 59.1181 107.233C59.0336 107.325 59.0441 107.498 59.0546 107.671C58.875 107.682 58.7852 107.688 58.6056 107.699C58.5263 107.877 58.5316 107.964 58.4523 108.142C58.3625 108.148 58.1828 108.159 58.093 108.164C57.8236 108.181 57.8236 108.181 57.7496 108.446C57.7549 108.532 57.7601 108.619 57.7654 108.706C57.7707 108.792 57.7707 108.792 57.7812 108.965C57.6861 108.884 57.5963 108.89 57.591 108.803C57.3956 108.554 57.2055 108.392 56.9255 108.235C56.8305 108.154 56.7406 108.16 56.7406 108.16C56.4712 108.176 56.2863 108.1 56.1014 108.025C55.9166 107.949 55.7369 107.96 55.6524 108.052C55.4833 108.236 55.3037 108.247 55.1241 108.258C54.7701 108.366 54.6856 108.458 54.7066 108.805C54.7224 109.064 54.828 109.319 54.8438 109.579C54.849 109.665 54.8543 109.752 54.8596 109.838C54.6007 110.028 54.326 109.958 54.1358 109.795C53.7556 109.471 53.296 109.325 52.8417 109.266C52.6621 109.277 52.3821 109.12 52.1972 109.044C52.0916 108.79 51.9913 108.622 51.8857 108.368C51.8804 108.281 51.7801 108.113 51.6903 108.119C51.405 107.876 51.2942 107.535 51.2731 107.188C51.2363 106.582 50.9458 106.252 50.4757 105.933C50.6027 105.056 50.1115 104.391 49.6204 103.725C49.52 103.558 49.3299 103.395 49.2348 103.314C49.2295 103.228 49.0499 103.239 49.0499 103.239C49.0499 103.239 48.9654 103.331 48.9707 103.417C48.9917 103.764 49.0973 104.018 49.1183 104.364C49.2345 104.792 49.2398 104.878 49.0072 105.501C48.5581 105.528 48.2676 105.198 48.0722 104.949C47.9772 104.868 47.9666 104.695 48.0459 104.516C48.1252 104.338 48.1094 104.078 48.0989 103.905C48.0673 103.385 47.9406 102.785 47.8192 102.271C47.6978 101.756 47.5764 101.242 47.5449 100.723C47.5343 100.55 47.5238 100.376 47.6084 100.284C47.6929 100.192 47.7775 100.1 47.862 100.008C47.8462 99.7485 47.7406 99.4942 47.635 99.2399C47.5136 98.7258 47.3287 98.6502 46.7846 98.5963C46.6948 98.6018 46.605 98.6072 46.5099 98.5261C46.325 98.4504 46.0504 98.3802 45.8655 98.3046C45.7809 98.3966 45.6118 98.5807 45.5273 98.6728C45.1839 98.9544 45.1996 99.2141 45.4003 99.5496C45.6062 99.9716 45.7171 100.313 45.7434 100.745C45.8543 101.086 45.6905 101.357 45.4368 101.633C44.9667 101.314 44.7608 100.892 44.5548 100.47C44.4598 100.389 44.4492 100.216 44.444 100.129C44.3436 99.9615 44.2486 99.8803 44.0637 99.8047C43.6939 99.6533 43.4192 99.5831 43.0495 99.4318C42.7748 99.3616 42.5106 99.4645 42.2412 99.4809C42.1514 99.4864 41.977 99.5839 41.9876 99.757C41.9188 100.109 41.9399 100.455 42.0507 100.796C42.3623 101.472 42.4889 102.073 42.7106 102.755C42.8215 103.096 42.8215 103.096 42.758 103.534C42.6735 103.626 42.5731 103.459 42.4833 103.464C42.1981 103.221 42.0027 102.972 41.7228 102.815C41.6277 102.734 41.5326 102.653 41.448 102.745C41.1839 102.848 40.9938 102.685 40.7983 102.437C40.698 102.269 40.5131 102.193 40.323 102.031C40.0535 102.047 39.8739 102.058 39.6098 102.161C39.5147 102.08 39.4144 101.912 39.4038 101.739C39.2982 101.485 39.1926 101.231 39.0923 101.063C38.9814 100.722 38.8653 100.294 38.7544 99.9536C38.538 99.3584 38.4113 98.7577 38.1103 98.2545C37.9096 97.9191 37.8886 97.5727 37.6879 97.2373C37.4662 96.5555 37.1599 95.9658 36.9382 95.284C36.7217 94.6888 36.4207 94.1856 36.294 93.5849C36.0618 92.73 35.6552 91.9725 35.4229 91.1175C35.2012 90.4357 34.8949 89.8459 34.6732 89.1641C34.3458 88.228 34.0132 87.2053 33.5961 86.2747C33.4958 86.107 33.4905 86.0204 33.3902 85.8527C33.1842 85.4306 32.9836 85.0952 32.8674 84.6677C32.746 84.1536 32.445 83.6505 32.2338 83.1419C32.1177 82.7144 31.822 82.2978 31.7006 81.7837C31.5897 81.4428 31.3838 81.0208 31.2729 80.6799C31.067 80.2579 30.9561 79.917 30.7502 79.4949C30.3225 78.3911 29.8895 77.2007 29.3721 76.1023C29.1661 75.6803 28.9655 75.3449 28.8493 74.9174C28.5378 74.241 28.221 73.4781 27.9993 72.7963C27.8779 72.2822 27.5769 71.7791 27.3657 71.2705C27.2548 70.9296 26.9643 70.5996 26.938 70.1666C26.938 70.1666 26.938 70.1666 26.9433 70.2532C26.7584 70.1775 26.9275 69.9934 26.7373 69.8312C26.6422 69.75 26.6317 69.5769 26.6212 69.4037C26.616 69.3171 26.5156 69.1494 26.4205 69.0683C26.1248 68.6517 26.0034 68.1376 25.7974 67.7156C25.6918 67.4613 25.5863 67.207 25.3908 66.9581C25.2905 66.7904 25.2852 66.7038 25.2747 66.5306C25.2694 66.444 25 66.4604 25.0793 66.2818C25.0793 66.2818 25.0793 66.2818 25.0741 66.1952C25.0741 66.1952 25.0741 66.1952 25.0688 66.1086L25.0741 66.1952C24.8786 65.9463 24.6779 65.6109 24.6569 65.2645C24.6516 65.1779 24.5566 65.0968 24.4615 65.0157C24.3664 64.9345 24.6201 64.6584 24.3506 64.6748C24.2503 64.507 24.2398 64.3339 24.1447 64.2527C23.8489 63.8362 23.643 63.4141 23.4371 62.9921C23.4318 62.9055 23.3367 62.8244 23.3315 62.7378C23.2311 62.5701 23.1308 62.4024 23.0305 62.2346C22.9249 61.9803 22.814 61.6394 22.6186 61.3906C22.5182 61.2229 22.4127 60.9686 22.3969 60.7088C22.3018 60.6277 22.2965 60.5411 22.1962 60.3733C22.0906 60.119 22.0748 59.8593 21.7948 59.7025C21.7948 59.7025 21.7896 59.6159 21.6998 59.6213C21.5784 59.1073 21.1875 58.6096 21.0661 58.0955C21.0609 58.0089 20.8708 57.8466 20.8655 57.7601C20.6648 57.4246 20.4641 57.0892 20.2635 56.7537C19.9519 56.0774 19.7355 55.4822 19.3394 54.8979C19.144 54.649 19.0384 54.3947 18.8377 54.0593C18.7268 53.7184 18.5262 53.383 18.2357 53.053C17.8501 52.6419 17.7235 52.0412 17.4225 51.538C17.2165 51.116 17.0053 50.6074 16.6197 50.1963C16.5247 50.1152 16.5194 50.0285 16.4191 49.8608C16.2026 49.2656 15.9016 48.7625 15.6006 48.2593C15.5953 48.1727 15.5901 48.0861 15.5901 48.0861C15.6746 47.9941 15.7644 47.9886 15.8542 47.9832C16.1184 47.8802 16.2029 47.7882 16.1924 47.615C16.1766 47.3552 16.1608 47.0954 16.2296 46.7436C16.2243 46.657 16.2243 46.657 16.2191 46.5704C16.1187 46.4027 16.0131 46.1484 16.0026 45.9752C15.9023 45.8075 15.8865 45.5477 15.7861 45.38C15.5749 44.8714 15.3584 44.2762 15.2371 43.7621C15.2213 43.5023 15.1157 43.248 14.9203 42.9992C14.614 42.4094 14.3024 41.7331 13.732 41.2463C13.5419 41.0841 13.4415 40.9163 13.3412 40.7486C13.579 40.2127 13.579 40.2127 13.1935 39.8016C13.2728 39.6229 13.2622 39.4498 13.3415 39.2711C12.9612 38.9466 12.5809 38.6221 12.2852 38.2055C12.1848 38.0378 11.9049 37.881 11.7095 37.6321C11.7782 37.2803 12.0266 36.9176 11.7309 36.501C11.9052 36.4035 11.9898 36.3114 12.0743 36.2194C12.0638 36.0462 12.0585 35.9596 11.9635 35.8785C11.8579 35.6242 11.9319 35.359 12.1855 35.0828C12.3546 34.8987 12.6082 34.6226 12.4974 34.2817C12.677 34.2708 12.7668 34.2653 12.8566 34.2598C12.9306 33.9946 13.0099 33.816 13.0892 33.6373C13.0681 33.291 12.7882 33.1342 12.6826 32.8799C12.3921 32.5499 12.1016 32.2199 11.9009 31.8844C11.695 31.4624 11.32 31.2245 10.8551 30.992C10.7653 30.9975 10.6808 31.0895 10.591 31.095C10.2952 30.6784 9.99946 30.2619 9.88333 29.8344C9.87807 29.7478 9.78301 29.6666 9.68794 29.5855C9.49253 29.3367 9.3922 29.169 9.2866 28.9147C9.09119 28.6658 9.07013 28.3194 8.70563 28.2547C8.61582 28.2601 8.60528 28.087 8.51021 28.0058C8.50494 27.9192 8.41514 27.9247 8.14571 27.9411C8.12992 27.6813 8.21446 27.5893 8.47862 27.4863C8.65298 27.3888 8.82734 27.2913 9.00695 27.2803C9.27112 27.1774 9.45601 27.2531 9.65142 27.5019C9.75176 27.6696 9.94716 27.9185 10.0475 28.0862C10.2429 28.335 10.4278 28.4107 10.6867 28.2212C10.6867 28.2212 10.7765 28.2157 10.7712 28.1291C10.7712 28.1291 10.7712 28.1291 10.766 28.0425C10.84 27.7773 10.7344 27.523 10.6288 27.2687C10.5284 27.101 10.4334 27.0198 10.4229 26.8466C10.4071 26.5869 10.3015 26.3326 10.1958 26.0783C9.99518 25.7428 9.87906 25.3153 9.85274 24.8824C10.0218 24.6983 10.1011 24.5196 10.2702 24.3355C10.4498 24.3246 10.6347 24.4003 10.7192 24.3082C10.8989 24.2973 10.9834 24.2053 11.068 24.1132C11.1525 24.0212 11.3268 23.9237 11.4167 23.9182C11.6015 23.9939 11.7864 24.0696 11.8868 24.2373L11.9818 24.3184C12.0874 24.5727 12.2776 24.735 12.5575 24.8918C12.8164 24.7022 12.9855 24.5181 12.7901 24.2693C12.7796 24.0961 12.6845 24.015 12.674 23.8418C12.6635 23.6686 12.7375 23.4034 13.0069 23.387C13.2711 23.284 13.4507 23.2731 13.7306 23.4299C14.1955 23.6624 14.6551 23.8083 15.0353 24.1328C15.5107 24.5384 16.0759 24.9386 16.5513 25.3443C16.8365 25.5877 17.1269 25.9177 17.4174 26.2476C17.7079 26.5776 17.9984 26.9076 18.2889 27.2376C18.6692 27.5621 18.9649 27.9786 19.2607 28.3952C19.361 28.5629 19.5459 28.6386 19.641 28.7198C19.8311 28.882 20.1058 28.9522 20.37 28.8492C20.4598 28.8438 20.5391 28.6652 20.5338 28.5786C20.4387 28.4974 20.3384 28.3297 20.2433 28.2486C20.0532 28.0863 19.9528 27.9186 19.937 27.6588C20.1114 27.5613 20.2857 27.4638 20.5657 27.6206C20.8456 27.7774 21.1256 27.9342 21.4848 27.9124C21.749 27.8094 21.6434 27.5551 21.8072 27.2844C21.8971 27.279 21.9921 27.3601 21.9921 27.3601C22.0924 27.5278 22.1875 27.6089 22.2879 27.7766C22.5784 28.1066 22.9428 28.1714 23.3126 28.3227C23.4077 28.4039 23.582 28.3063 23.7616 28.2954C23.656 28.0411 23.5505 27.7868 23.4501 27.6191C23.6245 27.5216 23.7988 27.4241 23.8834 27.332C23.6616 26.6502 23.2708 26.1525 22.9593 25.4762C23.0491 25.4707 23.1442 25.5518 23.3238 25.5409C23.3185 25.4543 23.308 25.2812 23.3027 25.1946C23.3925 25.1891 23.3925 25.1891 23.3978 25.2757C23.4929 25.3568 23.5879 25.438 23.5932 25.5245C23.9047 26.2009 24.0844 26.19 24.4647 26.5145C24.5334 26.1627 24.5176 25.9029 24.3222 25.6541C23.9314 25.1564 23.6251 24.5666 23.2343 24.0689C23.1392 23.9878 23.0442 23.9066 22.9491 23.8255C22.5793 23.6742 22.3839 23.4253 22.1832 23.0899C21.877 22.5001 21.4861 22.0024 21.0953 21.5047C20.8946 21.1693 20.6993 20.9204 20.4986 20.585C20.3032 20.3362 20.0179 20.0928 19.738 19.936C19.6429 19.8548 19.458 19.7792 19.363 19.698C19.2679 19.6169 19.1676 19.4492 18.9879 19.4601L18.9034 19.5522C18.9139 19.7253 18.9192 19.8119 19.0195 19.9797C19.6005 20.6396 20.0124 21.4837 20.5933 22.1436C21.0792 22.7225 21.4806 23.3933 21.9717 24.0588C22.9435 25.2164 23.1389 25.4653 23.16 25.8116Z" fill="#F9B605"/>
<path d="M49.2202 84.6379L40.3211 75.8571C40.107 75.6459 40 75.3894 40 75.0877C40 74.786 40.107 74.5295 40.3211 74.3182L41.3303 73.3225C41.5443 73.1113 41.8043 73.0057 42.1101 73.0057C42.4159 72.9755 42.6758 73.066 42.8899 73.2772L50 80.2928L57.1101 73.2772C57.3242 73.066 57.5841 72.9755 57.8899 73.0057C58.1957 73.0057 58.4557 73.1113 58.6697 73.3225L59.6789 74.3182C59.893 74.5295 60 74.786 60 75.0877C60 75.3894 59.893 75.6459 59.6789 75.8571L50.7798 84.6379C50.5657 84.8793 50.3058 85 50 85C49.6942 85 49.4343 84.8793 49.2202 84.6379Z" fill="#180004"/>
<path d="M49.2202 65.6379L40.3211 56.8571C40.107 56.6459 40 56.3894 40 56.0877C40 55.786 40.107 55.5295 40.3211 55.3182L41.3303 54.3225C41.5443 54.1113 41.8043 54.0057 42.1101 54.0057C42.4159 53.9755 42.6758 54.066 42.8899 54.2772L50 61.2928L57.1101 54.2772C57.3242 54.066 57.5841 53.9755 57.8899 54.0057C58.1957 54.0057 58.4557 54.1113 58.6697 54.3225L59.6789 55.3182C59.893 55.5295 60 55.786 60 56.0877C60 56.3894 59.893 56.6459 59.6789 56.8571L50.7798 65.6379C50.5657 65.8793 50.3058 66 50 66C49.6942 66 49.4343 65.8793 49.2202 65.6379Z" fill="#180004"/>
<path d="M49.2202 46.6379L40.3211 37.8571C40.107 37.6459 40 37.3894 40 37.0877C40 36.786 40.107 36.5295 40.3211 36.3182L41.3303 35.3225C41.5443 35.1113 41.8043 35.0057 42.1101 35.0057C42.4159 34.9755 42.6758 35.066 42.8899 35.2772L50 42.2928L57.1101 35.2772C57.3242 35.066 57.5841 34.9755 57.8899 35.0057C58.1957 35.0057 58.4557 35.1113 58.6697 35.3225L59.6789 36.3182C59.893 36.5295 60 36.786 60 37.0877C60 37.3894 59.893 37.6459 59.6789 37.8571L50.7798 46.6379C50.5657 46.8793 50.3058 47 50 47C49.6942 47 49.4343 46.8793 49.2202 46.6379Z" fill="#180004"/>
</svg>
