<svg width="80" height="116" viewBox="0 0 80 116" fill="none" xmlns="http://www.w3.org/2000/svg">
<path d="M10.5761 10.6161C10.4863 10.6215 10.4863 10.6215 10.5761 10.6161C10.4863 10.6215 10.4863 10.6215 10.5761 10.6161ZM40.4608 11.4066C40.4608 11.4066 40.4661 11.4932 40.5559 11.4878L40.6457 11.4823C40.5506 11.4012 40.5506 11.4012 40.4608 11.4066C40.4555 11.32 40.4555 11.32 40.4608 11.4066ZM11.0304 10.6753C10.8665 10.946 10.8665 10.946 11.1412 11.0162C11.136 10.9296 11.0356 10.7619 11.0304 10.6753ZM74.2422 94.09C74.3215 93.9113 74.3109 93.7382 74.2106 93.5704C74.2106 93.5704 74.1155 93.4893 74.031 93.5814C74.031 93.5814 73.9464 93.6734 73.9517 93.76C73.9569 93.8466 74.052 93.9277 74.2422 94.09ZM76.5423 84.477C76.5318 84.3038 76.4367 84.2227 76.3469 84.2281C76.2571 84.2336 76.1725 84.3257 76.1778 84.4123L76.1831 84.4989C76.1883 84.5854 76.2834 84.6666 76.3732 84.6611C76.463 84.6556 76.5528 84.6502 76.5423 84.477ZM38.4745 11.3536C38.485 11.5267 38.4903 11.6133 38.5854 11.6945C38.6857 11.8622 38.8706 11.9379 38.9551 11.8458C39.0397 11.7538 38.9393 11.586 38.8442 11.5049C38.7544 11.5104 38.6646 11.5158 38.4745 11.3536ZM16.8735 8.92958C16.8841 9.10276 16.8893 9.18935 16.8946 9.27593C16.9949 9.44365 17.1851 9.60591 17.37 9.68158L17.4598 9.67612L17.5443 9.58407C17.3542 9.42181 17.2486 9.16751 16.8735 8.92958ZM77.149 112.251C77.1385 112.078 77.1279 111.905 77.2125 111.813C76.8427 111.661 76.8427 111.661 76.7634 111.84C76.5944 112.024 76.6102 112.284 76.7105 112.452C76.795 112.36 76.8743 112.181 77.149 112.251ZM66.8341 101.232C66.7443 101.238 66.6597 101.33 66.4854 101.427L66.4906 101.514C66.5012 101.687 66.686 101.763 66.8657 101.752C67.0453 101.741 67.2196 101.643 67.2144 101.557C67.2989 101.465 67.1035 101.216 66.8341 101.232ZM3.81243 17.98C4.00258 18.1422 4.09764 18.2234 4.19798 18.3911C4.29305 18.4722 4.38812 18.5533 4.573 18.629C4.573 18.629 4.66282 18.6236 4.75263 18.6181C4.75263 18.6181 4.83716 18.5261 4.83189 18.4395C4.82137 18.2663 4.72105 18.0986 4.62597 18.0174C4.5309 17.9363 4.43581 17.8552 4.35126 17.9472C4.26672 18.0393 4.17692 18.0447 4.08185 17.9636C3.98677 17.8825 3.90224 17.9745 3.81243 17.98ZM64.0082 99.2314C64.1191 99.5723 64.1349 99.8321 64.2405 100.086C64.3461 100.341 64.3461 100.341 64.7053 100.319C64.679 99.8859 64.5681 99.545 64.452 99.1175C64.2776 99.215 64.1878 99.2205 64.0082 99.2314ZM9.59405 7.80774C9.42496 7.99184 9.23484 7.82956 9.06048 7.92707C9.06575 8.01366 9.07625 8.18686 9.17133 8.26799C9.17659 8.35458 9.27693 8.52229 9.2822 8.60889C9.48813 9.03091 9.77863 9.36088 9.98456 9.78291C9.98983 9.8695 10.0849 9.95064 10.1747 9.94518C10.1747 9.94518 10.2645 9.93972 10.3543 9.93426C10.3543 9.93426 10.4389 9.8422 10.3491 9.84766C10.2487 9.67994 10.2382 9.50676 10.1378 9.33904C10.0375 9.17132 9.94246 9.09019 10.0217 8.91155C10.1115 8.90609 10.2066 8.98722 10.2013 8.90064C10.2859 8.80858 10.2806 8.722 10.1856 8.64088C10.08 8.38657 9.88454 8.13772 9.59405 7.80774ZM41.1744 9.7989C41.1849 9.97208 41.1901 10.0587 41.2007 10.2318C41.2112 10.405 41.3063 10.4862 41.3168 10.6593C41.3326 10.9191 41.4329 11.0868 41.6231 11.2491C41.7181 11.3302 41.7287 11.5034 41.8237 11.5845C41.8343 11.7577 41.8395 11.8443 41.85 12.0175C41.8606 12.1906 41.9557 12.2718 42.0507 12.3529C42.2356 12.4286 42.336 12.5963 42.6001 12.4933C42.5896 12.3201 42.6689 12.1415 42.5738 12.0604C42.4524 11.5463 42.2465 11.1243 42.0405 10.7022C41.9297 10.3613 41.4754 10.302 41.3645 9.96114C41.3645 9.96114 41.2694 9.88001 41.1796 9.88547C41.2642 9.79341 41.2642 9.79344 41.1744 9.7989ZM65.2557 96.0268C65.1658 96.0323 65.076 96.0378 64.9862 96.0432C64.7168 96.0596 64.7221 96.1462 64.6428 96.3248C64.648 96.4114 64.6586 96.5846 64.7536 96.6657C64.9385 96.7414 64.9491 96.9146 64.9596 97.0877C65.0705 97.4286 65.0862 97.6884 65.1971 98.0293C65.2076 98.2025 65.2181 98.3757 65.1336 98.4677C64.9803 98.9116 65.0014 99.2579 65.2073 99.68C65.2918 99.5879 65.3764 99.4959 65.556 99.485C65.6458 99.4795 65.7356 99.4741 65.8307 99.5552C65.9258 99.6363 66.0208 99.7174 66.1106 99.712C66.1847 99.4467 66.2587 99.1815 66.1531 98.9272C66.058 98.8461 66.1373 98.6674 66.2218 98.5754C66.3909 98.3913 66.3751 98.1315 66.4544 97.9529C66.5337 97.7742 66.4281 97.5199 66.3278 97.3522C66.2274 97.1845 66.1271 97.0168 65.9475 97.0277C65.7679 97.0386 65.6675 96.8709 65.6623 96.7843C65.4616 96.4489 65.3613 96.2811 65.2557 96.0268ZM16.7716 16.1493C17.1414 16.3006 17.2469 16.5549 17.4424 16.8038C17.4476 16.8904 17.5374 16.8849 17.5427 16.9715C17.7171 16.874 17.8967 16.8631 17.9865 16.8576C18.1503 16.5869 18.145 16.5003 17.9549 16.3381C17.7648 16.1758 17.5746 16.0136 17.4743 15.8458C17.2048 15.8622 16.9354 15.8786 16.7558 15.8895C16.5604 15.6407 16.3702 15.4784 16.3544 15.2186C16.3439 15.0455 16.2489 14.9643 16.2383 14.7912C16.0219 14.1959 15.8952 13.5953 15.5044 13.0976C15.1188 12.6865 14.8231 12.2699 14.2684 12.0429C13.9885 11.8861 13.6345 11.9945 13.6556 12.3409C13.6661 12.514 13.6766 12.6872 13.6819 12.7738C13.8878 13.1958 14.099 13.7044 14.3948 14.121C14.6905 14.5376 14.9915 15.0407 15.2873 15.4573C15.6886 16.1282 16.1745 16.707 16.5758 17.3779C16.6762 17.5456 16.8558 17.5347 17.0407 17.6104C17.1992 17.2531 17.0884 16.9122 16.8877 16.5768C16.8772 16.4036 16.8719 16.317 16.7716 16.1493ZM75.16 100.292C75.1653 100.378 75.1705 100.465 75.2656 100.546C75.2551 100.373 75.16 100.292 75.16 100.292L75.1547 100.205C75.1547 100.205 75.1495 100.119 75.1442 100.032L75.0597 100.124C74.9751 100.216 75.0702 100.297 75.16 100.292ZM15.16 17.8116C14.9698 17.6494 14.8642 17.3951 14.5102 17.5035C14.4204 17.509 14.3253 17.4278 14.2303 17.3467C14.1352 17.2656 13.9503 17.1899 13.8553 17.1088C13.7707 17.2008 13.776 17.2874 13.6914 17.3794C13.3217 17.2281 13.1263 16.9793 12.9256 16.6438C12.8305 16.5627 12.9098 16.384 12.8993 16.2109C12.894 16.1243 12.9785 16.0322 12.9733 15.9456C12.9628 15.7724 12.9575 15.6858 12.8571 15.5181C12.7621 15.437 12.7568 15.3504 12.6618 15.2693C12.1071 15.0423 11.8959 14.5337 11.6002 14.1171C11.41 13.9548 11.3044 13.7005 11.2886 13.4407C11.2833 13.3542 11.2781 13.2676 11.183 13.1864C10.9876 12.9376 10.9718 12.6778 10.956 12.4181C10.9455 12.2449 10.8504 12.1638 10.8399 11.9906C10.6392 11.6551 10.4333 11.2331 10.2273 10.8111C10.1112 10.3836 9.81547 9.96702 9.51973 9.55045C9.21872 9.04729 9.00225 8.45207 8.52689 8.04642C8.43181 7.96529 8.42654 7.87871 8.3262 7.71099C8.21534 7.37008 8.01466 7.03464 7.72417 6.70466C7.5235 6.36922 7.2383 6.12584 7.12218 5.69835C7.01658 5.44404 6.91097 5.18972 6.63628 5.11951C6.33001 4.52976 5.94443 4.11866 5.72797 3.52345C5.6171 3.18255 5.41117 2.76053 5.30031 2.41963C5.29504 2.33305 5.11018 2.25735 5.10491 2.17077C4.9095 1.92192 4.62955 1.76512 4.60849 1.41877C4.60323 1.33217 4.51341 1.33762 4.50815 1.25103C4.23872 1.26741 4.12785 0.926515 3.94297 0.85084C3.85842 0.942893 3.76863 0.94836 3.68408 1.04041C3.58901 0.959279 3.589 0.959272 3.49392 0.878138C3.39885 0.797011 3.30377 0.715884 3.38305 0.537244C3.46234 0.358604 3.65248 0.520866 3.74229 0.515407C3.82683 0.423361 3.99594 0.23926 4.07522 0.0606201C4.51901 -0.0532639 4.88349 0.0114778 5.17397 0.34146C5.36412 0.503721 5.46972 0.758044 5.65987 0.920297C5.75494 1.00143 5.75495 1.00144 5.84476 0.995979C5.8395 0.909385 5.83424 0.822783 5.91878 0.73073C6.00859 0.72527 6.10365 0.806406 6.10365 0.806406C6.20925 1.06072 6.23032 1.40707 6.33592 1.66139C6.44152 1.91569 6.63166 2.07797 6.82707 2.32682C7.21789 2.82452 7.6087 3.32222 8.00478 3.90651C8.10512 4.07423 8.30055 4.32306 8.40088 4.49078C8.50648 4.74509 8.7917 4.9885 8.89731 5.24281C9.19305 5.65938 9.48879 6.07595 9.78454 6.49252C9.98521 6.82796 10.1859 7.16338 10.4711 7.40677C10.6665 7.65562 10.7721 7.90995 10.7879 8.16972C10.7932 8.25631 10.8037 8.42948 10.8988 8.51061C11.2103 9.18695 11.5218 9.86327 12.0077 10.4421C12.0077 10.4421 12.0975 10.4366 12.1028 10.5232C12.1821 10.3446 12.1768 10.258 12.1663 10.0848C12.2561 10.0794 12.3512 10.1605 12.441 10.155C12.5413 10.3228 12.7315 10.485 12.8318 10.6528C13.0114 10.6418 13.1065 10.7229 13.2861 10.712C13.5608 10.7822 13.7404 10.7713 13.9043 10.5006C13.9888 10.4086 14.1684 10.3977 14.3586 10.5599C14.4589 10.7277 14.6438 10.8033 14.7441 10.9711C14.9395 11.2199 15.1244 11.2956 15.3991 11.3658C15.6685 11.3494 15.8534 11.4251 16.0383 11.5007C16.1281 11.4953 16.2179 11.4898 16.2179 11.4898C16.3025 11.3978 16.2074 11.3166 16.2021 11.2301C16.0965 10.9757 15.9962 10.808 16.0702 10.5428C16.1442 10.2775 16.1284 10.0178 16.1126 9.75801C16.0968 9.49825 16.0863 9.32507 16.0705 9.06531C16.2501 9.05439 16.34 9.04894 16.5248 9.1246C16.509 8.86484 16.4034 8.61051 16.3876 8.35074C16.4775 8.34528 16.5673 8.33982 16.7469 8.3289C17.1061 8.30706 17.365 8.11751 17.439 7.85228C17.4338 7.76569 17.5236 7.76025 17.5183 7.67366C18.1365 7.46227 18.8602 7.50518 19.4096 7.64561C19.7583 7.45059 20.0172 7.26101 20.4715 7.3203C20.6616 7.48256 20.9416 7.63937 21.2216 7.79617C21.5068 8.03956 21.8765 8.19091 22.2463 8.34225C22.4312 8.41792 22.7059 8.48812 22.9858 8.64492C23.1602 8.54742 23.1391 8.20107 23.5934 8.26036C23.7836 8.42262 23.979 8.67146 23.8204 9.02874C23.7464 9.29397 23.7569 9.46713 23.8573 9.63485C23.9629 9.88916 23.9734 10.0624 24.079 10.3167C24.1688 10.3112 24.1741 10.3978 24.2639 10.3923C24.8133 10.5328 25.109 10.9493 25.1406 11.4689C25.1617 11.8152 25.3571 12.0641 25.637 12.2209C25.8272 12.3831 26.0173 12.5454 26.2075 12.7077C26.4029 12.9565 26.6828 13.1133 26.873 13.2756C27.2533 13.6001 27.5385 13.8435 27.8342 14.26C28.13 14.6766 28.5103 15.0011 28.8958 15.4122L28.9856 15.4068C29.16 15.3093 29.0649 15.2281 29.0544 15.055C29.0439 14.8818 29.0281 14.622 28.8379 14.4598C28.3626 14.0541 28.1514 13.5455 27.7553 12.9612C27.9402 13.0369 28.03 13.0314 28.1198 13.0259C28.2096 13.0205 28.2941 12.9284 28.3839 12.923C28.4685 12.8309 28.5583 12.8255 28.7327 12.728C28.9123 12.7171 29.0074 12.7982 29.187 12.7872C29.3666 12.7763 29.4564 12.7709 29.636 12.7599C29.8262 12.9222 30.1061 13.079 30.4654 13.0572C30.645 13.0463 30.74 13.1274 30.9249 13.2031C31.4743 13.3435 31.7385 13.2405 31.971 12.618C31.9658 12.5314 32.0451 12.3528 32.0398 12.2662C32.2247 12.3419 32.3197 12.423 32.5099 12.5852C32.5152 12.6718 32.5257 12.845 32.531 12.9316C32.5362 13.0182 32.6313 13.0993 32.6366 13.1859C32.7369 13.3536 32.9218 13.4293 33.0961 13.3318C33.2705 13.2343 33.3498 13.0557 33.2494 12.8879C33.0593 12.7257 33.0435 12.4659 32.9379 12.2116C32.8428 12.1305 32.8323 11.9573 32.827 11.8707C32.8112 11.6109 32.7162 11.5298 32.526 11.3675C32.3359 11.2053 32.0506 10.9619 31.945 10.7076C31.7496 10.4587 31.5595 10.2965 31.2743 10.0531C31.1792 9.97193 31.0841 9.89082 31.0789 9.80423C30.9785 9.63651 30.8782 9.46878 31.0473 9.28468C31.1318 9.19263 31.2164 9.1006 31.2111 9.014C31.6496 8.81353 31.8503 9.14897 32.2201 9.30031C32.3046 9.20826 32.3839 9.02962 32.3786 8.94303C32.4579 8.7644 32.3576 8.59667 32.5267 8.41257C32.606 8.23393 32.5954 8.06075 32.6747 7.88211C32.754 7.70347 32.8333 7.52482 32.9126 7.34619C32.9073 7.25959 32.9073 7.25962 32.902 7.17303C32.6168 6.92963 32.6168 6.92964 32.601 6.66986C32.6855 6.57782 32.8704 6.65348 32.9602 6.64802C33.1399 6.6371 33.3247 6.71279 33.5942 6.69641C33.684 6.69095 33.7738 6.68549 33.8636 6.68003C34.1278 6.57706 34.2969 6.39296 34.561 6.28999C34.4502 5.9491 33.906 5.89526 34.0593 5.4514C34.1439 5.35935 34.2337 5.35389 34.3288 5.43502C34.6087 5.59182 34.9732 5.65655 35.1739 5.99199C35.1791 6.07859 35.364 6.15426 35.4539 6.1488C35.9134 6.29469 36.1141 6.63012 36.3993 6.87352C36.4944 6.95464 36.5947 7.12236 36.6951 7.29008C36.8957 7.62552 37.0911 7.87436 37.5507 8.02024C37.6458 8.10138 37.7356 8.09592 37.8307 8.17705C38.0156 8.25272 38.1159 8.42044 38.3008 8.49611C38.3959 8.57724 38.4962 8.74495 38.5913 8.82608C39.0456 8.88538 39.5052 9.03127 39.7956 9.36125C40.0861 9.69123 40.0861 9.69122 40.1124 10.1242C40.0226 10.1296 39.9328 10.1351 39.9381 10.2217C39.8483 10.2271 39.8535 10.3137 39.769 10.4058C39.7742 10.4924 39.8693 10.5735 39.8693 10.5735L39.9644 10.6546C40.1493 10.7303 40.4187 10.7139 40.6934 10.7841C40.4875 10.3621 40.551 9.92368 40.2552 9.50712C40.0545 9.17167 39.9437 8.83079 39.9173 8.39783C39.9068 8.22466 39.9808 7.95943 40.2502 7.94305C40.3401 7.93759 40.4246 7.84553 40.5092 7.75348C40.5937 7.66144 40.6782 7.56939 40.7628 7.47735C40.8579 7.55847 40.8631 7.64507 40.8631 7.64507C40.8789 7.90485 40.8895 8.078 41.0796 8.24027C41.3754 8.65683 41.5813 9.07886 41.9616 9.40339C41.9774 9.66315 42.1675 9.82541 42.3524 9.90109L42.4475 9.98222C42.6587 10.4908 43.039 10.8154 43.34 11.3185C43.3505 11.4917 43.361 11.6649 43.1867 11.7624C43.0123 11.8599 43.0281 12.1197 43.0386 12.2929C43.1758 13.0667 43.5719 13.651 44.3114 13.9537C44.5914 14.1105 44.6759 14.0184 44.7447 13.6666L44.7394 13.58C44.919 13.5691 44.9033 13.3093 44.9878 13.2173C45.0829 13.2984 45.1779 13.3795 45.1832 13.4661C45.1197 13.9045 45.3256 14.3266 45.6161 14.6565C46.102 15.2354 46.6725 15.7222 47.0685 16.3064C47.3643 16.723 47.9242 17.0366 48.3045 17.3611L48.3996 17.4423C48.8486 17.415 49.1338 17.6584 49.3345 17.9938C49.3398 18.0804 49.4348 18.1615 49.5246 18.156C49.8944 18.3074 50.0898 18.5563 50.2852 18.8051C50.4807 19.054 50.7659 19.2973 51.1304 19.3621C51.4949 19.4268 51.7854 19.7568 52.0706 20.0002C52.1656 20.0814 52.266 20.2491 52.4509 20.3247C52.5459 20.4059 52.6463 20.5736 52.6515 20.6602C52.6673 20.9199 52.8575 21.0822 52.868 21.2554C52.9736 21.5097 53.0739 21.6774 53.2641 21.8397C53.3644 22.0074 53.4595 22.0885 53.47 22.2617C53.5809 22.6026 53.6865 22.8569 53.8819 23.1058C53.9822 23.2735 54.0878 23.5278 54.1934 23.7821C54.2885 23.8632 54.299 24.0364 54.3941 24.1175C54.4944 24.2853 54.5948 24.453 54.6951 24.6207C54.7057 24.7939 54.8958 24.9561 54.9961 25.1238C55.0965 25.2916 55.1968 25.4593 55.2073 25.6325C55.2231 25.8922 55.2389 26.152 55.1649 26.4172C55.1807 26.677 55.1912 26.8502 55.2968 27.1045C55.4024 27.3588 55.5133 27.6997 55.6241 28.0406C55.6347 28.2138 55.7403 28.4681 55.9251 28.5438C56.015 28.5383 56.0202 28.6249 56.0255 28.7115C56.2367 29.2201 56.5324 29.6367 56.7436 30.1453C56.7489 30.2319 56.7542 30.3185 56.8493 30.3996C57.145 30.8162 57.3562 31.3248 57.5621 31.7468C57.7681 32.1689 58.0585 32.4988 58.1799 33.0129C58.1852 33.0995 58.1852 33.0995 58.2803 33.1806C58.7556 33.5863 58.8823 34.187 59.0988 34.7822C59.4103 35.4585 59.7271 36.2214 60.0386 36.8978C60.4452 37.6552 60.8519 38.4127 61.2637 39.2568C61.3693 39.5111 61.4749 39.7654 61.5805 40.0197C61.6914 40.3606 61.8921 40.696 62.003 41.0369C62.2036 41.3724 62.2247 41.7187 62.4201 41.9676C62.4201 41.9676 62.4254 42.0542 62.5152 42.0487C62.6471 42.736 63.1382 43.4014 63.36 44.0832C63.4708 44.4241 63.6715 44.7595 63.8722 45.095C63.9725 45.2627 63.983 45.4359 64.0834 45.6036C64.2946 46.1122 64.5005 46.5342 64.7117 47.0429C64.8173 47.2972 64.9282 47.638 65.039 47.9789C65.1394 48.1467 65.2397 48.3144 65.2502 48.4876C65.3506 48.6553 65.4509 48.823 65.5513 48.9907C65.8628 49.6671 66.0845 50.3489 66.3961 51.0252C66.4013 51.1118 66.4964 51.1929 66.5915 51.2741C66.8872 51.6906 67.0984 52.1992 67.13 52.7188C67.1458 52.9786 67.3465 53.314 67.4521 53.5683C67.5682 53.9958 67.7689 54.3312 67.885 54.7587L67.8902 54.8453C68.1755 55.0887 68.2018 55.5217 68.3972 55.7705C68.6877 56.1005 68.8038 56.528 69.0045 56.8634C69.1206 57.2909 69.3213 57.6263 69.3476 58.0593C69.3529 58.1459 69.3529 58.1459 69.3582 58.2325C69.749 58.7302 69.696 59.3417 69.997 59.8449C70.0023 59.9315 70.0023 59.9315 70.0075 60.0181C70.0233 60.2779 69.944 60.4565 70.1394 60.7053C70.2398 60.8731 70.2556 61.1328 70.3559 61.3006C70.4615 61.5549 70.5724 61.8958 70.678 62.1501C70.7836 62.4044 70.8046 62.7507 71.0001 62.9996C71.1955 63.2484 71.3961 63.5839 71.2376 63.9412C71.5333 64.3577 71.734 64.6932 71.7603 65.1261C71.7656 65.2127 71.8606 65.2939 71.8606 65.2939C72.0718 65.8025 72.2778 66.2245 72.4943 66.8197C72.716 67.5015 72.943 68.2699 73.1647 68.9517C73.17 69.0383 73.265 69.1194 73.2703 69.206C73.4762 69.628 73.7667 69.958 73.7032 70.3964C73.7085 70.483 73.8088 70.6507 73.9092 70.8184C74.2154 71.4082 74.4372 72.09 74.6589 72.7718C74.6642 72.8584 74.6642 72.8584 74.7593 72.9395C74.9652 73.3615 75.1711 73.7836 75.2027 74.3031C75.2185 74.5629 75.4139 74.8117 75.4297 75.0715C75.6514 75.7533 75.8784 76.5217 76.1001 77.2035C76.2005 77.3712 76.1265 77.6364 76.2268 77.8041C76.4327 78.2262 76.5541 78.7402 76.6702 79.1677C76.6808 79.3409 76.7759 79.422 76.7864 79.5952C76.8127 80.0282 77.0081 80.277 77.1242 80.7045C77.1348 80.8777 77.3302 81.1265 77.5996 81.1102C77.7792 81.0992 77.9536 81.0017 78.0276 80.7365C78.0223 80.6499 78.1016 80.4713 78.0963 80.3847C78.0805 80.1249 78.0648 79.8652 78.0437 79.5188C78.0226 79.1724 77.9118 78.8315 77.8009 78.4906C77.7957 78.404 77.7851 78.2309 77.8697 78.1388C77.9489 77.9602 78.0335 77.8681 78.1128 77.6895C78.2079 77.7706 78.2977 77.7652 78.3029 77.8518C78.4138 78.1927 78.6145 78.5281 78.6408 78.961C78.6513 79.1342 78.7464 79.2153 78.7569 79.3885C78.8783 79.9026 78.9944 80.3301 79.1158 80.8442C79.1316 81.1039 79.1421 81.2771 79.1579 81.5369C78.9889 81.721 78.9043 81.813 78.6401 81.916C78.2862 82.0244 77.9427 82.3061 77.5835 82.3279C77.4937 82.3333 77.4091 82.4254 77.3246 82.5174C77.1608 82.7881 77.0868 83.0533 77.1976 83.3942C77.3032 83.6486 77.319 83.9083 77.4246 84.1626C77.5355 84.5035 77.3716 84.7742 77.0229 84.9693C76.5051 85.3484 76.4206 85.4404 76.7269 86.0302C76.8272 86.1979 76.8377 86.3711 76.843 86.4576C76.864 86.804 76.9696 87.0583 77.0805 87.3992C77.2917 87.9078 77.5029 88.4165 77.6295 89.0171C77.6506 89.3635 77.846 89.6123 77.9569 89.9532C78.1681 90.4619 77.9302 90.9978 77.497 91.2848C77.4072 91.2903 77.3174 91.2958 77.2276 91.3012C77.1378 91.3067 76.9581 91.3176 76.8683 91.3231C76.5091 91.3449 76.2502 91.5345 76.3663 91.9619C76.4877 92.476 76.3397 93.0065 76.3713 93.526C76.3818 93.6992 76.3025 93.8778 76.0384 93.9808C75.864 94.0783 75.7794 94.1704 75.7054 94.4356C75.6156 94.441 75.4413 94.5386 75.3514 94.544C75.3514 94.544 75.2616 94.5495 75.2564 94.4629C75.0662 94.3006 74.8708 94.0518 74.7705 93.884C74.6754 93.8029 74.5856 93.8084 74.4905 93.7273C74.4165 93.9925 74.5221 94.2468 74.353 94.4309C74.2632 94.4363 74.1681 94.3552 74.0783 94.3607C73.9303 94.8911 73.9303 94.8911 74.1362 95.3132C74.3158 95.3022 74.4955 95.2913 74.6751 95.2804C74.7807 95.5347 74.7965 95.7945 74.6274 95.9786C74.6274 95.9786 74.5428 96.0706 74.5481 96.1572C74.3685 96.1681 74.2892 96.3468 74.2047 96.4388C74.2099 96.5254 74.305 96.6065 74.3103 96.6931C74.3313 97.0395 74.3471 97.2993 74.5425 97.5481C74.6376 97.6292 74.6429 97.7158 74.6481 97.8024C74.6639 98.0622 74.6744 98.2354 74.6902 98.4951C74.7008 98.6683 74.7958 98.7494 74.9755 98.7385C74.9649 98.5653 75.0442 98.3867 75.0284 98.127C75.0021 97.694 74.9705 97.1745 74.8544 96.747C74.7488 96.4927 74.9073 96.1354 74.6274 95.9786C74.7172 95.9731 74.8968 95.9622 74.9866 95.9568C75.1768 96.119 75.2824 96.3733 75.2929 96.5465C75.3087 96.8063 75.4195 97.1472 75.4353 97.4069C75.4459 97.5801 75.4564 97.7533 75.6465 97.9155C75.7311 97.8235 75.8209 97.818 75.8157 97.7314C75.8051 97.5583 75.8791 97.293 75.7788 97.1253C75.6732 96.871 75.7472 96.6058 75.7314 96.346L75.816 96.254C75.911 96.3351 76.0008 96.3296 76.0061 96.4162C76.1222 96.8437 76.3334 97.3523 76.365 97.8719C76.3808 98.1316 76.4864 98.3859 76.2275 98.5755C76.1272 98.4078 75.8578 98.4242 75.8472 98.251C75.8472 98.251 75.7521 98.1698 75.6623 98.1753C75.5725 98.1808 75.5778 98.2674 75.488 98.2728C75.4192 98.6246 75.3505 98.9765 75.6357 99.2199C75.8258 99.3821 75.8364 99.5553 75.8416 99.6419C75.9525 99.9828 76.1532 100.318 76.4384 100.562C76.6285 100.724 76.7394 101.065 76.6654 101.33C76.3061 101.352 76.0367 101.368 75.6775 101.39C75.3554 100.541 75.3607 100.627 74.8218 100.66C74.7267 100.579 74.7268 100.579 74.6422 100.671C74.5524 100.676 74.5524 100.676 74.4626 100.682C74.3728 100.687 74.283 100.693 74.2882 100.779C74.2935 100.866 74.2988 100.952 74.304 101.039C74.304 101.039 74.304 101.039 74.3093 101.126C74.7689 101.271 74.7899 101.618 74.9008 101.959C75.0274 102.559 75.1541 103.16 75.4604 103.75C75.566 104.004 75.5818 104.264 75.6874 104.518C75.9568 104.502 75.8512 104.248 75.9357 104.155C76.1048 103.971 76.3795 104.042 76.649 104.025C76.8391 104.187 77.0345 104.436 77.2299 104.685C77.1454 104.777 76.9763 104.961 76.8917 105.053C76.897 105.14 76.9973 105.308 77.0871 105.302C77.552 105.535 77.5783 105.968 77.7842 106.39C77.7155 106.741 77.9161 107.077 77.9372 107.423C77.9425 107.51 77.9425 107.51 77.9477 107.596C77.8684 107.775 77.6888 107.786 77.5938 107.705C77.4089 107.629 77.2187 107.467 77.0338 107.391C76.9335 107.224 76.923 107.05 77.0023 106.872C77.0815 106.693 77.0763 106.607 76.9759 106.439C76.9759 106.439 77.0658 106.433 77.0605 106.347C77.0605 106.347 77.0658 106.433 76.9759 106.439C76.7911 106.363 76.696 106.282 76.5111 106.206C76.4213 106.212 76.3262 106.131 76.3262 106.131C76.4003 105.865 76.3792 105.519 76.4532 105.254C76.3581 105.173 76.2578 105.005 76.1627 104.924C76.0729 104.929 75.9778 104.848 75.888 104.854C75.8933 104.94 75.8986 105.027 75.9038 105.113C75.8298 105.379 75.8403 105.552 76.1203 105.709C76.1203 105.709 76.1308 105.882 76.1361 105.968C76.2312 106.05 76.321 106.044 76.416 106.125C76.3315 106.217 76.2469 106.309 76.1624 106.401C76.0831 106.58 76.0936 106.753 76.1042 106.926C76.2098 107.181 76.2308 107.527 76.2466 107.787C76.2624 108.047 76.3733 108.387 76.648 108.458C77.0177 108.609 77.1286 108.95 77.324 109.199C77.2395 109.291 77.0704 109.475 76.9858 109.567C76.896 109.572 76.8062 109.578 76.7164 109.583C76.6266 109.589 76.5473 109.767 76.6424 109.849C76.6476 109.935 76.7427 110.016 76.748 110.103C76.7585 110.276 76.9329 110.179 77.028 110.26C77.0437 110.519 77.1493 110.774 77.1651 111.034C77.2707 111.288 77.2865 111.548 77.3921 111.802C77.503 112.143 77.4342 112.495 76.9957 112.695C76.9112 112.787 76.8266 112.879 76.7421 112.971C76.6628 113.15 76.4989 113.421 76.4197 113.599C76.3457 113.864 76.1871 114.222 76.1131 114.487C76.1183 114.574 76.1236 114.66 76.1289 114.747C76.0391 114.752 75.9493 114.758 75.9493 114.758L75.9545 114.844C76.0443 114.839 76.1341 114.833 76.1341 114.833C76.1447 115.006 76.1499 115.093 75.9809 115.277C75.8065 115.375 75.7272 115.553 75.6479 115.732C75.4683 115.743 75.2834 115.667 75.1143 115.851C75.0351 116.03 74.8449 115.868 74.6653 115.879C74.5597 115.624 74.3643 115.375 74.0896 115.305C73.9047 115.23 73.8044 115.062 73.6142 114.9C73.4241 114.737 73.5034 114.559 73.2234 114.402C73.0385 114.326 72.9382 114.158 72.8431 114.077C72.7217 113.563 72.8961 113.466 73.3135 112.919C73.2185 112.838 73.2132 112.751 73.1129 112.583C73.1076 112.497 73.1023 112.41 73.0918 112.237C73.1606 111.885 73.2293 111.533 73.2981 111.182C73.2981 111.182 73.3879 111.176 73.4777 111.171L73.483 111.257L73.4777 111.171C73.4619 110.911 73.3615 110.743 73.1767 110.668C72.9865 110.505 72.7964 110.343 72.696 110.175C72.4954 109.84 72.4743 109.494 72.6276 109.05C72.7069 108.871 72.6911 108.611 72.6806 108.438C72.649 107.919 72.4325 107.323 72.4907 106.798C72.4855 106.712 72.4855 106.712 72.3904 106.631C72.3851 106.544 72.2003 106.468 72.2796 106.29C72.269 106.117 72.2585 105.943 72.3325 105.678C72.4118 105.5 72.4013 105.326 72.3009 105.159C72.2006 104.991 72.1953 104.904 72.2746 104.726C72.3486 104.46 72.3328 104.201 72.1427 104.038C72.0371 103.784 72.1059 103.432 72.0901 103.172C72.0848 103.086 72.0795 102.999 72.0743 102.913C72.0322 102.22 71.9901 101.527 71.0656 101.149C71.0656 101.149 70.8913 101.246 70.8015 101.252C70.8067 101.339 70.8067 101.339 70.8067 101.339C70.8225 101.598 70.9334 101.939 70.9492 102.199C70.9544 102.286 70.8699 102.378 70.8699 102.378C70.7801 102.383 70.6903 102.389 70.685 102.302C70.5847 102.134 70.4843 101.966 70.384 101.799C70.2837 101.631 70.1886 101.55 70.0037 101.474C69.8188 101.399 69.729 101.404 69.6497 101.583C69.6497 101.583 69.5599 101.588 69.4701 101.594C69.3803 101.599 69.1954 101.523 69.0105 101.448C69.1849 101.35 69.2694 101.258 69.354 101.166C69.7925 100.966 69.9563 100.695 69.9248 100.175C69.909 99.9156 69.8932 99.6559 69.9619 99.304C69.8669 99.2229 69.7665 99.0552 69.5816 98.9795C69.307 98.9093 69.0428 99.0123 68.8474 98.7634C69.0957 98.4007 69.4392 98.1191 69.7826 97.8375C69.9359 97.3936 69.8251 97.0527 69.6244 96.7173C69.5346 96.7227 69.4448 96.7282 69.355 96.7337C68.9059 96.761 68.5309 96.523 68.2404 96.193C68.1401 96.0253 68.0397 95.8576 67.9447 95.7765L67.8549 95.7819C67.6805 95.8794 67.5907 95.8849 67.4163 95.9824C67.4637 96.7617 67.6009 97.5355 67.8279 98.3039C68.0973 98.2876 68.0921 98.201 68.0815 98.0278C68.0763 97.9412 68.0763 97.9412 68.1608 97.8491C68.1608 97.8491 68.2506 97.8437 68.3404 97.8382C68.6256 98.0816 68.6467 98.428 68.4829 98.6987C68.3983 98.7907 68.4036 98.8773 68.319 98.9694C68.1447 99.0669 68.0654 99.2455 68.1657 99.4132C68.1763 99.5864 68.1815 99.673 68.1023 99.8516C68.0282 100.117 68.1286 100.285 68.4033 100.355C68.6779 100.425 68.773 100.506 68.7888 100.766C68.905 101.193 68.7464 101.551 68.5878 101.908C68.424 102.179 68.4451 102.525 68.4661 102.871C68.371 102.79 68.3658 102.704 68.2654 102.536C68.0858 102.547 67.9009 102.471 67.7213 102.482C67.4519 102.498 67.1825 102.515 66.9078 102.445C66.7229 102.369 66.4587 102.472 66.2791 102.483C66.1311 103.013 66.2524 103.527 66.3686 103.955C66.3738 104.041 66.4689 104.123 66.5587 104.117C66.9338 104.355 67.0446 104.696 67.1555 105.037C67.2664 105.378 67.1976 105.73 67.3983 106.065C67.5091 106.406 67.3453 106.677 67.1815 106.947C67.3822 107.283 67.4878 107.537 67.6884 107.872C67.7888 108.04 67.8838 108.121 68.0687 108.197C68.2536 108.273 68.3539 108.44 68.2799 108.706C68.1954 108.798 68.2957 108.965 68.3908 109.047C68.4911 109.214 68.5016 109.387 68.5122 109.561C68.4276 109.653 68.4382 109.826 68.3536 109.918C68.2743 110.097 68.1898 110.189 68.2003 110.362C68.3006 110.529 68.3164 110.789 68.5911 110.859L68.6862 110.941C68.702 111.2 68.8023 111.368 68.8129 111.541C68.9132 111.709 69.0135 111.877 69.0241 112.05C69.1349 112.391 69.0609 112.656 68.7122 112.851C68.5378 112.949 68.4586 113.127 68.2737 113.051C68.2737 113.051 68.1891 113.144 68.1046 113.236C67.9092 112.987 67.8036 112.732 67.7825 112.386C67.7667 112.126 67.5661 111.791 67.4605 111.537C67.4552 111.45 67.2703 111.374 67.1805 111.38C67.0062 111.477 66.9164 111.483 66.7315 111.407C66.7262 111.32 66.6259 111.153 66.6153 110.98C66.4147 110.644 66.4782 110.206 66.642 109.935C66.8058 109.664 66.7847 109.318 66.6791 109.064C66.5683 108.723 66.5525 108.463 66.5314 108.117C66.5209 107.943 66.5051 107.684 66.3995 107.429C66.389 107.256 66.2939 107.175 66.2834 107.002C66.2518 106.482 66.2202 105.963 66.0936 105.362C65.9774 104.935 65.8666 104.594 65.6606 104.172C65.5603 104.004 65.555 103.917 65.6396 103.825C65.6343 103.739 65.7189 103.647 65.7189 103.647C65.6027 103.219 65.5712 102.7 65.2807 102.37C65.1909 102.375 65.0113 102.386 64.8316 102.397C64.5622 102.413 64.4829 102.592 64.4089 102.857C64.4089 102.857 64.4089 102.857 64.4142 102.944C64.3665 103.642 64.1023 103.745 63.3628 103.442C63.3522 103.269 63.4421 103.264 63.5319 103.258L63.6217 103.253C63.7062 103.161 63.7009 103.074 63.6957 102.988C63.6957 102.988 63.6006 102.906 63.5108 102.912C63.1516 102.934 62.7818 102.782 62.4966 102.539C62.4808 102.279 62.5496 101.927 62.539 101.754C62.3489 101.592 62.164 101.516 62.1482 101.256C62.1166 100.737 62.1166 100.737 62.5762 100.883C62.8509 100.953 63.0252 100.856 62.9196 100.601C62.9091 100.428 62.8933 100.168 62.9726 99.9896C62.9673 99.9031 62.9568 99.7299 62.9515 99.6433C62.9252 99.2103 62.9887 98.7719 63.1473 98.4147C63.2318 98.3226 63.2213 98.1494 63.3006 97.9708C63.4749 97.8733 63.6493 97.7758 63.8236 97.6783C63.8661 96.8935 63.8187 96.1142 63.5917 95.3458C63.5812 95.1726 63.3858 94.9238 63.2009 94.8481C62.736 94.6156 62.6199 94.1881 62.3294 93.8582C62.2344 93.777 62.134 93.6093 62.039 93.5282C62.039 93.5282 61.8541 93.4525 61.8593 93.5391C61.8646 93.6257 61.7801 93.7177 61.8699 93.7123C61.8751 93.7989 61.965 93.7934 62.06 93.8745C62.1551 93.9557 62.1603 94.0423 62.1656 94.1289C61.912 94.405 61.7482 94.6757 61.5843 94.9464C61.505 95.125 61.2409 95.228 61.0613 95.2389C60.7073 95.3473 60.3533 95.4557 59.9835 95.3044C59.8937 95.3099 59.8937 95.3099 59.8039 95.3153C59.4342 95.164 59.2704 95.4347 59.0062 95.5376C58.9164 95.5431 58.9269 95.7163 58.9269 95.7163C58.9322 95.8029 58.9374 95.8895 58.9427 95.9761C58.948 96.0626 58.9532 96.1492 58.8687 96.2413C58.6098 96.4308 58.5358 96.6961 58.5516 96.9558C58.5726 97.3022 58.4035 97.4863 58.1499 97.7624C57.7061 97.8763 57.4314 97.8061 57.0564 97.5682C56.7711 97.3248 56.581 97.1625 56.3856 96.9137C56.2853 96.746 56.0899 96.4971 55.905 96.4214C55.7148 96.2592 55.4401 96.189 55.176 96.292C55.0914 96.384 54.9118 96.3949 54.822 96.4004C54.8325 96.5735 54.8378 96.6601 54.8483 96.8333C54.9486 97.001 54.8799 97.3529 55.1546 97.4231C55.1598 97.5097 55.07 97.5151 55.0753 97.6017C54.8112 97.7047 54.4572 97.8131 54.1825 97.7429C53.7282 97.6836 53.4693 97.8731 53.2209 98.2359C53.0571 98.5066 52.9883 98.8584 52.6343 98.9668C52.3596 98.8966 52.085 98.8264 51.9001 98.7507C51.6201 98.5939 51.7839 98.3233 51.5938 98.161C51.4987 98.0799 51.4935 97.9933 51.3931 97.8256C51.224 98.0097 51.2346 98.1828 51.2503 98.4426C51.2661 98.7024 51.2819 98.9621 51.1181 99.2328C51.0336 99.3249 51.0441 99.498 51.0546 99.6712C50.875 99.6821 50.7852 99.6876 50.6056 99.6985C50.5263 99.8772 50.5316 99.9637 50.4523 100.142C50.3625 100.148 50.1828 100.159 50.093 100.164C49.8236 100.181 49.8236 100.181 49.7496 100.446C49.7549 100.532 49.7601 100.619 49.7654 100.706C49.7707 100.792 49.7707 100.792 49.7812 100.965C49.6861 100.884 49.5963 100.89 49.591 100.803C49.3956 100.554 49.2055 100.392 48.9255 100.235C48.8305 100.154 48.7406 100.16 48.7406 100.16C48.4712 100.176 48.2863 100.1 48.1014 100.025C47.9166 99.9489 47.7369 99.9598 47.6524 100.052C47.4833 100.236 47.3037 100.247 47.1241 100.258C46.7701 100.366 46.6856 100.458 46.7066 100.805C46.7224 101.064 46.828 101.319 46.8438 101.579C46.849 101.665 46.8543 101.752 46.8596 101.838C46.6007 102.028 46.326 101.958 46.1358 101.795C45.7556 101.471 45.296 101.325 44.8417 101.266C44.6621 101.277 44.3821 101.12 44.1972 101.044C44.0916 100.79 43.9913 100.622 43.8857 100.368C43.8804 100.281 43.7801 100.113 43.6903 100.119C43.405 99.8755 43.2942 99.5346 43.2731 99.1883C43.2363 98.5821 42.9458 98.2522 42.4757 97.9331C42.6027 97.0563 42.1115 96.3909 41.6204 95.7254C41.52 95.5577 41.3299 95.3955 41.2348 95.3143C41.2295 95.2277 41.0499 95.2387 41.0499 95.2387C41.0499 95.2387 40.9654 95.3307 40.9707 95.4173C40.9917 95.7637 41.0973 96.018 41.1183 96.3643C41.2345 96.7918 41.2398 96.8784 41.0072 97.5009C40.5581 97.5282 40.2676 97.1982 40.0722 96.9494C39.9772 96.8682 39.9666 96.6951 40.0459 96.5164C40.1252 96.3378 40.1094 96.078 40.0989 95.9048C40.0673 95.3853 39.9406 94.7846 39.8192 94.2705C39.6978 93.7565 39.5764 93.2424 39.5449 92.7229C39.5343 92.5497 39.5238 92.3765 39.6084 92.2845C39.6929 92.1924 39.7775 92.1004 39.862 92.0083C39.8462 91.7485 39.7406 91.4942 39.635 91.2399C39.5136 90.7258 39.3287 90.6502 38.7846 90.5963C38.6948 90.6018 38.605 90.6072 38.5099 90.5261C38.325 90.4504 38.0504 90.3802 37.8655 90.3046C37.7809 90.3966 37.6118 90.5807 37.5273 90.6728C37.1839 90.9544 37.1996 91.2141 37.4003 91.5496C37.6062 91.9716 37.7171 92.3125 37.7434 92.7455C37.8543 93.0864 37.6905 93.357 37.4368 93.6332C36.9667 93.3141 36.7608 92.8921 36.5548 92.4701C36.4598 92.3889 36.4492 92.2158 36.444 92.1292C36.3436 91.9615 36.2486 91.8803 36.0637 91.8047C35.6939 91.6533 35.4192 91.5831 35.0495 91.4318C34.7748 91.3616 34.5106 91.4645 34.2412 91.4809C34.1514 91.4864 33.977 91.5839 33.9876 91.757C33.9188 92.1089 33.9399 92.4552 34.0507 92.7961C34.3623 93.4725 34.4889 94.0731 34.7106 94.7549C34.8215 95.0958 34.8215 95.0958 34.758 95.5342C34.6735 95.6263 34.5731 95.4586 34.4833 95.464C34.1981 95.2206 34.0027 94.9718 33.7228 94.815C33.6277 94.7338 33.5326 94.6527 33.448 94.7448C33.1839 94.8477 32.9938 94.6855 32.7983 94.4366C32.698 94.2689 32.5131 94.1932 32.323 94.031C32.0535 94.0474 31.8739 94.0583 31.6098 94.1612C31.5147 94.0801 31.4144 93.9124 31.4038 93.7392C31.2982 93.4849 31.1926 93.2306 31.0923 93.0629C30.9814 92.722 30.8653 92.2945 30.7544 91.9536C30.538 91.3584 30.4113 90.7577 30.1103 90.2545C29.9096 89.9191 29.8886 89.5727 29.6879 89.2373C29.4662 88.5555 29.1599 87.9658 28.9382 87.284C28.7217 86.6888 28.4207 86.1856 28.294 85.5849C28.0618 84.73 27.6552 83.9725 27.4229 83.1175C27.2012 82.4357 26.8949 81.8459 26.6732 81.1641C26.3458 80.228 26.0132 79.2053 25.5961 78.2747C25.4958 78.107 25.4905 78.0204 25.3902 77.8527C25.1842 77.4306 24.9836 77.0952 24.8674 76.6677C24.746 76.1536 24.445 75.6505 24.2338 75.1419C24.1177 74.7144 23.822 74.2978 23.7006 73.7837C23.5897 73.4428 23.3838 73.0208 23.2729 72.6799C23.067 72.2579 22.9561 71.917 22.7502 71.4949C22.3225 70.3911 21.8895 69.2007 21.3721 68.1023C21.1661 67.6803 20.9655 67.3449 20.8493 66.9174C20.5378 66.241 20.221 65.4781 19.9993 64.7963C19.8779 64.2822 19.5769 63.7791 19.3657 63.2705C19.2548 62.9296 18.9643 62.5996 18.938 62.1666C18.938 62.1666 18.938 62.1666 18.9433 62.2532C18.7584 62.1775 18.9275 61.9934 18.7373 61.8312C18.6422 61.75 18.6317 61.5769 18.6212 61.4037C18.616 61.3171 18.5156 61.1494 18.4205 61.0683C18.1248 60.6517 18.0034 60.1376 17.7974 59.7156C17.6918 59.4613 17.5863 59.207 17.3908 58.9581C17.2905 58.7904 17.2852 58.7038 17.2747 58.5306C17.2694 58.444 17 58.4604 17.0793 58.2818C17.0793 58.2818 17.0793 58.2818 17.0741 58.1952C17.0741 58.1952 17.0741 58.1952 17.0688 58.1086L17.0741 58.1952C16.8786 57.9463 16.6779 57.6109 16.6569 57.2645C16.6516 57.1779 16.5566 57.0968 16.4615 57.0157C16.3664 56.9345 16.6201 56.6584 16.3506 56.6748C16.2503 56.507 16.2398 56.3339 16.1447 56.2527C15.8489 55.8362 15.643 55.4141 15.4371 54.9921C15.4318 54.9055 15.3367 54.8244 15.3315 54.7378C15.2311 54.5701 15.1308 54.4024 15.0305 54.2346C14.9249 53.9803 14.814 53.6394 14.6186 53.3906C14.5182 53.2229 14.4127 52.9686 14.3969 52.7088C14.3018 52.6277 14.2965 52.5411 14.1962 52.3733C14.0906 52.119 14.0748 51.8593 13.7948 51.7025C13.7948 51.7025 13.7896 51.6159 13.6998 51.6213C13.5784 51.1073 13.1875 50.6096 13.0661 50.0955C13.0609 50.0089 12.8708 49.8466 12.8655 49.7601C12.6648 49.4246 12.4641 49.0892 12.2635 48.7537C11.9519 48.0774 11.7355 47.4822 11.3394 46.8979C11.144 46.649 11.0384 46.3947 10.8377 46.0593C10.7268 45.7184 10.5262 45.383 10.2357 45.053C9.85012 44.6419 9.72347 44.0412 9.42246 43.538C9.21652 43.116 9.00531 42.6074 8.61975 42.1963C8.52468 42.1152 8.51943 42.0285 8.41909 41.8608C8.20263 41.2656 7.9016 40.7625 7.60059 40.2593C7.59533 40.1727 7.59006 40.0861 7.59006 40.0861C7.67461 39.9941 7.76443 39.9886 7.85424 39.9832C8.11841 39.8802 8.20295 39.7882 8.19242 39.615C8.17663 39.3552 8.16084 39.0954 8.2296 38.7436C8.22433 38.657 8.22433 38.657 8.21907 38.5704C8.11873 38.4027 8.01312 38.1484 8.00259 37.9752C7.90225 37.8075 7.88645 37.5477 7.78612 37.38C7.57491 36.8714 7.35845 36.2762 7.23706 35.7621C7.22127 35.5023 7.11567 35.248 6.92026 34.9992C6.61399 34.4094 6.30244 33.7331 5.73201 33.2463C5.54186 33.0841 5.44153 32.9163 5.34119 32.7486C5.57904 32.2127 5.57903 32.2127 5.19347 31.8016C5.27276 31.6229 5.26224 31.4498 5.34152 31.2711C4.96123 30.9466 4.58093 30.6221 4.28518 30.2055C4.18485 30.0378 3.90489 29.881 3.70948 29.6321C3.77823 29.2803 4.02661 28.9176 3.73086 28.501C3.90522 28.4035 3.98976 28.3114 4.0743 28.2194C4.06377 28.0462 4.05853 27.9596 3.96346 27.8785C3.85786 27.6242 3.93187 27.359 4.1855 27.0828C4.35459 26.8987 4.60822 26.6226 4.49736 26.2817C4.67698 26.2708 4.76678 26.2653 4.85659 26.2598C4.93061 25.9946 5.00991 25.816 5.08919 25.6373C5.06813 25.291 4.78818 25.1342 4.68258 24.8799C4.3921 24.5499 4.1016 24.2199 3.90093 23.8844C3.69499 23.4624 3.31996 23.2245 2.85512 22.992C2.76531 22.9975 2.68077 23.0895 2.59096 23.095C2.29522 22.6784 1.99946 22.2619 1.88333 21.8344C1.87807 21.7478 1.78301 21.6666 1.68794 21.5855C1.49253 21.3367 1.3922 21.169 1.2866 20.9147C1.09119 20.6658 1.07013 20.3194 0.705626 20.2547C0.615816 20.2601 0.605279 20.087 0.510205 20.0058C0.504942 19.9192 0.415138 19.9247 0.14571 19.9411C0.129919 19.6813 0.214458 19.5893 0.478622 19.4863C0.652977 19.3888 0.827337 19.2913 1.00695 19.2803C1.27112 19.1774 1.45601 19.2531 1.65142 19.5019C1.75176 19.6696 1.94716 19.9185 2.0475 20.0862C2.24291 20.335 2.42778 20.4107 2.68668 20.2212C2.68668 20.2212 2.77649 20.2157 2.77123 20.1291C2.77123 20.1291 2.77123 20.1291 2.76596 20.0425C2.83998 19.7773 2.73437 19.523 2.62877 19.2687C2.52844 19.101 2.43338 19.0198 2.42285 18.8466C2.40706 18.5869 2.30145 18.3326 2.19585 18.0783C1.99518 17.7428 1.87906 17.3153 1.85274 16.8824C2.02183 16.6983 2.10111 16.5196 2.2702 16.3355C2.44982 16.3246 2.6347 16.4003 2.71925 16.3082C2.89887 16.2973 2.98341 16.2053 3.06795 16.1132C3.1525 16.0212 3.32685 15.9237 3.41666 15.9182C3.60154 15.9939 3.78642 16.0696 3.88676 16.2373L3.98184 16.3184C4.08744 16.5727 4.27759 16.735 4.55754 16.8918C4.81644 16.7022 4.98552 16.5181 4.79011 16.2693C4.77959 16.0961 4.68451 16.015 4.67398 15.8418C4.66345 15.6686 4.73749 15.4034 5.00692 15.387C5.27108 15.284 5.45069 15.2731 5.73065 15.4299C6.19548 15.6624 6.65505 15.8083 7.03534 16.1328C7.51071 16.5384 8.07589 16.9386 8.55125 17.3443C8.83647 17.5877 9.12695 17.9177 9.41743 18.2476C9.70791 18.5776 9.99839 18.9076 10.2889 19.2376C10.6692 19.5621 10.9649 19.9786 11.2607 20.3952C11.361 20.5629 11.5459 20.6386 11.641 20.7198C11.8311 20.882 12.1058 20.9522 12.37 20.8492C12.4598 20.8438 12.5391 20.6652 12.5338 20.5786C12.4387 20.4974 12.3384 20.3297 12.2433 20.2486C12.0532 20.0863 11.9528 19.9186 11.937 19.6588C12.1114 19.5613 12.2857 19.4638 12.5657 19.6206C12.8456 19.7774 13.1256 19.9342 13.4848 19.9124C13.749 19.8094 13.6434 19.5551 13.8072 19.2844C13.8971 19.279 13.9921 19.3601 13.9921 19.3601C14.0924 19.5278 14.1875 19.6089 14.2879 19.7766C14.5784 20.1066 14.9428 20.1714 15.3126 20.3227C15.4077 20.4039 15.582 20.3063 15.7616 20.2954C15.656 20.0411 15.5505 19.7868 15.4501 19.6191C15.6245 19.5216 15.7988 19.4241 15.8834 19.332C15.6616 18.6502 15.2708 18.1525 14.9593 17.4762C15.0491 17.4707 15.1442 17.5518 15.3238 17.5409C15.3185 17.4543 15.308 17.2812 15.3027 17.1946C15.3925 17.1891 15.3925 17.1891 15.3978 17.2757C15.4929 17.3568 15.5879 17.438 15.5932 17.5245C15.9047 18.2009 16.0844 18.19 16.4647 18.5145C16.5334 18.1627 16.5176 17.9029 16.3222 17.6541C15.9314 17.1564 15.6251 16.5666 15.2343 16.0689C15.1392 15.9878 15.0442 15.9066 14.9491 15.8255C14.5793 15.6742 14.3839 15.4253 14.1832 15.0899C13.877 14.5001 13.4861 14.0024 13.0953 13.5047C12.8946 13.1693 12.6993 12.9204 12.4986 12.585C12.3032 12.3362 12.0179 12.0928 11.738 11.936C11.6429 11.8548 11.458 11.7792 11.363 11.698C11.2679 11.6169 11.1676 11.4492 10.9879 11.4601L10.9034 11.5522C10.9139 11.7253 10.9192 11.8119 11.0195 11.9797C11.6005 12.6396 12.0124 13.4837 12.5933 14.1436C13.0792 14.7225 13.4806 15.3933 13.9717 16.0588C14.9435 17.2164 15.1389 17.4653 15.16 17.8116Z" fill="#F9B605"/>
</svg>
