<svg width="20" height="12" viewBox="0 0 20 12" fill="none" xmlns="http://www.w3.org/2000/svg">
<path d="M9.22018 11.6379L0.321101 2.85714C0.107034 2.64592 0 2.38944 0 2.08769C0 1.78595 0.107034 1.52947 0.321101 1.31825L1.33028 0.322489C1.54434 0.111268 1.80428 0.00565771 2.11009 0.00565771C2.4159 -0.0245167 2.67584 0.0660066 2.88991 0.277228L10 7.29279L17.1101 0.277228C17.3242 0.0660066 17.5841 -0.0245167 17.8899 0.00565771C18.1957 0.00565771 18.4557 0.111268 18.6697 0.322489L19.6789 1.31825C19.893 1.52947 20 1.78595 20 2.08769C20 2.38944 19.893 2.64592 19.6789 2.85714L10.7798 11.6379C10.5657 11.8793 10.3058 12 10 12C9.69419 12 9.43425 11.8793 9.22018 11.6379Z" fill="#F9B605"/>
</svg>
