<svg width="943" height="715" viewBox="0 0 943 715" fill="none" xmlns="http://www.w3.org/2000/svg">
<path d="M750.472 504.146L750.866 504.704C750.866 504.704 750.866 504.704 751.259 505.262C750.866 504.704 750.866 504.704 750.472 504.146ZM185.348 386.474C186.299 386.639 186.299 386.639 186.299 386.639L185.906 386.081C185.513 385.523 184.955 385.916 185.348 386.474ZM125.829 368.31C125.829 368.31 126.222 368.868 126.779 368.475L127.337 368.082L126.944 367.524C125.993 367.359 125.436 367.752 125.829 368.31ZM783.958 216.703L784.909 216.868C784.909 216.868 784.909 216.868 784.515 216.31C785.073 215.917 785.073 215.917 783.958 216.703C784.122 215.752 784.515 216.31 783.958 216.703ZM445.35 587.288C444.793 587.681 444.793 587.68 445.186 588.238L445.579 588.796L446.136 588.403C446.3 587.453 446.3 587.453 445.35 587.288ZM532.3 619.515C531.972 621.416 533.316 622.139 534.266 622.304C534.266 622.304 534.824 621.911 535.381 621.518C535.381 621.518 535.545 620.568 535.152 620.01C534.202 619.845 533.251 619.68 532.3 619.515ZM550.913 636.454C551.7 637.569 552.486 638.685 554.945 638.622C552.815 636.784 552.814 636.784 550.913 636.454ZM256.962 73.8266C257.127 72.8759 257.291 71.9254 256.897 71.3676C256.504 70.8098 256.111 70.2518 255.554 70.6446C254.997 71.0374 254.439 71.4303 254.439 71.4303C254.439 71.4303 254.275 72.3811 254.668 72.9389C255.619 73.1039 256.569 73.2688 256.962 73.8266ZM294.246 246.264C295.589 246.986 295.982 247.544 296.933 247.709C296.933 247.709 298.441 247.481 298.048 246.924C298.048 246.924 298.212 245.973 297.819 245.415C297.032 244.3 295.918 245.085 294.246 246.264ZM521.059 616.584C521.681 618.651 523.582 618.981 525.319 620.261C525.712 620.819 527.055 621.542 527.613 621.149C528.334 619.806 526.826 620.033 526.433 619.476C525.025 616.294 523.124 615.964 521.059 616.584ZM180.138 382.632C179.58 383.025 179.809 384.534 180.203 385.091C181.153 385.256 182.104 385.421 183.054 385.586C184.005 385.751 184.726 384.408 184.333 383.85C183.711 381.784 181.252 381.847 180.138 382.632ZM185.608 396.311C186.23 398.377 187.967 399.658 189.868 399.988C190.261 400.545 190.982 399.202 191.54 398.809C192.097 398.416 192.261 397.466 191.311 397.301C189.574 396.02 187.673 395.69 185.608 396.311ZM338.214 535.89C339.229 538.515 340.409 540.188 342.703 541.076C344.604 541.406 346.112 541.178 347.784 539.999C347.391 539.442 346.604 538.326 345.654 538.161C343.917 536.88 341.458 536.943 338.214 535.89ZM827.718 433.836C830.406 435.282 831.585 436.955 834.044 436.893C835.945 437.222 837.846 437.553 838.632 438.668C840.598 441.457 843.843 442.51 846.694 443.005C846.694 443.005 847.251 442.612 848.202 442.777C847.809 442.219 847.415 441.662 847.415 441.662C844.728 440.216 842.991 438.935 840.697 438.048C839.353 437.325 837.452 436.995 836.666 435.879C834.929 434.598 833.028 434.269 830.734 433.381C829.783 433.216 829.783 433.216 827.718 433.836ZM880.886 426.419C881.215 424.518 881.543 422.617 881.314 421.108C879.184 419.27 877.119 419.89 875.054 420.511C873.939 421.297 872.824 422.083 873.053 423.591C873.282 425.099 873.511 426.608 874.855 427.331C877.313 427.268 879.379 426.647 880.886 426.419ZM555.372 633.311C555.536 632.36 555.143 631.802 555.307 630.852C554.292 628.228 552.555 626.947 550.261 626.059C549.311 625.894 547.967 625.172 547.574 624.614C546.394 622.94 544.493 622.61 543.149 621.887L542.199 621.722C541.641 622.115 540.527 622.901 539.969 623.294C540.363 623.852 541.149 624.967 541.149 624.967C543.836 626.413 545.573 627.693 548.261 629.139C549.604 629.862 551.341 631.142 553.242 631.472C552.914 633.374 553.864 633.539 555.372 633.311ZM774.151 239.479C775.758 235.842 775.758 235.842 772.677 233.838C770.94 232.558 769.204 231.277 766.91 230.389C764.615 229.501 761.928 228.056 759.634 227.168C758.29 226.445 756.782 226.673 756.618 227.624C756.454 228.574 756.683 230.083 758.026 230.806C758.42 231.364 758.977 230.971 759.37 231.529C760.714 232.251 762.058 232.974 764.352 233.862C766.646 234.75 768.94 235.638 769.956 238.262C771.299 238.984 773.2 239.314 774.151 239.479ZM584.942 620.819C585.434 617.967 585.434 617.967 584.648 616.851C581.896 612.946 577.471 610.22 572.883 608.445C571.932 608.28 570.982 608.115 569.474 608.342C568.524 608.177 567.966 608.57 567.802 609.521C567.638 610.472 567.638 610.472 567.474 611.422C570.161 612.868 572.291 614.706 574.979 616.152C578.616 617.762 581.304 619.208 584.942 620.819ZM588.571 650.823C589.85 649.087 589.457 648.529 588.67 647.413C586.147 645.017 583.231 642.063 578.872 641.796C576.413 641.859 574.119 640.971 572.546 638.74C570.581 635.951 568.122 636.013 565.271 635.518C564.32 635.354 563.763 635.746 563.763 635.746C563.205 636.139 562.648 636.532 562.648 636.532C563.041 637.09 562.877 638.041 562.877 638.041C566.908 640.209 570.939 642.377 574.97 644.546C575.921 644.711 576.314 645.269 576.707 645.826C580.181 648.388 584.376 649.605 588.571 650.823ZM370.631 538.09C368.73 537.76 366.435 536.872 364.534 536.542C363.584 536.377 362.633 536.212 362.24 535.654C358.766 533.093 354.407 532.826 350.605 532.166C349.261 531.443 347.753 531.671 346.41 530.948C342.936 528.387 338.183 527.562 333.988 526.345C331.694 525.457 328.842 524.962 325.991 524.467C325.04 524.302 324.483 524.695 324.319 525.645C323.762 526.038 323.99 527.547 324.941 527.712C326.678 528.992 329.365 530.438 331.659 531.326C333.56 531.656 335.855 532.544 338.149 533.431C340.443 534.319 342.901 534.256 344.638 535.537C345.032 536.095 346.932 536.425 347.883 536.59C350.341 536.527 351.685 537.25 353.422 538.53C354.766 539.253 355.159 539.811 357.06 540.141C359.911 540.636 363.156 541.688 366.008 542.183C366.958 542.348 367.909 542.513 368.302 543.071C372.333 545.24 375.971 546.85 380.002 549.018C382.689 550.464 385.934 551.517 388.621 552.963C390.916 553.85 393.603 555.296 396.061 555.233C398.913 555.728 401.207 556.616 403.501 557.504C407.696 558.721 411.892 559.939 415.529 561.55C418.774 562.602 421.069 563.49 423.756 564.936C425.1 565.658 426.443 566.381 427.558 565.596C428.508 565.761 429.459 565.925 429.852 566.483C433.883 568.652 437.75 571.771 442.667 571.645C443.617 571.81 443.617 571.81 444.568 571.975C448.206 573.586 452.401 574.803 456.039 576.414C456.989 576.579 457.94 576.744 458.89 576.909C459.054 575.958 459.219 575.008 458.826 574.45C456.302 572.054 453.615 570.608 450.37 569.555C444.831 567.615 440.243 565.839 434.868 562.948C430.837 560.779 427.199 559.169 422.84 558.902C419.431 558.8 416.744 557.354 414.22 554.958C413.434 553.842 412.09 553.119 410.582 553.347C408.681 553.017 408.288 552.459 406.945 551.737C404.257 550.291 401.57 548.845 399.276 547.958C396.424 547.463 393.179 546.41 390.328 545.915C387.083 544.862 383.445 543.252 379.643 542.592C377.513 540.753 373.875 539.143 370.631 538.09ZM785.069 230.114C783.725 229.391 782.774 229.226 781.431 228.504C780.644 227.388 779.694 227.223 778.743 227.058C773.205 225.117 768.387 221.833 763.57 218.549C763.176 217.991 762.226 217.827 761.275 217.662C759.374 217.332 758.031 216.609 756.13 216.279C754.229 215.949 754.229 215.949 752.786 218.636C753.179 219.194 753.965 220.309 754.358 220.867C754.751 221.425 755.145 221.983 755.702 221.59C757.767 220.969 759.897 222.808 761.798 223.138C767.173 226.029 772.548 228.92 777.923 231.811C779.266 232.534 780.217 232.699 781.56 233.422C782.511 233.587 782.904 234.145 783.855 234.31C784.805 234.474 785.362 234.082 785.527 233.131C784.904 231.065 784.511 230.507 785.069 230.114ZM880.614 459.174C879.664 459.009 879.271 458.451 878.32 458.286C874.518 457.626 871.667 457.131 867.865 456.471C863.112 455.646 858.195 455.772 853.771 453.046C852.427 452.323 849.969 452.386 848.068 452.056C847.117 451.891 845.61 452.119 844.659 451.954C839.907 451.129 835.711 449.911 830.566 448.528C829.615 448.363 829.058 448.756 827.55 448.984C827.943 449.542 828.729 450.658 828.729 450.658C829.68 450.823 830.63 450.987 831.581 451.152C833.089 450.924 834.039 451.089 835.383 451.812C836.727 452.535 837.677 452.7 839.021 453.423C841.315 454.311 843.609 455.199 846.461 455.693C849.083 454.68 850.82 455.96 853.114 456.848C853.508 457.406 854.458 457.571 855.015 457.178C861.669 458.333 868.323 459.488 874.583 460.085C875.534 460.25 877.041 460.022 878.549 459.794C879.893 460.517 880.057 459.566 880.614 459.174C881.008 459.731 881.008 459.731 880.614 459.174C881.008 459.731 880.614 459.174 880.614 459.174ZM154.508 372.309C155.295 373.424 155.688 373.982 156.474 375.098C156.867 375.656 157.818 375.821 158.375 375.428C158.933 375.035 158.539 374.477 158.146 373.919C156.967 372.246 155.623 371.523 154.508 372.309C154.115 371.751 154.115 371.751 153.558 372.144C154.115 371.751 154.115 371.751 154.508 372.309ZM269.73 127.448L270.287 127.055C270.123 128.006 270.123 128.006 269.73 127.448C269.173 127.841 269.173 127.841 269.73 127.448C268.779 127.283 268.779 127.283 268.779 127.283C269.173 127.841 269.173 127.841 269.73 127.448ZM537.706 630.734C537.706 630.734 537.148 631.127 537.706 630.734C537.148 631.127 537.706 630.734 537.706 630.734ZM831.65 439.415C831.65 439.415 832.207 439.022 831.65 439.415C832.207 439.022 831.65 439.415 831.65 439.415ZM593.583 661.485C592.632 661.32 591.125 661.547 589.617 661.775C590.403 662.891 591.189 664.006 591.976 665.122C590.468 665.35 589.517 665.185 588.403 665.971C586.109 665.083 586.044 662.624 583.028 663.079C581.913 663.865 583.65 665.146 583.486 666.096C583.322 667.047 582.764 667.44 582.043 668.783C580.699 668.061 579.749 667.896 578.963 666.78C577.783 665.106 576.832 664.942 574.931 664.612C572.244 663.166 569.393 662.671 566.148 661.618C565.984 662.569 564.869 663.355 564.705 664.305C563.361 663.582 562.411 663.417 561.067 662.695C560.674 662.137 560.117 662.53 559.723 661.972C558.315 658.79 555.299 659.246 552.841 659.308C551.89 659.143 551.333 659.536 550.94 658.979C546.909 656.81 545.664 652.677 542.748 649.723C542.355 649.166 542.519 648.215 542.126 647.657C541.274 644.083 539.145 642.244 535.9 641.191C532.655 640.139 529.574 638.135 527.609 635.346C526.429 633.672 524.692 632.392 522.234 632.455C521.841 631.897 521.447 631.339 521.218 629.831C517.81 629.729 514.401 629.626 511.484 626.672C509.747 625.392 508.404 624.669 507.224 622.996C504.308 620.041 500.67 618.431 497.032 616.82C492.051 614.487 486.676 611.596 482.252 608.869C479.171 606.866 475.926 605.813 472.289 604.203C468.651 602.592 464.62 600.424 461.703 597.47C463.375 596.291 465.112 597.572 466.063 597.737C469.7 599.347 473.731 601.516 477.762 603.684C479.499 604.965 481.4 605.295 483.301 605.625C486.546 606.678 489.234 608.123 492.314 610.126C496.738 612.853 502.277 614.793 506.866 616.569C507.259 617.127 507.816 616.734 507.816 616.734C508.931 615.948 508.538 615.39 508.145 614.833C506.965 613.159 505.785 611.486 504.442 610.763C504.442 610.763 504.442 610.763 504.049 610.205C501.69 606.858 497.887 606.198 495.2 604.753C490.776 602.026 485.794 599.693 480.649 598.31C479.698 598.145 479.305 597.587 478.912 597.03C475.045 593.911 469.735 593.478 465.146 591.703C463.245 591.373 461.345 591.043 459.05 590.155C456.756 589.267 454.298 589.33 452.068 590.902C451.675 590.344 451.282 589.786 450.889 589.228C450.496 588.67 449.545 588.505 448.431 589.291C447.316 590.077 447.709 590.635 448.495 591.75C447.545 591.585 446.988 591.978 446.594 591.42C442.956 589.81 438.204 588.985 434.73 586.424C431.65 584.42 428.798 583.925 426.275 581.529C425.882 580.971 425.324 581.364 425.324 581.364C422.473 580.869 420.179 579.981 418.213 577.192C414.082 578.434 412.281 574.694 409.593 573.248C409.757 572.297 410.708 572.462 410.708 572.462C410.708 572.462 410.708 572.462 411.101 573.02C415.625 572.337 419.656 574.505 423.687 576.673C424.637 576.838 425.588 577.003 426.538 577.168C427.882 577.891 429.39 577.663 430.176 578.779C431.52 579.502 433.421 579.832 434.371 579.997C435.322 580.162 437.223 580.492 438.895 579.313C438.502 578.755 439.059 578.363 438.666 577.805C437.093 575.573 434.406 574.128 432.112 573.24C427.359 572.415 423.328 570.247 418.74 568.471C415.495 567.418 412.808 565.973 410.12 564.527L410.678 564.134C410.678 564.134 410.285 563.577 409.891 563.019C409.891 563.019 409.891 563.019 409.334 563.412L409.17 564.362L409.563 564.92C408.612 564.755 408.055 565.148 407.662 564.59C405.532 562.752 402.68 562.257 400.222 562.32C397.764 562.382 395.863 562.053 394.519 561.33C393.175 560.607 391.274 560.277 389.373 559.947C389.373 559.947 388.816 560.34 387.865 560.175C388.259 560.733 388.652 561.29 389.045 561.848C391.732 563.294 393.862 565.132 396.156 566.02C397.107 566.185 398.451 566.908 399.401 567.073C402.253 567.568 404.94 569.013 407.07 570.852L407.463 571.41C405.398 572.03 403.825 569.799 401.76 570.42C400.81 570.255 399.859 570.09 399.859 570.09C398.58 571.826 397.236 571.103 395.893 570.381C393.37 567.984 390.518 567.489 387.274 566.437C386.323 566.272 384.979 565.549 384.586 564.991C384.193 564.433 383.242 564.268 382.685 564.661C379.276 564.559 376.031 563.506 372.951 561.503C371.607 560.78 369.706 560.45 368.362 559.727C367.412 559.562 367.576 558.612 367.183 558.054C366.79 557.496 365.446 556.773 365.053 556.215C366.954 556.545 368.462 556.318 369.805 557.04C370.691 554.746 370.855 553.795 369.905 553.63C368.168 552.35 366.267 552.02 363.973 551.132C362.629 550.409 361.121 550.637 359.942 548.964C359.942 548.964 359.549 548.406 358.991 548.799C356.14 548.304 353.288 547.809 350.601 546.363C347.585 546.819 346.405 545.145 344.833 542.914C342.768 543.535 344.111 544.258 343.947 545.208C341.653 544.321 339.752 543.991 338.015 542.71C336.671 541.987 335.328 541.264 335.099 539.756C334.706 539.198 334.312 538.64 333.362 538.475C331.854 538.703 330.117 537.422 328.609 537.65C327.659 537.485 326.708 537.32 326.479 535.812C327.43 535.977 327.43 535.977 328.38 536.142C330.839 536.079 331.56 534.736 331.495 532.276C328.644 531.781 325.956 530.336 323.105 529.841C319.303 529.181 317.173 527.343 315.371 523.603C315.142 522.094 313.798 521.372 312.29 521.599C311.733 521.992 311.176 522.385 310.619 522.778C311.012 523.336 311.405 523.894 311.405 523.894L310.848 524.286C309.897 524.121 308.946 523.956 308.553 523.399C307.21 522.676 306.259 522.511 304.915 521.788C303.014 521.458 300.72 520.57 298.983 519.29C297.247 518.009 295.903 517.286 294.166 516.006C292.429 514.725 290.364 515.346 288.463 515.016C287.119 514.293 285.218 513.963 284.432 512.847C282.302 511.009 279.45 510.514 276.992 510.577C277.649 506.774 277.255 506.216 273.846 506.114C273.289 506.507 272.896 505.949 272.896 505.949C272.896 505.949 273.453 505.557 273.06 504.999L272.11 504.834C270.209 504.504 268.865 503.781 266.964 503.451C264.67 502.563 263.49 500.89 262.311 499.216C261.917 498.659 262.082 497.708 262.639 497.315C262.803 496.364 263.525 495.021 264.246 493.677C265.754 493.449 266.869 492.664 268.377 492.436C268.934 492.043 269.655 490.7 268.312 489.977C267.919 489.419 267.919 489.419 266.968 489.254C264.674 488.366 262.38 487.478 260.479 487.148C258.02 487.211 256.283 485.931 255.661 483.865C252.416 482.812 249.565 482.317 247.042 479.92C243.24 479.261 239.766 476.699 235.407 476.432C235.964 476.039 236.128 475.089 236.685 474.696C236.85 473.745 236.456 473.187 236.227 471.679C234.491 470.398 232.196 469.511 230.46 468.23C230.624 467.279 231.181 466.886 231.345 465.936C231.509 464.985 231.28 463.477 230.33 463.312C228.986 462.589 227.478 462.817 227.249 461.308C230.658 461.41 233.903 462.463 236.426 464.859C238.949 467.256 242.194 468.308 244.882 469.754C245.832 469.919 247.176 470.642 247.733 470.249C250.355 469.235 251.699 469.958 253.436 471.239C256.123 472.684 259.368 473.737 263.105 471.938C264.22 471.152 264.384 470.202 263.598 469.086C262.418 467.413 261.075 466.69 259.895 465.016C258.945 464.851 257.437 465.079 256.486 464.914C252.52 465.205 249.439 463.202 247.08 459.855C246.687 459.297 245.901 458.181 244.951 458.016C244 457.851 243.443 458.244 241.935 458.472C241.377 458.865 241.377 458.865 240.82 459.258C240.427 458.7 240.427 458.7 240.034 458.142C239.576 455.125 237.281 454.237 234.43 453.742C233.479 453.577 232.922 453.97 231.972 453.805C231.021 453.64 230.464 454.033 230.07 453.475C226.597 450.914 222.302 453.106 219.058 452.053L217.943 452.839C217.943 452.839 218.172 454.347 218.729 453.955C220.073 454.677 221.417 455.4 222.924 455.172C223.875 455.337 224.825 455.502 225.776 455.667C225.448 457.568 225.677 459.077 224.955 460.42C221.71 459.368 218.63 457.364 215.221 457.262C214.271 457.097 213.877 456.539 212.534 455.817C210.239 454.929 207.945 454.041 206.208 452.76C204.865 452.038 203.357 452.266 202.735 450.199L201.391 449.476C199.883 449.704 197.818 450.325 196.31 450.553C195.36 450.388 194.573 449.272 193.623 449.107C192.115 449.335 190.607 449.563 189.099 449.791C188.313 448.675 186.969 447.952 186.019 447.787C187.133 447.002 187.855 445.658 189.363 445.43C191.985 444.417 192.871 442.123 193.921 438.878C194.806 436.584 195.135 434.682 196.02 432.388C195.234 431.273 194.448 430.157 192.94 430.385C190.481 430.448 188.023 430.511 185.171 430.016C183.992 428.342 186.221 426.771 185.992 425.262C185.206 424.147 184.42 423.031 183.24 421.358C185.076 419.229 185.962 416.934 189.371 417.036C190.322 417.201 190.486 416.251 191.436 416.416C191.371 413.957 189.634 412.676 188.848 411.56C189.012 410.61 189.177 409.659 189.341 408.708C191.341 405.629 189.375 402.839 187.245 401.001C185.508 399.72 183.936 397.489 182.756 395.816C181.97 394.7 180.233 393.419 179.282 393.255C176.431 392.76 174.137 391.872 171.514 392.885C169.449 393.506 166.204 392.453 164.303 392.123C161.944 388.776 164.338 386.254 163.88 383.237C165.223 383.96 167.124 384.29 168.075 384.455C169.19 383.669 169.911 382.326 172.205 383.214C173.156 383.379 173.713 382.986 174.435 381.642C175.156 380.299 174.763 379.741 173.977 378.626C173.19 377.51 172.24 377.345 171.453 376.229C169.323 374.391 167.422 374.061 164.964 374.124C163.456 374.351 162.506 374.187 161.555 374.022C159.654 373.692 158.54 374.477 156.081 374.54C154.737 373.817 153.951 372.702 152.214 371.421C149.985 372.993 147.133 372.497 145.003 370.659C144.217 369.543 143.266 369.378 141.923 368.656C138.842 366.652 137.892 366.487 134.154 368.287C133.826 370.188 134.055 371.696 134.12 374.155C132.055 374.776 130.383 375.955 128.875 376.182C128.547 378.084 128.775 379.592 129.004 381.101C129.233 382.609 129.856 384.675 130.085 386.184C130.707 388.25 131.493 389.366 132.508 391.99C132.344 392.941 132.18 393.891 132.573 394.449C132.409 395.4 132.802 395.958 132.638 396.908C131.523 397.694 130.409 398.48 129.687 399.823C127.557 397.985 125.985 395.753 126.477 392.901C126.477 392.901 126.641 391.951 126.248 391.393C124.511 390.112 124.84 388.211 125.168 386.31C125.332 385.359 124.546 384.243 124.71 383.293C123.53 381.619 122.908 379.553 121.729 377.88C121.336 377.322 120.942 376.764 120.549 376.206C118.812 374.925 118.19 372.859 117.011 371.186C116.224 370.07 116.388 369.119 116.159 367.611C117.274 366.825 118.782 366.598 119.339 366.205C119.897 365.812 119.668 364.303 119.832 363.353C120.389 362.96 120.782 363.518 121.34 363.125C123.634 364.013 124.191 363.62 125.077 361.326C125.798 359.982 126.52 358.639 127.635 357.853C129.864 356.281 131.929 355.661 134.159 354.089C134.323 353.139 133.701 351.073 135.373 349.894C135.93 349.501 136.094 348.551 135.701 347.993C135.079 345.926 135.407 344.025 136.129 342.682C136.293 341.731 136.457 340.78 135.506 340.615C134.72 339.5 133.606 340.285 133.048 340.678C132.491 341.071 131.769 342.415 131.212 342.807C130.654 343.2 130.097 343.593 129.376 344.937C126.295 342.933 126.23 340.474 125.772 337.457C125.543 335.949 126.265 334.605 126.593 332.704C128.265 331.525 128.265 331.525 128.922 327.723C124.891 325.554 120.86 323.386 116.271 321.61C115.878 321.053 115.649 319.544 115.256 318.986C114.241 316.362 113.29 316.197 110.832 316.26C110.274 316.653 109.324 316.488 108.766 316.881C107.587 315.207 106.014 312.976 102.441 313.825C103.163 312.481 103.72 312.088 103.72 312.088C106.343 311.075 109.129 309.111 112.538 309.213C113.489 309.378 114.046 308.985 114.604 308.592C118.177 307.743 120.406 306.172 122.406 303.092C123.128 301.749 123.292 300.798 124.014 299.455C127.193 298.048 130.209 297.593 133.618 297.695C136.076 297.632 139.092 297.176 141.157 296.555C143.78 295.542 145.845 294.921 148.697 295.416C149.647 295.581 151.155 295.353 152.27 294.567C154.892 293.554 155.942 290.309 158.171 288.738C159.286 287.952 159.615 286.051 159.55 283.592L159.714 282.641C162.107 280.119 164.73 279.106 167.91 277.699C169.025 276.913 170.926 277.243 172.269 277.966C173.613 278.689 174.957 279.412 177.251 280.3C180.889 281.91 184.297 282.012 187.641 279.655C188.199 279.262 188.199 279.262 188.756 278.87C188.756 278.87 188.756 278.87 189.314 278.477C189.085 276.968 189.413 275.067 189.184 273.559C191.642 273.496 193.543 273.826 195.051 273.598C196.723 272.419 195.544 270.746 196.265 269.402C196.822 269.01 197.216 269.567 197.773 269.175L197.216 269.567C198.166 269.732 198.953 270.848 199.346 271.406C199.739 271.964 199.739 271.964 200.132 272.521C200.689 272.129 200.69 272.129 201.247 271.736C203.312 271.115 203.934 273.181 205.999 272.561C206.557 272.168 207.671 271.382 207.442 269.874C206.82 267.807 205.477 267.085 203.74 265.804C202.789 265.639 202.789 265.639 201.839 265.474C198.823 265.93 195.414 265.827 192.956 265.89C190.497 265.953 188.203 265.065 185.909 264.178C184.565 263.455 183.779 262.339 183.55 260.831C183.157 260.273 182.599 260.666 182.206 260.108L182.37 259.157C185.55 257.751 186.043 254.899 187.879 252.77C188.829 252.935 188.829 252.935 189.78 253.1C191.124 253.823 191.845 252.479 192.96 251.694C194.304 252.416 195.09 253.532 197.155 252.911C197.155 252.911 197.548 253.469 198.106 253.076C198.106 253.076 198.106 253.076 197.712 252.518C197.712 252.518 197.155 252.911 196.762 252.353C196.369 251.796 196.533 250.845 196.14 250.287C197.09 250.452 198.041 250.617 198.991 250.782C199.942 250.947 200.499 250.554 201.614 249.769C202.729 248.983 204.401 247.804 206.137 249.085C207.088 249.25 208.038 249.415 208.596 249.022C209.317 247.679 210.039 246.335 210.367 244.434C210.367 244.434 210.76 244.991 211.318 244.599L210.76 244.992C210.367 244.434 210.367 244.434 210.531 243.483C210.696 242.532 210.302 241.975 208.794 242.202C208.794 242.202 208.401 241.645 207.844 242.038C208.401 241.645 209.909 241.417 210.466 241.024C211.417 241.189 212.368 241.354 212.925 240.961C214.368 238.274 214.368 238.274 216.826 238.211C218.334 237.983 220.006 236.805 221.35 237.528C222.3 237.693 223.186 235.399 222.235 235.234C220.892 234.511 220.27 232.445 220.434 231.494C220.991 231.101 222.106 230.315 222.663 229.923C223.056 230.48 223.056 230.48 223.449 231.038C223.678 232.547 223.907 234.055 226.366 233.992C226.923 233.599 226.53 233.042 227.645 232.256C228.989 232.979 230.332 233.701 232.069 234.982C233.741 233.804 233.512 232.295 233.676 231.344C234.234 230.952 235.348 230.166 235.906 229.773C236.463 229.38 236.856 229.938 236.856 229.938C239.15 230.826 241.773 229.812 244.002 228.241C245.117 227.455 244.495 225.389 243.544 225.224C240.693 224.729 238.727 221.94 236.597 220.102C235.253 219.379 232.466 221.343 230.5 218.554C232.73 216.982 234.795 216.362 237.482 217.807C239.319 215.678 235.288 213.51 237.517 211.939C239.254 213.219 240.433 214.893 240.105 216.794C239.941 217.745 240.727 218.86 241.842 218.075C242.006 217.124 242.17 216.173 242.892 214.83C243.056 213.879 243.613 213.486 243.22 212.928C241.254 210.139 242.861 206.502 241.453 203.32C241.06 202.762 241.781 201.418 242.732 201.583C244.075 202.306 245.026 202.471 247.091 201.851C247.649 201.458 249.156 201.23 250.107 201.395C249.813 197.427 249.126 192.902 246.767 189.555C246.374 188.997 245.981 188.439 245.03 188.274C242.736 187.386 240.048 185.941 238.312 184.66C237.918 184.102 236.968 183.938 236.017 183.773C233.166 183.278 231.986 181.604 232.479 178.752C232.643 177.802 232.971 175.9 233.3 173.999C233.857 173.606 234.972 172.82 236.48 172.592C236.644 171.642 236.251 171.084 236.415 170.133C229.204 169.371 221.436 169.002 213.831 167.682C214.16 165.781 214.488 163.88 214.817 161.978C212.916 161.648 210.621 160.761 209.671 160.596C209.278 160.038 209.278 160.038 208.884 159.48C209.213 157.579 209.377 156.628 209.705 154.727C210.034 152.825 208.132 152.495 208.461 150.594C208.625 149.643 206.888 148.363 206.659 146.854C207.381 145.511 208.889 145.283 210.561 144.105C211.675 143.319 213.183 143.091 214.298 142.305C216.527 140.734 218.593 140.113 221.444 140.608C227.082 139.139 232.228 140.522 237.538 140.954C238.488 141.119 239.439 141.284 240.16 139.94C242.39 138.369 244.455 137.748 247.307 138.243C247.307 138.243 247.864 137.85 248.257 138.408C250.715 138.345 251.994 136.609 251.372 134.543C250.979 133.985 251.143 133.034 250.75 132.476C251.307 132.084 251.7 132.641 252.258 132.248C253.537 130.512 255.209 129.334 256.716 129.106C257.602 126.812 258.095 123.96 258.98 121.666C257.801 119.992 256.621 118.319 256.163 115.302C256.721 114.909 257.278 114.516 258.229 114.681C259.179 114.846 261.08 115.176 262.031 115.341C263.932 115.671 265.439 115.443 266.554 114.657C266.718 113.707 266.883 112.756 266.654 111.248C268.161 111.02 269.112 111.185 269.669 110.792C270.784 110.006 270.883 106.596 270.097 105.481C269.704 104.923 269.311 104.365 268.753 104.758C266.295 104.821 264.722 102.59 264.1 100.523C263.871 99.0148 262.691 97.3414 262.462 95.8329C261.512 95.6679 260.168 94.9452 259.218 94.7803C258.596 92.714 259.317 91.3705 259.481 90.4199C260.596 89.6342 261.382 90.7498 262.333 90.9148C265.184 91.4097 267.643 91.3468 269.609 94.1359C270.002 94.6937 270.952 94.8586 271.903 95.0236C273.804 95.3535 275.148 96.0764 277.049 96.4063C277.999 96.5713 279.507 96.3434 280.457 96.5084C282.129 95.3299 279.606 92.9337 282.458 93.4287C282.065 92.8709 282.622 92.4779 282.229 91.9201C281.049 90.2466 279.312 88.9662 277.411 88.6362C273.773 87.0256 270.529 85.9728 267.613 83.0187C264.696 80.0647 261.058 78.454 256.863 77.2362C255.519 76.5134 254.176 75.7907 252.832 75.0679C251.095 73.7873 250.309 72.6718 248.572 71.3912C247.228 70.6683 246.835 70.1105 246.049 68.9948C246.606 68.602 247.556 68.767 247.163 68.2092C247.656 65.3572 250.049 62.8351 249.198 59.2603C248.019 57.5869 246.839 55.9133 244.774 56.534C242.709 57.1547 241.594 57.9406 240.938 61.7432C239.594 61.0204 238.643 60.8555 238.972 58.9541C239.136 58.0035 239.3 57.0526 238.907 56.4948C239.071 55.5442 239.235 54.5935 239.399 53.6429C240.514 52.8572 241.628 52.0716 242.743 51.2859C243.858 50.5003 244.973 49.7145 245.301 47.8132C245.465 46.8625 246.023 46.4699 246.187 45.5192C247.63 42.8323 249.466 40.7029 252.252 38.7387C256.547 36.5466 260.842 34.3548 264.972 33.1133C269.66 31.4791 273.397 29.6799 278.085 28.0457C280.15 27.425 282.215 26.8043 284.28 26.1836C288.804 25.5 292.934 24.2585 297.458 23.5749C301.588 22.3336 306.505 22.2082 310.078 21.3596C316.11 20.4482 321.813 21.4381 327.68 21.4773C331.646 21.1865 335.612 20.8956 339.579 20.6049C344.102 19.9213 348.855 20.7461 353.607 21.571C358.36 22.3959 362.326 22.1054 366.85 21.4218C367.407 21.029 367.8 21.5868 368.357 21.1939C372.095 19.3947 372.095 19.3949 375.504 19.497C376.061 19.1041 376.225 18.1534 376.225 18.1534C376.947 16.8099 378.061 16.0242 379.963 16.3542C381.864 16.6842 384.322 16.6213 386.387 16.0007C387.895 15.7728 388.452 15.3799 389.174 14.0365C389.895 12.693 391.403 12.465 392.354 12.6299C394.255 12.9599 395.762 12.732 397.664 13.062C401.466 13.7219 405.661 14.9398 408.741 16.9432C409.135 17.501 409.692 17.1081 410.085 17.6659C412.215 19.5043 415.067 19.9994 417.361 20.8871C420.212 21.3821 422.9 22.8276 425.751 23.3225C429.947 24.5403 433.584 26.1511 437.551 25.8603C440.631 27.8637 443.647 27.4078 446.892 28.4606C450.136 29.5133 452.988 30.0083 455.839 30.5032C460.592 31.3281 465.345 32.1531 470.097 32.9779C473.899 33.6379 478.094 34.8558 482.454 35.1229C483.962 34.895 485.141 36.5684 487.206 35.9478C488.714 35.7199 490.615 36.0499 492.516 36.3798C494.417 36.7098 495.925 36.4819 497.826 36.8119C498.777 36.9768 499.727 37.1418 500.678 37.3068C504.873 38.5245 508.839 38.2338 512.641 38.8937C521.524 38.4773 529.75 41.8634 537.748 43.741C542.893 45.1238 548.039 46.5066 553.185 47.8894C555.25 47.2686 556.823 49.4998 559.281 49.4369C561.346 48.8162 563.477 50.6547 565.378 50.9847C567.279 51.3146 569.573 52.2025 571.474 52.5324C573.375 52.8623 575.276 53.1923 576.784 52.9645C580.75 52.6737 584.552 53.3336 587.797 54.3863C592.942 55.7691 597.695 56.594 602.283 58.3696C604.513 56.7983 606.578 56.1775 608.872 57.0652C614.018 58.448 619.721 59.438 624.867 60.8208C625.26 61.3786 625.817 60.9856 626.21 61.5434C631.356 62.9262 636.895 64.8667 642.041 66.2494C646.236 67.4672 650.431 68.6849 654.069 70.2954C654.856 71.4111 655.97 70.6256 656.921 70.7905C656.757 71.7412 656.756 71.7411 657.707 71.9061C658.264 71.5133 658.264 71.5132 658.822 71.1204C664.918 72.6681 670.457 74.6086 676.946 76.7142C684.386 78.9847 691.99 80.3047 699.266 83.5258C700.61 84.2486 703.068 84.1856 704.969 84.5156C706.87 84.8455 707.821 85.0106 709.164 85.7333C711.065 86.0633 712.802 87.344 715.097 88.2318C720.242 89.6145 725.224 91.9478 730.763 93.8884C735.351 95.6639 740.497 97.0466 745.085 98.8222C748.33 99.875 751.575 100.928 754.655 102.931C755.999 103.654 757.736 104.935 759.08 105.657C760.03 105.822 760.816 106.938 761.374 106.545C763.439 105.925 764.225 107.04 765.569 107.763C768.256 109.209 768.256 109.208 766.256 112.288C764.748 112.516 763.404 111.793 761.897 112.021C759.438 112.084 757.701 110.803 756.129 108.572C755.736 108.014 754.949 106.899 753.999 106.734C750.197 106.074 746.559 104.463 742.757 103.803C742.757 103.803 742.757 103.803 741.806 103.638C740.692 104.424 740.134 104.817 739.413 106.16C739.806 106.718 739.806 106.718 740.199 107.276C745.574 110.167 750.555 112.501 755.93 115.392C759.568 117.002 762.091 119.398 765.729 121.009C768.416 122.455 771.104 123.9 773.791 125.346C775.135 126.069 775.528 126.627 776.872 127.349C776.314 127.742 776.314 127.742 775.757 128.135C775.2 128.528 774.642 128.921 775.035 129.479C774.871 130.429 775.264 130.987 775.658 131.545C776.051 132.103 777.001 132.268 777.395 132.826C780.475 134.829 783.162 136.275 784.407 140.407C784.964 140.014 786.472 139.786 787.029 139.393C791.454 142.12 795.878 144.846 801.252 147.737C802.203 147.902 802.989 149.018 803.776 150.133C804.562 151.249 804.398 152.2 805.184 153.315C805.577 153.873 806.921 154.596 807.707 155.712C806.757 155.547 806.199 155.939 805.642 156.332C804.134 156.56 803.184 156.395 802.462 157.739C802.298 158.689 801.183 159.475 800.233 159.31C797.381 158.815 796.66 160.159 795.381 161.895C794.824 162.288 794.266 162.681 794.102 163.631C793.774 165.532 794.953 167.206 795.576 169.272C795.969 169.83 796.362 170.388 797.312 170.553C799.049 171.833 800.393 172.556 802.294 172.886C803.245 173.051 804.031 174.167 804.424 174.725C805.21 175.84 805.21 175.84 803.767 178.527C800.916 178.032 798.457 178.095 797.014 180.782C795.571 183.469 794.128 186.156 797.045 189.11C794.751 188.222 793.8 188.057 792.292 188.285C789.834 188.348 788.555 190.084 789.734 191.758C790.914 193.431 792.487 195.663 794.781 196.55C796.518 197.831 798.419 198.161 800.713 199.049C801.106 199.607 801.499 200.164 801.728 201.673C801.171 202.066 801.564 202.624 801.564 202.624C798.942 203.637 797.269 204.816 794.647 205.829C795.662 208.453 794.777 210.747 792.94 212.877C792.383 213.269 791.268 214.055 790.875 213.497C788.974 213.167 787.302 214.346 785.63 215.524C785.466 216.475 785.302 217.426 785.138 218.376C789.791 222.611 794.608 225.895 799.983 228.786C801.327 229.509 803.621 230.397 804.965 231.12C804.8 232.07 804.243 232.463 803.85 231.905C802.506 231.182 801.556 231.017 800.212 230.295C797.918 229.407 796.017 229.077 794.345 230.255C794.18 231.206 793.459 232.55 793.295 233.5C792.738 233.893 791.623 234.679 790.672 234.514C788.771 234.184 787.657 234.97 786.935 236.313C786.378 236.706 785.82 237.099 785.263 237.491C783.919 236.769 782.018 236.439 781.068 236.274C779.724 235.551 778.216 235.779 777.102 236.564C775.987 237.35 775.823 238.301 775.494 240.202C777.231 241.483 778.968 242.763 781.033 242.143C783.099 241.522 785.393 242.41 786.572 244.083C788.145 246.314 790.603 246.252 792.668 245.631C794.012 246.354 794.405 246.912 795.749 247.634C796.535 248.75 797.486 248.915 799.387 249.245C801.288 249.575 802.632 250.298 804.369 251.578C809.35 253.912 813.774 256.638 818.756 258.971C820.099 259.694 821.607 259.466 822.951 260.189C824.295 260.912 825.803 260.684 826.425 262.75C826.818 263.308 827.769 263.473 827.769 263.473C831.735 263.182 835.208 265.744 838.453 266.796C843.992 268.737 848.974 271.07 853.955 273.404C855.299 274.126 857.2 274.456 859.101 274.786C860.051 274.951 861.953 275.281 862.903 275.446C863.854 275.611 864.247 276.169 865.361 275.383C865.919 274.991 866.869 275.155 867.262 275.713C868.999 276.994 871.129 278.832 873.259 280.671C875.389 282.509 877.126 283.79 879.42 284.678C880.764 285.401 882.665 285.73 883.845 287.404C883.287 287.797 882.73 288.19 881.222 288.418C882.466 292.55 883.318 296.125 887.906 297.9C887.742 298.851 887.971 300.36 887.807 301.31C888.593 302.426 889.937 303.149 890.887 303.314C891.838 303.479 892.624 304.594 892.46 305.545C892.689 307.053 893.082 307.611 894.426 308.334C896.163 309.615 897.506 310.337 898.128 312.404C897.8 314.305 896.686 315.091 895.178 315.318C892.555 316.332 890.883 317.511 889.44 320.197C888.719 321.541 887.604 322.327 885.539 322.947C881.966 323.796 881.801 324.746 881.702 328.156C881.538 329.107 881.767 330.615 882.717 330.78C883.504 331.896 884.847 332.619 885.798 332.784C886.191 333.342 887.142 333.507 888.092 333.672C892.123 335.84 891.402 337.183 890.516 339.478C890.352 340.428 890.352 340.428 890.188 341.379C891.432 345.512 893.398 348.301 897.593 349.518C898.544 349.683 898.937 350.241 899.33 350.799C900.903 353.03 902.64 354.311 904.77 356.149C907.85 358.153 909.423 360.384 908.766 364.187C908.995 365.695 908.831 366.646 910.01 368.319C910.797 369.435 910.075 370.778 908.567 371.006C906.502 371.627 904.044 371.69 902.143 371.36C900.635 371.588 899.52 372.373 898.799 373.717C898.077 375.06 896.963 375.846 895.848 376.632C894.012 378.761 893.683 380.662 895.256 382.893C896.829 385.125 898.566 386.405 900.138 388.637C900.925 389.752 901.318 390.31 902.104 391.426C902.726 393.492 904.299 395.723 905.479 397.397C905.872 397.955 906.658 399.07 906.887 400.579C906.788 403.988 907.803 406.612 906.753 409.857C906.425 411.758 906.097 413.66 907.276 415.333C907.669 415.891 907.505 416.842 907.341 417.792C905.34 420.872 902.718 421.886 899.866 421.391C898.358 421.619 896.851 421.846 895.343 422.074C893.835 422.302 891.934 421.972 890.59 421.249C888.689 420.919 887.181 421.147 884.559 422.161C886.918 425.508 888.162 429.64 892.915 430.465C893.701 431.581 893.537 432.532 893.93 433.089C892.815 433.875 892.258 434.268 891.701 434.661C890.029 435.839 887.963 436.46 886.685 438.196C885.406 439.933 883.898 440.161 881.833 440.781C875.408 441.135 869.148 440.538 862.723 440.891C861.215 441.119 859.478 439.838 857.971 440.066C856.07 439.736 854.955 440.522 855.577 442.588C855.413 443.539 856.199 444.655 856.592 445.212C861.181 446.988 866.426 444.961 870.85 447.687C870.129 449.031 869.8 450.932 869.079 452.276C870.029 452.441 870.422 452.998 871.373 453.163C875.175 453.823 878.584 453.925 881.828 454.978C883.729 455.308 885.237 455.08 886.516 453.344C887.631 452.558 888.188 452.165 889.303 451.38C889.86 450.987 890.418 450.594 890.582 449.644C891.303 448.3 892.254 448.465 893.762 448.237C894.712 448.402 895.499 449.518 895.334 450.468C895.563 451.977 895.235 453.878 894.907 455.779C892.284 456.793 891.399 459.087 888.383 459.543C887.826 459.936 886.711 460.721 886.546 461.672C886.054 464.524 883.431 465.537 881.366 466.158C881.366 466.158 881.366 466.158 880.809 466.551C880.874 469.01 878.809 469.631 877.923 471.925C878.316 472.483 878.152 473.434 878.545 473.991C879.789 478.124 879.789 478.124 883.985 479.342C883.263 480.685 882.313 480.52 881.362 480.355C878.511 479.86 876.609 479.53 873.758 479.035C869.005 478.21 864.253 477.386 859.107 476.003C853.404 475.013 848.258 473.63 842.948 473.198C841.998 473.033 841.44 473.426 841.44 473.426C840.883 473.819 841.276 474.377 841.669 474.934C842.456 476.05 843.242 477.166 844.586 477.889C844.979 478.446 845.765 479.562 846.716 479.727C846.552 480.678 846.552 480.678 845.994 481.07C845.83 482.021 845.666 482.972 845.502 483.922C845.731 485.431 847.075 486.154 848.025 486.319C849.926 486.649 851.434 486.421 853.335 486.751C854.843 486.523 856.187 487.246 857.694 487.018C860.546 487.513 862.84 488.4 865.692 488.895C868.543 489.39 871.166 488.377 873.624 488.314C875.132 488.086 876.64 487.858 877.819 489.532C878.442 491.598 877.72 492.941 876.605 493.727C875.491 494.513 874.54 494.348 873.196 493.625C871.295 493.295 869.394 492.965 867.493 492.635C864.642 492.14 861.626 492.596 859.496 490.757C858.546 490.592 857.595 490.428 856.645 490.263C855.694 490.098 854.744 489.933 853.793 489.768C851.663 487.929 849.598 488.55 847.139 488.613C845.238 488.283 843.566 489.461 843.238 491.363C842.517 492.706 842.188 494.607 841.86 496.509C841.532 498.41 842.318 499.526 843.497 501.199C842.612 503.493 840.94 504.672 838.874 505.292C836.809 505.913 833.794 506.369 831.663 504.53C830.32 503.808 829.369 503.643 828.026 502.92C824.781 501.867 822.487 500.979 820.521 498.19C820.128 497.632 819.177 497.467 818.784 496.909C813.802 494.576 808.821 492.243 803.839 489.91C801.152 488.464 798.3 487.969 795.613 486.523C789.288 483.467 782.798 481.362 776.309 479.256C773.064 478.203 769.819 477.151 765.853 477.441C764.903 477.276 764.345 477.669 763.231 478.455C764.639 481.637 766.605 484.426 770.407 485.086C772.701 485.973 775.16 485.911 776.175 488.535C775.224 488.37 773.323 488.04 772.373 487.875C770.079 486.987 767.227 486.492 764.933 485.604C760.738 484.386 756.378 484.12 752.183 482.902C748.938 481.849 745.529 481.747 742.121 481.645C739.662 481.708 737.204 481.77 734.91 480.883C733.009 480.553 733.009 480.553 730.386 481.566C730.222 482.517 730.615 483.075 731.959 483.798C736.94 486.131 742.479 488.071 748.182 489.061C751.034 489.556 753.328 490.444 755.787 490.381C756.737 490.546 757.688 490.711 758.081 491.269C760.768 492.715 763.62 493.21 766.864 494.262C771.06 495.48 774.862 496.14 778.335 498.701C778.171 499.652 777.221 499.487 777.221 499.487C773.419 498.827 769.616 498.167 765.814 497.507C764.864 497.342 763.913 497.177 762.57 496.454C758.932 494.844 755.13 494.184 751 495.425C750.442 495.818 748.541 495.488 747.591 495.323C747.033 495.716 746.476 496.109 745.525 495.944C744.804 497.287 746.148 498.01 747.098 498.175C749.392 499.063 752.244 499.558 754.145 499.888C756.603 499.825 758.897 500.713 760.634 501.993C761.978 502.716 763.879 503.046 765.223 503.769C766.173 503.934 766.566 504.492 767.353 505.607C765.287 506.228 762.993 505.34 761.485 505.568C759.584 505.238 757.683 504.908 756.011 506.087C755.847 507.037 756.24 507.595 757.191 507.76C758.534 508.483 759.485 508.648 760.436 508.813C762.73 509.701 765.581 510.196 768.269 511.641C769.612 512.364 770.563 512.529 772.464 512.859C775.709 513.912 778.56 514.407 781.412 514.901C786.951 516.842 792.261 517.274 797.799 519.215C798.75 519.38 800.651 519.71 801.437 520.825C801.831 521.383 802.224 521.941 801.666 522.334C801.502 523.284 800.945 523.677 800.388 524.07C799.83 524.463 798.88 524.298 797.929 524.133C792.783 522.75 787.309 523.269 782.164 521.886C780.263 521.556 778.362 521.226 776.296 521.847C774.788 522.075 772.887 521.745 771.937 521.58C770.036 521.25 767.184 520.755 764.89 519.867C762.596 518.979 760.531 519.6 758.301 521.171C758.137 522.122 758.366 523.63 758.202 524.581C758.595 525.139 758.595 525.139 759.546 525.304C767.543 527.182 774.983 529.452 782.98 531.33C783.931 531.495 784.324 532.053 785.275 532.218C787.569 533.105 787.962 533.663 786.912 536.908C781.602 536.476 775.899 535.486 770.096 537.906C770.49 538.464 770.883 539.022 770.883 539.022C774.356 541.583 778.159 542.243 781.796 543.853C784.091 544.741 785.992 545.071 787.729 546.352C786.057 547.53 783.369 546.085 781.861 546.312C777.502 546.045 773.307 544.828 768.783 545.511C767.275 545.739 765.374 545.409 764.424 545.244C761.572 544.749 758.721 544.254 756.327 546.776C755.212 547.562 754.098 548.348 752.59 548.575C751.54 551.82 753.113 554.051 755.8 555.497C758.488 556.943 760.618 558.781 762.19 561.012C762.977 562.128 764.32 562.851 765.664 563.573C767.958 564.461 769.531 566.693 769.038 569.545C769.267 571.053 768.939 572.954 768.775 573.905C768.446 575.806 768.675 577.315 768.347 579.216C769.691 579.939 770.084 580.497 771.034 580.662C772.935 580.992 774.115 582.665 774.737 584.731C773.229 584.959 772.115 585.745 770.607 585.973C769.721 588.267 768.835 590.561 766.606 592.132C765.491 592.918 765.327 593.869 764.606 595.212C763.327 596.949 761.655 598.127 759.754 597.797C758.803 597.632 756.738 598.253 755.788 598.088C754.28 598.316 753.394 600.61 754.18 601.725C754.967 602.841 756.31 603.564 757.261 603.729C758.998 605.01 760.899 605.34 762.636 606.62C764.93 607.508 766.667 608.789 767.846 610.462C769.026 612.135 770.205 613.809 768.926 615.545C768.205 616.889 769.942 618.169 769.613 620.071C767.548 620.691 765.483 621.312 763.582 620.982C760.73 620.487 758.272 620.55 756.436 622.679C756.665 624.188 756.337 626.089 756.566 627.597C757.581 630.222 761.154 629.373 763.677 631.769C761.776 631.439 760.268 631.667 758.76 631.895L758.203 632.288C755.809 634.81 755.645 635.761 757.611 638.55C758.004 639.107 758.397 639.665 758.791 640.223C759.184 640.781 759.97 641.896 760.921 642.061C761.15 643.57 760.035 644.356 758.92 645.141C757.806 645.927 756.298 646.155 756.134 647.105C754.855 648.842 754.297 649.235 752.396 648.905C751.446 648.74 750.888 649.132 750.331 649.525C748.266 650.146 746.758 650.374 744.464 649.486C741.776 648.04 738.368 647.938 736.073 647.051C736.073 647.051 736.073 647.051 736.467 647.608C734.172 646.721 732.436 645.44 729.584 644.945C726.732 644.45 724.438 643.562 722.144 642.675C720.243 642.345 718.899 641.622 716.277 642.635C714.212 643.256 712.475 641.975 711.131 641.253C710.181 641.088 709.394 639.972 708.444 639.807C707.1 639.084 705.199 638.754 704.413 637.639C704.02 637.081 704.019 637.081 703.069 636.916C699.431 635.305 695.4 633.137 691.205 631.919C690.254 631.754 688.91 631.031 688.517 630.474C688.124 629.916 688.124 629.916 687.174 629.751C680.127 628.038 673.966 624.031 666.919 622.319C665.969 622.154 665.018 621.989 664.068 621.824C662.331 620.543 660.43 620.213 658.364 620.834C655.906 620.897 654.005 620.567 651.875 618.728C650.138 617.448 648.795 616.725 646.894 616.395C644.042 615.9 640.797 614.847 637.553 613.794C635.651 613.464 633.75 613.134 631.685 613.755C631.521 614.706 631.914 615.264 632.865 615.428C635.552 616.874 638.24 618.32 641.484 619.372C643.778 620.26 646.466 621.706 648.76 622.594C649.711 622.759 651.447 624.039 652.234 625.155C653.413 626.828 654.757 627.551 656.101 628.274C657.444 628.997 658.395 629.162 659.738 629.884C660.132 630.442 661.082 630.607 660.918 631.558C661.147 633.067 662.491 633.789 663.605 633.004C666.228 631.99 668.358 633.828 670.652 634.716C671.503 638.291 675.47 638 677.042 640.232C677.435 640.789 677.993 640.397 678.386 640.954C685.433 642.667 691.758 645.723 698.247 647.829C699.198 647.994 699.591 648.552 699.984 649.109C703.13 653.572 708.275 654.955 713.028 655.779C713.978 655.944 713.978 655.945 714.929 656.11C717.059 657.948 719.353 658.836 721.647 659.724C725.285 661.334 728.53 662.387 732.168 663.997C734.462 664.885 736.756 665.773 739.215 665.71C739.772 665.317 740.165 665.875 741.509 666.598C741.345 667.549 740.787 667.941 740.623 668.892C739.737 671.186 739.409 673.088 740.589 674.761C741.768 676.434 740.653 677.22 739.146 677.448C732.328 677.244 731.377 677.079 724.495 674.415C720.299 673.198 716.662 671.587 712.073 669.812C709.779 668.924 707.485 668.036 705.191 667.148C704.24 666.983 703.847 666.425 703.454 665.867C703.061 665.31 701.717 664.587 700.766 664.422C697.357 664.32 694.834 661.924 692.147 660.478C690.803 659.755 689.853 659.59 688.509 658.868C685.658 658.373 682.97 656.927 680.283 655.481C678.939 654.758 676.645 653.871 675.301 653.148C674.908 652.59 674.351 652.983 673.4 652.818C670.091 649.306 664.781 648.874 660.75 646.706C659.013 645.425 656.161 644.93 654.26 644.6C650.065 643.382 645.87 642.165 641.839 639.996C636.857 637.663 631.318 635.722 626.337 633.389C625.386 633.224 624.042 632.501 623.092 632.336C617.946 630.953 613.751 629.736 608.769 627.402C606.475 626.515 604.017 626.577 601.394 627.591C600.837 627.984 600.28 628.377 600.115 629.327C599.951 630.278 599.787 631.229 599.623 632.179C608.636 636.681 618.206 640.79 627.218 645.292C628.562 646.014 629.512 646.179 630.856 646.902C634.101 647.955 637.739 649.566 641.376 651.176C645.014 652.787 648.259 653.84 651.897 655.45C652.847 655.615 654.191 656.338 654.584 656.896C661.303 660.51 667.628 663.566 674.511 666.229C677.755 667.282 680.443 668.728 683.13 670.173C686.768 671.784 690.013 672.836 693.651 674.447C697.289 676.058 700.533 677.11 704.728 678.328C707.023 679.216 709.317 680.104 711.218 680.434C710.004 684.629 710.397 685.187 712.363 687.976C713.149 689.092 713.542 689.65 714.886 690.372C718.688 691.032 721.605 693.986 724.849 695.039C726.75 695.369 729.044 696.257 731.11 695.636C732.617 695.408 734.519 695.738 736.026 695.51C736.32 699.478 735.041 701.214 731.632 701.112C730.682 700.947 729.732 700.782 728.781 700.617C727.273 700.845 726.88 700.287 725.536 699.565C723.799 698.284 722.456 697.561 720.948 697.789C719.047 697.459 717.539 697.687 716.359 696.013C715.573 694.898 713.508 695.518 712.557 695.353C711.05 695.581 709.706 694.859 708.919 693.743C708.526 693.185 707.576 693.02 707.576 693.02C705.117 693.083 703.381 691.802 701.086 690.915C698.006 688.911 694.204 688.251 690.959 687.198C689.058 686.868 686.6 686.931 684.141 686.994C683.191 686.829 682.633 687.222 681.683 687.057C678.438 686.004 675.915 683.608 673.392 681.212C672.606 680.096 671.819 678.981 670.869 678.816C669.132 677.535 667.002 675.697 664.15 675.202C660.905 674.149 657.268 672.538 654.187 670.535C651.893 669.647 650.156 668.366 647.862 667.479C645.567 666.591 643.831 665.31 641.536 664.422C639.242 663.535 636.948 662.647 634.49 662.71C633.539 662.545 632.425 663.33 631.867 663.723C633.669 667.463 636.914 668.516 639.601 669.961C640.551 670.126 641.895 670.849 642.288 671.407C643.239 671.572 643.632 672.13 644.025 672.688C642.91 673.473 641.796 674.259 641.238 674.652C638.944 673.764 636.65 672.876 634.356 671.989C632.455 671.659 631.439 669.034 628.981 669.097C626.851 667.259 623.835 667.714 621.148 666.269C618.461 664.823 616.331 662.985 614.036 662.097C611.742 661.209 609.448 660.322 607.154 659.434C606.203 659.269 605.253 659.104 604.86 658.546C602.73 656.708 600.271 656.77 597.649 657.784C597.484 658.735 596.927 659.127 596.206 660.471C594.141 661.092 592.797 660.369 590.896 660.039C589.945 659.874 588.995 659.709 588.601 659.151C587.258 658.428 586.143 659.214 585.422 660.558C587.059 665.248 587.059 665.248 592.533 664.729C591.453 659.646 592.239 660.762 593.583 661.485Z" fill="#F9B605"/>
</svg>
