<svg width="305" height="226" viewBox="0 0 305 226" fill="none" xmlns="http://www.w3.org/2000/svg">
<g clip-path="url(#clip0)">
<path d="M194.787 183.411L194.784 183.596C194.784 183.596 194.784 183.596 194.781 183.78C194.784 183.596 194.784 183.596 194.787 183.411ZM25.7172 66.7413C26.0099 66.9304 26.01 66.9304 26.01 66.9304L26.0129 66.7461C26.0159 66.5617 25.7202 66.557 25.7172 66.7413ZM9.37253 53.2023C9.37253 53.2023 9.36959 53.3867 9.66526 53.3915L9.96094 53.3962L9.96389 53.2118C9.67118 53.0227 9.37548 53.018 9.37253 53.2023ZM279.393 126.494L279.685 126.683C279.685 126.683 279.685 126.683 279.688 126.498C279.984 126.503 279.984 126.503 279.393 126.494C279.691 126.314 279.688 126.498 279.393 126.494ZM66.3437 152.219C66.048 152.214 66.0481 152.214 66.0452 152.398L66.0422 152.583L66.3378 152.587C66.6364 152.408 66.6364 152.408 66.3437 152.219ZM88.7793 173.231C88.1821 173.591 88.4718 173.964 88.7645 174.153C88.7645 174.153 89.0602 174.158 89.3559 174.163C89.3559 174.163 89.6545 173.983 89.6574 173.799C89.3647 173.61 89.072 173.421 88.7793 173.231ZM91.0383 179.906C91.0324 180.275 91.0266 180.644 91.9077 181.027C91.6238 180.284 91.6237 180.284 91.0383 179.906ZM130.127 10.5094C130.425 10.3298 130.724 10.1501 130.727 9.96578C130.73 9.78143 130.733 9.59705 130.437 9.59232C130.141 9.58759 129.846 9.58285 129.846 9.58285C129.846 9.58285 129.547 9.7625 129.544 9.94685C129.837 10.1359 130.13 10.325 130.127 10.5094ZM99.562 53.9087C99.8517 54.2822 99.8488 54.4665 100.142 54.6556C100.142 54.6556 100.73 54.8494 100.733 54.6651C100.733 54.6651 101.031 54.4855 101.034 54.3011C101.04 53.9324 100.449 53.9229 99.562 53.9087ZM85.5653 170.783C85.2608 171.331 85.8463 171.709 86.1331 172.267C86.1302 172.451 86.4198 172.825 86.7155 172.83C87.3098 172.655 86.7214 172.461 86.7244 172.277C87.0348 171.359 86.4494 170.981 85.5653 170.783ZM24.8567 65.0679C24.5611 65.0632 24.2596 65.4271 24.2566 65.6115C24.5493 65.8006 24.842 65.9897 25.1347 66.1787C25.4274 66.3678 26.0218 66.193 26.0247 66.0086C26.3292 65.4603 25.4481 65.0774 24.8567 65.0679ZM23.3164 68.9157C23.0119 69.4641 23.2988 70.0219 23.8842 70.4001C23.8812 70.5845 24.4755 70.4096 24.7711 70.4143C25.0668 70.419 25.3654 70.2394 25.0727 70.0503C24.7859 69.4925 24.2005 69.1143 23.3164 68.9157ZM41.6609 123.794C41.3534 124.526 41.3446 125.08 41.9271 125.642C42.5125 126.02 43.1009 126.214 43.9879 126.228C43.9909 126.044 43.9967 125.675 43.704 125.486C43.4172 124.928 42.5361 124.545 41.6609 123.794ZM239.784 180.628C240.364 181.375 240.355 181.928 241.236 182.311C241.821 182.689 242.407 183.067 242.401 183.436C242.386 184.358 243.261 185.11 244.139 185.677C244.139 185.677 244.435 185.682 244.728 185.871C244.731 185.686 244.734 185.502 244.734 185.502C244.154 184.755 243.867 184.197 243.285 183.635C242.995 183.261 242.41 182.883 242.416 182.514C242.129 181.957 241.543 181.578 240.961 181.016C240.668 180.827 240.668 180.827 239.784 180.628ZM260.374 187.596C260.972 187.237 261.569 186.878 261.87 186.514C261.587 185.772 260.702 185.573 259.818 185.375C259.227 185.365 258.636 185.356 258.334 185.72C258.033 186.084 257.731 186.448 258.021 186.821C258.902 187.204 259.786 187.403 260.374 187.596ZM93.4037 179.944C93.7023 179.764 93.7052 179.58 94.0038 179.401C94.3113 178.668 94.0245 178.11 93.4421 177.547C93.1493 177.358 92.8595 176.985 92.8625 176.801C92.8714 176.248 92.286 175.869 91.9962 175.496L91.7035 175.307C91.4078 175.302 90.8165 175.293 90.5208 175.288C90.5179 175.472 90.512 175.841 90.512 175.841C91.0915 176.588 91.3783 177.146 91.9578 177.892C92.2476 178.266 92.5344 178.824 93.1198 179.202C92.5226 179.561 92.8153 179.75 93.4037 179.944ZM270.171 129.85C271.658 129.32 271.658 129.32 271.082 128.389C270.795 127.831 270.508 127.273 269.926 126.711C269.343 126.148 268.764 125.401 268.181 124.839C267.891 124.465 267.303 124.272 267.004 124.451C266.706 124.631 266.404 124.995 266.694 125.368C266.691 125.553 266.987 125.557 266.984 125.742C267.273 126.115 267.563 126.489 268.146 127.051C268.728 127.614 269.311 128.176 269.003 128.909C269.293 129.282 269.878 129.661 270.171 129.85ZM106.975 182.005C107.871 181.467 107.871 181.467 107.876 181.098C107.897 179.807 107.031 178.503 105.866 177.378C105.573 177.188 105.28 176.999 104.692 176.806C104.399 176.616 104.104 176.612 103.805 176.791C103.506 176.971 103.506 176.971 103.208 177.151C103.787 177.897 104.071 178.64 104.651 179.387C105.523 180.323 106.103 181.069 106.975 182.005ZM100.651 189.096C101.541 188.926 101.544 188.742 101.549 188.373C101.269 187.446 100.991 186.335 99.5241 185.574C98.643 185.191 98.0605 184.629 98.0723 183.891C98.0871 182.97 97.206 182.587 96.3279 182.019C96.0351 181.83 95.7394 181.826 95.7394 181.826C95.4438 181.821 95.1482 181.816 95.1482 181.816C95.1452 182 94.8466 182.18 94.8466 182.18C95.7159 183.3 96.5851 184.421 97.4544 185.541C97.7471 185.73 97.7442 185.915 97.7412 186.099C98.3149 187.215 99.4828 188.155 100.651 189.096ZM52.512 129.5C51.9265 129.121 51.344 128.559 50.7586 128.181C50.4659 127.992 50.1733 127.803 50.1762 127.618C49.6026 126.503 48.1361 125.741 46.9652 124.985C46.6754 124.612 46.0871 124.418 45.7973 124.044C45.2237 122.929 43.7601 121.983 42.5922 121.043C42.0098 120.48 41.1316 119.913 40.2534 119.345C39.9607 119.156 39.6651 119.152 39.3665 119.331C39.0708 119.327 38.7692 119.691 39.0619 119.88C39.3487 120.437 39.9283 121.184 40.5107 121.747C41.0962 122.125 41.6786 122.688 42.2611 123.25C42.8436 123.813 43.7247 124.196 44.0115 124.753C44.0086 124.938 44.594 125.316 44.8867 125.505C45.7678 125.888 46.0575 126.261 46.3443 126.819C46.6341 127.193 46.6312 127.377 47.2166 127.755C48.0947 128.323 48.9699 129.074 49.8481 129.641C50.1408 129.831 50.4334 130.02 50.4305 130.204C51.2998 131.324 52.1721 132.26 53.0413 133.381C53.6209 134.128 54.496 134.879 55.0755 135.626C55.658 136.189 56.2376 136.936 57.1186 137.319C57.9968 137.886 58.5792 138.448 59.1617 139.011C60.3296 139.952 61.4975 140.892 62.3697 141.828C63.2449 142.58 63.8274 143.143 64.4069 143.889C64.6967 144.263 64.9864 144.636 65.5778 144.646C65.8705 144.835 66.1632 145.024 66.1603 145.208C67.0296 146.329 67.6002 147.629 69.3623 148.395C69.655 148.584 69.6551 148.584 69.9478 148.773C70.82 149.709 71.9879 150.649 72.8602 151.585C73.1529 151.775 73.4456 151.964 73.7383 152.153C74.0369 151.973 74.3355 151.793 74.3385 151.609C74.0576 150.683 73.478 149.936 72.6029 149.184C71.1452 147.87 69.9803 146.745 68.8212 145.251C67.952 144.131 67.0797 143.195 65.6132 142.433C64.4394 141.861 63.8598 141.115 63.5789 140.188C63.5848 139.819 63.2951 139.446 62.7067 139.252C62.1213 138.874 62.1243 138.69 61.8345 138.316C61.255 137.569 60.6755 136.822 60.093 136.26C59.2149 135.692 58.3397 134.941 57.4615 134.374C56.5864 133.622 55.7141 132.686 54.5433 131.93C54.2594 131.187 53.3872 130.251 52.512 129.5ZM276.386 129.58C276.096 129.207 275.803 129.018 275.514 128.644C275.52 128.276 275.227 128.087 274.934 127.897C273.477 126.583 272.613 125.094 271.75 123.605C271.753 123.421 271.46 123.232 271.167 123.043C270.582 122.664 270.292 122.291 269.707 121.913C269.121 121.535 269.121 121.535 267.933 121.884C267.93 122.069 267.924 122.437 267.921 122.622C267.918 122.806 267.915 122.99 268.211 122.995C269.095 123.194 269.379 123.936 269.964 124.314C271.123 125.808 272.282 127.302 273.441 128.796C273.731 129.169 274.024 129.358 274.313 129.732C274.606 129.921 274.603 130.105 274.896 130.294C275.189 130.483 275.484 130.488 275.783 130.308C276.087 129.76 276.09 129.576 276.386 129.58ZM251.981 194.654C251.688 194.465 251.691 194.28 251.398 194.091C250.227 193.335 249.349 192.768 248.178 192.011C246.715 191.066 244.953 190.3 244.086 188.995C243.797 188.622 242.915 188.239 242.33 187.861C242.037 187.672 241.449 187.478 241.156 187.289C239.693 186.343 238.525 185.403 237.064 184.273C236.771 184.084 236.476 184.079 235.887 183.885C235.884 184.069 235.878 184.438 235.878 184.438C236.171 184.627 236.464 184.816 236.757 185.005C237.345 185.199 237.638 185.388 237.927 185.762C238.217 186.135 238.51 186.324 238.8 186.698C239.382 187.26 239.965 187.823 240.843 188.39C242.022 188.593 242.309 189.151 242.892 189.714C242.889 189.898 243.182 190.087 243.477 190.092C245.526 191.416 247.575 192.739 249.627 193.879C249.92 194.068 250.508 194.261 251.097 194.455C251.386 194.829 251.685 194.649 251.981 194.654C251.978 194.838 251.978 194.838 251.981 194.654ZM18.4525 58.6955C18.4466 59.0642 18.4437 59.2486 18.4378 59.6173C18.4348 59.8016 18.7275 59.9908 19.0232 59.9955C19.3188 60.0002 19.3218 59.8159 19.3247 59.6315C19.3336 59.0784 19.0439 58.705 18.4525 58.6955ZM121.035 24.1943L121.331 24.199C121.032 24.3787 121.032 24.3787 121.035 24.1943C120.74 24.1896 120.74 24.1896 121.035 24.1943C120.743 24.0052 120.743 24.0052 120.743 24.0052C120.74 24.1896 120.74 24.1896 121.035 24.1943ZM99.7134 192.216C99.4207 192.027 98.8323 191.833 98.244 191.639C98.2381 192.008 98.2322 192.377 98.2263 192.745C97.6379 192.552 97.3452 192.362 96.7538 192.353C96.1714 191.79 96.7716 191.247 95.5948 190.859C95.0035 190.85 95.2903 191.408 94.9917 191.587C94.6931 191.767 94.3974 191.762 93.8031 191.937C93.5133 191.563 93.2207 191.374 93.2266 191.006C93.2354 190.453 92.9427 190.263 92.3572 189.885C91.7777 189.138 90.8996 188.571 90.0244 187.82C89.7258 187.999 89.1345 187.99 88.8359 188.169C88.5461 187.796 88.2534 187.607 87.9636 187.233C87.9666 187.049 87.671 187.044 87.6739 186.86C87.9843 185.943 86.8076 185.555 85.9265 185.172C85.6338 184.983 85.3381 184.978 85.341 184.794C84.4717 183.674 85.0808 182.577 84.8029 181.466C84.8058 181.282 85.1044 181.102 85.1073 180.918C85.7134 180.005 85.4296 179.263 84.5544 178.512C83.6792 177.76 83.1027 176.829 83.1174 175.907C83.1263 175.354 82.8395 174.796 81.9584 174.413C81.9613 174.229 81.9642 174.044 82.2658 173.68C81.092 173.108 79.9182 172.536 79.6403 171.425C79.3535 170.868 79.0637 170.494 79.0726 169.941C78.7946 168.83 77.9224 167.894 77.0501 166.958C75.8881 165.649 74.7291 164.155 73.8627 162.85C73.2862 161.919 72.411 161.167 71.5388 160.231C70.6666 159.295 69.7972 158.175 69.5193 157.064C70.4063 157.078 70.6931 157.636 70.9858 157.825C71.858 158.761 72.7273 159.882 73.5966 161.002C73.8834 161.56 74.4688 161.938 75.0542 162.316C75.9294 163.068 76.509 163.815 77.0856 164.746C77.9519 166.051 79.4096 167.365 80.5745 168.49C80.5716 168.674 80.8672 168.679 80.8672 168.679C81.4585 168.688 81.4615 168.504 81.4644 168.32C81.4733 167.767 81.4821 167.214 81.1924 166.84C81.1924 166.84 81.1924 166.84 81.1953 166.656C81.213 165.55 80.0422 164.793 79.4626 164.046C78.5963 162.742 77.4344 161.432 75.9738 160.302C75.681 160.113 75.684 159.929 75.6869 159.745C75.1163 158.445 73.357 157.494 72.1921 156.369C71.6066 155.991 71.0213 155.613 70.4388 155.05C69.8563 154.488 68.9752 154.105 67.7925 154.086C67.7955 153.902 67.7984 153.717 67.8014 153.533C67.8043 153.349 67.5116 153.159 66.9203 153.15C66.329 153.141 66.326 153.325 66.3201 153.694C66.0274 153.505 65.7318 153.5 65.7347 153.315C64.8625 152.379 63.3989 151.434 62.8253 150.318C62.2487 149.387 61.3706 148.82 61.0897 147.893C61.0926 147.709 60.7969 147.704 60.7969 147.704C59.9188 147.137 59.3363 146.574 59.3511 145.653C57.583 145.255 57.8964 144.154 57.3169 143.407C57.6155 143.227 57.9082 143.417 57.9082 143.417C57.9082 143.417 57.9082 143.417 57.9052 143.601C59.6704 144.182 60.5397 145.303 61.409 146.423C61.7017 146.612 61.9944 146.801 62.2871 146.99C62.5768 147.364 63.1653 147.558 63.1594 147.926C63.4491 148.3 64.0345 148.678 64.3272 148.867C64.62 149.056 65.2054 149.434 66.0924 149.449C66.0953 149.264 66.3909 149.269 66.3939 149.085C66.4057 148.347 65.8262 147.6 65.2437 147.038C63.7802 146.092 62.9109 144.972 61.746 143.847C60.8708 143.095 60.2912 142.348 59.7117 141.601L60.0074 141.606C60.0074 141.606 60.0103 141.422 60.0133 141.237C60.0133 141.237 60.0133 141.237 59.7176 141.233L59.419 141.412L59.416 141.597C59.1233 141.408 58.8277 141.403 58.8307 141.218C58.5468 140.476 57.6686 139.909 56.7875 139.526C55.9064 139.143 55.321 138.765 55.0312 138.392C54.7415 138.018 54.1561 137.64 53.5706 137.262C53.5706 137.262 53.275 137.257 52.9823 137.068C52.9794 137.252 52.9764 137.437 52.9735 137.621C53.553 138.368 53.8368 139.11 54.4193 139.673C54.712 139.862 55.0017 140.235 55.2945 140.424C56.1726 140.991 56.7521 141.738 57.036 142.481L57.033 142.665C56.149 142.466 56.1608 141.729 55.2767 141.53C54.984 141.341 54.6913 141.152 54.6913 141.152C53.8013 141.322 53.5116 140.949 53.2218 140.575C52.9409 139.649 52.0628 139.082 51.1876 138.33C50.8949 138.141 50.6051 137.767 50.6081 137.583C50.611 137.399 50.3184 137.21 50.0227 137.205C48.8489 136.633 47.9737 135.881 47.3971 134.95C47.1073 134.577 46.5219 134.198 46.2322 133.825C45.9394 133.636 46.2381 133.456 46.241 133.272C46.244 133.087 45.9542 132.714 45.9571 132.53C46.5426 132.908 47.1309 133.102 47.4207 133.475C48.3136 133.121 48.6123 132.941 48.3196 132.752C48.0327 132.194 47.4473 131.816 46.8648 131.253C46.5751 130.88 45.9867 130.686 45.9955 130.133C45.9955 130.133 45.9985 129.949 45.7029 129.944C44.8247 129.377 43.9465 128.809 43.367 128.062C42.1903 127.675 42.1991 127.122 42.2109 126.384C41.3269 126.186 41.6167 126.559 41.3181 126.739C40.7356 126.176 40.1502 125.798 39.8634 125.24C39.5736 124.867 39.2838 124.493 39.5854 124.129C39.5884 123.945 39.5913 123.761 39.2986 123.572C38.7102 123.378 38.4234 122.82 37.835 122.626C37.5423 122.437 37.2496 122.248 37.5511 121.884C37.8439 122.073 37.8439 122.073 38.1366 122.262C39.0177 122.645 39.6119 122.47 40.2121 121.926C39.334 121.359 38.7545 120.612 37.8763 120.045C36.7055 119.289 36.4216 118.547 36.735 117.445C37.0366 117.081 36.7468 116.708 36.1584 116.514C35.8628 116.509 35.5671 116.504 35.2715 116.5C35.2685 116.684 35.2656 116.868 35.2656 116.868L34.9699 116.864C34.6772 116.675 34.3844 116.485 34.3874 116.301C34.0976 115.928 33.8049 115.738 33.5152 115.365C32.9297 114.987 32.3473 114.424 32.0605 113.867C31.7736 113.309 31.4839 112.935 31.1971 112.377C30.9103 111.82 30.0262 111.621 29.4408 111.243C29.1511 110.869 28.5656 110.491 28.5715 110.123C28.2876 109.38 27.4095 108.813 26.5285 108.43C27.7229 107.712 27.7259 107.527 26.5521 106.955C26.2564 106.951 26.2593 106.766 26.2593 106.766C26.2593 106.766 26.555 106.771 26.558 106.587L26.2652 106.397C25.6798 106.019 25.3901 105.646 24.8046 105.268C24.2222 104.705 24.231 104.152 24.2398 103.599C24.2428 103.415 24.5414 103.235 24.8371 103.24C25.1357 103.06 25.73 102.885 26.3243 102.71C26.9127 102.904 27.504 102.914 28.0924 103.107C28.388 103.112 28.9823 102.937 28.6925 102.564C28.6955 102.379 28.6955 102.379 28.4028 102.19C27.8203 101.628 27.2379 101.065 26.6524 100.687C25.7713 100.304 25.4845 99.7464 25.789 99.198C24.9138 98.4464 24.0357 97.8791 23.7548 96.9525C22.584 96.1962 22.0103 95.0806 20.5438 94.3195C20.8395 94.3242 21.1381 94.1446 21.4337 94.1493C21.7323 93.9697 21.7353 93.7853 22.0369 93.4213C21.7501 92.8635 21.1676 92.301 20.8808 91.7432C21.1794 91.5635 21.4751 91.5683 21.7737 91.3886C22.0723 91.209 22.3739 90.845 22.0812 90.6559C21.7914 90.2825 21.203 90.0887 21.5046 89.7247C22.6784 90.2967 23.5536 91.0483 23.8345 91.9748C24.1154 92.9014 24.9906 93.653 25.5701 94.3999C25.8629 94.589 26.1526 94.9625 26.4482 94.9672C27.628 95.1705 27.9177 95.5439 28.2045 96.1018C28.7841 96.8487 29.6593 97.6003 31.4303 97.8131C32.0216 97.8225 32.3202 97.6429 32.3261 97.2742C32.335 96.7211 32.0452 96.3476 32.054 95.7946C31.7613 95.6055 31.173 95.4117 30.8803 95.2226C29.4108 94.6458 28.8342 93.7146 28.8519 92.6084C28.8549 92.4241 28.8608 92.0553 28.5681 91.8663C28.2754 91.6772 27.9797 91.6724 27.3913 91.4786C27.0956 91.4739 27.0957 91.4739 26.8 91.4691C26.803 91.2848 26.803 91.2847 26.8059 91.1004C27.4091 90.3724 26.8265 89.8099 25.9484 89.2426C25.6557 89.0535 25.36 89.0488 25.0673 88.8597C24.7746 88.6706 24.4789 88.6658 24.4819 88.4815C23.9083 87.3659 21.8416 87.1483 20.9664 86.3967L20.3751 86.3872C20.3751 86.3872 20.0735 86.7513 20.3692 86.756C20.6589 87.1294 20.9487 87.5029 21.537 87.6967C21.8297 87.8858 22.1225 88.0749 22.4152 88.264C21.818 88.6232 21.5164 88.9872 20.9222 89.1621C20.047 88.4105 19.4704 87.4792 18.2966 86.9072C18.0039 86.7181 18.0068 86.5338 17.717 86.1603C17.1346 85.5978 16.5521 85.0352 16.2653 84.4774C15.9755 84.1039 15.3871 83.9102 15.6916 83.3618L15.402 82.9883C14.8136 82.7945 13.9295 82.596 13.3411 82.4021C13.0484 82.213 13.0543 81.8443 12.7616 81.6552C12.1732 81.4614 11.5849 81.2676 10.9965 81.0737C11.0024 80.705 10.7126 80.3316 10.4199 80.1425C11.0112 80.1519 11.6055 79.977 12.1939 80.1709C13.3736 80.3742 14.2665 80.0197 15.458 79.4855C16.3509 79.131 16.9481 78.7717 17.841 78.4172C17.8469 78.0485 17.8528 77.6798 17.2644 77.486C16.3833 77.103 15.5023 76.7201 14.6241 76.1528C14.633 75.5997 15.8156 75.6187 16.1172 75.2547C16.1231 74.886 16.129 74.5173 16.1379 73.9642C17.3235 73.7988 18.2164 73.4443 19.3902 74.0163C19.6829 74.2054 19.9815 74.0258 20.2742 74.2149C20.8744 73.6712 20.5876 73.1134 20.5935 72.7447C20.8921 72.5651 21.1908 72.3855 21.4894 72.2058C22.9736 71.8608 22.9884 70.939 22.7045 70.1968C22.4177 69.639 22.4295 68.9016 22.4383 68.3485C22.4442 67.9798 22.1574 67.4219 21.8647 67.2328C20.9865 66.6656 20.4041 66.1031 19.2244 65.8998C18.3403 65.7012 17.4652 64.9495 16.8798 64.5714C16.8975 63.4652 18.3787 63.3045 18.9818 62.5765C19.2716 62.95 19.8571 63.3282 20.1498 63.5172C20.7411 63.5267 21.3353 63.3518 21.9178 63.9144C22.2105 64.1035 22.5063 64.1082 23.1005 63.9333C23.6948 63.7584 23.6977 63.5741 23.7036 63.2054C23.7095 62.8366 23.4168 62.6476 23.4227 62.2788C23.1388 61.5367 22.5535 61.1585 21.6724 60.7755C21.084 60.5817 20.7912 60.3926 20.4985 60.2035C19.9131 59.8254 19.3218 59.8159 18.4407 59.433C18.151 59.0595 18.1568 58.6908 17.87 58.133C16.6874 58.114 15.8093 57.5467 15.5254 56.8046C15.5313 56.4358 15.2386 56.2468 14.9488 55.8733C14.3722 54.942 14.0795 54.753 12.3085 54.5402C11.7113 54.8995 11.4097 55.2634 10.8095 55.807C9.92548 55.6085 9.03853 55.5943 8.45015 55.4005C7.85292 55.7597 7.55128 56.1237 7.24971 56.4877C6.94814 56.8517 6.64366 57.4 6.34209 57.764C6.03757 58.3123 6.03163 58.681 5.72416 59.4137C5.42555 59.5934 5.12698 59.773 5.12403 59.9574C4.82542 60.137 4.82243 60.3213 4.52381 60.501C3.93248 60.4915 3.34114 60.482 2.74686 60.6569C2.463 59.9148 2.47484 59.1773 3.37069 58.6385C3.37069 58.6385 3.66932 58.4589 3.67228 58.2745C3.38547 57.7167 3.98266 57.3574 4.57989 56.9982C4.87851 56.8185 4.88445 56.4498 5.18307 56.2702C5.19192 55.7171 5.49646 55.1688 5.50531 54.6157C5.50827 54.4314 5.51122 54.247 5.51417 54.0626C5.22736 53.5048 5.53188 52.9565 5.54073 52.4034C5.54664 52.0347 5.8452 51.855 6.14677 51.491C6.7381 51.5005 7.32647 51.6944 7.62214 51.6991C7.9178 51.7038 8.21942 51.3398 8.51804 51.1602C8.81371 51.1649 8.8107 51.3493 9.10636 51.354C9.68884 51.9166 9.98452 51.9213 10.8774 51.5668C11.4717 51.3919 12.066 51.217 12.6573 51.2265C13.84 51.2454 14.724 51.444 15.9067 51.4629C16.2053 51.2833 16.5098 50.7349 17.3968 50.7491C17.6925 50.7539 17.9911 50.5742 17.994 50.3899C18.2985 49.8415 18.8958 49.4823 19.49 49.3074C19.7887 49.1278 20.0873 48.9481 19.7946 48.7591C19.8005 48.3903 19.2092 48.3809 18.9135 48.3762C18.6179 48.3714 18.0235 48.5463 17.7278 48.5415C17.4322 48.5368 17.1365 48.5321 16.5422 48.707C15.9657 47.7757 16.5659 47.2321 17.169 46.5042C17.4706 46.1402 18.0649 45.9653 18.6621 45.6061C19.5491 45.6203 19.5491 45.6202 20.7435 44.9017C19.8742 43.7813 19.005 42.661 17.84 41.5359C17.843 41.3515 18.1445 40.9876 18.1475 40.8032C18.455 40.0705 18.1623 39.8814 17.2812 39.4985C16.9855 39.4938 16.6928 39.3046 16.3971 39.2999C16.406 38.7468 16.4178 38.0094 14.9453 37.617C15.5396 37.4421 15.8353 37.4469 15.8353 37.4469C17.0151 37.6502 18.4933 37.6739 19.6671 38.2459C19.9599 38.435 20.2556 38.4397 20.5512 38.4444C22.0237 38.8368 23.2063 38.8557 24.6905 38.5107C25.2848 38.3358 25.5834 38.1562 26.1777 37.9813C27.6531 38.1893 28.8298 38.577 30.0036 39.149C30.8847 39.5319 32.0614 39.9196 32.9455 40.1181C34.1252 40.3214 35.0092 40.52 35.8874 41.0873C36.1801 41.2763 36.7684 41.4701 37.3598 41.4796C38.5395 41.6829 39.731 41.1488 40.9137 41.1677C41.505 41.1772 42.1023 40.8179 42.7024 40.2743L43.001 40.0947C44.4823 39.934 45.662 40.1373 47.1374 40.3453C47.7287 40.3548 48.3142 40.733 48.6039 41.1064C48.8937 41.4799 49.1834 41.8534 49.7659 42.4159C50.6381 43.3519 51.8119 43.9239 53.5859 43.9523C53.8816 43.957 53.8816 43.957 54.1773 43.9618C54.1773 43.9618 54.1773 43.9618 54.4729 43.9665C54.7745 43.6025 55.3717 43.2433 55.6733 42.8793C56.5544 43.2622 57.1397 43.6404 57.7281 43.8342C58.6151 43.8484 58.624 43.2953 59.2183 43.1204C59.5139 43.1252 59.511 43.3096 59.8067 43.3143L59.511 43.3096C59.8037 43.4986 59.7978 43.8674 59.7949 44.0517C59.7919 44.2361 59.7919 44.2361 59.789 44.4204C60.0846 44.4252 60.0847 44.4252 60.3803 44.4299C61.2644 44.6285 60.9598 45.1768 61.8439 45.3754C62.1395 45.3801 62.7309 45.3896 63.0324 45.0256C63.3369 44.4772 63.0472 44.1038 62.7604 43.546C62.4676 43.3569 62.4676 43.3569 62.1749 43.1678C60.9981 42.7801 59.8244 42.2081 58.9433 41.8252C58.0622 41.4423 57.4797 40.8797 56.8972 40.3172C56.6075 39.9437 56.6134 39.575 56.915 39.211C56.9179 39.0267 56.6222 39.022 56.6252 38.8376L56.9238 38.658C58.3992 38.866 59.2951 38.3271 60.4807 38.1617C60.7734 38.3508 60.7733 38.3508 61.066 38.5399C61.3558 38.9133 61.9501 38.7384 62.5414 38.7479C62.8312 39.1214 62.8253 39.4901 63.7093 39.6886C63.7093 39.6886 63.7064 39.873 64.002 39.8777C64.002 39.8777 64.002 39.8777 64.005 39.6934C64.005 39.6934 63.7093 39.6886 63.7123 39.5043C63.7152 39.3199 64.0138 39.1403 64.0168 38.9559C64.3095 39.145 64.6023 39.3341 64.895 39.5232C65.1877 39.7123 65.4833 39.717 66.0747 39.7265C66.666 39.736 67.553 39.7502 67.8398 40.308C68.1325 40.4971 68.4252 40.6862 68.7209 40.6909C69.3151 40.516 69.9094 40.3411 70.5067 39.9819C70.5067 39.9819 70.5037 40.1662 70.7994 40.1709L70.5037 40.1662C70.5067 39.9818 70.5067 39.9819 70.8053 39.8022C71.1039 39.6226 71.1069 39.4382 70.5185 39.2444C70.5185 39.2444 70.5214 39.0601 70.2258 39.0554C70.5214 39.0601 71.1098 39.2539 71.4054 39.2586C71.6982 39.4477 71.9909 39.6368 72.2866 39.6416C73.4752 39.2918 73.4751 39.2918 74.3562 39.6747C74.9446 39.8685 75.8316 39.8827 76.1213 40.2561C76.414 40.4452 77.3069 40.0908 77.0142 39.9017C76.7244 39.5282 77.029 38.9799 77.3276 38.8002C77.6233 38.805 78.2146 38.8144 78.5102 38.8192C78.5073 39.0035 78.5073 39.0036 78.5043 39.1879C78.2028 39.5519 77.9012 39.9158 78.7823 40.2987C79.078 40.3035 79.081 40.1192 79.6723 40.1286C79.9621 40.5021 80.2518 40.8755 80.5386 41.4333C81.4256 41.4475 81.7271 41.0836 82.0258 40.9039C82.3214 40.9087 82.9127 40.9181 83.2084 40.9229C83.5041 40.9276 83.5011 41.112 83.5011 41.112C84.0836 41.6745 85.2633 41.8778 86.446 41.8967C87.0373 41.9062 87.3419 41.3579 87.0491 41.1688C86.171 40.6015 86.1857 39.6797 85.9018 38.9375C85.6121 38.5641 84.1338 38.5404 84.1486 37.6186C85.3312 37.6375 86.2153 37.8361 86.7948 38.583C87.9804 38.4175 87.1111 37.2972 88.2938 37.3161C88.5806 37.874 88.5717 38.427 87.9745 38.7863C87.6759 38.9659 87.67 39.3346 88.2613 39.3441C88.5599 39.1645 88.8585 38.9848 89.4528 38.8099C89.7514 38.6303 90.0471 38.6351 90.0501 38.4507C90.0648 37.5289 91.5519 36.9995 91.8624 36.0824C91.8653 35.8981 92.4596 35.7232 92.7523 35.9123C93.0421 36.2857 93.3348 36.4748 94.2189 36.6734C94.5145 36.6781 95.1029 36.8719 95.3956 37.061C96.2974 36.1534 97.2021 35.0615 97.2198 33.9554C97.2227 33.771 97.2257 33.5866 96.933 33.3975C96.3505 32.835 95.771 32.0881 95.4842 31.5303C95.4871 31.3459 95.1944 31.1568 94.9016 30.9677C94.0235 30.4005 94.0324 29.8474 94.9282 29.3085C95.2268 29.1289 95.8241 28.7696 96.4213 28.4104C96.7169 28.4151 97.3083 28.4245 97.8967 28.6184C98.1953 28.4387 98.1983 28.2544 98.4969 28.0748C96.1522 26.7464 93.5119 25.4133 91.1702 23.9005C91.7674 23.5413 92.3647 23.1821 92.9619 22.8228C92.3765 22.4446 91.794 21.8821 91.5013 21.693C91.5043 21.5086 91.5043 21.5086 91.5072 21.3242C92.1044 20.965 92.4031 20.7854 93.0003 20.4261C93.5975 20.0669 93.012 19.6886 93.6093 19.3294C93.9079 19.1498 93.6211 18.592 93.9227 18.228C94.5169 18.0531 95.1054 18.247 95.9924 18.2612C96.5837 18.2706 97.1721 18.4644 97.7634 18.4739C98.9461 18.4928 99.8301 18.6914 100.708 19.2587C103.065 19.8496 104.525 20.9795 106.285 21.9297C106.577 22.1187 106.87 22.3078 107.464 22.133C108.647 22.1519 109.531 22.3504 110.409 22.9177C110.409 22.9177 110.705 22.9225 110.702 23.1068C111.583 23.4898 112.473 23.3196 112.777 22.7712C112.78 22.5869 113.079 22.4073 113.082 22.2229C113.377 22.2276 113.375 22.4119 113.67 22.4167C114.56 22.2465 115.447 22.2607 116.036 22.4545C116.928 22.1 117.824 21.5612 118.717 21.2067C118.726 20.6536 118.735 20.1005 119.338 19.3725C119.634 19.3773 119.929 19.382 120.222 19.5711C120.515 19.7602 121.1 20.1384 121.393 20.3275C121.978 20.7057 122.567 20.8995 123.158 20.9089C123.457 20.7293 123.755 20.5497 124.057 20.1857C124.645 20.3795 124.938 20.5687 125.234 20.5734C125.825 20.5829 126.724 19.8596 126.73 19.4909C126.733 19.3065 126.736 19.1221 126.44 19.1174C125.559 18.7345 125.571 17.9971 125.875 17.4487C126.177 17.0848 126.186 16.5316 126.487 16.1677C126.194 15.9786 125.905 15.6052 125.612 15.4161C125.916 14.8678 126.511 14.6929 126.809 14.5132C127.401 14.5227 127.395 14.8914 127.687 15.0805C128.566 15.6478 129.447 16.0307 129.432 16.9525C129.429 17.1368 129.722 17.3259 130.014 17.515C130.6 17.8932 130.89 18.2666 131.475 18.6448C131.768 18.8339 132.356 19.0277 132.649 19.2168C133.536 19.231 133.255 18.3045 134.133 18.8718C134.136 18.6875 134.432 18.6922 134.435 18.5078C134.443 17.9547 134.157 17.3969 133.571 17.0188C132.699 16.0827 131.824 15.3311 131.546 14.2202C131.268 13.1093 130.396 12.1733 129.228 11.2325C128.938 10.8591 128.648 10.4857 128.358 10.1122C128.072 9.55443 128.078 9.18572 127.791 8.62791C127.501 8.25445 127.504 8.0701 127.51 7.70138C127.806 7.70611 128.098 7.89521 128.101 7.71084C128.997 7.17197 130.478 7.01124 131.084 6.09893C131.093 5.54585 131.102 4.99274 130.218 4.79418C129.334 4.59563 128.743 4.58624 127.548 5.30474C127.259 4.9313 126.966 4.7422 127.563 4.38295C127.862 4.20333 128.16 4.0236 128.163 3.83925C128.462 3.65962 128.76 3.48001 129.059 3.30038C129.65 3.30985 130.242 3.31932 130.833 3.32878C131.424 3.33825 132.016 3.3477 132.613 2.98844C132.912 2.80883 133.207 2.81366 133.506 2.63404C134.694 2.28425 135.88 2.11873 137.358 2.1424C139.425 2.3599 141.492 2.57744 143.26 2.97456C145.324 3.37641 147.095 3.58917 149.158 3.99102C150.042 4.18959 150.926 4.38812 151.81 4.58669C153.576 5.16816 155.344 5.56528 157.109 6.14676C158.877 6.54387 160.639 7.3098 162.111 7.70219C164.465 8.47749 166.221 9.61205 168.276 10.567C169.746 11.1437 171.215 11.7204 172.685 12.2972C174.45 12.8786 175.913 13.8241 177.377 14.7696C178.84 15.715 180.31 16.2918 182.075 16.8733C182.371 16.878 182.368 17.0624 182.663 17.0671C184.434 17.2798 184.434 17.2799 185.608 17.8519C185.904 17.8566 186.202 17.677 186.202 17.677C186.797 17.5021 187.388 17.5116 187.973 17.8898C188.559 18.268 189.44 18.6509 190.324 18.8494C190.912 19.0433 191.208 19.048 191.802 18.8731C192.397 18.6982 192.985 18.892 193.278 19.0811C193.863 19.4593 194.452 19.6531 195.037 20.0313C196.208 20.7877 197.376 21.7284 197.952 22.6597C197.949 22.8441 198.245 22.8488 198.242 23.0331C198.526 23.7753 199.404 24.3426 199.986 24.9051C200.865 25.4724 201.444 26.2193 202.322 26.7866C203.49 27.7273 204.362 28.6633 205.832 29.2401C206.408 30.1714 207.585 30.559 208.46 31.3106C209.336 32.0622 210.214 32.6295 211.092 33.1968C212.555 34.1423 214.019 35.0877 215.483 36.0332C216.653 36.7896 217.821 37.7303 219.288 38.4914C219.876 38.6853 219.867 39.2383 220.751 39.4369C221.34 39.6307 221.925 40.0089 222.511 40.3871C223.096 40.7653 223.684 40.9591 224.27 41.3373C224.563 41.5264 224.855 41.7155 225.148 41.9046C226.316 42.8453 227.785 43.4221 228.956 44.1784C232.188 45.521 234.225 47.5821 236.564 49.2792C238.024 50.409 239.485 51.5389 240.946 52.6687C241.83 52.8672 241.818 53.6046 242.699 53.9875C243.583 54.1861 243.867 54.9283 244.452 55.3065C245.038 55.6847 245.62 56.2472 246.206 56.6254C246.791 57.0036 247.376 57.3818 247.965 57.5756C249.434 58.1524 250.605 58.9087 251.48 59.6603C252.941 60.7902 254.404 61.7357 255.569 62.8607C256.752 62.8797 257.636 63.0782 258.219 63.6408C259.679 64.7706 261.435 65.9052 262.896 67.035C262.893 67.2194 263.189 67.2241 263.186 67.4084C264.646 68.5382 266.104 69.8524 267.565 70.9822C268.733 71.923 269.901 72.8637 270.773 73.7997C270.767 74.1684 271.358 74.1779 271.651 74.367C271.352 74.5466 271.352 74.5466 271.645 74.7357C271.941 74.7405 271.941 74.7405 272.236 74.7452C273.99 76.0641 275.447 77.3783 277.198 78.8816C279.241 80.5739 281.582 82.0867 283.327 83.9587C283.617 84.3321 284.498 84.715 285.083 85.0932C285.669 85.4714 285.961 85.6605 286.251 86.0339C286.836 86.4121 287.123 86.97 287.706 87.5325C289.166 88.6623 290.328 89.9718 291.786 91.286C292.951 92.4111 294.412 93.5409 295.577 94.666C296.452 95.4176 297.327 96.1693 297.903 97.1005C298.193 97.474 298.48 98.0318 298.77 98.4052C299.063 98.5943 299.057 98.9631 299.352 98.9678C300.236 99.1664 300.231 99.5351 300.52 99.9085C301.1 100.655 301.1 100.655 299.616 101C299.027 100.807 298.737 100.433 298.149 100.239C297.268 99.8564 296.981 99.2986 296.993 98.5612C296.996 98.3768 297.002 98.0081 296.709 97.819C295.538 97.0627 294.666 96.1266 293.495 95.3703C293.495 95.3703 293.495 95.3703 293.202 95.1812C292.611 95.1717 292.315 95.167 291.721 95.3419C291.718 95.5262 291.718 95.5262 291.715 95.7106C292.874 97.2044 294.036 98.5138 295.195 100.008C296.068 100.944 296.348 101.87 297.221 102.806C297.8 103.553 298.38 104.3 298.959 105.047C299.249 105.42 299.246 105.605 299.536 105.978C299.24 105.973 299.24 105.973 298.945 105.969C298.649 105.964 298.353 105.959 298.35 106.144C298.052 106.323 298.049 106.508 298.046 106.692C298.043 106.876 298.335 107.065 298.333 107.25C298.909 108.181 299.489 108.928 298.88 110.025C299.175 110.029 299.764 110.223 300.059 110.228C300.926 111.533 301.792 112.837 302.951 114.331C303.244 114.52 303.238 114.889 303.232 115.258C303.226 115.626 302.927 115.806 302.921 116.175C302.919 116.359 303.208 116.733 303.202 117.101C302.91 116.912 302.614 116.907 302.318 116.903C301.73 116.709 301.437 116.52 300.843 116.695C300.544 116.874 299.953 116.865 299.66 116.676C298.782 116.108 298.188 116.283 297.298 116.454C297.002 116.449 296.707 116.444 296.408 116.624C295.811 116.983 295.802 117.536 295.497 118.084C295.494 118.269 295.492 118.453 295.784 118.642C296.071 119.2 296.361 119.573 296.946 119.952C297.239 120.141 297.233 120.509 297.23 120.694C297.224 121.062 297.224 121.062 296.036 121.412C295.157 120.845 294.276 120.462 293.088 120.812C291.899 121.162 290.711 121.511 290.989 122.622C290.406 122.06 290.113 121.871 289.525 121.677C288.644 121.294 287.754 121.464 287.745 122.017C287.736 122.57 287.725 123.308 288.307 123.87C288.594 124.428 289.179 124.806 289.762 125.369C289.759 125.553 289.756 125.737 289.454 126.101C289.159 126.097 289.156 126.281 289.156 126.281C287.976 126.078 287.089 126.064 285.909 125.86C285.602 126.593 284.709 126.948 283.523 127.113C283.228 127.108 282.636 127.099 282.639 126.914C282.054 126.536 281.167 126.522 280.28 126.508C279.981 126.687 279.683 126.867 279.384 127.047C279.949 128.715 280.812 130.204 281.971 131.698C282.261 132.072 282.843 132.634 283.133 133.008C282.834 133.187 282.539 133.183 282.542 132.998C282.252 132.625 281.959 132.436 281.67 132.062C281.087 131.5 280.502 131.121 279.615 131.107C279.316 131.287 278.722 131.462 278.423 131.641C278.127 131.637 277.536 131.627 277.243 131.438C276.658 131.06 276.067 131.05 275.472 131.225C275.177 131.221 274.881 131.216 274.585 131.211C274.296 130.838 273.71 130.46 273.418 130.27C273.128 129.897 272.539 129.703 271.948 129.694C271.357 129.684 271.058 129.864 270.461 130.223C270.748 130.781 271.035 131.339 271.919 131.537C272.803 131.736 273.385 132.298 273.376 132.851C273.364 133.589 274.245 133.972 275.129 134.17C275.419 134.544 275.416 134.728 275.706 135.102C275.7 135.47 275.993 135.659 276.578 136.038C277.164 136.416 277.454 136.789 277.74 137.347C278.902 138.657 279.769 139.961 280.931 141.271C281.22 141.644 281.809 141.838 282.099 142.211C282.388 142.585 282.977 142.779 282.672 143.327C282.669 143.511 282.962 143.701 282.962 143.701C284.431 144.277 285.005 145.393 285.88 146.145C287.338 147.459 288.5 148.768 289.662 150.078C289.952 150.451 290.537 150.829 291.122 151.207C291.415 151.397 292.001 151.775 292.293 151.964C292.586 152.153 292.583 152.337 293.174 152.347C293.47 152.351 293.763 152.541 293.76 152.725C294.047 153.283 294.33 154.025 294.614 154.767C294.898 155.509 295.185 156.067 295.767 156.63C296.057 157.003 296.643 157.381 296.634 157.934C296.338 157.93 296.042 157.925 295.454 157.731C294.845 158.828 294.239 159.74 295.404 160.865C295.105 161.045 294.804 161.409 294.505 161.588C294.499 161.957 294.789 162.331 295.082 162.52C295.374 162.709 295.369 163.077 295.07 163.257C294.768 163.621 294.765 163.805 295.055 164.179C295.342 164.737 295.632 165.11 295.327 165.658C294.73 166.018 294.139 166.008 293.55 165.814C292.371 165.611 291.484 165.597 290.295 165.947C289.701 166.122 289.109 166.112 288.225 165.914C286.753 165.521 286.454 165.701 285.556 166.424C285.257 166.604 284.955 166.968 285.248 167.157C285.242 167.525 285.532 167.899 285.825 168.088C285.822 168.272 286.114 168.461 286.407 168.651C287.276 169.771 286.682 169.946 285.789 170.3C285.491 170.48 285.491 170.48 285.192 170.66C284.583 171.756 284.568 172.678 285.736 173.619C286.029 173.808 286.026 173.992 286.023 174.177C286.011 174.914 286.298 175.472 286.582 176.214C287.158 177.145 287.146 177.883 285.952 178.601C285.65 178.965 285.352 179.145 285.343 179.698C285.337 180.067 284.743 180.241 284.154 180.048C283.27 179.849 282.389 179.466 281.804 179.088C281.215 178.894 280.624 178.885 280.03 179.06C279.436 179.234 278.844 179.225 278.253 179.216C277.067 179.381 276.47 179.74 276.458 180.478C276.446 181.215 276.733 181.773 276.721 182.51C276.716 182.879 276.713 183.063 276.707 183.432C276.402 183.981 276.39 184.718 276.382 185.271C276.379 185.455 276.373 185.824 276.071 186.188C275.172 186.911 274.865 187.644 273.673 188.178C273.076 188.537 272.479 188.897 272.47 189.45C272.467 189.634 272.168 189.814 271.87 189.993C270.386 190.338 269.206 190.135 268.328 189.568C267.739 189.374 267.151 189.18 266.563 188.986C265.974 188.793 265.389 188.414 265.099 188.041C264.514 187.663 263.925 187.469 262.746 187.266C262.728 188.372 262.119 189.468 263.582 190.414C263.576 190.783 263.278 190.962 263.275 191.147C262.684 191.137 262.388 191.132 262.092 191.128C261.205 191.113 260.321 190.915 259.431 191.085C258.541 191.255 257.953 191.061 257.069 190.863C254.718 189.903 252.666 188.764 250.316 187.804C249.728 187.61 249.441 187.053 248.852 186.859C248.267 186.481 247.676 186.471 247.371 187.019C247.072 187.199 247.067 187.568 247.064 187.752C248.229 188.877 250.588 189.284 251.454 190.588C250.86 190.763 250.263 191.123 249.668 191.298C249.961 191.487 249.958 191.671 250.251 191.86C251.422 192.616 252.596 193.188 253.471 193.94C254.056 194.318 254.645 194.512 255.535 194.342C256.126 194.351 256.422 194.356 257.013 194.366C257.308 194.37 257.604 194.375 257.903 194.196C258.497 194.021 258.79 194.21 259.378 194.403C259.671 194.593 259.665 194.961 259.366 195.141C259.065 195.505 258.468 195.864 257.87 196.223C256.691 196.02 255.798 196.375 254.621 195.987C254.325 195.982 253.734 195.973 253.435 196.152C252.539 196.691 251.36 196.488 250.476 196.289C250.476 196.289 250.476 196.289 250.18 196.285C249.58 196.828 248.696 196.63 247.803 196.984C247.8 197.169 247.501 197.348 247.498 197.533C246.889 198.629 246.889 198.629 248.057 199.57C247.463 199.745 247.17 199.556 246.878 199.367C245.999 198.799 245.414 198.421 244.536 197.854C243.072 196.909 241.609 195.963 240.148 194.833C238.392 193.699 236.931 192.569 235.172 191.619C234.879 191.43 234.584 191.425 234.584 191.425C234.288 191.42 234.285 191.604 234.282 191.789C234.276 192.158 234.27 192.526 234.56 192.9C234.557 193.084 234.551 193.453 234.844 193.642C234.545 193.822 234.545 193.822 234.25 193.817C233.951 193.996 233.652 194.176 233.354 194.356C233.052 194.72 233.342 195.093 233.635 195.282C234.22 195.66 234.809 195.854 235.394 196.232C235.982 196.426 236.272 196.8 236.86 196.993C237.739 197.561 238.321 198.123 239.199 198.691C240.077 199.258 241.257 199.461 242.138 199.844C242.726 200.038 243.315 200.232 243.306 200.785C243.001 201.333 242.407 201.508 241.816 201.499C241.225 201.489 240.932 201.3 240.642 200.927C240.057 200.548 239.471 200.17 238.886 199.792C238.008 199.225 236.831 198.837 236.547 198.095C236.254 197.906 235.962 197.717 235.669 197.528C235.376 197.339 235.083 197.149 234.791 196.96C234.507 196.218 233.623 196.02 232.742 195.637C232.156 195.259 231.269 195.244 230.672 195.604C230.078 195.778 229.481 196.138 228.883 196.497C228.286 196.856 228.28 197.225 228.271 197.778C227.378 198.133 226.491 198.118 225.607 197.92C224.723 197.721 223.547 197.334 223.263 196.591C222.973 196.218 222.68 196.029 222.391 195.655C221.515 194.904 220.933 194.341 220.948 193.419C220.951 193.235 220.658 193.046 220.661 192.862C219.499 191.552 218.337 190.243 217.175 188.933C216.595 188.186 215.717 187.619 215.138 186.872C213.686 185.189 211.936 183.686 210.185 182.183C209.31 181.431 208.435 180.679 206.965 180.103C206.673 179.914 206.377 179.909 205.786 179.899C205.475 180.816 205.46 181.738 206.631 182.495C207.214 183.057 208.095 183.44 207.787 184.173C207.495 183.984 206.909 183.605 206.617 183.416C206.034 182.854 205.156 182.287 204.574 181.724C203.406 180.783 201.939 180.022 200.771 179.081C199.896 178.33 198.722 177.758 197.548 177.186C196.667 176.803 195.786 176.42 195.204 175.857C194.618 175.479 194.618 175.479 193.439 175.276C193.14 175.456 193.137 175.64 193.427 176.013C194.589 177.323 196.046 178.637 197.803 179.772C198.681 180.339 199.263 180.901 200.144 181.284C200.437 181.473 200.73 181.663 200.727 181.847C201.306 182.594 202.185 183.161 203.06 183.913C204.228 184.853 205.399 185.61 205.972 186.725C205.674 186.905 205.381 186.716 205.381 186.716C204.21 185.96 203.039 185.203 201.868 184.447C201.575 184.258 201.283 184.069 200.993 183.695C200.121 182.759 198.95 182.003 197.182 181.606C196.886 181.601 196.301 181.223 196.008 181.034C195.712 181.029 195.417 181.024 195.124 180.835C194.53 181.01 194.819 181.383 195.112 181.573C195.695 182.135 196.573 182.702 197.158 183.081C198.039 183.464 198.622 184.026 198.909 184.584C199.198 184.957 199.784 185.335 200.074 185.709C200.366 185.898 200.363 186.082 200.357 186.451C199.473 186.253 198.891 185.69 198.303 185.496C197.717 185.118 197.132 184.74 196.245 184.726C195.946 184.905 195.943 185.09 196.236 185.279C196.526 185.652 196.818 185.841 197.111 186.03C197.694 186.593 198.572 187.16 199.151 187.907C199.441 188.28 199.734 188.47 200.319 188.848C201.194 189.599 202.072 190.167 202.951 190.734C204.408 192.048 206.167 192.998 207.625 194.313C207.918 194.502 208.503 194.88 208.497 195.249C208.494 195.433 208.491 195.617 208.196 195.613C207.897 195.792 207.601 195.787 207.306 195.783C207.01 195.778 206.717 195.589 206.425 195.4C204.964 194.27 202.906 193.499 201.446 192.37C200.86 191.991 200.275 191.613 199.391 191.415C198.802 191.221 198.217 190.843 197.924 190.653C197.339 190.275 196.461 189.708 195.878 189.145C195.296 188.583 194.412 188.384 193.229 188.365C192.93 188.545 192.629 188.909 192.33 189.089C192.327 189.273 192.327 189.273 192.62 189.462C194.959 191.159 197.002 192.852 199.341 194.549C199.633 194.738 199.63 194.922 199.923 195.111C200.506 195.674 200.503 195.858 199.311 196.392C197.552 195.442 195.796 194.308 193.14 193.896C193.137 194.081 193.135 194.265 193.135 194.265C193.708 195.381 194.879 196.137 195.751 197.073C196.334 197.635 196.919 198.014 197.206 198.571C196.319 198.557 195.739 197.81 195.151 197.617C193.685 196.855 192.517 195.915 190.752 195.333C190.163 195.139 189.578 194.761 189.285 194.572C188.407 194.005 187.529 193.438 186.047 193.598C185.456 193.589 184.865 193.579 184.276 193.385C183.085 193.92 183.073 194.657 183.653 195.404C184.232 196.151 184.516 196.893 184.504 197.631C184.498 197.999 184.788 198.373 185.078 198.746C185.66 199.309 185.648 200.046 184.753 200.585C184.451 200.949 183.854 201.308 183.555 201.488C182.958 201.847 182.656 202.211 182.059 202.57C182.349 202.944 182.346 203.128 182.639 203.317C183.224 203.695 183.215 204.248 182.911 204.797C182.322 204.603 181.731 204.594 181.143 204.4C180.25 204.754 179.357 205.109 178.174 205.09C177.583 205.08 177.284 205.26 176.69 205.435C175.8 205.605 174.913 205.591 174.328 205.213C174.035 205.024 173.151 204.825 172.858 204.636C172.27 204.442 171.377 204.797 171.371 205.165C171.365 205.534 171.655 205.907 171.948 206.097C172.234 206.654 172.82 207.033 173.107 207.59C173.689 208.153 173.976 208.711 173.967 209.264C173.958 209.817 173.949 210.37 173.059 210.54C172.465 210.715 172.752 211.273 172.155 211.632C171.271 211.433 170.387 211.235 169.801 210.857C168.923 210.289 168.042 209.907 166.856 210.072C166.555 210.436 165.958 210.795 165.656 211.159C165.349 211.892 166.821 212.284 167.102 213.211C166.516 212.833 165.928 212.639 165.34 212.445L165.044 212.44C163.563 212.601 163.264 212.781 163.249 213.702C163.246 213.887 163.243 214.071 163.24 214.255C163.238 214.44 163.232 214.808 163.524 214.998C163.223 215.362 162.631 215.352 162.04 215.343C161.449 215.333 160.86 215.139 160.562 215.319C159.672 215.489 159.376 215.484 158.791 215.106C158.498 214.917 158.202 214.912 157.907 214.908C157.023 214.709 156.434 214.515 155.852 213.953C155.272 213.206 154.099 212.634 153.516 212.071C153.516 212.071 153.516 212.071 153.513 212.256C152.931 211.693 152.644 211.135 151.766 210.568C150.888 210.001 150.305 209.438 149.723 208.876C149.137 208.497 148.847 208.124 147.668 207.921C146.784 207.722 146.497 207.164 146.207 206.791C145.914 206.602 145.92 206.233 145.628 206.044C145.338 205.671 144.752 205.292 144.758 204.924C144.761 204.739 144.761 204.739 144.468 204.55C143.596 203.614 142.727 202.494 141.559 201.553C141.266 201.364 140.977 200.99 140.98 200.806C140.982 200.622 140.983 200.622 140.69 200.433C138.644 198.925 137.491 197.062 135.445 195.554C135.152 195.365 134.859 195.176 134.566 194.987C134.28 194.429 133.694 194.051 132.81 193.852C131.929 193.469 131.344 193.091 131.06 192.349C130.773 191.791 130.483 191.418 129.898 191.04C129.02 190.472 128.144 189.721 127.269 188.969C126.684 188.591 126.098 188.213 125.214 188.014C124.916 188.194 124.913 188.378 125.206 188.567C125.785 189.314 126.365 190.061 127.24 190.813C127.822 191.375 128.402 192.122 128.984 192.685C129.277 192.874 129.564 193.432 129.558 193.8C129.549 194.353 129.839 194.727 130.129 195.1C130.418 195.474 130.711 195.663 131.001 196.036C130.998 196.221 131.29 196.41 130.992 196.589C130.69 196.953 130.98 197.327 131.571 197.336C132.751 197.54 133.035 198.282 133.617 198.844C133.011 199.757 134.481 200.333 134.469 201.071C134.466 201.255 134.762 201.26 134.759 201.444C136.805 202.952 138.257 204.635 140.007 206.138C140.3 206.327 140.297 206.512 140.294 206.696C140.27 208.171 141.731 209.301 143.194 210.246C143.487 210.435 143.487 210.435 143.78 210.625C144.064 211.367 144.646 211.929 145.229 212.492C146.101 213.428 146.976 214.179 147.848 215.115C148.431 215.678 149.013 216.24 149.894 216.623C150.19 216.628 150.187 216.813 150.477 217.186C150.178 217.366 149.882 217.361 149.584 217.54C148.691 217.895 148.094 218.254 148.085 218.807C148.076 219.36 147.485 219.351 146.896 219.157C144.549 218.013 144.256 217.824 142.509 216.136C141.341 215.196 140.468 214.26 139.303 213.135C138.721 212.572 138.139 212.009 137.556 211.447C137.263 211.258 137.266 211.073 137.269 210.889C137.272 210.705 136.982 210.331 136.69 210.142C135.516 209.57 135.235 208.644 134.656 207.897C134.366 207.523 134.073 207.334 133.783 206.961C132.905 206.394 132.326 205.647 131.746 204.9C131.456 204.526 130.874 203.964 130.584 203.59C130.587 203.406 130.291 203.401 129.999 203.212C129.724 201.917 127.964 200.967 127.095 199.846C126.808 199.288 125.93 198.721 125.345 198.343C124.177 197.402 123.009 196.461 122.14 195.341C120.978 194.032 119.52 192.717 118.358 191.408C118.065 191.219 117.776 190.846 117.483 190.656C116.022 189.527 114.854 188.586 113.692 187.276C113.11 186.714 112.229 186.331 111.049 186.128C110.753 186.123 110.458 186.118 110.159 186.298C109.86 186.477 109.562 186.657 109.263 186.837C111.295 189.266 113.622 191.701 115.653 194.131C115.943 194.504 116.235 194.693 116.525 195.067C117.4 195.818 118.272 196.754 119.145 197.69C120.017 198.626 120.892 199.378 121.764 200.314C122.057 200.503 122.347 200.877 122.344 201.061C123.793 202.928 125.244 204.611 126.992 206.299C127.867 207.05 128.446 207.797 129.026 208.544C129.898 209.48 130.774 210.232 131.646 211.168C132.518 212.104 133.393 212.856 134.561 213.796C135.144 214.359 135.726 214.921 136.311 215.3C134.821 216.013 134.818 216.198 134.804 217.119C134.798 217.488 134.795 217.673 135.084 218.046C136.255 218.802 136.533 219.913 137.408 220.665C137.994 221.043 138.576 221.606 139.46 221.804C140.049 221.998 140.634 222.376 141.223 222.57C140.321 223.478 139.431 223.648 138.257 223.076C137.964 222.887 137.672 222.698 137.379 222.508C136.791 222.315 136.794 222.13 136.504 221.757C136.217 221.199 135.927 220.826 135.339 220.632C134.753 220.254 134.165 220.06 134.174 219.507C134.18 219.138 133.296 218.939 133.003 218.75C132.415 218.556 132.125 218.183 132.131 217.814C132.134 217.63 131.841 217.441 131.841 217.441C130.96 217.058 130.673 216.5 130.091 215.938C129.514 215.006 128.343 214.25 127.468 213.498C126.883 213.12 126.002 212.737 125.12 212.354C124.828 212.165 124.532 212.16 124.239 211.971C123.364 211.22 123.083 210.293 122.802 209.367C122.808 208.998 122.814 208.629 122.521 208.44C122.235 207.882 121.951 207.14 121.073 206.573C120.197 205.821 119.325 204.885 118.749 203.954C118.166 203.391 117.879 202.834 117.297 202.271C116.714 201.708 116.428 201.151 115.845 200.588C115.263 200.026 114.68 199.463 113.799 199.08C113.506 198.891 112.915 198.882 112.619 198.877C112.306 199.978 113.181 200.73 113.761 201.477C114.053 201.666 114.343 202.039 114.34 202.224C114.633 202.413 114.63 202.597 114.627 202.782C114.036 202.772 113.444 202.763 113.149 202.758C112.566 202.195 111.984 201.633 111.401 201.07C110.816 200.692 111.123 199.959 110.242 199.576C109.958 198.834 108.782 198.447 108.202 197.7C107.623 196.953 107.339 196.211 106.756 195.648C106.174 195.085 105.591 194.523 105.009 193.96C104.716 193.771 104.423 193.582 104.426 193.398C104.143 192.656 103.261 192.273 102.082 192.069C101.783 192.249 101.487 192.244 100.893 192.419C100.009 192.221 99.7194 191.847 99.134 191.469C98.8413 191.28 98.5485 191.091 98.5515 190.907C98.2617 190.533 97.6704 190.524 97.0761 190.699C96.4641 191.98 96.4641 191.98 98.5219 192.75C99.4296 191.474 99.4237 191.843 99.7134 192.216Z" fill="#F9B605"/>
<path fill-rule="evenodd" clip-rule="evenodd" d="M133.368 15.54C96.5154 26.5855 69.6602 60.7611 69.6602 101.209C69.6602 101.862 69.6672 102.514 69.6811 103.164L72.7326 101.836C72.7312 101.627 72.7304 101.418 72.7304 101.209C72.7304 62.4736 98.2355 29.6952 133.368 18.7513V15.54ZM94.5537 158.592L91.5965 159.879C107.991 178.72 132.145 190.63 159.081 190.63C178.926 190.63 197.262 184.165 212.096 173.227L209.298 171.465C195.149 181.596 177.811 187.56 159.081 187.56C133.418 187.56 110.37 176.365 94.5537 158.592ZM248.502 101.209C248.502 108.385 247.657 115.363 246.061 122.05L243.311 120.318C244.699 114.171 245.432 107.775 245.432 101.209C245.432 64.1876 222.134 32.6076 189.4 20.3309V17.0589C223.863 29.4778 248.502 62.4661 248.502 101.209Z" fill="black"/>
<path fill-rule="evenodd" clip-rule="evenodd" d="M70.486 48.9073C56.4812 72.3319 52.2503 100.825 59.4652 127.689H63.0942C55.7274 101.277 59.8713 73.1494 73.8144 50.165L70.486 48.9073ZM168.719 3.45971C195.274 6.40615 220.359 20.0909 237.097 42.7975L239.285 39.8772C221.992 16.9137 196.378 3.0533 169.272 0L168.719 3.45971ZM128.558 195.231L126.423 198.223C153.498 207.014 184.089 204.477 210.409 188.671C229.801 177.026 243.924 159.949 252 140.556L248.232 140.476C240.351 158.679 226.91 174.68 208.608 185.671C183.532 200.73 154.441 203.316 128.558 195.231Z" fill="black"/>
</g>
<defs>
<clipPath id="clip0">
<rect width="305" height="226" fill="white"/>
</clipPath>
</defs>
</svg>
