<svg width="403" height="299" viewBox="0 0 403 299" fill="none" xmlns="http://www.w3.org/2000/svg">
<g clip-path="url(#clip0)">
<path d="M256.908 241.906L256.905 242.149C256.905 242.149 256.905 242.149 256.901 242.392C256.905 242.149 256.905 242.149 256.908 241.906ZM33.919 88.027C34.305 88.2764 34.305 88.2765 34.305 88.2765L34.3089 88.0333C34.3128 87.7901 33.9228 87.7839 33.919 88.027ZM12.3616 70.1702C12.3616 70.1702 12.3577 70.4133 12.7477 70.4196L13.1377 70.4258L13.1416 70.1826C12.7555 69.9333 12.3655 69.927 12.3616 70.1702ZM368.497 166.836L368.883 167.085C368.883 167.085 368.883 167.085 368.887 166.842C369.277 166.848 369.277 166.848 368.497 166.836C368.891 166.599 368.887 166.842 368.497 166.836ZM87.502 200.765C87.1121 200.759 87.1122 200.759 87.1083 201.002L87.1044 201.245L87.4942 201.251C87.8881 201.015 87.8881 201.015 87.502 200.765ZM117.093 228.479C116.305 228.953 116.687 229.446 117.073 229.695C117.073 229.695 117.463 229.701 117.853 229.708C117.853 229.708 118.247 229.471 118.251 229.228C117.865 228.978 117.479 228.729 117.093 228.479ZM120.072 237.283C120.064 237.769 120.057 238.255 121.219 238.761C120.844 237.782 120.844 237.782 120.072 237.283ZM171.627 13.8615C172.02 13.6245 172.414 13.3876 172.418 13.1445C172.422 12.9013 172.426 12.6582 172.036 12.6519C171.646 12.6457 171.256 12.6394 171.256 12.6394C171.256 12.6394 170.862 12.8763 170.858 13.1195C171.244 13.3689 171.63 13.6183 171.627 13.8615ZM131.314 71.1018C131.696 71.5944 131.693 71.8375 132.079 72.0869C132.079 72.0869 132.855 72.3426 132.858 72.0994C132.858 72.0994 133.252 71.8625 133.256 71.6194C133.264 71.1331 132.484 71.1206 131.314 71.1018ZM112.854 225.25C112.452 225.973 113.224 226.472 113.603 227.207C113.599 227.45 113.981 227.943 114.371 227.949C115.155 227.719 114.379 227.463 114.382 227.22C114.792 226.01 114.02 225.511 112.854 225.25ZM32.784 85.8199C32.3941 85.8137 31.9964 86.2937 31.9925 86.5369C32.3786 86.7863 32.7646 87.0356 33.1507 87.285C33.5367 87.5344 34.3206 87.3038 34.3245 87.0607C34.7261 86.3375 33.564 85.8324 32.784 85.8199ZM30.7525 90.8949C30.3509 91.6181 30.7292 92.3539 31.5013 92.8527C31.4974 93.0958 32.2812 92.8652 32.6711 92.8714C33.0611 92.8777 33.455 92.6407 33.0689 92.3913C32.6906 91.6556 31.9185 91.1568 30.7525 90.8949ZM54.9474 163.275C54.5419 164.241 54.5302 164.971 55.2984 165.713C56.0706 166.211 56.8466 166.467 58.0165 166.486C58.0204 166.243 58.0282 165.756 57.6421 165.507C57.2638 164.771 56.1017 164.266 54.9474 163.275ZM316.256 238.235C317.02 239.22 317.009 239.949 318.171 240.455C318.943 240.953 319.715 241.452 319.707 241.938C319.688 243.154 320.842 244.146 322 244.894C322 244.894 322.39 244.9 322.776 245.149C322.78 244.906 322.784 244.663 322.784 244.663C322.02 243.678 321.641 242.942 320.873 242.2C320.491 241.708 319.719 241.209 319.727 240.723C319.348 239.987 318.576 239.488 317.808 238.746C317.422 238.497 317.422 238.497 316.256 238.235ZM343.413 247.426C344.201 246.952 344.988 246.478 345.386 245.998C345.012 245.019 343.846 244.757 342.68 244.495C341.9 244.483 341.12 244.47 340.722 244.95C340.324 245.43 339.927 245.91 340.309 246.403C341.471 246.908 342.637 247.17 343.413 247.426ZM123.192 237.333C123.586 237.096 123.59 236.853 123.983 236.616C124.389 235.649 124.011 234.914 123.243 234.172C122.856 233.922 122.474 233.43 122.478 233.187C122.49 232.457 121.718 231.958 121.336 231.466L120.95 231.216C120.56 231.21 119.78 231.198 119.39 231.191C119.386 231.435 119.378 231.921 119.378 231.921C120.142 232.906 120.521 233.642 121.285 234.627C121.667 235.119 122.045 235.855 122.818 236.354C122.03 236.828 122.416 237.077 123.192 237.333ZM356.334 171.262C358.295 170.564 358.295 170.564 357.535 169.336C357.157 168.6 356.778 167.864 356.01 167.122C355.242 166.38 354.478 165.395 353.709 164.653C353.327 164.161 352.551 163.905 352.157 164.142C351.763 164.379 351.366 164.859 351.748 165.351C351.744 165.595 352.134 165.601 352.13 165.844C352.512 166.337 352.894 166.829 353.663 167.571C354.431 168.313 355.199 169.055 354.794 170.021C355.176 170.514 355.948 171.013 356.334 171.262ZM141.091 240.052C142.273 239.341 142.273 239.341 142.28 238.854C142.308 237.152 141.165 235.432 139.628 233.948C139.242 233.698 138.856 233.449 138.08 233.193C137.694 232.944 137.304 232.938 136.911 233.175C136.517 233.411 136.517 233.411 136.123 233.648C136.887 234.633 137.262 235.612 138.026 236.597C139.176 237.832 139.941 238.817 141.091 240.052ZM132.75 249.403C133.924 249.179 133.928 248.936 133.936 248.45C133.565 247.228 133.199 245.762 131.264 244.759C130.102 244.254 129.334 243.512 129.35 242.539C129.369 241.323 128.207 240.818 127.049 240.07C126.663 239.821 126.273 239.814 126.273 239.814C125.883 239.808 125.493 239.802 125.493 239.802C125.489 240.045 125.095 240.282 125.095 240.282C126.242 241.76 127.388 243.237 128.535 244.715C128.921 244.964 128.917 245.207 128.913 245.451C129.669 246.922 131.21 248.163 132.75 249.403ZM69.2591 170.8C68.4869 170.302 67.7187 169.56 66.9465 169.061C66.5605 168.812 66.1745 168.562 66.1784 168.319C65.4218 166.848 63.4876 165.844 61.9433 164.846C61.5612 164.354 60.7852 164.098 60.403 163.605C59.6464 162.134 57.7161 160.887 56.1757 159.646C55.4075 158.904 54.2492 158.156 53.091 157.408C52.705 157.158 52.3151 157.152 51.9212 157.389C51.5312 157.383 51.1335 157.863 51.5195 158.112C51.8978 158.848 52.6622 159.833 53.4304 160.575C54.2025 161.074 54.9708 161.816 55.739 162.558C56.5073 163.3 57.6694 163.805 58.0477 164.541C58.0438 164.784 58.8158 165.282 59.2019 165.532C60.364 166.037 60.7462 166.529 61.1244 167.265C61.5066 167.758 61.5028 168.001 62.2749 168.5C63.4331 169.248 64.5874 170.239 65.7456 170.987C66.1316 171.237 66.5176 171.486 66.5137 171.729C67.6603 173.207 68.8108 174.442 69.9573 175.919C70.7216 176.904 71.8758 177.896 72.6402 178.881C73.4084 179.623 74.1728 180.608 75.3349 181.113C76.4931 181.861 77.2613 182.603 78.0295 183.345C79.5699 184.586 81.1102 185.827 82.2606 187.061C83.415 188.052 84.1832 188.794 84.9476 189.779C85.3297 190.272 85.7119 190.765 86.4918 190.777C86.8779 191.026 87.264 191.276 87.2601 191.519C88.4066 192.997 89.1592 194.711 91.4833 195.721C91.8694 195.971 91.8695 195.971 92.2555 196.22C93.4059 197.455 94.9463 198.695 96.0967 199.93C96.4828 200.179 96.8688 200.429 97.2548 200.678C97.6487 200.441 98.0426 200.204 98.0465 199.961C97.676 198.739 96.9116 197.754 95.7573 196.763C93.8348 195.029 92.2984 193.545 90.7697 191.575C89.6232 190.097 88.4727 188.863 86.5385 187.859C84.9904 187.105 84.226 186.12 83.8555 184.898C83.8633 184.411 83.4812 183.919 82.7051 183.663C81.933 183.164 81.9369 182.921 81.5548 182.429C80.7904 181.443 80.0261 180.458 79.2578 179.716C78.0996 178.968 76.9454 177.977 75.7872 177.229C74.6329 176.237 73.4825 175.003 71.9382 174.005C71.5638 173.026 70.4134 171.792 69.2591 170.8ZM364.531 170.907C364.149 170.414 363.763 170.165 363.38 169.672C363.388 169.186 363.002 168.937 362.616 168.687C360.694 166.954 359.555 164.99 358.416 163.026C358.42 162.783 358.034 162.533 357.648 162.284C356.876 161.785 356.494 161.293 355.721 160.794C354.949 160.295 354.949 160.295 353.382 160.756C353.378 161 353.37 161.486 353.366 161.729C353.362 161.972 353.358 162.215 353.748 162.222C354.914 162.483 355.289 163.462 356.061 163.961C357.589 165.931 359.118 167.902 360.647 169.872C361.029 170.364 361.415 170.614 361.797 171.106C362.183 171.356 362.18 171.599 362.566 171.848C362.952 172.098 363.342 172.104 363.735 171.867C364.137 171.144 364.141 170.901 364.531 170.907ZM332.342 256.734C331.956 256.484 331.96 256.241 331.574 255.992C330.03 254.994 328.871 254.246 327.327 253.248C325.397 252.002 323.073 250.991 321.93 249.271C321.548 248.778 320.386 248.273 319.614 247.774C319.228 247.525 318.452 247.269 318.066 247.02C316.135 245.773 314.595 244.532 312.668 243.042C312.282 242.792 311.892 242.786 311.116 242.531C311.112 242.774 311.105 243.26 311.105 243.26C311.491 243.509 311.877 243.759 312.263 244.008C313.039 244.264 313.425 244.513 313.807 245.006C314.189 245.498 314.575 245.748 314.958 246.24C315.726 246.982 316.494 247.724 317.652 248.472C319.208 248.741 319.587 249.476 320.355 250.218C320.351 250.461 320.737 250.711 321.127 250.717C323.829 252.463 326.532 254.209 329.238 255.711C329.624 255.961 330.4 256.216 331.176 256.472C331.558 256.964 331.952 256.728 332.342 256.734C332.338 256.977 332.338 256.977 332.342 256.734ZM24.3374 77.4152C24.3296 77.9015 24.3257 78.1447 24.318 78.631C24.3141 78.8741 24.7001 79.1236 25.09 79.1298C25.48 79.136 25.4839 78.8929 25.4878 78.6497C25.4995 77.9202 25.1173 77.4277 24.3374 77.4152ZM159.636 31.9108L160.026 31.917C159.632 32.154 159.632 32.154 159.636 31.9108C159.246 31.9046 159.246 31.9046 159.636 31.9108C159.25 31.6614 159.25 31.6614 159.25 31.6614C159.246 31.9046 159.246 31.9046 159.636 31.9108ZM131.514 253.518C131.128 253.269 130.352 253.013 129.576 252.758C129.568 253.244 129.56 253.73 129.553 254.217C128.777 253.961 128.39 253.712 127.611 253.699C126.842 252.957 127.634 252.24 126.082 251.729C125.302 251.716 125.68 252.452 125.286 252.689C124.893 252.926 124.503 252.92 123.719 253.15C123.337 252.658 122.951 252.408 122.958 251.922C122.97 251.193 122.584 250.943 121.812 250.444C121.047 249.459 119.889 248.711 118.735 247.72C118.341 247.957 117.561 247.944 117.167 248.181C116.785 247.689 116.399 247.439 116.017 246.947C116.021 246.703 115.631 246.697 115.635 246.454C116.044 245.245 114.492 244.733 113.33 244.228C112.944 243.979 112.554 243.973 112.558 243.729C111.411 242.252 112.215 240.805 111.848 239.34C111.852 239.097 112.246 238.86 112.25 238.617C113.049 237.414 112.675 236.435 111.52 235.443C110.366 234.452 109.606 233.224 109.625 232.008C109.637 231.279 109.259 230.543 108.097 230.038C108.1 229.795 108.104 229.551 108.502 229.071C106.954 228.317 105.406 227.563 105.039 226.097C104.661 225.362 104.279 224.869 104.29 224.14C103.924 222.674 102.773 221.44 101.623 220.205C100.09 218.478 98.5616 216.508 97.419 214.787C96.6586 213.559 95.5043 212.568 94.3539 211.333C93.2035 210.099 92.057 208.621 91.6904 207.156C92.8602 207.175 93.2385 207.91 93.6246 208.16C94.775 209.394 95.9215 210.872 97.068 212.349C97.4463 213.085 98.2184 213.584 98.9905 214.083C100.145 215.074 100.909 216.059 101.67 217.288C102.812 219.008 104.735 220.742 106.271 222.226C106.267 222.469 106.657 222.475 106.657 222.475C107.437 222.487 107.441 222.244 107.445 222.001C107.457 221.272 107.468 220.542 107.086 220.05C107.086 220.05 107.086 220.05 107.09 219.807C107.113 218.348 105.569 217.35 104.805 216.365C103.662 214.644 102.13 212.917 100.203 211.427C99.8172 211.177 99.8211 210.934 99.825 210.691C99.0723 208.977 96.752 207.723 95.2155 206.239C94.4434 205.741 93.6714 205.242 92.9031 204.5C92.1349 203.758 90.9727 203.253 89.4129 203.228C89.4168 202.985 89.4207 202.742 89.4245 202.498C89.4284 202.255 89.0424 202.006 88.2625 201.993C87.4826 201.981 87.4787 202.224 87.4709 202.71C87.0848 202.461 86.6949 202.455 86.6988 202.212C85.5484 200.977 83.6181 199.73 82.8615 198.259C82.1011 197.03 80.9429 196.282 80.5724 195.06C80.5763 194.817 80.1863 194.811 80.1863 194.811C79.0281 194.063 78.2599 193.321 78.2793 192.105C75.9474 191.581 76.3607 190.128 75.5964 189.143C75.9903 188.906 76.3763 189.156 76.3763 189.156C76.3763 189.156 76.3763 189.156 76.3724 189.399C78.7004 190.166 79.847 191.644 80.9935 193.121C81.3796 193.371 81.7656 193.62 82.1516 193.869C82.5338 194.362 83.3099 194.618 83.3021 195.104C83.6843 195.596 84.4564 196.095 84.8425 196.345C85.2285 196.594 86.0007 197.093 87.1706 197.112C87.1744 196.868 87.5643 196.875 87.5682 196.631C87.5838 195.659 86.8195 194.674 86.0512 193.932C84.1209 192.685 82.9745 191.207 81.438 189.723C80.2837 188.732 79.5193 187.747 78.7549 186.762L79.1449 186.768C79.1449 186.768 79.1488 186.525 79.1527 186.282C79.1527 186.282 79.1527 186.282 78.7627 186.275L78.3689 186.512L78.365 186.755C77.9789 186.506 77.589 186.5 77.5929 186.257C77.2185 185.278 76.0603 184.53 74.8982 184.024C73.7361 183.519 72.964 183.021 72.5818 182.528C72.1996 182.036 71.4275 181.537 70.6554 181.038C70.6554 181.038 70.2655 181.032 69.8794 180.782C69.8755 181.025 69.8716 181.269 69.8677 181.512C70.6321 182.497 71.0065 183.476 71.7747 184.218C72.1608 184.467 72.5429 184.96 72.9289 185.209C74.0871 185.957 74.8515 186.942 75.2259 187.921L75.222 188.164C74.056 187.903 74.0716 186.93 72.9056 186.668C72.5195 186.419 72.1334 186.169 72.1334 186.169C70.9596 186.394 70.5775 185.901 70.1953 185.409C69.8248 184.186 68.6667 183.438 67.5124 182.447C67.1263 182.198 66.7441 181.705 66.748 181.462C66.7519 181.219 66.3659 180.969 65.9759 180.963C64.4278 180.209 63.2734 179.217 62.5129 177.989C62.1308 177.496 61.3587 176.998 60.9765 176.505C60.5904 176.256 60.9843 176.019 60.9882 175.776C60.9921 175.532 60.6099 175.04 60.6138 174.797C61.3859 175.296 62.1619 175.551 62.5441 176.044C63.7218 175.576 64.1157 175.339 63.7296 175.09C63.3513 174.354 62.5792 173.855 61.811 173.113C61.4288 172.621 60.6527 172.365 60.6644 171.636C60.6644 171.636 60.6684 171.393 60.2784 171.386C59.1202 170.638 57.962 169.89 57.1976 168.905C55.6456 168.394 55.6573 167.664 55.6728 166.691C54.5069 166.43 54.8891 166.922 54.4952 167.159C53.727 166.417 52.9549 165.918 52.5766 165.183C52.1944 164.69 51.8122 164.197 52.21 163.717C52.2139 163.474 52.2177 163.231 51.8317 162.982C51.0556 162.726 50.6774 161.99 49.9013 161.735C49.5153 161.485 49.1292 161.236 49.5269 160.756C49.913 161.005 49.913 161.005 50.2991 161.255C51.4612 161.76 52.2449 161.529 53.0365 160.812C51.8783 160.064 51.114 159.079 49.9558 158.331C48.4116 157.333 48.0372 156.354 48.4505 154.901C48.8483 154.421 48.4661 153.929 47.69 153.673C47.3001 153.667 46.9102 153.661 46.5202 153.654C46.5163 153.898 46.5124 154.141 46.5124 154.141L46.1225 154.134C45.7364 153.885 45.3503 153.636 45.3542 153.392C44.972 152.9 44.586 152.651 44.2038 152.158C43.4317 151.659 42.6634 150.917 42.2852 150.182C41.9069 149.446 41.5248 148.953 41.1465 148.218C40.7682 147.482 39.6022 147.22 38.8301 146.721C38.4479 146.229 37.6757 145.73 37.6835 145.243C37.3091 144.265 36.151 143.516 34.9889 143.011C36.5643 142.064 36.5682 141.821 35.02 141.066C34.6301 141.06 34.634 140.817 34.634 140.817C34.634 140.817 35.0239 140.823 35.0278 140.58L34.6417 140.33C33.8696 139.832 33.4874 139.339 32.7153 138.84C31.9471 138.098 31.9587 137.369 31.9704 136.639C31.9743 136.396 32.3682 136.159 32.7581 136.166C33.152 135.929 33.9358 135.698 34.7196 135.467C35.4956 135.723 36.2756 135.735 37.0516 135.991C37.4415 135.997 38.2253 135.767 37.8431 135.274C37.847 135.031 37.8471 135.031 37.461 134.782C36.6928 134.04 35.9245 133.298 35.1524 132.799C33.9903 132.294 33.612 131.558 34.0136 130.835C32.8593 129.844 31.7012 129.095 31.3307 127.873C29.7864 126.876 29.0299 125.404 27.0956 124.4C27.4856 124.407 27.8794 124.17 28.2694 124.176C28.6632 123.939 28.6672 123.696 29.0649 123.216C28.6866 122.48 27.9184 121.738 27.5401 121.003C27.934 120.766 28.3239 120.772 28.7177 120.535C29.1116 120.298 29.5094 119.818 29.1233 119.569C28.7411 119.076 27.9651 118.82 28.3628 118.34C29.9109 119.095 31.0653 120.086 31.4358 121.308C31.8063 122.53 32.9606 123.521 33.725 124.507C34.111 124.756 34.4932 125.249 34.8831 125.255C36.4391 125.523 36.8212 126.015 37.1995 126.751C37.9639 127.736 39.1182 128.728 41.454 129.008C42.234 129.021 42.6278 128.784 42.6355 128.298C42.6472 127.568 42.265 127.075 42.2767 126.346C41.8906 126.097 41.1146 125.841 40.7286 125.592C38.7905 124.831 38.03 123.603 38.0533 122.144C38.0572 121.901 38.0651 121.414 37.679 121.165C37.293 120.915 36.9029 120.909 36.1269 120.654C35.737 120.647 35.737 120.647 35.3471 120.641C35.351 120.398 35.351 120.398 35.3549 120.155C36.1503 119.195 35.382 118.453 34.2238 117.704C33.8378 117.455 33.4479 117.449 33.0618 117.199C32.6757 116.95 32.2857 116.944 32.2896 116.701C31.5331 115.229 28.8073 114.942 27.653 113.951L26.8731 113.938C26.8731 113.938 26.4753 114.419 26.8653 114.425C27.2475 114.917 27.6296 115.41 28.4056 115.666C28.7917 115.915 29.1778 116.164 29.5639 116.414C28.7762 116.888 28.3784 117.368 27.5946 117.598C26.4403 116.607 25.6799 115.379 24.1318 114.624C23.7457 114.375 23.7495 114.132 23.3674 113.639C22.5991 112.897 21.8309 112.155 21.4526 111.42C21.0704 110.927 20.2944 110.671 20.696 109.948L20.3139 109.456C19.5379 109.2 18.3719 108.938 17.5959 108.682C17.2098 108.433 17.2175 107.947 16.8315 107.697C16.0555 107.442 15.2795 107.186 14.5035 106.93C14.5113 106.444 14.1291 105.952 13.743 105.702C14.5229 105.715 15.3068 105.484 16.0828 105.74C17.6387 106.008 18.8164 105.54 20.3879 104.836C21.5656 104.368 22.3532 103.894 23.5309 103.427C23.5387 102.94 23.5464 102.454 22.7704 102.198C21.6083 101.693 20.4462 101.188 19.288 100.44C19.2997 99.7106 20.8595 99.7356 21.2573 99.2555C21.2651 98.7692 21.2729 98.2829 21.2845 97.5535C22.8483 97.3353 24.0259 96.8677 25.5741 97.6221C25.9602 97.8715 26.354 97.6347 26.74 97.884C27.5316 97.1671 27.1534 96.4313 27.1612 95.945C27.555 95.7081 27.9489 95.4712 28.3428 95.2343C30.3004 94.7792 30.3198 93.5634 29.9454 92.5845C29.5671 91.8488 29.5827 90.8762 29.5944 90.1467C29.6021 89.6604 29.2238 88.9247 28.8378 88.6753C27.6796 87.9271 26.9113 87.1852 25.3554 86.9171C24.1894 86.6552 23.0352 85.6638 22.2631 85.165C22.2864 83.7061 24.24 83.4941 25.0355 82.534C25.4177 83.0265 26.1899 83.5253 26.576 83.7747C27.3559 83.7872 28.1396 83.5566 28.9078 84.2985C29.2939 84.5479 29.6839 84.5542 30.4678 84.3235C31.2516 84.0928 31.2554 83.8497 31.2632 83.3634C31.271 82.8771 30.8849 82.6277 30.8927 82.1414C30.5183 81.1625 29.7462 80.6637 28.5841 80.1586C27.8081 79.903 27.422 79.6536 27.0359 79.4042C26.2638 78.9054 25.4839 78.8929 24.3218 78.3879C23.9397 77.8953 23.9474 77.409 23.5691 76.6733C22.0093 76.6483 20.8512 75.9001 20.4768 74.9212C20.4846 74.4349 20.0984 74.1855 19.7163 73.693C18.9558 72.4647 18.5698 72.2153 16.2339 71.9347C15.4462 72.4086 15.0485 72.8886 14.2569 73.6055C13.0909 73.3437 11.9211 73.325 11.1451 73.0693C10.3574 73.5432 9.95953 74.0232 9.56179 74.5033C9.16404 74.9834 8.76245 75.7066 8.36471 76.1866C7.96307 76.9098 7.95524 77.3961 7.54971 78.3625C7.15586 78.5994 6.76208 78.8364 6.75819 79.0796C6.36434 79.3165 6.36039 79.5596 5.96654 79.7965C5.18663 79.784 4.40669 79.7715 3.62288 80.0022C3.2485 79.0233 3.26412 78.0507 4.44567 77.34C4.44567 77.34 4.83954 77.1031 4.84344 76.8599C4.46516 76.1242 5.25281 75.6504 6.04051 75.1766C6.43436 74.9396 6.4422 74.4533 6.83605 74.2164C6.84773 73.487 7.24939 72.7638 7.26107 72.0343C7.26496 71.7911 7.26885 71.5479 7.27275 71.3048C6.89447 70.5691 7.2961 69.8459 7.30778 69.1164C7.31557 68.6301 7.70935 68.3932 8.10709 67.9131C8.88701 67.9256 9.66303 68.1813 10.053 68.1875C10.4429 68.1937 10.8408 67.7136 11.2346 67.4767C11.6246 67.483 11.6206 67.7261 12.0106 67.7324C12.7788 68.4743 13.1688 68.4806 14.3464 68.013C15.1302 67.7823 15.9141 67.5516 16.694 67.5641C18.2538 67.5891 19.4198 67.851 20.9797 67.876C21.3735 67.6391 21.7751 66.9158 22.945 66.9346C23.335 66.9408 23.7288 66.7039 23.7326 66.4607C24.1343 65.7375 24.922 65.2637 25.7058 65.0331C26.0996 64.7962 26.4935 64.5592 26.1075 64.3098C26.1152 63.8235 25.3354 63.8111 24.9454 63.8048C24.5555 63.7986 23.7716 64.0292 23.3816 64.0229C22.9916 64.0167 22.6017 64.0105 21.8179 64.2411C21.0574 63.0129 21.8491 62.2959 22.6446 61.3358C23.0423 60.8557 23.8261 60.6251 24.6138 60.1512C25.7837 60.17 25.7836 60.1699 27.359 59.2222C26.2125 57.7446 25.066 56.2669 23.5295 54.783C23.5334 54.5399 23.9312 54.0599 23.9351 53.8167C24.3406 52.8503 23.9546 52.6009 22.7925 52.0958C22.4026 52.0896 22.0164 51.8402 21.6265 51.8339C21.6381 51.1045 21.6537 50.1319 19.7117 49.6143C20.4955 49.3837 20.8855 49.3899 20.8855 49.3899C22.4415 49.658 24.3912 49.6893 25.9394 50.4437C26.3254 50.6931 26.7155 50.6993 27.1054 50.7056C29.0474 51.2231 30.6072 51.2481 32.5648 50.793C33.3486 50.5623 33.7425 50.3254 34.5263 50.0948C36.4722 50.3691 38.0242 50.8804 39.5723 51.6349C40.7344 52.1399 42.2864 52.6512 43.4524 52.9131C45.0084 53.1812 46.1743 53.4431 47.3325 54.1913C47.7186 54.4407 48.4946 54.6963 49.2745 54.7088C50.8305 54.9769 52.402 54.2725 53.9619 54.2974C54.7418 54.3099 55.5295 53.8361 56.3211 53.1191L56.7149 52.8822C58.6685 52.6702 60.2246 52.9384 62.1705 53.2128C62.9504 53.2253 63.7225 53.724 64.1047 54.2166C64.4868 54.7091 64.869 55.2017 65.6372 55.9437C66.7876 57.1782 68.3357 57.9326 70.6755 57.9701C71.0654 57.9763 71.0655 57.9763 71.4554 57.9826C71.4554 57.9826 71.4555 57.9826 71.8454 57.9888C72.2432 57.5087 73.0308 57.0349 73.4286 56.5548C74.5907 57.0599 75.3627 57.5587 76.1388 57.8143C77.3086 57.833 77.3203 57.1036 78.1041 56.8729C78.4941 56.8791 78.4902 57.1223 78.8802 57.1286L78.4902 57.1223C78.8763 57.3717 78.8685 57.858 78.8646 58.1012C78.8607 58.3443 78.8607 58.3444 78.8568 58.5875C79.2468 58.5938 79.2468 58.5938 79.6368 58.6C80.8028 58.8619 80.4011 59.5851 81.5671 59.847C81.9571 59.8532 82.737 59.8657 83.1347 59.3856C83.5363 58.6624 83.1541 58.1699 82.7759 57.4342C82.3898 57.1848 82.3898 57.1847 82.0037 56.9353C80.4516 56.4241 78.9036 55.6696 77.7415 55.1646C76.5794 54.6595 75.8111 53.9176 75.0429 53.1756C74.6607 52.6831 74.6685 52.1968 75.0663 51.7167C75.0701 51.4735 74.6802 51.4673 74.6841 51.2242L75.0779 50.9872C77.0238 51.2616 78.2054 50.5508 79.7692 50.3327C80.1552 50.5821 80.1551 50.5821 80.5412 50.8315C80.9234 51.324 81.7072 51.0934 82.4871 51.1059C82.8693 51.5984 82.8615 52.0847 84.0274 52.3466C84.0274 52.3466 84.0236 52.5898 84.4135 52.596C84.4135 52.596 84.4135 52.596 84.4174 52.3529C84.4174 52.3529 84.0274 52.3466 84.0313 52.1035C84.0352 51.8603 84.4291 51.6234 84.433 51.3803C84.8191 51.6297 85.2052 51.879 85.5913 52.1284C85.9773 52.3778 86.3673 52.3841 87.1472 52.3966C87.9271 52.4091 89.097 52.4278 89.4753 53.1635C89.8613 53.4129 90.2473 53.6623 90.6373 53.6686C91.4211 53.4379 92.2049 53.2072 92.9926 52.7334C92.9926 52.7334 92.9888 52.9765 93.3787 52.9827L92.9888 52.9765C92.9926 52.7333 92.9927 52.7334 93.3865 52.4965C93.7804 52.2596 93.7842 52.0164 93.0082 51.7607C93.0082 51.7607 93.0121 51.5176 92.6221 51.5114C93.0121 51.5176 93.7881 51.7732 94.178 51.7794C94.5641 52.0288 94.9502 52.2783 95.3402 52.2845C96.9078 51.8232 96.9077 51.8232 98.0698 52.3282C98.8459 52.5839 100.016 52.6026 100.398 53.0951C100.784 53.3445 101.962 52.877 101.576 52.6276C101.193 52.135 101.595 51.4118 101.989 51.1749C102.379 51.1811 103.159 51.1936 103.549 51.1999C103.545 51.443 103.545 51.4431 103.541 51.6862C103.143 52.1663 102.745 52.6463 103.908 53.1513C104.297 53.1575 104.301 52.9145 105.081 52.9269C105.464 53.4195 105.846 53.912 106.224 54.6477C107.394 54.6665 107.792 54.1864 108.185 53.9495C108.575 53.9558 109.355 53.9682 109.745 53.9745C110.135 53.9807 110.131 54.2239 110.131 54.2239C110.9 54.9658 112.455 55.234 114.015 55.2589C114.795 55.2714 115.197 54.5482 114.811 54.2988C113.653 53.5506 113.672 52.3348 113.298 51.3559C112.915 50.8634 110.966 50.8321 110.985 49.6164C112.545 49.6413 113.711 49.9032 114.475 50.8883C116.039 50.6701 114.893 49.1925 116.452 49.2175C116.831 49.9532 116.819 50.6827 116.031 51.1565C115.637 51.3934 115.63 51.8797 116.41 51.8922C116.803 51.6553 117.197 51.4184 117.981 51.1877C118.375 50.9508 118.765 50.9571 118.769 50.7139C118.788 49.4981 120.75 48.7998 121.159 47.5903C121.163 47.3472 121.947 47.1165 122.333 47.3659C122.715 47.8584 123.101 48.1079 124.267 48.3698C124.657 48.376 125.433 48.6316 125.819 48.881C127.008 47.684 128.202 46.2438 128.225 44.7849C128.229 44.5417 128.233 44.2985 127.847 44.0491C127.079 43.3072 126.314 42.3221 125.936 41.5864C125.94 41.3432 125.554 41.0938 125.168 40.8444C124.009 40.0962 124.021 39.3668 125.203 38.656C125.597 38.4191 126.384 37.9453 127.172 37.4715C127.562 37.4777 128.342 37.4902 129.118 37.7458C129.512 37.5089 129.516 37.2658 129.909 37.0288C126.817 35.2768 123.335 33.5185 120.246 31.5233C121.034 31.0495 121.822 30.5757 122.609 30.1019C121.837 29.6031 121.069 28.8611 120.683 28.6117C120.687 28.3686 120.687 28.3686 120.691 28.1254C121.478 27.6516 121.872 27.4147 122.66 26.9408C123.448 26.467 122.675 25.9682 123.463 25.4944C123.857 25.2574 123.479 24.5218 123.876 24.0417C124.66 23.8111 125.436 24.0667 126.606 24.0854C127.386 24.0979 128.162 24.3535 128.942 24.366C130.502 24.391 131.668 24.6529 132.826 25.4011C135.934 26.1805 137.86 27.6707 140.181 28.9239C140.567 29.1733 140.953 29.4227 141.737 29.1921C143.296 29.217 144.462 29.4789 145.621 30.2271C145.621 30.2271 146.011 30.2333 146.007 30.4765C147.169 30.9815 148.343 30.7571 148.744 30.0339C148.748 29.7907 149.142 29.5538 149.146 29.3107C149.536 29.3169 149.532 29.56 149.922 29.5662C151.096 29.3418 152.265 29.3605 153.042 29.6162C154.219 29.1486 155.401 28.4379 156.578 27.9703C156.59 27.2409 156.602 26.5114 157.397 25.5513C157.787 25.5575 158.177 25.5638 158.563 25.8132C158.949 26.0626 159.721 26.5614 160.108 26.8108C160.88 27.3095 161.656 27.5652 162.435 27.5777C162.829 27.3408 163.223 27.1038 163.621 26.6238C164.397 26.8794 164.783 27.1289 165.173 27.1351C165.953 27.1476 167.138 26.1937 167.146 25.7074C167.15 25.4642 167.154 25.221 166.764 25.2148C165.602 24.7097 165.618 23.7371 166.019 23.0139C166.417 22.5338 166.429 21.8044 166.826 21.3243C166.44 21.0749 166.058 20.5824 165.672 20.333C166.074 19.6098 166.857 19.3791 167.251 19.1422C168.031 19.1547 168.023 19.641 168.409 19.8904C169.568 20.6386 170.73 21.1436 170.71 22.3594C170.706 22.6026 171.092 22.8519 171.479 23.1013C172.251 23.6001 172.633 24.0927 173.405 24.5915C173.791 24.8409 174.567 25.0965 174.953 25.3459C176.123 25.3646 175.753 24.1427 176.911 24.8909C176.915 24.6477 177.305 24.6539 177.308 24.4107C177.32 23.6813 176.942 22.9456 176.17 22.4468C175.019 21.2123 173.865 20.221 173.498 18.7558C173.132 17.2906 171.981 16.056 170.441 14.8152C170.059 14.3227 169.677 13.8302 169.295 13.3376C168.916 12.6019 168.924 12.1156 168.546 11.3799C168.164 10.8874 168.168 10.6442 168.175 10.1579C168.565 10.1642 168.951 10.4136 168.955 10.1704C170.137 9.45967 172.09 9.24769 172.89 8.04439C172.901 7.31493 172.913 6.58541 171.747 6.32355C170.581 6.06165 169.801 6.04929 168.226 6.99694C167.844 6.50437 167.458 6.25499 168.245 5.78115C168.639 5.54423 169.033 5.30722 169.037 5.06405C169.431 4.82713 169.825 4.59025 170.219 4.35333C170.998 4.36581 171.778 4.3783 172.558 4.39079C173.338 4.40327 174.118 4.41573 174.906 3.94192C175.3 3.705 175.69 3.71137 176.083 3.47448C177.651 3.01312 179.215 2.79481 181.165 2.82603C183.89 3.1129 186.616 3.39983 188.948 3.92358C191.67 4.45362 194.006 4.73421 196.728 5.26424C197.894 5.52613 199.06 5.78797 200.226 6.04986C202.554 6.81678 204.886 7.34054 207.214 8.10746C209.546 8.63125 211.87 9.64142 213.812 10.159C216.916 11.1815 219.232 12.6779 221.943 13.9374C223.881 14.6981 225.819 15.4587 227.757 16.2194C230.085 16.9863 232.015 18.2333 233.946 19.4803C235.876 20.7273 237.814 21.488 240.142 22.2549C240.532 22.2612 240.528 22.5043 240.918 22.5106C243.254 22.7912 243.254 22.7912 244.802 23.5457C245.192 23.5519 245.586 23.315 245.586 23.315C246.37 23.0843 247.15 23.0968 247.922 23.5956C248.694 24.0944 249.856 24.5994 251.022 24.8613C251.798 25.117 252.188 25.1232 252.972 24.8926C253.756 24.6619 254.532 24.9175 254.918 25.1669C255.69 25.6657 256.466 25.9213 257.238 26.4201C258.782 27.4177 260.323 28.6585 261.083 29.8868C261.079 30.1299 261.469 30.1361 261.465 30.3793C261.84 31.3582 262.998 32.1063 263.766 32.8483C264.924 33.5965 265.689 34.5816 266.847 35.3298C268.387 36.5705 269.538 37.8051 271.476 38.5658C272.236 39.7941 273.788 40.3053 274.943 41.2966C276.097 42.288 277.255 43.0362 278.413 43.7844C280.344 45.0314 282.274 46.2784 284.204 47.5254C285.748 48.523 287.289 49.7638 289.223 50.7676C289.999 51.0233 289.987 51.7527 291.153 52.0146C291.929 52.2702 292.701 52.769 293.474 53.2678C294.246 53.7666 295.022 54.0223 295.794 54.5211C296.18 54.7705 296.566 55.0199 296.952 55.2692C298.492 56.51 300.431 57.2707 301.975 58.2683C306.237 60.0391 308.924 62.7574 312.009 64.9958C313.935 66.4859 315.861 67.9761 317.788 69.4663C318.954 69.7282 318.938 70.7007 320.1 71.2058C321.266 71.4677 321.641 72.4466 322.413 72.9454C323.185 73.4442 323.953 74.1861 324.725 74.6849C325.498 75.1837 326.27 75.6825 327.046 75.9382C328.984 76.6989 330.528 77.6964 331.682 78.6878C333.609 80.1779 335.539 81.4249 337.075 82.9088C338.635 82.9338 339.801 83.1957 340.57 83.9376C342.496 85.4278 344.812 86.9242 346.739 88.4144C346.735 88.6575 347.125 88.6637 347.121 88.9069C349.047 90.397 350.97 92.1303 352.896 93.6205C354.437 94.8612 355.977 96.102 357.128 97.3365C357.12 97.8228 357.9 97.8353 358.286 98.0847C357.892 98.3216 357.892 98.3216 358.278 98.571C358.668 98.5773 358.668 98.5773 359.058 98.5835C361.37 100.323 363.293 102.056 365.602 104.039C368.296 106.271 371.385 108.266 373.685 110.735C374.068 111.228 375.23 111.733 376.002 112.232C376.774 112.731 377.16 112.98 377.542 113.473C378.314 113.971 378.693 114.707 379.461 115.449C381.387 116.939 382.92 118.666 384.842 120.4C386.379 121.883 388.305 123.374 389.842 124.857C390.996 125.849 392.15 126.84 392.911 128.069C393.293 128.561 393.671 129.297 394.053 129.789C394.44 130.039 394.432 130.525 394.822 130.531C395.988 130.793 395.98 131.279 396.362 131.772C397.126 132.757 397.126 132.757 395.169 133.212C394.393 132.957 394.011 132.464 393.235 132.208C392.073 131.703 391.694 130.968 391.71 129.995C391.714 129.752 391.721 129.266 391.335 129.016C389.791 128.019 388.641 126.784 387.096 125.786C387.096 125.786 387.097 125.786 386.711 125.537C385.931 125.525 385.541 125.518 384.757 125.749C384.753 125.992 384.753 125.992 384.749 126.235C386.278 128.205 387.81 129.933 389.339 131.903C390.489 133.137 390.86 134.359 392.01 135.594C392.775 136.579 393.539 137.564 394.303 138.549C394.685 139.042 394.682 139.285 395.064 139.777C394.674 139.771 394.674 139.771 394.284 139.765C393.894 139.759 393.504 139.752 393.5 139.996C393.106 140.232 393.102 140.476 393.098 140.719C393.094 140.962 393.481 141.211 393.477 141.455C394.237 142.683 395.001 143.668 394.198 145.114C394.588 145.121 395.364 145.376 395.754 145.382C396.897 147.103 398.039 148.824 399.568 150.794C399.954 151.044 399.946 151.53 399.939 152.016C399.931 152.503 399.537 152.74 399.529 153.226C399.525 153.469 399.907 153.962 399.9 154.448C399.514 154.198 399.124 154.192 398.734 154.186C397.958 153.93 397.571 153.681 396.788 153.912C396.394 154.149 395.614 154.136 395.228 153.887C394.07 153.138 393.286 153.369 392.112 153.594C391.722 153.587 391.332 153.581 390.938 153.818C390.151 154.292 390.139 155.021 389.737 155.745C389.733 155.988 389.73 156.231 390.116 156.48C390.494 157.216 390.876 157.708 391.648 158.207C392.034 158.457 392.026 158.943 392.023 159.186C392.015 159.672 392.015 159.672 390.447 160.134C389.289 159.386 388.127 158.881 386.559 159.342C384.992 159.803 383.424 160.265 383.791 161.73C383.022 160.988 382.636 160.738 381.86 160.483C380.698 159.978 379.524 160.202 379.513 160.932C379.501 161.661 379.486 162.634 380.254 163.376C380.632 164.111 381.404 164.61 382.172 165.352C382.169 165.595 382.165 165.838 381.767 166.318C381.377 166.312 381.373 166.555 381.373 166.555C379.817 166.287 378.647 166.268 377.091 166C376.686 166.967 375.508 167.434 373.944 167.653C373.554 167.646 372.774 167.634 372.778 167.391C372.006 166.892 370.836 166.873 369.666 166.854C369.273 167.091 368.879 167.328 368.485 167.565C369.23 169.766 370.369 171.73 371.897 173.7C372.279 174.193 373.048 174.935 373.43 175.427C373.036 175.664 372.646 175.658 372.65 175.415C372.268 174.922 371.882 174.673 371.499 174.18C370.731 173.438 369.959 172.939 368.789 172.921C368.395 173.158 367.612 173.388 367.218 173.625C366.828 173.619 366.048 173.607 365.662 173.357C364.89 172.858 364.11 172.846 363.326 173.077C362.936 173.07 362.546 173.064 362.156 173.058C361.774 172.565 361.002 172.066 360.616 171.817C360.234 171.324 359.458 171.069 358.678 171.056C357.898 171.044 357.504 171.281 356.716 171.755C357.094 172.49 357.473 173.226 358.639 173.488C359.805 173.75 360.573 174.492 360.561 175.221C360.546 176.194 361.708 176.699 362.874 176.961C363.256 177.453 363.252 177.696 363.634 178.189C363.626 178.675 364.012 178.925 364.785 179.424C365.557 179.922 365.939 180.415 366.317 181.151C367.85 182.878 368.992 184.598 370.525 186.326C370.907 186.818 371.683 187.074 372.065 187.566C372.448 188.059 373.223 188.314 372.822 189.038C372.818 189.281 373.204 189.53 373.204 189.53C375.142 190.291 375.899 191.762 377.053 192.754C378.976 194.487 380.508 196.214 382.041 197.941C382.423 198.434 383.195 198.933 383.967 199.431C384.353 199.681 385.125 200.18 385.511 200.429C385.897 200.678 385.894 200.921 386.673 200.934C387.063 200.94 387.45 201.19 387.446 201.433C387.824 202.168 388.198 203.147 388.573 204.126C388.947 205.105 389.325 205.841 390.093 206.583C390.476 207.075 391.248 207.574 391.236 208.304C390.846 208.297 390.456 208.291 389.68 208.035C388.877 209.482 388.078 210.685 389.614 212.169C389.22 212.406 388.822 212.886 388.429 213.123C388.421 213.609 388.803 214.102 389.189 214.351C389.575 214.601 389.567 215.087 389.174 215.324C388.776 215.804 388.772 216.047 389.154 216.54C389.532 217.275 389.914 217.768 389.513 218.491C388.725 218.965 387.945 218.952 387.169 218.697C385.613 218.429 384.443 218.41 382.876 218.871C382.092 219.102 381.312 219.089 380.146 218.828C378.204 218.31 377.81 218.547 376.625 219.501C376.231 219.738 375.833 220.218 376.219 220.467C376.211 220.953 376.594 221.446 376.98 221.695C376.976 221.939 377.362 222.188 377.748 222.437C378.894 223.915 378.111 224.146 376.933 224.613C376.539 224.85 376.539 224.85 376.145 225.087C375.342 226.534 375.323 227.749 376.863 228.99C377.249 229.24 377.245 229.483 377.241 229.726C377.226 230.698 377.604 231.434 377.978 232.413C378.739 233.641 378.723 234.614 377.148 235.562C376.75 236.042 376.356 236.279 376.344 237.008C376.337 237.494 375.553 237.725 374.777 237.469C373.611 237.207 372.449 236.702 371.677 236.204C370.901 235.948 370.121 235.935 369.337 236.166C368.553 236.397 367.773 236.384 366.993 236.372C365.43 236.59 364.642 237.064 364.626 238.037C364.611 239.009 364.989 239.745 364.973 240.717C364.966 241.204 364.962 241.447 364.954 241.933C364.552 242.656 364.537 243.629 364.525 244.359C364.521 244.602 364.513 245.088 364.116 245.568C362.93 246.522 362.525 247.488 360.953 248.193C360.165 248.667 359.378 249.14 359.366 249.87C359.362 250.113 358.968 250.35 358.574 250.587C356.617 251.042 355.061 250.774 353.903 250.026C353.127 249.77 352.351 249.514 351.575 249.259C350.799 249.003 350.027 248.504 349.644 248.012C348.872 247.513 348.096 247.257 346.54 246.989C346.517 248.448 345.714 249.895 347.644 251.142C347.636 251.628 347.242 251.865 347.238 252.108C346.459 252.095 346.069 252.089 345.679 252.083C344.509 252.064 343.343 251.802 342.169 252.027C340.995 252.251 340.219 251.996 339.053 251.734C335.953 250.468 333.247 248.965 330.147 247.7C329.371 247.444 328.992 246.708 328.216 246.453C327.444 245.954 326.664 245.941 326.263 246.665C325.869 246.901 325.861 247.388 325.857 247.631C327.393 249.115 330.505 249.651 331.648 251.372C330.864 251.603 330.076 252.076 329.293 252.307C329.679 252.557 329.675 252.8 330.061 253.049C331.605 254.047 333.153 254.801 334.308 255.792C335.08 256.291 335.856 256.547 337.029 256.322C337.809 256.335 338.199 256.341 338.979 256.354C339.369 256.36 339.759 256.366 340.153 256.129C340.937 255.899 341.323 256.148 342.099 256.404C342.485 256.653 342.477 257.139 342.083 257.376C341.686 257.856 340.898 258.33 340.11 258.804C338.554 258.536 337.377 259.003 335.825 258.492C335.435 258.486 334.655 258.473 334.261 258.71C333.079 259.421 331.523 259.153 330.357 258.891C330.357 258.891 330.357 258.891 329.967 258.885C329.176 259.602 328.01 259.34 326.832 259.807C326.828 260.051 326.434 260.288 326.43 260.531C325.627 261.977 325.627 261.977 327.168 263.218C326.384 263.449 325.998 263.199 325.612 262.95C324.454 262.202 323.681 261.703 322.523 260.955C320.593 259.708 318.663 258.461 316.736 256.97C314.42 255.474 312.493 253.984 310.173 252.731C309.787 252.481 309.397 252.475 309.397 252.475C309.007 252.469 309.003 252.712 308.999 252.955C308.991 253.441 308.984 253.928 309.366 254.42C309.362 254.663 309.354 255.15 309.74 255.399C309.346 255.636 309.346 255.636 308.956 255.63C308.563 255.867 308.169 256.104 307.775 256.34C307.377 256.821 307.759 257.313 308.145 257.563C308.917 258.061 309.694 258.317 310.466 258.816C311.242 259.071 311.624 259.564 312.4 259.82C313.558 260.568 314.326 261.31 315.484 262.058C316.643 262.806 318.199 263.074 319.361 263.579C320.137 263.835 320.913 264.091 320.901 264.82C320.499 265.543 319.716 265.774 318.936 265.761C318.156 265.749 317.77 265.5 317.388 265.007C316.615 264.508 315.843 264.009 315.071 263.511C313.913 262.762 312.361 262.251 311.987 261.272C311.6 261.023 311.214 260.774 310.828 260.524C310.442 260.275 310.056 260.025 309.67 259.776C309.296 258.797 308.13 258.535 306.968 258.03C306.196 257.531 305.026 257.513 304.238 257.986C303.454 258.217 302.666 258.691 301.879 259.165C301.091 259.639 301.083 260.125 301.072 260.854C299.894 261.322 298.724 261.303 297.558 261.041C296.392 260.779 294.84 260.268 294.466 259.289C294.084 258.797 293.697 258.547 293.315 258.055C292.161 257.063 291.393 256.321 291.412 255.106C291.416 254.862 291.03 254.613 291.034 254.37C289.501 252.643 287.969 250.916 286.436 249.189C285.672 248.204 284.514 247.455 283.749 246.47C281.835 244.251 279.526 242.268 277.217 240.285C276.063 239.294 274.909 238.303 272.971 237.542C272.585 237.293 272.195 237.286 271.415 237.274C271.005 238.483 270.986 239.699 272.53 240.697C273.298 241.439 274.46 241.944 274.055 242.91C273.669 242.661 272.897 242.162 272.511 241.912C271.742 241.17 270.584 240.422 269.816 239.68C268.276 238.44 266.341 237.436 264.801 236.195C263.647 235.204 262.099 234.449 260.55 233.695C259.388 233.19 258.226 232.685 257.458 231.943C256.686 231.444 256.686 231.444 255.13 231.176C254.736 231.413 254.732 231.656 255.114 232.148C256.647 233.875 258.569 235.609 260.886 237.105C262.044 237.853 262.812 238.595 263.974 239.1C264.36 239.35 264.747 239.599 264.743 239.842C265.507 240.827 266.665 241.576 267.82 242.567C269.36 243.808 270.904 244.805 271.661 246.277C271.267 246.514 270.881 246.264 270.881 246.264C269.336 245.267 267.792 244.269 266.248 243.271C265.862 243.022 265.476 242.773 265.094 242.28C263.943 241.046 262.399 240.048 260.067 239.524C259.677 239.518 258.905 239.019 258.519 238.77C258.129 238.764 257.739 238.757 257.353 238.508C256.569 238.739 256.951 239.231 257.337 239.481C258.106 240.223 259.264 240.971 260.036 241.47C261.198 241.975 261.966 242.717 262.344 243.452C262.727 243.945 263.499 244.444 263.881 244.936C264.267 245.186 264.263 245.429 264.255 245.915C263.089 245.653 262.321 244.911 261.545 244.656C260.773 244.157 260.001 243.658 258.831 243.639C258.437 243.876 258.433 244.119 258.819 244.369C259.201 244.861 259.588 245.111 259.974 245.36C260.742 246.102 261.9 246.85 262.664 247.835C263.046 248.328 263.433 248.577 264.205 249.076C265.359 250.067 266.517 250.816 267.675 251.564C269.598 253.297 271.918 254.55 273.841 256.284C274.227 256.533 274.999 257.032 274.991 257.518C274.987 257.761 274.983 258.004 274.593 257.998C274.2 258.235 273.81 258.229 273.42 258.223C273.03 258.216 272.644 257.967 272.258 257.718C270.331 256.227 267.617 255.211 265.691 253.721C264.919 253.222 264.146 252.723 262.98 252.461C262.204 252.206 261.432 251.707 261.046 251.458C260.274 250.959 259.116 250.211 258.348 249.469C257.579 248.727 256.413 248.465 254.854 248.44C254.46 248.677 254.062 249.157 253.668 249.394C253.664 249.637 253.664 249.637 254.05 249.886C257.135 252.125 259.83 254.357 262.914 256.595C263.3 256.844 263.296 257.088 263.682 257.337C264.451 258.079 264.447 258.322 262.875 259.027C260.555 257.773 258.239 256.277 254.737 255.735C254.733 255.978 254.729 256.221 254.729 256.221C255.485 257.692 257.03 258.69 258.18 259.924C258.948 260.666 259.72 261.165 260.099 261.901C258.929 261.882 258.165 260.897 257.389 260.641C255.454 259.638 253.914 258.397 251.586 257.63C250.81 257.374 250.038 256.875 249.652 256.626C248.494 255.878 247.335 255.13 245.382 255.342C244.602 255.329 243.822 255.317 243.046 255.061C241.474 255.765 241.459 256.738 242.223 257.723C242.987 258.708 243.362 259.687 243.346 260.66C243.338 261.146 243.721 261.639 244.103 262.131C244.871 262.873 244.855 263.846 243.674 264.556C243.276 265.037 242.488 265.51 242.095 265.747C241.307 266.221 240.909 266.701 240.121 267.175C240.504 267.668 240.5 267.911 240.886 268.16C241.658 268.659 241.646 269.388 241.245 270.112C240.469 269.856 239.689 269.843 238.913 269.588C237.735 270.055 236.557 270.523 234.997 270.498C234.218 270.485 233.824 270.722 233.04 270.953C231.866 271.178 230.696 271.159 229.924 270.66C229.538 270.411 228.372 270.149 227.986 269.899C227.21 269.644 226.032 270.111 226.025 270.598C226.017 271.084 226.399 271.576 226.785 271.826C227.163 272.562 227.935 273.06 228.314 273.796C229.082 274.538 229.46 275.274 229.449 276.003C229.437 276.733 229.425 277.462 228.251 277.686C227.468 277.917 227.846 278.653 227.058 279.127C225.892 278.865 224.726 278.603 223.954 278.104C222.796 277.356 221.634 276.851 220.07 277.069C219.672 277.549 218.885 278.023 218.487 278.503C218.081 279.469 220.023 279.987 220.394 281.209C219.622 280.71 218.846 280.455 218.07 280.199L217.68 280.193C215.726 280.405 215.332 280.642 215.313 281.857C215.309 282.1 215.305 282.344 215.301 282.587C215.297 282.83 215.289 283.316 215.675 283.566C215.278 284.046 214.498 284.033 213.718 284.021C212.938 284.008 212.162 283.753 211.768 283.989C210.594 284.214 210.204 284.208 209.432 283.709C209.046 283.459 208.656 283.453 208.266 283.447C207.1 283.185 206.324 282.929 205.556 282.187C204.792 281.202 203.244 280.448 202.475 279.706C202.475 279.706 202.475 279.706 202.471 279.949C201.703 279.207 201.325 278.471 200.167 277.723C199.009 276.975 198.24 276.233 197.472 275.491C196.7 274.992 196.318 274.5 194.762 274.232C193.596 273.97 193.218 273.234 192.835 272.742C192.449 272.492 192.457 272.006 192.071 271.756C191.689 271.264 190.917 270.765 190.925 270.279C190.928 270.036 190.928 270.036 190.542 269.786C189.392 268.552 188.245 267.074 186.705 265.833C186.319 265.584 185.937 265.091 185.941 264.848C185.945 264.605 185.945 264.605 185.559 264.356C182.86 262.367 181.339 259.91 178.64 257.921C178.254 257.672 177.868 257.422 177.482 257.173C177.104 256.437 176.332 255.939 175.166 255.677C174.004 255.172 173.232 254.673 172.857 253.694C172.479 252.958 172.097 252.466 171.325 251.967C170.167 251.219 169.012 250.227 167.858 249.236C167.086 248.737 166.314 248.238 165.148 247.976C164.754 248.213 164.75 248.457 165.136 248.706C165.9 249.691 166.665 250.676 167.819 251.668C168.587 252.409 169.352 253.395 170.12 254.137C170.506 254.386 170.884 255.122 170.876 255.608C170.865 256.337 171.247 256.83 171.629 257.322C172.011 257.815 172.397 258.064 172.779 258.557C172.776 258.8 173.162 259.05 172.768 259.287C172.37 259.767 172.752 260.259 173.532 260.272C175.088 260.54 175.462 261.519 176.231 262.261C175.431 263.464 177.369 264.225 177.354 265.197C177.35 265.44 177.74 265.447 177.736 265.69C180.435 267.679 182.349 269.898 184.658 271.881C185.044 272.13 185.04 272.374 185.036 272.617C185.005 274.562 186.932 276.052 188.862 277.299C189.248 277.548 189.248 277.548 189.634 277.798C190.008 278.777 190.777 279.519 191.545 280.261C192.695 281.495 193.85 282.487 195 283.721C195.768 284.463 196.536 285.205 197.698 285.71C198.088 285.716 198.085 285.959 198.467 286.452C198.073 286.689 197.683 286.683 197.289 286.919C196.111 287.387 195.324 287.861 195.312 288.59C195.3 289.32 194.52 289.307 193.744 289.052C190.648 287.543 190.262 287.293 187.957 285.068C186.417 283.827 185.266 282.592 183.73 281.108C182.962 280.366 182.194 279.625 181.425 278.883C181.039 278.633 181.043 278.39 181.047 278.147C181.051 277.904 180.669 277.411 180.283 277.162C178.735 276.407 178.364 275.185 177.6 274.2C177.218 273.708 176.832 273.458 176.449 272.966C175.291 272.217 174.527 271.232 173.763 270.247C173.38 269.755 172.612 269.013 172.23 268.52C172.234 268.277 171.844 268.271 171.458 268.021C171.095 266.313 168.775 265.06 167.628 263.582C167.25 262.846 166.092 262.098 165.32 261.599C163.779 260.359 162.239 259.118 161.092 257.64C159.56 255.913 157.637 254.18 156.105 252.453C155.719 252.203 155.336 251.711 154.95 251.461C153.024 249.971 151.484 248.731 149.951 247.004C149.183 246.262 148.021 245.757 146.465 245.488C146.075 245.482 145.685 245.476 145.291 245.713C144.897 245.95 144.503 246.187 144.109 246.424C146.789 249.628 149.858 252.839 152.537 256.044C152.919 256.537 153.305 256.786 153.687 257.278C154.841 258.27 155.992 259.504 157.142 260.739C158.293 261.973 159.447 262.965 160.597 264.199C160.983 264.449 161.366 264.941 161.362 265.184C163.273 267.647 165.187 269.867 167.492 272.093C168.646 273.084 169.411 274.069 170.175 275.054C171.325 276.289 172.48 277.28 173.63 278.515C174.781 279.749 175.935 280.74 177.475 281.981C178.243 282.723 179.012 283.465 179.784 283.964C177.818 284.905 177.814 285.148 177.795 286.364C177.787 286.851 177.783 287.094 178.166 287.586C179.71 288.584 180.076 290.049 181.231 291.04C182.003 291.539 182.771 292.281 183.937 292.543C184.713 292.799 185.485 293.297 186.261 293.553C185.072 294.75 183.898 294.974 182.35 294.22C181.964 293.971 181.578 293.721 181.192 293.472C180.416 293.216 180.42 292.973 180.037 292.481C179.659 291.745 179.277 291.252 178.501 290.997C177.729 290.498 176.953 290.242 176.965 289.513C176.972 289.026 175.806 288.765 175.42 288.515C174.644 288.259 174.262 287.767 174.27 287.281C174.274 287.037 173.888 286.788 173.888 286.788C172.726 286.283 172.347 285.547 171.579 284.805C170.819 283.577 169.274 282.579 168.12 281.588C167.348 281.089 166.186 280.584 165.024 280.079C164.638 279.83 164.248 279.824 163.862 279.574C162.707 278.583 162.337 277.361 161.966 276.139C161.974 275.653 161.982 275.166 161.596 274.917C161.218 274.181 160.843 273.202 159.685 272.454C158.531 271.463 157.38 270.228 156.62 269C155.852 268.258 155.473 267.522 154.705 266.78C153.937 266.038 153.559 265.303 152.79 264.561C152.022 263.819 151.254 263.077 150.092 262.572C149.706 262.322 148.926 262.31 148.536 262.304C148.123 263.756 149.277 264.748 150.041 265.733C150.427 265.982 150.809 266.475 150.806 266.718C151.192 266.967 151.188 267.21 151.184 267.454C150.404 267.441 149.624 267.429 149.234 267.422C148.466 266.68 147.698 265.938 146.929 265.197C146.157 264.698 146.563 263.731 145.401 263.226C145.026 262.247 143.474 261.736 142.71 260.751C141.946 259.766 141.571 258.787 140.803 258.045C140.035 257.303 139.267 256.561 138.498 255.819C138.112 255.57 137.726 255.32 137.73 255.077C137.356 254.098 136.194 253.593 134.638 253.325C134.244 253.562 133.854 253.556 133.07 253.787C131.904 253.525 131.522 253.032 130.75 252.533C130.364 252.284 129.978 252.034 129.981 251.791C129.599 251.299 128.819 251.286 128.036 251.517C127.228 253.207 127.228 253.207 129.943 254.223C131.14 252.54 131.132 253.026 131.514 253.518Z" fill="#F9B605"/>
<path fill-rule="evenodd" clip-rule="evenodd" d="M176 29.8882C127.988 44.2786 93 88.8033 93 141.5C93 142.351 93.0091 143.2 93.0273 144.047L97.0029 142.317C97.001 142.045 97 141.772 97 141.5C97 91.0344 130.228 48.3299 176 34.0719V29.8882ZM125.432 216.261L121.58 217.937C142.938 242.484 174.407 258 209.5 258C235.355 258 259.243 249.577 278.569 235.327L274.924 233.031C256.49 246.23 233.902 254 209.5 254C176.066 254 146.038 239.415 125.432 216.261ZM326 141.5C326 150.848 324.899 159.94 322.819 168.651L319.236 166.395C321.045 158.386 322 150.055 322 141.5C322 93.2672 291.647 52.124 249 36.1297V31.8668C293.9 48.0465 326 91.0244 326 141.5Z" fill="black"/>
<path fill-rule="evenodd" clip-rule="evenodd" d="M94.0757 73.361C75.83 103.879 70.3179 141.001 79.7177 176H84.4458C74.8479 141.589 80.2466 104.944 98.4121 74.9995L94.0757 73.361ZM222.057 14.1505C256.653 17.9892 289.334 35.8183 311.141 65.4013L313.992 61.5967C291.462 31.6789 258.092 13.621 222.776 9.64307L222.057 14.1505ZM169.733 263.994L166.952 267.894C202.227 279.345 242.081 276.041 276.372 255.448C301.635 240.276 320.035 218.029 330.557 192.763L325.648 192.659C315.381 216.374 297.869 237.22 274.024 251.54C241.355 271.159 203.455 274.528 169.733 263.994Z" fill="black"/>
</g>
<defs>
<clipPath id="clip0">
<rect width="402.271" height="298.077" fill="white"/>
</clipPath>
</defs>
</svg>
