<svg width="12" height="8" viewBox="0 0 12 8" fill="none" xmlns="http://www.w3.org/2000/svg">
<path fill-rule="evenodd" clip-rule="evenodd" d="M10.1712 5.49318C10.1712 5.49318 11.0835 6.51532 11.3091 6.9883C11.3135 6.99513 11.3169 7.00268 11.3193 7.0107C11.4112 7.18543 11.4338 7.3224 11.3886 7.42353C11.3125 7.59058 11.0547 7.67442 10.9672 7.68146H9.35493C9.24267 7.68146 9.00912 7.64818 8.72479 7.42545C8.5076 7.25328 8.29154 6.96974 8.08224 6.69261C7.76971 6.28106 7.49949 5.92392 7.22588 5.92392C7.19132 5.92384 7.157 5.93033 7.12434 5.94312C6.9173 6.01737 6.65441 6.35211 6.65441 7.24368C6.65441 7.52273 6.46035 7.68146 6.32439 7.68146H5.58593C5.33433 7.68146 4.0244 7.58162 2.86284 6.1921C1.43952 4.49088 0.161189 1.0782 0.148778 1.04812C0.0692343 0.827308 0.236219 0.706981 0.416743 0.706981H2.04484C2.26316 0.706981 2.33425 0.85675 2.38389 0.991157C2.44143 1.14541 2.65468 1.7624 3.00444 2.45556C3.57083 3.58331 3.91891 4.04221 4.19703 4.04221C4.24928 4.04239 4.30065 4.02693 4.34596 3.99741C4.70926 3.77084 4.64157 2.29875 4.62464 1.99538C4.62464 1.93649 4.62408 1.33806 4.43791 1.04876C4.30478 0.841389 4.07799 0.760744 3.94091 0.731302C3.97758 0.671139 4.05543 0.578974 4.15528 0.52457C4.40407 0.383762 4.85368 0.363281 5.29992 0.363281H5.54757C6.0316 0.370962 6.15684 0.406164 6.33285 0.456727C6.68713 0.552732 6.6939 0.813227 6.66287 1.70032C6.65385 1.95377 6.64425 2.23923 6.64425 2.57525C6.64425 2.64693 6.64143 2.72694 6.64143 2.80822C6.63072 3.26329 6.61661 3.77596 6.89981 3.98653C6.93654 4.01249 6.97895 4.02624 7.02223 4.02621C7.12039 4.02621 7.4143 4.02621 8.21143 2.47412C8.56119 1.78864 8.83198 0.980277 8.8506 0.919473C8.86639 0.885551 8.91378 0.790186 8.97132 0.751784C9.01225 0.727075 9.0581 0.714732 9.10446 0.715942H11.0197C11.2284 0.715942 11.37 0.751784 11.3977 0.841389C11.4439 0.986677 11.3886 1.43022 10.5142 2.77174C10.367 2.99511 10.2378 3.1884 10.1244 3.35737C9.33181 4.5376 9.33181 4.59713 10.1712 5.49318Z" fill="#F9B605"/>
</svg>
