<svg width="12" height="11" viewBox="0 0 12 11" fill="none" xmlns="http://www.w3.org/2000/svg">
<path d="M6.25576 2.81932C4.73114 2.81932 3.50138 4.01606 3.50138 5.49973C3.50138 6.98341 4.73114 8.18015 6.25576 8.18015C7.78039 8.18015 9.01015 6.98341 9.01015 5.49973C9.01015 4.01606 7.78039 2.81932 6.25576 2.81932ZM6.25576 7.24235C5.27051 7.24235 4.46505 6.46086 4.46505 5.49973C4.46505 4.53861 5.26812 3.75712 6.25576 3.75712C7.24341 3.75712 8.04647 4.53861 8.04647 5.49973C8.04647 6.46086 7.24101 7.24235 6.25576 7.24235ZM9.76527 2.70968C9.76527 3.05727 9.47761 3.33488 9.12282 3.33488C8.76564 3.33488 8.48037 3.05494 8.48037 2.70968C8.48037 2.36442 8.76803 2.08448 9.12282 2.08448C9.47761 2.08448 9.76527 2.36442 9.76527 2.70968ZM11.5895 3.34421C11.5488 2.50672 11.3522 1.76488 10.7218 1.15368C10.0937 0.542485 9.33138 0.351194 8.47078 0.309203C7.58382 0.260214 4.92532 0.260214 4.03835 0.309203C3.18015 0.348861 2.41784 0.540152 1.78738 1.15135C1.15691 1.76255 0.962742 2.50439 0.919592 3.34187C0.869251 4.20502 0.869251 6.79212 0.919592 7.65526C0.960344 8.49275 1.15691 9.23458 1.78738 9.84579C2.41784 10.457 3.17776 10.6483 4.03835 10.6903C4.92532 10.7393 7.58382 10.7393 8.47078 10.6903C9.33138 10.6506 10.0937 10.4593 10.7218 9.84579C11.3498 9.23458 11.5464 8.49275 11.5895 7.65526C11.6399 6.79212 11.6399 4.20735 11.5895 3.34421ZM10.4437 8.58139C10.2567 9.03863 9.89472 9.39088 9.42247 9.57518C8.71529 9.84812 7.03725 9.78513 6.25576 9.78513C5.47428 9.78513 3.79384 9.84578 3.08906 9.57518C2.61921 9.39322 2.25723 9.04096 2.06785 8.58139C1.78738 7.89321 1.8521 6.26024 1.8521 5.49973C1.8521 4.73923 1.78978 3.10393 2.06785 2.41808C2.25483 1.96084 2.61681 1.60859 3.08906 1.42429C3.79623 1.15135 5.47428 1.21434 6.25576 1.21434C7.03725 1.21434 8.71769 1.15368 9.42247 1.42429C9.89232 1.60625 10.2543 1.95851 10.4437 2.41808C10.7241 3.10626 10.6594 4.73923 10.6594 5.49973C10.6594 6.26024 10.7241 7.89554 10.4437 8.58139Z" fill="#F9B605"/>
</svg>
