<svg width="320" height="692" viewBox="0 0 320 692" fill="none" xmlns="http://www.w3.org/2000/svg">
<path d="M-8.39233e-05 26.9998H320V641H-8.39233e-05V26.9998Z" fill="#F9B605"/>
<path d="M351.552 250.169L351.862 250.453C351.862 250.453 351.863 250.453 352.173 250.737C351.863 250.453 351.862 250.453 351.552 250.169ZM-4.06737 253.771C-3.47357 253.745 -3.47354 253.745 -3.47354 253.745L-3.78365 253.461C-4.09374 253.177 -4.37746 253.487 -4.06737 253.771ZM-42.2817 250.677C-42.2817 250.677 -41.9716 250.961 -41.6879 250.651L-41.4041 250.341L-41.7142 250.057C-42.308 250.083 -42.5918 250.393 -42.2817 250.677ZM333.852 72.7598L334.445 72.734C334.445 72.734 334.445 72.734 334.135 72.45C334.419 72.1402 334.419 72.1401 333.852 72.7598C333.825 72.166 334.135 72.4499 333.852 72.7598ZM178.862 340.391C178.578 340.701 178.578 340.701 178.888 340.985L179.198 341.268L179.482 340.959C179.456 340.365 179.456 340.365 178.862 340.391ZM235.438 348.336C235.49 349.524 236.394 349.782 236.988 349.756C236.988 349.756 237.272 349.446 237.556 349.136C237.556 349.136 237.529 348.543 237.219 348.259C236.625 348.284 236.031 348.31 235.438 348.336ZM248.871 356.08C249.491 356.648 250.111 357.215 251.582 356.854C250.058 356.028 250.058 356.028 248.871 356.08ZM-2.1397 56.1707C-2.16609 55.5769 -2.19247 54.9833 -2.50256 54.6993C-2.81266 54.4154 -3.12273 54.1313 -3.40643 54.4411C-3.69014 54.751 -3.97388 55.0608 -3.97388 55.0608C-3.97388 55.0608 -3.94747 55.6547 -3.63737 55.9386C-3.04358 55.9127 -2.4498 55.8868 -2.1397 56.1707ZM43.0082 155.043C43.9121 155.301 44.2222 155.585 44.816 155.559C44.816 155.559 45.6935 155.223 45.3834 154.94C45.3834 154.94 45.3571 154.346 45.047 154.062C44.4268 153.494 43.8593 154.114 43.0082 155.043ZM228.286 348.053C228.932 349.215 230.12 349.163 231.334 349.705C231.644 349.989 232.548 350.247 232.832 349.937C233.089 349.034 232.211 349.369 231.901 349.085C230.634 347.356 229.447 347.407 228.286 348.053ZM-7.70936 252.145C-7.99306 252.454 -7.65657 253.332 -7.34647 253.616C-6.75268 253.59 -6.15894 253.564 -5.56515 253.538C-4.97135 253.513 -4.71392 252.609 -5.02402 252.325C-5.67059 251.163 -7.14194 251.525 -7.70936 252.145ZM-2.616 259.657C-1.96943 260.818 -0.755348 261.36 0.432251 261.309C0.742348 261.592 0.999626 260.689 1.28333 260.379C1.56704 260.069 1.54063 259.475 0.946831 259.501C-0.267159 258.959 -1.4548 259.011 -2.616 259.657ZM107.613 323.566C108.569 325.012 109.5 325.864 110.997 326.096C112.185 326.044 113.062 325.708 113.914 324.779C113.603 324.495 112.983 323.927 112.389 323.953C111.175 323.411 109.704 323.773 107.613 323.566ZM388.784 197.68C390.592 198.196 391.522 199.048 392.993 198.686C394.181 198.635 395.368 198.583 395.989 199.151C397.539 200.57 399.631 200.777 401.412 200.699C401.412 200.699 401.696 200.389 402.289 200.363C401.979 200.079 401.669 199.796 401.669 199.796C399.862 199.279 398.648 198.737 397.15 198.505C396.246 198.247 395.058 198.299 394.438 197.731C393.224 197.189 392.037 197.241 390.539 197.009C389.945 197.034 389.945 197.034 388.784 197.68ZM419.807 186.214C419.754 185.026 419.701 183.839 419.365 182.961C417.841 182.135 416.679 182.781 415.518 183.426C414.951 184.046 414.383 184.666 414.72 185.543C415.056 186.421 415.393 187.299 416.297 187.557C417.768 187.195 418.929 186.55 419.807 186.214ZM251.14 353.601C251.114 353.007 250.804 352.723 250.777 352.13C249.821 350.684 248.607 350.142 247.109 349.91C246.515 349.936 245.611 349.678 245.301 349.394C244.371 348.542 243.184 348.593 242.28 348.335L241.686 348.361C241.402 348.671 240.835 349.291 240.551 349.601C240.861 349.885 241.481 350.452 241.481 350.452C243.289 350.969 244.503 351.511 246.311 352.027C247.215 352.285 248.429 352.827 249.616 352.775C249.669 353.963 250.263 353.937 251.14 353.601ZM330.949 87.7596C331.437 85.3586 331.437 85.3586 329.319 84.5585C328.105 84.0165 326.891 83.4744 325.393 83.2423C323.896 83.0101 322.088 82.4939 320.59 82.2618C319.686 82.0037 318.809 82.3394 318.835 82.9332C318.861 83.5269 319.198 84.4047 320.102 84.6627C320.412 84.9467 320.696 84.6369 321.006 84.9208C321.91 85.1789 322.813 85.437 324.311 85.6692C325.809 85.9014 327.307 86.1335 328.263 87.5791C329.167 87.8372 330.355 87.7854 330.949 87.7596ZM267.292 342.188C267.213 340.407 267.213 340.407 266.592 339.839C264.422 337.851 261.4 336.793 258.405 336.329C257.811 336.355 257.217 336.381 256.34 336.716C255.746 336.742 255.462 337.052 255.488 337.646C255.515 338.24 255.515 338.24 255.541 338.833C257.349 339.35 258.873 340.176 260.681 340.692C263.082 341.182 264.89 341.698 267.292 342.188ZM273.428 359.769C273.969 358.555 273.658 358.271 273.038 357.703C271.204 356.594 269.06 355.2 266.401 355.613C264.93 355.975 263.432 355.742 262.192 354.607C260.641 353.187 259.17 353.548 257.388 353.626C256.795 353.652 256.511 353.962 256.511 353.962C256.227 354.272 255.944 354.581 255.944 354.581C256.254 354.865 256.28 355.459 256.28 355.459C258.992 356.233 261.703 357.008 264.415 357.782C265.009 357.756 265.319 358.04 265.629 358.324C268.057 359.408 270.742 359.588 273.428 359.769ZM127.413 320.621C126.225 320.673 124.727 320.441 123.54 320.492C122.946 320.518 122.352 320.544 122.042 320.26C119.614 319.176 116.955 319.589 114.58 319.693C113.676 319.435 112.799 319.771 111.895 319.513C109.467 318.429 106.498 318.558 103.812 318.378C102.315 318.145 100.533 318.223 98.7518 318.301C98.1581 318.327 97.8744 318.636 97.9008 319.23C97.6171 319.54 97.9535 320.418 98.5473 320.392C99.7613 320.934 101.569 321.45 103.067 321.682C104.254 321.63 105.752 321.863 107.25 322.095C108.747 322.327 110.219 321.965 111.433 322.507C111.743 322.791 112.93 322.74 113.524 322.714C114.995 322.352 115.899 322.61 117.113 323.152C118.017 323.41 118.327 323.694 119.515 323.642C121.296 323.565 123.388 323.771 125.169 323.693C125.763 323.668 126.357 323.642 126.667 323.926C129.379 324.7 131.78 325.19 134.492 325.964C136.3 326.48 138.391 326.687 140.199 327.203C141.697 327.435 143.505 327.951 144.976 327.59C146.757 327.512 148.255 327.744 149.753 327.976C152.438 328.157 155.123 328.337 157.525 328.827C159.616 329.034 161.114 329.266 162.922 329.782C163.826 330.04 164.73 330.298 165.297 329.678C165.891 329.653 166.485 329.627 166.795 329.911C169.506 330.685 172.244 332.053 175.187 331.33C175.781 331.304 175.781 331.304 176.375 331.278C178.776 331.768 181.461 331.949 183.863 332.439C184.457 332.413 185.051 332.387 185.644 332.361C185.618 331.767 185.592 331.174 185.282 330.89C183.447 329.78 181.64 329.264 179.548 329.057C175.959 328.619 172.964 328.154 169.348 327.122C166.636 326.348 164.235 325.858 161.576 326.271C159.511 326.659 157.703 326.143 155.869 325.033C155.249 324.465 154.345 324.207 153.467 324.542C152.28 324.594 151.97 324.31 151.066 324.052C149.258 323.536 147.45 323.02 145.952 322.788C144.171 322.865 142.079 322.659 140.298 322.737C138.207 322.53 135.805 322.04 133.43 322.144C131.906 321.318 129.504 320.827 127.413 320.621ZM336.286 80.6852C335.382 80.4271 334.788 80.4531 333.885 80.195C333.264 79.6271 332.671 79.653 332.077 79.6788C328.488 79.2403 325.156 77.8982 321.824 76.5561C321.514 76.2722 320.92 76.2981 320.326 76.324C319.139 76.3758 318.235 76.1177 317.047 76.1694C315.859 76.2212 315.859 76.2212 315.345 78.0284C315.655 78.3124 316.275 78.8803 316.585 79.1642C316.895 79.4482 317.205 79.7321 317.489 79.4223C318.65 78.7768 320.174 79.6028 321.362 79.551C324.978 80.5833 328.593 81.6154 332.209 82.6477C333.113 82.9058 333.706 82.88 334.61 83.138C335.204 83.1121 335.514 83.396 336.108 83.3701C336.702 83.3442 336.985 83.0344 336.959 82.4407C336.312 81.279 336.002 80.995 336.286 80.6852ZM423.957 205.963C423.363 205.989 423.053 205.705 422.459 205.731C420.084 205.835 418.302 205.912 415.927 206.016C412.958 206.145 410.016 206.868 406.994 205.81C406.09 205.552 404.618 205.914 403.431 205.965C402.837 205.991 401.96 206.327 401.366 206.353C398.397 206.482 395.712 206.302 392.432 206.147C391.839 206.173 391.555 206.483 390.677 206.819C390.987 207.103 391.608 207.671 391.608 207.671C392.202 207.645 392.795 207.619 393.389 207.593C394.267 207.257 394.86 207.231 395.764 207.489C396.668 207.748 397.262 207.722 398.166 207.98C399.664 208.212 401.161 208.444 402.943 208.367C404.388 207.411 405.602 207.953 407.099 208.185C407.409 208.469 408.003 208.443 408.287 208.134C412.443 207.952 416.6 207.771 420.447 207.306C421.04 207.28 421.918 206.944 422.795 206.609C423.699 206.867 423.673 206.273 423.957 205.963C424.267 206.247 424.267 206.247 423.957 205.963ZM-24.4941 249.307C-23.8739 249.874 -23.5638 250.158 -22.9436 250.726C-22.6335 251.01 -22.0398 250.984 -21.7561 250.675C-21.4723 250.365 -21.7825 250.081 -22.0926 249.797C-23.0228 248.945 -23.9267 248.687 -24.4941 249.307ZM12.6062 86.7617L12.8899 86.4519C12.9163 87.0456 12.9163 87.0457 12.6062 86.7617C12.3224 87.0715 12.3224 87.0715 12.6062 86.7617C12.0124 86.7876 12.0123 86.7876 12.0123 86.7876C12.3224 87.0715 12.3224 87.0715 12.6062 86.7617ZM277.848 365.525C277.254 365.551 276.377 365.887 275.499 366.223C276.119 366.791 276.74 367.358 277.36 367.926C276.482 368.262 275.888 368.288 275.321 368.908C273.823 368.675 273.46 367.204 271.705 367.875C271.138 368.495 272.352 369.037 272.379 369.631C272.405 370.225 272.121 370.534 271.864 371.438C270.96 371.18 270.366 371.206 269.746 370.638C268.816 369.786 268.222 369.812 267.034 369.864C265.226 369.348 263.445 369.425 261.354 369.219C261.38 369.813 260.813 370.432 260.839 371.026C259.935 370.768 259.341 370.794 258.437 370.536C258.127 370.252 257.844 370.562 257.534 370.278C256.267 368.548 254.512 369.22 253.04 369.581C252.447 369.607 252.163 369.917 251.853 369.633C249.141 368.859 247.848 366.535 245.704 365.142C245.394 364.858 245.367 364.264 245.057 363.98C244.074 361.941 242.55 361.115 240.459 360.908C238.367 360.702 236.249 359.902 234.699 358.482C233.768 357.63 232.554 357.088 231.083 357.45C230.773 357.166 230.463 356.882 230.126 356.004C228.061 356.392 225.996 356.779 223.852 355.385C222.638 354.843 221.734 354.585 220.804 353.733C218.66 352.34 216.258 351.849 213.856 351.359C210.551 350.611 206.935 349.578 203.914 348.52C201.796 347.72 199.704 347.514 197.303 347.024C194.901 346.533 192.189 345.759 190.045 344.365C190.896 343.436 192.11 343.978 192.704 343.952C195.106 344.442 197.817 345.216 200.529 345.991C201.743 346.533 202.93 346.481 204.118 346.429C206.21 346.635 208.017 347.152 210.135 347.952C213.157 349.01 216.746 349.448 219.742 349.913C220.052 350.197 220.335 349.887 220.335 349.887C220.903 349.267 220.593 348.983 220.283 348.699C219.352 347.847 218.422 346.996 217.518 346.737C217.518 346.737 217.518 346.737 217.208 346.454C215.347 344.75 212.972 344.853 211.164 344.337C208.143 343.279 204.837 342.531 201.558 342.376C200.964 342.402 200.654 342.118 200.344 341.834C197.606 340.466 194.353 340.905 191.358 340.441C190.17 340.493 188.983 340.545 187.485 340.312C185.988 340.08 184.516 340.442 183.381 341.681C183.071 341.397 182.761 341.113 182.451 340.829C182.141 340.545 181.547 340.571 180.98 341.191C180.412 341.811 180.722 342.095 181.343 342.662C180.749 342.688 180.465 342.998 180.155 342.714C177.754 342.224 174.784 342.353 172.356 341.269C170.239 340.469 168.457 340.547 166.623 339.437C166.313 339.153 166.029 339.463 166.029 339.463C164.248 339.541 162.75 339.308 161.2 337.889C158.877 339.18 157.3 337.166 155.493 336.65C155.466 336.056 156.06 336.03 156.06 336.03C156.06 336.03 156.06 336.03 156.37 336.314C159.003 335.307 161.714 336.081 164.426 336.856C165.02 336.83 165.614 336.804 166.207 336.778C167.111 337.036 167.989 336.7 168.609 337.268C169.513 337.526 170.7 337.474 171.294 337.449C171.888 337.423 173.076 337.371 173.927 336.441C173.617 336.158 173.9 335.848 173.59 335.564C172.35 334.428 170.542 333.912 169.044 333.68C166.075 333.809 163.364 333.035 160.368 332.57C158.277 332.364 156.469 331.848 154.661 331.332L154.945 331.022C154.945 331.022 154.635 330.738 154.325 330.454C154.325 330.454 154.325 330.454 154.041 330.764L154.067 331.358L154.378 331.642C153.784 331.668 153.5 331.977 153.19 331.693C151.666 330.868 149.884 330.945 148.413 331.307C146.942 331.668 145.754 331.72 144.85 331.462C143.947 331.204 142.759 331.256 141.571 331.308C141.571 331.308 141.288 331.617 140.694 331.643C141.004 331.927 141.314 332.211 141.624 332.495C143.432 333.011 144.956 333.837 146.454 334.069C147.047 334.043 147.951 334.301 148.545 334.276C150.327 334.198 152.134 334.714 153.658 335.54L153.969 335.824C152.807 336.47 151.567 335.334 150.406 335.979C149.812 336.005 149.218 336.031 149.218 336.031C148.677 337.245 147.773 336.986 146.869 336.728C145.035 335.618 143.254 335.696 141.162 335.49C140.568 335.516 139.664 335.258 139.354 334.974C139.044 334.69 138.451 334.716 138.167 335.025C136.102 335.413 134.01 335.207 131.892 334.407C130.988 334.148 129.801 334.2 128.897 333.942C128.303 333.968 128.277 333.374 127.967 333.09C127.657 332.806 126.753 332.548 126.443 332.264C127.63 332.213 128.508 331.877 129.412 332.135C129.643 330.638 129.616 330.044 129.022 330.07C127.808 329.528 126.621 329.579 125.123 329.347C124.219 329.089 123.342 329.425 122.411 328.573C122.411 328.573 122.101 328.289 121.818 328.599C120.036 328.677 118.255 328.754 116.447 328.238C114.692 328.91 113.762 328.058 112.521 326.922C111.36 327.567 112.264 327.825 112.29 328.419C110.793 328.187 109.605 328.239 108.391 327.697C107.487 327.439 106.583 327.181 106.247 326.303C105.937 326.019 105.627 325.735 105.033 325.761C104.155 326.097 102.941 325.555 102.064 325.89C101.47 325.916 100.876 325.942 100.54 325.064C101.134 325.039 101.134 325.039 101.727 325.013C103.199 324.651 103.456 323.747 103.093 322.276C101.312 322.354 99.504 321.837 97.7226 321.915C95.3474 322.019 93.8233 321.193 92.2465 319.179C91.91 318.301 91.0061 318.043 90.1286 318.379C89.8449 318.689 89.5612 318.999 89.2775 319.309C89.5876 319.592 89.8977 319.876 89.8977 319.876L89.614 320.186C89.0202 320.212 88.4263 320.238 88.1162 319.954C87.2123 319.696 86.6186 319.722 85.7147 319.464C84.5271 319.516 83.0294 319.283 81.8154 318.741C80.6014 318.199 79.6975 317.941 78.4835 317.399C77.2695 316.857 76.1084 317.503 74.9208 317.555C74.0169 317.297 72.8292 317.348 72.209 316.78C70.685 315.954 68.9036 316.032 67.4323 316.394C67.3268 314.019 67.0166 313.735 64.9515 314.122C64.6678 314.432 64.3577 314.148 64.3577 314.148C64.3577 314.148 64.6415 313.838 64.3314 313.554L63.7376 313.58C62.55 313.632 61.646 313.374 60.4585 313.426C58.9608 313.193 58.0305 312.342 57.1002 311.49C56.7901 311.206 56.7637 310.612 57.0474 310.302C57.021 309.708 57.2784 308.805 57.5357 307.901C58.4132 307.565 58.9806 306.946 59.8581 306.61C60.1418 306.3 60.3991 305.397 59.4952 305.139C59.1851 304.855 59.1851 304.854 58.5913 304.88C57.0936 304.648 55.5959 304.416 54.4084 304.468C52.9371 304.829 51.7231 304.288 51.0765 303.126C48.985 302.92 47.2036 302.997 45.3694 301.887C42.9942 301.991 40.5663 300.907 37.9074 301.32C38.1911 301.01 38.1646 300.416 38.4483 300.107C38.4219 299.513 38.1119 299.229 37.7754 298.351C36.5614 297.809 35.0638 297.577 33.8498 297.035C33.8234 296.441 34.107 296.131 34.0806 295.538C34.0542 294.944 33.7178 294.066 33.124 294.092C32.2201 293.834 31.3426 294.17 31.0061 293.292C33.0712 292.904 35.1627 293.111 36.9969 294.221C38.831 295.33 40.9226 295.537 42.7304 296.053C43.3242 296.027 44.228 296.285 44.5117 295.975C45.9566 295.02 46.8605 295.278 48.0745 295.82C49.8823 296.336 51.9738 296.542 53.9861 294.967C54.5536 294.348 54.5272 293.754 53.907 293.186C52.9767 292.334 52.0727 292.076 51.1425 291.224C50.5487 291.25 49.6712 291.586 49.0774 291.612C46.7286 292.309 44.6107 291.509 42.7502 289.805C42.4401 289.521 41.8199 288.953 41.2262 288.979C40.6324 289.005 40.3485 289.315 39.471 289.651C39.1873 289.961 39.1874 289.961 38.9037 290.27C38.5936 289.986 38.5936 289.986 38.2835 289.703C37.6105 287.947 36.1127 287.715 34.3313 287.793C33.7375 287.818 33.4539 288.128 32.8601 288.154C32.2663 288.18 31.9826 288.49 31.6725 288.206C29.2445 287.122 26.9485 289.007 24.857 288.8L24.2896 289.42C24.2896 289.42 24.6261 290.298 24.9098 289.988C25.8137 290.246 26.7176 290.504 27.5951 290.168C28.1889 290.143 28.7827 290.117 29.3764 290.091C29.4292 291.278 29.7657 292.156 29.5084 293.06C27.4169 292.853 25.2991 292.053 23.234 292.441C22.6402 292.467 22.3301 292.183 21.4262 291.925C19.9285 291.692 18.4308 291.46 17.2168 290.918C16.3129 290.66 15.4354 290.996 14.7888 289.834L13.885 289.576C13.0075 289.912 11.8462 290.557 10.9687 290.893C10.3749 290.919 9.75463 290.351 9.16084 290.377C8.28333 290.713 7.40593 291.048 6.52843 291.384C5.90824 290.816 5.00433 290.558 4.41053 290.584C4.97794 289.964 5.23528 289.061 6.11279 288.725C7.5577 287.77 7.78865 286.272 7.99319 284.181C8.22412 282.684 8.1713 281.496 8.40223 279.999C7.78204 279.431 7.16181 278.863 6.28431 279.199C4.813 279.56 3.34169 279.922 1.5603 280C0.630013 279.148 1.76482 277.908 1.42834 277.031C0.808159 276.463 0.188042 275.895 -0.742241 275.043C0.082489 273.52 0.313438 272.022 2.37854 271.635C2.97234 271.609 2.94593 271.015 3.53973 270.989C3.17686 269.518 1.96283 268.976 1.34264 268.408C1.31625 267.814 1.28996 267.22 1.26357 266.627C2.0619 264.51 0.511398 263.09 -1.01268 262.264C-2.22667 261.722 -3.46705 260.586 -4.39733 259.734C-5.01752 259.166 -6.23155 258.624 -6.82535 258.65C-8.60674 258.728 -10.1044 258.496 -11.5493 259.451C-12.7105 260.097 -14.802 259.89 -15.9896 259.942C-17.8502 258.238 -16.7418 256.405 -17.4148 254.65C-16.5109 254.908 -15.3232 254.856 -14.7294 254.83C-14.162 254.211 -13.9047 253.307 -12.407 253.539C-11.8132 253.513 -11.5294 253.203 -11.2721 252.3C-11.0148 251.396 -11.3249 251.112 -11.9451 250.544C-12.5653 249.977 -13.1591 250.002 -13.7793 249.435C-15.3034 248.609 -16.491 248.66 -17.9623 249.022C-18.8398 249.358 -19.4336 249.384 -20.0274 249.409C-21.215 249.461 -21.7823 250.081 -23.2537 250.442C-24.1575 250.184 -24.7778 249.616 -25.9918 249.074C-27.1266 250.314 -28.908 250.391 -30.4321 249.565C-31.0523 248.997 -31.6461 249.023 -32.55 248.765C-34.6679 247.965 -35.2616 247.991 -37.2739 249.566C-37.2212 250.754 -36.8847 251.631 -36.5219 253.103C-37.6831 253.748 -38.5341 254.678 -39.4116 255.014C-39.3588 256.201 -39.0224 257.079 -38.6859 257.957C-38.3494 258.834 -37.7029 259.996 -37.3664 260.874C-36.7198 262.035 -36.0997 262.603 -35.143 264.049C-35.1167 264.643 -35.0901 265.237 -34.78 265.52C-34.7537 266.114 -34.4436 266.398 -34.4173 266.992C-34.9847 267.612 -35.5521 268.231 -35.8094 269.135C-37.3335 268.309 -38.5738 267.173 -38.653 265.392C-38.653 265.392 -38.6793 264.798 -38.9894 264.514C-40.2034 263.972 -40.2562 262.785 -40.309 261.597C-40.3354 261.003 -40.9555 260.435 -40.9819 259.841C-41.9122 258.99 -42.5587 257.828 -43.489 256.976C-43.7991 256.692 -44.1093 256.408 -44.4194 256.124C-45.6334 255.582 -46.2799 254.421 -47.2102 253.569C-47.8304 253.001 -47.8568 252.407 -48.1933 251.529C-47.6259 250.91 -46.7484 250.574 -46.4647 250.264C-46.1809 249.954 -46.5174 249.077 -46.5438 248.483C-46.2601 248.173 -45.9501 248.457 -45.6664 248.147C-44.1687 248.379 -43.8849 248.069 -43.654 246.572C-43.3967 245.668 -43.1394 244.765 -42.572 244.145C-41.4371 242.906 -40.2759 242.26 -39.1411 241.021C-39.1675 240.427 -39.814 239.266 -38.9629 238.336C-38.6792 238.026 -38.7057 237.432 -39.0158 237.149C-39.6623 235.987 -39.715 234.799 -39.4577 233.896C-39.4841 233.302 -39.5105 232.708 -40.1043 232.734C-40.7245 232.166 -41.2918 232.786 -41.5756 233.096C-41.8593 233.405 -42.1167 234.309 -42.4004 234.619C-42.6841 234.929 -42.9678 235.239 -43.2251 236.142C-45.343 235.342 -45.7058 233.871 -46.3787 232.115C-46.7152 231.237 -46.4579 230.334 -46.5107 229.146C-45.6596 228.217 -45.6597 228.217 -45.7652 225.842C-48.4769 225.067 -51.1886 224.293 -54.1839 223.829C-54.494 223.545 -54.8305 222.667 -55.1406 222.383C-56.0972 220.938 -56.691 220.964 -58.1623 221.325C-58.446 221.635 -59.0399 221.661 -59.3236 221.971C-60.2539 221.119 -61.4943 219.983 -63.533 220.964C-63.2757 220.061 -62.9919 219.751 -62.9919 219.751C-61.547 218.795 -60.1284 217.246 -58.0633 216.859C-57.4695 216.833 -57.1859 216.523 -56.9021 216.213C-54.8634 215.232 -53.7286 213.993 -52.9303 211.876C-52.673 210.972 -52.6993 210.378 -52.442 209.475C-50.7134 208.209 -48.9584 207.538 -46.8933 207.151C-45.422 206.789 -43.667 206.118 -42.5057 205.472C-41.0608 204.517 -39.8996 203.871 -38.1182 203.794C-37.5244 203.768 -36.647 203.432 -36.0795 202.812C-34.6346 201.857 -34.43 199.766 -33.2952 198.526C-32.7278 197.907 -32.7805 196.719 -33.1434 195.248L-33.1699 194.654C-32.0614 192.821 -30.6164 191.865 -28.8878 190.6C-28.3204 189.981 -27.1328 189.929 -26.2289 190.187C-25.325 190.445 -24.4211 190.703 -22.9234 190.935C-20.5218 191.425 -18.4568 191.038 -16.7546 189.179C-16.4709 188.869 -16.4708 188.869 -16.1871 188.559C-16.1871 188.559 -16.1871 188.559 -15.9034 188.25C-16.2399 187.372 -16.2927 186.184 -16.6292 185.307C-15.1579 184.945 -13.9703 184.893 -13.0928 184.558C-12.2417 183.628 -13.172 182.776 -12.9146 181.873C-12.6309 181.563 -12.3208 181.847 -12.0371 181.537L-12.3208 181.847C-11.727 181.821 -11.1068 182.389 -10.7967 182.673C-10.4866 182.957 -10.4866 182.957 -10.1765 183.241C-9.8928 182.931 -9.89277 182.931 -9.60906 182.621C-8.44785 181.975 -7.80128 183.137 -6.64008 182.491C-6.35637 182.182 -5.789 181.562 -6.12548 180.684C-6.77206 179.523 -7.67593 179.265 -8.88992 178.723C-9.48372 178.748 -9.4838 178.748 -10.0776 178.774C-11.8326 179.446 -13.8977 179.833 -15.369 180.195C-16.8403 180.556 -18.338 180.324 -19.8357 180.092C-20.7396 179.834 -21.3598 179.266 -21.6962 178.388C-22.0063 178.104 -22.29 178.414 -22.6001 178.13L-22.6265 177.536C-20.8979 176.271 -20.977 174.49 -20.1523 172.967C-19.5585 172.941 -19.5585 172.941 -18.9647 172.915C-18.0609 173.173 -17.8035 172.269 -17.2361 171.65C-16.3322 171.908 -15.712 172.476 -14.5508 171.83C-14.5508 171.83 -14.2407 172.114 -13.957 171.804C-13.957 171.804 -13.957 171.804 -14.2671 171.52C-14.2671 171.52 -14.5508 171.83 -14.8609 171.546C-15.171 171.262 -15.1974 170.668 -15.5075 170.385C-14.9137 170.359 -14.3198 170.333 -13.726 170.307C-13.1322 170.281 -12.8485 169.971 -12.2811 169.351C-11.7137 168.732 -10.8626 167.802 -9.64861 168.344C-9.05482 168.318 -8.46103 168.293 -8.17732 167.983C-7.92001 167.079 -7.66265 166.176 -7.71542 164.988C-7.71542 164.988 -7.4054 165.272 -7.12169 164.962L-7.40541 165.272C-7.71551 164.988 -7.71542 164.988 -7.74181 164.394C-7.7682 163.8 -8.07838 163.516 -8.95589 163.852C-8.95589 163.852 -9.26591 163.568 -9.54962 163.878C-9.26591 163.568 -8.3885 163.232 -8.1048 162.923C-7.511 162.897 -6.91711 162.871 -6.6334 162.561C-6.11877 160.754 -6.11881 160.754 -4.64751 160.392C-3.77 160.057 -2.91891 159.127 -2.01501 159.385C-1.42122 159.359 -1.19025 157.862 -1.78405 157.888C-2.68794 157.63 -3.33453 156.468 -3.36092 155.874C-3.07722 155.564 -2.50983 154.945 -2.22612 154.635C-1.91602 154.919 -1.91599 154.919 -1.60589 155.203C-1.26941 156.081 -0.932983 156.958 0.538322 156.597C0.822029 156.287 0.512062 156.003 1.07948 155.383C1.98337 155.641 2.88716 155.899 4.10115 156.441C4.95227 155.512 4.61583 154.634 4.58944 154.04C4.87315 153.731 5.44054 153.111 5.72424 152.801C6.00795 152.491 6.31809 152.775 6.31809 152.775C7.81579 153.007 9.26067 152.052 10.3955 150.813C10.9629 150.193 10.3164 149.031 9.7226 149.057C7.9412 149.135 6.3906 147.715 4.86652 146.889C3.96263 146.631 2.54415 148.18 0.993683 146.76C2.12851 145.521 3.2897 144.876 5.09749 145.392C5.92222 143.868 3.21058 143.094 4.34541 141.855C5.55939 142.397 6.48962 143.249 6.5424 144.436C6.56879 145.03 7.18904 145.598 7.75645 144.978C7.73006 144.385 7.70361 143.791 7.96093 142.887C7.93454 142.294 8.21833 141.984 7.90823 141.7C6.35777 140.28 6.8459 137.879 5.57914 136.149C5.26904 135.866 5.52639 134.962 6.12019 134.936C7.02408 135.194 7.61796 135.168 8.77917 134.523C9.06287 134.213 9.94032 133.877 10.5341 133.851C9.83477 131.502 8.8254 128.869 6.96484 127.165C6.65474 126.881 6.34457 126.597 5.75077 126.623C4.25307 126.391 2.44528 125.875 1.23129 125.333C0.921196 125.049 0.327408 125.075 -0.266388 125.101C-2.04778 125.178 -2.97804 124.326 -3.05721 122.545C-3.0836 121.951 -3.13638 120.764 -3.18916 119.576C-2.90545 119.266 -2.33809 118.647 -1.46059 118.311C-1.48698 117.717 -1.797 117.433 -1.82339 116.84C-6.26369 117.331 -10.9877 118.131 -15.7381 118.338C-15.7909 117.151 -15.8436 115.963 -15.8964 114.776C-17.084 114.827 -18.5817 114.595 -19.1755 114.621C-19.4856 114.337 -19.4856 114.337 -19.7957 114.053C-19.8485 112.866 -19.8749 112.272 -19.9277 111.084C-19.9804 109.897 -21.1681 109.949 -21.2209 108.761C-21.2473 108.167 -22.4612 107.625 -22.7976 106.748C-22.5403 105.844 -21.6628 105.508 -20.8117 104.579C-20.2442 103.959 -19.3668 103.623 -18.7994 103.004C-17.6646 101.764 -16.5033 101.119 -14.7219 101.041C-11.5219 99.4144 -8.24289 99.569 -4.99019 99.1297C-4.39639 99.1038 -3.80259 99.078 -3.54527 98.1744C-2.41045 96.9351 -1.24926 96.2895 0.532135 96.2118C0.532135 96.2118 0.81588 95.902 1.12598 96.186C2.59728 95.8244 3.13821 94.611 2.49164 93.4493C2.18154 93.1654 2.1552 92.5716 1.84511 92.2876C2.12881 91.9778 2.43887 92.2617 2.72257 91.9518C3.2636 90.7384 4.11469 89.8089 4.9922 89.4732C5.22313 87.9758 5.144 86.1946 5.37493 84.6972C4.44465 83.8454 3.51442 82.9935 2.84145 81.238C3.12516 80.9282 3.40884 80.6184 4.00263 80.5925C4.59643 80.5667 5.78409 80.5148 6.37788 80.4889C7.56548 80.4371 8.44288 80.1015 9.01029 79.4818C8.9839 78.888 8.95759 78.2942 8.62111 77.4165C9.49861 77.0808 10.0924 77.055 10.3761 76.7452C10.9436 76.1255 10.5543 74.0602 9.9341 73.4923C9.624 73.2084 9.31385 72.9244 9.03014 73.2342C7.55884 73.5958 6.31854 72.46 5.67197 71.2983C5.33549 70.4206 4.4051 69.5687 4.06862 68.691C3.47482 68.7169 2.57108 68.4589 1.97728 68.4848C1.3307 67.3231 1.58801 66.4195 1.56161 65.8258C2.12903 65.2061 2.74915 65.774 3.34294 65.7481C5.12434 65.6705 6.59567 65.3089 8.14614 66.7286C8.45624 67.0126 9.05004 66.9866 9.64384 66.9607C10.8314 66.9089 11.7353 67.167 12.9229 67.1153C13.5167 67.0894 14.3942 66.7537 14.988 66.7278C15.8391 65.7983 14.005 64.6884 15.7864 64.6108C15.4763 64.3268 15.76 64.017 15.4499 63.733C14.5196 62.8812 13.3056 62.3392 12.118 62.391C9.71642 61.9008 7.62496 61.6944 5.4807 60.3005C3.33643 58.9067 0.934692 58.4164 -1.7506 58.236C-2.65449 57.9779 -3.55828 57.7199 -4.46217 57.4618C-5.67616 56.9198 -6.29634 56.3519 -7.51033 55.8099C-8.41422 55.5519 -8.72425 55.2678 -9.34444 54.6999C-9.06073 54.3901 -8.46699 54.3643 -8.77708 54.0803C-8.85625 52.299 -7.74788 50.4659 -8.73093 48.4265C-9.66122 47.5746 -10.5915 46.7227 -11.7527 47.3682C-12.9139 48.0138 -13.4812 48.6336 -13.3756 51.0087C-14.2795 50.7506 -14.8733 50.7765 -14.9261 49.5889C-14.9525 48.9951 -14.979 48.4013 -15.2891 48.1173C-15.3155 47.5236 -15.3418 46.9298 -15.3682 46.336C-14.8008 45.7163 -14.2335 45.0967 -13.6661 44.4771C-13.0986 43.8574 -12.5313 43.2377 -12.584 42.0502C-12.6104 41.4564 -12.3265 41.1466 -12.3529 40.5529C-11.8383 38.7457 -11.0137 37.2223 -9.59519 35.6731C-7.29916 33.7883 -5.00304 31.9035 -2.68062 30.6124C-0.0744934 29.0115 1.93784 27.4365 4.54397 25.8356C5.70518 25.19 6.86632 24.5445 8.02753 23.8989C10.66 22.8918 12.9825 21.6006 15.615 20.5935C17.9374 19.3024 20.8801 18.5794 22.9188 17.5982C26.4289 16.2553 29.9917 16.1 33.5281 15.351C35.8769 14.6537 38.2256 13.9562 40.5744 13.2589C43.2069 12.2518 46.1759 12.1224 49.1449 11.993C52.1139 11.8635 54.4628 11.1663 57.0954 10.1592C57.3791 9.84936 57.689 10.1333 57.9727 9.82346C59.9851 8.24843 59.9851 8.24851 62.0502 7.86104C62.334 7.55121 62.3076 6.95737 62.3076 6.95737C62.5649 6.05377 63.1324 5.43411 64.3199 5.38235C65.5075 5.33059 66.9788 4.96901 68.14 4.32347C69.0175 3.98776 69.3012 3.67793 69.5585 2.77432C69.8159 1.87072 70.6933 1.53496 71.2871 1.50907C72.4747 1.45731 73.3522 1.12156 74.5398 1.0698C76.915 0.966271 79.6004 1.14676 81.7183 1.94684C82.0284 2.23079 82.312 1.92089 82.6221 2.20484C84.1462 3.0308 85.9275 2.95323 87.4252 3.18542C89.2066 3.10777 91.0145 3.62386 92.7959 3.54622C95.4812 3.72664 97.8828 4.21701 100.232 3.51971C102.349 4.31979 104.104 3.6482 106.196 3.8545C108.287 4.06081 110.069 3.9832 111.85 3.90556C114.819 3.77615 117.788 3.64674 120.757 3.51733C123.132 3.41381 125.818 3.59432 128.477 3.18097C129.354 2.84525 130.284 3.69708 131.446 3.05154C132.323 2.71583 133.511 2.66405 134.698 2.61229C135.886 2.56052 136.763 2.22481 137.951 2.17305C138.545 2.14717 139.139 2.12129 139.732 2.09541C142.418 2.27583 144.767 1.5785 147.142 1.47497C152.433 0.0544847 157.83 1.00911 162.891 1.08601C166.17 1.24055 169.449 1.39516 172.728 1.5497C173.889 0.90416 175.129 2.03989 176.601 1.6783C177.762 1.03276 179.286 1.85874 180.474 1.80697C181.661 1.75521 183.159 1.98739 184.347 1.93563C185.534 1.88387 186.722 1.83211 187.599 1.4964C189.948 0.799094 192.323 0.695566 194.415 0.90187C197.694 1.05641 200.663 0.927044 203.658 1.39141C204.793 0.152097 205.954 -0.493552 207.452 -0.261367C210.731 -0.106826 214.294 -0.261983 217.573 -0.107442C217.883 0.176506 218.167 -0.133394 218.477 0.150554C221.756 0.305095 225.345 0.743556 228.624 0.898097C231.309 1.07852 233.995 1.25895 236.396 1.74921C237.016 2.3171 237.584 1.69752 238.178 1.67164C238.204 2.26542 238.204 2.26536 238.798 2.23947C239.082 1.92964 239.082 1.92961 239.365 1.61978C243.238 1.74844 246.827 2.18692 251.01 2.59953C255.787 2.98625 260.538 2.77934 265.341 3.75984C266.245 4.0179 267.716 3.65622 268.904 3.60446C270.091 3.55269 270.685 3.52682 271.589 3.78489C272.776 3.73313 273.99 4.2752 275.488 4.50738C278.767 4.66192 282.073 5.41016 285.662 5.84865C288.657 6.31302 291.936 6.46755 294.932 6.93192C297.023 7.13822 299.115 7.34462 301.233 8.1447C302.137 8.40277 303.35 8.94466 304.254 9.20273C304.848 9.17685 305.468 9.74487 305.752 9.43504C306.913 8.7895 307.534 9.35732 308.437 9.61539C310.245 10.1315 310.245 10.1315 309.447 12.2486C308.569 12.5843 307.665 12.3262 306.788 12.6619C305.317 13.0235 304.103 12.4815 302.862 11.3457C302.552 11.0618 301.932 10.4939 301.338 10.5198C298.963 10.6233 296.561 10.133 294.186 10.2365C294.186 10.2365 294.186 10.2366 293.592 10.2624C293.025 10.8821 292.741 11.1918 292.484 12.0955C292.794 12.3794 292.794 12.3794 293.104 12.6634C296.72 13.6956 300.025 14.444 303.641 15.4762C306.042 15.9665 307.876 17.0764 310.278 17.5666C312.086 18.0828 313.894 18.5989 315.701 19.115C316.605 19.3731 316.915 19.6571 317.819 19.9152C317.536 20.225 317.536 20.225 317.252 20.5348C316.968 20.8446 316.685 21.1545 316.995 21.4384C317.021 22.0322 317.331 22.3162 317.641 22.6001C317.951 22.8841 318.545 22.8582 318.855 23.1421C320.973 23.9422 322.781 24.4583 324.074 26.7817C324.358 26.4718 325.235 26.1361 325.519 25.8262C328.541 26.8844 331.562 27.9426 335.178 28.9748C335.772 28.949 336.392 29.5168 337.012 30.0847C337.632 30.6526 337.659 31.2464 338.279 31.8143C338.589 32.0983 339.493 32.3563 340.113 32.9242C339.519 32.9501 339.236 33.26 338.952 33.5698C338.074 33.9055 337.481 33.9314 337.223 34.835C337.25 35.4288 336.682 36.0484 336.088 36.0743C334.307 36.1519 334.05 37.0556 333.509 38.269C333.225 38.5788 332.941 38.8886 332.968 39.4824C333.02 40.67 333.951 41.5218 334.597 42.6835C334.907 42.9675 335.217 43.2513 335.811 43.2255C337.025 43.7675 337.929 44.0256 339.117 43.9738C339.711 43.948 340.331 44.5158 340.641 44.7998C341.261 45.3677 341.261 45.3677 340.746 47.1749C338.965 47.2526 337.494 47.6142 336.979 49.4214C336.464 51.2286 335.95 53.0358 338.094 54.4296C336.596 54.1975 336.003 54.2233 335.125 54.559C333.654 54.9206 333.113 56.134 334.043 56.9859C334.973 57.8377 336.214 58.9735 337.711 59.2057C338.925 59.7477 340.113 59.696 341.611 59.9281C341.921 60.2121 342.231 60.4961 342.567 61.3738C342.284 61.6836 342.594 61.9676 342.594 61.9676C341.149 62.923 340.298 63.8524 338.853 64.8078C339.809 66.2534 339.579 67.7508 338.754 69.2741C338.47 69.5839 337.903 70.2036 337.592 69.9196C336.405 69.9714 335.554 70.9008 334.703 71.8303C334.729 72.4241 334.756 73.0179 334.782 73.6116C338.14 75.5475 341.472 76.8896 345.088 77.9219C345.991 78.18 347.489 78.4121 348.393 78.6702C348.419 79.264 348.136 79.5738 347.826 79.2899C346.922 79.0318 346.328 79.0577 345.424 78.7996C343.926 78.5674 342.739 78.6192 341.888 79.5487C341.914 80.1425 341.657 81.0461 341.683 81.6399C341.399 81.9497 340.832 82.5693 340.238 82.5952C339.051 82.647 338.483 83.2666 338.226 84.1702C337.942 84.4801 337.658 84.7899 337.375 85.0997C336.471 84.8416 335.283 84.8934 334.689 84.9193C333.786 84.6612 332.908 84.9969 332.341 85.6166C331.773 86.2363 331.8 86.83 331.852 88.0176C333.066 88.5596 334.28 89.1016 335.442 88.4561C336.603 87.8105 338.1 88.0427 339.031 88.8945C340.271 90.0303 341.742 89.6688 342.904 89.0233C343.807 89.2814 344.118 89.5653 345.022 89.8233C345.642 90.3912 346.235 90.3654 347.423 90.3136C348.611 90.2619 349.515 90.5199 350.729 91.0619C354.034 91.8102 357.056 92.8684 360.361 93.6167C361.265 93.8748 362.143 93.539 363.047 93.797C363.951 94.0551 364.828 93.7195 365.475 94.8811C365.785 95.1651 366.379 95.1392 366.379 95.1392C368.727 94.4419 371.155 95.5259 373.247 95.7322C376.836 96.1707 380.141 96.9191 383.447 97.6674C384.351 97.9255 385.538 97.8737 386.726 97.822C387.32 97.7961 388.507 97.7442 389.101 97.7183C389.695 97.6925 390.005 97.9765 390.573 97.3568C390.856 97.047 391.45 97.021 391.76 97.305C392.974 97.847 394.498 98.673 396.022 99.499C397.546 100.325 398.76 100.867 400.258 101.099C401.162 101.357 402.35 101.305 403.28 102.157C402.996 102.467 402.712 102.777 401.835 103.113C403.128 105.436 404.111 107.475 407.106 107.94C407.133 108.534 407.469 109.411 407.496 110.005C408.116 110.573 409.02 110.831 409.614 110.805C410.207 110.779 410.828 111.347 410.854 111.941C411.19 112.819 411.501 113.103 412.404 113.361C413.618 113.903 414.522 114.161 415.169 115.322C415.222 116.51 414.654 117.13 413.777 117.465C412.332 118.421 411.481 119.35 410.966 121.157C410.709 122.061 410.141 122.681 408.98 123.326C406.941 124.307 406.968 124.901 407.357 126.966C407.383 127.56 407.72 128.438 408.314 128.412C408.934 128.98 409.838 129.238 410.432 129.212C410.742 129.496 411.335 129.47 411.929 129.444C414.641 130.219 414.384 131.122 414.153 132.62C414.179 133.213 414.179 133.213 414.206 133.807C415.499 136.131 417.049 137.55 419.734 137.731C420.328 137.705 420.638 137.989 420.948 138.273C422.189 139.408 423.403 139.951 424.927 140.776C427.045 141.577 428.285 142.712 428.391 145.087C428.727 145.965 428.754 146.559 429.684 147.411C430.304 147.979 430.047 148.882 429.169 149.218C428.008 149.863 426.537 150.225 425.349 150.277C424.471 150.613 423.904 151.232 423.647 152.136C423.389 153.039 422.822 153.659 422.255 154.279C421.43 155.802 421.483 156.99 422.723 158.125C423.964 159.261 425.177 159.803 426.418 160.939C427.038 161.507 427.348 161.791 427.968 162.359C428.615 163.52 429.855 164.656 430.786 165.508C431.096 165.792 431.716 166.36 432.052 167.238C432.442 169.303 433.398 170.748 433.194 172.84C433.246 174.027 433.299 175.215 434.229 176.067C434.54 176.35 434.566 176.944 434.592 177.538C433.794 179.655 432.349 180.611 430.568 180.688C429.69 181.024 428.813 181.359 427.935 181.695C427.058 182.031 425.87 182.083 424.966 181.825C423.779 181.876 422.901 182.212 421.456 183.168C423.317 184.871 424.61 187.195 427.579 187.065C428.199 187.633 428.225 188.227 428.536 188.511C427.968 189.13 427.684 189.44 427.401 189.75C426.55 190.68 425.388 191.325 424.847 192.539C424.306 193.752 423.429 194.088 422.268 194.733C418.447 195.792 414.601 196.257 410.781 197.316C409.903 197.652 408.689 197.11 407.812 197.445C406.624 197.497 406.057 198.117 406.703 199.279C406.73 199.872 407.35 200.44 407.66 200.724C410.656 201.189 413.545 199.278 416.567 200.336C416.31 201.24 416.363 202.427 416.105 203.331C416.699 203.305 417.009 203.589 417.603 203.563C419.978 203.459 422.043 203.072 424.135 203.278C425.322 203.227 426.2 202.891 426.741 201.677C427.308 201.058 427.592 200.748 428.159 200.128C428.443 199.818 428.727 199.509 428.7 198.915C428.958 198.011 429.551 197.985 430.429 197.65C431.023 197.624 431.643 198.192 431.669 198.785C432.006 199.663 432.059 200.851 432.111 202.038C430.666 202.994 430.436 204.491 428.681 205.162C428.397 205.472 427.829 206.092 427.856 206.686C427.935 208.467 426.49 209.422 425.329 210.068C425.329 210.068 425.329 210.068 425.045 210.378C425.408 211.849 424.247 212.495 424.016 213.992C424.326 214.276 424.352 214.87 424.662 215.154C425.956 217.477 425.956 217.477 428.641 217.658C428.384 218.561 427.79 218.587 427.196 218.613C425.415 218.691 424.227 218.742 422.446 218.82C419.477 218.949 416.508 219.079 413.229 218.924C409.666 219.08 406.387 218.925 403.134 219.364C402.54 219.39 402.256 219.7 402.256 219.7C401.973 220.01 402.283 220.294 402.593 220.578C403.213 221.146 403.833 221.714 404.737 221.972C405.047 222.256 405.667 222.823 406.261 222.798C406.288 223.391 406.288 223.391 406.004 223.701C406.03 224.295 406.057 224.889 406.083 225.482C406.42 226.36 407.324 226.618 407.917 226.592C409.105 226.541 409.982 226.205 411.17 226.153C412.048 225.817 412.951 226.075 413.829 225.74C415.61 225.662 417.108 225.894 418.889 225.817C420.671 225.739 422.116 224.784 423.587 224.422C424.465 224.086 425.342 223.751 426.272 224.603C426.919 225.764 426.661 226.668 426.094 227.287C425.527 227.907 424.933 227.933 424.029 227.675C422.841 227.727 421.654 227.778 420.466 227.83C418.685 227.908 416.93 228.579 415.406 227.753C414.812 227.779 414.218 227.805 413.624 227.831C413.031 227.857 412.437 227.883 411.843 227.909C410.319 227.083 409.158 227.728 407.686 228.09C406.499 228.142 405.648 229.071 405.7 230.259C405.443 231.162 405.496 232.35 405.549 233.537C405.601 234.725 406.222 235.293 407.152 236.145C406.921 237.642 406.07 238.571 404.909 239.217C403.747 239.863 401.992 240.534 400.468 239.708C399.564 239.45 398.971 239.476 398.067 239.218C395.975 239.011 394.478 238.779 392.927 237.36C392.617 237.076 392.023 237.101 391.713 236.817C388.408 236.069 385.102 235.321 381.797 234.573C379.989 234.056 378.207 234.134 376.4 233.618C372.19 232.612 368.007 232.199 363.824 231.786C361.733 231.58 359.641 231.374 357.293 232.071C356.699 232.097 356.415 232.407 355.848 233.026C357.114 234.756 358.665 236.176 361.04 236.072C362.538 236.304 364.009 235.943 364.966 237.388C364.372 237.414 363.184 237.466 362.591 237.492C361.093 237.26 359.311 237.337 357.814 237.105C355.128 236.925 352.47 237.338 349.784 237.158C347.693 236.951 345.628 237.339 343.563 237.726C342.091 238.088 340.62 238.449 339.122 238.217C337.935 238.269 337.935 238.269 336.49 239.224C336.516 239.818 336.826 240.102 337.73 240.36C341.036 241.109 344.625 241.547 348.188 241.392C349.969 241.314 351.467 241.546 352.938 241.185C353.532 241.159 354.126 241.133 354.436 241.417C356.243 241.933 358.025 241.855 360.116 242.062C362.802 242.242 365.177 242.139 367.605 243.223C367.631 243.816 367.037 243.842 367.037 243.842C364.662 243.946 362.287 244.049 359.912 244.153C359.318 244.179 358.724 244.205 357.82 243.947C355.419 243.456 353.044 243.56 350.721 244.851C350.437 245.161 349.25 245.213 348.656 245.238C348.372 245.548 348.089 245.858 347.495 245.884C347.237 246.788 348.141 247.046 348.735 247.02C350.233 247.252 352.014 247.174 353.202 247.122C354.673 246.761 356.171 246.993 357.385 247.535C358.289 247.793 359.476 247.741 360.38 247.999C360.974 247.974 361.284 248.258 361.904 248.825C360.743 249.471 359.245 249.239 358.368 249.574C357.18 249.626 355.993 249.678 355.142 250.608C355.168 251.201 355.478 251.485 356.072 251.459C356.976 251.717 357.57 251.691 358.163 251.666C359.661 251.898 361.442 251.82 363.25 252.336C364.154 252.594 364.748 252.569 365.935 252.517C368.027 252.723 369.808 252.645 371.59 252.568C375.179 253.006 378.432 252.567 382.021 253.006C382.615 252.98 383.802 252.928 384.423 253.496C384.733 253.78 385.043 254.064 384.759 254.374C384.785 254.967 384.502 255.277 384.218 255.587C383.934 255.897 383.34 255.923 382.747 255.949C379.467 255.794 376.241 256.827 372.962 256.672C371.775 256.724 370.587 256.776 369.426 257.422C368.548 257.757 367.361 257.809 366.767 257.835C365.579 257.887 363.798 257.964 362.3 257.732C360.802 257.5 359.641 258.145 358.506 259.385C358.533 259.979 358.869 260.856 358.896 261.45C359.206 261.734 359.206 261.734 359.8 261.708C364.86 261.785 369.637 262.172 374.697 262.249C375.291 262.223 375.601 262.507 376.195 262.481C377.693 262.713 378.003 262.997 377.798 265.088C374.546 265.527 370.983 265.683 367.809 267.903C368.119 268.187 368.429 268.471 368.429 268.471C370.857 269.555 373.233 269.452 375.634 269.942C377.132 270.174 378.319 270.122 379.533 270.664C378.682 271.594 376.875 271.078 375.997 271.413C373.338 271.827 370.653 271.646 368.02 272.653C367.143 272.989 365.955 273.041 365.361 273.067C363.58 273.144 361.799 273.222 360.69 275.055C360.123 275.675 359.555 276.294 358.678 276.63C358.473 278.721 359.714 279.857 361.522 280.373C363.329 280.889 364.853 281.715 366.094 282.851C366.714 283.419 367.618 283.677 368.522 283.935C370.019 284.167 371.26 285.303 371.339 287.084C371.675 287.962 371.728 289.15 371.755 289.743C371.807 290.931 372.144 291.809 372.197 292.996C373.1 293.254 373.41 293.538 374.004 293.513C375.192 293.461 376.122 294.313 376.769 295.474C375.891 295.81 375.324 296.43 374.446 296.765C374.215 298.263 373.984 299.76 372.85 300.999C372.282 301.619 372.309 302.213 372.051 303.117C371.51 304.33 370.659 305.259 369.472 305.311C368.878 305.337 367.717 305.983 367.123 306.008C366.245 306.344 366.014 307.842 366.635 308.409C367.255 308.977 368.159 309.235 368.752 309.21C369.966 309.752 371.154 309.7 372.368 310.242C373.866 310.474 375.08 311.016 376.01 311.868C376.94 312.72 377.871 313.571 377.33 314.785C377.072 315.689 378.286 316.231 378.339 317.418C377.178 318.064 376.017 318.709 374.829 318.761C373.048 318.839 371.576 319.2 370.752 320.724C371.088 321.601 371.141 322.789 371.477 323.667C372.434 325.112 374.473 324.131 376.307 325.241C375.119 325.292 374.242 325.628 373.364 325.964L373.08 326.274C371.972 328.107 371.998 328.701 373.549 330.12C373.859 330.404 374.169 330.688 374.479 330.972C374.789 331.256 375.409 331.824 376.003 331.798C376.34 332.676 375.772 333.296 375.205 333.915C374.638 334.535 373.76 334.871 373.786 335.464C373.245 336.678 372.962 336.988 371.774 337.039C371.18 337.065 370.897 337.375 370.613 337.685C369.452 338.33 368.574 338.666 367.076 338.434C365.269 337.918 363.204 338.305 361.706 338.073C361.706 338.073 361.706 338.073 362.016 338.357C360.518 338.125 359.304 337.583 357.523 337.661C355.741 337.738 354.244 337.506 352.746 337.274C351.559 337.326 350.655 337.068 349.21 338.023C348.049 338.668 346.835 338.126 345.931 337.868C345.337 337.894 344.717 337.326 344.123 337.352C343.219 337.094 342.031 337.146 341.411 336.578C341.101 336.294 341.101 336.294 340.507 336.32C338.106 335.83 335.394 335.056 332.709 334.875C332.115 334.901 331.211 334.643 330.901 334.359C330.591 334.075 330.591 334.075 329.997 334.101C325.53 333.998 321.295 332.398 316.828 332.295C316.234 332.321 315.64 332.347 315.047 332.373C313.833 331.831 312.645 331.883 311.484 332.528C310.012 332.89 308.825 332.941 307.301 332.116C306.087 331.573 305.183 331.315 303.995 331.367C302.214 331.445 300.122 331.239 298.031 331.032C296.843 331.084 295.656 331.136 294.494 331.781C294.521 332.375 294.831 332.659 295.425 332.633C297.232 333.149 299.04 333.665 301.132 333.872C302.629 334.104 304.437 334.62 305.935 334.852C306.529 334.826 307.743 335.368 308.363 335.936C309.293 336.788 310.197 337.046 311.101 337.304C312.005 337.562 312.599 337.536 313.503 337.794C313.813 338.078 314.406 338.053 314.433 338.646C314.769 339.524 315.673 339.782 316.241 339.162C317.686 338.207 319.21 339.033 320.707 339.265C321.69 341.305 324.039 340.607 325.28 341.743C325.59 342.027 325.873 341.717 326.184 342.001C330.65 342.104 334.86 343.11 339.043 343.523C339.636 343.497 339.946 343.781 340.257 344.065C342.737 346.337 346.016 346.491 348.985 346.362C349.579 346.336 349.579 346.336 350.173 346.31C351.697 347.136 353.195 347.368 354.692 347.6C357.094 348.091 359.186 348.297 361.587 348.787C363.085 349.019 364.582 349.251 366.054 348.89C366.337 348.58 366.648 348.864 367.551 349.122C367.578 349.716 367.294 350.026 367.32 350.619C367.09 352.117 367.142 353.304 368.073 354.156C369.003 355.008 368.436 355.628 367.558 355.963C363.428 356.738 362.834 356.764 358.341 356.068C355.656 355.887 353.254 355.397 350.259 354.933C348.761 354.701 347.263 354.468 345.766 354.236C345.172 354.262 344.862 353.978 344.552 353.694C344.241 353.41 343.338 353.152 342.744 353.178C340.679 353.565 338.845 352.456 337.037 351.939C336.133 351.681 335.539 351.707 334.635 351.449C332.854 351.527 331.046 351.011 329.238 350.494C328.334 350.236 326.837 350.004 325.933 349.746C325.623 349.462 325.339 349.772 324.745 349.798C322.291 348.12 319.038 348.559 316.326 347.785C315.112 347.243 313.331 347.321 312.143 347.373C309.458 347.192 306.773 347.012 304.061 346.238C300.756 345.489 297.166 345.051 293.861 344.302C293.267 344.328 292.363 344.07 291.769 344.096C288.49 343.942 285.805 343.761 282.5 343.013C281.002 342.781 279.531 343.142 278.086 344.098C277.802 344.407 277.518 344.717 277.545 345.311C277.571 345.905 277.597 346.499 277.624 347.092C283.641 348.615 289.942 349.828 295.959 351.35C296.863 351.608 297.457 351.582 298.361 351.84C300.452 352.047 302.854 352.537 305.255 353.027C307.657 353.517 309.748 353.724 312.15 354.214C312.744 354.188 313.648 354.446 313.958 354.73C318.477 356.02 322.687 357.027 327.18 357.723C329.271 357.93 331.079 358.446 332.887 358.962C335.288 359.452 337.38 359.658 339.781 360.149C342.183 360.639 344.274 360.845 346.96 361.026C348.457 361.258 349.955 361.49 351.143 361.438C350.965 364.123 351.275 364.407 352.825 365.827C353.445 366.395 353.755 366.679 354.659 366.937C357.034 366.833 359.179 368.227 361.27 368.433C362.458 368.382 363.956 368.614 365.117 367.968C365.994 367.633 367.182 367.581 368.059 367.245C368.759 369.594 368.218 370.808 366.153 371.195C365.559 371.221 364.965 371.247 364.371 371.273C363.494 371.609 363.184 371.325 362.28 371.067C361.066 370.525 360.162 370.267 359.284 370.602C358.097 370.654 357.219 370.99 356.289 370.138C355.669 369.57 354.508 370.216 353.914 370.241C353.036 370.577 352.132 370.319 351.512 369.751C351.202 369.467 350.608 369.493 350.608 369.493C349.137 369.855 347.923 369.313 346.425 369.081C344.307 368.28 341.932 368.384 339.841 368.178C338.653 368.229 337.182 368.591 335.711 368.953C335.117 368.979 334.833 369.288 334.239 369.314C332.148 369.108 330.314 367.998 328.479 366.888C327.859 366.32 327.239 365.752 326.645 365.778C325.431 365.236 323.907 364.41 322.126 364.488C320.034 364.282 317.633 363.791 315.515 362.991C314.017 362.759 312.803 362.217 311.305 361.985C309.808 361.753 308.594 361.211 307.096 360.978C305.598 360.746 304.101 360.514 302.629 360.876C302.036 360.902 301.468 361.521 301.184 361.831C302.761 363.845 304.853 364.051 306.661 364.567C307.254 364.541 308.158 364.799 308.468 365.083C309.062 365.057 309.372 365.341 309.682 365.625C309.115 366.245 308.547 366.864 308.264 367.174C306.766 366.942 305.268 366.71 303.771 366.478C302.583 366.53 301.626 365.084 300.155 365.445C298.631 364.62 296.876 365.291 295.068 364.775C293.26 364.259 291.736 363.433 290.239 363.2C288.741 362.968 287.243 362.736 285.746 362.504C285.152 362.53 284.558 362.556 284.248 362.272C282.724 361.446 281.253 361.807 279.808 362.763C279.834 363.356 279.55 363.666 279.293 364.57C278.132 365.215 277.228 364.957 276.04 365.009C275.447 365.035 274.853 365.061 274.543 364.777C273.639 364.519 273.071 365.139 272.814 366.042C274.417 368.65 274.417 368.65 277.643 367.616C276.324 364.699 276.944 365.267 277.848 365.525Z" fill="#F9B605"/>
<path d="M334.117 559.578L334.469 559.808C334.469 559.808 334.469 559.808 334.821 560.038C334.469 559.808 334.469 559.808 334.117 559.578ZM-16.2239 620.73C-15.6421 620.608 -15.6421 620.608 -15.6421 620.608L-15.9941 620.378C-16.3461 620.148 -16.5759 620.5 -16.2239 620.73ZM-54.4347 623.866C-54.4347 623.866 -54.0827 624.096 -53.8529 623.744L-53.6231 623.393L-53.9751 623.163C-54.5569 623.284 -54.7867 623.636 -54.4347 623.866ZM287.916 387.378L288.498 387.257C288.498 387.257 288.498 387.257 288.146 387.027C288.376 386.675 288.376 386.675 287.916 387.378C287.794 386.797 288.146 387.027 287.916 387.378ZM178.319 676.579C178.09 676.93 178.09 676.93 178.442 677.16L178.794 677.39L179.023 677.038C178.901 676.457 178.901 676.457 178.319 676.579ZM235.435 675.256C235.679 676.419 236.613 676.527 237.195 676.406C237.195 676.406 237.425 676.054 237.655 675.702C237.655 675.702 237.532 675.121 237.18 674.891C236.599 675.012 236.017 675.134 235.435 675.256ZM249.945 680.721C250.649 681.181 251.353 681.641 252.746 681.046C251.108 680.478 251.108 680.478 249.945 680.721ZM-46.3256 425.427C-46.4479 424.845 -46.57 424.263 -46.922 424.033C-47.274 423.803 -47.626 423.573 -47.8558 423.925C-48.0856 424.277 -48.3154 424.629 -48.3154 424.629C-48.3154 424.629 -48.1931 425.21 -47.8411 425.44C-47.2594 425.318 -46.6776 425.197 -46.3256 425.427ZM14.2399 515.681C15.1737 515.789 15.5257 516.019 16.1074 515.898C16.1074 515.898 16.9189 515.424 16.5669 515.194C16.5669 515.194 16.4448 514.613 16.0928 514.383C15.3888 513.923 14.9292 514.626 14.2399 515.681ZM228.332 676.135C229.158 677.176 230.321 676.933 231.607 677.271C231.959 677.501 232.893 677.609 233.123 677.258C233.23 676.324 232.419 676.798 232.067 676.568C230.536 675.066 229.373 675.31 228.332 676.135ZM-20.0811 619.715C-20.3109 620.067 -19.8367 620.878 -19.4847 621.108C-18.903 620.987 -18.3213 620.865 -17.7395 620.743C-17.1577 620.622 -17.05 619.688 -17.402 619.458C-18.2282 618.417 -19.6216 619.012 -20.0811 619.715ZM-13.8384 626.303C-13.0122 627.345 -11.7263 627.683 -10.5628 627.439C-10.2108 627.669 -10.1033 626.736 -9.87349 626.384C-9.64371 626.033 -9.76595 625.451 -10.3477 625.573C-11.6335 625.234 -12.797 625.478 -13.8384 626.303ZM105.286 671.516C106.464 672.787 107.52 673.477 109.036 673.464C110.199 673.22 111.011 672.747 111.7 671.692C111.348 671.462 110.644 671.002 110.062 671.124C108.777 670.785 107.383 671.381 105.286 671.516ZM362.356 501.752C364.223 501.969 365.279 502.659 366.673 502.063C367.836 501.82 369 501.577 369.704 502.037C371.464 503.186 373.561 503.051 375.306 502.686C375.306 502.686 375.536 502.334 376.118 502.213C375.766 501.983 375.414 501.753 375.414 501.753C373.546 501.536 372.261 501.198 370.745 501.212C369.811 501.103 368.648 501.347 367.944 500.887C366.658 500.548 365.495 500.792 363.979 500.805C363.397 500.927 363.397 500.927 362.356 501.752ZM391.112 485.413C390.868 484.25 390.623 483.086 390.149 482.275C388.511 481.707 387.47 482.532 386.429 483.357C385.969 484.06 385.509 484.764 385.984 485.575C386.458 486.387 386.932 487.198 387.866 487.307C389.259 486.712 390.3 485.886 391.112 485.413ZM251.783 677.908C251.661 677.326 251.309 677.096 251.187 676.515C250.009 675.243 248.723 674.905 247.207 674.918C246.626 675.04 245.692 674.932 245.34 674.702C244.284 674.012 243.12 674.255 242.187 674.147L241.605 674.268C241.375 674.62 240.915 675.324 240.686 675.675C241.038 675.905 241.742 676.365 241.742 676.365C243.609 676.582 244.895 676.92 246.762 677.136C247.696 677.245 248.982 677.583 250.145 677.34C250.39 678.503 250.972 678.381 251.783 677.908ZM287.481 402.65C287.574 400.202 287.574 400.202 285.354 399.755C284.069 399.417 282.783 399.079 281.267 399.092C279.752 399.106 277.884 398.889 276.369 398.903C275.435 398.794 274.623 399.268 274.746 399.85C274.868 400.431 275.342 401.243 276.276 401.351C276.628 401.581 276.858 401.229 277.21 401.459C278.143 401.568 279.077 401.676 280.593 401.663C282.108 401.649 283.624 401.636 284.802 402.907C285.736 403.015 286.899 402.772 287.481 402.65ZM265.873 664.03C265.506 662.285 265.506 662.285 264.802 661.825C262.338 660.215 259.185 659.66 256.154 659.687C255.572 659.809 254.991 659.931 254.179 660.404C253.597 660.526 253.367 660.877 253.49 661.459C253.612 662.041 253.612 662.041 253.734 662.622C255.602 662.839 257.239 663.407 259.107 663.624C261.556 663.719 263.424 663.935 265.873 664.03ZM274.775 680.384C275.112 679.099 274.76 678.869 274.056 678.409C272.067 677.611 269.725 676.583 267.168 677.422C265.775 678.017 264.259 678.03 262.851 677.11C261.091 675.96 259.698 676.555 257.953 676.921C257.371 677.042 257.141 677.394 257.141 677.394C256.911 677.746 256.682 678.097 256.682 678.097C257.034 678.327 257.156 678.909 257.156 678.909C259.957 679.234 262.758 679.559 265.56 679.883C266.141 679.762 266.494 679.992 266.846 680.222C269.417 680.898 272.096 680.641 274.775 680.384ZM124.347 665.403C123.184 665.646 121.668 665.66 120.505 665.903C119.923 666.025 119.341 666.146 118.989 665.916C116.418 665.24 113.861 666.078 111.534 666.565C110.6 666.457 109.789 666.93 108.855 666.822C106.283 666.146 103.375 666.754 100.695 667.011C99.1799 667.025 97.4346 667.39 95.6893 667.755C95.1075 667.877 94.8778 668.228 95 668.81C94.7702 669.162 95.2444 669.973 95.8261 669.852C97.1119 670.19 98.9794 670.406 100.495 670.393C101.658 670.149 103.174 670.136 104.69 670.123C106.205 670.109 107.598 669.514 108.884 669.852C109.236 670.082 110.4 669.839 110.981 669.717C112.375 669.122 113.308 669.23 114.594 669.568C115.528 669.677 115.88 669.907 117.044 669.663C118.789 669.298 120.886 669.163 122.631 668.798C123.213 668.676 123.795 668.554 124.147 668.784C126.948 669.109 129.398 669.204 132.199 669.529C134.066 669.745 136.164 669.61 138.031 669.827C139.547 669.813 141.414 670.03 142.807 669.435C144.553 669.069 146.068 669.056 147.584 669.043C150.263 668.786 152.942 668.529 155.391 668.624C157.488 668.488 159.004 668.475 160.872 668.691C161.805 668.8 162.739 668.908 163.199 668.205C163.78 668.083 164.362 667.961 164.714 668.191C167.515 668.516 170.439 669.422 173.225 668.232C173.807 668.11 173.807 668.11 174.389 667.989C176.838 668.084 179.517 667.827 181.967 667.922C182.548 667.8 183.13 667.678 183.712 667.556C183.59 666.975 183.468 666.393 183.116 666.163C181.126 665.365 179.258 665.148 177.161 665.283C173.548 665.432 170.517 665.459 166.782 665.026C163.981 664.701 161.532 664.606 158.975 665.445C157 666.162 155.132 665.945 153.142 665.147C152.438 664.687 151.505 664.579 150.693 665.052C149.53 665.296 149.178 665.066 148.244 664.957C146.376 664.741 144.509 664.524 142.993 664.538C141.248 664.903 139.151 665.038 137.405 665.403C135.308 665.538 132.859 665.444 130.532 665.93C128.894 665.362 126.445 665.267 124.347 665.403ZM291.602 394.805C290.669 394.697 290.087 394.818 289.153 394.71C288.449 394.25 287.867 394.372 287.286 394.493C283.673 394.642 280.167 393.857 276.662 393.073C276.31 392.843 275.728 392.964 275.147 393.086C273.983 393.33 273.049 393.221 271.886 393.465C270.722 393.708 270.722 393.708 270.507 395.575C270.859 395.805 271.563 396.265 271.915 396.495C272.267 396.725 272.619 396.955 272.849 396.603C273.89 395.778 275.528 396.346 276.692 396.103C280.427 396.536 284.162 396.969 287.897 397.402C288.83 397.51 289.412 397.388 290.346 397.497C290.928 397.375 291.28 397.605 291.861 397.483C292.443 397.361 292.673 397.01 292.551 396.428C291.725 395.386 291.373 395.156 291.602 394.805ZM398.406 504.229C397.824 504.351 397.472 504.121 396.89 504.243C394.563 504.73 392.818 505.095 390.491 505.582C387.582 506.19 384.795 507.38 381.642 506.826C380.708 506.717 379.315 507.313 378.151 507.556C377.57 507.678 376.758 508.151 376.176 508.273C373.268 508.881 370.588 509.138 367.328 509.517C366.746 509.639 366.516 509.99 365.704 510.464C366.056 510.694 366.76 511.154 366.76 511.154C367.342 511.032 367.924 510.91 368.506 510.788C369.317 510.315 369.899 510.193 370.833 510.302C371.767 510.41 372.348 510.288 373.282 510.396C374.798 510.383 376.313 510.37 378.059 510.004C379.33 508.828 380.615 509.166 382.131 509.152C382.483 509.382 383.065 509.261 383.294 508.909C387.367 508.057 391.439 507.205 395.16 506.123C395.741 506.001 396.553 505.528 397.364 505.054C398.298 505.163 398.176 504.581 398.406 504.229C398.758 504.459 398.758 504.459 398.406 504.229ZM-37.1039 619.633C-36.3999 620.093 -36.048 620.323 -35.344 620.783C-34.992 621.013 -34.4102 620.891 -34.1805 620.54C-33.9507 620.188 -34.3027 619.958 -34.6547 619.728C-35.7107 619.038 -36.6444 618.93 -37.1039 619.633ZM-26.8199 453.225L-26.5901 452.874C-26.4678 453.455 -26.4679 453.455 -26.8199 453.225C-27.0496 453.577 -27.0496 453.577 -26.8199 453.225C-27.4016 453.347 -27.4017 453.347 -27.4017 453.347C-27.0497 453.577 -27.0496 453.577 -26.8199 453.225ZM280.07 685.349C279.488 685.471 278.676 685.944 277.865 686.418C278.569 686.878 279.273 687.337 279.977 687.797C279.165 688.271 278.583 688.393 278.124 689.096C276.608 689.109 276.012 687.716 274.389 688.663C273.929 689.366 275.215 689.704 275.337 690.286C275.459 690.868 275.23 691.219 275.122 692.153C274.188 692.044 273.606 692.166 272.902 691.706C271.846 691.016 271.265 691.138 270.101 691.381C268.234 691.165 266.488 691.53 264.391 691.665C264.513 692.247 264.054 692.95 264.176 693.532C263.242 693.424 262.66 693.545 261.727 693.437C261.375 693.207 261.145 693.559 260.793 693.329C259.263 691.827 257.64 692.774 256.246 693.369C255.665 693.491 255.435 693.843 255.083 693.613C252.282 693.288 250.629 691.205 248.287 690.176C247.935 689.946 247.813 689.365 247.461 689.135C246.161 687.282 244.523 686.713 242.426 686.849C240.329 686.984 238.109 686.537 236.349 685.387C235.293 684.697 234.007 684.359 232.614 684.954C232.262 684.724 231.91 684.494 231.436 683.683C229.461 684.4 227.486 685.116 225.144 684.088C223.858 683.75 222.925 683.642 221.869 682.952C219.527 681.924 217.078 681.829 214.628 681.734C211.245 681.531 207.51 681.098 204.357 680.543C202.137 680.097 200.04 680.232 197.591 680.137C195.142 680.042 192.34 679.717 189.999 678.689C190.688 677.634 191.974 677.972 192.556 677.851C195.005 677.946 197.806 678.27 200.607 678.595C201.893 678.933 203.057 678.69 204.22 678.447C206.317 678.311 208.185 678.528 210.404 678.974C213.558 679.529 217.171 679.38 220.202 679.354C220.554 679.583 220.783 679.232 220.783 679.232C221.243 678.529 220.891 678.299 220.539 678.069C219.483 677.379 218.427 676.689 217.493 676.58C217.493 676.58 217.493 676.58 217.141 676.35C215.029 674.971 212.702 675.458 210.835 675.241C207.681 674.686 204.298 674.483 201.038 674.862C200.456 674.983 200.104 674.753 199.752 674.523C196.828 673.617 193.69 674.577 190.659 674.604C189.495 674.848 188.332 675.091 186.816 675.104C185.301 675.118 183.907 675.713 182.988 677.12C182.636 676.89 182.284 676.66 181.932 676.43C181.58 676.2 180.999 676.322 180.539 677.025C180.079 677.728 180.431 677.958 181.135 678.418C180.554 678.54 180.324 678.892 179.972 678.662C177.523 678.567 174.614 679.175 172.042 678.499C169.823 678.053 168.077 678.418 166.088 677.619C165.736 677.389 165.506 677.741 165.506 677.741C163.761 678.106 162.245 678.12 160.485 676.97C158.402 678.62 156.52 676.888 154.653 676.672C154.531 676.09 155.112 675.969 155.112 675.969C155.112 675.969 155.112 675.969 155.464 676.199C157.899 674.778 160.7 675.103 163.502 675.428C164.083 675.306 164.665 675.185 165.247 675.063C166.181 675.171 166.992 674.698 167.696 675.158C168.63 675.266 169.793 675.022 170.375 674.901C170.957 674.779 172.121 674.536 172.81 673.481C172.458 673.251 172.688 672.899 172.336 672.669C170.928 671.749 169.06 671.533 167.545 671.546C164.636 672.155 161.835 671.83 158.804 671.857C156.706 671.992 154.839 671.775 152.971 671.559L153.201 671.207C153.201 671.207 152.849 670.977 152.497 670.747C152.497 670.747 152.497 670.747 152.267 671.099L152.389 671.68L152.741 671.91C152.16 672.032 151.93 672.384 151.578 672.154C149.94 671.586 148.195 671.951 146.801 672.546C145.408 673.141 144.245 673.385 143.311 673.276C142.377 673.168 141.214 673.411 140.05 673.655C140.05 673.655 139.82 674.006 139.239 674.128C139.591 674.358 139.942 674.588 140.294 674.818C142.162 675.035 143.8 675.603 145.315 675.589C145.897 675.468 146.831 675.576 147.412 675.454C149.158 675.089 151.025 675.306 152.663 675.874L153.015 676.104C151.974 676.929 150.566 676.009 149.524 676.834C148.943 676.956 148.361 677.078 148.361 677.078C148.024 678.363 147.09 678.254 146.156 678.146C144.166 677.348 142.421 677.713 140.324 677.848C139.742 677.97 138.808 677.862 138.456 677.632C138.104 677.402 137.523 677.523 137.293 677.875C135.318 678.592 133.22 678.727 131.001 678.281C130.067 678.172 128.904 678.416 127.97 678.307C127.388 678.429 127.266 677.848 126.914 677.618C126.562 677.388 125.628 677.279 125.276 677.049C126.44 676.806 127.251 676.333 128.185 676.441C128.17 674.926 128.048 674.344 127.466 674.466C126.181 674.128 125.017 674.371 123.502 674.384C122.568 674.276 121.756 674.75 120.7 674.06C120.7 674.06 120.348 673.83 120.119 674.181C118.373 674.546 116.628 674.912 114.76 674.695C113.137 675.642 112.081 674.952 110.673 674.032C109.632 674.857 110.566 674.965 110.688 675.547C109.173 675.56 108.009 675.804 106.723 675.466C105.789 675.357 104.856 675.249 104.382 674.438C104.03 674.208 103.677 673.978 103.096 674.099C102.284 674.573 100.998 674.234 100.187 674.708C99.6051 674.83 99.0233 674.951 98.5491 674.14C99.1309 674.018 99.131 674.018 99.7127 673.896C101.106 673.301 101.214 672.368 100.617 670.975C98.8718 671.34 97.0043 671.123 95.259 671.488C92.932 671.975 91.2943 671.407 89.4121 669.675C88.9379 668.864 88.0041 668.755 87.1926 669.229C86.9628 669.581 86.7331 669.932 86.5033 670.284C86.8553 670.514 87.2073 670.744 87.2073 670.744L86.9775 671.096C86.3957 671.217 85.8139 671.339 85.4619 671.109C84.5281 671.001 83.9464 671.122 83.0126 671.014C81.8491 671.258 80.3336 671.271 79.0479 670.933C77.7621 670.595 76.8284 670.486 75.5426 670.148C74.2569 669.81 73.2156 670.635 72.0521 670.878C71.1183 670.77 69.9547 671.014 69.2507 670.554C67.613 669.985 65.8678 670.351 64.4745 670.946C63.9856 668.619 63.6336 668.389 61.6585 669.106C61.4287 669.458 61.0767 669.228 61.0767 669.228C61.0767 669.228 61.3065 668.876 60.9546 668.646L60.3728 668.768C59.2092 669.011 58.2754 668.903 57.1119 669.146C55.5964 669.16 54.5404 668.47 53.4845 667.78C53.1325 667.55 53.0102 666.968 53.24 666.617C53.1178 666.035 53.2254 665.102 53.333 664.168C54.1445 663.695 54.604 662.991 55.4156 662.518C55.6454 662.166 55.7529 661.233 54.8192 661.125C54.4672 660.895 54.4672 660.895 53.8854 661.016C52.3699 661.03 50.8544 661.043 49.6909 661.287C48.2976 661.882 47.0118 661.544 46.1856 660.502C44.0883 660.637 42.343 661.002 40.3533 660.204C38.0262 660.691 35.4548 660.014 32.8979 660.853C33.1277 660.501 33.0054 659.92 33.2352 659.568C33.113 658.986 32.7611 658.756 32.2869 657.945C31.0011 657.606 29.4856 657.62 28.1999 657.282C28.0777 656.7 28.3074 656.348 28.1852 655.767C28.063 655.185 27.5888 654.373 27.007 654.495C26.0733 654.387 25.2617 654.86 24.7875 654.049C26.7626 653.332 28.8598 653.197 30.8496 653.995C32.8393 654.793 34.9367 654.658 36.8042 654.874C37.3859 654.753 38.3196 654.861 38.5494 654.509C39.8205 653.332 40.7543 653.441 42.0401 653.779C43.9076 653.995 46.0049 653.86 47.7355 651.98C48.1951 651.277 48.0729 650.695 47.3689 650.235C46.3129 649.545 45.3791 649.437 44.3231 648.747C43.7414 648.869 42.9299 649.342 42.3481 649.464C40.1432 650.532 37.9238 650.086 35.8118 648.706C35.4598 648.476 34.7559 648.016 34.1742 648.138C33.5924 648.259 33.3625 648.611 32.551 649.085C32.3212 649.436 32.3212 649.436 32.0914 649.788C31.7394 649.558 31.7394 649.558 31.3874 649.328C30.439 647.705 28.9235 647.718 27.1782 648.083C26.5964 648.205 26.3667 648.557 25.785 648.678C25.2032 648.8 24.9733 649.152 24.6213 648.922C22.0499 648.245 20.0894 650.477 17.9921 650.612L17.5326 651.316C17.5326 651.316 18.0068 652.127 18.2366 651.776C19.1703 651.884 20.1041 651.992 20.9156 651.519C21.4974 651.397 22.0791 651.275 22.6609 651.154C22.9053 652.317 23.3795 653.129 23.272 654.062C21.1747 654.197 18.9553 653.751 16.9802 654.468C16.3984 654.589 16.0464 654.359 15.1127 654.251C13.5971 654.264 12.0815 654.278 10.7958 653.94C9.86204 653.831 9.05054 654.305 8.22436 653.263L7.29061 653.155C6.47906 653.628 5.43775 654.453 4.62621 654.927C4.04444 655.049 3.34033 654.589 2.75857 654.71C1.94702 655.184 1.13557 655.657 0.324028 656.13C-0.379951 655.671 -1.31372 655.562 -1.89548 655.684C-1.43593 654.981 -1.32835 654.047 -0.5168 653.574C0.754303 652.397 0.739685 650.882 0.602837 648.785C0.588196 647.27 0.343735 646.107 0.329094 644.592C-0.374886 644.132 -1.0789 643.672 -1.89044 644.146C-3.28375 644.741 -4.67709 645.336 -6.42239 645.701C-7.47836 645.011 -6.55925 643.604 -7.03345 642.793C-7.73743 642.333 -8.44132 641.873 -9.49729 641.183C-8.93016 639.546 -8.94479 638.031 -6.96971 637.314C-6.38795 637.193 -6.51016 636.611 -5.9284 636.489C-6.5248 635.096 -7.8106 634.758 -8.51458 634.298C-8.63679 633.716 -8.75892 633.134 -8.88113 632.553C-8.43621 630.334 -10.1962 629.184 -11.8339 628.616C-13.1197 628.278 -14.5276 627.358 -15.5836 626.668C-16.2876 626.208 -17.5734 625.87 -18.1551 625.992C-19.9004 626.357 -21.4159 626.37 -22.687 627.547C-23.7283 628.372 -25.8256 628.507 -26.9891 628.751C-29.1011 627.371 -28.3042 625.382 -29.2526 623.759C-28.3189 623.867 -27.1553 623.624 -26.5735 623.502C-26.114 622.799 -26.0064 621.866 -24.4909 621.852C-23.9091 621.73 -23.6793 621.379 -23.5717 620.445C-23.4641 619.512 -23.8162 619.282 -24.5201 618.822C-25.2241 618.362 -25.8059 618.484 -26.5098 618.024C-28.1476 617.456 -29.3111 617.699 -30.7044 618.294C-31.516 618.768 -32.0978 618.889 -32.6795 619.011C-33.8431 619.255 -34.3026 619.958 -35.6959 620.553C-36.6297 620.445 -37.3337 619.985 -38.6194 619.647C-39.5386 621.053 -41.2839 621.418 -42.9216 620.85C-43.6256 620.39 -44.2074 620.512 -45.1411 620.404C-47.3606 619.957 -47.9423 620.079 -49.673 621.959C-49.4286 623.122 -48.9544 623.934 -48.358 625.327C-49.3993 626.152 -50.0886 627.207 -50.9001 627.681C-50.6557 628.844 -50.1816 629.656 -49.7074 630.468C-49.2332 631.279 -48.407 632.321 -47.9328 633.132C-47.1066 634.174 -46.4027 634.634 -45.2245 635.906C-45.1023 636.487 -44.98 637.069 -44.628 637.299C-44.5058 637.88 -44.1539 638.11 -44.0317 638.692C-44.4912 639.396 -44.9508 640.099 -45.0584 641.032C-46.6961 640.464 -48.104 639.544 -48.4707 637.799C-48.4707 637.799 -48.5928 637.218 -48.9448 636.988C-50.2305 636.649 -50.475 635.486 -50.7194 634.323C-50.8416 633.741 -51.5456 633.281 -51.6678 632.699C-52.7237 632.009 -53.5499 630.968 -54.6059 630.278C-54.9578 630.048 -55.3099 629.818 -55.6619 629.588C-56.9477 629.25 -57.7738 628.208 -58.8298 627.518C-59.5338 627.058 -59.656 626.477 -60.1302 625.665C-59.6706 624.962 -58.8591 624.488 -58.6293 624.136C-58.3995 623.785 -58.8737 622.973 -58.9959 622.391C-58.7662 622.04 -58.4142 622.27 -58.1844 621.918C-56.6689 621.905 -56.4391 621.553 -56.4537 620.038C-56.3461 619.105 -56.2386 618.171 -55.779 617.468C-54.8599 616.061 -53.8186 615.236 -52.8995 613.829C-53.0217 613.247 -53.8478 612.206 -53.1585 611.151C-52.9287 610.799 -53.051 610.218 -53.403 609.988C-54.2292 608.946 -54.4735 607.783 -54.366 606.849C-54.4882 606.268 -54.6104 605.686 -55.1922 605.808C-55.8962 605.348 -56.3556 606.051 -56.5854 606.403C-56.8152 606.754 -56.9229 607.688 -57.1527 608.04C-57.3824 608.391 -57.6122 608.743 -57.7198 609.676C-59.9393 609.23 -60.5356 607.836 -61.484 606.213C-61.9582 605.401 -61.8506 604.468 -62.095 603.305C-61.4057 602.25 -61.4058 602.25 -61.8947 599.923C-64.6959 599.598 -67.4972 599.274 -70.5282 599.3C-70.8802 599.07 -71.3544 598.259 -71.7063 598.029C-72.8845 596.757 -73.4663 596.879 -74.8596 597.474C-75.0894 597.826 -75.6712 597.948 -75.901 598.299C-76.957 597.609 -78.3649 596.689 -80.2178 597.988C-80.1102 597.055 -79.8804 596.703 -79.8804 596.703C-78.6093 595.526 -77.4604 593.768 -75.4853 593.051C-74.9035 592.929 -74.6738 592.577 -74.444 592.226C-72.5911 590.927 -71.672 589.52 -71.2271 587.302C-71.1195 586.369 -71.2417 585.787 -71.1341 584.854C-69.6332 583.325 -68.0101 582.378 -66.0351 581.662C-64.6417 581.067 -63.0187 580.12 -61.9773 579.295C-60.7062 578.118 -59.6649 577.293 -57.9196 576.928C-57.3378 576.806 -56.5263 576.332 -56.0668 575.629C-54.7957 574.452 -54.9324 572.356 -54.0133 570.949C-53.5538 570.245 -53.7982 569.082 -54.3946 567.689L-54.5169 567.107C-53.72 565.119 -52.4488 563.942 -50.9479 562.413C-50.4884 561.71 -49.3248 561.467 -48.3911 561.575C-47.4573 561.683 -46.5235 561.791 -45.008 561.778C-42.5587 561.873 -40.5837 561.156 -39.205 559.046C-38.9753 558.694 -38.9752 558.694 -38.7455 558.343C-38.7455 558.343 -38.7454 558.342 -38.5157 557.991C-38.9899 557.179 -39.2343 556.016 -39.7085 555.204C-38.3152 554.609 -37.1517 554.366 -36.3402 553.892C-35.6508 552.837 -36.7068 552.147 -36.5992 551.214C-36.3694 550.862 -36.0174 551.092 -35.7876 550.741L-36.0174 551.092C-35.4356 550.971 -34.7317 551.43 -34.3797 551.66C-34.0277 551.89 -34.0276 551.89 -33.6757 552.12C-33.4459 551.769 -33.4458 551.769 -33.2161 551.417C-32.1747 550.592 -31.3486 551.633 -30.3072 550.808C-30.0775 550.457 -29.6179 549.753 -30.0921 548.942C-30.9183 547.9 -31.8521 547.792 -33.1378 547.454C-33.7196 547.575 -33.7197 547.575 -34.3014 547.697C-35.9245 548.644 -37.8996 549.361 -39.2929 549.956C-40.6862 550.551 -42.2017 550.564 -43.7172 550.578C-44.651 550.47 -45.355 550.01 -45.8292 549.198C-46.1812 548.968 -46.4109 549.32 -46.7629 549.09L-46.8851 548.508C-45.3842 546.98 -45.7509 545.234 -45.1838 543.598C-44.602 543.476 -44.602 543.476 -44.0202 543.354C-43.0865 543.463 -42.9789 542.529 -42.5193 541.826C-41.5856 541.934 -40.8816 542.394 -39.8403 541.569C-39.8403 541.569 -39.4883 541.799 -39.2585 541.447C-39.2585 541.447 -39.2585 541.447 -39.6105 541.217C-39.6105 541.217 -39.8403 541.569 -40.1923 541.339C-40.5443 541.109 -40.6664 540.528 -41.0184 540.298C-40.4367 540.176 -39.8549 540.054 -39.2731 539.932C-38.6914 539.811 -38.4616 539.459 -38.002 538.756C-37.5424 538.052 -36.8531 536.997 -35.5674 537.335C-34.9856 537.214 -34.4039 537.092 -34.1741 536.74C-34.0665 535.807 -33.9589 534.874 -34.2033 533.71C-34.2033 533.71 -33.8514 533.94 -33.6216 533.588L-33.8514 533.94C-34.2034 533.71 -34.2033 533.71 -34.3255 533.129C-34.4477 532.547 -34.7998 532.317 -35.6114 532.79C-35.6114 532.79 -35.9633 532.56 -36.1931 532.912C-35.9633 532.56 -35.1518 532.087 -34.9221 531.735C-34.3403 531.614 -33.7584 531.492 -33.5287 531.14C-33.3135 529.273 -33.3136 529.273 -31.9202 528.678C-31.1087 528.205 -30.4194 527.15 -29.4856 527.258C-28.9039 527.136 -28.9185 525.621 -29.5002 525.743C-30.434 525.635 -31.2602 524.593 -31.3824 524.012C-31.1526 523.66 -30.6931 522.957 -30.4633 522.605C-30.1113 522.835 -30.1113 522.835 -29.7593 523.065C-29.2851 523.876 -28.8109 524.688 -27.4176 524.093C-27.1879 523.741 -27.5397 523.511 -27.0802 522.808C-26.1464 522.916 -25.2127 523.024 -23.927 523.363C-23.2377 522.308 -23.7118 521.496 -23.834 520.914C-23.6042 520.563 -23.1447 519.859 -22.9149 519.508C-22.6851 519.156 -22.3331 519.386 -22.3331 519.386C-20.8176 519.372 -19.5465 518.196 -18.6274 516.789C-18.1678 516.085 -18.994 515.044 -19.5757 515.166C-21.321 515.531 -23.0811 514.381 -24.7188 513.813C-25.6526 513.704 -26.8014 515.463 -28.5614 514.313C-27.6423 512.906 -26.601 512.081 -24.7334 512.298C-24.1663 510.661 -26.9675 510.336 -26.0484 508.929C-24.7627 509.268 -23.7068 509.957 -23.4623 511.121C-23.3401 511.702 -22.6361 512.162 -22.1765 511.459C-22.2987 510.877 -22.421 510.296 -22.3134 509.362C-22.4357 508.781 -22.2058 508.429 -22.5578 508.199C-24.3177 507.049 -24.2249 504.601 -25.7551 503.099C-26.1071 502.869 -25.9995 501.936 -25.4177 501.814C-24.484 501.922 -23.9021 501.801 -22.8608 500.976C-22.631 500.624 -21.8195 500.151 -21.2377 500.029C-22.3083 497.824 -23.7309 495.389 -25.8428 494.009C-26.1948 493.779 -26.5469 493.549 -27.1286 493.671C-28.6441 493.684 -30.5117 493.468 -31.7974 493.13C-32.1494 492.9 -32.7312 493.021 -33.3129 493.143C-35.0582 493.508 -36.1142 492.818 -36.4808 491.073C-36.603 490.492 -36.8474 489.328 -37.0918 488.165C-36.8621 487.813 -36.4026 487.11 -35.591 486.637C-35.7132 486.055 -36.0652 485.825 -36.1874 485.243C-40.4895 486.447 -45.0215 488.002 -49.6756 488.976C-49.9201 487.813 -50.1644 486.649 -50.4088 485.486C-51.5723 485.729 -53.0879 485.743 -53.6696 485.865C-54.0216 485.635 -54.0217 485.635 -54.3737 485.405C-54.6181 484.241 -54.7403 483.66 -54.9847 482.496C-55.2291 481.333 -56.3927 481.576 -56.6372 480.413C-56.7594 479.831 -58.045 479.493 -58.5192 478.682C-58.4116 477.748 -57.6001 477.275 -56.9107 476.22C-56.4512 475.516 -55.6397 475.043 -55.1801 474.339C-54.261 472.933 -53.2196 472.108 -51.4743 471.743C-48.5801 469.619 -45.3193 469.24 -42.1807 468.28C-41.5989 468.158 -41.0172 468.037 -40.9096 467.103C-39.9905 465.697 -38.9492 464.872 -37.2039 464.506C-37.2039 464.506 -36.9741 464.155 -36.6221 464.385C-35.2287 463.79 -34.8915 462.505 -35.7177 461.463C-36.0697 461.233 -36.1918 460.651 -36.5438 460.421C-36.314 460.07 -35.9621 460.299 -35.7323 459.948C-35.395 458.663 -34.7057 457.608 -33.8941 457.134C-33.9088 455.619 -34.2753 453.874 -34.29 452.359C-35.3459 451.669 -36.4019 450.98 -37.3503 449.356C-37.1205 449.005 -36.8907 448.653 -36.309 448.531C-35.7272 448.409 -34.5636 448.166 -33.9818 448.044C-32.8183 447.801 -32.0069 447.327 -31.5473 446.624C-31.6695 446.042 -31.7917 445.461 -32.2659 444.649C-31.4543 444.176 -30.8725 444.054 -30.6427 443.702C-30.1832 442.999 -30.9018 441.024 -31.6058 440.564C-31.9578 440.334 -32.3098 440.104 -32.5396 440.456C-33.9329 441.051 -35.3408 440.131 -36.167 439.089C-36.6412 438.278 -37.6973 437.588 -38.1715 436.776C-38.7532 436.898 -39.6868 436.79 -40.2686 436.911C-41.0948 435.87 -40.9872 434.936 -41.1094 434.355C-40.6499 433.651 -39.946 434.111 -39.3642 433.99C-37.6189 433.624 -36.2256 433.029 -34.4656 434.179C-34.1136 434.409 -33.5319 434.287 -32.9501 434.166C-31.7866 433.922 -30.8528 434.031 -29.6893 433.787C-29.1075 433.665 -28.296 433.192 -27.7142 433.07C-27.0249 432.015 -29.0146 431.217 -27.2693 430.852C-27.6213 430.622 -27.3915 430.27 -27.7435 430.04C-28.7995 429.35 -30.0852 429.012 -31.2487 429.256C-33.698 429.161 -35.7953 429.296 -38.137 428.268C-40.4787 427.24 -42.9281 427.145 -45.6072 427.402C-46.5409 427.293 -47.4746 427.185 -48.4083 427.077C-49.6941 426.739 -50.398 426.279 -51.6838 425.94C-52.6175 425.832 -52.9695 425.602 -53.6735 425.142C-53.4437 424.791 -52.862 424.669 -53.2139 424.439C-53.5806 422.694 -52.7837 420.705 -54.0841 418.852C-55.1401 418.162 -56.1961 417.472 -57.2374 418.297C-58.2787 419.122 -58.7381 419.826 -58.2493 422.153C-59.183 422.044 -59.7648 422.166 -60.0092 421.003C-60.1314 420.421 -60.2538 419.839 -60.6058 419.609C-60.728 419.028 -60.8502 418.446 -60.9724 417.864C-60.5128 417.161 -60.0533 416.458 -59.5937 415.754C-59.1342 415.051 -58.6747 414.347 -58.9191 413.184C-59.0413 412.602 -58.8113 412.251 -58.9335 411.669C-58.7184 409.802 -58.1514 408.166 -57.0026 406.407C-55.0421 404.175 -53.0816 401.944 -50.9989 400.293C-48.6865 398.292 -46.9558 396.411 -44.6434 394.41C-43.6021 393.584 -42.5608 392.759 -41.5195 391.934C-39.0849 390.514 -37.0022 388.864 -34.5676 387.444C-32.4849 385.793 -29.6982 384.603 -27.8453 383.305C-24.5991 381.411 -21.1085 380.681 -17.7401 379.369C-15.5352 378.3 -13.3305 377.232 -11.1256 376.163C-8.691 374.743 -5.78218 374.135 -2.87334 373.526C0.0354919 372.917 2.2405 371.849 4.67514 370.429C4.90492 370.077 5.25677 370.307 5.48656 369.955C7.21722 368.075 7.21731 368.075 9.19239 367.358C9.42217 367.007 9.29995 366.425 9.29995 366.425C9.40752 365.492 9.86713 364.788 11.0307 364.545C12.1942 364.301 13.5875 363.706 14.6288 362.881C15.4403 362.408 15.6701 362.056 15.7777 361.123C15.8853 360.189 16.6967 359.716 17.2785 359.594C18.442 359.351 19.2536 358.877 20.4171 358.634C22.7442 358.147 25.4233 357.89 27.6428 358.337C27.9948 358.567 28.2246 358.215 28.5766 358.445C30.2143 359.013 31.9595 358.648 33.475 358.635C35.2203 358.27 37.0879 358.486 38.8332 358.121C41.5123 357.864 43.9616 357.959 46.1665 356.89C48.386 357.337 50.009 356.39 52.1063 356.255C54.2036 356.12 55.9489 355.754 57.6942 355.389C60.603 354.781 63.5118 354.172 66.4207 353.564C68.7478 353.077 71.4269 352.82 73.9837 351.981C74.7953 351.508 75.8512 352.198 76.8925 351.373C77.7041 350.899 78.8676 350.656 80.0312 350.413C81.1947 350.169 82.0063 349.696 83.1698 349.452C83.7516 349.331 84.3333 349.209 84.915 349.087C87.5941 348.83 89.799 347.762 92.1261 347.275C97.1176 345.016 102.598 345.084 107.604 344.34C110.865 343.962 114.126 343.583 117.386 343.205C118.428 342.38 119.836 343.299 121.229 342.704C122.27 341.879 123.908 342.447 125.072 342.204C126.235 341.961 127.751 341.947 128.914 341.704C130.078 341.46 131.241 341.217 132.053 340.743C134.258 339.675 136.585 339.188 138.682 339.053C141.943 338.674 144.852 338.066 147.883 338.039C148.802 336.632 149.843 335.807 151.359 335.793C154.62 335.415 158.11 334.685 161.371 334.306C161.723 334.536 161.953 334.184 162.305 334.414C165.566 334.036 169.178 333.887 172.439 333.508C175.118 333.252 177.797 332.995 180.247 333.09C180.951 333.549 181.41 332.846 181.992 332.724C182.114 333.306 182.114 333.306 182.696 333.184C182.926 332.833 182.926 332.833 183.155 332.481C186.998 331.981 190.611 331.832 194.806 331.562C199.582 331.17 204.236 330.196 209.135 330.386C210.068 330.494 211.462 329.899 212.625 329.655C213.789 329.412 214.37 329.29 215.304 329.398C216.468 329.155 217.753 329.493 219.269 329.48C222.53 329.101 225.913 329.304 229.526 329.156C232.557 329.129 235.818 328.75 238.849 328.723C240.946 328.588 243.043 328.453 245.263 328.899C246.196 329.008 247.482 329.346 248.416 329.454C248.998 329.332 249.702 329.792 249.931 329.441C250.973 328.616 251.677 329.076 252.611 329.184C254.478 329.4 254.478 329.4 254.033 331.619C253.221 332.092 252.288 331.984 251.476 332.457C250.083 333.052 248.797 332.714 247.389 331.794C247.037 331.564 246.333 331.104 245.751 331.226C243.424 331.713 240.975 331.618 238.648 332.105C238.648 332.105 238.648 332.105 238.066 332.227C237.607 332.93 237.377 333.282 237.269 334.215C237.621 334.445 237.621 334.445 237.973 334.675C241.708 335.108 245.091 335.311 248.826 335.744C251.276 335.839 253.265 336.637 255.715 336.732C257.582 336.949 259.45 337.165 261.317 337.382C262.251 337.49 262.603 337.72 263.537 337.828C263.307 338.18 263.307 338.18 263.077 338.531C262.848 338.883 262.618 339.235 262.97 339.465C263.092 340.047 263.444 340.276 263.796 340.506C264.148 340.736 264.73 340.615 265.082 340.845C267.301 341.291 269.169 341.508 270.821 343.591C271.051 343.239 271.862 342.766 272.092 342.414C275.245 342.969 278.399 343.524 282.134 343.957C282.715 343.835 283.419 344.295 284.123 344.755C284.827 345.215 284.95 345.796 285.654 346.256C286.006 346.486 286.939 346.595 287.643 347.055C287.061 347.176 286.832 347.528 286.602 347.88C285.79 348.353 285.209 348.475 285.101 349.408C285.223 349.99 284.764 350.693 284.182 350.815C282.437 351.18 282.329 352.113 281.992 353.398C281.762 353.75 281.532 354.102 281.654 354.684C281.899 355.847 282.955 356.537 283.781 357.578C284.133 357.808 284.485 358.038 285.067 357.917C286.352 358.255 287.286 358.363 288.45 358.12C289.031 357.998 289.735 358.458 290.087 358.688C290.791 359.148 290.791 359.148 290.576 361.015C288.831 361.38 287.438 361.975 287.223 363.842C287.007 365.708 286.792 367.575 289.134 368.603C287.618 368.617 287.037 368.738 286.225 369.212C284.832 369.807 284.494 371.092 285.55 371.782C286.606 372.472 288.014 373.392 289.53 373.378C290.816 373.716 291.979 373.473 293.495 373.459C293.847 373.689 294.199 373.919 294.673 374.731C294.443 375.083 294.795 375.313 294.795 375.313C293.524 376.49 292.835 377.545 291.563 378.721C292.742 379.993 292.756 381.508 292.189 383.145C291.959 383.496 291.5 384.2 291.148 383.97C289.984 384.213 289.295 385.268 288.606 386.323C288.728 386.905 288.85 387.487 288.972 388.068C292.6 389.435 296.105 390.219 299.84 390.652C300.774 390.761 302.289 390.747 303.223 390.856C303.345 391.437 303.115 391.789 302.763 391.559C301.83 391.451 301.248 391.572 300.314 391.464C298.799 391.478 297.635 391.721 296.946 392.776C297.068 393.358 296.96 394.291 297.083 394.873C296.853 395.224 296.393 395.928 295.812 396.05C294.648 396.293 294.188 396.996 294.081 397.93C293.851 398.281 293.621 398.633 293.392 398.985C292.458 398.876 291.294 399.12 290.712 399.242C289.779 399.133 288.967 399.607 288.508 400.31C288.048 401.013 288.17 401.595 288.415 402.758C289.7 403.097 290.986 403.435 292.028 402.61C293.069 401.785 294.584 401.771 295.64 402.461C297.048 403.381 298.442 402.786 299.483 401.961C300.417 402.069 300.769 402.299 301.702 402.407C302.406 402.867 302.988 402.746 304.152 402.502C305.315 402.259 306.249 402.367 307.535 402.705C310.918 402.908 314.071 403.463 317.454 403.666C318.388 403.775 319.199 403.301 320.133 403.409C321.067 403.518 321.878 403.044 322.705 404.086C323.057 404.316 323.638 404.194 323.638 404.194C325.843 403.126 328.415 403.802 330.512 403.667C334.125 403.518 337.508 403.721 340.891 403.924C341.825 404.033 342.988 403.789 344.152 403.546C344.733 403.424 345.897 403.181 346.479 403.059C347.061 402.937 347.413 403.167 347.872 402.464C348.102 402.112 348.684 401.99 349.036 402.22C350.321 402.559 351.959 403.127 353.597 403.695C355.235 404.263 356.52 404.602 358.036 404.588C358.97 404.696 360.133 404.453 361.189 405.143C360.959 405.495 360.73 405.846 359.918 406.32C361.57 408.403 362.871 410.256 365.902 410.229C366.024 410.811 366.498 411.623 366.62 412.204C367.324 412.664 368.258 412.772 368.84 412.651C369.422 412.529 370.126 412.989 370.248 413.571C370.722 414.382 371.074 414.612 372.008 414.72C373.294 415.059 374.227 415.167 375.053 416.209C375.298 417.372 374.838 418.075 374.027 418.549C372.756 419.725 372.066 420.781 371.851 422.647C371.744 423.581 371.284 424.284 370.243 425.109C368.39 426.408 368.512 426.989 369.231 428.964C369.353 429.546 369.827 430.357 370.409 430.236C371.113 430.696 372.047 430.804 372.628 430.682C372.98 430.912 373.562 430.791 374.144 430.669C376.945 430.994 376.838 431.927 376.852 433.442C376.975 434.024 376.975 434.024 377.097 434.605C378.749 436.689 380.509 437.838 383.188 437.581C383.77 437.46 384.122 437.69 384.474 437.92C385.882 438.84 387.168 439.178 388.805 439.746C391.025 440.193 392.433 441.112 392.922 443.439C393.396 444.251 393.518 444.832 394.574 445.522C395.278 445.982 395.17 446.916 394.359 447.389C393.317 448.214 391.924 448.809 390.761 449.053C389.949 449.526 389.49 450.229 389.382 451.163C389.274 452.096 388.815 452.8 388.355 453.503C387.788 455.14 388.033 456.303 389.441 457.223C390.848 458.143 392.134 458.481 393.542 459.401C394.246 459.861 394.598 460.091 395.302 460.551C396.128 461.592 397.536 462.512 398.592 463.202C398.944 463.432 399.648 463.892 400.122 464.704C400.841 466.679 402.019 467.95 402.156 470.047C402.4 471.21 402.645 472.374 403.701 473.064C404.053 473.294 404.175 473.875 404.297 474.457C403.852 476.675 402.581 477.852 400.836 478.217C400.024 478.691 399.213 479.164 398.401 479.637C397.59 480.111 396.426 480.354 395.492 480.246C394.329 480.489 393.517 480.963 392.246 482.14C394.358 483.519 396.011 485.603 398.919 484.994C399.623 485.454 399.746 486.036 400.098 486.266C399.638 486.969 399.408 487.321 399.178 487.672C398.489 488.727 397.448 489.553 397.11 490.838C396.773 492.123 395.961 492.596 394.92 493.421C391.322 495.085 387.602 496.167 384.003 497.83C383.192 498.304 381.906 497.966 381.095 498.439C379.931 498.682 379.472 499.386 380.298 500.427C380.42 501.009 381.124 501.469 381.476 501.699C384.507 501.672 387.049 499.318 390.202 499.873C390.095 500.807 390.339 501.97 390.232 502.903C390.814 502.782 391.165 503.012 391.747 502.89C394.074 502.403 396.049 501.686 398.147 501.551C399.31 501.308 400.122 500.834 400.459 499.549C400.919 498.846 401.148 498.494 401.608 497.791C401.838 497.439 402.068 497.087 401.945 496.506C402.053 495.572 402.635 495.451 403.446 494.977C404.028 494.856 404.732 495.316 404.854 495.897C405.328 496.709 405.573 497.872 405.817 499.035C404.546 500.212 404.561 501.727 402.938 502.674C402.708 503.026 402.248 503.729 402.37 504.311C402.737 506.056 401.466 507.233 400.425 508.058C400.425 508.058 400.425 508.058 400.195 508.409C400.791 509.803 399.75 510.628 399.765 512.143C400.117 512.373 400.239 512.954 400.591 513.184C402.243 515.268 402.243 515.268 404.922 515.011C404.815 515.944 404.233 516.066 403.651 516.187C401.906 516.553 400.742 516.796 398.997 517.161C396.088 517.77 393.179 518.378 389.919 518.757C386.428 519.487 383.167 519.866 380.029 520.826C379.447 520.948 379.217 521.299 379.217 521.299C378.987 521.651 379.339 521.881 379.691 522.111C380.395 522.571 381.099 523.031 382.033 523.139C382.385 523.369 383.089 523.829 383.671 523.707C383.793 524.289 383.793 524.289 383.563 524.641C383.685 525.222 383.807 525.804 383.93 526.386C384.404 527.197 385.338 527.306 385.919 527.184C387.083 526.94 387.894 526.467 389.058 526.224C389.87 525.75 390.803 525.858 391.615 525.385C393.36 525.02 394.876 525.006 396.621 524.641C398.366 524.276 399.637 523.099 401.031 522.504C401.842 522.031 402.654 521.558 403.71 522.247C404.536 523.289 404.428 524.222 403.969 524.926C403.509 525.629 402.927 525.751 401.994 525.643C400.83 525.886 399.667 526.13 398.503 526.373C396.758 526.738 395.135 527.685 393.497 527.117C392.915 527.238 392.333 527.36 391.752 527.482C391.17 527.604 390.588 527.725 390.006 527.847C388.369 527.279 387.327 528.104 385.934 528.699C384.77 528.942 384.081 529.997 384.326 531.161C384.218 532.094 384.462 533.257 384.707 534.421C384.951 535.584 385.655 536.044 386.711 536.734C386.726 538.249 386.036 539.304 384.995 540.129C383.954 540.954 382.331 541.901 380.693 541.333C379.759 541.224 379.177 541.346 378.244 541.238C376.146 541.373 374.631 541.387 372.871 540.237C372.519 540.007 371.937 540.128 371.585 539.898C368.202 539.695 364.819 539.492 361.436 539.289C359.569 539.073 357.823 539.438 355.956 539.221C351.639 538.91 347.444 539.18 343.25 539.451C341.153 539.586 339.055 539.721 336.85 540.79C336.269 540.911 336.039 541.263 335.579 541.966C337.109 543.468 338.869 544.618 341.196 544.131C342.712 544.117 344.105 543.522 345.284 544.794C344.702 544.916 343.538 545.159 342.956 545.281C341.441 545.294 339.696 545.659 338.18 545.673C335.501 545.93 332.944 546.768 330.265 547.025C328.168 547.16 326.193 547.877 324.218 548.594C322.824 549.189 321.431 549.784 319.915 549.798C318.752 550.041 318.752 550.041 317.481 551.218C317.603 551.8 317.955 552.029 318.889 552.138C322.272 552.341 325.885 552.192 329.375 551.462C331.121 551.097 332.636 551.083 334.029 550.488C334.611 550.367 335.193 550.245 335.545 550.475C337.412 550.691 339.158 550.326 341.255 550.191C343.934 549.934 346.261 549.447 348.833 550.124C348.955 550.705 348.373 550.827 348.373 550.827C346.046 551.314 343.719 551.801 341.392 552.288C340.81 552.409 340.228 552.531 339.295 552.423C336.845 552.328 334.518 552.815 332.436 554.465C332.206 554.817 331.042 555.06 330.461 555.182C330.231 555.534 330.001 555.885 329.419 556.007C329.312 556.94 330.245 557.049 330.827 556.927C332.343 556.913 334.088 556.548 335.252 556.305C336.645 555.71 338.16 555.696 339.446 556.035C340.38 556.143 341.543 555.899 342.477 556.008C343.059 555.886 343.411 556.116 344.115 556.576C343.074 557.401 341.558 557.414 340.746 557.888C339.583 558.131 338.419 558.375 337.73 559.43C337.852 560.011 338.204 560.241 338.786 560.12C339.72 560.228 340.302 560.106 340.883 559.984C342.399 559.971 344.144 559.606 346.012 559.822C346.945 559.931 347.527 559.809 348.691 559.566C350.788 559.43 352.533 559.065 354.279 558.7C357.891 558.551 361.03 557.591 364.643 557.443C365.225 557.321 366.388 557.077 367.092 557.537C367.444 557.767 367.796 557.997 367.566 558.349C367.689 558.931 367.459 559.282 367.229 559.634C366.999 559.986 366.417 560.107 365.836 560.229C362.575 560.608 359.559 562.15 356.298 562.528C355.134 562.772 353.971 563.015 352.929 563.84C352.118 564.314 350.954 564.557 350.372 564.679C349.209 564.922 347.464 565.287 345.948 565.301C344.432 565.314 343.391 566.139 342.472 567.546C342.594 568.128 343.068 568.939 343.191 569.521C343.543 569.751 343.543 569.751 344.124 569.629C349.131 568.886 353.907 568.494 358.913 567.75C359.495 567.628 359.847 567.858 360.429 567.736C361.944 567.723 362.296 567.953 362.433 570.05C359.294 571.01 355.804 571.74 353.032 574.445C353.384 574.675 353.736 574.905 353.736 574.905C356.307 575.582 358.634 575.095 361.083 575.19C362.599 575.176 363.763 574.933 365.048 575.271C364.359 576.326 362.492 576.11 361.68 576.583C359.123 577.422 356.444 577.678 354.009 579.099C353.198 579.572 352.034 579.815 351.453 579.937C349.707 580.302 347.962 580.667 347.165 582.656C346.705 583.359 346.246 584.063 345.434 584.536C345.571 586.633 346.979 587.553 348.847 587.769C350.714 587.986 352.352 588.554 353.76 589.474C354.464 589.934 355.398 590.042 356.331 590.15C357.847 590.137 359.255 591.057 359.621 592.802C360.096 593.613 360.34 594.777 360.462 595.358C360.707 596.522 361.181 597.333 361.425 598.497C362.359 598.605 362.711 598.835 363.293 598.713C364.456 598.47 365.512 599.16 366.339 600.201C365.527 600.675 365.067 601.378 364.256 601.851C364.27 603.366 364.285 604.881 363.366 606.288C362.906 606.992 363.029 607.573 362.921 608.507C362.584 609.792 361.894 610.847 360.731 611.09C360.149 611.212 359.108 612.037 358.526 612.159C357.715 612.632 357.729 614.147 358.433 614.607C359.137 615.067 360.071 615.175 360.653 615.054C361.938 615.392 363.102 615.148 364.388 615.487C365.903 615.473 367.189 615.811 368.245 616.501C369.301 617.191 370.357 617.881 370.019 619.166C369.912 620.099 371.198 620.438 371.442 621.601C370.401 622.426 369.359 623.251 368.196 623.495C366.451 623.86 365.057 624.455 364.49 626.092C364.964 626.903 365.209 628.067 365.683 628.878C366.861 630.15 368.714 628.851 370.704 629.65C369.54 629.893 368.729 630.366 367.917 630.84L367.687 631.191C366.89 633.18 367.013 633.762 368.773 634.911C369.125 635.141 369.476 635.371 369.828 635.601C370.18 635.831 370.884 636.291 371.466 636.17C371.94 636.981 371.481 637.685 371.021 638.388C370.562 639.091 369.75 639.565 369.872 640.146C369.535 641.431 369.305 641.783 368.142 642.027C367.56 642.148 367.33 642.5 367.1 642.852C366.059 643.677 365.248 644.15 363.732 644.164C361.864 643.947 359.889 644.664 358.374 644.677C358.374 644.677 358.374 644.677 358.726 644.907C357.21 644.921 355.925 644.583 354.179 644.948C352.434 645.313 350.919 645.326 349.403 645.34C348.239 645.583 347.306 645.475 346.035 646.652C344.993 647.477 343.708 647.139 342.774 647.03C342.192 647.152 341.488 646.692 340.906 646.814C339.973 646.706 338.809 646.949 338.105 646.489C337.753 646.259 337.753 646.259 337.171 646.381C334.722 646.286 331.921 645.961 329.242 646.218C328.66 646.34 327.726 646.232 327.374 646.002C327.022 645.772 327.022 645.771 326.44 645.893C322.016 646.515 317.577 645.622 313.153 646.244C312.571 646.366 311.989 646.488 311.407 646.609C310.122 646.271 308.958 646.515 307.917 647.34C306.523 647.935 305.36 648.178 303.722 647.61C302.436 647.272 301.503 647.164 300.339 647.407C298.594 647.772 296.497 647.907 294.399 648.042C293.236 648.286 292.072 648.529 291.031 649.354C291.153 649.936 291.505 650.166 292.087 650.044C293.954 650.261 295.822 650.477 297.919 650.342C299.435 650.329 301.302 650.545 302.818 650.532C303.399 650.41 304.685 650.748 305.389 651.208C306.445 651.898 307.379 652.006 308.313 652.115C309.246 652.223 309.828 652.101 310.762 652.21C311.114 652.44 311.696 652.318 311.818 652.899C312.292 653.711 313.226 653.819 313.685 653.116C314.957 651.939 316.594 652.507 318.11 652.494C319.41 654.347 321.615 653.279 323.023 654.199C323.375 654.429 323.605 654.077 323.957 654.307C328.381 653.685 332.698 653.996 336.892 653.726C337.474 653.604 337.826 653.834 338.178 654.064C340.994 655.904 344.255 655.525 347.164 654.917C347.746 654.795 347.746 654.795 348.327 654.673C349.965 655.242 351.481 655.228 352.996 655.215C355.445 655.309 357.543 655.174 359.992 655.269C361.507 655.256 363.023 655.242 364.416 654.647C364.646 654.295 364.998 654.525 365.932 654.634C366.054 655.215 365.824 655.567 365.946 656.149C365.961 657.664 366.205 658.827 367.261 659.517C368.317 660.207 367.858 660.91 367.046 661.384C363.096 662.817 362.514 662.939 357.968 662.979C355.289 663.236 352.839 663.141 349.808 663.168C348.293 663.182 346.777 663.195 345.262 663.209C344.68 663.33 344.328 663.1 343.976 662.87C343.624 662.64 342.69 662.532 342.109 662.654C340.134 663.371 338.144 662.573 336.276 662.356C335.343 662.248 334.761 662.37 333.827 662.261C332.082 662.626 330.214 662.41 328.347 662.193C327.413 662.085 325.897 662.099 324.964 661.99C324.612 661.76 324.382 662.112 323.8 662.234C321.107 660.976 317.968 661.936 315.167 661.611C313.881 661.273 312.136 661.638 310.972 661.881C308.293 662.138 305.614 662.395 302.813 662.07C299.43 661.867 295.817 662.016 292.434 661.813C291.852 661.934 290.918 661.826 290.336 661.948C287.076 662.327 284.397 662.583 281.014 662.38C279.498 662.394 278.105 662.989 276.834 664.166C276.604 664.517 276.374 664.869 276.496 665.451C276.618 666.032 276.741 666.614 276.863 667.196C283.047 667.724 289.461 667.9 295.646 668.427C296.579 668.536 297.161 668.414 298.095 668.522C300.192 668.387 302.641 668.482 305.091 668.577C307.54 668.672 309.637 668.537 312.087 668.631C312.668 668.51 313.602 668.618 313.954 668.848C318.623 669.389 322.94 669.7 327.486 669.66C329.583 669.525 331.451 669.741 333.318 669.958C335.768 670.053 337.865 669.918 340.314 670.012C342.764 670.107 344.861 669.972 347.54 669.715C349.055 669.702 350.571 669.688 351.735 669.445C351.994 672.123 352.346 672.353 354.106 673.503C354.81 673.963 355.162 674.193 356.095 674.301C358.422 673.814 360.764 674.843 362.861 674.707C364.025 674.464 365.54 674.451 366.582 673.625C367.393 673.152 368.557 672.909 369.368 672.435C370.439 674.64 370.102 675.925 368.126 676.642C367.545 676.764 366.963 676.885 366.381 677.007C365.57 677.48 365.218 677.251 364.284 677.142C362.998 676.804 362.064 676.696 361.253 677.169C360.089 677.413 359.278 677.886 358.222 677.196C357.518 676.736 356.477 677.561 355.895 677.683C355.083 678.156 354.149 678.048 353.445 677.588C353.093 677.358 352.512 677.48 352.512 677.48C351.118 678.075 349.833 677.737 348.317 677.75C346.098 677.304 343.77 677.791 341.673 677.926C340.51 678.169 339.116 678.764 337.723 679.359C337.141 679.481 336.912 679.833 336.33 679.954C334.233 680.09 332.243 679.291 330.253 678.493C329.549 678.033 328.845 677.573 328.263 677.695C326.978 677.357 325.34 676.789 323.595 677.154C321.497 677.289 319.048 677.194 316.828 676.748C315.313 676.761 314.027 676.423 312.512 676.436C310.996 676.45 309.71 676.112 308.195 676.125C306.679 676.138 305.164 676.152 303.771 676.747C303.189 676.869 302.729 677.572 302.499 677.924C304.382 679.655 306.479 679.52 308.346 679.737C308.928 679.615 309.862 679.723 310.214 679.953C310.796 679.832 311.148 680.062 311.5 680.292C311.04 680.995 310.581 681.698 310.351 682.05C308.835 682.063 307.32 682.077 305.804 682.09C304.641 682.334 303.462 681.062 302.069 681.657C300.431 681.089 298.808 682.036 296.941 681.819C295.073 681.603 293.436 681.034 291.92 681.048C290.404 681.061 288.889 681.075 287.373 681.088C286.792 681.21 286.21 681.332 285.858 681.102C284.22 680.534 282.827 681.129 281.556 682.305C281.678 682.887 281.448 683.239 281.341 684.172C280.299 684.997 279.366 684.889 278.202 685.132C277.62 685.254 277.038 685.376 276.686 685.146C275.753 685.038 275.293 685.741 275.186 686.674C277.19 688.988 277.19 688.988 280.206 687.446C278.432 684.781 279.136 685.241 280.07 685.349Z" fill="#F9B605"/>
</svg>
