<svg width="425" height="176" viewBox="0 0 425 176" fill="none" xmlns="http://www.w3.org/2000/svg">
<path d="M262.468 172.678C262.207 172.964 262.512 172.903 262.468 172.678V172.678ZM58.2406 39.1577C58.2406 39.1577 58.5458 39.097 58.5905 39.3219L58.6352 39.5467C58.2853 39.3826 58.2853 39.3825 58.2406 39.1577ZM348.51 141.075C348.204 141.136 347.899 141.197 347.899 141.197C347.594 141.257 347.549 141.032 347.549 141.032C347.854 140.972 347.81 140.747 348.115 140.686C348.115 140.686 348.16 140.911 348.51 141.075ZM149.279 11.9371C148.973 11.9978 148.973 11.9978 148.668 12.0585C148.363 12.1192 148.058 12.1799 147.968 11.7302C148.839 11.3233 148.929 11.773 149.279 11.9371ZM62.7817 39.657L62.737 39.4322C62.6923 39.2073 62.9528 38.9218 63.3027 39.0859C63.3027 39.0859 63.6526 39.2501 63.6974 39.4749C63.3922 39.5356 63.0869 39.5963 62.7817 39.657ZM138.721 140.723C138.766 140.948 138.81 141.173 139.16 141.337L138.9 141.622C138.595 141.683 138.595 141.683 138.245 141.519C138.2 141.294 138.155 141.069 138.721 140.723ZM352.924 142.535C352.924 142.535 352.969 142.759 352.664 142.82C352.098 143.166 351.093 142.899 351.309 142.388C351.875 142.042 352.835 142.085 352.924 142.535ZM397.387 131.589C396.866 132.16 396.866 132.16 396.561 132.22C395.6 132.178 395.556 131.953 395.727 131.218C396.382 131.321 396.732 131.485 397.387 131.589ZM47.2839 11.1844C46.7182 11.5307 46.7182 11.5307 45.8026 11.7128C45.408 11.3238 45.3632 11.0989 45.9289 10.7527C46.2341 10.692 46.5393 10.6313 46.5393 10.6313C46.8892 10.7955 46.934 11.0203 47.2839 11.1844ZM41.9073 36.7962C42.473 36.45 42.7781 36.3893 43.0833 36.3286C43.3885 36.2679 43.6937 36.2072 43.7385 36.432C43.7832 36.6569 43.8279 36.8817 43.2622 37.2279C42.957 37.2886 42.3466 37.4101 41.9073 36.7962ZM58.2304 128.448C58.4909 128.162 58.7514 127.877 59.0566 127.816C59.3618 127.755 59.667 127.695 60.0169 127.859C60.3668 128.023 60.4115 128.248 60.151 128.533C59.8906 128.819 59.5853 128.88 59.2354 128.715C58.9302 128.776 58.9302 128.776 58.2304 128.448ZM395.637 130.768C395.027 130.889 394.722 130.95 394.722 130.95C394.111 131.071 393.761 130.907 393.672 130.458L393.627 130.233C394.193 129.886 394.543 130.051 394.893 130.215C394.937 130.44 395.287 130.604 395.637 130.768ZM41.3998 31.0537C42.226 30.4219 42.226 30.4219 43.231 30.6895C42.7995 31.7103 42.4943 31.771 41.3998 31.0537ZM56.5348 102.373L56.5795 102.597C56.6242 102.822 56.0586 103.168 55.7086 103.004C55.4034 103.065 55.3587 102.84 55.3587 102.84C55.0088 102.676 55.2246 102.166 55.4851 101.88C55.4851 101.88 55.7455 101.595 56.0955 101.759C56.0955 101.759 56.1402 101.984 56.5348 102.373ZM40.651 11.3348C40.8668 10.8244 41.1273 10.5389 41.4772 10.703C42.1323 10.8065 42.8322 11.1348 43.8372 11.4024C42.4006 12.1555 41.6114 11.3776 40.651 11.3348ZM87.981 6.8308C88.3309 6.99495 88.6808 7.15907 88.7256 7.38392C89.0755 7.54807 88.5545 8.11919 88.2493 8.17989C87.6389 8.30128 86.9838 8.1978 86.6339 8.03365C86.5891 7.8088 86.5445 7.58398 86.1945 7.41984C87.1102 7.23775 87.4153 7.17704 87.981 6.8308ZM169.937 15.3084C169.848 14.8587 169.759 14.4089 170.369 14.2876C170.979 14.1662 171.329 14.3303 171.679 14.4945C172.029 14.6586 172.424 15.0476 171.903 15.6187C171.248 15.5153 170.593 15.4118 169.937 15.3084ZM49.7858 14.1929C50.612 13.5612 51.5276 13.379 52.138 13.2577C52.4432 13.197 52.7931 13.3611 52.8379 13.586C52.8826 13.8108 52.6668 14.3212 52.3616 14.3819C51.4907 14.7888 50.5304 14.7461 49.7858 14.1929ZM125.731 144.007C126.692 144.05 127.347 144.154 128.002 144.257C128.307 144.196 128.702 144.585 128.441 144.871C128.181 145.156 127.876 145.217 127.57 145.278C127.265 145.339 126.96 145.399 126.61 145.235C125.955 145.132 125.605 144.967 125.731 144.007ZM42.0315 26.2533C42.0762 26.4781 41.8157 26.7636 41.8604 26.9885C41.9051 27.2133 41.6 27.274 41.6447 27.4989C41.3842 27.7844 40.7738 27.9058 40.4238 27.7417C40.0739 27.5775 39.6793 27.1885 39.9398 26.903C40.2003 26.6175 40.4161 26.107 40.7213 26.0463C40.9818 25.7608 41.6369 25.8643 42.0315 26.2533ZM72.3538 33.5462C70.5673 34.1352 69.257 33.9282 67.9021 33.4965C67.9021 33.4965 67.5522 33.3324 67.8127 33.0468C67.7679 32.822 68.0732 32.7613 68.0732 32.7613C69.8597 32.1723 70.9094 32.6647 72.3538 33.5462ZM375.052 124.577C374.352 124.249 373.608 123.696 372.908 123.367C372.863 123.143 372.819 122.918 372.819 122.918C372.774 122.693 373.384 122.571 373.384 122.571C373.69 122.511 374.04 122.675 374.389 122.839C375.089 123.167 375.834 123.72 376.534 124.049C376.534 124.049 376.578 124.274 376.623 124.498C376.318 124.559 375.707 124.681 375.052 124.577ZM44.6208 20.1286C43.7946 20.7604 42.7896 20.4928 42.0081 21.3494C41.7476 21.6349 41.4424 21.6956 41.0925 21.5315C40.7426 21.3673 40.6978 21.1425 40.9583 20.857C41.1741 20.3466 41.4346 20.061 42.045 19.9396C42.6554 19.8182 43.571 19.6362 44.2262 19.7396C44.2262 19.7396 44.2709 19.9645 44.6208 20.1286ZM28.9999 75.5926C28.9551 75.3677 28.6052 75.2036 28.5605 74.9787C28.1659 74.5897 28.6868 74.0186 29.0367 74.1828C30.3023 74.1648 31.5678 74.1469 32.5729 74.4145C32.9228 74.5786 32.9675 74.8035 32.4018 75.1498C32.0966 75.2105 31.8361 75.496 31.5309 75.5567C30.6153 75.7388 29.9602 75.6353 28.9999 75.5926ZM351.332 147.292C353.208 147.153 354.779 147.074 356.179 147.731C356.529 147.895 356.573 148.12 356.618 148.345C355.487 149.037 355.487 149.037 354.526 148.994C353.216 148.787 352.211 148.52 351.332 147.292ZM51.9397 127.128C51.1582 127.984 50.2426 128.166 49.2822 128.124C48.6718 128.245 48.3219 128.081 47.6668 127.977C47.3616 128.038 46.7065 127.935 46.6618 127.71C46.617 127.485 46.2224 127.096 46.7881 126.75C48.6193 126.386 50.2348 126.532 51.9397 127.128ZM55.8584 106.948C54.9428 107.13 54.6376 107.191 53.9824 107.087C53.372 107.209 52.6275 106.656 52.8432 106.145C52.7538 105.696 53.0143 105.41 53.2301 104.9C53.1854 104.675 53.4459 104.389 53.7511 104.329C55.2771 104.025 56.0216 104.578 56.7662 105.131C57.1161 105.296 57.2503 105.97 56.6846 106.316C56.4241 106.602 55.8584 106.948 55.8584 106.948ZM335.31 136.922C335.57 136.636 336.225 136.74 336.531 136.679C337.886 137.111 339.546 137.482 340.901 137.914C341.906 138.181 342.606 138.509 343.35 139.063C343.35 139.063 343.395 139.287 343.44 139.512C342.569 139.919 341.653 140.101 340.603 139.609C340.209 139.22 339.554 139.116 339.204 138.952C338.243 138.909 337.849 138.52 337.454 138.131C336.449 137.864 336.01 137.25 335.31 136.922ZM399.053 160.708C399.359 160.648 399.664 160.587 399.708 160.812C402.113 161.736 404.213 162.721 406.662 163.87C407.012 164.034 407.012 164.034 407.057 164.259C406.491 164.605 405.836 164.502 405.486 164.337C404.831 164.234 404.131 163.906 403.781 163.742C403.126 163.638 402.166 163.595 401.466 163.267C400.632 162.264 398.972 161.893 399.053 160.708ZM247.532 161.39C247.963 160.37 248.269 160.309 248.968 160.637C250.323 161.069 251.678 161.501 253.249 161.422C253.904 161.525 254.559 161.629 254.999 162.243C254.783 162.753 254.172 162.875 253.562 162.996C253.257 163.057 252.602 162.953 252.252 162.789C251.552 162.461 250.897 162.357 250.242 162.254C248.976 162.272 248.321 162.168 247.532 161.39ZM372.749 144.903C371.268 145.431 370.002 145.449 368.908 144.732C367.858 144.239 366.853 143.972 365.848 143.704C364.493 143.272 363.748 142.719 364.135 141.474C364.79 141.577 365.445 141.681 365.795 141.845C367.15 142.277 368.2 142.769 369.555 143.201C370.955 143.857 371.96 144.125 372.749 144.903ZM365.3 156.903C364.079 157.145 362.903 157.613 361.987 157.795C361.072 157.977 360.417 157.874 359.977 157.26C359.933 157.035 359.933 157.035 359.583 156.871C358.793 156.093 358.659 155.418 360.096 154.665L360.401 154.604C362.672 154.854 364.071 155.511 365.3 156.903ZM158.316 12.711C158.577 12.4254 158.837 12.1399 159.448 12.0185C160.058 11.8971 160.668 11.7757 161.018 11.9399C162.329 12.1468 163.289 12.1895 164.599 12.3964C165.254 12.4999 165.909 12.6033 166.565 12.7068C167.22 12.8102 167.614 13.1992 167.138 13.9951C166.833 14.0558 166.222 14.1772 165.873 14.0131C164.257 13.8669 162.597 13.4959 161.026 13.5745C160.111 13.7566 159.411 13.4283 158.316 12.711ZM332.639 144.231C333.644 144.499 334.954 144.706 335.699 145.259C337.448 146.08 338.848 146.736 340.598 147.557C340.382 148.067 340.427 148.292 340.211 148.803C339.556 148.699 338.901 148.596 338.245 148.492C337.59 148.389 336.89 148.061 336.191 147.732C335.491 147.404 334.486 147.136 333.57 147.318C332.655 147.501 331.999 147.397 331.255 146.844C330.905 146.68 330.555 146.516 330.16 146.127C329.595 146.473 328.724 146.88 328.069 146.776C327.414 146.673 326.453 146.63 325.969 145.791C327.19 145.549 328.411 145.306 329.155 145.859C329.416 145.574 330.026 145.452 330.287 145.167C330.547 144.881 330.808 144.596 331.418 144.474C332.073 144.578 332.334 144.292 332.639 144.231ZM246.132 160.734C244.651 161.262 244.651 161.262 244.346 161.323C243.035 161.116 241.77 161.134 240.765 160.866C239.804 160.823 239.105 160.495 238.189 160.677C237.579 160.799 237.229 160.634 236.574 160.531C236.224 160.367 235.874 160.203 235.524 160.039C233.864 159.668 232.464 159.011 230.848 158.865C230.499 158.701 230.149 158.536 229.843 158.597C229.494 158.433 229.144 158.269 229.404 157.983C229.359 157.758 229.97 157.637 229.97 157.637C231.801 157.273 233.461 157.644 235.382 157.729C235.687 157.669 235.732 157.894 236.037 157.833C236.826 158.611 238.397 158.532 239.186 159.31C239.231 159.535 239.841 159.414 239.841 159.414C241.762 159.499 243.727 159.81 245.432 160.405C245.737 160.345 245.782 160.57 246.132 160.734ZM146.435 147.603C146.085 147.439 145.735 147.275 145.08 147.172C144.73 147.008 144.075 146.904 143.42 146.801C141.149 146.551 138.923 146.526 136.958 146.216C136.608 146.052 135.998 146.173 135.387 146.294C133.816 146.373 132.156 146.002 130.496 145.631C130.146 145.467 129.491 145.363 129.357 144.689C129.923 144.343 130.794 143.936 131.754 143.978C132.104 144.143 132.714 144.021 133.019 143.96C134.761 143.147 136.116 143.578 137.166 144.071C137.866 144.399 138.826 144.442 139.481 144.545C140.442 144.588 141.312 144.181 142.273 144.224C142.578 144.163 142.883 144.103 143.233 144.267C143.583 144.431 143.628 144.656 143.933 144.595C144.238 144.534 144.543 144.474 144.849 144.413C145.809 144.456 146.464 144.559 146.903 145.173C146.993 145.623 147.082 146.072 146.866 146.583C147.216 146.747 146.956 147.032 146.435 147.603ZM360.138 145.307C361.665 145.004 362.714 145.496 363.764 145.989C364.114 146.153 364.464 146.317 364.814 146.481C365.164 146.645 365.514 146.809 365.819 146.749C366.474 146.852 367.39 146.67 368 146.549C367.955 146.324 367.866 145.874 368.216 146.038C369.221 146.306 370.271 146.798 371.276 147.066C371.625 147.23 372.325 147.558 372.37 147.783C372.459 148.233 372.809 148.397 373.465 148.5C374.164 148.829 374.864 149.157 375.869 149.425C375.609 149.71 375.304 149.771 374.998 149.832C375.698 150.16 375.222 150.956 375.617 151.345C377.582 151.655 379.376 152.701 381.171 153.746C381.476 153.686 381.476 153.686 381.476 153.686C382.607 152.993 383.567 153.036 384.617 153.528C384.967 153.693 385.667 154.021 386.062 154.41C386.411 154.574 386.761 154.738 386.546 155.249C385.98 155.595 385.719 155.88 384.804 156.062C383.844 156.02 383.188 155.916 382.794 155.527C382.399 155.138 382.004 154.749 381.044 154.706C380.784 154.992 380.828 155.217 380.568 155.502C380.307 155.788 380.352 156.013 380.092 156.298C381.141 156.791 381.931 157.569 382.98 158.061C382.72 158.347 382.415 158.407 382.459 158.632C381.849 158.754 381.239 158.875 380.539 158.547C379.839 158.218 379.184 158.115 378.484 157.787C377.434 157.294 376.429 157.027 375.074 156.595C374.069 156.327 373.064 156.06 372.014 155.567C370.965 155.075 369.61 154.643 368.299 154.436C367.339 154.393 366.595 153.84 365.895 153.512C364.89 153.244 364.145 152.691 363.14 152.424C361.74 151.767 360.341 151.11 358.591 150.29C358.241 150.125 358.197 149.901 357.452 149.347C359.112 149.719 360.593 149.19 361.993 149.847C361.904 149.397 361.859 149.172 361.814 148.947C362.291 148.152 361.896 147.763 361.151 147.209C360.757 146.82 360.102 146.717 359.402 146.389C360.667 146.371 360.273 145.982 360.138 145.307ZM35.9175 16.2498C35.3071 16.3711 34.8309 17.167 34.131 16.8387C34.0863 16.6139 34.3468 16.3283 34.2573 15.8787C34.2126 15.6538 34.1232 15.2041 34.0785 14.9793C34.5995 14.4082 35.1652 14.0619 35.8203 14.1654C36.4754 14.2688 37.1305 14.3723 37.7409 14.2509C38.396 14.3544 39.3564 14.3971 39.8774 13.826C40.3984 13.255 41.0087 13.1336 41.6191 13.0122C42.2296 12.8908 42.8847 12.9942 43.8003 12.8121C44.4107 12.6908 44.7606 12.8549 44.8501 13.3046C44.679 14.0399 45.3788 14.3681 46.0787 14.6964C46.4286 14.8606 46.4733 15.0855 46.8232 15.2496C47.1731 15.4138 47.4336 15.1282 47.523 15.5779C46.2575 15.5958 45.0367 15.8386 43.6002 16.5918C43.0345 16.938 42.424 17.0594 41.5084 17.2415C40.898 17.3629 40.2876 17.4843 39.9377 17.3201C39.2378 16.9918 38.9326 17.0525 38.017 17.2346C37.4066 17.356 36.7515 17.2525 36.3122 16.6387C36.3122 16.6387 36.2674 16.4139 35.9175 16.2498ZM400.931 133.455C401.281 133.619 401.586 133.558 401.936 133.723C402.941 133.99 403.685 134.543 404.69 134.811C405.695 135.078 406.44 135.632 406.619 136.531C407.363 137.084 408.629 137.066 409.113 137.905C408.853 138.19 408.592 138.476 408.026 138.822C407.461 139.168 406.761 138.84 406.411 138.676C406.061 138.512 405.711 138.348 405.316 137.959C404.967 137.795 404.877 137.345 404.527 137.181C403.693 136.178 403.209 135.339 401.854 134.908C401.415 134.294 401.02 133.905 400.931 133.455ZM346.725 151.247L346.465 151.533C346.465 151.533 346.42 151.308 346.115 151.368L346.42 151.308C346.725 151.247 346.725 151.247 346.725 151.247C346.68 151.022 346.636 150.797 347.246 150.676C347.551 150.615 347.856 150.555 348.162 150.494C349.122 150.537 350.127 150.804 351.087 150.847C351.393 150.786 351.743 150.95 351.787 151.175C349.48 152.335 349.175 152.396 347.075 151.411C347.075 151.411 347.075 151.411 346.725 151.247ZM333.97 139.759C333.97 139.759 333.665 139.82 333.621 139.595C333.486 138.921 333.352 138.246 334.484 137.554C335.094 137.432 335.794 137.76 335.883 138.21C335.407 139.006 334.491 139.188 333.97 139.759ZM375.455 126.601C376.11 126.704 376.765 126.808 377.42 126.911C377.42 126.911 377.465 127.136 377.51 127.361C376.505 127.093 375.589 127.275 375.455 126.601ZM345.11 151.101L344.76 150.937L344.715 150.712L345.02 150.651L345.065 150.876C345.065 150.876 345.065 150.876 345.11 151.101ZM72.6977 142.166C72.0873 142.288 72.0426 142.063 71.9979 141.838L71.7374 142.123L71.4322 142.184C71.4322 142.184 71.0823 142.02 71.3875 141.959C71.298 141.509 71.9084 141.388 72.3031 141.777C72.3031 141.777 72.653 141.941 72.6977 142.166ZM394.751 164.602C394.662 164.153 394.617 163.928 394.528 163.478C395.399 163.071 395.749 163.235 396.404 163.339C398.459 164.099 400.163 164.695 402.173 165.23C402.523 165.394 402.829 165.333 403.179 165.498C403.484 165.437 403.789 165.376 403.744 165.151C404.005 164.866 404.31 164.805 404.92 164.684C405.575 164.787 406.536 164.83 407.236 165.158C408.591 165.59 409.901 165.797 411.211 166.004C411.382 165.269 410.377 165.001 410.243 164.326C410.198 164.102 410.198 164.102 410.459 163.816L410.764 163.755C411.419 163.859 411.769 164.023 412.119 164.187C412.819 164.515 413.779 164.558 414.695 164.376C415 164.315 415.305 164.255 415.521 163.744C415.476 163.519 415.431 163.295 415.081 163.13C415.037 162.906 414.732 162.966 414.382 162.802C412.811 162.881 411.716 162.163 410.406 161.957C409.751 161.853 409.356 161.464 408.917 160.85C409.222 160.79 409.527 160.729 409.833 160.668C410.138 160.607 410.488 160.772 410.748 160.486C411.619 160.079 412.535 159.897 413.495 159.94C413.406 159.49 413.316 159.04 413.577 158.755C412.877 158.427 412.482 158.038 412.132 157.873C411.782 157.709 411.693 157.26 411.388 157.32C409.728 156.949 409.504 155.825 409.02 154.986C408.581 154.372 408.796 153.862 409.623 153.23C409.928 153.17 409.838 152.72 410.359 152.149C411.23 151.742 411.885 151.845 412.89 152.113C413.546 152.216 414.245 152.545 414.901 152.648C415.25 152.812 415.861 152.691 416.471 152.57C416.032 151.956 415.377 151.852 414.766 151.974C413.456 151.767 412.101 151.335 411.007 150.618C410.262 150.065 409.212 149.572 408.728 148.733C409.033 148.673 409.644 148.551 409.994 148.716C410.649 148.819 411.349 149.147 411.699 149.311C412.049 149.476 412.704 149.579 413.269 149.233C414.446 148.765 415.756 148.972 416.5 149.525C417.245 150.078 417.245 150.078 418.25 150.346C418.51 150.06 418.726 149.55 418.987 149.264L418.637 149.1C418.287 148.936 417.982 148.997 417.327 148.893C416.671 148.79 415.972 148.462 415.532 147.848C415.138 147.459 414.698 146.845 414.043 146.742C412.733 146.535 411.988 145.981 410.939 145.489C410.239 145.161 409.799 144.547 409.97 143.812C410.32 143.976 410.931 143.854 411.281 144.019C412.636 144.45 414.035 145.107 415.74 145.703C416.09 145.867 416.701 145.746 417.05 145.91C417.006 145.685 417.266 145.399 417.221 145.174C417.087 144.5 417.303 143.99 417.869 143.643C418.129 143.358 418.085 143.133 417.995 142.683C418.606 142.562 418.911 142.501 419.521 142.38C419.476 142.155 419.782 142.094 419.782 142.094C419.737 141.869 419.342 141.48 419.298 141.255C418.337 141.213 417.377 141.17 416.767 141.291C416.461 141.352 416.506 141.577 416.246 141.862C415.241 141.595 414.235 141.327 413.23 141.06L413.186 140.835C413.491 140.774 413.796 140.713 414.101 140.653C414.101 140.653 414.101 140.653 414.362 140.367C414.012 140.203 413.967 139.978 413.617 139.814C413.267 139.65 413.223 139.425 412.873 139.261C412.523 139.097 412.173 138.933 412.128 138.708C412.433 138.647 412.433 138.647 412.433 138.647C414.749 139.122 416.588 140.392 418.642 141.152C418.992 141.316 418.992 141.316 419.037 141.541C420.608 141.462 422.223 141.609 423.794 141.53C424.099 141.469 424.404 141.409 424.315 140.959C422.521 139.913 420.421 138.928 418.106 138.454C416.446 138.083 415.351 137.366 413.952 136.709C412.202 135.888 410.497 135.292 409.313 134.125C408.919 133.736 407.913 133.469 407.258 133.365C404.377 133.237 402.188 131.802 400.089 130.818C399.389 130.489 399.039 130.325 398.339 129.997C396.634 129.401 395.28 128.969 393.835 128.088C393.441 127.699 392.785 127.595 391.825 127.552C390.865 127.51 389.904 127.467 389.465 126.853C389.07 126.464 388.46 126.585 388.11 126.421C387.455 126.318 387.105 126.154 386.405 125.825C386.055 125.661 385.705 125.497 385.921 124.987C385.921 124.987 385.876 124.762 385.527 124.598C384.871 124.494 385.132 124.209 385.437 124.148C385.437 124.148 385.392 123.923 385.653 123.638C384.998 123.534 384.343 123.431 383.688 123.327C383.516 124.063 384.737 123.82 384.261 124.616C382.34 124.53 381.99 124.366 380.591 123.709C380.196 123.32 379.541 123.217 378.886 123.114C377.576 122.907 376.481 122.189 375.431 121.697C375.081 121.533 375.037 121.308 375.037 121.308C375.297 121.022 375.818 120.451 376.079 120.166C375.595 119.327 374.939 119.224 374.24 118.895C373.54 118.567 373.361 117.668 374.232 117.261C374.537 117.2 375.103 116.854 375.453 117.018C376.718 117 377.678 117.043 378.423 117.596C378.773 117.76 379.123 117.924 379.473 118.088C379.205 116.739 378.11 116.022 377.321 115.244C375.876 114.362 375.303 113.074 375.645 111.604C375.861 111.093 375.466 110.704 375.116 110.54C374.416 110.212 373.411 109.944 372.406 109.677C371.751 109.573 371.357 109.184 370.701 109.081C370.396 109.141 370.352 108.917 370.307 108.692C370.128 107.792 369.383 107.239 369.465 106.054C369.986 105.483 370.812 104.851 371.594 103.995C372.159 103.648 372.815 103.752 373.82 104.02C374.475 104.123 375.13 104.227 375.74 104.105C375.822 102.92 374.727 102.203 373.678 101.71C373.588 101.261 373.804 100.75 373.714 100.301C373.409 100.361 372.799 100.483 372.449 100.319C372.144 100.379 372.144 100.379 371.794 100.215C370.394 99.5586 369.344 99.0661 367.945 98.4095C367.245 98.0812 367.416 97.3459 367.937 96.7749L368.197 96.4893C368.197 96.4893 368.197 96.4893 368.458 96.2038C368.063 95.8148 367.929 95.1402 367.49 94.5264C367.445 94.3015 367.05 93.9126 367.311 93.627C367.742 92.6063 367.824 91.4213 368.955 90.7288C368.866 90.2791 368.471 89.8902 368.337 89.2156C368.293 88.9908 368.553 88.7052 368.814 88.4197C369.424 88.2983 370.034 88.1769 370.384 88.3411L370.645 88.0555C370.25 87.6665 370.161 87.2168 370.332 86.4816C370.548 85.9712 370.458 85.5215 371.068 85.4001C371.984 85.218 371.805 84.3186 372.766 84.3614C373.421 84.4649 374.076 84.5683 374.426 84.7324C375.431 85 375.952 84.429 376.867 84.2469C377.522 84.3503 378.528 84.6179 379.533 84.8855C379.272 85.1711 379.012 85.4567 378.751 85.7422C379.146 86.1312 379.235 86.5809 379.63 86.9699C379.585 86.745 379.89 86.6843 379.846 86.4595C379.801 86.2346 379.756 86.0098 380.322 85.6636C380.627 85.6029 381.193 85.2567 381.543 85.4208C382.198 85.5242 382.592 85.9132 382.942 86.0774C383.382 86.6912 384.037 86.7947 385.042 87.0623C385.697 87.1657 386.442 87.7189 387.357 87.5368C388.273 87.3547 388.712 87.9685 389.412 88.2968C389.151 88.5824 389.196 88.8072 388.936 89.0927C389.33 89.4817 389.941 89.3604 390.551 89.239C391.467 89.0569 392.122 89.1604 392.301 90.0597C392.345 90.2846 392.39 90.5094 392.74 90.6735C393.09 90.8377 393.395 90.777 393.961 90.4308C393.566 90.0418 393.432 89.3673 393.038 88.9783C392.688 88.8141 392.338 88.6499 391.988 88.4858C391.988 88.4858 391.943 88.261 391.898 88.0361C391.898 88.0361 392.159 87.7506 392.464 87.6899C393.119 87.7933 393.774 87.8967 394.385 87.7753C394.645 87.4898 394.861 86.9794 395.121 86.6939C395.777 86.7974 396.737 86.8401 397.392 86.9436C397.526 87.6181 396.566 87.5754 396.305 87.8609C395.74 88.2071 395.479 88.4927 395.918 89.1065C396.879 89.1493 397.318 89.7631 397.758 90.377C398.197 90.9908 398.807 90.8694 399.328 90.2983C399.849 89.7272 400.325 88.9313 400.846 88.3602C401.367 87.7892 400.273 87.0718 401.449 86.6042C401.054 86.2152 400.705 86.0511 400.31 85.6621C400.57 85.3765 400.786 84.8661 401.002 84.3557C401.657 84.4592 402.662 84.7268 402.751 85.1765C402.886 85.851 403.496 85.7297 404.106 85.6083C405.022 85.4262 405.893 85.0193 406.809 84.8372C407.024 84.3268 407.285 84.0412 407.501 83.5309C408.022 82.9598 408.416 83.3488 409.027 83.2274C409.592 82.8811 408.937 82.7776 409.198 82.4921C409.153 82.2672 409.413 81.9817 409.324 81.532C408.714 81.6534 408.364 81.4893 407.753 81.6107C406.838 81.7927 405.572 81.8107 404.656 81.9928C404.046 82.1142 403.436 82.2356 402.825 82.357C401.039 82.946 399.163 83.0853 397.287 83.2247C395.716 83.3033 394.19 83.6068 392.664 83.9103C392.359 83.971 391.749 84.0923 391.443 84.153C389.783 83.782 388.257 84.0854 386.642 83.9392C386.336 83.9999 386.031 84.0606 385.681 83.8965C383.977 83.3006 381.795 83.5006 379.875 83.4151C379.22 83.3117 378.564 83.2082 377.909 83.1047C376.86 82.6123 375.899 82.5695 374.678 82.8123C374.373 82.873 374.068 82.9337 373.763 82.9944C372.758 82.7268 371.492 82.7447 370.442 82.2523C369.787 82.1488 369.698 81.6991 369.608 81.2494C369.519 80.7997 370.085 80.4535 370.345 80.168C369.995 80.0038 369.601 79.6148 369.556 79.39C369.467 78.9403 368.811 78.8368 368.767 78.612C368.677 78.1623 367.977 77.834 367.628 77.6699C366.883 77.1167 366.838 76.8918 367.225 75.6462C367.441 75.1358 367.396 74.911 367.002 74.522C366.607 74.133 366.212 73.744 365.773 73.1302C366.294 72.5591 366.86 72.2129 367.381 71.6418C366.376 71.3742 365.676 71.0458 364.931 70.4927C364.886 70.2679 364.797 69.8182 364.708 69.3685C364.663 69.1436 364.573 68.694 364.529 68.4691C365.139 68.3477 365.4 68.0622 366.01 67.9408C367.06 68.4332 367.76 68.7615 368.459 69.0898C369.985 68.7863 369.501 67.9477 369.978 67.1517C370.283 67.091 370.588 67.0303 370.893 66.9696C371.198 66.9089 371.548 67.0731 371.854 67.0124C371.764 66.5627 372.025 66.2772 371.935 65.8275C371.191 65.2743 370.23 65.2316 369.27 65.1888C369.225 64.964 369.225 64.9639 368.92 65.0246C368.391 63.9611 368.957 63.6149 370.178 63.3721C370.788 63.2507 371.399 63.1293 372.054 63.2328C373.014 63.2755 373.93 63.0934 374.451 62.5223C375.537 61.605 376.192 61.7085 377.287 62.4258C377.637 62.5899 378.031 62.9789 378.731 63.3072C378.642 62.8576 378.902 62.572 378.902 62.572C378.463 61.9582 378.329 61.2836 378.85 60.7125C376.624 60.6877 375.18 59.8063 374.867 58.2324C375.172 58.1717 375.432 57.8861 376.043 57.7647L375.998 57.5399C375.648 57.3757 374.993 57.2723 374.598 56.8833C374.204 56.4943 373.809 56.1053 374.025 55.5949C374.241 55.0845 373.846 54.6955 373.496 54.5313C373.146 54.3672 373.101 54.1424 372.796 54.2031C371.136 53.832 370.257 52.6043 369.163 51.887C368.768 51.498 368.068 51.1697 367.458 51.2911C366.148 51.0842 364.882 51.1021 363.877 50.8345C363.222 50.7311 362.217 50.4635 361.822 50.0745C360.773 49.582 359.723 49.0896 358.413 48.8827C358.107 48.9434 357.758 48.7792 357.758 48.7792C356.008 47.9585 353.693 47.484 351.683 46.9488C351.027 46.8454 350.328 46.517 349.933 46.1281C349.538 45.739 348.838 45.4107 348.228 45.5321C346.918 45.3252 345.913 45.0576 344.603 44.8507C343.642 44.808 342.898 44.2548 341.893 43.9872C341.543 43.8231 340.888 43.7196 340.232 43.6161C339.272 43.5734 338.267 43.3057 337.567 42.9774C335.862 42.3815 334.113 41.5608 332.713 40.9042C332.013 40.5759 331.358 40.4725 330.748 40.5939C329.832 40.776 329.132 40.4476 328.172 40.4049C326.862 40.198 325.857 39.9304 324.546 39.7234C323.891 39.62 323.191 39.2917 322.841 39.1276C322.097 38.5744 321.702 38.1854 320.958 37.6323C319.692 37.6502 318.427 37.6681 317.161 37.6861C316.201 37.6433 315.196 37.3758 315.062 36.7012C314.927 36.0267 314.272 35.9232 313.617 35.8198C311.652 35.5094 309.381 35.2597 307.416 34.9493C306.761 34.8459 306.106 34.7424 305.756 34.5783C304.751 34.3107 303.746 34.0431 302.785 34.0003C302.785 34.0003 302.48 34.061 302.435 33.8362C299.726 32.9727 296.8 32.6196 293.829 32.0416C292.519 31.8347 291.209 31.6278 289.899 31.4208C288.239 31.0498 286.578 30.6788 285.134 29.7974C284.784 29.6332 284.084 29.3049 283.519 29.6511C282.908 29.7725 282.558 29.6083 281.903 29.5049C280.898 29.2373 279.938 29.1945 278.627 28.9876C277.622 28.72 276.662 28.6772 275.962 28.3489C274.302 27.9779 272.687 27.8317 271.116 27.9104C269.545 27.989 268.235 27.7821 266.925 27.5752C265.265 27.2041 263.649 27.0579 262.034 26.9117L261.728 26.9724C259.368 26.273 256.532 26.3696 254.172 25.6702C253.867 25.7309 253.822 25.5061 253.517 25.5668C248.931 24.8426 244.04 24.1791 239.454 23.4549C235.174 22.6701 230.632 22.1707 226.352 21.3859C224.692 21.0148 222.771 20.9293 221.111 20.5582C219.145 20.2478 217.485 19.8768 215.52 19.5664C210.584 18.6781 205.604 17.565 200.452 17.187C199.492 17.1443 198.792 16.816 198.092 16.4877C197.437 16.3842 196.737 16.0559 196.082 15.9525C195.732 15.7883 195.427 15.849 195.077 15.6848C194.027 15.1924 193.067 15.1496 192.062 14.882C190.707 14.4502 189.352 14.0185 187.736 13.8723C186.776 13.8296 185.816 13.7868 185.161 13.6833C184.855 13.744 184.55 13.8047 184.29 14.0903C183.419 14.4972 183.419 14.4972 182.674 13.9441C182.28 13.5551 181.93 13.3909 181.275 13.2874C180.925 13.1233 180.27 13.0198 179.92 12.8557L179.614 12.9164C178.528 13.8337 177.218 13.6268 175.863 13.195C175.163 12.8667 174.508 12.7633 173.808 12.435C173.153 12.3315 172.803 12.1674 172.408 11.7784C172.058 11.6142 171.708 11.4501 171.053 11.3467C169.088 11.0363 167.428 10.6653 165.462 10.3549C165.157 10.4156 165.112 10.1907 164.807 10.2514C163.281 10.5549 161.926 10.1232 160.571 9.69139C160.266 9.75208 160.221 9.52722 159.916 9.58792C159 9.77001 158.479 10.3411 157.519 10.2983C157.169 10.1342 156.775 9.7452 156.38 9.3562C156.335 9.13136 156.291 8.90654 156.246 8.6817C156.462 8.17131 156.112 8.00711 155.762 7.84296C154.407 7.41121 153.357 6.91878 152.047 6.71187C151.086 6.66912 150.081 6.40154 149.166 6.58363C148.25 6.76572 147.245 6.49805 146.24 6.23045C145.89 6.0663 145.54 5.9022 145.235 5.96289C144.275 5.92014 143.575 5.59182 142.875 5.26352C142.48 4.87453 141.825 4.77103 141.215 4.89242C139.384 5.2566 138.029 4.82491 136.674 4.39316C135.319 3.9614 133.659 3.5903 132.304 3.15854C131.998 3.21923 131.738 3.50478 131.433 3.56548C130.867 3.91171 130.562 3.97241 130.167 3.58341C129.423 3.03026 128.157 3.0482 127.197 3.00544C126.892 3.06614 126.586 3.12689 126.237 2.96275C125.887 2.7986 125.232 2.69508 125.447 2.1847C125.403 1.95985 125.358 1.73504 125.358 1.73504C125.313 1.51019 125.008 1.57087 124.658 1.40671L124.398 1.69226C124.442 1.91712 124.182 2.20264 124.226 2.42748C122.961 2.44542 121.74 2.68822 120.385 2.25646C120.08 2.31715 120.035 2.09231 119.73 2.153C118.509 2.39578 117.459 1.90336 116.67 1.12538C116.625 0.900532 116.015 1.02191 115.71 1.08261C115.889 1.98199 116.373 2.82071 116.552 3.72008L116.596 3.94489C116.641 4.16973 116.381 4.4553 116.075 4.516C115.815 4.80154 115.465 4.63737 115.115 4.47322C114.326 3.69524 113.537 2.91727 112.747 2.13929C112.137 2.26068 111.832 2.32137 111.221 2.44277C110.916 2.50346 110.306 2.62486 110 2.68555L109.74 2.97103C109.785 3.19588 109.874 3.64561 109.264 3.767C108.958 3.8277 108.348 3.9491 108.043 4.00979C107.738 4.07049 107.343 3.68145 106.993 3.5173C106.733 3.80284 106.777 4.02771 106.472 4.08841C105.862 4.2098 105.467 3.82084 105.117 3.65669C105.028 3.207 104.938 2.75728 104.804 2.08274C104.499 2.14344 104.499 2.14344 104.194 2.20413C103.933 2.48967 103.628 2.55039 103.368 2.83594C103.457 3.28563 103.807 3.44979 103.896 3.89948C103.986 4.34917 103.465 4.92023 102.854 5.04162C102.549 5.10232 102.244 5.16301 101.939 5.22371C100.323 5.0775 98.4027 4.99197 96.7872 4.84576C96.482 4.90645 96.1321 4.74229 95.8269 4.80299C94.3009 5.10647 92.9459 4.67472 91.6357 4.46781C90.6306 4.20019 90.6306 4.2002 90.4518 3.3008L90.4071 3.07602C90.4071 3.07602 90.407 3.076 90.3623 2.85116C90.0571 2.91185 89.7072 2.74771 89.4467 3.03325C88.3153 3.72572 88.0102 3.78636 87.0945 3.96845C87.184 4.41814 87.5339 4.58236 88.189 4.68581C88.5389 4.84996 88.8441 4.78923 89.194 4.95338C89.544 5.11753 89.544 5.11754 89.5887 5.3424C89.6334 5.56725 89.6781 5.79206 89.4176 6.07761C87.8022 5.9314 86.5366 5.94933 84.9212 5.80312C84.6607 6.08866 84.4449 6.59904 83.8792 6.94527C83.9686 7.39496 84.0581 7.84466 83.8423 8.35505C83.2766 8.70129 82.6662 8.82266 82.2716 8.43367C81.6165 8.33022 81.2666 8.16613 80.7009 8.51236C80.4404 8.79791 80.0905 8.63374 79.7405 8.46959C79.0854 8.36614 78.7355 8.20196 78.1251 8.32335C77.8199 8.38405 77.8646 8.60891 77.5594 8.66961C77.6041 8.89445 77.954 9.05863 77.954 9.05863C78.8696 8.87655 79.8747 9.14413 80.8797 9.41173C81.1849 9.35103 81.5348 9.5152 81.5348 9.5152C82.2347 9.8435 83.0608 9.21168 83.7607 9.53997C84.1553 9.92898 84.8552 10.2573 85.8155 10.3C86.1207 10.2393 86.1654 10.4642 86.2101 10.6891C85.9496 10.9746 85.6444 11.0353 85.6444 11.0353C85.3392 11.096 85.2945 10.8711 84.9893 10.9318C84.029 10.8891 83.024 10.6214 82.1083 10.8035C80.8428 10.8215 79.5773 10.8394 78.5722 10.5718C78.267 10.6325 77.9171 10.4684 77.6119 10.529C77.3961 11.0394 76.8304 11.3857 76.6147 11.8961L76.3094 11.9568C74.5229 12.5458 72.9522 12.6244 71.3368 12.4782C69.7661 12.5569 68.4558 12.35 66.8851 12.4286C65.6195 12.4465 64.0935 12.75 62.8279 12.7679C62.2175 12.8893 61.9123 12.95 61.2572 12.8466C59.5971 12.4755 57.9816 12.3293 56.1504 12.6935C55.8452 12.7542 55.4953 12.59 55.1901 12.6507C54.4902 12.3224 53.5299 12.2796 52.8301 11.9513C52.1302 11.623 51.4751 11.5196 50.6042 11.9265C50.299 11.9872 49.9491 11.8231 49.5992 11.6589C49.2493 11.4948 48.8993 11.3306 49.1151 10.8203C49.0704 10.5954 49.6361 10.2491 49.9413 10.1884C51.4673 9.88496 52.6881 9.64222 54.0431 10.074C54.7429 10.4023 55.7033 10.445 56.6636 10.4878C56.9688 10.4271 57.274 10.3664 57.2293 10.1415C57.4898 9.85598 57.0951 9.46702 56.7899 9.52771C56.1795 9.64911 55.5691 9.77048 54.6088 9.72772C54.2141 9.33873 54.1247 8.88901 53.6854 8.27517C53.3802 8.33587 52.7697 8.45731 52.4198 8.29316C52.1146 8.35386 51.7647 8.18968 51.4595 8.25038C50.1046 7.81863 49.7546 7.65444 47.9681 8.24346C47.3577 8.36485 46.7026 8.26144 46.3527 8.0973C46.0028 7.93315 45.3476 7.82966 44.7372 7.95106C44.1268 8.07245 43.4717 7.96904 42.8166 7.86559C40.8959 7.78008 38.9753 7.69453 37.3151 7.32346C36.66 7.22001 36.3548 7.28069 35.7443 7.40208C34.8287 7.58417 34.4788 7.42003 34.3447 6.7455C34.2553 6.29581 34.1211 5.62124 34.0317 5.17155C33.0714 5.12879 32.4162 5.02537 31.4559 4.9826C31.1954 5.26816 30.9349 5.55367 31.2848 5.71782C31.59 5.65712 31.6348 5.88198 31.94 5.82128C31.94 5.82128 32.2899 5.98547 32.3346 6.21031C32.3346 6.21031 32.0741 6.49586 31.7689 6.55656C31.4637 6.61726 31.1138 6.45309 30.8086 6.51379C29.2378 6.59243 28.6274 6.71382 27.9801 8.24498C27.9801 8.24498 27.9801 8.24499 28.0248 8.46984C29.0299 8.73744 30.3401 8.94431 31.5162 8.47668C31.8214 8.41598 32.1266 8.35529 32.4319 8.29459C32.7371 8.23389 32.7817 8.45878 32.8265 8.68362C32.8712 8.90847 32.566 8.96913 32.3055 9.25467C31.6951 9.37606 31.3899 9.43676 30.7795 9.55815C30.1691 9.67954 29.6034 10.0258 29.3429 10.3113C29.3876 10.5362 29.7375 10.7003 30.0874 10.8645C31.7029 11.0107 33.363 11.3818 34.9785 11.528C35.3284 11.6921 35.8941 11.3459 36.1993 11.2852C36.5045 11.2245 36.8544 11.3886 37.2043 11.5528C35.5073 12.5915 34.6364 12.9984 33.2367 12.3418C32.5369 12.0135 31.8817 11.9101 31.0108 12.317C30.7056 12.3777 30.7056 12.3777 30.4004 12.4384C29.4401 12.3957 28.5245 12.5777 27.6089 12.7598C26.6933 12.9419 25.7777 13.124 24.7279 12.6316C24.899 11.8963 24.7648 11.2218 23.7598 10.9542C23.4546 11.0149 23.3652 10.5652 23.3652 10.5652C22.5837 11.4218 21.6681 11.6039 20.7077 11.5611C19.1817 11.8646 17.3505 12.2288 15.5193 12.5929C15.564 12.8178 15.6087 13.0427 15.6534 13.2675C15.3929 13.5531 15.1324 13.8386 14.872 14.1241C14.9167 14.349 15.0061 14.7986 15.0508 15.0235C15.0508 15.0235 14.7903 15.309 14.4851 15.3697C14.8798 15.7587 15.5349 15.8622 16.1453 15.7408C17.0162 15.3338 17.9318 15.1518 19.242 15.3587C18.8027 14.7448 18.4081 14.3559 17.9687 13.742C19.1448 13.2744 20.1946 13.7668 21.4154 13.524C22.0258 13.4026 22.4204 13.7917 22.8151 14.1807C22.5546 14.4662 22.3388 14.9766 21.8178 15.5477C22.7782 15.5904 23.3886 15.469 23.999 15.3476C24.9593 15.3904 25.6144 15.4938 25.7486 16.1683C26.1879 16.7822 27.4534 16.7643 28.3243 16.3574C28.5848 16.0718 28.8453 15.7862 29.1058 15.5007C29.411 15.44 29.6715 15.1545 29.9767 15.0938C29.5821 14.7048 29.2322 14.5407 28.8375 14.1517C30.2741 13.3985 31.3238 13.8909 32.3289 14.1585C32.1131 14.6689 31.8526 14.9545 31.6368 15.4648C31.4211 15.9752 31.8157 16.3642 31.8604 16.5891C32.2551 16.9781 32.9102 17.0815 33.5206 16.9601C34.131 16.8387 34.4809 17.0029 35.0913 16.8815C36.0069 16.6994 36.7068 17.0277 37.1461 17.6415C37.8907 18.1947 38.6353 18.7478 39.3798 19.301C40.1244 19.8541 39.9533 20.5894 39.1271 21.2212C38.8666 21.5067 38.5614 21.5674 38.2562 21.6281C37.951 21.6888 37.9957 21.9136 37.7352 22.1991C38.4351 22.5275 38.8297 22.9165 39.79 22.9592C41.3608 22.8806 42.671 23.0875 44.026 23.5192C44.3759 23.6834 44.7705 24.0724 45.1205 24.2365C44.9047 24.7469 44.9941 25.1966 44.7783 25.707C44.4731 25.7677 44.1679 25.8284 43.8627 25.8891C43.818 25.6643 43.7286 25.2146 43.3787 25.0504C43.3339 24.8256 42.6788 24.7221 42.6788 24.7221C42.3736 24.7828 42.3289 24.5579 42.0237 24.6186C41.0634 24.5759 40.1477 24.758 39.1874 24.7152C39.1874 24.7152 38.8822 24.776 38.6217 25.0615C38.7559 25.736 39.1952 26.3498 38.6742 26.9209C38.719 27.1458 38.4585 27.4314 38.1533 27.492C36.9772 27.9597 36.5456 28.9804 35.7195 29.6122C37.0297 29.8191 38.0794 30.3116 39.345 30.2936C40.0001 30.3971 40.9604 30.4398 41.0498 30.8895C41.184 31.564 41.5786 31.953 42.539 31.9958C43.1941 32.0993 43.8492 32.2027 44.7648 32.0207C45.9856 31.7779 47.0354 32.2703 47.5195 33.109L47.5642 33.3338L47.6089 33.5587C49.0455 32.8055 49.6559 32.6841 51.0555 33.3407C51.4055 33.5048 52.0606 33.6083 52.6263 33.2621C52.9315 33.2014 53.2814 33.3655 53.6313 33.5297C54.5469 33.3476 55.1126 33.0014 56.073 33.0441C56.7281 33.1476 57.1227 33.5366 57.5173 33.9256C57.3016 34.436 56.7359 34.7822 56.0807 34.6787C55.4256 34.5753 54.51 34.7574 53.8996 34.8788C53.5944 34.9395 53.5944 34.9395 53.2892 35.0002C53.0287 35.2857 52.7683 35.5712 52.1579 35.6926C51.5474 35.814 50.6765 36.221 50.0661 36.3423C49.1505 36.5244 48.1902 36.4817 46.9694 36.7244C47.0957 35.7644 46.9616 35.0898 46.217 34.5367C45.8224 34.1477 45.4725 33.9835 44.5121 33.9408C43.5518 33.898 42.6362 34.0801 41.7653 34.4871C41.1996 34.8333 40.6339 35.1795 40.1129 35.7506C39.592 36.3217 39.3762 36.8321 38.5053 37.239C39.2051 37.5673 39.5998 37.9563 40.3443 38.5095C41.4388 39.2268 41.4388 39.2268 42.7043 39.2088C42.3175 40.4545 43.412 41.1717 44.5064 41.889C45.4221 41.7069 46.3824 41.7497 47.0822 42.078C49.3528 42.3277 51.3629 42.8629 53.5887 42.8877C54.2439 42.9912 54.549 42.9304 54.9437 43.3194C54.9437 43.3194 54.9884 43.5443 55.0331 43.7692C54.8173 44.2795 54.1622 44.1761 53.857 44.2368C52.5915 44.2547 51.326 44.2726 50.3656 44.2299C49.7105 44.1264 48.7502 44.0837 48.0951 43.9802C46.8295 43.9982 45.9139 44.1803 44.7378 44.6479C43.2565 45.1762 41.9463 44.9693 40.4203 45.2728C37.6287 45.5942 34.703 45.241 31.8667 45.3376C30.296 45.4162 28.6806 45.2701 27.1993 45.7984C26.2837 45.9805 25.6285 45.877 24.7129 46.0591C23.4474 46.0771 22.2266 46.3199 20.9163 46.113C19.3009 45.9667 17.7301 46.0453 16.1594 46.124C14.5887 46.2026 13.0179 46.2812 11.4025 46.135C11.0973 46.1957 10.4421 46.0923 10.1369 46.1529C9.22132 46.335 8.26099 46.2923 7.56115 45.964C7.21123 45.7999 6.60084 45.9212 6.29563 45.9819C5.07482 46.2247 4.15919 46.4068 3.02781 47.0993C2.46212 47.4455 1.54651 47.6276 0.980813 47.9738C0.675609 48.0345 0.415116 48.3201 0.154628 48.6056C0.504546 48.7698 0.854508 48.934 0.854508 48.934C2.07532 48.6912 3.08036 48.9588 4.08541 49.2264C4.43533 49.3905 5.04571 49.2691 5.39562 49.4332C6.05075 49.5367 6.14021 49.9864 5.87972 50.272C5.66394 50.7824 5.05351 50.9037 4.1379 51.0858C4.22733 51.5355 4.27206 51.7603 4.62198 51.9245C5.01661 52.3135 5.36652 52.4776 5.45595 52.9273C5.8953 53.5412 5.94003 53.766 5.11385 54.3978C4.80864 54.4585 4.54812 54.7441 4.54812 54.7441C3.72194 55.3758 3.50618 55.8862 3.68504 56.7856C3.81919 57.4601 4.16909 57.6243 5.12941 57.667C7.35527 57.6918 9.53643 57.4918 11.7623 57.5166C13.0278 57.4987 14.2934 57.4808 15.8194 57.1773C17.9558 56.7524 19.9212 57.0628 21.8418 57.1483C23.4125 57.0697 23.8966 57.9083 22.5495 59.1112C23.123 60.3996 24.4332 60.6065 26.0487 60.7527C27.9693 60.8382 29.89 60.9238 31.8106 61.0093C32.771 61.052 33.426 61.1555 34.4311 61.4231C35.0862 61.5265 34.9151 62.2618 34.6099 62.3225C33.739 62.7294 33.1734 63.0756 32.2578 63.2577C31.037 63.5005 29.8161 63.7433 28.5506 63.7612C28.2901 64.0468 28.0744 64.5571 27.8139 64.8427C27.5087 64.9034 27.5533 65.1282 27.2481 65.1889C26.0273 65.4317 24.7618 65.4497 23.4963 65.4676C21.8808 65.3214 20.0049 65.4607 18.4789 65.7642C17.5633 65.9463 16.6029 65.9035 15.6873 66.0856C14.7717 66.2677 13.5509 66.5105 12.5906 66.4678C12.5906 66.4678 12.2854 66.5284 12.3301 66.7532C12.7247 67.1422 13.4246 67.4706 14.3402 67.2885C16.2608 67.374 17.8315 67.2954 19.7522 67.3809C20.0574 67.3202 20.4073 67.4843 20.7125 67.4236C21.4124 67.7519 22.0675 67.8554 22.7673 68.1837C22.5069 68.4692 22.5516 68.6941 22.2911 68.9796C22.0306 69.2652 21.7254 69.3258 21.4649 69.6114C20.8992 69.9576 20.9886 70.4073 21.3832 70.7963C21.428 71.0211 21.7332 70.9605 21.7779 71.1853C21.8226 71.4102 22.1278 71.3495 22.1725 71.5743C21.9567 72.0847 21.4358 72.6558 21.22 73.1662C21.2647 73.391 21.3094 73.6159 21.3989 74.0656C21.4883 74.5153 21.2725 75.0257 20.7068 75.3719C20.4016 75.4326 20.1858 75.9429 19.8806 76.0036C19.9253 76.2285 20.2753 76.3927 20.32 76.6175C21.5039 77.7845 21.154 77.6204 20.112 78.7625C19.8516 79.0481 19.5463 79.1087 19.2858 79.3943C19.0254 79.6798 18.7201 79.7405 18.4597 80.0261C18.8096 80.1902 18.8543 80.415 19.2042 80.5792L19.2489 80.804C20.1645 80.622 21.4301 80.604 22.3457 80.4219C23.0455 80.7502 23.9612 80.5681 24.661 80.8964C25.4055 81.4496 26.3211 81.2675 27.0657 81.8206C27.4156 81.9848 27.7208 81.9241 27.7208 81.9241C28.8969 81.4565 30.2072 81.6634 31.2569 82.1558C31.5621 82.0951 31.6069 82.32 31.9121 82.2593C31.9568 82.4842 32.3067 82.6483 32.3514 82.8731C32.4408 83.3228 32.8354 83.7118 33.4458 83.5904C34.0563 83.469 34.7114 83.5725 35.106 83.9615C35.8059 84.2898 36.1558 84.4539 37.1161 84.4967C38.0764 84.5395 38.5158 85.1533 39.2603 85.7065C39.6102 85.8706 39.655 86.0954 40.0049 86.2596C41.3152 86.4665 42.3202 86.7341 43.5857 86.7162C43.5857 86.7162 43.8909 86.6555 43.9356 86.8803C44.6802 87.4335 45.6852 87.701 46.8166 87.0086C47.2112 87.3976 47.6059 87.7866 47.9558 87.9507C48.5662 87.8293 48.782 87.3189 49.4818 87.6472C50.1817 87.9755 49.6607 88.5466 49.7501 88.9963C50.4052 89.0998 50.7551 89.2639 51.4103 89.3674C51.6708 89.0818 51.6708 89.0819 51.976 89.0212C52.4969 88.4501 53.0626 88.1038 54.0677 88.3714C54.4176 88.5356 55.028 88.4142 55.6831 88.5176C55.4673 89.028 55.2069 89.3136 54.9464 89.5991C55.3857 90.213 56.3908 90.4805 57.217 89.8488C57.8721 89.9522 58.2667 90.3412 58.9218 90.4447C59.3165 90.8336 59.4506 91.5082 58.9296 92.0793C58.3192 92.2007 57.4036 92.3828 56.488 92.5649C56.1828 92.6256 55.8776 92.6862 55.5277 92.5221C54.5226 92.2545 53.2571 92.2724 52.2968 92.2297C51.3812 92.4118 50.3761 92.1441 49.4158 92.1014C49.0659 91.9372 49.0659 91.9373 48.716 91.7731C47.1452 91.8517 46.006 90.9096 44.6511 90.4779C44.3012 90.3137 44.2565 90.0888 43.9513 90.1495C42.6857 90.1675 41.6807 89.8999 40.4599 90.1427C39.4995 90.0999 38.5839 90.282 37.8841 89.9537C37.5341 89.7895 37.1842 89.6254 36.8343 89.4613C35.9187 89.6433 34.7426 90.111 33.827 90.2931C33.827 90.2931 33.4771 90.1289 33.1719 90.1896C32.472 89.8613 31.8616 89.9827 31.296 90.3289C29.5989 91.3676 27.7229 91.5069 25.7576 91.1966C25.1024 91.0931 24.4473 90.9897 23.5317 91.1718C23.2265 91.2325 22.966 91.518 22.6608 91.5787C23.6658 91.8463 24.6261 91.8891 25.6312 92.1567C26.2863 92.2601 26.8967 92.1387 27.5519 92.2422C28.207 92.3456 28.6016 92.7346 28.6463 92.9595C28.7805 93.634 28.2148 93.9802 27.6044 94.1016C26.3835 94.3444 25.468 94.5265 24.2919 94.9941C23.9867 95.0548 23.6814 95.1155 23.6367 94.8907C22.9816 94.7872 22.587 94.3982 22.237 94.2341C21.2767 94.1913 20.3611 94.3735 19.706 94.27C19.0956 94.3914 18.4405 94.2879 17.8301 94.4093C16.9145 94.5914 16.5645 94.4272 16.1699 94.0382C16.1252 93.8134 15.82 93.8741 15.7753 93.6493C15.5595 94.1597 14.9938 94.5059 14.3387 94.4024C13.6835 94.299 12.7679 94.481 11.897 94.888C11.9864 95.3377 11.7707 95.8481 11.8601 96.2977C13.2598 96.9544 13.2598 96.9544 15.3515 96.3047C15.7014 96.4688 15.7462 96.6937 15.7909 96.9185C15.8803 97.3682 16.2302 97.5323 16.8406 97.4109C18.1062 97.393 19.4164 97.5999 20.6819 97.582C21.3371 97.6855 21.9922 97.7889 22.3868 98.1779C23.1314 98.731 24.1364 98.9986 25.3125 98.531C26.2281 98.3489 27.1437 98.1668 27.8883 98.7199C28.1488 98.4344 28.4092 98.1489 28.3645 97.924C28.6697 97.8634 29.3249 97.9668 29.6301 97.9061C30.2405 97.7847 31.1114 97.3778 31.7218 97.2564C31.9376 96.746 32.1981 96.4604 32.4138 95.9501C32.8454 94.9293 33.6716 94.2975 35.287 94.4437C35.5922 94.383 35.9421 94.5472 36.5525 94.4258C37.1629 94.3044 37.5128 94.4685 37.8627 94.6327C38.2574 95.0217 38.8678 94.9003 39.2177 95.0645C40.5727 95.4962 42.1434 95.4175 43.4537 95.6244C44.1088 95.7279 44.4587 95.8921 44.8533 96.2811C45.248 96.6701 45.5979 96.8342 45.9925 97.2232C46.0373 97.4481 46.3424 97.3873 46.6476 97.3266C46.6846 95.9169 46.9451 95.6313 48.3 96.0631C50.0049 96.659 51.5756 96.5804 53.1911 96.7266C53.8462 96.8301 54.4566 96.7086 54.546 97.1583C54.2408 97.219 54.2856 97.4439 53.9804 97.5046C53.02 97.4618 52.1044 97.6439 51.4046 97.3156C50.3995 97.048 49.4392 97.0053 48.613 97.637C47.7421 98.044 46.5213 98.2867 45.6951 98.9185C45.1294 99.2647 44.2138 99.4468 43.514 99.1185C42.5089 98.8509 41.8985 98.9723 40.6777 99.2151C40.3725 99.2758 40.0673 99.3365 39.7621 99.3972C39.0623 99.0689 38.1019 99.0262 37.1416 98.9834C36.7917 98.8193 36.4418 98.6551 36.0919 98.4909C36.2182 97.5309 36.3893 96.7956 36.2104 95.8962C34.4686 96.7101 34.4239 96.4853 34.7816 98.2841C34.2606 98.8552 33.3003 98.8124 32.4294 99.2193C32.1242 99.28 31.7743 99.1158 31.5138 99.4014C31.2533 99.6869 30.9481 99.7476 30.6876 100.033C31.3428 100.137 31.7374 100.526 32.3031 100.179C32.6083 100.119 32.9135 100.058 33.2187 99.9973C33.8738 100.101 34.4842 99.9793 35.0946 99.858C35.9655 99.451 36.6206 99.5545 37.2757 99.6579C38.2808 99.9255 39.2859 100.193 40.2015 100.011L40.5066 99.9504C42.2115 100.546 44.3927 100.346 46.0529 100.717C46.708 100.821 47.0579 100.985 47.713 101.088C48.3682 101.192 49.0233 101.295 50.0283 101.563C50.4229 101.952 50.8623 102.566 51.3017 103.18C49.8204 103.708 48.5995 103.951 47.5497 103.458C46.1948 103.026 44.6241 103.105 43.0086 102.959C42.7034 103.02 42.3982 103.08 41.7878 103.202C41.8325 103.426 41.8772 103.651 42.1824 103.591C43.5374 104.022 44.6766 104.965 46.292 105.111C47.2076 104.929 47.0735 104.254 47.6839 104.133C48.2943 104.011 48.9941 104.34 49.3441 104.504C49.4782 105.178 48.2127 105.196 48.3468 105.871C48.4363 106.321 47.5654 106.727 47.6548 107.177C47.7442 107.627 47.8784 108.301 48.273 108.69C48.7571 109.529 49.5463 110.307 49.42 111.267C49.4647 111.492 49.8594 111.881 49.9041 112.106C49.3831 112.677 48.7727 112.798 47.857 112.98C47.2466 113.102 46.9414 113.162 46.3757 113.509C45.5048 113.916 44.8945 114.037 43.8894 113.769C43.2343 113.666 42.274 113.623 42.1398 112.949C41.0085 113.641 39.877 114.334 39.0062 114.741C38.351 114.637 37.6512 114.309 37.0855 114.655C36.7803 114.716 36.5198 115.001 36.5198 115.001C35.2543 115.019 34.3834 115.426 33.0731 115.219C31.4577 115.073 29.8869 115.152 28.011 115.291C28.0557 115.516 28.4057 115.68 28.4504 115.905C28.7556 115.844 28.8003 116.069 28.8003 116.069C30.5868 115.48 31.9418 115.912 32.5153 117.2C33.1257 117.079 33.4756 117.243 34.086 117.121C35.0463 117.164 35.7014 117.268 36.446 117.821C36.7959 117.985 36.6249 118.72 36.0144 118.842C35.7092 118.902 35.404 118.963 35.0988 119.024C34.7936 119.084 34.4437 118.92 33.7886 118.817C33.8333 119.042 33.5728 119.327 33.6175 119.552C34.0569 120.166 34.1463 120.616 33.6253 121.187C34.7198 121.904 36.0748 122.336 36.2983 123.46C38.0032 124.056 40.1843 123.856 41.6287 124.737C41.7182 125.187 41.5471 125.922 41.6366 126.372C42.2917 126.475 42.6416 126.639 43.2967 126.743C43.9518 126.846 44.3018 127.011 44.1307 127.746C43.8702 128.031 44.2201 128.195 44.57 128.36C44.9199 128.524 45.2699 128.688 45.6198 128.852C46.0591 129.466 46.1933 130.14 45.1066 131.058C44.4962 131.179 43.8858 131.301 43.2754 131.422C43.2754 131.422 40.7443 131.458 40.7891 131.683C39.613 132.15 38.3474 132.168 37.1713 132.636C36.6056 132.982 35.9058 132.654 34.9902 132.836L35.0349 133.061L34.685 132.897C34.3798 132.957 33.7694 133.079 33.4642 133.139C33.5536 133.589 33.9035 133.753 34.5586 133.857C35.5189 133.899 36.4346 133.717 37.2608 133.085C37.9606 133.414 38.6157 133.517 39.3155 133.846C40.0154 134.174 40.1048 134.624 40.8047 134.952C40.6336 135.687 39.6733 135.644 39.1523 136.215C39.8968 136.769 40.6414 137.322 41.386 137.875C41.7359 138.039 42.1305 138.428 42.1752 138.653C42.6146 139.267 43.3144 139.595 44.0142 139.923C44.4089 140.312 45.0193 140.191 45.585 139.845C46.4559 139.438 47.0216 139.091 47.8925 138.685C49.5079 138.831 51.1234 138.977 52.9993 138.838C54.2648 138.82 55.0094 139.373 56.0144 139.64C56.0144 139.64 56.0591 139.865 56.1039 140.09C56.5879 140.929 57.0273 141.543 57.5114 142.381C57.9954 143.22 58.0401 143.445 57.2586 144.301C56.9981 144.587 56.693 144.648 56.4325 144.933C56.8718 145.547 57.3111 146.161 57.7058 146.55C58.011 146.489 57.9216 146.04 58.8372 145.858C59.7975 145.9 60.7131 145.718 61.9787 145.7C61.9787 145.7 61.9786 145.7 62.2838 145.64C62.4996 145.129 61.8445 145.026 61.7998 144.801C61.7104 144.351 61.9262 143.841 62.5366 143.719C63.147 143.598 63.4522 143.537 64.0626 143.416C64.9782 143.234 65.8938 143.052 66.4147 142.481C68.9011 142.22 70.5613 142.591 72.0504 143.697C73.487 142.944 74.7972 143.151 76.3232 142.847C76.2785 142.623 76.4943 142.112 76.4496 141.887L76.1444 141.948C76.1444 141.948 75.8391 142.009 75.7944 141.784C75.7944 141.784 76.0549 141.498 76.0997 141.723L76.4496 141.887C77.8862 141.134 79.1517 141.116 80.7224 141.038C82.2932 140.959 83.8639 140.88 85.4346 140.802C86.7002 140.784 88.3156 140.93 89.6259 141.137C89.9311 141.076 89.9758 141.301 89.9758 141.301L90.0205 141.526C90.0652 141.751 90.0652 141.751 89.8047 142.036C88.6286 142.504 87.713 142.686 86.4028 142.479C85.0925 142.272 84.5715 142.843 84.0506 143.414C84.14 143.864 84.7504 143.743 85.0556 143.682C86.0159 143.725 86.9316 143.543 87.6314 143.871C87.9813 144.035 88.2865 143.974 88.5917 143.914C90.1624 143.835 91.7779 143.981 93.5644 143.392C93.8696 143.332 94.2195 143.496 94.2195 143.496C94.3537 144.17 95.2693 143.988 95.9244 144.092L96.2296 144.031C96.2296 144.031 95.9244 144.092 95.9691 144.317C96.669 144.645 96.7584 145.094 97.1977 145.708C97.2424 145.933 96.9819 146.219 97.2871 146.158C97.6371 146.322 97.987 146.486 98.2922 146.426C98.6421 146.59 99.2525 146.468 99.5578 146.408C99.9077 146.572 100.258 146.736 100.563 146.675C100.913 146.839 101.263 147.004 101.873 146.882C103.094 146.639 104.404 146.846 105.975 146.768C107.24 146.75 108.551 146.957 109.771 146.714C111.037 146.696 112.042 146.964 113.047 147.231C113.702 147.335 114.052 147.499 114.968 147.317C115.578 147.195 116.538 147.238 117.194 147.342C117.849 147.445 118.109 147.159 118.414 147.099C118.459 147.324 118.764 147.263 118.764 147.263C119.598 148.266 120.603 148.533 122.3 147.495C122.561 147.209 123.216 147.313 123.521 147.252C123.782 146.966 123.782 146.966 124.132 147.13C126.008 146.991 128.189 146.791 129.894 147.387C130.243 147.551 131.114 147.144 131.509 147.533C132.119 147.412 132.73 147.29 133.296 146.944C133.995 147.272 134.435 147.886 135.35 147.704C135.35 147.704 135.35 147.704 135.655 147.643C136.489 148.646 138.016 148.343 139.281 148.325C139.586 148.264 139.936 148.428 140.241 148.368C140.897 148.471 141.552 148.575 141.902 148.739C142.601 149.067 142.728 148.107 143.428 148.435C143.777 148.599 144.083 148.539 144.433 148.703C144.738 148.642 144.738 148.642 145.043 148.581C146.219 148.114 147.44 147.871 148.705 147.853C149.011 147.792 148.966 147.568 149.271 147.507C149.666 147.896 150.105 148.51 150.805 148.838C151.11 148.777 151.415 148.717 151.721 148.656C152.026 148.595 152.636 148.474 152.941 148.413C153.202 148.128 153.418 147.617 153.678 147.332C153.939 147.046 154.199 146.761 154.899 147.089C155.294 147.478 155.859 147.132 156.075 146.621C156.507 145.601 157.072 145.254 158.338 145.236C158.643 145.176 158.993 145.34 159.298 145.279C159.603 145.218 159.953 145.383 160.564 145.261C160.824 144.976 161.04 144.465 161.606 144.119C162.566 144.162 163.221 144.265 163.876 144.369C164.181 144.308 164.487 144.247 164.837 144.411C166.236 145.068 168.157 145.153 169.772 145.3C170.427 145.403 171.083 145.507 171.693 145.385C171.998 145.325 172.348 145.489 172.653 145.428C173.964 145.635 175.274 145.842 176.584 146.049C177.894 146.256 178.944 146.748 180.21 146.73C180.515 146.669 181.215 146.998 181.259 147.223C182.004 147.776 183.009 148.043 183.925 147.861C185.495 147.783 186.545 148.275 187.29 148.828C187.684 149.217 188.034 149.381 188.645 149.26L188.994 149.424L189.344 149.588C190.089 150.141 191.139 150.634 192.099 150.677C192.97 150.27 192.225 149.717 192.746 149.145C193.312 148.799 193.573 148.514 194.228 148.617C194.883 148.721 195.538 148.824 195.672 149.499C195.717 149.723 196.111 150.112 196.461 150.277C196.811 150.441 197.161 150.605 196.945 151.115C196.99 151.34 197.035 151.565 197.385 151.729C197.474 152.179 198.129 152.282 198.39 151.997C199.261 151.59 199.7 152.204 200.4 152.532C200.4 152.532 200.445 152.757 200.139 152.817C201.45 153.024 202.499 153.517 203.981 152.988C204.286 152.928 204.941 153.031 205.291 153.195C205.551 152.91 206.117 152.564 206.772 152.667C207.427 152.771 207.777 152.935 208.432 153.038C208.738 152.977 209.348 152.856 209.698 153.02C211.008 153.227 211.924 153.045 213.1 152.577C213.666 152.231 214.06 152.62 214.41 152.784C214.76 152.948 215.11 153.113 215.46 153.277C216.375 153.095 217.336 153.137 217.82 153.976C218.214 154.365 218.475 154.08 219.13 154.183C219.175 154.408 219.264 154.858 219.614 155.022C220.924 155.229 222.235 155.435 223.895 155.807C223.984 156.256 224.989 156.524 225.079 156.974L225.429 157.138C226.389 157.18 226.128 157.466 226.218 157.916C226.873 158.019 227.573 158.347 228.228 158.451C229.799 158.372 231.198 159.029 232.553 159.461C233.208 159.564 234.214 159.832 234.869 159.935C235.524 160.039 235.829 159.978 236.224 160.367C236.268 160.592 236.574 160.531 236.574 160.531C237.794 160.288 238.539 160.841 239.589 161.334C239.939 161.498 240.244 161.437 240.289 161.662C240.854 161.316 241.509 161.419 241.599 161.869C241.643 162.094 241.949 162.033 242.299 162.197C243.43 161.505 244.435 161.772 245.44 162.04C245.745 161.979 245.79 162.204 246.14 162.368C246.84 162.697 247.845 162.964 248.805 163.007C249.11 162.946 249.765 163.05 249.855 163.499C249.9 163.724 250.25 163.888 250.599 164.053C250.949 164.217 251.255 164.156 251.47 163.646C251.82 163.81 251.865 164.035 252.215 164.199C252.475 163.913 252.736 163.628 253.041 163.567C253.346 163.506 253.957 163.385 254.307 163.549C254.656 163.713 255.006 163.877 255.356 164.042C256.056 164.37 256.406 164.534 257.366 164.577C257.977 164.455 258.632 164.559 259.332 164.887C259.682 165.051 260.382 165.38 261.252 164.973L261.558 164.912C262.042 165.751 263.128 164.833 263.568 165.447C263.962 165.836 264.617 165.94 265.317 166.268C265.578 165.982 265.838 165.697 266.188 165.861C266.933 166.414 267.848 166.232 268.548 166.56C269.248 166.889 270.253 167.156 270.908 167.26L271.213 167.199C271.519 167.138 271.474 166.913 271.779 166.853C272.434 166.956 272.784 167.12 273.439 167.224C273.744 167.163 274.094 167.327 274.4 167.267C274.705 167.206 274.705 167.206 275.01 167.145C275.62 167.024 276.536 166.842 277.146 166.72C277.146 166.72 277.452 166.66 277.496 166.884C277.891 167.273 278.591 167.602 279.551 167.645C280.817 167.627 281.866 168.119 282.916 168.611C283.482 168.265 284.226 168.818 284.837 168.697C285.626 169.475 286.847 169.232 287.807 169.275C288.507 169.603 289.467 169.646 290.167 169.974C290.257 170.424 291.001 170.977 290.83 171.712C290.264 172.059 289.915 171.894 289.259 171.791C287.949 171.584 286.334 171.438 285.024 171.231C284.018 170.963 283.103 171.145 282.143 171.103C281.182 171.06 280.222 171.017 279.306 171.199C278.696 171.321 278.041 171.217 277.386 171.114C276.075 170.907 275.07 170.639 273.76 170.432C271.095 169.794 268.735 169.094 266.07 168.456C265.415 168.352 264.759 168.249 264.409 168.085C263.539 168.492 262.928 168.613 262.318 168.734C259.742 168.545 257.077 167.907 255.238 166.636C254.017 166.879 252.841 167.347 251.62 167.589C251.144 168.385 252.194 168.878 252.022 169.613C252.938 169.431 253.854 169.249 254.725 168.842C254.769 169.067 255.119 169.231 255.164 169.456C255.253 169.905 255.953 170.234 256.519 169.888C257.129 169.766 257.479 169.93 258.134 170.034C258.834 170.362 259.489 170.466 260.189 170.794C260.539 170.958 260.889 171.122 261.239 171.286C261.194 171.061 261.194 171.061 261.455 170.776C261.455 170.776 261.41 170.551 261.715 170.49C262.065 170.654 262.37 170.594 262.72 170.758C262.765 170.983 262.81 171.208 262.504 171.268C262.81 171.208 263.16 171.372 263.16 171.372C263.204 171.597 263.249 171.822 263.599 171.986C264.254 172.089 264.999 172.642 265.869 172.235C266.219 172.399 266.875 172.503 267.18 172.442C267.485 172.382 267.835 172.546 268.095 172.26C268.661 171.914 269.271 171.792 269.971 172.121C272.287 172.595 274.252 172.906 276.523 173.155C277.178 173.259 277.528 173.423 278.183 173.526C279.188 173.794 280.453 173.776 281.458 174.044C282.463 174.311 283.163 174.64 284.168 174.907C284.823 175.011 285.478 175.114 285.828 175.278C286.789 175.321 287.489 175.649 288.449 175.692C288.754 175.631 289.015 175.346 288.97 175.121C289.23 174.835 289.841 174.714 290.191 174.878C290.846 174.982 291.806 175.024 292.461 175.128C293.772 175.335 293.771 175.335 294.553 174.478C296.429 174.339 298.35 174.424 299.794 175.306C300.054 175.02 300.665 174.899 300.97 174.838C301.841 174.431 303.062 174.188 304.067 174.456C304.767 174.784 305.727 174.827 306.643 174.645C306.903 174.359 306.464 173.746 307.029 173.399C307.595 173.053 308.25 173.157 308.6 173.321C308.95 173.485 309.3 173.649 309.955 173.752C310.26 173.692 310.61 173.856 310.565 173.631C310.871 173.57 310.781 173.121 310.431 172.957C309.776 172.853 309.382 172.464 308.421 172.421C307.111 172.214 305.496 172.068 304.141 171.636C303.835 171.697 303.791 171.472 303.486 171.533C302.57 171.715 302.175 171.326 301.52 171.223C300.82 170.894 300.12 170.566 298.9 170.809C298.594 170.87 297.895 170.541 297.545 170.377C298.066 169.806 298.066 169.806 299.197 169.114C300.202 169.381 301.512 169.588 302.733 169.345C303.038 169.285 303.388 169.449 304.043 169.552C304.699 169.656 305.354 169.759 305.964 169.638C306.88 169.456 307.535 169.559 307.974 170.173C308.369 170.562 308.719 170.726 309.329 170.605C309.545 170.094 309.761 169.584 309.976 169.073C310.632 169.177 310.937 169.116 311.242 169.056C311.852 168.934 312.768 168.752 312.678 168.302C312.805 167.342 313.676 166.935 314.502 166.304C315.462 166.346 316.467 166.614 317.338 166.207C317.249 165.757 316.899 165.593 316.288 165.715C315.983 165.775 315.678 165.836 315.328 165.672C314.107 165.915 313.102 165.647 312.358 165.094C311.613 164.541 310.698 164.723 309.692 164.455C309.037 164.352 308.598 163.738 308.814 163.227C309.03 162.717 309.595 162.371 310.206 162.249C310.511 162.189 310.861 162.353 311.166 162.292C311.471 162.232 311.516 162.456 311.821 162.396C312.171 162.56 312.216 162.785 312.566 162.949C312.871 162.888 313.221 163.052 313.481 162.767C315.007 162.463 316.578 162.385 318.454 162.245C319.414 162.288 320.025 162.167 320.851 161.535C321.417 161.189 322.072 161.292 322.206 161.967C322.295 162.416 322.429 163.091 322.519 163.541C323.479 163.583 324.44 163.626 325.095 163.729C325.4 163.669 325.75 163.833 326.055 163.772C328.191 163.347 330.157 163.658 331.772 163.804C332.733 163.847 333.432 164.175 334.564 163.483C334.869 163.422 335.174 163.361 335.479 163.3C336.09 163.179 336.44 163.343 337.05 163.222C337.05 163.222 337.311 162.936 337.355 163.161C338.36 163.429 338.971 163.307 339.797 162.676C339.402 162.287 339.052 162.122 338.442 162.244C337.176 162.262 336.171 161.994 335.122 161.502C334.422 161.173 333.417 160.906 332.501 161.088C331.891 161.209 331.236 161.106 330.796 160.492C330.752 160.267 330.707 160.042 330.662 159.817C331.317 159.921 331.622 159.86 331.928 159.799L331.883 159.575C331.488 159.186 330.833 159.082 330.178 158.979C329.173 158.711 328.823 158.547 328.949 157.587C329.121 156.852 328.771 156.688 328.115 156.584C327.155 156.541 326.15 156.274 325.19 156.231C324.535 156.128 324.185 155.963 324.095 155.514C324.051 155.289 324.051 155.289 324.006 155.064C324.177 154.329 324.088 153.879 323.648 153.265C323.164 152.426 323.164 152.427 324.206 151.284C325.166 151.327 325.821 151.431 326.827 151.698C327.176 151.862 327.832 151.966 328.182 152.13C327.697 151.291 327.303 150.902 326.037 150.92C325.077 150.877 324.638 150.264 324.809 149.528C325.635 148.897 326.335 149.225 326.945 149.103C326.9 148.879 327.161 148.593 327.116 148.368C327.027 147.919 326.982 147.694 326.937 147.469C327.763 146.837 328.329 146.491 329.334 146.758L329.684 146.923C330.86 146.455 331.3 147.069 332.044 147.622C332.394 147.786 332.744 147.95 333.399 148.054C333.354 147.829 333.265 147.379 333.57 147.318C333.875 147.258 334.181 147.197 334.486 147.136C334.486 147.136 334.791 147.076 334.836 147.301C335.58 147.854 336.801 147.611 338.022 147.368C339.116 148.085 340.821 148.681 342.176 149.113C342.176 149.113 342.176 149.113 342.481 149.052C342.831 149.217 343.226 149.606 343.271 149.83C343.315 150.055 343.055 150.341 342.839 150.851C343.234 151.24 343.628 151.629 344.283 151.733C344.678 152.122 345.594 151.939 345.728 152.614C344.507 152.857 343.718 152.079 342.236 152.607C342.586 152.771 342.936 152.935 342.981 153.16C343.331 153.324 343.42 153.774 343.465 153.999C342.334 154.691 341.023 154.485 340.063 154.442C338.098 154.131 335.827 153.882 333.601 153.857C333.691 154.307 333.996 154.246 334.346 154.41C334.696 154.574 335.046 154.738 335.396 154.903C335.746 155.067 336.095 155.231 336.445 155.395C336.535 155.845 335.88 155.741 335.619 156.027L335.664 156.252C336.319 156.355 336.974 156.459 337.674 156.787C337.979 156.726 338.024 156.951 338.329 156.89C338.679 157.054 338.724 157.279 338.419 157.34C338.158 157.625 337.853 157.686 337.853 157.686C336.453 157.03 335.143 156.823 333.528 156.676C332.217 156.47 330.862 156.038 329.507 155.606C329.157 155.442 328.852 155.503 328.502 155.338C327.981 155.91 328.331 156.074 328.681 156.238C329.381 156.566 330.036 156.67 330.691 156.773C332.046 157.205 333.096 157.697 333.625 158.761C334.064 159.375 334.809 159.928 335.769 159.971C336.424 160.074 337.124 160.402 337.779 160.506C339.476 159.467 341.226 160.288 342.581 160.72C342.715 161.394 341.754 161.351 341.494 161.637C342.499 161.904 343.549 162.397 344.464 162.215C344.77 162.154 344.77 162.154 345.559 162.932C345.254 162.993 344.993 163.278 344.383 163.4C344.428 163.625 344.822 164.014 344.867 164.238C344.912 164.463 345.261 164.627 345.306 164.852C346.267 164.895 347.227 164.938 347.882 165.041C348.842 165.084 349.542 165.412 350.242 165.741C350.502 165.455 350.763 165.17 351.284 164.598C353.16 164.459 354.902 163.645 356.778 163.506C357.083 163.445 357.649 163.099 358.259 162.978C357.82 162.364 357.38 161.75 356.986 161.361C358.072 160.444 359.293 160.201 360.209 160.019C360.424 159.508 360.03 159.119 359.896 158.445C360.551 158.548 360.856 158.488 361.466 158.366C361.772 158.305 362.077 158.245 362.382 158.184C362.687 158.123 363.298 158.002 363.253 157.777C364.295 156.635 365.605 156.842 366.565 156.885C367.876 157.092 369.186 157.298 370.757 157.22C372.327 157.141 373.377 157.634 374.166 158.412C374.211 158.636 374.561 158.801 374.606 159.025C374.695 159.475 375.045 159.639 375.135 160.089C375.09 159.864 375.09 159.864 375.35 159.579C375.961 159.457 376.311 159.621 376.966 159.725C377.576 159.603 378.231 159.707 378.537 159.646C379.147 159.525 379.497 159.689 380.152 159.792C380.807 159.896 381.767 159.939 382.467 160.267C384.477 160.802 386.182 161.398 387.932 162.219C388.587 162.322 389.287 162.651 389.376 163.1C389.421 163.325 389.726 163.264 389.771 163.489C391.081 163.696 392.436 164.128 393.746 164.335C394.141 164.724 394.446 164.663 394.751 164.602Z" fill="#F9B605"/>
</svg>
