<svg width="42" height="42" viewBox="0 0 42 42" fill="none" xmlns="http://www.w3.org/2000/svg">
<path d="M20.9997 24.5C23.9047 24.5 26.2497 22.155 26.2497 19.25V8.75C26.2497 5.845 23.9047 3.5 20.9997 3.5C18.0947 3.5 15.7497 5.845 15.7497 8.75V19.25C15.7497 22.155 18.0947 24.5 20.9997 24.5ZM31.3422 19.25C30.4847 19.25 29.7672 19.88 29.6272 20.7375C28.9097 24.85 25.3222 28 20.9997 28C16.6772 28 13.0897 24.85 12.3722 20.7375C12.3105 20.3259 12.1038 19.9498 11.7894 19.6771C11.475 19.4044 11.0735 19.2529 10.6572 19.25C9.58973 19.25 8.74973 20.195 8.90723 21.245C9.76473 26.495 13.9647 30.6075 19.2497 31.36V35C19.2497 35.9625 20.0372 36.75 20.9997 36.75C21.9622 36.75 22.7497 35.9625 22.7497 35V31.36C25.3249 30.9921 27.7159 29.8132 29.5756 27.9943C31.4354 26.1755 32.6672 23.8114 33.0922 21.245C33.2672 20.195 32.4097 19.25 31.3422 19.25Z" fill="#F9B605"/>
</svg>
