<svg width="297" height="263" viewBox="0 0 297 263" fill="none" xmlns="http://www.w3.org/2000/svg">
<path d="M251.901 166.806L252.158 166.806C252.158 166.806 252.158 166.806 252.416 166.806C252.158 166.806 252.158 166.806 251.901 166.806ZM92.7242 12.0449C92.9818 12.3126 92.9818 12.3127 92.9818 12.3127L92.7242 12.3127C92.4666 12.3127 92.4666 12.0449 92.7242 12.0449ZM74.1793 -2.94927C74.1793 -2.94927 74.4369 -2.94925 74.4369 -2.6815L74.4369 -2.41373L74.1793 -2.41373C73.9218 -2.68148 73.9218 -2.94927 74.1793 -2.94927ZM170.509 242.58L170.767 242.847C170.767 242.847 170.767 242.847 170.509 242.847C170.509 243.115 170.509 243.115 170.509 242.58C170.252 242.848 170.509 242.848 170.509 242.58ZM211.205 50.0657C211.205 49.7979 211.205 49.798 211.463 49.798L211.72 49.798L211.72 50.0657C211.463 50.3334 211.463 50.3334 211.205 50.0657ZM240.052 70.6826C240.568 70.1471 241.083 70.4149 241.34 70.6826C241.34 70.6826 241.34 70.9504 241.34 71.2182C241.34 71.2182 241.083 71.4859 240.825 71.4859C240.568 71.2181 240.31 70.9504 240.052 70.6826ZM249.325 72.8246C249.84 72.8246 250.355 72.8247 250.87 73.6279C249.84 73.3602 249.84 73.3601 249.325 72.8246ZM11.8482 105.758C11.5906 106.026 11.333 106.294 11.0755 106.294C10.8179 106.294 10.5603 106.294 10.5603 106.026C10.5603 105.758 10.5603 105.49 10.5603 105.49C10.5603 105.49 10.8179 105.223 11.0755 105.223C11.333 105.49 11.5906 105.758 11.8482 105.758ZM73.1491 78.7152C73.6642 78.983 73.9218 78.983 74.1793 79.2508C74.1793 79.2508 74.4369 79.7862 74.1793 79.7862C74.1793 79.7862 73.9218 80.054 73.6643 80.054C73.1491 80.054 73.1491 79.5185 73.1491 78.7152ZM236.704 67.7374C237.477 67.4696 237.992 68.0051 238.765 68.2729C239.022 68.2729 239.537 68.5406 239.537 68.8083C239.28 69.3439 239.022 68.8083 238.765 68.8083C237.477 69.0761 236.962 68.5406 236.704 67.7374ZM90.4061 11.2416C90.4061 10.9738 90.9212 10.7061 91.1788 10.7061C91.4363 10.9739 91.6939 11.2416 91.9514 11.5093C92.209 11.7771 91.9515 12.3127 91.6939 12.3127C90.9212 12.5804 90.4061 11.7771 90.4061 11.2416ZM95.8149 9.90282C96.5876 9.63507 97.3604 9.90285 97.8755 10.4384C98.1331 10.4384 97.8755 10.9738 97.8755 11.2416C97.8755 11.5093 97.6179 11.7771 97.3604 11.5093C96.5877 11.2416 96.0725 10.7061 95.8149 9.90282ZM172.055 27.3067C173.085 27.039 173.858 27.039 174.63 27.5745C175.146 28.11 175.403 28.6455 175.403 29.4488C175.146 29.4488 174.63 29.4488 174.373 29.181C173.6 28.9133 173.085 28.11 172.055 27.3067ZM247.007 207.504C248.037 208.04 248.81 208.04 249.325 208.843C249.84 209.378 250.355 209.914 250.87 209.914C252.158 209.914 253.188 210.717 253.961 211.52C253.961 211.52 253.961 211.788 254.219 212.056C253.961 212.056 253.704 212.056 253.704 212.056C252.673 211.52 251.901 211.253 251.128 210.717C250.613 210.449 250.098 209.914 249.583 209.914C248.81 209.646 248.295 209.111 247.522 208.575C247.264 208.307 247.264 208.307 247.007 207.504ZM256.279 226.247C255.764 226.782 255.249 227.318 254.734 227.586C253.704 227.318 253.446 226.515 253.188 225.711C253.188 225.176 253.188 224.64 253.704 224.373C254.219 224.105 254.734 223.837 255.249 224.105C255.764 224.908 256.022 225.711 256.279 226.247ZM249.325 74.9667C249.067 75.2345 248.81 75.2344 248.552 75.5022C247.522 75.7699 246.749 75.5022 245.977 74.9667C245.719 74.6989 245.204 74.4312 244.946 74.4312C244.174 74.4312 243.658 73.8957 243.143 73.6279L242.886 73.3602C242.886 73.0924 242.886 72.5569 242.886 72.2892C243.143 72.2892 243.659 72.2892 243.659 72.2892C244.689 72.8247 245.461 73.0924 246.492 73.6279C247.007 73.8957 247.78 74.1634 248.295 74.6989C248.81 74.1634 249.067 74.4312 249.325 74.9667ZM175.403 234.279C174.631 235.618 174.63 235.618 173.343 235.083C172.57 234.815 171.797 234.547 171.025 234.012C170.252 233.476 169.222 232.941 168.449 232.405C167.934 232.137 167.676 231.602 167.934 231.334C168.191 231.066 168.706 230.799 169.222 231.066C169.479 231.066 169.479 231.334 169.737 231.334C170.252 231.602 170.767 231.87 171.54 232.405C172.312 232.941 173.085 233.476 174.115 233.208C174.631 233.476 175.146 234.012 175.403 234.279ZM251.901 87.2833C251.128 88.0866 251.128 88.0866 250.613 88.0866C248.81 88.0866 247.007 87.2833 245.461 86.2123C245.204 85.9445 244.946 85.6768 244.689 85.1413C244.431 84.8735 244.431 84.6058 244.689 84.338C244.946 84.0703 244.946 84.0703 245.204 83.8025C246.234 84.338 247.264 84.6058 248.295 85.1413C249.583 85.9445 250.613 86.4801 251.901 87.2833ZM261.946 81.6605C261.688 82.4638 261.431 82.4637 260.915 82.4637C259.628 82.196 258.082 81.9283 257.052 80.5895C256.537 79.7863 255.764 79.2508 254.734 79.2508C253.446 79.2508 252.931 78.4475 252.158 77.6442C251.901 77.3765 251.901 77.1087 251.901 77.1087C251.901 76.8409 251.901 76.5732 251.901 76.5732C252.158 76.5732 252.416 76.3055 252.416 76.3055C253.961 77.1087 255.507 77.912 257.052 78.7152C257.31 78.983 257.567 78.983 257.825 78.983C259.37 79.5185 260.658 80.5895 261.946 81.6605ZM179.782 37.2136C179.267 36.6781 178.494 36.1426 177.979 35.6071C177.721 35.3393 177.464 35.0716 177.206 35.0716C175.661 34.5361 174.63 33.1973 173.6 32.1263C173.085 31.8586 172.828 31.3231 172.312 31.0553C170.767 30.5198 169.479 29.181 168.191 28.11C167.419 27.5745 166.646 26.7712 165.873 25.968C165.616 25.7002 165.616 25.4325 165.873 25.1647C165.873 24.897 166.388 24.6292 166.646 24.897C167.419 25.1647 168.449 25.7002 169.222 26.2357C169.737 26.7712 170.509 27.3068 171.282 27.8423C172.055 28.3778 172.57 29.181 173.343 29.4488C173.6 29.4488 174.115 29.9843 174.373 30.252C174.888 31.0553 175.403 31.323 176.176 31.5908C176.691 31.8585 176.949 31.8586 177.464 32.3941C178.236 33.1973 179.267 34.0006 180.039 34.8038C180.297 35.0716 180.555 35.3393 180.812 35.3393C182.357 36.1426 183.645 36.9459 185.191 37.7491C186.221 38.2846 187.251 39.0878 188.282 39.6234C189.054 40.1589 190.085 40.6944 190.6 41.4976C191.372 42.3009 192.145 42.8364 192.918 43.3719C194.206 44.4429 195.493 45.5139 196.781 46.3172C197.812 47.1204 198.584 47.656 199.615 48.1915C200.13 48.4592 200.645 48.7269 200.645 49.2625C200.902 49.5302 201.16 49.798 201.417 49.798C202.963 50.6012 204.766 51.1367 205.796 52.7432C206.054 53.011 206.054 53.011 206.311 53.2787C207.599 54.082 208.887 55.153 210.175 55.9563C210.432 56.224 210.69 56.4917 210.947 56.7595C210.69 57.0272 210.432 57.295 210.175 57.295C208.887 57.0273 207.857 56.4918 206.826 55.6885C205.023 54.3497 203.478 53.2788 201.417 52.2077C199.872 51.4045 198.584 50.6012 197.554 49.2625C196.781 48.1914 195.751 47.6559 194.463 47.3882C193.948 47.3882 193.433 47.1204 193.175 46.5849C192.66 46.0494 192.403 46.0495 191.888 45.7817C190.857 45.2462 189.827 44.7107 189.054 44.1752C188.282 43.3719 187.251 42.5687 186.479 41.7654C185.448 40.9622 184.161 40.1589 183.13 39.0879C182.1 38.8201 180.812 38.0169 179.782 37.2136ZM174.888 239.902C174.373 239.635 174.115 239.367 173.6 239.099C173.085 239.099 172.828 238.831 172.57 238.564C170.767 237.225 168.706 236.421 166.646 235.618C166.388 235.618 166.131 235.35 165.873 235.083C165.358 234.547 164.843 234.279 164.328 233.744C163.813 233.208 163.813 233.208 164.328 232.137C164.585 232.137 165.101 232.137 165.358 232.137C165.616 232.137 165.873 232.137 165.873 232.405C166.131 233.208 167.161 233.476 167.676 234.012C169.737 235.083 171.797 236.154 173.858 237.225C174.373 237.492 174.631 237.76 175.146 238.028C175.403 238.296 175.661 238.296 175.918 238.564C176.176 238.831 176.176 239.099 175.918 239.367C175.146 239.634 174.888 239.635 174.888 239.902ZM266.324 218.75C266.067 218.482 265.809 218.482 265.552 218.214C264.521 217.143 263.749 216.34 262.718 215.269C261.431 213.93 260.4 212.324 258.597 211.52C258.082 211.253 257.567 210.449 257.052 209.914C256.794 209.646 256.537 209.111 256.279 208.843C254.991 207.504 253.704 206.433 252.158 205.094C251.901 204.827 251.901 204.559 251.643 204.023C251.901 204.023 252.416 204.023 252.416 204.023C252.673 204.291 252.931 204.559 253.188 204.827C253.446 205.362 253.704 205.63 254.219 205.898C254.734 206.165 254.991 206.433 255.507 206.701C256.279 207.236 257.052 207.772 257.825 208.575C258.082 209.646 258.855 209.914 259.628 210.449C259.885 210.449 260.143 210.717 260.143 210.985C261.946 212.859 263.749 214.733 265.294 216.608C265.552 216.876 265.809 217.411 266.067 217.947C266.582 218.214 266.324 218.482 266.324 218.75C266.582 218.75 266.582 218.75 266.324 218.75C266.582 218.75 266.324 218.75 266.324 218.75ZM81.6488 5.35108C82.1639 5.35108 82.4215 5.35108 82.9366 5.35108C83.1942 5.35108 83.4518 5.61878 83.4518 5.88653C83.4518 6.15429 83.1942 6.1543 82.9366 6.1543C82.1639 6.1543 81.6488 5.88658 81.6488 5.35108C81.3912 5.35108 81.3913 5.35106 81.3913 5.08331C81.3913 5.35106 81.3912 5.35108 81.6488 5.35108ZM31.1657 97.7257L31.1657 97.9935C31.4233 97.7257 31.4233 97.7257 31.1657 97.7257C31.1657 97.4579 31.1657 97.4579 31.1657 97.7257C30.9081 97.4579 30.9081 97.4579 30.9081 97.4579C31.1657 97.4579 31.1657 97.4579 31.1657 97.7257ZM244.689 69.8794C244.689 69.8794 244.689 69.6117 244.689 69.8794C244.689 69.6117 244.689 69.8794 244.689 69.8794ZM249.583 207.504C249.583 207.504 249.583 207.772 249.583 207.504C249.583 207.772 249.583 207.504 249.583 207.504ZM266.324 80.8572C266.067 80.5895 265.809 80.054 265.552 79.5184C266.067 79.5184 266.582 79.5184 267.097 79.5184C266.839 78.9829 266.582 78.7152 266.582 78.1797C265.809 77.6442 265.037 78.1797 264.521 77.1087C264.521 76.5732 265.294 76.841 265.552 76.5732C265.809 76.3055 265.809 76.0377 266.067 75.5022C265.552 75.2344 265.294 74.9667 264.779 74.9667C264.006 74.9667 263.749 74.6989 263.234 74.1634C262.203 73.6279 261.431 72.8247 260.4 72.0214C260.658 71.7537 260.658 71.2182 260.915 70.9504C260.4 70.6827 260.143 70.4149 259.628 70.1471C259.37 70.1471 259.37 69.8794 259.113 69.8794C257.825 70.1472 257.309 69.0761 256.794 68.2729C256.537 68.0051 256.537 67.7374 256.279 67.7374C254.734 66.9341 253.188 67.4696 251.643 67.2019C251.385 67.2019 251.128 67.4696 250.87 67.4696C249.583 68.0051 248.552 67.7374 247.522 66.9341C246.492 66.1309 245.204 65.5954 243.916 65.5954C243.143 65.5954 242.371 65.3276 241.855 64.5244C241.598 64.5244 241.34 64.5243 240.825 64.7921C240.053 63.7211 239.28 62.6501 237.734 62.3823C236.962 62.1146 236.447 61.8469 235.674 61.8469C234.129 61.5791 232.841 60.7758 231.553 59.9725C229.75 58.9015 227.689 57.8305 225.886 57.0273C224.598 56.4918 223.568 55.6885 222.28 54.8853C220.993 54.082 219.447 53.2787 217.902 53.011C217.902 53.8142 218.674 54.082 218.932 54.3497C220.22 55.153 221.765 55.9562 223.311 56.7595C224.083 57.0272 224.599 57.5627 225.114 58.0983C226.144 58.9015 227.174 59.437 228.462 59.9725C230.265 60.7758 232.068 62.1146 233.613 63.1856C233.871 63.1856 233.871 63.4533 233.871 63.4533C233.871 63.9888 233.613 63.9888 233.356 63.9888C232.583 63.9888 231.81 63.9888 231.295 63.7211C231.295 63.7211 231.295 63.7211 231.038 63.7211C229.492 63.7211 228.462 62.65 227.432 62.1145C225.629 61.3113 223.826 60.2403 222.28 58.9016C222.023 58.6338 221.765 58.6338 221.508 58.6338C219.705 58.0983 218.417 56.4917 216.871 55.4207C216.356 54.8852 215.841 54.3498 215.069 53.8143C214.296 53.2788 213.781 52.4754 213.781 51.4044C213.523 51.4044 213.266 51.4044 213.008 51.4044C212.75 51.4044 212.493 51.1367 212.493 50.6012C212.493 50.0657 212.75 50.0657 213.266 50.0657C213.008 49.7979 213.008 49.5302 212.75 49.5302C211.463 48.727 210.175 47.3882 208.629 46.8527C207.342 46.3172 206.569 45.5139 205.281 45.2462C205.023 45.2462 205.023 44.9784 205.023 44.9784C204.251 44.1751 203.478 43.6396 202.19 43.6396C201.675 42.0331 200.13 42.3009 199.099 41.7654C198.842 42.0332 199.099 42.3009 199.099 42.3009C199.099 42.3009 199.099 42.3009 199.357 42.3009C200.13 43.9074 201.675 44.7107 203.22 45.5139C203.478 45.7817 203.736 46.0494 203.993 46.3172C204.508 46.5849 204.766 47.1205 205.281 47.1205C205.796 47.3882 206.311 47.9237 206.569 48.1915C206.826 48.4592 207.342 48.9947 207.342 49.798C207.084 49.798 207.084 50.0657 206.826 50.0657C205.796 50.0657 204.766 49.5302 203.993 48.9947C202.705 47.6559 201.16 46.8527 199.615 45.7817C198.584 44.9784 197.554 44.4429 196.524 43.9074L196.524 44.1752C196.524 44.1752 196.266 44.1752 196.009 44.1752C196.009 44.1752 196.009 44.1752 196.009 43.9074L196.266 43.6396L196.524 43.6396C196.266 43.3719 196.266 43.1042 196.009 43.1042C194.978 42.8364 194.206 42.0331 193.69 41.2299C193.175 40.4266 192.66 39.8911 192.145 39.6234C191.63 39.3556 191.115 38.8201 190.6 38.2846C190.6 38.2846 190.6 38.0169 190.342 37.7491C190.6 37.7491 190.857 37.7491 191.115 37.7491C192.145 38.2846 193.175 38.5524 193.948 39.0879C194.206 39.3556 194.721 39.6234 194.978 39.8911C195.751 40.6944 196.781 41.2299 197.812 41.4976L198.069 41.4976C197.812 40.6944 196.781 40.6944 196.524 39.8911C196.266 39.6234 196.009 39.3556 196.009 39.3556C196.266 38.5523 195.751 38.2846 195.236 38.0168C193.948 37.7491 193.175 36.9459 192.145 36.1426C191.888 35.8748 191.372 35.6071 191.115 35.6071C190.857 35.6071 190.6 35.3394 190.6 35.0716C189.827 34.0006 188.797 33.1973 187.509 32.6618C186.994 32.394 186.479 31.8585 185.963 31.5908C185.706 31.323 185.448 31.5908 185.191 31.5908C184.933 31.5908 184.418 31.323 184.16 31.323C184.676 31.8585 184.933 32.394 185.448 32.6618C184.933 33.465 184.676 33.7328 184.418 33.4651C183.645 33.1973 183.13 32.6618 182.357 32.1263C181.842 31.8586 181.585 31.323 180.812 31.323C180.812 31.323 180.555 31.3231 180.555 31.0553C179.782 30.2521 179.009 29.4488 177.979 28.9133C177.464 27.8422 176.691 27.8423 175.661 27.8423C175.403 27.039 175.918 27.3068 176.176 27.039C175.403 26.5035 174.888 25.968 174.115 25.7003C173.6 25.4325 173.085 25.1648 172.57 25.4325C172.312 25.4325 172.055 25.4325 171.797 25.1647C171.54 24.6292 170.767 24.3615 170.509 23.826C170.252 23.5582 169.994 23.2905 169.479 23.5582C169.737 23.826 169.737 23.826 169.994 24.0937C170.509 24.897 170.252 25.4325 169.479 25.968C168.706 25.1647 167.676 24.6292 166.903 23.826C165.873 22.755 164.843 22.4872 163.298 22.755C162.782 23.0227 162.267 22.7549 162.01 22.2194C162.01 21.9517 162.01 21.684 162.01 21.4162C162.267 21.4162 162.525 21.4162 162.525 21.4162L162.525 21.1485C162.267 20.8807 162.01 20.6129 161.752 20.6129C161.237 20.3452 160.979 20.0774 160.464 19.8097C159.949 19.2742 159.176 18.7387 158.404 18.4709C157.631 18.2032 157.116 17.9355 156.343 17.6677C155.57 17.3999 155.313 16.5967 154.798 16.0612C154.283 15.7934 153.768 15.2579 153.252 15.2579C152.222 14.9901 151.449 14.1869 150.934 13.3836C149.904 14.4547 149.646 14.4547 148.874 13.3836C148.874 13.1159 148.616 13.1159 148.616 13.1159C148.616 13.1159 148.616 13.3836 148.359 13.3836L148.101 13.1159C147.586 12.5804 147.071 12.3126 146.556 11.7771C145.783 11.2416 145.01 11.2416 144.238 11.2416C143.98 11.2416 143.722 11.5094 143.722 11.7771C143.465 12.0449 143.207 12.5804 142.95 13.1159C143.207 13.6514 143.207 14.1869 143.465 14.7224C143.465 14.9902 143.207 15.5256 142.692 15.2579C142.435 15.2579 142.435 15.2579 142.177 14.9902C141.404 14.4547 140.632 13.9192 140.117 13.3836C139.601 12.5804 138.829 12.3126 138.056 12.5803C137.026 11.7771 136.253 10.9739 134.965 10.7061C133.935 9.63511 132.39 9.09959 131.359 7.76083C131.359 8.02858 131.102 8.2963 131.102 8.56405C130.844 8.83181 130.587 8.83184 130.071 9.09959C129.299 8.83184 128.526 8.29635 127.753 8.0286C127.496 8.29635 127.496 8.56407 127.238 8.83182C126.981 9.09958 126.465 9.36734 126.208 9.09959C125.693 8.83184 125.435 8.2963 124.92 8.56405C125.693 9.63506 126.723 10.4384 128.011 10.7061C129.299 10.9739 130.329 11.7771 131.359 12.3127C131.617 12.5804 132.132 12.8481 132.132 13.1159C132.389 14.1869 132.905 14.4547 133.677 14.7224C134.708 15.2579 135.738 16.0612 135.995 17.6677C135.995 18.2032 135.738 18.4709 135.223 18.4709C134.45 18.4709 133.935 18.2032 133.162 18.2032C132.905 17.9354 132.647 17.3999 132.389 17.1322C131.617 15.7934 130.329 15.2579 128.784 15.2579C128.526 15.2579 128.011 15.2579 127.753 14.9902C127.496 14.7224 127.496 14.4546 127.238 13.9191C127.238 13.6514 127.238 13.6514 127.238 13.3836C126.981 13.3836 126.981 13.3836 126.723 13.3836C125.693 13.9192 124.92 13.3836 124.147 12.5803C123.89 12.3126 123.89 12.0449 123.632 11.7771C123.375 11.5094 123.375 11.2416 123.117 11.2416C121.572 10.7061 121.314 8.83186 120.284 8.0286L120.284 7.49306C120.284 7.49306 120.799 7.22531 120.799 7.49306C121.314 7.76081 121.829 8.02855 122.087 8.56405C122.344 8.83181 122.602 9.09961 122.859 9.36736C123.375 8.83185 123.89 8.5641 124.147 8.0286C123.117 7.22534 121.829 6.68985 121.057 5.61884C120.799 5.35109 120.541 5.35106 120.026 5.0833C119.254 4.5478 118.481 4.0123 117.708 3.74454C117.193 3.47679 116.936 2.94125 116.163 3.20901L115.648 2.94132C115.39 2.40581 115.133 1.60252 114.875 1.06702C114.617 0.799266 114.102 0.799233 113.845 0.531481C113.587 -0.00402459 113.33 -0.539464 113.072 -1.07497C112.557 -1.07497 112.042 -1.34275 111.784 -1.61051C111.784 -1.075 111.527 -0.53948 111.784 -0.00397484C112.042 1.06703 111.527 1.87031 110.754 2.94132C110.239 3.74458 109.724 4.28005 109.208 5.08331C108.693 5.08331 108.178 5.08327 107.921 4.54777C107.406 3.74451 106.89 2.94127 106.118 2.13801C105.345 2.13801 105.345 3.20902 104.83 3.47677C104.315 3.47677 103.8 3.47677 103.027 3.47678C102.769 4.54778 102.254 5.35106 103.027 6.42207C103.284 6.68982 103.027 6.95754 103.284 7.22529C102.512 7.7608 101.739 7.49306 101.224 7.49306C100.966 7.76082 100.709 8.02862 100.451 8.29637C99.9361 9.63513 98.6482 9.63512 97.618 9.36736C96.8452 9.09961 95.815 9.09959 95.0423 9.09959C94.5271 9.09959 93.7544 8.83181 93.4969 8.56406C92.7242 7.7608 91.9515 7.22531 91.6939 6.1543C91.4364 5.35104 90.4061 4.54782 89.8909 4.01231C88.3455 4.01231 88.088 5.35103 87.0577 5.88653C87.5728 6.15428 88.088 6.68985 88.3455 6.95761C88.3455 7.49311 88.088 8.02855 88.8607 8.56406C89.1183 8.83181 89.1183 9.09963 88.8607 9.63513C88.6031 10.1706 88.3456 10.1706 87.8304 10.1706C87.3153 10.1706 87.0577 9.90282 86.5426 9.90282C85.5123 9.63507 84.9971 9.09963 84.482 8.29637C84.2244 7.76086 83.9669 7.49305 83.7093 7.22529C83.1942 6.68979 83.1942 6.15433 82.6791 5.35108C82.164 5.08332 81.6488 5.08329 80.8761 4.81554C80.8761 3.74453 80.1034 2.94131 79.0731 2.67355C78.558 2.67355 78.3004 2.40577 77.7852 2.13801C76.4974 1.60251 76.2399 1.33477 75.9823 -0.271741C76.4975 -0.807246 77.0126 -1.075 77.7852 -1.6105C77.5277 -2.41376 77.5277 -3.21699 77.2702 -3.75249C77.7853 -4.288 78.3004 -4.55581 78.8156 -4.82357C79.3307 -5.09132 80.1034 -5.35904 80.6185 -5.62679C81.3912 -5.89454 81.9063 -5.89458 82.9366 -6.16233C83.1942 -6.43008 83.4518 -6.69778 83.7093 -6.69778C83.9669 -6.96554 84.2244 -6.96557 84.482 -7.23332C84.482 -7.76883 84.482 -8.30435 84.7396 -8.83985C83.7093 -9.10761 82.679 -9.10757 81.9063 -8.30432C81.9063 -8.30432 81.6488 -8.03655 81.3913 -8.03655C80.6186 -8.3043 80.1034 -7.76883 79.5883 -7.23332C79.3307 -6.96557 78.8156 -6.96554 78.558 -6.69778C77.7853 -6.69778 77.0126 -6.43002 76.2399 -6.43002C75.9823 -6.43002 75.7247 -6.43002 75.4672 -6.43002C74.6945 -6.69777 73.9218 -6.43002 73.1491 -6.43002C72.6339 -6.43002 72.3764 -6.16231 71.8612 -5.89456C71.8612 -5.35905 72.1188 -4.82355 72.1188 -4.5558C72.1188 -4.28804 71.6036 -4.02024 71.3461 -3.75249C71.3461 -3.48474 71.6037 -3.48479 71.6037 -3.21703C72.3764 -2.68153 72.3764 -2.41376 71.8612 -1.6105C71.6037 -1.075 71.3461 -0.539477 71.3461 -0.0039713C71.3461 1.06704 71.6037 1.87031 71.6037 2.94132C71.3461 3.20907 70.5734 3.47683 70.5734 4.28008C70.5734 4.54784 70.3158 4.81554 70.0582 4.81554C69.2855 5.08329 68.7705 5.6188 68.5129 6.1543C68.2553 6.42206 67.9977 6.68982 67.7402 6.42207C67.225 6.42207 67.2251 5.8866 67.2251 5.61885C67.2251 5.35109 67.4826 4.81552 67.4826 4.54777C67.4826 4.28002 67.4826 4.01228 67.7402 3.47678C66.4523 2.94127 65.6797 3.47681 64.6494 4.01232C64.1343 4.28007 63.8767 4.81557 63.3616 5.35108C63.3616 6.15434 63.3615 6.15429 62.3312 7.2253C60.7858 6.42204 59.2405 5.61878 57.6951 4.54777C57.4375 4.54777 56.9224 4.81554 56.6648 4.81554C55.6345 5.08329 55.3769 4.81557 54.8618 4.01232C54.8618 3.74456 54.6042 3.47676 54.6042 3.20901C53.8315 3.20901 52.8013 3.20901 52.2861 1.87025C52.0286 2.40575 52.0285 2.67355 52.0285 2.67355C52.2861 3.74456 52.2862 5.08329 53.0589 6.1543C53.3165 6.42206 53.3164 6.68986 53.3164 6.95761C53.8315 8.29637 53.8315 9.36737 53.3164 10.7061C53.0588 11.2416 52.8013 11.5094 52.5437 12.0449C52.8013 13.3837 53.3164 14.4546 54.0891 15.5256C54.6043 16.3289 55.1194 17.3999 55.377 18.2032C55.6345 19.2742 55.8921 20.0774 56.6648 20.8807C56.9224 21.1484 57.1799 21.6839 57.1799 22.2195C57.4375 23.2905 56.6648 24.3615 56.6648 25.4325C56.6648 25.968 56.1497 26.5035 55.377 27.039L55.1194 27.3067C54.8618 28.6455 55.1194 29.7166 55.377 31.0553C55.377 31.5908 55.8921 32.1263 56.4072 32.3941C56.9224 32.6618 57.4375 32.9296 58.2102 33.4651C59.4981 34.2683 60.2707 35.3393 60.2707 36.9458C60.2707 37.2136 60.2707 37.2136 60.2707 37.4814C60.2707 37.4814 60.2707 37.4814 60.2707 37.7491C59.7556 38.0169 59.2405 38.5524 58.7253 38.8201C59.2405 39.6234 59.7556 40.1589 60.0131 40.6944C60.0131 41.4976 59.2405 41.4976 58.9829 42.0331C58.9829 42.3009 59.2405 42.3009 59.2405 42.5687L59.2405 42.3009C59.4981 42.5686 60.0132 42.5687 60.2707 42.5687C60.5283 42.5687 60.5283 42.5687 60.7859 42.5687C60.7859 42.8364 60.7859 42.8364 60.7859 43.1042C61.0435 43.9075 61.8162 43.6397 62.0737 44.443C62.0737 44.7107 62.0737 45.2462 61.5586 45.5139C60.7859 45.7817 60.2708 45.5139 59.4981 45.2462C59.2405 44.9784 59.2405 44.9784 58.9829 44.7106C58.4678 43.6396 57.695 42.5687 57.1799 41.7654C56.6648 40.9622 55.8921 40.4266 55.1194 39.8911C54.6043 39.6234 54.0891 39.6234 53.574 39.8911C53.3164 39.8911 53.3165 39.6234 53.0589 39.6234L52.8013 39.8911C53.0589 41.2299 52.2861 42.0332 52.0285 43.1042C52.2861 43.3719 52.2861 43.3719 52.5437 43.6396C53.0589 43.9074 52.8013 44.4429 52.8013 44.9784C53.3164 45.2462 53.8316 45.2461 54.0891 46.0494C54.0891 46.0494 54.3467 46.0494 54.3467 46.3172C54.3467 46.3172 54.3467 46.3172 54.0891 46.3172C54.0891 46.3172 54.0891 46.0494 53.8315 46.0494C53.574 46.0494 53.3165 46.3172 53.0589 46.3172C53.3165 46.5849 53.574 46.8527 53.8315 47.1205C54.0891 47.3882 54.0891 47.656 54.0891 48.1915C54.0891 48.727 54.0891 49.5303 54.8618 49.798C55.1194 50.0658 55.377 50.3335 55.377 50.6012C55.1194 51.1367 54.8619 51.6723 54.3467 52.2078C54.3467 52.2078 54.6042 52.2078 54.6042 52.4755L54.6042 52.2078C54.3467 52.2078 54.3467 52.2078 54.0891 52.4755C53.8316 52.7433 53.5739 52.7433 53.3164 52.2078C53.3164 52.2078 53.0589 52.2077 53.0589 51.94C53.0589 52.2077 53.3164 52.7432 53.3164 53.011C53.5739 53.2787 53.8315 53.5465 53.8315 53.8143C53.3164 54.8853 53.3164 54.8853 53.8315 55.6885C54.0891 56.224 54.0891 57.0273 54.6042 57.295C54.8618 57.5628 54.3467 58.366 54.0891 58.0983C53.574 57.8305 52.8013 58.0983 52.5437 58.366C52.5437 58.6338 52.5437 59.1693 52.5437 59.437C52.8013 59.437 52.8013 59.437 53.0589 59.437C53.574 59.1693 54.0891 58.9015 54.6042 59.7048C54.6042 59.9725 54.3467 59.9726 54.3467 60.5081C54.8619 60.7759 55.3769 61.0436 56.1496 61.3113C56.1496 62.1146 55.6345 62.3823 55.377 62.6501C55.377 62.9178 55.377 63.4533 55.377 63.7211C55.377 63.9888 55.6346 63.9889 55.6346 63.9889C56.4073 64.5244 56.6648 65.5954 56.6648 66.6664C56.6648 67.2019 55.8921 67.4697 55.6346 67.2019C54.8619 66.3987 53.574 66.3986 52.5437 66.1308C52.0286 65.8631 52.0285 64.5244 50.7407 64.5244C50.7407 65.5954 50.9983 66.3986 52.0285 66.9342C51.771 68.0052 50.2256 67.2019 50.2256 68.2729C50.9983 68.5407 51.771 68.5406 52.2861 68.0051C52.5437 67.7374 53.0589 67.7374 53.0589 68.2729C52.8013 68.5407 52.5437 68.8084 52.2861 69.3439C52.0286 69.6117 52.0286 69.8794 51.7711 69.8794C50.4832 69.8794 49.7105 71.2181 48.4226 71.4859C48.1651 71.4859 47.9075 72.0214 48.165 72.2892C48.6802 72.557 48.9378 72.8247 49.1954 73.628C49.1954 73.8957 49.4529 74.4312 49.7105 74.699C48.4226 75.5022 46.8773 76.3055 45.3319 76.3055C45.0743 76.3055 44.8167 76.3055 44.5591 76.0377C43.7864 75.5022 42.7562 74.9667 41.9835 74.699C41.7259 74.699 41.4684 74.4312 41.2108 74.1634C40.4381 73.3602 39.6654 73.3602 38.8927 74.1634C38.6351 74.4312 38.12 74.9667 37.6049 75.5022C37.6049 75.7699 37.6048 76.3054 37.8624 76.8409C37.6048 77.1087 37.3473 77.1087 37.0897 77.3765C35.2867 75.2345 33.4837 72.8247 31.4232 70.6827C30.9081 71.2182 30.393 71.7537 29.8778 72.2892C29.3627 71.7537 28.59 71.2182 28.3324 70.9504C28.0749 70.9504 28.0748 70.9504 27.8173 70.9504C27.3021 71.4859 27.0446 71.7537 26.5294 72.2892C26.0143 72.8247 25.4992 72.2891 24.984 72.8247C24.7264 73.0924 23.9538 72.8247 23.4387 73.0924C23.1811 73.6279 23.4387 74.1635 23.4387 74.9667C23.4387 75.5022 23.6962 76.0378 23.6962 76.5733C23.6962 77.6443 23.9538 78.4475 24.7265 79.2508C25.4992 81.3928 27.0446 82.7315 28.3324 84.3381C28.59 84.6058 28.8476 84.8736 28.59 85.4091C28.59 86.4801 28.8476 87.2833 29.6203 88.0866C29.6203 88.0866 29.6203 88.3543 29.8778 88.3543C30.393 89.1576 30.1354 89.9608 29.3627 90.2286C29.1051 90.2286 28.8476 90.4963 28.59 90.4963C28.59 90.7641 28.8475 90.7641 28.8475 91.0319C28.5899 91.8351 28.5899 92.6384 28.8475 93.1739C28.3324 93.9771 27.5597 94.7804 27.0446 95.5836C26.2719 95.5836 25.4992 95.5837 24.4689 96.1192C24.4689 96.3869 24.4689 96.6546 24.7265 96.9224C24.9841 97.1901 25.4992 97.7257 25.7568 97.9935C26.2719 98.529 26.5294 99.0644 26.5294 99.5999C26.2719 99.8677 26.0143 100.135 25.4992 100.403C25.7568 100.939 26.0144 101.206 26.0144 101.474C26.0144 102.01 24.9841 102.813 24.4689 102.813C24.2114 102.813 23.9538 102.813 23.9538 102.545C23.4386 101.742 22.4084 101.742 21.6357 102.01C21.1206 102.277 20.3478 102.277 19.8327 102.545C19.5751 102.277 19.0601 102.01 18.8025 101.742C18.0298 102.01 17.7722 102.545 17.5147 102.813C17.5147 103.348 18.0298 103.348 18.2873 103.616C19.06 104.419 19.5752 105.223 20.863 105.223C21.1206 105.223 21.3781 105.491 21.6357 105.758C22.1508 106.294 22.666 106.562 23.1811 107.097C23.4387 107.365 23.6962 107.9 23.9538 108.168C23.9538 108.971 22.666 108.704 23.4387 109.507C23.1811 109.507 23.1811 109.775 22.9235 109.775C22.1508 109.775 21.3782 109.507 20.863 108.971C19.5752 108.168 18.5449 107.365 16.9995 107.097C15.4541 106.829 14.1662 106.026 12.8783 104.955C12.3632 104.687 11.8481 104.419 11.333 104.152C10.5603 103.884 10.0452 103.884 9.2725 103.616C8.75736 103.348 8.4998 103.349 7.98466 103.349C7.98466 103.616 8.24223 103.884 7.98466 103.884C7.21195 104.687 6.95433 106.026 5.66648 106.561C4.89378 106.561 4.12104 106.562 3.86347 105.758C3.60594 104.955 3.60606 104.42 4.6363 103.349C4.1212 103.081 3.86363 102.813 3.34849 103.349C3.09092 103.616 2.83323 103.884 2.57566 103.884C2.31809 104.152 2.06056 104.42 1.80299 104.687C1.80299 105.223 1.80299 105.758 1.80299 106.294C1.80299 106.829 1.80296 107.365 1.28782 107.9C1.03025 108.168 1.03038 108.436 0.772807 108.704C0.25767 109.775 -2.00404e-05 110.846 -1.99233e-05 112.184C0.257549 114.059 0.515178 115.933 1.03032 117.539C1.54545 119.414 1.80302 121.02 2.31816 122.894C2.57573 123.698 2.83326 124.501 3.09083 125.304C3.86354 126.911 4.37861 128.517 5.15132 130.124C5.66646 131.73 6.69685 133.337 7.21199 134.676C8.24226 136.818 9.78767 138.424 11.0755 140.298C11.8482 141.637 12.6208 142.976 13.3935 144.315C14.1662 145.921 15.454 147.26 16.7418 148.599C18.0297 149.937 18.8025 151.276 19.5752 152.883C19.5752 153.15 19.8327 153.15 19.8327 153.418C20.0903 155.025 20.0903 155.025 20.863 156.096C20.863 156.363 20.6054 156.631 20.6054 156.631C20.3479 157.167 20.3479 157.702 20.863 158.238C21.3782 158.773 21.8933 159.576 22.1509 160.38C22.4084 160.915 22.4084 161.183 22.1509 161.719C21.8933 162.254 22.1508 162.79 22.4083 163.057C22.9235 163.593 23.181 164.128 23.6962 164.664C24.7265 165.735 26.0144 166.806 27.3022 167.341C27.5598 167.341 27.5597 167.609 27.8173 167.609C28.8475 167.877 29.6203 168.68 30.393 169.216C31.1656 170.019 32.1959 170.554 32.9686 171.358C34.2565 172.429 35.5443 173.232 36.317 174.571C37.6049 175.106 38.12 176.177 39.1502 176.98C40.1805 177.784 40.9532 178.587 41.7259 179.39C43.0137 180.729 44.3016 182.068 45.5894 183.406C46.6196 184.478 47.9075 185.548 48.9378 186.887C49.1954 187.423 49.9681 187.423 50.2256 188.226C50.4832 188.761 50.9983 189.297 51.5135 189.833C52.0286 190.368 52.2862 190.904 52.8013 191.439C53.0589 191.707 53.3164 191.975 53.574 192.242C54.8618 193.313 55.6346 194.652 56.6648 195.723C58.4678 198.668 61.301 200.543 63.6191 202.685C65.1645 204.023 66.7099 205.362 68.2553 206.701C68.5129 207.504 69.5431 207.504 70.0583 208.307C70.3158 209.111 71.3461 209.378 71.8613 209.914C72.3764 210.449 73.1491 210.985 73.6643 211.52C74.1794 212.056 74.6945 212.592 74.9521 213.127C75.7248 214.466 76.755 215.537 77.7853 216.34C79.3307 217.679 80.6185 219.018 82.1639 220.089C82.1639 221.16 82.4215 221.963 83.1942 222.498C84.7396 223.837 86.2851 225.444 87.8304 226.782C88.088 226.782 88.088 227.05 88.3455 227.05C89.8909 228.389 91.6939 229.728 93.2393 231.066C94.5271 232.137 95.815 233.208 97.1028 234.012C97.6179 234.012 97.618 234.547 97.8756 234.815C98.1331 234.547 98.1331 234.547 98.3906 234.815C98.3906 235.083 98.3906 235.083 98.3906 235.35C100.194 236.957 101.997 238.296 104.057 239.902C106.375 241.777 108.436 243.918 111.011 245.525C111.527 245.793 112.042 246.596 112.557 247.132C113.072 247.667 113.33 247.935 113.845 248.203C114.36 248.738 115.133 249.006 115.905 249.541C117.451 250.88 119.254 251.951 121.057 253.29C122.602 254.361 124.147 255.7 125.693 256.771C126.723 257.574 127.753 258.377 129.041 258.913C129.556 259.18 130.329 259.448 130.844 259.716C131.102 259.984 131.617 259.984 131.617 260.251C131.874 261.055 132.39 261.055 132.905 261.322C133.935 261.858 133.935 261.858 134.45 260.519C134.192 259.984 133.677 259.716 133.42 259.18C132.905 258.377 132.132 258.109 131.102 258.109C130.844 258.109 130.329 258.109 130.071 257.842C129.041 256.771 127.753 255.967 126.723 254.896C126.723 254.896 126.723 254.896 126.466 254.629C126.466 254.093 126.465 253.825 126.723 253.29C126.981 253.29 126.981 253.29 127.238 253.29C129.299 254.361 131.102 255.432 133.162 256.503C134.45 257.306 135.738 257.574 137.026 258.377C138.056 258.913 139.086 259.448 140.117 259.984C140.632 260.251 140.889 260.251 141.404 260.519C141.404 260.251 141.404 260.251 141.404 259.984C141.404 259.716 141.404 259.448 141.662 259.448C141.92 259.18 142.177 259.18 142.435 259.18C142.692 259.18 142.95 259.448 143.207 259.448C144.495 259.984 145.525 260.519 147.071 259.984C147.071 260.251 147.328 260.787 147.328 261.055C149.131 261.858 150.934 262.661 152.995 263.732C153.252 264 153.768 264 154.283 264C154.798 264 155.055 263.732 155.571 263.732C155.828 263.732 156.343 264 156.858 264C156.601 263.732 156.601 263.464 156.601 263.197C156.343 262.661 156.086 262.393 156.343 261.858C156.601 261.59 156.601 261.055 156.343 260.787C155.571 259.984 155.828 259.448 156.086 258.645C156.086 258.377 156.086 258.109 156.343 257.842C156.858 257.306 157.631 257.306 158.404 257.038C158.661 257.038 158.919 257.038 159.176 257.306C159.949 257.574 160.464 257.842 160.979 258.377C161.237 258.645 161.752 258.645 162.01 258.645C162.525 258.645 162.525 258.645 163.04 257.574C162.267 256.771 161.752 255.967 162.267 254.896C162.782 253.825 163.298 252.754 164.843 253.022C164.07 252.487 163.813 252.219 163.555 251.683C163.04 250.88 163.298 250.077 164.07 250.077C164.843 250.077 165.873 250.077 166.646 250.612C167.419 250.88 167.934 251.416 168.706 251.951C168.964 251.951 169.222 251.951 169.737 251.683C169.737 251.416 169.994 251.416 169.994 251.416C169.737 250.345 169.737 249.541 169.479 248.47C170.509 248.203 171.025 247.399 171.282 246.328C171.282 246.061 171.282 245.525 171.025 245.525C170.509 244.989 170.509 244.186 170.509 243.383C170.767 243.115 171.025 242.848 171.282 242.58C173.6 243.115 175.661 243.919 177.721 244.99C178.236 245.257 179.009 245.793 179.524 246.061C179.782 245.793 179.782 245.525 179.524 245.525C179.009 245.257 178.752 244.99 178.236 244.722C177.464 244.186 176.949 243.651 176.949 242.847C177.206 242.58 177.464 242.044 177.721 241.776C177.721 241.509 177.721 240.973 177.464 240.705C176.949 240.17 176.949 239.634 177.206 239.099C177.206 238.831 177.206 238.563 177.206 238.296C176.691 238.028 176.176 237.492 175.918 237.225C175.403 236.957 175.146 236.421 175.146 235.886C175.146 235.35 175.403 235.083 175.918 234.547C176.691 234.815 177.464 235.083 177.721 235.886C177.979 236.689 178.752 237.225 179.524 237.225C180.555 237.225 181.07 238.028 181.327 238.831C181.842 239.099 182.1 239.099 182.615 239.367C183.13 239.367 183.388 239.634 183.903 240.17C184.418 240.705 184.933 240.973 185.706 241.241C187.509 242.312 189.312 243.115 191.115 244.186C191.63 244.454 191.887 244.99 192.403 245.257C192.918 245.525 193.175 246.061 193.948 245.793C194.206 245.793 194.463 246.061 194.463 246.061C195.236 247.399 196.781 247.935 197.812 248.738C199.615 250.077 201.417 251.148 203.22 252.219C203.736 252.487 204.251 253.022 204.766 253.558C205.023 253.825 205.539 254.361 205.796 254.629C206.054 254.896 206.311 254.896 206.311 255.432C206.311 255.7 206.569 255.967 206.826 255.967C207.599 256.235 208.629 256.503 209.66 256.771C210.69 257.038 211.463 257.306 212.235 257.842C212.75 258.109 213.266 258.645 214.038 258.645C214.038 258.377 214.038 258.109 213.781 257.574C215.326 257.038 216.614 256.503 218.159 257.574C218.417 257.306 218.932 257.038 219.19 256.771C219.705 256.771 220.22 257.038 220.477 257.306C220.735 257.574 221.25 257.574 221.508 257.306C222.023 257.038 222.28 257.038 222.796 257.306C223.568 257.574 224.083 257.842 224.856 257.574C225.371 257.038 225.371 256.503 225.114 255.967C224.856 254.896 224.856 254.093 225.371 253.022C225.629 252.487 225.629 251.951 225.371 251.148C224.856 249.809 225.114 249.541 226.144 248.738C226.401 248.47 226.917 248.203 227.174 248.47C227.689 248.47 228.204 248.738 228.462 249.006C228.72 249.006 228.977 249.274 229.235 249.541C230.78 250.345 231.038 249.809 231.553 249.006C231.81 248.738 231.81 248.738 232.068 248.47C233.613 247.935 234.901 247.935 236.189 249.006C236.447 249.274 236.704 249.274 236.962 249.274C237.992 249.274 238.765 249.541 239.795 249.809C241.083 250.345 242.113 250.345 243.143 249.274C243.658 249.006 243.916 248.738 244.689 248.738C245.204 248.738 245.461 248.203 245.204 247.667C244.946 246.864 244.431 246.061 243.916 245.525C243.658 244.989 243.658 244.454 243.916 243.919C244.174 243.383 244.174 242.848 244.174 242.312C244.431 241.241 244.946 240.705 245.977 240.705C247.007 240.705 247.78 240.973 248.81 240.973C249.325 240.973 249.583 240.973 250.098 240.973C250.87 240.705 251.901 240.705 252.673 240.705C252.931 240.705 253.446 240.705 253.961 240.438C254.991 239.634 256.022 239.367 256.794 238.296C257.31 237.76 257.825 237.225 258.597 237.225C258.855 237.225 259.112 236.957 259.37 236.689C259.885 235.35 259.628 234.279 258.855 233.476C258.597 232.941 258.34 232.405 258.082 231.87C257.825 231.334 257.31 230.799 256.794 230.531C256.279 229.995 256.022 229.46 255.764 228.389C257.31 228.389 258.855 227.853 260.143 229.192C260.658 229.192 260.915 228.924 261.173 228.924C261.173 228.389 261.173 228.121 261.173 227.853C261.173 227.05 260.915 226.247 261.173 225.444C261.431 224.64 261.173 224.105 260.915 223.302C259.628 221.16 258.082 219.285 256.794 217.143C256.537 216.608 255.764 216.34 255.507 215.805C254.991 215.269 254.991 214.734 255.764 214.466C256.022 214.198 256.537 214.198 256.794 214.198C258.34 215.269 258.855 217.411 260.658 218.214C260.915 217.679 261.431 217.143 261.688 216.608C261.946 216.876 262.203 216.876 262.461 217.143C263.491 218.214 264.264 219.285 265.294 220.089C265.809 220.624 266.067 221.16 265.809 221.963C265.809 222.498 265.809 222.766 265.809 223.302C265.809 223.569 265.809 223.837 265.552 224.105C265.294 224.64 265.552 224.908 265.809 225.444C266.067 225.711 266.582 225.711 266.84 225.444C267.355 225.176 267.87 224.64 268.385 224.105C268.127 223.034 268.643 222.231 268.127 221.16C268.127 220.892 268.127 220.356 268.385 220.089C269.158 219.285 268.9 218.214 268.642 217.411C268.642 217.411 268.642 217.411 268.642 217.143C269.415 216.608 269.158 215.804 269.673 215.001C269.93 215.001 270.188 214.733 270.445 214.733C271.991 214.198 271.991 214.198 273.279 215.269C273.536 214.733 273.279 214.466 273.021 214.198C272.248 213.395 271.733 212.859 270.961 212.056C269.673 210.717 268.385 209.378 266.84 208.04C265.294 206.433 263.749 205.094 262.461 203.488C262.203 203.22 262.203 202.952 262.203 202.952C262.203 202.685 262.461 202.685 262.718 202.685C263.234 202.685 263.749 202.685 264.264 202.952C264.521 202.952 265.037 202.952 265.294 203.22C265.552 202.952 265.552 202.952 265.552 202.685C265.809 202.417 266.067 202.149 266.324 201.881C266.84 201.614 267.355 201.881 267.612 202.149C268.127 202.685 268.385 203.22 268.9 203.756C269.158 204.291 269.673 204.559 269.93 205.094C270.703 205.898 271.476 206.433 272.248 207.236C273.021 208.04 273.279 209.111 273.794 209.914C274.051 210.449 274.309 210.985 275.082 210.985C275.854 210.717 276.112 210.182 276.112 209.646C276.112 209.111 275.854 208.843 275.339 208.575C274.824 208.04 274.309 207.504 273.794 206.969C273.021 206.165 272.506 205.094 271.476 204.827C271.218 204.559 270.961 204.291 270.703 204.023C270.445 203.756 270.188 203.488 269.93 203.22C268.9 202.952 268.643 202.149 268.127 201.346C267.612 200.81 267.612 200.007 268.127 199.472C268.385 198.936 268.9 198.401 269.415 197.865C269.93 197.33 270.445 197.33 271.218 197.33C271.733 196.526 271.733 195.723 271.476 194.92C271.218 194.117 270.703 193.046 269.673 192.778C269.158 192.51 268.9 192.242 268.385 191.974C267.355 191.171 266.582 190.636 265.294 190.636C265.037 190.636 264.779 190.368 264.521 190.368C262.718 189.297 260.916 188.226 259.113 187.155C258.082 186.619 257.31 185.816 256.279 185.281C253.961 183.942 251.901 182.335 249.84 180.729C248.81 179.926 247.78 179.122 247.007 177.784C246.749 177.516 246.749 177.248 246.749 176.713C248.037 176.445 249.325 176.445 250.355 177.516C251.128 178.051 251.643 178.855 252.673 178.587C252.416 178.319 251.901 177.784 251.643 177.516C250.87 176.98 250.098 176.177 249.325 175.642C248.037 174.571 247.007 173.232 245.719 172.161C244.689 171.358 243.916 170.287 243.143 169.216C242.628 168.412 242.113 167.609 241.34 167.074C240.825 166.538 240.825 166.538 240.568 165.467C240.825 165.199 241.083 165.199 241.598 165.467C243.401 166.538 245.204 167.877 246.749 169.483C247.522 170.287 248.295 170.822 248.81 171.625C249.067 171.893 249.325 172.161 249.583 172.161C250.613 172.696 251.386 173.5 252.416 174.303C253.704 175.374 254.734 176.445 256.279 176.98C256.537 176.713 256.279 176.445 256.279 176.445C255.249 175.374 254.219 174.303 253.188 173.232C252.931 172.964 252.673 172.696 252.158 172.429C250.87 171.625 249.84 170.554 249.325 168.948C249.325 168.68 248.81 168.145 248.552 167.877C248.552 167.609 248.552 167.341 248.295 167.074C248.552 166.538 249.067 166.806 249.325 167.074C250.098 167.609 250.87 168.412 251.386 168.948C251.901 169.751 252.673 170.287 253.446 170.554C253.961 170.822 254.476 171.358 254.991 171.625C255.249 171.893 255.507 171.893 256.022 171.893C255.764 171.09 254.991 170.554 254.734 170.019C254.219 169.483 253.704 168.948 253.704 168.145C253.961 167.877 254.219 167.877 254.476 168.145C254.991 168.412 255.249 168.68 255.507 168.948C256.279 169.483 257.052 170.287 258.082 170.822C258.597 171.09 258.855 171.358 259.37 171.893C260.4 172.696 261.173 173.5 261.946 174.303C263.749 175.642 265.037 177.248 266.84 178.587C267.097 178.855 267.612 179.39 268.127 179.39C268.385 179.39 268.642 179.39 268.642 179.122C268.9 178.855 268.9 178.587 268.9 178.319C268.9 178.051 268.642 177.784 268.385 177.516C266.839 176.177 265.809 174.303 264.264 172.964C263.749 172.429 263.234 171.893 262.976 171.09C262.718 170.554 262.203 170.019 261.946 169.751C261.431 169.216 260.658 168.412 259.885 167.877C259.113 167.341 258.855 166.538 258.855 165.467C259.113 165.199 259.628 164.932 259.885 164.664C260.143 164.664 260.143 164.664 260.4 164.932C262.718 167.074 265.037 168.948 267.355 171.09C267.612 171.358 267.87 171.358 268.127 171.625C268.9 172.161 269.158 172.161 269.93 171.09C268.642 169.483 267.097 167.877 266.582 165.467C266.84 165.467 267.097 165.467 267.097 165.467C268.642 166.003 269.673 167.074 270.961 167.877C271.733 168.412 272.248 168.948 273.021 169.216C273.021 168.412 271.991 167.877 271.733 167.341C270.703 166.003 269.415 164.932 268.642 163.325C268.385 162.79 267.87 162.254 267.612 161.986C266.84 161.183 266.067 160.38 266.324 159.041C266.324 158.505 266.324 157.97 266.067 157.434C266.839 156.363 267.87 156.363 268.9 156.899C269.93 157.434 270.961 157.702 271.991 157.702C272.506 157.702 273.021 157.97 273.536 158.238C274.309 158.773 275.339 158.773 276.112 157.97C276.627 157.702 277.142 157.167 277.4 156.899C277.915 156.363 278.43 156.096 278.945 155.56C279.46 155.828 279.718 155.828 279.975 156.096C280.491 156.631 281.263 156.631 282.036 156.363C281.778 155.828 281.778 155.292 281.521 154.757C282.036 153.954 282.551 153.15 282.551 152.079C282.551 151.544 282.809 151.276 283.066 150.741C283.324 149.937 283.324 149.134 282.809 148.599C282.551 148.331 282.294 147.528 282.036 147.26C281.778 146.724 282.294 145.921 282.809 145.921C283.324 145.921 283.839 146.189 284.096 146.457C284.869 146.724 285.384 147.26 286.157 147.528C286.93 148.063 287.702 148.331 288.475 148.331C289.248 148.331 290.021 148.331 290.278 147.528C290.536 146.992 291.308 147.26 291.823 146.724C291.566 145.921 291.308 145.118 290.793 144.582C290.021 143.779 289.505 142.976 289.763 141.905C290.278 141.637 290.793 141.102 291.308 140.834C292.339 140.566 292.854 141.905 294.142 142.173C293.626 141.637 293.369 141.102 293.111 140.566L293.111 140.298C293.369 138.96 293.627 138.692 294.914 138.692C295.172 138.692 295.429 138.692 295.687 138.692C295.945 138.692 296.46 138.692 296.717 138.96C297.232 138.692 297.232 138.156 297.232 137.621C297.232 137.085 296.975 136.55 297.232 136.282C297.49 135.479 297.49 135.211 296.975 134.675C296.717 134.408 296.717 134.14 296.717 133.872C296.46 133.069 296.202 132.533 295.429 131.998C294.399 131.462 293.626 130.391 292.854 129.856C292.854 129.856 292.854 129.856 293.111 129.856C292.339 129.32 291.566 129.053 290.793 128.249C290.021 127.446 289.248 126.911 288.475 126.375C287.96 125.84 287.445 125.572 287.187 124.501C286.93 123.698 286.157 123.43 285.642 123.162C285.384 122.894 284.869 122.894 284.612 122.627C284.097 122.359 283.581 121.823 283.066 121.823C282.809 121.823 282.809 121.823 282.551 121.556C281.263 120.752 279.718 119.949 278.43 118.878C278.172 118.61 277.657 118.343 277.4 118.343C277.142 118.343 277.142 118.343 276.885 118.075C274.824 116.201 272.248 115.13 270.188 113.255C269.93 112.988 269.673 112.72 269.415 112.452C268.643 112.184 268.127 111.649 267.87 110.846C267.355 110.042 266.839 109.507 265.809 109.239C265.037 108.971 264.521 108.704 264.006 108.168C263.234 107.365 262.203 106.561 261.173 105.758C260.658 105.223 260.143 104.687 259.885 103.884C260.143 103.616 260.4 103.616 260.658 103.884C261.688 104.419 262.718 104.955 263.749 105.758C264.521 106.294 265.552 106.829 266.324 107.365C266.582 107.633 267.355 107.9 267.87 107.9C268.642 107.9 269.158 108.168 269.673 108.436C270.188 108.704 270.445 108.971 270.961 109.239C271.218 109.239 271.476 109.507 271.733 109.239C272.248 108.971 272.764 109.239 272.764 109.775C273.021 110.846 274.051 111.113 274.824 111.649C276.112 111.113 276.885 112.452 277.915 112.452C278.172 112.452 278.172 112.72 278.43 112.72C280.491 114.594 282.809 115.933 284.869 117.539C285.127 117.807 285.384 117.807 285.642 117.807C287.702 117.807 289.248 119.146 290.536 120.485C290.793 120.752 290.793 120.752 291.051 121.02C292.081 121.288 292.854 121.823 293.626 122.359C294.914 123.162 295.945 123.965 297.232 124.769C298.005 125.304 298.778 125.84 299.293 126.643C299.293 126.911 299.551 126.911 300.066 127.178C300.323 126.911 300.323 126.643 300.581 126.375C301.096 125.572 301.611 125.036 302.384 125.036C303.156 125.036 303.156 124.501 302.899 123.965C301.354 121.823 301.096 121.556 298.778 119.949C297.49 118.878 296.202 118.075 294.657 117.004C293.884 116.468 293.111 115.933 292.339 115.397C292.081 115.13 291.823 115.13 291.566 115.13C291.308 115.13 290.793 114.862 290.536 114.594C289.763 113.523 288.475 113.255 287.445 112.72C286.93 112.452 286.672 112.184 286.157 111.917C285.384 111.113 284.354 110.578 283.324 110.042C282.809 109.775 282.036 109.239 281.521 108.971C281.263 108.971 281.263 108.704 281.006 108.436C279.203 108.168 277.915 106.561 276.369 105.758C275.597 105.49 274.824 104.687 274.309 104.152C273.021 103.081 271.733 102.01 270.188 101.206C268.385 100.135 266.582 98.7967 264.779 97.7257C264.521 97.4579 264.006 97.1901 263.749 96.9224C262.203 95.5836 260.915 94.5126 259.113 93.4416C258.34 92.9061 257.825 92.1029 257.567 91.0318C257.567 90.7641 257.567 90.4963 257.825 90.2285C258.082 89.9608 258.34 89.6931 258.597 89.4253C261.946 91.2996 265.294 93.4416 268.642 95.3159C269.158 95.5837 269.415 95.8514 269.93 96.1191C270.961 96.9224 272.248 97.7256 273.536 98.5289C274.824 99.3321 275.854 100.135 277.142 100.939C277.4 101.206 277.915 101.474 278.172 101.474C280.748 102.813 283.066 104.152 285.384 105.758C286.415 106.561 287.445 107.097 288.475 107.632C289.763 108.436 290.793 109.239 292.081 110.042C293.369 110.846 294.399 111.649 295.687 112.72C296.46 113.255 297.232 113.791 297.748 114.326C298.778 112.988 299.035 112.988 300.323 112.988C300.838 112.988 301.096 112.988 301.611 113.255C302.641 114.326 304.187 114.594 305.217 115.397C305.732 115.933 306.505 116.468 306.762 117.272C307.02 117.807 307.535 118.343 307.793 118.878C309.081 118.075 309.338 117.272 308.565 116.201C308.308 115.933 308.05 115.665 307.793 115.397C307.535 114.862 307.278 114.862 306.762 114.594C305.99 114.326 305.475 114.059 305.217 113.523C304.702 112.988 304.444 112.452 303.672 112.452C303.156 112.452 302.899 111.649 302.641 111.381C302.384 110.846 301.869 110.578 301.354 110.578C301.096 110.578 300.838 110.31 300.838 110.31C300.323 109.507 299.551 109.239 298.778 108.704C297.49 108.168 296.46 107.097 295.429 106.294C294.914 105.758 294.399 104.955 293.884 104.152C293.627 103.884 293.626 103.616 293.369 103.348C292.339 102.545 291.051 102.277 289.763 102.01C289.248 102.01 288.733 102.01 288.475 101.742C287.702 101.474 286.672 101.206 285.899 100.403C284.869 99.5999 283.581 98.7966 282.294 98.2611C281.521 97.7256 280.748 97.4579 279.975 96.9224C279.203 96.3869 278.43 96.1191 277.657 95.5836C276.885 95.0481 276.112 94.5126 275.597 93.7094C275.339 93.4416 275.339 92.9061 275.339 92.6384C276.885 92.3706 277.915 93.1739 278.945 93.7094C279.203 93.9771 279.718 94.2448 279.975 94.2448C280.233 94.5126 280.491 94.5126 280.748 94.5126C280.748 93.9771 280.748 93.4416 280.748 93.1738C279.975 92.6383 279.203 92.1028 278.43 91.5673C277.915 91.0318 276.885 91.2996 276.369 90.4963C275.339 90.2286 274.824 89.1576 273.794 88.6221C272.764 88.0866 271.733 87.8188 270.961 87.2833C270.188 86.7478 269.415 86.2123 268.642 85.6768C268.385 85.4091 268.127 85.1413 267.87 85.1413C266.84 84.8735 266.324 84.0703 266.067 82.9993C266.324 82.7315 266.324 82.4638 266.582 81.9283C266.324 81.125 265.809 80.8573 265.294 80.3218C265.037 80.054 264.779 79.7862 264.521 79.7862C264.006 79.5185 264.006 78.983 264.264 78.4475C266.067 77.9119 266.067 77.9119 267.097 79.7862C265.294 80.5895 265.809 80.5895 266.324 80.8572Z" fill="#F9B605"/>
<path fill-rule="evenodd" clip-rule="evenodd" d="M108.771 13.6426C59.8181 28.3147 24.1455 73.7113 24.1455 127.44C24.1455 128.307 24.1548 129.173 24.1733 130.037L28.2268 128.273C28.2248 127.995 28.2238 127.718 28.2238 127.44C28.2238 75.9861 62.103 32.4454 108.771 17.9082V13.6426ZM57.2129 203.664L53.2847 205.374C75.0614 230.401 107.147 246.221 142.927 246.221C169.288 246.221 193.643 237.633 213.349 223.103L209.632 220.763C190.837 234.221 167.807 242.142 142.927 242.142C108.838 242.142 78.2222 227.272 57.2129 203.664ZM261.708 127.44C261.708 136.971 260.585 146.241 258.465 155.123L254.812 152.822C256.656 144.657 257.629 136.162 257.629 127.44C257.629 78.2626 226.682 36.3138 183.2 20.0063V15.6599C228.979 32.1565 261.708 75.9759 261.708 127.44Z" fill="black"/>
<path fill-rule="evenodd" clip-rule="evenodd" d="M25.2417 57.9664C6.6389 89.0821 1.01915 126.931 10.6032 162.615H15.4238C5.63789 127.53 11.142 90.1681 29.6629 59.637L25.2417 57.9664ZM155.729 -2.40435C191.002 1.50951 224.324 19.6877 246.558 49.8499L249.465 45.9709C226.494 15.4672 192.47 -2.9442 156.462 -7L155.729 -2.40435ZM102.381 252.332L99.5456 256.307C135.511 267.983 176.145 264.614 211.108 243.618C236.866 228.149 255.626 205.466 266.354 179.706L261.349 179.599C250.881 203.779 233.026 225.033 208.714 239.633C175.405 259.637 136.763 263.072 102.381 252.332Z" fill="black"/>
</svg>
