<svg width="119" height="127" viewBox="0 0 119 127" fill="none" xmlns="http://www.w3.org/2000/svg">
<g filter="url(#filter0_i)">
<path fill-rule="evenodd" clip-rule="evenodd" d="M63.0108 35.6333C62.646 35.7704 62.8284 36.7297 62.874 37.1866H62.0077L62.0989 31.3848C61.7797 32.0243 61.8709 36.5927 62.0077 37.2322L62.874 37.2779L63.0108 35.6333Z" fill="#140002"/>
<path fill-rule="evenodd" clip-rule="evenodd" d="M98.3918 33.2119L98.255 32.2525C98.9389 32.2982 99.8963 32.3896 100.489 32.1611H98.2094C98.0726 32.9834 98.027 32.8007 98.3918 33.2119Z" fill="#140002"/>
<path fill-rule="evenodd" clip-rule="evenodd" d="M26.8091 117.224C27.3107 116.173 28.5873 114.391 30.0919 114.574C30.1831 115.579 29.4992 115.67 28.7241 116.219C28.1769 116.584 27.5386 117.041 26.8091 117.224ZM43.3141 116.493C43.8156 115.853 45.3202 114.985 46.1409 114.437C46.6881 114.071 48.831 112.472 49.5149 113.203C50.6091 114.437 44.4996 116.356 43.3141 116.493ZM31.7333 121.198C31.9156 119.371 34.6513 115.853 36.0647 114.391C36.5206 113.934 37.3413 113.158 38.162 112.975C38.2532 113.843 37.2045 115.305 36.7486 115.762C36.8398 116.401 36.703 115.899 36.9766 116.493C36.1559 116.995 32.8731 120.878 31.7333 121.198ZM47.144 110.188C47.5999 109.183 48.7398 107.95 49.3781 107.036L52.98 102.513C53.436 102.011 53.8919 101.783 54.3478 101.189C54.895 100.503 55.0317 100.458 55.7612 99.9095C58.1777 98.0822 58.2233 100.366 56.126 102.97C54.3478 105.163 54.7582 104.387 54.1199 105.072C52.5241 106.853 53.8463 105.437 52.1137 106.99C51.6578 107.402 51.1563 107.721 50.5635 108.133C49.5605 108.863 48.2838 109.686 47.144 110.188ZM47.9191 106.534L42.4934 115.213C41.8551 116.401 39.5754 119.051 38.3444 119.188C38.1164 117.589 39.1195 117.132 38.8915 115.579L38.2532 115.396L37.7973 115.579L38.0708 115.351C38.2532 114.802 38.9827 113.478 38.8003 112.792C38.5724 111.833 37.3413 111.97 36.6118 112.381C35.3808 113.066 34.0586 114.711 33.2379 115.853C32.0524 117.498 30.7302 119.097 29.0888 120.33C28.7241 120.604 28.5417 120.787 28.1769 121.015C25.3045 122.934 24.803 121.289 25.6693 119.234C26.0796 118.229 28.0402 117.817 29.9551 116.31C30.1831 116.127 30.639 115.579 30.8214 115.396C31.1406 115.031 31.1861 114.802 31.1406 114.3C30.7758 113.98 29.8183 113.432 29.408 113.203C28.4049 113.295 27.4019 114.117 26.9459 114.574C26.5356 114.985 25.7605 115.944 25.3501 116.584C24.1191 118.457 23.7543 119.508 24.1191 122.066C26.5356 123.345 27.4019 122.431 29.8639 120.558C30.639 119.965 30.5022 119.553 31.4141 119.142C31.1405 120.33 30.5022 121.244 31.4141 122.249C32.6451 122.066 33.8762 120.147 34.4233 119.736C36.5662 118.046 36.1559 117.498 37.4325 116.995C36.2015 123.071 40.3505 118.548 40.7609 118.32C40.4417 119.234 39.2107 120.787 40.0313 121.518L42.4934 117.406C43.4509 117.315 44.1804 116.949 45.0467 117.086C46.2321 118.046 46.0953 119.736 47.372 120.467C48.2838 120.65 48.831 120.467 49.3325 119.919C51.5666 117.726 50.6091 118.503 50.29 118.229C49.834 119.325 48.5574 119.782 47.5543 119.005C46.8704 118.503 46.3233 117.452 45.5938 116.675C47.7823 115.716 51.749 114.757 50.4268 112.29C49.1045 109.869 44.4996 114.391 44.4996 114.391C44.226 114.802 44.8187 114.574 44.0436 114.802C44.0892 114.163 43.998 114.665 44.3172 114.437C44.8187 113.249 46.0497 111.513 47.144 110.874C50.062 109.275 51.6122 108.361 53.8919 106.122C54.6214 105.392 55.6245 104.569 56.3084 103.656C56.5819 103.29 56.7643 103.153 56.9923 102.742C57.2658 102.376 57.4026 102.011 57.6762 101.828C58.0409 100.823 58.4969 99.9552 58.3601 98.7218C57.1291 97.6254 56.6275 97.671 55.0773 98.7218C54.4846 99.1329 54.1655 99.407 53.6183 99.7725L47.9191 106.534Z" fill="#140002"/>
<path fill-rule="evenodd" clip-rule="evenodd" d="M59.3631 105.986L60.3206 106.397L62.965 104.295C64.1049 103.016 62.19 103.793 65.5183 101.783C66.1566 101.372 73.9988 96.712 72.8133 100.641C72.3118 102.331 69.6673 106.534 68.7099 108.042C67.9348 109.229 68.4363 108.59 65.9286 109.549C64.3785 110.143 64.0137 110.463 62.6459 110.508C61.7796 110.554 61.7796 110.554 61.734 111.285C63.5578 111.742 65.8374 110.189 67.6156 109.686C67.3876 110.371 60.4574 120.285 59.4543 121.518C58.9984 122.112 58.6792 122.843 58.1777 122.934C58.1321 125.219 59.7735 123.62 60.5942 122.889L62.7827 120.604C62.7371 118.96 62.7371 119.508 63.5578 118.275L69.3938 109.915C70.3057 108.59 69.6217 108.864 71.3543 108.316C73.4972 107.63 75.1386 107.219 77.4183 107.036C76.552 108.727 72.175 114.437 72.5398 116.63C72.8133 116.767 72.9957 116.858 73.3604 116.676C73.5428 116.539 73.4972 116.539 73.7252 116.31C73.7708 116.265 73.7708 116.265 73.8164 116.219L74.1355 115.945C74.1811 115.534 74.0899 115.853 74.2723 115.442C74.3179 115.351 74.5915 115.031 74.6371 114.94C74.9562 114.529 75.0474 114.437 75.3666 114.072L76.78 112.244C75.9137 112.107 75.4122 113.387 74.4091 114.072C74.7283 113.204 78.4214 107.174 79.2876 106.899L80.6555 106.808C81.6129 106.625 80.7922 106.854 81.157 106.534C80.6555 106.169 80.2907 106.306 79.6068 106.306C80.0627 105.483 80.5643 104.935 81.157 104.158C81.4306 103.839 82.6616 102.103 82.7984 102.057C82.9352 101.417 83.2087 100.869 82.7984 100.23C81.8865 100.412 80.7011 102.377 80.1083 103.153C76.324 108.179 79.5156 105.712 74.1355 106.854C72.9501 107.128 71.947 107.448 70.8072 107.722C71.5823 105.62 74.4547 102.742 73.4516 99.453C72.5853 97.8541 71.0807 98.0825 69.257 98.7221C66.7949 99.5444 64.1505 101.28 62.1443 102.742C60.275 104.067 60.1838 104.478 59.1807 105.255L59.3631 105.986Z" fill="#140002"/>
<path fill-rule="evenodd" clip-rule="evenodd" d="M16.277 104.661C13.5869 105.62 9.89383 108.361 8.38923 110.782C7.65973 111.97 7.61414 113.158 8.20686 114.483C9.11873 115.99 11.1705 118.686 11.5352 119.828C12.3559 122.295 10.213 124.168 8.6172 124.899C6.88463 125.721 3.19153 126.269 1.73253 124.944C0.227932 123.62 2.69 121.609 3.78425 120.559C4.1946 120.193 3.96663 120.513 4.1946 119.965L3.55628 120.056C2.73559 120.787 0.957433 121.884 0.4559 123.528C-0.638352 127.229 7.8421 128.325 12.1735 123.939C12.5839 123.528 12.6751 123.254 13.0398 122.98C12.9486 120.787 13.1766 120.787 12.0367 118.868C11.3528 117.726 10.6233 116.813 9.93943 115.716C9.30111 114.711 8.25245 113.067 9.16433 111.788C11.8544 108.087 24.4839 101.691 26.3988 103.108C27.2651 103.747 26.0341 105.209 25.5781 105.712C24.8486 106.488 24.3015 107.036 23.572 107.813C22.0218 107.676 22.2954 107.722 21.2011 108.727C20.8364 109.047 20.5172 109.184 20.198 109.503C19.8333 109.869 19.7421 110.097 19.3318 110.417C18.6479 111.057 15.7298 113.569 16.9153 114.254C17.6904 114.711 20.5172 111.925 21.1099 111.468C21.7026 110.965 21.7026 110.965 22.2498 110.28C23.1616 109.138 25.8061 107.173 26.5812 105.255C27.2651 104.981 28.2682 102.605 26.3076 101.874C24.2559 101.509 17.508 103.473 16.277 104.661Z" fill="#140002"/>
<path fill-rule="evenodd" clip-rule="evenodd" d="M27.5841 106.214L21.976 114.209C21.0641 114.3 20.0611 114.3 19.7419 114.894L21.7025 114.711C21.3377 115.99 19.6963 117.544 18.2829 122.386C18.1461 123.802 18.1461 125.355 19.8331 125.173C20.4714 125.081 20.8362 124.853 21.3377 124.533C21.8848 124.168 22.2496 124.122 22.3864 123.3C21.8848 123.665 20.3346 125.036 19.4228 124.579C18.5109 124.031 18.9668 122.66 19.3316 121.701C19.9243 120.148 21.2921 117.955 22.1584 116.63C22.4776 116.173 22.7055 115.853 22.9791 115.442C24.0733 113.706 23.9821 114.757 24.7572 114.803C24.8028 114.803 25.3956 114.665 25.4412 114.665C26.9002 114.254 26.4898 114.254 26.6266 113.706L24.0277 113.98L26.9458 109.686C27.4929 108.864 27.9032 108.361 28.4959 107.63C28.7695 107.31 29.0431 106.854 29.271 106.625C29.7726 106.077 29.727 106.488 29.8182 105.437L28.5415 105.209C28.1768 105.666 27.9944 105.849 27.5841 106.214Z" fill="#140002"/>
<path fill-rule="evenodd" clip-rule="evenodd" d="M105.55 108.224C106.051 107.219 107.465 105.3 108.832 105.62C108.924 106.26 108.787 106.26 108.376 106.579C107.601 107.128 106.416 108.087 105.55 108.224ZM102.905 112.884C104.045 115.305 107.784 112.199 108.787 111.376C109.881 110.463 111.203 109.046 112.069 107.859C112.434 107.356 112.799 107.128 112.89 106.305C112.434 106.442 112.571 106.26 112.206 106.717L109.106 110.097C107.92 111.239 106.233 113.112 104.364 112.838C103.771 112.061 103.863 111.102 104.41 110.097C104.957 109.046 110.565 107.173 109.79 105.392C109.607 104.935 109.425 105.026 108.924 104.752C108.513 104.524 108.559 104.478 108.148 104.25C107.191 104.021 105.185 106.077 104.911 106.442C103.771 107.95 101.993 110.691 102.905 112.884Z" fill="#140002"/>
<path fill-rule="evenodd" clip-rule="evenodd" d="M68.4362 32.7095L69.029 35.1764L67.6155 35.4048L68.4362 32.7095ZM62.0531 31.3847L61.9619 37.1865H62.8282C62.7826 36.7753 62.6002 35.816 62.965 35.6332C63.1018 35.2221 63.2386 35.0393 63.4665 34.7196L64.7431 38.0088C66.1566 38.4199 66.6581 38.7854 67.1596 37.1865L67.2964 36.5469L69.1657 36.0444L69.6673 37.3235L70.5791 37.2778C70.3512 35.9073 69.4849 34.2627 69.5761 32.9379L69.2113 32.1156C69.1201 31.7958 69.1201 31.7501 69.029 31.476H67.6611L65.9286 38.1001C65.4271 37.4606 64.5152 34.5825 64.2416 33.6232L65.4726 31.3847L64.424 31.4303L62.8282 33.9886C62.7826 33.4861 62.965 31.2019 62.5546 31.1562L62.0531 31.3847Z" fill="#140002"/>
<path fill-rule="evenodd" clip-rule="evenodd" d="M79.6066 115.305C79.1507 114.528 79.6066 113.706 80.1538 112.838C81.1568 111.239 83.4365 108.681 85.625 108.498C85.3971 109.092 85.1235 109.138 85.2147 109.823C85.2603 110.463 85.625 110.143 85.1235 110.919C84.5308 111.833 81.1568 115.945 79.6066 115.305ZM78.2388 115.259C81.3392 118.549 86.1266 110.6 86.1266 110.6C86.3089 110.463 86.2633 110.508 86.4913 110.417C86.7649 110.28 86.6281 110.371 86.8561 110.188C86.081 108.087 86.7193 107.356 83.9381 108.133L83.2542 107.584C81.2024 108.27 77.8285 112.701 78.2388 115.259Z" fill="#140002"/>
<path fill-rule="evenodd" clip-rule="evenodd" d="M77.6463 32.7552L78.2391 35.1764L76.8256 35.4962L77.6463 32.7552ZM76.5521 32.8466L75.1387 38.4657L76.1873 38.0545C76.2785 37.7347 76.3241 37.4606 76.3697 37.1865C76.5521 36.4099 76.6433 36.3642 78.5582 36.0444C78.695 37.1865 78.6494 37.2779 79.7437 37.2779C79.8348 36.0444 78.7406 34.1714 78.7862 32.8009C78.467 32.4354 78.467 32.07 78.2847 31.4761H76.9168L76.5521 32.8466Z" fill="#140002"/>
<path fill-rule="evenodd" clip-rule="evenodd" d="M103.27 35.4046L102.769 35.5417L103.042 35.0849L103.681 32.755L104.273 35.1762L103.27 35.4046ZM102.723 31.7043C102.814 33.0291 101.446 36.8208 101.173 38.4654L102.222 38.0086C102.495 36.8208 102.404 36.5924 102.951 36.364L104.638 35.9985L104.82 37.1863L105.732 37.232L105.778 36.5467C105.732 36.2726 105.641 36.0899 105.595 35.8615C105.459 35.4046 105.322 34.9021 105.185 34.4453C104.957 33.5316 104.456 32.4809 104.547 31.5215L103.407 31.4302C102.769 31.5672 103.133 31.3845 102.723 31.7043Z" fill="#140002"/>
<path fill-rule="evenodd" clip-rule="evenodd" d="M85.6711 37.0036C85.9446 37.2777 85.4431 37.232 86.4006 37.232C86.9021 35.9985 86.0814 35.9072 87.2213 34.7194L88.4067 37.8716L89.1362 38.237C89.7745 37.8259 89.6834 38.5568 88.7715 35.9072C87.814 32.9834 87.6316 34.2169 89.1818 31.3388L88.2243 31.3845C87.814 31.887 86.8109 33.486 86.5374 33.9885L86.4918 31.019L85.6255 31.4302L85.6711 37.0036Z" fill="#140002"/>
<path fill-rule="evenodd" clip-rule="evenodd" d="M82.7071 36.547C81.704 36.3185 81.3393 35.4962 81.3849 34.3085C81.4305 33.4405 81.704 32.1613 82.6615 32.207C83.9837 32.2527 84.622 35.7703 82.7071 36.547ZM80.6554 32.4811C80.6554 34.3085 79.9259 35.679 81.4761 37.0038C82.16 37.5977 83.2086 37.552 83.8925 37.0952C84.3485 36.7754 84.6676 35.9988 84.8956 35.2221C84.9868 33.3034 84.5765 31.0649 82.3879 31.3847C81.1113 31.6131 81.3849 31.9329 80.6554 32.4811Z" fill="#140002"/>
<path fill-rule="evenodd" clip-rule="evenodd" d="M107.465 34.8564V34.1255V33.0291V32.2525C110.337 31.9327 109.198 34.4453 107.465 34.8564ZM106.918 38.237L106.827 38.0543L107.328 38.0086C107.602 37.3234 107.465 36.8665 107.511 35.9985C108.605 35.359 110.155 34.7194 110.201 33.2575C110.246 31.3388 108.331 31.3388 106.599 31.4302C106.599 32.5723 106.599 33.7144 106.599 34.8564C106.599 35.4503 106.599 36.0442 106.599 36.6381C106.553 38.7396 106.507 37.9629 106.918 38.237Z" fill="#140002"/>
<path fill-rule="evenodd" clip-rule="evenodd" d="M98.2546 34.1254C99.0297 34.3539 99.7136 34.9021 99.896 35.77L99.4401 36.4553L98.2091 36.5467L98.2546 34.1254ZM99.7592 37.2319C100.489 36.7294 100.398 36.9578 100.853 36.1355C100.945 34.3082 99.5313 33.9427 98.3914 33.2118C98.0267 32.8006 98.1179 32.9834 98.2546 32.2067H100.534L100.261 31.5215H97.3884L97.3428 37.369L99.7592 37.2319Z" fill="#140002"/>
<path fill-rule="evenodd" clip-rule="evenodd" d="M72.3574 34.7649L72.0839 34.9019L72.1295 32.1609C72.5854 32.0239 72.2207 32.0239 72.7678 32.0696C73.7253 32.161 72.859 32.0696 73.2237 32.2523C73.6341 32.4807 73.4973 32.3894 73.7708 32.6635C74.0444 33.9426 73.2693 34.4908 72.3574 34.7649ZM71.3088 38.3282C72.403 37.5516 72.1751 37.643 72.1751 35.8613C74.1356 35.3588 75.0475 34.1253 74.7739 32.2066C74.1812 31.9325 74.3636 31.6127 73.4973 31.43C72.9046 31.293 71.9015 31.3843 71.2632 31.3843L71.3088 38.3282Z" fill="#140002"/>
<path fill-rule="evenodd" clip-rule="evenodd" d="M93.1482 37.2318L93.3761 36.4095H91.142L91.0964 34.8562L92.4643 34.2167V33.3944L91.0964 33.9882L91.142 32.4807C91.4612 32.1152 90.4581 32.2066 93.285 32.2066C93.1482 31.1102 93.2849 31.3386 92.0083 31.3386C91.4156 31.3386 90.7773 31.3386 90.1846 31.3386V37.1861L93.1482 37.2318Z" fill="#140002"/>
<path fill-rule="evenodd" clip-rule="evenodd" d="M19.6967 23.4358C16.961 26.588 15.0917 28.3696 14.3622 33.4405C13.5415 39.1053 16.0948 41.5265 18.5568 44.2675L22.5691 47.9678C24.3017 49.4297 27.9948 52.2164 30.2744 51.0286C30.9128 50.7089 31.8702 49.6581 32.2806 49.0642C32.8277 48.3333 33.3748 47.5567 33.922 46.7344C34.2411 46.3232 34.4691 46.0034 34.7882 45.5923C35.2898 44.9527 35.1074 44.9984 35.7913 44.5416L36.1105 43.8563C37.0679 42.5315 38.5725 40.8869 37.843 39.3337C35.5633 34.4912 29.317 30.8365 38.5269 25.7657C38.4813 25.7657 37.9798 25.6743 37.6607 25.6743L38.0254 25.1261C36.7944 25.6286 38.0254 25.72 36.9312 25.4916L37.2959 24.9434C36.1105 23.9384 38.299 24.1668 35.7001 24.2124C35.5633 23.847 35.4266 23.3445 35.3354 22.9333L36.4296 22.7506C36.384 22.7049 36.3384 22.6592 36.3384 22.6592L36.0193 22.3851C35.2898 21.6999 36.2928 22.2937 35.6545 21.8369C35.2898 21.5628 34.925 21.8369 34.2867 21.8369C34.4235 21.1973 34.2867 21.4258 34.8338 21.6542C34.7426 21.243 34.6971 21.1517 34.7427 20.9689C34.7427 20.8776 34.7882 20.7862 34.7882 20.7405C35.2442 19.6441 35.6089 20.375 35.0162 19.6441C35.5177 19.3243 35.153 19.6898 35.381 19.0959C35.0162 18.6847 35.0618 18.9588 34.8338 18.1822C35.2898 18.1365 35.6089 17.9081 36.1105 17.9995L36.612 18.2736C36.6576 18.3193 37.0679 18.502 37.1591 18.502C37.2959 19.0045 37.2047 18.7304 37.2959 19.0045C37.4327 19.4614 37.3871 19.233 37.5239 19.4157C37.7062 19.233 38.1622 19.6441 37.7063 18.8218C37.5239 18.4563 37.7518 18.9589 37.3415 18.502C38.1622 18.2279 37.7063 18.3193 38.071 17.7254C38.2534 17.4056 38.6181 17.4056 38.9829 17.2229L38.6637 16.9945C38.299 16.7204 37.843 16.6747 38.1166 15.9894C38.1622 15.9437 38.2078 15.8981 38.2534 15.8524C38.2534 15.761 38.299 15.7153 38.299 15.624C37.1591 15.5783 38.299 15.3955 37.0223 15.2585C37.2959 16.2635 37.7974 15.9437 36.84 16.1722C36.6576 15.6696 36.6576 15.761 36.6576 15.0758C37.3415 14.9387 37.2047 14.9387 37.0223 14.5276C37.5239 14.6189 37.4327 14.5732 37.7063 14.6646C38.071 14.8017 37.9798 14.756 38.1166 14.893C38.1622 14.8473 38.2078 14.8017 38.2534 14.756L38.8461 14.025C38.8005 13.9794 38.7093 13.9794 38.7093 13.9337L38.3446 13.4312C35.3354 14.0707 30.6848 16.0808 28.0859 17.4056C26.399 18.2279 25.0767 19.0959 23.7089 20.0096C22.0676 21.106 20.8365 22.3394 19.6967 23.4358Z" fill="#140002"/>
<path fill-rule="evenodd" clip-rule="evenodd" d="M111.294 39.3334C105.732 42.2114 98.3458 41.2978 91.9171 40.978C88.5431 40.7952 84.9868 40.5211 81.6129 40.8866C76.7343 41.3891 74.3634 42.9424 73.0412 43.0337C72.0381 44.0388 67.7067 44.9981 68.9833 47.8305C69.2569 48.4701 69.7129 48.9726 70.0776 49.6578C70.488 50.4344 70.6247 51.1654 70.7159 52.1247C70.8527 53.8607 70.4879 56.3276 71.5822 57.5154C72.4485 57.9722 78.5581 54.0434 81.3393 52.9013C89.0902 49.7035 98.1634 51.2111 106.188 48.8355C113.073 46.8254 114.44 43.9931 115.489 43.5819C115.58 43.1251 116.811 41.5262 117.678 39.1506C118.134 37.8258 118.407 36.4096 118.589 35.0391C118.635 34.8107 118.681 34.4452 118.681 34.2625C118.681 33.3945 118.726 34.1254 118.544 33.8057C117.313 35.8157 113.437 38.237 111.294 39.3334Z" fill="#140002"/>
<path fill-rule="evenodd" clip-rule="evenodd" d="M22.66 63.6371C20.4259 65.5558 18.511 67.2918 18.1462 71.9058C18.0551 73.4133 17.9639 76.4284 18.4654 77.7533C19.1037 79.4436 19.9244 80.1288 22.0673 80.4486C25.4868 80.9511 36.3838 80.6313 38.4811 82.3673C40.0313 82.2759 46.0497 84.9713 47.7367 85.6565C54.2566 88.4432 60.2294 90.2705 67.4788 91.0471C70.4424 91.3669 77.0535 92.6004 77.4639 89.3112C76.0049 89.0371 74.0443 88.9914 72.4941 88.8543C70.8072 88.6716 69.7585 88.3975 68.1627 88.032C65.3359 87.3468 62.1899 87.0727 59.4543 86.3418C53.0255 84.6515 39.6665 74.1443 29.3623 74.5097C25.4413 74.6468 22.4777 75.332 23.5263 70.4439C24.1646 67.4288 24.8941 64.7335 25.0765 61.5356C25.0309 61.5813 24.9853 61.5813 24.9397 61.627L23.1616 63.1346C22.8424 63.5 23.0704 63.363 22.66 63.6371Z" fill="#140002"/>
<path fill-rule="evenodd" clip-rule="evenodd" d="M42.6758 42.3486C43.5877 42.8054 44.8643 42.6684 45.913 42.6227C52.4329 41.0238 54.3934 41.9374 58.6793 45.2723C59.6367 46.0033 61.3237 48.2875 62.2812 49.4295L64.6521 52.4446C65.2904 53.3126 65.8831 54.0892 66.4302 55.0029C68.7099 58.7033 71.8103 67.0177 75.1842 70.3069C75.4578 70.581 75.5034 70.5353 75.777 70.8094C75.9593 71.0378 76.0505 71.1749 76.2785 71.4033C77.4183 72.6367 79.2877 74.3727 81.3394 75.1036C81.8409 75.6975 85.2605 76.7026 86.2635 76.4741C86.1724 75.9259 84.075 74.0986 83.4823 73.5504C81.2026 71.4946 79.5612 69.3932 78.4214 68.3882C76.9168 66.972 77.0992 66.8806 76.3241 66.1497C75.9137 65.7385 76.0049 65.7842 75.6858 65.3731C73.7708 63.0432 71.8103 60.5763 70.3969 57.5155C68.5731 53.5867 70.2145 52.4903 67.7068 48.7443C65.8831 46.5972 67.0229 47.6022 64.88 45.5464C63.421 44.1759 61.962 42.6684 60.3206 41.4806C58.4513 40.1558 57.357 39.2878 55.1685 38.0087C44.5452 31.9328 39.7578 39.4249 39.7578 41.1151C40.3049 41.709 41.5816 42.1202 42.6758 42.3486Z" fill="#140002"/>
<path fill-rule="evenodd" clip-rule="evenodd" d="M39.4841 13.1112L38.1619 13.568L38.5266 14.0705C38.5722 14.1162 38.6178 14.1162 38.6634 14.1619L38.0707 14.8928C38.0251 14.9385 37.9795 14.9842 37.9339 15.0299C37.7971 14.9385 37.8883 14.9385 37.5235 14.8014C37.25 14.7101 37.3412 14.7558 36.8396 14.6644C37.022 15.0755 37.1588 15.0755 36.4749 15.2126C36.4749 15.8978 36.4749 15.8065 36.6573 16.309C37.6147 16.0806 37.1132 16.4004 36.8396 15.3953C38.1163 15.5324 36.9308 15.7151 38.1163 15.7608C38.0707 15.8065 38.0707 15.8978 38.0707 15.9892C38.0707 16.0349 37.9795 16.0806 37.9339 16.1263C37.7059 16.8572 38.1619 16.9029 38.481 17.1313L38.8002 17.3597C38.4354 17.4968 38.1163 17.4968 37.8883 17.8622C37.5235 18.4561 38.0251 18.3647 37.1588 18.6388C37.5691 19.1414 37.3412 18.5932 37.5235 18.9586C37.9795 19.7809 37.5235 19.3698 37.3412 19.5525C37.2044 19.3698 37.25 19.5525 37.1132 19.1414C37.022 18.8673 37.1132 19.1414 36.9764 18.6388C36.8852 18.5932 36.4749 18.4104 36.4293 18.4104L35.9278 18.1363C35.4262 17.9993 35.1071 18.2734 34.6511 18.3191C34.8791 19.0957 34.8335 18.7759 35.1983 19.2327C34.9703 19.8266 35.335 19.4155 34.8335 19.7809C35.4262 20.5119 35.0615 19.7809 34.6055 20.8773C34.6055 20.923 34.5599 20.9687 34.5599 21.1058C34.5599 21.2885 34.6055 21.3799 34.6511 21.791C34.104 21.5626 34.2408 21.3342 34.104 21.9737C34.7879 21.9737 35.1071 21.6996 35.4718 21.9737C36.1101 22.3849 35.1071 21.8367 35.8366 22.5219L36.1557 22.796C36.2013 22.8417 36.2469 22.8874 36.2469 22.8874L35.1527 23.0701C35.2439 23.4356 35.3806 23.9838 35.5174 24.3493C38.1163 24.3036 35.9733 24.0752 37.1132 25.0802L36.7485 25.6284C37.7971 25.8568 36.6117 25.8111 37.8427 25.2629L37.478 25.8112C37.7971 25.8112 38.2986 25.9025 38.3442 25.9025C39.2561 25.4457 41.7182 23.8011 42.4477 23.7097L43.086 23.2072C45.9584 21.6083 50.0619 19.1871 52.4783 17.177C53.1167 16.6745 52.4783 16.8572 53.2534 16.7658C53.8917 15.8978 54.2565 15.8522 55.0316 15.0299C55.5787 14.4817 56.2626 14.0248 56.8554 13.4309C57.4481 12.837 57.9952 12.3345 58.4967 11.695C61.4147 8.08597 63.1473 5.5277 63.968 0C60.0925 3.74604 58.7703 5.34496 53.2078 8.22302C48.922 10.3245 44.5906 11.5122 39.4841 13.1112Z" fill="#140002"/>
<path fill-rule="evenodd" clip-rule="evenodd" d="M61.6429 65.0078C59.4999 65.3733 54.1199 63.3632 52.3873 62.5409C46.8248 59.9369 50.4724 56.0082 51.293 55.9168C51.749 55.8711 53.0256 57.1502 53.3904 57.6071C54.6214 59.069 56.4452 60.4394 57.9953 61.6272C59.4544 62.6779 61.7796 63.9114 61.6429 65.0078ZM44.1348 61.8099C43.8612 63.683 44.7731 65.8758 45.685 66.8808C48.1015 69.5305 54.0743 67.8858 57.357 67.7488C59.272 67.6574 62.0988 68.0686 62.8739 66.6524C63.6946 65.0535 63.193 62.4038 62.19 61.3074L55.8524 55.7797C55.5333 55.5056 55.2597 55.3686 54.9406 55.0945C54.7126 54.9118 54.7126 54.8204 54.4846 54.6377C53.208 53.4956 51.9314 53.0844 51.0651 52.5362C49.4237 52.4448 49.3325 53.2671 48.7398 54.5006C48.0559 55.9168 47.6911 56.0082 47.0528 56.7391C45.9586 57.9725 44.454 59.2974 44.1348 61.8099Z" fill="#140002"/>
<path fill-rule="evenodd" clip-rule="evenodd" d="M20.8362 59.1601C21.8392 58.9317 23.3894 59.3428 24.5293 59.2971C29.1342 59.1144 28.5415 57.5155 29.4534 56.5104C29.8637 56.0536 30.8668 55.0486 31.4595 54.8658C31.5963 54.5004 31.6875 54.3633 31.7331 53.8608C29.4078 52.1248 23.8454 51.0741 20.2434 51.4396C17.9637 51.668 10.1216 52.8101 9.02734 54.3176C10.076 56.282 14.9545 57.8353 17.371 58.3835L20.8362 59.1601Z" fill="#140002"/>
<path fill-rule="evenodd" clip-rule="evenodd" d="M80.7468 84.9256L82.7073 83.2353C82.9809 83.0069 84.1207 81.9105 84.2575 81.3623C84.8502 79.3066 82.3882 78.4386 80.5188 78.5299C78.5583 78.6213 70.625 79.672 70.2602 81.7735C69.9411 83.7379 72.5399 84.4688 74.4093 84.2404C77.0537 83.9206 76.8257 82.7328 78.3759 81.6821L79.379 82.0019C79.8349 83.5551 79.2422 84.2861 78.3303 85.1084C77.8744 85.4738 77.4184 85.7023 76.8713 85.9764C76.2786 86.2505 75.7315 86.4332 75.9594 87.2098C76.9625 87.4839 77.8744 86.6616 78.5583 86.2048L80.1085 85.0627C80.7924 84.7429 80.1997 84.9713 80.7468 84.9256Z" fill="#140002"/>
<path fill-rule="evenodd" clip-rule="evenodd" d="M93.3764 114.163C93.6499 114.711 93.6043 114.62 94.3794 114.711C94.8354 114.072 94.9722 114.254 95.6105 113.067L94.653 112.975C94.653 111.331 95.7017 110.463 94.6986 109.229L94.1059 109.092C93.3764 110.006 89.9568 114.757 88.5434 114.391C87.9507 112.884 90.504 109.869 90.5495 108.59L90.2304 108.042C89.1817 108.087 89.2729 108.453 88.7258 109.229C87.9963 110.326 86.3549 114.209 86.7197 115.077C87.3124 116.493 88.7714 115.534 89.5921 114.94C90.048 114.62 90.0024 114.483 90.3672 114.117L92.6469 111.925C93.0116 111.513 92.966 111.422 93.422 111.102C93.1484 112.29 92.7836 112.93 93.3764 114.163Z" fill="#140002"/>
<path fill-rule="evenodd" clip-rule="evenodd" d="M98.5738 110.782L98.7105 110.874C99.4401 111.605 99.7136 112.473 99.0753 113.341C97.981 114.757 97.1148 114.026 96.3853 114.209C96.6588 115.122 97.6619 114.985 98.4826 114.711C98.8929 114.574 99.0297 114.437 99.3945 114.209L100.352 113.478C100.398 112.975 100.261 113.523 100.534 112.838C100.625 112.61 100.717 112.427 100.717 112.198C100.853 110.782 97.7531 107.813 101.264 106.26C102.996 105.483 102.905 106.534 103.68 106.671C103.726 105.711 102.996 105.3 102.13 105.026C100.58 104.752 99.2121 106.031 98.7105 106.762C97.6619 108.178 97.8443 109.229 98.5738 110.782Z" fill="#140002"/>
<path fill-rule="evenodd" clip-rule="evenodd" d="M53.8007 59.2974C52.0682 60.7592 53.3904 62.4495 54.9862 63.1348C56.2172 63.6373 58.7249 64.6423 60.0927 64.1398C60.0927 63.0891 58.7249 62.5866 57.2203 61.4445C56.126 60.6222 54.7126 59.2974 53.8007 59.2974Z" fill="#140002"/>
<path fill-rule="evenodd" clip-rule="evenodd" d="M94.1968 35.2219L95.0631 35.3133H95.6102L96.4765 35.2676V34.491L95.6102 34.4453H95.0631L94.2424 34.491L94.1968 35.2219Z" fill="#140002"/>
<path fill-rule="evenodd" clip-rule="evenodd" d="M90.0025 37.2779C90.9143 37.415 92.3733 37.5063 93.1484 37.2322H90.1848V31.3848C89.6377 32.801 90.3216 35.5876 90.0025 37.2779Z" fill="#856D5A"/>
<path fill-rule="evenodd" clip-rule="evenodd" d="M72.3574 34.7651L72.2206 34.2626V32.2068L73.2693 32.2525C72.9045 32.0698 73.7252 32.1612 72.8133 32.0698C72.2662 32.0241 72.5853 32.0241 72.175 32.1612L72.1294 34.9022L72.3574 34.7651Z" fill="#6B5448"/>
<path fill-rule="evenodd" clip-rule="evenodd" d="M44.4994 114.437L44.317 114.483C43.9979 114.711 44.0891 114.209 44.0435 114.848C44.8186 114.665 44.2258 114.848 44.4994 114.437Z" fill="#5F4A3F"/>
<path fill-rule="evenodd" clip-rule="evenodd" d="M103.27 35.4048C102.905 35.222 102.86 35.6788 103.042 35.085L102.769 35.5418L103.27 35.4048Z" fill="#6F574B"/>
<path fill-rule="evenodd" clip-rule="evenodd" d="M38.2077 115.442L38.0709 115.351L37.7974 115.579L38.2077 115.442Z" fill="#675044"/>
</g>
<defs>
<filter id="filter0_i" x="0" y="0" width="119" height="131" filterUnits="userSpaceOnUse" color-interpolation-filters="sRGB">
<feFlood flood-opacity="0" result="BackgroundImageFix"/>
<feBlend mode="normal" in="SourceGraphic" in2="BackgroundImageFix" result="shape"/>
<feColorMatrix in="SourceAlpha" type="matrix" values="0 0 0 0 0 0 0 0 0 0 0 0 0 0 0 0 0 0 127 0" result="hardAlpha"/>
<feOffset dy="4"/>
<feGaussianBlur stdDeviation="2"/>
<feComposite in2="hardAlpha" operator="arithmetic" k2="-1" k3="1"/>
<feColorMatrix type="matrix" values="0 0 0 0 0 0 0 0 0 0 0 0 0 0 0 0 0 0 0.25 0"/>
<feBlend mode="normal" in2="shape" result="effect1_innerShadow"/>
</filter>
</defs>
</svg>
