<svg width="32" height="43" viewBox="0 0 32 43" fill="none" xmlns="http://www.w3.org/2000/svg">
<g clip-path="url(#clip0)">
<path d="M31.9966 27.6088V26.0508C31.9816 26.0756 31.9666 26.0998 31.9516 26.1246C31.6766 26.5706 31.3658 26.982 31.0171 27.3594C30.707 27.6957 30.3674 28.0052 29.9971 28.288C28.4436 29.4751 26.3586 30.1941 23.6957 30.4683C21.5839 30.6858 20.4686 30.8954 19.0268 31.6307C18.4821 31.9088 17.9486 32.2151 17.3838 32.5403C15.9818 33.3461 14.5322 34.1793 12.7403 34.6671C11.6171 34.9727 10.5045 35.1281 9.43421 35.1281C7.99302 35.1281 6.62046 34.8499 5.35427 34.302C4.32777 33.858 3.38808 33.2442 2.55552 32.4749C2.43208 32.3607 2.31127 32.2437 2.19308 32.123C1.79083 31.7135 1.42252 31.2708 1.09083 30.802C1.09083 30.802 1.09083 30.8013 1.09021 30.8013C0.671644 30.2104 0.310519 29.5776 0.0133936 28.9122C-0.147231 31.9173 1.14571 35.0354 3.41683 37.016C5.09308 38.478 7.16965 39.2283 9.44402 39.2283C10.4255 39.2283 11.4441 39.0886 12.4831 38.8058C14.1535 38.3513 15.5476 37.5495 16.8961 36.775C17.4714 36.444 18.0153 36.1312 18.5821 35.8425C20.291 34.9702 21.6767 34.7755 23.5952 34.5783C27.2814 34.199 29.7419 32.9282 31.1171 30.695C31.7393 29.6847 32.0351 28.6465 31.9966 27.6088Z" fill="#F9B605"/>
<path d="M13.8882 14.7715C13.7732 14.7715 13.6596 14.7721 13.5447 14.7728C12.9694 14.778 12.3928 14.8042 11.8194 14.8525C11.6346 15.1725 11.4316 15.5212 11.2134 15.8947C9.17418 19.3862 5.80862 25.006 3.41212 28.9932V28.9938C3.22212 29.3092 3.03862 29.6142 2.8623 29.9067C2.86818 29.9152 2.87468 29.923 2.88124 29.9315C2.88318 29.9334 2.88518 29.936 2.88712 29.938C2.90343 29.9595 2.92043 29.9817 2.93674 30.0033C2.95374 30.0255 2.97137 30.047 2.9883 30.0686C3.00199 30.0862 3.01574 30.1038 3.03012 30.1208C3.05887 30.1568 3.08755 30.1913 3.11699 30.2267C3.13005 30.243 3.14374 30.2593 3.15812 30.275C3.19468 30.3193 3.23324 30.3638 3.27237 30.4075C3.27368 30.4095 3.27499 30.4108 3.2763 30.4128C3.28087 30.4187 3.28612 30.4245 3.2913 30.4298C3.29193 30.4304 3.29262 30.4311 3.29324 30.4317C3.32655 30.4696 3.36049 30.5068 3.39512 30.544C3.39574 30.5447 3.39643 30.546 3.39705 30.5467C3.4003 30.5506 3.40355 30.5538 3.40749 30.5578C3.42055 30.5728 3.43424 30.5872 3.44799 30.6022C3.44993 30.6041 3.45193 30.6054 3.45324 30.6074C3.4983 30.6557 3.54399 30.7034 3.59037 30.7511C3.6348 30.7962 3.6798 30.8412 3.72555 30.8856C3.73537 30.8954 3.7458 30.9052 3.75624 30.915C3.79218 30.9496 3.82805 30.9835 3.86462 31.0175C3.88812 31.039 3.91099 31.0606 3.93449 31.0821C3.98218 31.1252 4.0298 31.1677 4.07818 31.2094C4.13499 31.2584 4.1918 31.3067 4.24993 31.3543C4.2793 31.3785 4.30805 31.402 4.33743 31.4248C4.42555 31.4953 4.51505 31.5639 4.60649 31.6305C4.6228 31.6423 4.63849 31.654 4.6548 31.6658C4.66918 31.6762 4.68356 31.686 4.69855 31.6965C4.75993 31.7402 4.82199 31.7833 4.8853 31.8251C4.91668 31.846 4.94799 31.8669 4.97999 31.8878C4.9878 31.893 4.99568 31.8976 5.00418 31.9035C5.05906 31.9387 5.11387 31.9733 5.16937 32.0067C5.20268 32.0269 5.23662 32.0472 5.27124 32.0674C5.30387 32.0863 5.33718 32.1059 5.37049 32.1248C5.43643 32.1621 5.50368 32.1993 5.57162 32.2352C5.71531 31.9988 5.88637 31.7167 6.08162 31.3968C8.11506 28.0534 12.7122 20.4825 15.4998 15.7875C15.697 15.4557 15.8851 15.1377 16.0621 14.8374C15.3359 14.793 14.6097 14.7715 13.8882 14.7715Z" fill="#F9B605"/>
<path d="M1.78116 20.4842C1.60291 20.9198 1.42004 21.3409 1.28098 21.7902C1.14191 22.2388 1.04785 22.7148 1.04785 23.2601V25.3516V25.4117C1.05435 25.4659 1.06154 25.5201 1.06941 25.5743C1.07398 25.605 1.07854 25.6357 1.0831 25.6664C1.08766 25.699 1.09291 25.7317 1.0981 25.7637C1.10073 25.7774 1.10266 25.7911 1.1046 25.8042C1.1131 25.8532 1.1216 25.9021 1.13073 25.9504C1.13204 25.9603 1.13398 25.97 1.13598 25.9798C1.14379 26.0203 1.15166 26.0614 1.15948 26.1019C1.16535 26.1294 1.1706 26.1568 1.17648 26.1842C1.18235 26.2109 1.18823 26.2384 1.1941 26.2652C1.19473 26.2691 1.19541 26.2724 1.19673 26.2763C1.20323 26.307 1.21041 26.3377 1.2176 26.3678C1.23129 26.4265 1.24504 26.4853 1.26004 26.5441C1.26591 26.5683 1.27241 26.5924 1.27898 26.6166C1.28879 26.6564 1.29985 26.6963 1.31035 26.7361C1.31816 26.7641 1.32604 26.7923 1.33454 26.8203C1.34891 26.8719 1.36391 26.9235 1.3796 26.9758C1.38091 26.979 1.38154 26.9823 1.38285 26.9862C1.4031 27.0528 1.42398 27.1201 1.44616 27.1867C1.46316 27.2389 1.48079 27.2918 1.49904 27.3441C1.51735 27.3963 1.53629 27.4486 1.55516 27.5008C1.55516 27.5021 1.55579 27.5034 1.55648 27.5048C1.55779 27.508 1.5591 27.5113 1.56041 27.5146C1.57279 27.5492 1.58585 27.5831 1.59891 27.6171C1.60085 27.6223 1.60285 27.6282 1.60479 27.6334C1.61198 27.6523 1.61916 27.6713 1.62698 27.6895C1.64004 27.7228 1.65241 27.7561 1.66616 27.7888C1.66748 27.7927 1.66941 27.7966 1.67073 27.8005C1.67466 27.8103 1.67854 27.8208 1.68316 27.8306C1.69298 27.8541 1.7021 27.8769 1.71191 27.8998C1.72104 27.9226 1.73085 27.9461 1.74129 27.9696C1.94829 27.6255 2.16248 27.2689 2.38185 26.9033C4.37223 23.5893 6.83073 19.4806 8.66048 16.3749C8.90079 15.9674 9.12998 15.577 9.3461 15.208C5.93291 15.923 2.97423 17.5659 1.78116 20.4842Z" fill="#F9B605"/>
<path d="M21.8149 15.7071C21.5818 15.649 21.3473 15.5929 21.1117 15.5399C20.8916 15.4903 20.6702 15.4433 20.4482 15.3989C19.9924 15.3074 19.5333 15.2271 19.0723 15.1559C18.9522 15.1376 18.832 15.12 18.7119 15.103C18.5473 15.0802 18.3828 15.058 18.2176 15.0371H18.217C18.0498 15.3231 17.8683 15.6314 17.675 15.9585C15.0493 20.4035 10.2412 28.3263 7.97659 32.0517C7.77484 32.3821 7.59396 32.6798 7.43652 32.9391C7.47896 32.9489 7.5214 32.9593 7.56452 32.9685C7.64809 32.9874 7.73234 33.0044 7.81721 33.0207C7.8629 33.0292 7.90865 33.0377 7.95502 33.0455C7.98177 33.0501 8.00859 33.0547 8.03534 33.0586C8.07584 33.0658 8.11696 33.0717 8.15746 33.0775C8.19009 33.0828 8.22277 33.0873 8.2554 33.0912C8.2789 33.0945 8.30177 33.0977 8.32459 33.1003C8.36896 33.1062 8.4134 33.1115 8.45777 33.116C8.47934 33.1187 8.50152 33.1213 8.52371 33.1232C8.5714 33.1285 8.61902 33.133 8.66671 33.1369C8.7059 33.1402 8.74509 33.1434 8.78427 33.146C8.8339 33.15 8.88352 33.1532 8.93315 33.1558C8.96321 33.1572 8.99259 33.1591 9.02259 33.1604C9.07159 33.1623 9.12121 33.1643 9.17146 33.1656C9.20152 33.167 9.23152 33.1676 9.26221 33.1676C9.31902 33.1689 9.37646 33.1695 9.43396 33.1695C9.4934 33.1695 9.55284 33.1689 9.6129 33.1676H9.63121C9.65209 33.167 9.67302 33.1663 9.69452 33.1656C9.69909 33.1656 9.70434 33.165 9.70952 33.165C9.74215 33.1644 9.77484 33.1637 9.80815 33.1618C9.83165 33.1612 9.85584 33.1605 9.87996 33.1585C9.91521 33.1572 9.95115 33.1559 9.98702 33.1533C10.0243 33.1513 10.0621 33.1487 10.0993 33.1461C10.1555 33.1422 10.2123 33.1376 10.2691 33.133C10.3827 33.1232 10.497 33.1108 10.6126 33.0971C10.6661 33.0906 10.7203 33.0834 10.7745 33.0755C10.7863 33.0742 10.7974 33.0723 10.8091 33.071C10.8196 33.0697 10.8294 33.0683 10.8398 33.0664C10.8849 33.0599 10.93 33.0533 10.9756 33.0462C11.0213 33.039 11.0671 33.0312 11.1135 33.0233C11.1513 33.0168 11.1892 33.0102 11.2277 33.003C11.2982 32.9907 11.3688 32.9776 11.44 32.9632C11.4863 32.9534 11.5327 32.9443 11.5797 32.9338C11.5915 32.9312 11.6026 32.9293 11.6136 32.9267C11.6182 32.926 11.6221 32.9247 11.6267 32.924C11.63 32.9234 11.6332 32.9227 11.6365 32.9221V32.9215L11.6855 32.8457C11.8423 32.5897 12.0786 32.2025 12.379 31.7102C14.2486 28.647 18.591 21.5189 21.5053 16.6416C21.6856 16.3393 21.8606 16.046 22.029 15.7627C21.9579 15.7437 21.8867 15.7254 21.8149 15.7071Z" fill="#F9B605"/>
<path d="M27.1121 17.7232C26.9854 17.6546 26.8587 17.588 26.7301 17.5221C26.6021 17.4567 26.4729 17.3921 26.3429 17.3294C26.2129 17.2661 26.0823 17.2047 25.9504 17.144C25.3065 16.8488 24.6418 16.5831 23.9607 16.3467C23.7962 16.6236 23.6251 16.9115 23.4475 17.2086C21.158 21.0476 17.8578 26.4819 15.6134 30.1681C15.2419 30.7786 14.899 31.3409 14.5947 31.8397C14.6816 31.796 14.7678 31.7516 14.854 31.7066C14.9108 31.6765 14.9676 31.6471 15.0237 31.6171C15.0277 31.6152 15.0322 31.6126 15.0362 31.6106C15.0956 31.5786 15.155 31.5473 15.2138 31.5146C15.2732 31.4826 15.3327 31.4506 15.3914 31.418C15.509 31.3527 15.6265 31.2874 15.7434 31.2214C15.8054 31.1862 15.8674 31.1509 15.9295 31.1156C16.188 30.9681 16.4454 30.8198 16.7039 30.6716C16.8084 30.6121 16.9135 30.5521 17.0187 30.4926C17.1505 30.4182 17.2825 30.3437 17.415 30.2706C17.4634 30.2439 17.5117 30.2171 17.5607 30.1903C17.5815 30.1792 17.6025 30.1674 17.6234 30.1564C17.6736 30.1296 17.7239 30.1022 17.7742 30.0754C17.8943 30.0114 18.0151 29.9481 18.1366 29.886C18.2137 29.8468 18.29 29.8089 18.3658 29.7724C18.4154 29.7482 18.4644 29.7247 18.5127 29.7019C18.5747 29.6725 18.6368 29.6444 18.6982 29.617C18.7556 29.5909 18.8131 29.5654 18.8705 29.5412C18.9137 29.5223 18.9561 29.5047 18.9992 29.4871C19.0331 29.4727 19.0664 29.459 19.1004 29.4459C19.1043 29.444 19.1075 29.4427 19.1115 29.4414C19.1755 29.4159 19.2388 29.3904 19.3022 29.3669C19.3492 29.3486 19.3962 29.331 19.4432 29.3141C19.4968 29.2945 19.5497 29.2756 19.6025 29.2572C19.6613 29.237 19.7207 29.2174 19.7795 29.1978C19.8454 29.1762 19.912 29.1554 19.9787 29.1351C20.0048 29.1273 20.0309 29.1194 20.0564 29.1116C20.0825 29.1038 20.1086 29.0959 20.1347 29.0887C20.1759 29.0763 20.217 29.0646 20.2582 29.0535C20.3 29.0417 20.3411 29.0306 20.3829 29.0202C20.3907 29.0176 20.3986 29.0156 20.4058 29.0143C20.4169 29.0117 20.4274 29.0084 20.4384 29.0058C20.4763 28.9954 20.5148 28.9856 20.5534 28.9764C20.601 28.9647 20.6494 28.9529 20.6977 28.9418C20.7003 28.9412 20.7022 28.9405 20.7049 28.9399C20.7114 28.9386 20.7185 28.9366 20.7251 28.9353L20.8355 28.7492C21.0099 28.4592 21.2012 28.1406 21.4069 27.7991C22.8487 25.3999 24.9807 21.8463 26.8503 18.6962C27.0194 18.4116 27.1859 18.1301 27.3499 17.8539C27.2708 17.8094 27.1918 17.7662 27.1121 17.7232Z" fill="#F9B605"/>
<path d="M28.9778 18.9492C28.8113 19.23 28.6422 19.5153 28.4711 19.804C26.9339 22.3925 25.229 25.2395 23.8785 27.4898C23.6565 27.8594 23.4437 28.2133 23.2432 28.547C23.3261 28.5378 23.4104 28.5286 23.4952 28.5202C26.3515 28.2263 28.8929 27.3553 30.2832 25.0978C30.7579 24.3273 30.9877 23.5783 31.0172 22.862V22.8417V22.5446C30.9603 21.1812 30.1774 19.9509 28.9778 18.9492Z" fill="#F9B605"/>
<path d="M14.4546 31.9096C14.5016 31.8868 14.5486 31.864 14.595 31.8405V31.8398C14.5486 31.8633 14.5016 31.8868 14.4546 31.9096Z" fill="#F9B605"/>
<path fill-rule="evenodd" clip-rule="evenodd" d="M11.24 1.88453C11.7009 2.12057 11.8831 2.6855 11.6471 3.14633C11.2115 3.99667 11.1098 4.59074 11.1256 5.04269C11.1418 5.50827 11.283 5.91136 11.4934 6.42773C11.5129 6.47575 11.5333 6.52523 11.5543 6.57615C11.747 7.04341 11.9897 7.63168 12.084 8.31178C12.1938 9.10304 12.1041 9.97459 11.6805 11.0111C11.4846 11.4904 10.9373 11.7202 10.458 11.5243C9.97869 11.3284 9.74894 10.7811 9.94482 10.3018C10.2556 9.54143 10.2869 9.00283 10.2268 8.56948C10.1668 8.13718 10.0151 7.76621 9.81183 7.26953C9.79393 7.22576 9.77562 7.18101 9.75694 7.13516C9.53763 6.59685 9.28037 5.92963 9.2517 5.10809C9.22255 4.27294 9.4294 3.36311 9.97824 2.29156C10.2143 1.83073 10.7792 1.64849 11.24 1.88453Z" fill="#F9B605"/>
<path fill-rule="evenodd" clip-rule="evenodd" d="M15.991 1.88453C16.4518 2.12057 16.6341 2.6855 16.398 3.14633C15.9625 3.99667 15.8608 4.59074 15.8765 5.04269C15.8928 5.50827 16.034 5.91136 16.2443 6.42773C16.2639 6.47575 16.2843 6.52523 16.3053 6.57615C16.498 7.04341 16.7406 7.63168 16.835 8.31178C16.9448 9.10304 16.8551 9.97459 16.4314 11.0111C16.2356 11.4904 15.6882 11.7202 15.2089 11.5243C14.7297 11.3284 14.4999 10.7811 14.6958 10.3018C15.0065 9.54143 15.0379 9.00283 14.9778 8.56948C14.9178 8.13718 14.766 7.76621 14.5628 7.26953C14.5449 7.22576 14.5266 7.18101 14.5079 7.13516C14.2886 6.59685 14.0313 5.92963 14.0027 5.10809C13.9735 4.27294 14.1804 3.36311 14.7292 2.29156C14.9652 1.83073 15.5302 1.64849 15.991 1.88453Z" fill="#F9B605"/>
<path fill-rule="evenodd" clip-rule="evenodd" d="M20.742 1.88453C21.2028 2.12057 21.3851 2.6855 21.149 3.14633C20.7135 3.99667 20.6117 4.59074 20.6275 5.04269C20.6438 5.50827 20.7849 5.91136 20.9953 6.42773C21.0149 6.47575 21.0353 6.52523 21.0563 6.57615C21.249 7.04341 21.4916 7.63168 21.586 8.31178C21.6958 9.10304 21.606 9.97459 21.1824 11.0111C20.9865 11.4904 20.4392 11.7202 19.9599 11.5243C19.4806 11.3284 19.2509 10.7811 19.4468 10.3018C19.7575 9.54143 19.7889 9.00283 19.7288 8.56948C19.6688 8.13718 19.517 7.76621 19.3138 7.26953C19.2959 7.22576 19.2776 7.18101 19.2589 7.13516C19.0396 6.59685 18.7823 5.92963 18.7537 5.10809C18.7245 4.27294 18.9314 3.36311 19.4802 2.29156C19.7162 1.83073 20.2812 1.64849 20.742 1.88453Z" fill="#F9B605"/>
</g>
<defs>
<clipPath id="clip0">
<rect width="32" height="43" fill="white"/>
</clipPath>
</defs>
</svg>
