<svg width="37" height="37" viewBox="0 0 37 37" fill="none" xmlns="http://www.w3.org/2000/svg">
<path d="M32.424 9.26583L31.6575 10.0324C31.0311 10.6587 30.1984 11.0037 29.3125 11.0037C28.4267 11.0037 27.5941 10.6587 26.9677 10.0324C26.3413 9.40609 25.9964 8.5733 25.9964 7.68754C25.9964 6.80178 26.3413 5.969 26.9677 5.3426L27.7342 4.576L23.1582 0L0 23.1582L4.576 27.7342L5.3426 26.9676C5.96892 26.3413 6.80171 25.9963 7.68754 25.9963C8.57338 25.9963 9.40602 26.3413 10.0324 26.9676C10.6587 27.5939 11.0037 28.4267 11.0037 29.3125C11.0037 30.1982 10.6587 31.031 10.0324 31.6574L9.26583 32.424L13.8418 37L37 13.8418L32.424 9.26583ZM12.257 32.3487C12.8522 31.4567 13.172 30.4092 13.172 29.3125C13.172 27.8475 12.6015 26.4702 11.5656 25.4344C10.5298 24.3985 9.15244 23.828 7.68754 23.828C6.59084 23.828 5.54328 24.1478 4.6513 24.743L3.06638 23.1582L23.1582 3.06638L24.743 4.6513C24.1478 5.54328 23.828 6.59084 23.828 7.68754C23.828 9.15251 24.3985 10.5298 25.4344 11.5656C26.4702 12.6015 27.8476 13.172 29.3125 13.172C30.4092 13.172 31.4567 12.8522 32.3487 12.257L33.9336 13.8418L13.8418 33.9336L12.257 32.3487Z" fill="#F9B605"/>
<path d="M15.6673 17.9932L14.5578 19.1024L16.3329 22.3601L13.0643 20.596L11.9497 21.7107L17.2203 24.124L18.0968 23.2476L15.6673 17.9932Z" fill="#F9B605"/>
<path d="M17.5498 16.1108L16.4946 17.166L20.3368 21.0081L21.392 19.953L17.5498 16.1108Z" fill="#F9B605"/>
<path d="M22.4689 16.5158L23.0966 15.8881C23.8541 15.1306 23.7134 13.9725 23.0317 13.2907C22.377 12.6359 21.1593 12.5007 20.4071 13.2529L18.7515 14.9087L22.5934 18.7507L23.6486 17.6955L22.4689 16.5158ZM22.1063 15.0386L21.5489 15.5959L20.7263 14.7734L21.2567 14.2431C21.3866 14.1132 21.6408 14.0429 21.9601 14.3621C22.2686 14.6706 22.2362 14.9087 22.1063 15.0386Z" fill="#F9B605"/>
</svg>
