<svg width="40" height="40" viewBox="0 0 40 40" fill="none" xmlns="http://www.w3.org/2000/svg">
<g filter="url(#filter0_ii)">
<g clip-path="url(#clip0)">
<path d="M25.8054 21.6979C25.519 21.5529 24.124 20.8721 23.8633 20.775C23.6026 20.6821 23.4133 20.6336 23.2233 20.92C23.0376 21.1993 22.4904 21.8386 22.3233 22.025C22.1561 22.2114 21.9919 22.2257 21.7097 22.0993C21.4233 21.9543 20.5083 21.6564 19.4219 20.6821C18.5733 19.9271 18.0083 18.9971 17.8404 18.7107C17.6733 18.4279 17.8219 18.2679 17.9633 18.1264C18.0933 17.9964 18.2497 17.7993 18.3947 17.6279C18.5326 17.4564 18.5769 17.3414 18.6776 17.1557C18.7704 16.955 18.7226 16.7986 18.6519 16.6571C18.5812 16.5157 18.0119 15.1136 17.774 14.555C17.5469 14.0007 17.309 14.0714 17.134 14.0714C16.9704 14.0564 16.7804 14.0564 16.5912 14.0564C16.4019 14.0564 16.0926 14.1271 15.8319 14.3986C15.5711 14.685 14.8347 15.3693 14.8347 16.7536C14.8347 18.1414 15.854 19.4843 15.9954 19.685C16.1404 19.8707 18.0004 22.7279 20.854 23.9557C21.5347 24.2421 22.0633 24.4136 22.4761 24.555C23.1569 24.7707 23.7783 24.7407 24.269 24.67C24.8119 24.5807 25.9504 23.9814 26.189 23.3121C26.4312 22.6386 26.4312 22.0807 26.3604 21.9543C26.2897 21.8243 26.104 21.7536 25.8176 21.6271L25.8054 21.6979ZM20.6304 28.7143H20.6154C18.9262 28.7143 17.2562 28.2564 15.7976 27.4007L15.4554 27.1964L11.884 28.1264L12.844 24.6514L12.6133 24.2943C11.6701 22.7945 11.1696 21.0588 11.1697 19.2871C11.1697 14.1014 15.4147 9.87143 20.6376 9.87143C23.1676 9.87143 25.5411 10.8571 27.3269 12.6429C28.2078 13.5133 28.9065 14.5504 29.3824 15.6938C29.8582 16.8371 30.1016 18.0637 30.0983 19.3021C30.0912 24.4843 25.8497 28.7143 20.634 28.7143H20.6304ZM28.6847 11.285C26.5119 9.18643 23.6547 8 20.6154 8C14.3469 8 9.24258 13.0821 9.23901 19.3279C9.23901 21.3221 9.75972 23.2679 10.7569 24.99L9.14258 30.8571L15.1769 29.2836C16.8485 30.1848 18.717 30.6589 20.6161 30.6636H20.6197C26.8919 30.6636 31.9962 25.5814 31.9997 19.3314C31.9997 16.3071 30.8204 13.4607 28.6704 11.3214L28.6847 11.285Z" fill="#140002"/>
</g>
</g>
<defs>
<filter id="filter0_ii" x="0" y="-3" width="40" height="48" filterUnits="userSpaceOnUse" color-interpolation-filters="sRGB">
<feFlood flood-opacity="0" result="BackgroundImageFix"/>
<feBlend mode="normal" in="SourceGraphic" in2="BackgroundImageFix" result="shape"/>
<feColorMatrix in="SourceAlpha" type="matrix" values="0 0 0 0 0 0 0 0 0 0 0 0 0 0 0 0 0 0 127 0" result="hardAlpha"/>
<feOffset dy="6"/>
<feGaussianBlur stdDeviation="2.5"/>
<feComposite in2="hardAlpha" operator="arithmetic" k2="-1" k3="1"/>
<feColorMatrix type="matrix" values="0 0 0 0 1 0 0 0 0 1 0 0 0 0 1 0 0 0 0.31 0"/>
<feBlend mode="normal" in2="shape" result="effect1_innerShadow"/>
<feColorMatrix in="SourceAlpha" type="matrix" values="0 0 0 0 0 0 0 0 0 0 0 0 0 0 0 0 0 0 127 0" result="hardAlpha"/>
<feOffset dy="-3"/>
<feGaussianBlur stdDeviation="2"/>
<feComposite in2="hardAlpha" operator="arithmetic" k2="-1" k3="1"/>
<feColorMatrix type="matrix" values="0 0 0 0 0 0 0 0 0 0 0 0 0 0 0 0 0 0 0.27 0"/>
<feBlend mode="normal" in2="effect1_innerShadow" result="effect2_innerShadow"/>
</filter>
<clipPath id="clip0">
<rect width="22.8571" height="22.8571" fill="white" transform="translate(9.14258 8)"/>
</clipPath>
</defs>
</svg>
