<svg width="742" height="528" viewBox="0 0 742 528" fill="none" xmlns="http://www.w3.org/2000/svg">
<path d="M371 528C332.675 528 295.606 516.012 267.019 494.217H255.71C223.354 494.217 191.94 486.043 165.238 470.241H101.782C97.3836 470.241 93.928 467.245 93.928 463.43V402.13C65.9695 382.786 46.1787 355.814 37.6969 325.845C14.4505 311.95 0 288.52 0 264C0 239.48 14.4505 216.05 37.6969 202.155C46.1787 172.186 65.9695 145.214 93.928 125.87V64.5697C93.928 60.7555 97.3836 57.7585 101.782 57.7585H165.238C191.94 41.9567 223.354 33.7832 255.71 33.7832H267.019C295.92 11.9875 332.675 0 371 0C409.325 0 446.394 11.9875 474.98 33.7832H486.29C518.646 33.7832 550.06 41.9567 576.762 57.7585H640.218C644.616 57.7585 648.072 60.7555 648.072 64.5697V125.87C676.03 145.214 695.821 172.186 704.303 202.155C727.549 216.05 742 239.48 742 264C742 288.52 727.549 311.95 704.303 325.845C695.821 355.814 676.03 382.786 648.072 402.13V463.43C648.072 467.245 644.616 470.241 640.218 470.241H576.762C550.06 486.043 518.646 494.217 486.29 494.217H474.98C446.394 516.012 409.325 528 371 528Z" fill="#A5BE3F"/>
</svg>
