<svg width="20" height="14" viewBox="0 0 20 14" fill="none" xmlns="http://www.w3.org/2000/svg">
<path d="M9.99998 3.00043C9.63197 3.00619 9.26668 3.06465 8.91526 3.17405C9.07782 3.45992 9.16437 3.78269 9.16665 4.11155C9.16665 4.36689 9.11635 4.61974 9.01864 4.85565C8.92092 5.09156 8.77769 5.30592 8.59713 5.48647C8.41657 5.66703 8.20222 5.81026 7.96631 5.90798C7.7304 6.0057 7.47755 6.05599 7.2222 6.05599C6.89335 6.05371 6.57058 5.96716 6.2847 5.8046C6.05916 6.58682 6.08545 7.42018 6.35984 8.18663C6.63424 8.95308 7.14283 9.61377 7.81358 10.0751C8.48433 10.5364 9.28323 10.775 10.0971 10.7571C10.911 10.7392 11.6986 10.4656 12.3484 9.97519C12.9982 9.48476 13.4772 8.80232 13.7176 8.02453C13.9579 7.24673 13.9475 6.41303 13.6877 5.6415C13.4279 4.86997 12.932 4.19974 12.2701 3.72573C11.6083 3.25172 10.8141 2.99798 9.99998 3.00043ZM19.8791 6.38238C17.9962 2.70842 14.2684 0.222656 9.99998 0.222656C5.73158 0.222656 2.00276 2.71016 0.120814 6.38273C0.0413845 6.53985 0 6.71344 0 6.8895C0 7.06555 0.0413845 7.23915 0.120814 7.39627C2.0038 11.0702 5.73158 13.556 9.99998 13.556C14.2684 13.556 17.9972 11.0685 19.8791 7.39592C19.9586 7.2388 20 7.06521 20 6.88915C20 6.71309 19.9586 6.5395 19.8791 6.38238ZM9.99998 11.8893C6.57463 11.8893 3.43436 9.9796 1.73852 6.88932C3.43436 3.79905 6.57429 1.88932 9.99998 1.88932C13.4257 1.88932 16.5656 3.79905 18.2614 6.88932C16.566 9.9796 13.4257 11.8893 9.99998 11.8893Z" fill="#F2821C"/>
</svg>
