<svg width="26" height="25" viewBox="0 0 26 25" fill="none" xmlns="http://www.w3.org/2000/svg">
<path d="M13.0029 6.01098C9.46668 6.01098 6.61436 8.74506 6.61436 12.1347C6.61436 15.5243 9.46668 18.2584 13.0029 18.2584C16.5391 18.2584 19.3914 15.5243 19.3914 12.1347C19.3914 8.74506 16.5391 6.01098 13.0029 6.01098ZM13.0029 16.1159C10.7177 16.1159 8.84951 14.3305 8.84951 12.1347C8.84951 9.93889 10.7121 8.15348 13.0029 8.15348C15.2936 8.15348 17.1563 9.93889 17.1563 12.1347C17.1563 14.3305 15.2881 16.1159 13.0029 16.1159ZM21.1429 5.76049C21.1429 6.5546 20.4756 7.18882 19.6528 7.18882C18.8243 7.18882 18.1626 6.54927 18.1626 5.76049C18.1626 4.9717 18.8299 4.33215 19.6528 4.33215C20.4756 4.33215 21.1429 4.9717 21.1429 5.76049ZM25.3741 7.21014C25.2796 5.29681 24.8236 3.602 23.3613 2.20564C21.9046 0.809284 20.1365 0.372257 18.1404 0.276324C16.0832 0.164402 9.91704 0.164402 7.85981 0.276324C5.8693 0.366927 4.1012 0.803955 2.6389 2.20031C1.17659 3.59667 0.726227 5.29148 0.626146 7.20481C0.509384 9.17676 0.509384 15.0873 0.626146 17.0592C0.720667 18.9726 1.17659 20.6674 2.6389 22.0637C4.1012 23.4601 5.86374 23.8971 7.85981 23.9931C9.91704 24.105 16.0832 24.105 18.1404 23.9931C20.1365 23.9025 21.9046 23.4654 23.3613 22.0637C24.8181 20.6674 25.274 18.9726 25.3741 17.0592C25.4908 15.0873 25.4908 9.18209 25.3741 7.21014ZM22.7164 19.1751C22.2827 20.2197 21.4431 21.0245 20.3478 21.4455C18.7075 22.0691 14.8155 21.9252 13.0029 21.9252C11.1903 21.9252 7.29269 22.0637 5.65802 21.4455C4.56824 21.0298 3.72867 20.225 3.28943 19.1751C2.6389 17.6029 2.78902 13.8721 2.78902 12.1347C2.78902 10.3972 2.64446 6.66119 3.28943 5.09429C3.72311 4.04968 4.56268 3.24491 5.65802 2.82387C7.29825 2.20031 11.1903 2.34421 13.0029 2.34421C14.8155 2.34421 18.7131 2.20564 20.3478 2.82387C21.4375 3.23958 22.2771 4.04435 22.7164 5.09429C23.3669 6.66652 23.2168 10.3972 23.2168 12.1347C23.2168 13.8721 23.3669 17.6082 22.7164 19.1751Z" fill="white"/>
</svg>
