<svg width="26" height="34" viewBox="0 0 26 34" fill="none" xmlns="http://www.w3.org/2000/svg">
<path d="M12.9997 21.5C15.9047 21.5 18.2497 19.155 18.2497 16.25V5.75C18.2497 2.845 15.9047 0.5 12.9997 0.5C10.0947 0.5 7.74973 2.845 7.74973 5.75V16.25C7.74973 19.155 10.0947 21.5 12.9997 21.5ZM23.3422 16.25C22.4847 16.25 21.7672 16.88 21.6272 17.7375C20.9097 21.85 17.3222 25 12.9997 25C8.67723 25 5.08973 21.85 4.37223 17.7375C4.31052 17.3259 4.10382 16.9498 3.78939 16.6771C3.47495 16.4044 3.07345 16.2529 2.65723 16.25C1.58973 16.25 0.749732 17.195 0.907232 18.245C1.76473 23.495 5.96473 27.6075 11.2497 28.36V32C11.2497 32.9625 12.0372 33.75 12.9997 33.75C13.9622 33.75 14.7497 32.9625 14.7497 32V28.36C17.3249 27.9921 19.7159 26.8132 21.5756 24.9943C23.4354 23.1755 24.6672 20.8114 25.0922 18.245C25.2672 17.195 24.4097 16.25 23.3422 16.25Z" fill="#135911"/>
</svg>
