<svg width="37" height="33" viewBox="0 0 37 33" fill="none" xmlns="http://www.w3.org/2000/svg">
<path d="M36.1048 6.76269C35.5307 5.43931 34.703 4.24008 33.6679 3.23212C32.632 2.22116 31.4106 1.41776 30.0702 0.865617C28.6803 0.290804 27.1896 -0.0034188 25.6845 2.99709e-05C23.5731 2.99709e-05 21.513 0.575667 19.7227 1.66298C19.2945 1.92308 18.8876 2.20877 18.5021 2.52004C18.1167 2.20877 17.7098 1.92308 17.2815 1.66298C15.4912 0.575667 13.4312 2.99709e-05 11.3197 2.99709e-05C9.79927 2.99709e-05 8.32595 0.28998 6.93401 0.865617C5.58918 1.41993 4.37712 2.2173 3.33638 3.23212C2.2999 4.23894 1.47194 5.43846 0.899409 6.76269C0.304086 8.13996 0 9.6025 0 11.1077C0 12.5276 0.291237 14.0072 0.869428 15.5124C1.3534 16.7702 2.04722 18.075 2.93378 19.3926C4.33858 21.4777 6.27016 23.6523 8.66858 25.8568C12.6431 29.511 16.5791 32.0353 16.7461 32.1376L17.7612 32.7857C18.2109 33.0714 18.7891 33.0714 19.2388 32.7857L20.2538 32.1376C20.4209 32.031 24.3526 29.511 28.3314 25.8568C30.7298 23.6523 32.6614 21.4777 34.0662 19.3926C34.9527 18.075 35.6508 16.7702 36.1305 15.5124C36.7087 14.0072 37 12.5276 37 11.1077C37.0042 9.6025 36.7001 8.13996 36.1048 6.76269ZM18.5021 29.4129C18.5021 29.4129 3.255 19.6868 3.255 11.1077C3.255 6.76269 6.86548 3.24065 11.3197 3.24065C14.4505 3.24065 17.1659 4.98035 18.5021 7.52168C19.8384 4.98035 22.5537 3.24065 25.6845 3.24065C30.1388 3.24065 33.7492 6.76269 33.7492 11.1077C33.7492 19.6868 18.5021 29.4129 18.5021 29.4129Z" fill="#135911"/>
</svg>
