<svg width="361" height="327" viewBox="0 0 361 327" fill="none" xmlns="http://www.w3.org/2000/svg">
<path d="M180.5 327C161.854 327 143.819 319.576 129.911 306.077H124.409C108.667 306.077 93.3831 301.015 80.392 291.229H49.5191C47.3793 291.229 45.6981 289.373 45.6981 287.011V249.046C32.0957 237.067 22.467 220.362 18.3404 201.802C7.03048 193.197 0 178.686 0 163.5C0 148.314 7.03048 133.803 18.3404 125.198C22.467 106.638 32.0957 89.9335 45.6981 77.9536V39.9892C45.6981 37.627 47.3793 35.7709 49.5191 35.7709H80.392C93.3831 25.9845 108.667 20.9225 124.409 20.9225H129.911C143.972 7.42409 161.854 0 180.5 0C199.146 0 217.181 7.42409 231.089 20.9225H236.591C252.333 20.9225 267.617 25.9845 280.608 35.7709H311.481C313.621 35.7709 315.302 37.627 315.302 39.9892V77.9536C328.904 89.9335 338.533 106.638 342.66 125.198C353.97 133.803 361 148.314 361 163.5C361 178.686 353.97 193.197 342.66 201.802C338.533 220.362 328.904 237.067 315.302 249.046V287.011C315.302 289.373 313.621 291.229 311.481 291.229H280.608C267.617 301.015 252.333 306.077 236.591 306.077H231.089C217.181 319.576 199.146 327 180.5 327Z" fill="#A5BE3F"/>
</svg>
