<svg width="292" height="295" viewBox="0 0 292 295" fill="none" xmlns="http://www.w3.org/2000/svg">
<path d="M146 295C130.918 295 116.33 288.302 105.08 276.125H100.63C87.8967 276.125 75.5343 271.558 65.0262 262.73H40.0542C38.3235 262.73 36.9636 261.055 36.9636 258.924V224.675C25.9611 213.867 18.1727 198.798 14.8349 182.054C5.68671 174.29 0 161.2 0 147.5C0 133.8 5.68671 120.71 14.8349 112.946C18.1727 96.2023 25.9611 81.1326 36.9636 70.3251V36.0759C36.9636 33.9448 38.3235 32.2704 40.0542 32.2704H65.0262C75.5343 23.4417 87.8967 18.8751 100.63 18.8751H105.08C116.454 6.69757 130.918 0 146 0C161.082 0 175.67 6.69757 186.92 18.8751H191.37C204.103 18.8751 216.466 23.4417 226.974 32.2704H251.946C253.677 32.2704 255.036 33.9448 255.036 36.0759V70.3251C266.039 81.1326 273.827 96.2023 277.165 112.946C286.313 120.71 292 133.8 292 147.5C292 161.2 286.313 174.29 277.165 182.054C273.827 198.798 266.039 213.867 255.036 224.675V258.924C255.036 261.055 253.677 262.73 251.946 262.73H226.974C216.466 271.558 204.103 276.125 191.37 276.125H186.92C175.67 288.302 161.082 295 146 295Z" fill="#135911"/>
</svg>
