<svg width="18" height="18" viewBox="0 0 18 18" fill="none" xmlns="http://www.w3.org/2000/svg">
<path d="M13.4998 17.3338C10.0976 17.3293 6.83593 15.9758 4.43017 13.5701C2.02441 11.1643 0.670914 7.90268 0.666504 4.50042C0.666504 3.48376 1.07037 2.50873 1.78926 1.78984C2.50815 1.07096 3.48317 0.667087 4.49984 0.667087C4.71512 0.665448 4.93004 0.684986 5.1415 0.725421C5.34593 0.755671 5.54689 0.805912 5.7415 0.875421C5.87838 0.923445 6.00035 1.00637 6.09535 1.11598C6.19035 1.2256 6.25509 1.35811 6.28317 1.50042L7.42484 6.50042C7.45561 6.63614 7.4519 6.7774 7.41406 6.91132C7.37621 7.04524 7.30543 7.16755 7.20817 7.26709C7.09984 7.38375 7.0915 7.39209 6.0665 7.92542C6.88733 9.72614 8.3275 11.1722 10.1248 12.0004C10.6665 10.9671 10.6748 10.9588 10.7915 10.8504C10.891 10.7532 11.0133 10.6824 11.1473 10.6445C11.2812 10.6067 11.4225 10.603 11.5582 10.6338L16.5582 11.7754C16.6959 11.8074 16.8233 11.8739 16.9282 11.9686C17.0332 12.0634 17.1123 12.1833 17.1582 12.3171C17.2285 12.5149 17.2815 12.7184 17.3165 12.9254C17.35 13.1349 17.3668 13.3466 17.3665 13.5588C17.3511 14.5711 16.9359 15.5362 16.2115 16.2435C15.487 16.9507 14.5122 17.3427 13.4998 17.3338Z" fill="#DDD16F"/>
</svg>
