<svg width="23" height="23" viewBox="0 0 23 23" fill="none" xmlns="http://www.w3.org/2000/svg">
<path d="M16.8054 13.6979C16.519 13.5529 15.124 12.8721 14.8633 12.775C14.6026 12.6821 14.4133 12.6336 14.2233 12.92C14.0376 13.1993 13.4904 13.8386 13.3233 14.025C13.1561 14.2114 12.9919 14.2257 12.7097 14.0993C12.4233 13.9543 11.5083 13.6564 10.4219 12.6821C9.57329 11.9271 9.00829 10.9971 8.84044 10.7107C8.67329 10.4279 8.82186 10.2679 8.96329 10.1264C9.09329 9.99643 9.24972 9.79929 9.39472 9.62786C9.53258 9.45643 9.57686 9.34143 9.67758 9.15571C9.77044 8.955 9.72258 8.79857 9.65186 8.65714C9.58115 8.51571 9.01186 7.11357 8.77401 6.555C8.54686 6.00071 8.30901 6.07143 8.13401 6.07143C7.97044 6.05643 7.78044 6.05643 7.59115 6.05643C7.40186 6.05643 7.09258 6.12714 6.83186 6.39857C6.57115 6.685 5.83472 7.36929 5.83472 8.75357C5.83472 10.1414 6.85401 11.4843 6.99544 11.685C7.14044 11.8707 9.00044 14.7279 11.854 15.9557C12.5347 16.2421 13.0633 16.4136 13.4761 16.555C14.1569 16.7707 14.7783 16.7407 15.269 16.67C15.8119 16.5807 16.9504 15.9814 17.189 15.3121C17.4311 14.6386 17.4311 14.0807 17.3604 13.9543C17.2897 13.8243 17.104 13.7536 16.8176 13.6271L16.8054 13.6979ZM11.6304 20.7143H11.6154C9.92615 20.7143 8.25615 20.2564 6.79758 19.4007L6.45544 19.1964L2.88401 20.1264L3.84401 16.6514L3.61329 16.2943C2.67005 14.7945 2.16965 13.0588 2.16972 11.2871C2.16972 6.10143 6.41472 1.87143 11.6376 1.87143C14.1676 1.87143 16.5412 2.85714 18.3269 4.64286C19.2078 5.51328 19.9065 6.55042 20.3824 7.69376C20.8582 8.8371 21.1016 10.0637 21.0983 11.3021C21.0911 16.4843 16.8497 20.7143 11.634 20.7143H11.6304ZM19.6847 3.285C17.5119 1.18643 14.6547 0 11.6154 0C5.34686 0 0.242578 5.08214 0.239007 11.3279C0.239007 13.3221 0.759721 15.2679 1.75686 16.99L0.142578 22.8571L6.17686 21.2836C7.84851 22.1848 9.71703 22.6589 11.6161 22.6636H11.6197C17.8919 22.6636 22.9962 17.5814 22.9997 11.3314C22.9997 8.30714 21.8204 5.46071 19.6704 3.32143L19.6847 3.285Z" fill="#A5BE3F"/>
</svg>
