<svg width="8" height="9" viewBox="0 0 8 9" fill="none" xmlns="http://www.w3.org/2000/svg">
<path d="M4.82129 7.57031C4.87337 7.6224 4.89941 7.68229 4.89941 7.75C4.89941 7.81771 4.87337 7.8776 4.82129 7.92969L4.43066 8.32031C4.37858 8.3724 4.31869 8.39844 4.25098 8.39844C4.18327 8.39844 4.12337 8.3724 4.07129 8.32031L0.430664 4.67969C0.378581 4.6276 0.352539 4.56771 0.352539 4.5C0.352539 4.43229 0.378581 4.3724 0.430664 4.32031L4.07129 0.679687C4.12337 0.627603 4.18327 0.601562 4.25098 0.601562C4.31869 0.601562 4.37858 0.627603 4.43066 0.679687L4.82129 1.07031C4.87337 1.1224 4.89941 1.18229 4.89941 1.25C4.89941 1.31771 4.87337 1.3776 4.82129 1.42969L1.75098 4.5L4.82129 7.57031ZM7.82129 7.57031C7.87337 7.6224 7.89941 7.68229 7.89941 7.75C7.89941 7.81771 7.87337 7.8776 7.82129 7.92969L7.43066 8.32031C7.37858 8.3724 7.31869 8.39844 7.25098 8.39844C7.18327 8.39844 7.12337 8.3724 7.07129 8.32031L3.43066 4.67969C3.37858 4.6276 3.35254 4.56771 3.35254 4.5C3.35254 4.43229 3.37858 4.3724 3.43066 4.32031L7.07129 0.679687C7.12337 0.627603 7.18327 0.601562 7.25098 0.601562C7.31869 0.601562 7.37858 0.627603 7.43066 0.679687L7.82129 1.07031C7.87337 1.1224 7.89941 1.18229 7.89941 1.25C7.89941 1.31771 7.87337 1.3776 7.82129 1.42969L4.75098 4.5L7.82129 7.57031Z" fill="#F2CD84"/>
</svg>
