<svg width="8" height="9" viewBox="0 0 8 9" fill="none" xmlns="http://www.w3.org/2000/svg">
<path d="M4.57129 4.32031C4.62337 4.3724 4.64941 4.43229 4.64941 4.5C4.64941 4.56771 4.62337 4.6276 4.57129 4.67969L0.930664 8.32031C0.878581 8.3724 0.818685 8.39844 0.750977 8.39844C0.683268 8.39844 0.623372 8.3724 0.571289 8.32031L0.180664 7.92969C0.128581 7.8776 0.102539 7.81771 0.102539 7.75C0.102539 7.68229 0.128581 7.6224 0.180664 7.57031L3.25098 4.5L0.180664 1.42969C0.128581 1.3776 0.102539 1.31771 0.102539 1.25C0.102539 1.18229 0.128581 1.1224 0.180664 1.07031L0.571289 0.679687C0.623372 0.627603 0.683268 0.601562 0.750977 0.601562C0.818685 0.601562 0.878581 0.627603 0.930664 0.679687L4.57129 4.32031ZM7.57129 4.32031C7.62337 4.3724 7.64941 4.43229 7.64941 4.5C7.64941 4.56771 7.62337 4.6276 7.57129 4.67969L3.93066 8.32031C3.87858 8.3724 3.81869 8.39844 3.75098 8.39844C3.68327 8.39844 3.62337 8.3724 3.57129 8.32031L3.18066 7.92969C3.12858 7.8776 3.10254 7.81771 3.10254 7.75C3.10254 7.68229 3.12858 7.6224 3.18066 7.57031L6.25098 4.5L3.18066 1.42969C3.12858 1.3776 3.10254 1.31771 3.10254 1.25C3.10254 1.18229 3.12858 1.1224 3.18066 1.07031L3.57129 0.679687C3.62337 0.627603 3.68327 0.601562 3.75098 0.601562C3.81869 0.601562 3.87858 0.627603 3.93066 0.679687L7.57129 4.32031Z" fill="#F2CD84"/>
</svg>
