<svg width="20" height="12" viewBox="0 0 20 12" fill="none" xmlns="http://www.w3.org/2000/svg">
<path d="M10.7798 11.6379L19.6789 2.85714C19.893 2.64592 20 2.38944 20 2.08769C20 1.78595 19.893 1.52947 19.6789 1.31825L18.6697 0.32249C18.4557 0.111268 18.1957 0.00565787 17.8899 0.00565789C17.5841 -0.0245165 17.3242 0.0660068 17.1101 0.277228L10 7.29279L2.88991 0.277229C2.67584 0.0660081 2.4159 -0.0245152 2.11009 0.00565927C1.80428 0.0056593 1.54434 0.11127 1.33027 0.322491L0.3211 1.31825C0.107033 1.52947 1.56133e-07 1.78595 1.82512e-07 2.0877C2.08891e-07 2.38944 0.107033 2.64592 0.3211 2.85714L9.22018 11.6379C9.43425 11.8793 9.69419 12 10 12C10.3058 12 10.5658 11.8793 10.7798 11.6379Z" fill="#180004"/>
</svg>
