<svg width="85" height="119" viewBox="0 0 85 119" fill="none" xmlns="http://www.w3.org/2000/svg">
<path d="M57.2352 4.07302C57.4788 4.07302 57.4787 4.07302 57.7223 4.07302V3.8285C57.7223 3.8285 57.4787 3.8285 57.4787 3.58397C57.2351 3.8285 57.2352 4.07302 57.2352 4.07302ZM51.877 14.3431C51.6335 14.3431 51.3899 14.5876 51.3899 14.8321C51.3899 14.8321 51.6335 14.8321 51.6335 15.0767C51.877 14.8321 51.877 14.5876 51.877 14.3431ZM31.9057 37.8176C32.1493 36.8394 31.9057 36.3504 31.1751 36.1059C30.688 36.1059 30.4444 36.5949 30.4444 37.3285C30.9315 37.573 31.175 37.573 31.9057 37.8176ZM56.0174 10.4307C56.5046 8.47448 56.5045 6.76281 56.2609 5.05113C55.5303 6.02923 55.2868 7.74091 56.0174 10.4307ZM58.94 2.8504C58.2094 4.31755 57.7223 6.02923 58.2094 7.74091C59.1836 7.74091 59.4272 7.00733 59.4272 6.27376C59.4272 5.05113 59.6707 4.07302 58.94 2.8504ZM74.0403 17.7665C74.5274 16.7884 74.5274 15.8102 74.5274 15.0767C74.5274 14.5876 74.2838 14.3431 73.7967 14.3431C73.0661 14.5876 72.8226 15.5657 71.8484 15.8103C72.0919 15.3212 72.0918 15.0767 72.0918 14.8321C72.3354 14.5876 72.579 14.0986 72.579 13.854C72.579 13.6095 72.579 13.1205 72.3354 12.8759C72.0919 12.6314 71.6048 12.6314 71.3612 13.1205C70.8741 13.6095 70.387 14.3431 70.387 15.0767C71.3612 15.8102 72.3354 17.0329 74.0403 17.7665ZM26.0605 36.1059C26.5476 35.6168 27.0347 35.1278 27.2782 34.6387C27.7653 34.1497 28.2524 33.6606 28.7395 33.1716C28.9831 32.927 29.2266 32.927 29.4702 33.4161C29.2266 33.6606 28.9831 33.9051 28.7395 34.3942C28.496 34.6387 28.0089 35.1278 28.0089 35.3723C28.0089 35.6168 27.7654 36.1059 28.0089 36.1059C28.2525 36.3504 28.7396 36.3504 28.9831 36.3504C29.4702 35.8613 30.2008 35.1278 30.6879 34.6387C30.9315 34.1497 30.4444 33.4161 30.2009 32.927C29.9573 32.6825 29.9573 32.1935 29.7137 31.9489C29.4702 31.2154 28.7395 31.2154 28.2524 31.7044C27.5218 32.6825 26.7911 33.9051 26.0605 35.1278C25.8169 35.3723 25.8169 35.6168 26.0605 36.1059ZM51.3899 10.4307C50.9028 10.9197 50.6592 11.1643 50.4157 11.4088C49.4415 12.6314 48.4673 13.854 47.7366 14.8321C47.4931 15.0767 47.2495 15.0767 47.2495 15.3212C47.2495 15.5657 47.006 16.0548 47.2495 16.2993C47.2495 16.7884 47.4931 17.2774 48.2237 17.0329C48.2237 16.7884 48.2237 16.5438 48.2237 16.2993C48.2237 16.0548 48.2238 15.5657 48.7109 15.3212C48.7109 15.8103 48.7108 16.5438 48.9544 17.0329C48.9544 17.2774 49.1979 17.5219 49.4415 17.5219C49.6851 17.5219 50.1721 17.5219 50.1721 17.2774C50.4157 17.0329 50.6593 16.5438 50.6593 16.0548C50.6593 15.5657 50.6593 14.8321 50.6593 14.3431C50.6593 13.6095 50.6592 13.1205 51.3899 12.6314C52.1205 12.1424 51.877 11.4088 51.3899 10.4307ZM36.7767 7.98543C36.2896 8.22996 36.0461 7.98544 35.8026 8.22996C34.3412 9.69711 33.8541 11.8978 33.1235 13.854C32.8799 13.6095 32.88 13.365 32.88 13.1205C33.1235 12.1424 33.6106 11.4088 33.8542 10.4307C34.0977 9.94164 34.3413 9.45259 33.6106 8.96354C33.367 9.20806 33.1235 9.20806 33.1235 9.45259C32.3928 11.1643 31.4186 12.8759 30.6879 14.5876C30.4444 14.8321 30.6879 15.3212 30.6879 15.8103C34.3412 14.5876 37.751 12.6314 41.1607 11.1643C41.6478 10.9197 41.8914 10.6752 42.6221 10.1862C41.4043 8.96354 40.6736 7.74091 38.9688 7.25186C38.7252 7.49638 38.2381 7.98544 37.9945 8.22996C37.2639 9.45259 36.7768 10.4307 36.2897 11.6533C36.0461 11.8978 36.0461 12.1424 35.559 12.1424C35.3154 10.6752 36.7767 9.69711 36.7767 7.98543ZM19.241 17.0329C19.241 19.9672 20.7023 22.4124 21.1894 24.8577C21.433 25.5913 21.6765 26.3249 22.1636 26.8139C22.8943 27.0584 22.8943 25.8358 23.8685 26.0803C23.6249 26.5694 23.3814 26.8139 23.3814 27.3029C23.1378 27.792 22.8943 28.0365 22.8943 28.5256C22.8943 29.0146 22.8943 29.5037 23.3814 29.5037C24.3556 29.2592 24.3556 28.2811 24.8427 27.5475C25.0862 27.3029 25.0863 27.0584 25.5734 27.3029C25.3298 27.5475 25.3298 28.0365 25.0863 28.5256C24.5992 29.2592 24.3556 29.7482 23.8685 30.4818C23.6249 30.9708 23.6249 31.4599 23.6249 31.7044C23.8685 32.6825 24.112 33.4161 24.5991 34.1497C25.8169 33.6606 26.304 32.438 27.0346 31.7044C28.0089 30.7263 28.0089 29.7482 27.5218 28.5256C26.5476 26.0803 25.5734 23.6351 24.3556 20.9453C24.1121 20.7008 23.8685 20.4562 23.6249 20.2117C23.3814 19.9672 22.8943 19.9672 22.6507 19.7227C22.4072 18.2555 20.9459 18.011 19.241 17.0329ZM35.8026 38.0621C37.2639 37.084 38.9687 36.1059 40.6736 35.1278C42.1349 34.1497 43.8398 33.4161 45.3011 32.438C46.7624 31.4599 48.7108 30.9708 50.1721 29.7482C50.1721 28.0365 49.198 26.8139 48.7109 25.5913C48.2238 24.1241 47.7366 22.657 47.006 21.1898C46.5189 19.7227 45.7882 18.5 45.3011 17.0329C44.5704 15.5657 44.814 13.854 43.5963 12.6314C42.622 12.8759 42.135 13.365 41.4043 13.6095C40.4301 14.0986 39.6994 14.5876 38.7252 14.8321C35.3155 16.0548 32.1493 17.5219 28.7395 18.7446C28.496 18.7446 28.2525 18.9891 28.0089 19.2336C27.0347 19.9672 26.7911 20.4562 27.2782 21.4343C27.7653 22.657 28.0089 23.8796 28.496 25.1022C29.7137 27.792 30.688 30.7263 32.1493 33.1716C32.3928 33.4161 32.3928 33.9051 32.6364 34.1497C32.88 36.1059 33.8541 37.3285 35.8026 38.0621ZM59.9142 8.96354C59.6707 9.20806 59.4271 9.45259 59.1836 9.45259C56.261 13.1205 53.3383 16.5438 50.4157 20.2117L50.1721 20.4562C49.685 20.9453 49.6851 21.4343 49.9286 22.1679C50.4157 23.146 50.9028 24.3686 51.3899 25.5913C52.3641 28.0365 53.3384 30.2373 55.7739 31.7044C56.0174 31.7044 56.0174 31.9489 56.0174 31.9489C57.4788 33.1716 58.94 34.1497 60.1578 35.3723C61.3756 35.3723 61.8626 34.6387 62.3497 34.1497C63.5675 32.927 64.5418 31.7044 65.7595 30.4818C68.4386 27.5475 71.6048 24.6132 73.5532 20.9453C73.3096 20.4562 73.3097 20.2117 72.8225 19.7227C70.8741 17.7665 68.9257 15.8103 66.7337 14.0986C65.0289 12.6314 63.324 11.6533 61.3756 10.4307C61.132 9.94164 60.6449 9.45259 59.9142 8.96354ZM68.6821 10.6752C68.4386 11.4088 68.195 12.1424 67.7079 12.8759C68.195 13.365 68.6821 13.6095 68.9257 13.854C69.8999 13.6095 70.387 12.8759 70.6306 12.1424C70.6306 11.8978 70.6306 11.4088 70.6306 11.1643C70.387 10.6752 69.8999 10.6752 68.6821 10.6752C68.9257 10.1862 68.9257 9.69711 68.4386 9.20806C67.7079 8.47449 66.9773 7.74091 66.2466 7.00733C65.0288 6.02923 63.5675 5.05113 62.3497 4.07302C62.1062 3.8285 61.6191 3.8285 61.3756 3.8285C61.132 5.05113 61.3756 6.27376 61.3756 7.25186C62.1062 7.74091 62.5933 8.47449 63.0804 8.71901C64.0547 9.20806 64.5417 10.1862 65.2724 10.6752C65.516 10.9197 65.516 11.4088 65.7595 11.6533C66.2466 12.1424 66.7337 12.1424 67.2208 11.8978C67.9515 11.4088 68.4386 11.1643 68.6821 10.6752ZM29.4702 12.3869C29.2266 13.1205 28.9831 13.854 28.7395 14.3431C28.496 15.0767 28.0089 15.5657 28.2524 16.5438C28.7395 16.2993 29.2266 16.2993 29.4702 15.8103C30.2008 14.3431 30.9315 12.6314 31.6622 11.1643C31.9058 10.6752 31.9057 10.1862 31.4186 9.94164C30.688 10.9197 30.2008 11.6533 29.4702 12.3869C29.2266 12.1424 29.2267 11.6533 28.9831 11.6533C28.7396 11.6533 28.2525 11.6533 28.0089 11.8978C27.7654 12.1424 27.5218 12.3869 27.5218 12.6314C26.7911 14.0986 25.8169 15.5657 25.0863 17.2774C24.8427 17.5219 24.8427 18.011 24.8427 18.2555C25.8169 18.5 26.0605 18.7446 26.304 18.011C27.0347 16.5438 27.7653 15.3212 28.496 13.854C28.7395 13.1205 28.9831 12.6314 29.4702 12.3869ZM54.5561 10.1862C55.0432 8.47448 55.0432 8.47449 54.3125 7.00733C54.069 7.25186 53.5819 7.49638 53.3384 7.98543C53.0948 8.22996 52.8513 8.71901 52.3642 8.96354C52.8513 10.4307 52.1205 11.8978 52.6077 13.365C53.3383 13.6095 53.3384 13.1205 53.5819 12.8759C53.5819 12.3869 53.5819 11.6533 53.5819 11.1643C53.5819 10.6752 53.8254 10.1862 53.8254 9.20806C54.3125 9.94164 54.5561 9.94164 54.5561 10.1862C54.5561 10.6752 54.5561 10.9197 54.3125 11.4088L54.5561 11.6533L54.7997 11.4088C54.7997 10.9197 54.5561 10.6752 54.5561 10.1862ZM22.6507 16.0548C22.6507 15.5657 22.6507 15.0767 22.6507 14.5876C21.6765 14.3431 20.9459 14.5876 20.4588 15.3212C21.1894 16.2993 21.1894 16.2993 22.6507 16.0548C22.6507 16.0548 22.6507 16.2993 22.6507 16.5438C22.6507 17.0329 22.8943 17.5219 23.3814 17.5219C23.6249 17.5219 24.1121 17.2774 24.1121 17.0329C24.5992 16.0548 25.0863 14.8321 25.5734 13.854C25.5734 13.6095 25.5734 13.365 25.5734 13.1205C24.5992 13.1205 24.3556 13.6095 23.8685 14.0986C23.6249 14.5876 23.1378 15.3212 22.6507 16.0548ZM68.9257 31.9489C69.1692 31.2154 69.4128 30.4818 69.6563 29.5037C68.6821 29.9927 68.6821 29.9927 67.4644 31.4599C66.7337 32.1935 66.0031 33.1716 65.2724 33.9051C64.5417 34.6387 63.8111 35.3723 63.0804 36.1059C62.3498 36.8394 61.6191 37.573 60.6449 38.3066C60.1578 38.0621 59.9143 37.8176 59.4272 37.573C58.453 36.8394 57.7223 36.1059 56.7481 35.6168C55.7739 34.8832 54.5561 34.1497 53.8254 33.1716C53.5819 32.927 53.3383 32.6825 53.0948 32.6825C52.1206 32.1935 51.3899 32.438 50.9028 33.1716C50.6593 33.9051 50.4157 34.6387 49.9286 35.1278C49.4415 34.8832 49.6851 34.6387 49.6851 34.3942C49.6851 34.1497 49.6851 33.9051 49.6851 33.4161C46.2753 34.1497 43.1091 35.1278 40.6736 37.084C39.9429 37.573 39.2123 38.3066 38.9688 39.2847C37.5075 43.4416 35.559 47.5986 33.6106 51.7555C33.6106 51.7555 33.6106 51.7555 33.367 52C33.367 51.2665 33.8542 50.5329 34.0977 50.0438C34.3413 49.3103 34.5848 48.5767 35.0719 48.0876C35.3155 47.354 35.8026 46.6205 36.0461 46.1314C36.2897 45.3978 36.5332 44.6643 36.7767 43.9307C37.0203 43.1971 37.2639 42.4635 37.5074 41.73C37.751 40.9964 37.9945 40.5073 37.9945 39.5292C36.2896 40.5073 34.8284 41.9745 32.88 40.9964C32.1493 41.4854 31.9057 42.4635 31.4186 43.1971C30.688 44.4197 30.4444 46.1314 29.2267 47.1095C29.7138 45.8869 30.2009 44.6643 30.4444 43.1971C30.688 42.4635 31.1751 41.4854 31.4186 40.7519C30.4444 39.7738 29.4702 39.5292 28.2524 39.2847C28.0089 39.2847 27.5218 39.5292 27.2782 39.7738C26.7911 40.2628 26.5476 40.7519 26.304 41.2409C24.8427 44.1752 23.3814 47.354 22.1636 50.5329C22.1636 50.7774 21.9201 50.7774 21.6765 51.0219C21.1894 50.7774 21.433 50.5329 21.433 50.2883C22.8943 46.865 24.5991 43.1971 26.0605 39.7738C26.0605 39.5292 26.0605 39.2847 26.304 38.7957C25.5734 38.3066 24.5992 37.573 23.8685 37.084C23.1378 37.084 22.8943 37.573 22.6507 38.0621C21.6765 40.0183 20.9459 41.9745 19.9716 43.9307C19.7281 44.6643 19.241 45.1533 18.9975 45.8869C18.5103 45.3978 18.7539 45.1533 18.7539 44.9088C19.7281 42.9526 20.4588 40.9964 21.433 39.0402C21.6765 38.5511 21.92 38.0621 22.1636 37.573C22.6507 36.5949 22.6507 35.6168 22.1636 34.6387C21.6765 33.9051 21.433 32.927 21.1894 32.1935C20.9459 31.9489 20.9459 31.7044 20.7023 31.2154C19.9717 31.4599 19.9716 32.1935 19.7281 32.6825C19.241 33.4161 19.241 34.3942 18.5103 34.6387C18.7539 32.927 19.4846 31.4599 20.4588 29.7482C20.2152 28.7701 19.9717 27.792 19.4846 26.3248C19.241 26.5694 18.7539 26.8139 18.7539 27.0584C18.2668 28.0365 18.0232 29.0146 17.5361 29.9927C17.2926 30.2373 17.2926 30.7263 17.0491 30.9708C16.562 30.7263 16.8055 30.4818 16.8055 30.2373C17.2926 28.5256 18.0232 27.0584 18.5103 25.3467C18.7539 24.6132 18.7539 23.6351 18.5103 22.9015C17.7797 20.7008 17.2926 18.2555 16.5619 16.0548C16.5619 15.5657 16.3184 15.0767 16.3184 14.8321C17.5361 13.854 20.7023 11.8978 21.9201 11.6533C24.3556 10.9197 26.7912 9.94164 29.2267 9.20806C31.4187 8.47449 33.3671 7.25186 35.3155 6.51828C36.5333 6.02923 37.5074 5.54018 38.7252 5.05113C40.4301 5.78471 40.9172 7.49638 42.1349 8.71901C43.1091 9.94164 44.3269 10.9197 45.3011 12.1424C46.0317 12.1424 46.5189 11.6533 46.7624 11.4088C48.4673 9.45259 50.4157 7.49638 52.1206 5.54018C52.8512 4.8066 53.5819 3.8285 54.5561 3.33945C55.7739 2.36135 56.9916 1.8723 57.9658 0.405143C58.4529 -0.083908 58.9401 -0.0839078 59.6707 0.160618C61.132 0.894194 62.3498 1.62777 63.8111 2.60587C64.2982 2.8504 64.7853 3.33945 65.2724 3.8285C67.7079 6.02923 70.1435 8.22996 72.579 10.4307C73.7967 11.4088 74.7709 12.6314 75.7451 13.854C75.7451 14.5876 75.7452 15.3212 75.5016 15.8103C74.771 17.5219 75.0145 19.4781 75.0145 21.4343C75.0145 21.9234 75.0145 22.4124 74.5274 22.9015C72.0918 25.1022 70.8741 28.0365 69.1693 30.7263C69.6564 30.7263 69.4128 31.4599 68.9257 31.9489Z" fill="#494949"/>
<path d="M83.2952 54.6897C83.2952 54.9342 83.2952 54.9342 83.2952 54.6897C83.0516 54.9342 83.2952 54.9342 83.2952 54.9342C83.2952 54.9342 83.2952 54.9342 83.2952 54.6897C83.2952 54.9342 83.2952 54.9342 83.2952 54.6897ZM55.7738 52.489C56.2609 52.489 56.5044 52.2444 56.748 52.2444C56.748 52.2444 56.748 51.9999 56.748 51.7554C56.5044 51.5108 56.2609 51.2663 56.0173 51.7554C56.0173 51.7554 56.0173 51.9999 55.7738 52.489ZM57.9657 53.9561C57.4786 53.7116 57.2351 53.7116 56.9915 53.4671L56.748 53.9561C56.9915 54.2006 57.235 54.4452 57.4786 54.4452C57.7221 54.4452 57.9657 54.2006 57.9657 53.9561ZM38.7251 50.7773C39.2122 51.0218 39.6993 51.5108 40.1864 51.7554C40.6735 51.2663 40.6735 51.2663 40.6735 50.5327C39.9428 50.2882 39.4558 50.2882 38.7251 50.7773ZM36.7766 55.6678C36.5331 55.6678 36.5331 55.4233 36.7766 55.6678C36.046 55.1787 35.5589 54.9342 34.8283 55.1787L34.5847 55.6678C35.0718 56.4014 36.046 56.6459 36.5332 55.9123C36.5332 55.9123 36.5331 55.6678 36.7766 55.6678ZM39.2122 52.978C38.4815 52.489 38.4815 52.4889 38.4815 52.7335C38.238 53.7116 37.5073 53.7116 36.7766 53.4671C36.2895 53.4671 36.046 53.7116 36.2896 54.2006C36.7767 54.4452 37.2638 54.4452 37.7509 54.6897C38.238 53.9561 38.7251 53.4671 39.2122 52.978ZM57.7222 49.7992C58.2093 50.2882 58.4528 50.7773 59.1835 51.2663H59.6706C59.9142 51.0218 59.9141 50.7773 59.9141 50.5327C59.427 49.7992 59.1835 49.0656 58.4529 48.5765C58.2093 48.332 57.9657 48.332 57.7222 48.332L57.4786 48.8211C57.4786 49.0656 57.7222 49.3101 57.7222 49.7992ZM32.1492 58.113C32.8798 58.6021 33.6105 58.8466 34.3411 58.6021C34.5847 58.6021 35.0718 58.113 35.0718 57.8685C35.3154 57.3795 34.8282 57.1349 34.5847 56.8904C34.0976 56.6459 33.6105 56.4014 33.1234 56.6459C32.6363 56.8904 32.1492 57.3795 32.1492 58.113ZM28.4959 61.2919C30.2007 61.7809 31.175 61.2919 32.1492 60.8028C32.3927 60.5583 32.8799 60.3138 32.8799 59.8247C32.1492 59.5802 31.175 59.3357 30.2008 59.5802C29.7137 59.8247 29.2265 60.5583 28.4959 61.2919ZM58.6964 47.1094C59.1835 48.0875 59.427 49.0656 60.4013 49.5546C61.3755 48.8211 61.3755 47.843 61.8626 47.1094C61.3755 46.1313 60.8883 45.1532 59.9141 44.6641C59.427 44.9087 59.1835 45.3977 59.4271 45.8868C59.6706 46.3758 59.9142 46.8649 60.4013 47.3539C59.9142 47.3539 59.427 47.3539 58.6964 47.1094ZM44.5704 73.2736C43.109 73.5182 41.8913 74.0072 40.6735 74.2517C40.4299 74.2517 40.1864 74.4963 39.9429 74.4963C39.6993 74.7408 39.6993 74.9853 39.6993 75.2298C39.6993 75.4743 40.1864 75.7189 40.4299 75.7189C40.4299 75.7189 40.6735 75.7189 40.9171 75.7189C41.8913 74.9853 43.109 74.9853 44.3268 74.4963C44.5703 74.4963 44.8139 74.4963 45.0575 74.4963C44.5704 75.7189 43.1091 75.2298 42.3784 75.9634C42.3784 76.2079 42.3784 76.2079 42.622 76.4525H42.8655C44.0832 76.4525 45.5445 75.4744 46.5187 74.4963C45.7881 74.2517 45.301 73.7627 44.5704 73.2736ZM29.4701 63.0035C28.983 64.2262 29.4701 65.2043 30.2008 66.1824C31.6621 67.405 32.8799 68.8722 34.0976 70.3393C35.0718 71.3174 36.046 71.8065 37.5073 71.5619C38.238 71.3174 38.9686 71.0729 39.6993 71.3174C39.2122 72.7846 37.5073 71.5619 37.0202 73.0291C37.5073 74.0072 37.9945 74.2517 38.9687 74.0072C39.9429 73.7627 41.1606 73.5181 42.1348 73.0291C42.3784 73.0291 42.6219 72.7846 42.8655 72.5401C41.8912 71.5619 41.1606 70.5838 40.1864 69.8503C37.7509 67.8941 35.3153 65.9379 33.3669 63.7371C32.6363 63.0035 31.9056 62.759 30.9314 63.0035C30.6879 62.759 30.2007 63.0035 29.4701 63.0035ZM66.7336 46.6203L66.4901 46.8649C66.2465 46.6203 66.2465 46.6203 66.0029 46.3758C65.7594 45.6422 65.5159 44.9087 65.2723 43.9306C64.7852 42.4634 64.5416 42.4634 62.5932 42.7079C62.5932 43.9306 63.3239 44.9087 63.811 45.8868C64.2981 47.1094 65.0288 47.5984 66.4901 47.5984C68.1949 47.3539 69.6562 47.5984 71.3611 48.0875C73.7966 49.0656 76.2322 49.0656 78.9113 49.3101C79.1548 49.3101 79.3983 49.3101 79.6419 49.0656C79.3983 47.3539 78.9112 45.8868 78.4241 44.4196C78.4241 44.1751 77.937 44.1751 77.6935 44.1751C77.4499 44.1751 77.2064 44.4196 77.2064 44.6641C77.2064 45.1532 77.2064 45.8868 77.2064 46.3758C76.4757 46.1313 76.7193 45.6422 76.4757 45.1532C76.4757 44.6641 76.2321 44.1751 75.9886 43.686C75.0144 43.4415 74.0402 42.9525 73.066 43.197C72.3354 43.686 73.066 44.4196 72.0917 44.9087C71.8482 44.4196 71.8482 44.1751 71.8482 43.9306C71.8482 43.686 71.6047 43.4415 71.3611 43.197C71.1176 42.9525 70.874 42.9525 70.874 42.9525C70.6304 42.9525 70.3869 43.197 70.3869 43.4415C70.3869 44.1751 70.3869 44.6641 70.3869 45.3977C69.8998 44.9087 69.8998 44.1751 69.6562 43.4415C69.6562 42.9525 69.4127 42.7079 68.9256 42.7079C68.4385 42.7079 68.4385 43.197 68.4385 43.4415C68.4385 43.9306 68.682 44.6641 68.4385 45.6422C68.1949 44.4196 67.9514 43.686 67.7078 43.197C67.4643 42.7079 66.9772 42.4634 66.7336 42.4634C66.2465 42.7079 66.2465 43.197 66.2465 43.686C66.2465 43.9306 66.2465 44.1751 66.4901 44.6641C66.4901 45.6422 66.4901 46.1313 66.7336 46.6203ZM59.4271 65.2043C60.1577 66.1824 61.1319 66.4269 61.8626 66.6714C65.2723 67.405 68.4385 68.1386 71.8482 68.8722C72.5789 69.1167 73.5531 68.8722 74.2838 69.1167C76.2322 66.1824 77.2064 62.759 78.6677 59.5802C79.3983 57.624 79.8855 55.6678 80.3726 53.4671C80.3726 53.2225 80.3726 52.7335 80.3726 52.2444C80.129 51.9999 79.8854 51.9999 79.6419 51.7554C76.4757 50.7773 73.066 50.0437 69.8998 49.3101C68.9256 49.0656 67.7078 49.0656 66.4901 49.0656C65.2723 49.0656 64.0546 49.3101 63.0803 49.5546C61.619 51.7554 60.1577 55.1787 59.9141 57.1349C60.6448 57.624 61.619 58.113 62.5932 58.6021C62.5932 59.5802 62.1061 60.3138 61.3755 61.0473C60.4012 62.5145 59.6706 63.9817 59.4271 65.2043ZM48.4672 74.2517C51.1463 73.0291 52.364 70.8284 54.0689 69.1167C56.2608 66.6714 58.4528 64.2262 59.9141 60.8028C59.1835 59.0911 57.9657 57.8685 56.5044 56.6459C55.7737 56.1568 54.7995 55.4233 54.0689 54.6897C52.8511 53.7116 51.6334 52.4889 50.4156 51.5108C49.4414 50.7773 48.4672 49.7992 47.493 49.0656C47.2495 48.8211 46.7623 48.5765 46.5187 48.332C45.5445 48.8211 45.0575 49.3101 44.5704 50.0437C44.0832 50.7773 43.3526 51.5108 42.8655 51.9999C41.4041 53.7116 39.6993 55.4233 38.238 57.1349C37.5073 58.113 36.5331 59.0911 35.8025 60.0692C35.0718 60.8028 35.3153 61.5364 35.8025 62.27C36.5331 63.0036 37.0203 63.7371 37.7509 64.4707C39.4558 65.9379 41.1606 67.1605 43.109 68.6276C43.8397 69.1167 44.5704 69.8503 45.0575 70.3393C45.7881 71.8065 47.2494 73.0291 48.4672 74.2517ZM64.7852 71.0729C64.7852 70.8284 64.5417 70.5838 64.2981 70.5838C63.5675 70.3393 62.8368 70.0948 62.1062 69.8503C61.3755 69.6057 60.8883 69.6057 60.1577 69.6057C59.427 69.6057 59.427 68.8722 58.6964 68.8722C58.2093 68.8722 57.4786 68.6276 56.9915 68.6276C56.748 69.1167 56.2609 69.3612 56.0173 69.8503C54.3125 72.051 52.6076 74.0072 50.9027 76.2079C49.1979 78.1641 47.0059 78.8977 44.5704 79.1422C43.8397 79.1422 43.3526 79.1422 42.622 79.6313C42.1349 80.1203 41.4042 79.8758 40.9171 79.6313C39.2122 78.1641 37.5073 77.186 36.046 75.4743C34.8283 73.7627 33.1234 72.2955 32.1492 70.5838C31.9056 70.0948 31.175 69.6057 30.4443 70.3393C30.4443 68.8722 30.4443 68.8722 29.7136 67.8941C28.4959 66.916 27.2781 65.6933 26.3039 64.7152C26.0604 64.4707 25.8168 64.2262 25.5733 63.9817C25.3297 62.5145 25.8168 61.5364 26.7911 60.8028C30.2008 57.624 33.6105 54.4452 36.2896 50.7773C37.7509 48.8211 39.2122 46.6203 40.1864 44.1751C40.9171 42.2189 41.8913 40.5072 42.622 38.551C42.8655 38.0619 43.1091 37.5729 43.5962 37.3284C43.8397 38.0619 43.3526 38.551 43.109 39.2846C42.1348 41.4853 41.1606 43.9306 40.1864 46.1313C40.1864 46.3758 40.1864 46.6203 39.9429 47.1094C40.1864 47.1094 40.4299 47.1094 40.6735 47.1094C41.8913 48.0875 43.3526 47.5984 44.5704 47.3539C45.5446 47.1094 46.5188 47.1094 47.2494 47.5984C48.9543 48.8211 50.6592 49.7992 52.3641 50.7773C52.8512 51.0218 53.3382 51.2663 53.8253 51.5108C54.3124 50.7773 54.556 50.0437 55.0431 49.3101C56.2608 47.1094 57.4786 44.6641 58.6964 42.4634C59.1835 41.7298 59.9142 41.2408 60.4013 40.7517C61.619 41.4853 63.0803 41.2408 64.2981 41.2408C65.5159 41.2408 66.9771 41.2408 68.4385 41.2408C69.1691 41.2408 69.6563 41.2408 70.3869 40.9963C70.6305 40.9963 70.874 40.9963 71.1175 40.9963C72.5789 41.7298 74.0402 41.4853 75.5015 41.7298C76.9628 41.7298 78.6677 42.4634 79.6419 43.4415C79.8854 43.686 80.129 44.1751 80.129 44.6641C80.6161 46.6203 81.8339 48.0875 82.8081 49.7992C82.8081 50.0437 83.2952 50.0437 83.5387 50.0437C84.0258 49.5546 84.513 48.8211 85.0001 48.0875C85.0001 49.5546 84.0259 50.0437 84.0259 51.0218C83.7823 51.9999 83.7823 52.7335 83.5387 53.7116C84.0258 53.9561 84.2694 54.4452 84.7565 54.6897C84.7565 54.9342 84.7565 55.1787 84.5129 55.1787C83.7823 55.6678 83.2952 56.4014 83.2952 57.3795C83.2952 57.8685 83.0517 58.3576 82.8081 59.0911C82.321 58.3576 82.0774 57.8685 81.8338 57.624C81.5903 57.624 81.5903 57.624 81.3468 57.8685C81.1032 58.6021 80.6161 59.0911 80.3726 59.8247C79.6419 62.0254 78.6677 64.2262 77.9371 66.4269C77.6935 67.1605 77.2064 68.1386 76.7193 68.8722C76.4757 69.3612 75.9886 70.0948 75.745 70.5838C75.5015 72.051 74.5273 72.7846 73.066 73.5181C72.8225 73.0291 72.3354 72.7846 71.8482 72.5401C70.3869 72.051 68.6821 71.8065 66.9772 71.5619C66.7337 71.5619 66.49 71.5619 66.0029 71.8065C66.49 70.8284 65.7594 70.3393 64.7852 71.0729Z" fill="#494949"/>
<path d="M67.2209 81.5876C67.4644 81.5876 67.4645 81.5876 67.708 81.5876C67.9516 81.0985 67.9516 80.854 67.9516 80.3649C67.9516 80.1204 67.708 80.1204 67.708 79.8759C67.4645 79.8759 67.2209 80.1204 67.2209 80.1204C67.2209 80.854 67.2209 81.343 67.2209 81.5876ZM72.5791 83.5438C71.8484 84.2773 71.8484 85.0109 71.8484 85.989C71.8484 86.2336 72.092 86.4781 72.3355 86.9671C73.0662 85.7445 73.0662 84.7664 72.5791 83.5438ZM44.0834 95.0365C43.8399 92.5912 43.5964 91.8576 42.6222 90.3905C42.3786 91.8576 42.6221 92.3467 44.0834 95.0365ZM45.7883 86.9671C45.5448 87.2116 45.5447 87.2116 45.5447 87.4562C45.7883 88.6788 46.2754 89.9014 46.5189 91.1241C46.5189 91.1241 46.7625 91.3686 47.0061 91.3686C47.2496 91.3686 47.2496 91.1241 47.2496 91.1241C47.2496 91.1241 47.4932 90.8795 47.4932 90.635C47.2496 89.1679 46.7625 87.9452 45.7883 86.9671ZM69.4129 84.7664C69.6565 83.7883 69.6564 82.8102 69.9 81.8321C69.9 81.5876 69.6565 81.343 69.4129 81.343C69.1694 81.343 68.9258 81.5876 68.6822 81.8321C68.6822 81.8321 68.6822 82.0766 68.4387 82.3211C68.4387 83.0547 68.1952 83.7883 68.1952 84.7664C68.4387 84.7664 68.9258 84.7664 69.4129 84.7664ZM70.8742 85.7445C70.8742 85.5 71.1177 85.5 70.8742 85.7445C71.3613 84.5219 71.6049 83.2992 71.6049 82.3211C71.6049 82.0766 71.3613 81.8321 71.1177 81.8321C70.8742 81.8321 70.6307 82.0766 70.3871 82.3211C69.9 83.2992 70.1436 84.5219 70.3871 85.5C70.3871 85.5 70.6306 85.5 70.8742 85.7445ZM47.9803 89.1679C48.4674 89.1679 48.711 88.6788 48.711 88.4343C48.711 87.4562 48.4674 86.4781 47.9803 85.5C47.9803 85.2554 47.4932 85.0109 47.2496 85.2554C46.7625 85.2554 46.5189 85.7445 46.7625 85.989C47.0061 86.9671 47.4931 87.9452 47.7367 88.9233C47.7367 88.9233 47.9803 88.9233 47.9803 89.1679ZM44.0834 88.1897C43.5963 90.146 43.8399 91.6131 44.5705 92.8357C44.5705 93.0803 45.0577 93.0803 45.0577 93.0803C45.3012 93.0803 45.3012 92.8357 45.5447 92.5912C45.5447 92.5912 45.7883 92.3467 45.5447 92.1022C45.7883 90.8795 45.3012 89.6569 44.0834 88.1897ZM49.9287 81.8321C48.9545 82.5657 48.4674 83.0547 48.4674 83.7883C48.7109 84.7664 48.9545 85.7445 49.198 86.7226C49.4416 87.2117 49.9287 87.2116 50.1722 86.9671C50.4158 86.7226 50.6594 86.2335 50.6594 85.7445C50.4158 84.7664 50.1723 83.5438 49.9287 81.8321ZM52.1207 79.1423C51.39 79.8759 50.9029 80.3649 50.4158 81.0985C50.9029 82.3211 50.4158 84.0328 51.6335 85.0109C51.8771 84.7664 52.1207 84.2773 52.1207 84.0328C52.1207 83.2992 51.8771 82.3211 51.6335 81.5876C51.6335 81.343 51.6336 81.0985 51.8771 80.6095C52.6078 81.343 52.3642 82.5657 53.3384 83.0547C54.5562 82.5657 55.0433 81.5876 55.0433 80.3649C55.0433 79.1423 55.0433 78.1642 55.0433 76.9416C55.0433 76.6971 54.7998 76.4525 54.7998 76.208C52.8514 77.1861 52.6078 77.6752 53.0949 79.8759V80.1204C52.8513 79.8759 52.6078 79.6314 52.1207 79.1423ZM62.3498 107.263C62.8369 106.529 63.3241 105.796 63.8112 105.307C66.4902 101.394 68.6822 97.2372 71.6049 93.3248C72.3355 92.5912 72.8226 91.6131 72.5791 90.3905C72.092 90.146 71.6048 89.9014 71.1177 89.6569C68.9258 88.9233 66.9774 87.7007 65.2725 86.2335C63.3241 84.5219 60.8885 83.2992 58.6966 82.0766C58.453 81.8321 57.9659 81.8321 57.7224 81.5876C57.4788 81.8321 57.2353 81.8321 57.2353 81.8321C53.3385 86.7226 49.6851 92.1022 45.5447 96.9927C45.5447 96.9927 45.5447 97.2372 45.3012 97.4817C45.3012 98.4598 46.2754 98.7043 47.0061 99.1934C50.9029 101.394 55.0433 103.595 58.9401 105.796C59.9143 106.285 61.1321 106.774 62.3498 107.263ZM63.3241 79.1423C63.3241 80.1204 63.5676 81.0985 63.5676 82.0766C64.2983 82.5657 65.0289 83.2992 66.2467 83.0547C66.2467 82.0766 66.2467 81.0985 66.2467 80.1204C66.2467 79.6314 66.0032 79.1423 65.5161 78.8978C65.029 78.6533 64.5418 78.4087 64.0547 78.1642C64.0547 78.4087 63.5677 78.8978 63.3241 79.1423C63.3241 78.6532 63.0805 78.1642 63.0805 77.6752C62.3499 77.1861 61.6192 76.9416 60.8886 76.4525C60.1579 75.9635 59.4272 75.4744 58.6966 75.7189C58.453 75.7189 58.2095 75.4744 58.2095 75.2299C57.9659 74.9854 57.7223 74.7408 57.4788 74.9854C57.2352 75.9635 57.4788 77.1861 57.7224 78.1642C57.7224 78.6533 57.966 78.8978 58.4531 79.3868C59.1837 80.1204 61.3757 81.0985 62.837 81.343C62.837 80.6095 63.0806 79.8759 63.3241 79.1423ZM50.1722 107.263C50.1722 107.018 50.1722 106.529 50.4158 106.285C50.6593 105.551 51.1464 105.062 51.39 104.328C51.39 103.595 50.6593 103.595 50.1722 103.35C48.2238 102.372 46.519 101.394 44.5705 100.416C43.3528 99.6825 42.6221 98.9489 42.3786 97.4817C42.135 96.2591 41.6479 95.0365 41.1608 93.8138C40.9173 93.3248 40.6737 92.5912 40.6737 92.1022C40.1866 90.635 40.4301 89.4124 41.6479 88.4343C42.6221 87.7007 43.5963 86.4781 44.327 85.5C45.7883 83.7883 47.2496 82.0766 48.711 80.3649C50.1723 78.6532 51.6335 76.9416 52.8513 75.2299C53.0949 74.9854 53.3385 74.4963 53.582 74.2518C55.0433 72.5401 56.0175 72.2956 57.9659 73.0292C58.453 73.2737 58.9402 73.0292 59.4273 72.7846C59.4273 73.5182 59.6708 74.0073 60.4015 74.2518C61.1321 74.4963 61.8627 74.4963 62.5934 74.0073C62.5934 74.7408 62.5935 75.2299 63.3241 75.2299C63.8112 75.4744 64.2983 74.9854 64.5419 74.4963C65.029 73.7627 65.2725 73.0292 65.7596 72.2956C66.0032 72.0511 66.2467 71.8065 66.4903 71.562C66.2467 72.2956 65.7596 73.0292 65.5161 73.7627C65.2725 74.2518 64.7854 74.9854 65.0289 75.9635C66.4902 76.697 67.9515 77.6751 69.6564 78.4087C70.1435 78.6533 70.6306 78.4087 70.8742 77.6752C70.8742 78.8978 71.6049 79.6314 72.5791 80.1204C73.3097 80.3649 74.0404 80.6095 74.771 80.854C73.3097 83.0547 73.7969 85.5 74.284 87.7007C74.5275 88.6788 74.0404 89.4124 74.284 90.146C74.5275 91.1241 74.0404 91.6131 73.7968 92.3467C71.3613 97.4817 68.4387 102.128 65.5161 107.018C64.5419 108.485 63.8112 110.197 62.3498 111.42C62.1063 111.175 61.8628 110.442 61.6192 110.442C60.645 109.953 59.6708 109.219 58.6966 108.974C57.2352 108.485 55.774 107.752 54.5562 106.774C53.8256 106.04 52.8513 105.551 51.8771 105.062C51.6336 105.307 51.39 105.796 51.1465 106.04C50.9029 106.285 50.9029 107.018 50.1722 107.263Z" fill="#494949"/>
<path d="M32.1489 85.255C32.636 83.0543 34.3409 79.3864 36.0458 77.4302L36.2893 77.6747C35.5587 79.3864 33.1231 83.7878 32.1489 85.255Z" fill="#494949"/>
<path d="M25.0863 49.31C24.8427 48.3319 25.0863 47.8428 25.5734 47.3538C26.5476 45.6421 26.7912 43.6859 28.0089 42.2188C28.2525 42.4633 28.2524 42.7078 28.2524 42.7078C27.5218 44.9085 26.304 47.1093 25.0863 49.31Z" fill="#494949"/>
<path d="M18.9972 48.0874C18.023 50.5327 17.0488 52.7334 16.0745 55.1787C15.831 54.9342 15.8311 54.6896 15.8311 54.6896C16.3182 53.2225 17.0488 51.7553 17.5359 50.0436C17.7794 49.3101 18.2665 48.5765 18.5101 47.5984C18.7536 47.8429 18.7537 47.8429 18.9972 48.0874Z" fill="#494949"/>
<path d="M46.5186 44.1751C46.7621 41.9744 47.9799 39.7737 48.7106 37.5729C48.7106 37.3284 48.9541 37.0839 49.1976 36.8394C48.7105 38.7956 47.2492 42.708 46.5186 44.1751Z" fill="#494949"/>
<path d="M76.7192 105.551C76.9628 106.04 76.7192 106.529 76.4756 106.773C75.5014 108.485 74.5272 110.197 73.3094 111.908C73.3094 111.908 73.0659 111.908 73.0659 112.153V111.908C74.0401 110.197 75.0143 108.241 75.9885 106.529C76.2321 106.284 76.4757 106.04 76.7192 105.551Z" fill="#494949"/>
<path d="M1.94839 15.321C1.94839 17.5218 0.97421 19.2335 0 21.1897C0.730657 19.2335 1.46128 17.2772 1.94839 15.321Z" fill="#494949"/>
<path d="M4.87109 16.788C5.3582 15.3209 6.08881 13.8537 6.57592 12.6311C6.57592 13.3647 6.33241 14.0983 6.08886 14.8318C5.8453 15.5654 5.60169 16.299 5.11459 17.0326C5.11459 16.788 5.11465 16.788 4.87109 16.788Z" fill="#494949"/>
<path d="M76.4758 23.8793C75.9887 25.3464 75.258 26.8136 74.5273 28.5253C74.5273 27.0581 74.5274 27.0581 75.0145 25.8355C75.258 25.1019 75.7451 24.3683 75.9887 23.6348C76.2322 23.6348 76.2323 23.8793 76.4758 23.8793Z" fill="#494949"/>
<path d="M71.6045 34.3942C71.6045 33.9051 71.6045 33.4161 71.8481 33.1715C72.3352 31.9489 72.8222 30.9708 73.5529 29.5037C73.5529 30.9708 73.5529 30.9708 71.6045 34.3942Z" fill="#494949"/>
<path d="M18.7536 34.8831C18.9972 36.5947 18.023 37.8174 17.0488 39.2845C17.0488 38.5509 17.5359 37.8174 17.7795 37.0838C18.2666 36.3502 18.5101 35.6166 18.7536 34.8831C18.9972 34.8831 18.7536 34.8831 18.7536 34.8831Z" fill="#494949"/>
<path d="M65.272 116.799C65.7591 115.087 66.4897 113.62 67.4639 112.153C67.2204 114.109 66.2462 115.332 65.272 116.799Z" fill="#494949"/>
<path d="M47.98 111.419C48.2235 109.952 48.9542 108.485 50.1719 107.507C49.6848 108.974 48.9542 110.197 47.98 111.419Z" fill="#494949"/>
<path d="M14.6134 37.5725C14.3699 38.3061 13.8827 39.0397 13.6392 40.0178C13.6392 39.0397 13.8828 38.3061 14.6134 37.5725Z" fill="#494949"/>
<path d="M8.76781 15.321C8.2807 14.0983 9.25496 13.1202 9.49851 11.6531C9.49851 13.1202 9.49846 13.1202 8.76781 15.321Z" fill="#494949"/>
<path d="M70.3866 35.6167C70.3866 36.8393 69.8995 37.5729 69.1689 38.3065C68.9253 37.3284 69.1689 37.0839 70.3866 35.6167Z" fill="#494949"/>
<path d="M30.4438 78.6531C30.6874 77.4305 30.931 76.4524 31.6616 75.2297C31.6616 76.6969 31.4181 77.1859 30.4438 78.6531Z" fill="#494949"/>
<path d="M13.8824 28.0364C13.6388 28.77 13.3953 29.5035 13.1518 30.2371H12.9082C13.1518 29.5035 13.3953 28.77 13.6388 28.0364C13.8824 28.0364 13.8824 28.0364 13.8824 28.0364Z" fill="#494949"/>
<path d="M76.9629 28.281C76.9629 29.2591 76.2322 29.9927 75.7451 31.2153C75.9887 29.7482 75.9887 29.7482 76.9629 28.281C77.2064 28.281 76.9629 28.281 76.9629 28.281Z" fill="#494949"/>
<path d="M46.7622 106.773C47.0058 106.04 47.4929 105.062 47.98 103.839C47.98 105.551 47.98 105.551 46.7622 106.773Z" fill="#494949"/>
<path d="M46.0312 36.8394C45.5441 37.5729 45.3006 38.3065 44.8135 39.0401C44.8135 37.8175 45.057 37.3284 46.0312 36.8394Z" fill="#494949"/>
<path d="M47.98 111.175C47.98 112.153 47.4929 113.131 46.7622 113.865C46.7622 112.887 47.2493 111.909 47.98 111.175Z" fill="#494949"/>
<path d="M30.2003 78.6528C30.2003 79.3864 29.7132 80.12 29.2261 80.609C29.4696 79.8755 29.4696 79.1419 30.2003 78.6528C30.4438 78.6528 30.2003 78.6528 30.2003 78.6528Z" fill="#494949"/>
<path d="M35.3149 84.7661C35.5585 84.277 35.802 83.788 36.0456 83.5435C36.5327 83.788 36.2891 84.0325 36.0456 84.277C36.0456 84.5216 35.802 84.7661 35.5584 85.0106C35.5584 84.7661 35.5585 84.7661 35.3149 84.7661Z" fill="#494949"/>
<path d="M43.8395 40.9963C43.8395 41.7299 43.3523 42.219 42.8652 43.1971C43.1088 41.7299 43.1088 41.7299 43.8395 40.9963Z" fill="#494949"/>
<path d="M29.2263 47.1094C28.9828 47.843 28.7392 48.332 28.4956 49.0656C28.7392 47.8429 28.7392 47.843 29.2263 47.1094C29.4699 47.1094 29.2263 47.1094 29.2263 47.1094Z" fill="#494949"/>
<path d="M15.1001 42.9526C15.3437 43.6862 14.8566 44.4198 14.3695 45.1534C14.1259 44.1753 14.613 43.6862 15.1001 42.9526Z" fill="#494949"/>
<path d="M15.3438 35.372C15.5873 34.883 15.8309 34.6385 15.8309 34.1494C15.8309 34.1494 16.0744 34.1494 16.0744 34.3939C15.8308 34.883 15.5873 35.1275 15.3438 35.6166C15.5873 35.6166 15.3438 35.372 15.3438 35.372Z" fill="#494949"/>
<path d="M65.272 116.799C65.0285 117.533 64.785 118.266 64.2979 118.755C64.2979 118.022 64.5414 117.288 65.272 116.799Z" fill="#494949"/>
<path d="M10.4727 51.9996C10.7162 51.5106 10.9597 51.266 11.2033 50.5325C11.4468 51.266 11.2033 51.7551 10.9598 51.9996C10.7162 52.2442 10.4727 51.9996 10.4727 51.9996Z" fill="#494949"/>
<path d="M2.92307 7.49634C2.92307 7.98539 2.6795 8.47444 2.6795 8.96349C2.43595 8.22991 2.43597 8.22991 2.92307 7.49634Z" fill="#494949"/>
<path d="M23.381 2.11621C23.1374 2.60526 23.1374 2.84979 22.8939 3.09431C22.6503 2.60526 22.8938 2.36074 23.381 2.11621Z" fill="#494949"/>
<path d="M46.2751 107.996C46.2751 108.485 46.0316 108.974 46.0316 109.463C45.788 108.73 45.788 108.73 46.2751 107.996Z" fill="#494949"/>
<path d="M46.5187 113.865C46.2752 114.354 46.0316 114.843 45.7881 115.577C46.0316 114.354 46.0316 114.354 46.5187 113.865C46.7623 113.865 46.5187 113.865 46.5187 113.865Z" fill="#494949"/>
<path d="M49.6849 116.799C49.6849 117.288 49.4413 117.777 49.4413 118.266H49.1978C49.4413 117.777 49.6849 117.288 49.6849 116.799Z" fill="#494949"/>
<path d="M61.6187 113.131C61.8622 112.398 62.1058 111.664 62.8364 111.175C62.3493 111.909 62.1058 112.642 61.6187 113.131Z" fill="#494949"/>
<path d="M61.3752 113.131C61.1317 113.62 61.1317 114.109 60.8882 114.598C60.8882 113.865 61.1317 113.376 61.3752 113.131C61.6188 113.131 61.3752 113.131 61.3752 113.131Z" fill="#494949"/>
<path d="M67.4644 112.398C67.4644 111.909 67.7079 111.42 68.4386 110.686C68.195 111.664 67.9515 111.909 67.4644 112.398Z" fill="#494949"/>
<path d="M11.6908 43.6859C11.4472 43.1968 11.6908 42.9523 12.1779 42.7078C11.9343 43.1968 11.9343 43.4413 11.6908 43.6859Z" fill="#494949"/>
<path d="M15.1006 42.9522C15.3441 42.4631 15.5877 41.9741 15.8313 41.2405C15.5877 42.4631 15.5877 42.4631 15.1006 42.9522Z" fill="#494949"/>
<path d="M54.3123 36.1057C54.5559 36.5948 54.3123 36.8393 53.8252 37.0838C54.0687 36.5948 54.0688 36.3502 54.3123 36.1057Z" fill="#494949"/>
<path d="M51.1463 42.7081C50.9028 42.219 51.1462 41.9745 51.3898 41.73C51.3898 42.219 51.3899 42.219 51.1463 42.7081Z" fill="#494949"/>
<path d="M28.0083 83.2992C28.0083 83.0547 28.2518 82.8102 28.2518 82.5657H28.4954V82.8102C28.4954 83.0547 28.2518 83.2993 28.2518 83.5438C28.0082 83.2993 28.0083 83.2992 28.0083 83.2992Z" fill="#494949"/>
<path d="M34.5842 86.4775C34.8278 86.9666 34.5843 87.2111 34.0972 87.4557C34.3407 86.9666 34.3407 86.7221 34.5842 86.4775Z" fill="#494949"/>
<path d="M72.5786 75.719C72.8222 74.9855 72.8221 74.0074 73.5528 73.5183C73.3093 74.0074 73.0657 74.7409 72.5786 75.719Z" fill="#494949"/>
<path d="M15.1003 24.3684C15.1003 24.613 14.8568 24.613 14.8568 24.8575C14.8568 24.8575 14.8568 24.8575 14.6133 24.8575C14.8568 24.613 14.8568 24.3684 15.1003 24.3684C15.1003 24.1239 15.1003 24.3684 15.1003 24.3684Z" fill="#494949"/>
<path d="M65.7592 39.0397C65.5156 39.0397 65.5156 39.0397 65.5156 38.7952C65.5156 38.5507 65.7592 38.3062 65.7592 38.3062H66.0027C65.7591 38.7952 65.7592 38.7952 65.7592 39.0397Z" fill="#494949"/>
<path d="M32.8796 73.2734C32.6361 73.518 32.636 73.7625 32.3925 73.7625H32.1489C32.1489 73.518 32.1489 73.2734 32.3925 73.2734C32.3925 73.2734 32.6361 73.2734 32.8796 73.2734Z" fill="#494949"/>
<path d="M13.3954 46.8645C13.1519 47.1091 13.1519 46.8645 13.1519 46.8645C13.1519 46.8645 13.1519 46.62 13.3954 46.8645C13.3954 46.62 13.3954 46.8645 13.3954 46.8645Z" fill="#494949"/>
<path d="M12.4212 48.8211C12.1777 48.8211 12.1777 48.8211 12.4212 48.8211C12.1777 49.0656 12.1777 48.8211 12.1777 48.8211C12.1777 48.8211 12.1777 48.5766 12.4212 48.8211C12.1777 48.5766 12.1777 48.8211 12.4212 48.8211Z" fill="#494949"/>
<path d="M43.596 37.0838C43.8396 36.8393 43.8395 36.5948 44.0831 36.1057C44.0831 36.8393 43.8396 36.8393 43.596 37.0838C43.3525 37.0838 43.596 37.0838 43.596 37.0838Z" fill="#494949"/>
<path d="M23.625 51.7552C23.625 51.5106 23.625 51.5106 23.625 51.2661H23.8686C23.8686 51.5106 23.625 51.7552 23.625 51.7552Z" fill="#494949"/>
<path d="M27.2778 51.0215C27.2778 51.0215 27.2778 50.777 27.2778 51.0215C27.2778 50.777 27.5214 50.777 27.2778 51.0215C27.5214 51.0215 27.5214 51.0215 27.2778 51.0215C27.5214 51.0215 27.2778 51.0215 27.2778 51.0215Z" fill="#494949"/>
<path d="M42.1346 44.6641C42.1346 44.6641 42.1346 44.9086 41.891 44.9086L41.6475 44.6641C41.6475 44.6641 41.891 44.6641 42.1346 44.6641C41.891 44.6641 41.891 44.6641 42.1346 44.6641Z" fill="#494949"/>
<path d="M52.3637 39.7737C52.6072 39.7737 52.6072 39.7737 52.3637 39.7737C52.6072 40.0182 52.3637 40.0182 52.3637 40.2627C52.3637 40.2627 52.3637 40.2627 52.1201 40.2627C52.3637 40.0182 52.3637 40.0182 52.3637 39.7737Z" fill="#494949"/>
<path d="M68.9256 31.949C68.6821 32.1935 68.682 32.438 68.4385 32.6826C68.4385 32.438 68.6821 32.1935 68.9256 31.949Z" fill="#494949"/>
<path d="M46.2752 44.1753C46.2752 44.4198 46.0316 44.9089 45.7881 45.3979C45.5445 44.6643 46.0316 44.4198 46.2752 44.1753C46.5187 44.1753 46.2752 44.1753 46.2752 44.1753Z" fill="#494949"/>
<path d="M70.6304 35.8612C70.6304 35.1276 71.1175 34.8831 71.6046 34.394C71.1175 34.8831 70.8739 35.3721 70.6304 35.8612Z" fill="#494949"/>
<path d="M52.6073 111.909V112.153L52.3638 111.909C52.3638 112.153 52.3637 111.909 52.6073 111.909Z" fill="#494949"/>
<path d="M51.6331 114.109C51.6331 114.109 51.633 114.354 51.3895 114.354H51.146C51.3896 114.109 51.3895 114.109 51.6331 114.109C51.3895 113.865 51.6331 113.865 51.6331 114.109Z" fill="#494949"/>
<path d="M49.9281 116.799C50.1716 116.554 50.1716 116.31 50.4151 116.065L50.6587 116.31C50.1716 116.31 49.9281 116.554 49.9281 116.799C49.6845 116.799 49.9281 116.799 49.9281 116.799Z" fill="#494949"/>
<path d="M71.1177 115.332C71.3612 115.332 71.3612 115.332 71.1177 115.332C71.3612 115.332 71.3612 115.576 71.1177 115.332C71.3612 115.576 71.1177 115.576 71.1177 115.332C71.1177 115.576 71.1177 115.332 71.1177 115.332Z" fill="#494949"/>
<path d="M69.1689 119C69.1689 118.267 69.4125 118.022 69.8996 117.533C69.8996 118.267 69.656 118.511 69.1689 119Z" fill="#494949"/>
<path d="M72.8223 118.265C72.8223 118.265 73.0658 118.023 72.8223 118.265C73.0658 118.023 73.0658 118.265 73.0658 118.265C73.0658 118.265 73.0658 118.265 72.8223 118.265Z" fill="#494949"/>
<path d="M74.5273 118.755C74.5273 118.51 74.5273 118.51 74.5273 118.755C74.5273 118.51 74.5273 118.51 74.5273 118.755C74.7709 118.51 74.7709 118.51 74.5273 118.755Z" fill="#494949"/>
<path d="M2.92285 7.49589C3.1664 7.25137 3.1664 7.25137 2.92285 7.49589C3.1664 7.25137 3.1664 7.25137 2.92285 7.49589Z" fill="#494949"/>
<path d="M12.1777 10.1857C12.1777 9.9412 12.1777 9.9412 12.1777 9.69667L12.4212 9.45215V9.69667C12.4212 10.1857 12.4213 10.1857 12.1777 10.1857Z" fill="#494949"/>
<path d="M12.1777 10.1858C12.1777 10.4303 12.1777 10.4303 12.1777 10.6748L11.9341 10.9194C11.9341 10.6748 11.9341 10.6748 11.9341 10.6748C11.9341 10.4303 12.1777 10.4303 12.1777 10.1858Z" fill="#494949"/>
<path d="M8.76791 15.321C8.76791 15.5656 8.76791 15.5656 8.76791 15.8101C8.76791 15.8101 8.76797 15.8101 8.52441 16.0546V15.8101C8.52441 15.5656 8.52435 15.5656 8.76791 15.321Z" fill="#494949"/>
<path d="M10.2294 15.5652C10.2294 15.8097 9.98584 15.8097 9.98584 15.5652C9.98584 15.5652 9.98585 15.5652 10.2294 15.5652C10.2294 15.3207 10.2294 15.5652 10.2294 15.5652Z" fill="#494949"/>
<path d="M3.65332 19.9672C3.89687 19.9672 3.89681 19.7227 3.89681 19.7227C3.89681 19.7227 3.89687 19.7227 3.65332 19.9672Z" fill="#494949"/>
<path d="M9.49845 17.2773C9.49845 17.5219 9.49845 17.5219 9.49845 17.2773C9.2549 17.5219 9.25488 17.2773 9.25488 17.2773C9.49844 17.2773 9.49845 17.2773 9.49845 17.2773Z" fill="#494949"/>
<path d="M3.65332 19.9668L3.89681 20.2113V20.4559V20.2113C3.65326 20.2113 3.65332 19.9668 3.65332 19.9668Z" fill="#494949"/>
<path d="M8.52433 40.9963C8.52433 41.2409 8.52433 41.2409 8.52433 40.9963C8.76788 41.2409 8.76788 41.2409 8.52433 41.4854H8.28076C8.28076 41.2409 8.28078 41.2409 8.52433 40.9963Z" fill="#494949"/>
<path d="M43.8394 40.9964C43.8394 40.7519 43.8394 40.5073 43.8394 40.5073H44.0829V40.7519C44.0829 40.7519 43.8394 40.7519 43.8394 40.9964Z" fill="#494949"/>
<path d="M50.4153 44.4198C50.4153 44.4198 50.4153 44.6643 50.1717 44.6643L49.9282 44.4198V44.1753C50.1718 44.1753 50.4153 44.4198 50.4153 44.4198Z" fill="#494949"/>
<path d="M37.2636 81.8317H37.02V81.5872L37.2636 81.8317Z" fill="#494949"/>
<path d="M46.762 106.773C47.0055 107.262 46.762 107.752 46.2749 107.996C46.5185 107.507 46.762 107.262 46.762 106.773Z" fill="#494949"/>
<path d="M64.5417 71.562C64.2982 71.8065 64.0546 72.2956 63.811 72.5401C64.0546 72.2956 64.2982 71.8065 64.5417 71.562Z" fill="#494949"/>
<path d="M63.8107 73.0288C63.5672 73.2733 63.3236 73.5179 63.0801 74.0069C63.3236 73.5179 63.5672 73.2733 63.8107 73.0288Z" fill="#494949"/>
<path d="M71.3608 77.4305C71.6044 77.186 72.0915 76.6969 72.335 76.4524C72.0915 76.6969 71.6044 77.186 71.3608 77.4305Z" fill="#494949"/>
<path d="M76.7192 105.551L76.9627 105.307C76.9627 105.307 76.9628 105.551 76.7192 105.551Z" fill="#494949"/>
<path d="M69.8999 117.533L70.1435 117.288C70.1435 117.288 70.1435 117.533 69.8999 117.533Z" fill="#494949"/>
<path d="M54.556 10.1858C54.7996 10.6748 54.7995 10.9194 55.0431 11.4084L54.7996 11.6529L54.556 11.4084C54.3124 11.1639 54.556 10.6748 54.556 10.1858Z" fill="white"/>
<path d="M25.0859 30.9707C25.3295 29.9926 25.8166 29.2591 26.7908 28.77C27.0344 29.9926 27.0344 29.9926 25.0859 30.9707Z" fill="#494949"/>
<path d="M23.3812 23.6348C23.3812 23.3903 23.1376 23.3903 23.3812 23.3903C23.6247 23.1458 23.8683 22.9013 23.8683 22.6567C23.8683 22.6567 24.1119 22.6567 24.1119 22.9013C23.8683 23.1458 23.8683 23.3903 23.6248 23.8794C23.6248 23.6348 23.6247 23.6348 23.3812 23.6348Z" fill="#494949"/>
<path d="M39.4557 9.45215C39.4557 10.1857 39.4557 10.4303 39.4557 10.6748C39.4557 10.9193 39.2122 11.1638 38.9687 11.4084H38.7251C38.7251 11.1638 38.7251 10.9193 38.7251 10.6748C38.7251 10.1857 38.9686 9.9412 39.4557 9.45215Z" fill="#494949"/>
<path d="M73.7964 44.6641C74.2835 44.9086 74.2835 45.1531 74.2835 45.6422L74.0399 45.8867C74.0399 45.8867 73.7964 45.8867 73.7964 45.6422C73.5528 45.3976 73.3093 45.1531 73.7964 44.6641Z" fill="#494949"/>
<path d="M33.3667 66.6714C33.6103 66.4269 34.0973 66.4269 34.3409 66.1824L34.5845 66.4269C34.5845 66.4269 34.5844 66.6714 34.3409 66.6714C34.0973 66.6714 33.6103 66.916 33.3667 66.916V66.6714Z" fill="#494949"/>
<path d="M35.0718 68.6276C35.3153 68.6276 35.8024 68.3831 36.046 68.3831C36.2895 68.3831 36.2896 68.3831 36.5331 68.3831C36.046 69.1166 36.046 69.1166 35.0718 68.6276Z" fill="#494949"/>
</svg>
