<svg width="20" height="14" viewBox="0 0 20 14" fill="none" xmlns="http://www.w3.org/2000/svg">
<path d="M9.99998 3.00001C9.63197 3.00576 9.26668 3.06422 8.91526 3.17362C9.07782 3.45949 9.16437 3.78227 9.16665 4.11112C9.16665 4.36647 9.11635 4.61931 9.01864 4.85522C8.92092 5.09114 8.77769 5.30549 8.59713 5.48605C8.41657 5.66661 8.20222 5.80983 7.96631 5.90755C7.7304 6.00527 7.47755 6.05556 7.2222 6.05556C6.89335 6.05328 6.57058 5.96673 6.2847 5.80417C6.05916 6.58639 6.08545 7.41975 6.35984 8.1862C6.63424 8.95265 7.14283 9.61334 7.81358 10.0747C8.48433 10.536 9.28323 10.7746 10.0971 10.7567C10.911 10.7388 11.6986 10.4652 12.3484 9.97477C12.9982 9.48433 13.4772 8.80189 13.7176 8.0241C13.9579 7.24631 13.9475 6.4126 13.6877 5.64107C13.4279 4.86954 12.932 4.19931 12.2701 3.7253C11.6083 3.2513 10.8141 2.99755 9.99998 3.00001ZM19.8791 6.38195C17.9962 2.70799 14.2684 0.222229 9.99998 0.222229C5.73158 0.222229 2.00276 2.70973 0.120814 6.3823C0.0413845 6.53942 0 6.71301 0 6.88907C0 7.06513 0.0413845 7.23872 0.120814 7.39584C2.0038 11.0698 5.73158 13.5556 9.99998 13.5556C14.2684 13.5556 17.9972 11.0681 19.8791 7.39549C19.9586 7.23837 20 7.06478 20 6.88872C20 6.71266 19.9586 6.53907 19.8791 6.38195ZM9.99998 11.8889C6.57463 11.8889 3.43436 9.97917 1.73852 6.8889C3.43436 3.79862 6.57429 1.8889 9.99998 1.8889C13.4257 1.8889 16.5656 3.79862 18.2614 6.8889C16.566 9.97917 13.4257 11.8889 9.99998 11.8889Z" fill="#F2CD84"/>
</svg>
