<svg width="652" height="552" viewBox="0 0 652 552" fill="none" xmlns="http://www.w3.org/2000/svg">
<path d="M31.9827 552L30.9414 536.377L15.917 536.83L18.5946 342.34L0 50.4906L22.611 48.6792L22.9085 21.9623L262.258 29.8868L640.248 0L640.694 42.1132L652 42.566L648.876 494.038L644.86 494.491L645.157 522.792L249.762 531.849L31.9827 552ZM33.1727 536.377L33.9165 548.377L202.309 532.528L33.1727 536.377ZM20.3796 371.094L18.1483 533.434L30.7926 533.208L20.3796 371.094ZM20.8259 342.113L33.024 532.981L249.911 528L642.777 491.094L638.612 45.5094L262.407 33.283L24.8423 51.8491L20.8259 342.113ZM642.926 494.491L297.513 527.094L643.223 519.17L642.926 494.491ZM640.843 45.5094L645.008 490.868L646.794 490.642L649.769 45.7359L640.843 45.5094ZM2.52886 53.6604L19.0408 313.358L22.611 52.0755L2.52886 53.6604ZM25.2886 25.3585L24.9911 48.4528L232.06 32.1509L25.2886 25.3585ZM292.902 30.7925L638.612 42.1132L638.314 3.62264L292.902 30.7925Z" fill="#F2CD84"/>
</svg>
