<svg width="208" height="205" viewBox="0 0 208 205" fill="none" xmlns="http://www.w3.org/2000/svg">
<g clip-path="url(#clip0)">
<path d="M66.0053 118.653C66.1112 118.349 66.6268 117.847 66.8386 117.24C68.1874 115.325 70.8433 114.547 73.0618 116.002C76.6932 118.29 76.136 121.843 74.2716 124.26C72.7249 125.765 70.7824 126.45 68.8538 126.119C66.9252 125.787 66.0277 124.452 65.6458 122.616C65.1581 121.083 65.2779 119.762 66.0053 118.653Z" fill="#494949"/>
<path d="M129.27 142.41C129.376 142.106 129.482 141.802 129.588 141.498C130.025 139.266 128.11 137.917 126.168 138.603C123.816 139.486 122.968 141.917 124.46 144.481C125.053 145.71 126.374 145.829 127.603 145.236C128.423 144.84 128.846 143.625 129.27 142.41ZM125.012 148.761C123.493 148.232 122.383 147.504 121.578 146.883C120.681 145.548 119.995 143.606 120.828 142.193C121.556 141.083 121.873 140.172 122.601 139.063C123.844 137.452 125.482 136.66 127.411 136.992C128.124 136.9 128.626 137.416 129.233 137.627C131.954 139.598 132.611 143.575 130.641 146.295C130.535 146.598 130.02 147.1 129.61 147.298C128.367 148.909 126.53 149.291 125.012 148.761Z" fill="#494949"/>
<path d="M107.981 151.682C108.087 151.379 107.889 150.969 107.995 150.665C107.705 149.542 106.701 148.511 105.79 148.193C104.879 147.875 104.059 148.271 103.742 149.183C103.622 150.504 103.912 151.627 104.611 152.552C105.113 153.067 105.72 153.279 106.434 153.187C106.949 152.686 107.663 152.594 107.981 151.682ZM107.337 146.688C108.856 147.218 109.555 148.143 110.043 149.676L110.241 150.085C111.216 153.151 109.154 155.158 106.802 156.041C106.392 156.239 105.679 156.331 105.375 156.225C103.75 155.999 102.535 155.576 101.228 154.439C99.9208 153.302 99.6448 151.161 100.28 149.339C102.356 146.315 103.995 145.523 107.337 146.688Z" fill="#494949"/>
<path d="M139.622 188.946L139.728 188.642C139.53 188.233 139.226 188.127 139.015 188.734C139.015 188.734 138.909 189.038 139.212 189.144L139.622 188.946ZM140.907 184.284C140.907 184.284 141.013 183.98 140.709 183.874C140.299 184.072 140.299 184.072 139.889 184.27C139.889 184.27 139.784 184.574 140.087 184.679C140.193 184.376 140.497 184.482 140.907 184.284ZM142.992 188.077C143.903 188.394 144.616 188.302 145.33 188.21C149.109 187.143 152.386 185.56 155.374 182.854C155.48 182.55 155.586 182.246 155.995 182.048C156.299 182.154 156.405 181.85 156.101 181.744L155.995 182.048C155.19 181.427 154.067 181.716 153.247 182.112C152.018 182.706 150.881 184.013 149.454 184.197C147.102 185.081 145.252 186.48 142.992 188.077C142.886 188.38 142.886 188.38 142.886 188.38C142.992 188.077 142.992 188.077 142.992 188.077ZM157.244 172.603C156.636 172.391 156.226 172.589 156.015 173.197C155.407 172.985 154.799 172.773 154.086 172.865C152.963 173.155 152.143 173.551 151.324 173.947C150.095 174.54 148.76 175.438 147.333 175.622C147.849 175.12 148.061 174.512 148.576 174.011C150.427 172.612 152.065 171.82 154.312 171.24C155.739 171.056 157.271 170.569 158.105 169.156C159.716 170.398 161.552 170.017 163.389 169.635C163.389 169.635 163.495 169.331 163.798 169.437L163.904 169.133L163.706 168.723C161.884 168.088 160.245 168.88 158.408 169.261C154.657 168.294 151.592 169.27 148.406 171.567C146.661 172.662 145.221 173.863 143.674 175.368C143.264 175.566 142.855 175.764 142.445 175.962C142.974 174.443 144.415 173.242 145.856 172.04C148.844 169.334 152.333 167.144 156.903 167.715C159.545 167.954 162.307 166.873 165.055 166.809C165.359 166.915 165.769 166.717 165.875 166.413C166.284 166.215 166.602 165.304 166.51 164.59C166.312 164.181 165.81 163.665 165.507 163.559C162.653 163.927 160.209 164.097 157.355 164.465C153.074 165.017 149.189 166.388 145.198 168.063C141.511 169.844 138.933 172.353 137.253 176.196C135.572 180.039 133.892 183.883 132.212 187.726L132.106 188.03C132.106 188.03 132.106 188.03 132 188.333C132.106 188.03 132.106 188.03 132.212 187.726C132.621 187.528 133.229 187.74 133.744 187.238C135.807 185.231 137.565 183.119 138.822 180.491C139.549 179.381 140.079 177.863 141.718 177.071C141.294 178.286 140.976 179.197 140.553 180.413C140.553 180.413 140.447 180.716 140.751 180.822C140.751 180.822 141.054 180.928 141.358 181.034C143.195 180.652 144.438 179.041 145.878 177.84C146.91 176.837 147.637 175.727 148.76 175.438C148.033 176.547 147.305 177.656 146.578 178.765C146.472 179.069 146.26 179.677 146.154 179.98C146.154 179.98 146.049 180.284 146.352 180.39L146.656 180.496C147.779 180.206 148.493 180.114 149.312 179.718C148.994 180.63 148.479 181.131 147.659 181.527C146.84 181.923 146.021 182.319 145.505 182.82C144.99 183.322 144.474 183.824 144.262 184.431C144.156 184.735 144.05 185.039 144.248 185.448C144.552 185.554 144.856 185.66 145.16 185.766C148.953 183.681 153.049 181.703 156.737 179.922C158.891 178.628 161.045 177.335 162.5 175.117C162.606 174.813 162.818 174.205 163.029 173.598C162.012 173.584 161.299 173.676 160.387 173.358C160.189 172.949 159.991 172.539 159.688 172.433C157.759 172.101 157.349 172.299 157.244 172.603ZM169.824 167.79C167.43 171.725 166.053 175.674 163.356 179.503C161.795 182.026 159.429 183.926 156.759 185.721C151.935 188.809 146.821 190.774 141.311 191.92C138.351 192.592 135.801 193.066 133.435 194.966C132.92 195.468 132.206 195.56 131.493 195.652C131.083 195.85 130.476 195.638 130.172 195.532C128.759 194.699 127.663 192.954 127.889 191.329C128.207 190.418 128.221 189.401 128.842 188.595C131.024 185.268 132.295 181.622 133.869 178.083C134.505 176.26 135.748 174.649 136.991 173.038C138.855 170.622 140.812 168.919 143.376 167.428C147.063 165.647 150.538 164.474 154.515 163.816C158.082 163.356 161.953 163.002 165.429 161.828C166.248 161.433 167.357 162.16 168.057 163.085C168.255 163.495 168.558 163.601 168.452 163.905C169.046 165.134 169.64 166.363 169.824 167.79Z" fill="#494949"/>
<path d="M157.998 169.459C159.835 169.077 161.474 168.286 163.296 168.921C163.296 168.921 163.6 169.027 163.494 169.331L163.388 169.634C163.388 169.634 163.283 169.938 162.979 169.832C161.446 170.32 159.715 170.398 157.998 169.459Z" fill="white"/>
<path d="M157.244 172.603C157.456 171.995 157.759 172.101 158.367 172.313C158.671 172.419 158.869 172.829 159.066 173.238C158.459 173.027 157.851 172.815 157.244 172.603Z" fill="white"/>
<path d="M156.015 173.196C156.227 172.589 156.636 172.391 157.244 172.603C157.032 173.21 156.622 173.408 156.015 173.196Z" fill="white"/>
<path d="M148.083 180.312C148.704 179.507 149.432 178.398 150.661 177.804C151.996 176.906 153.74 175.811 155.683 175.125C155.577 175.429 155.365 176.037 154.956 176.235C152.392 177.726 150.435 179.429 148.083 180.312Z" fill="#494949"/>
<path d="M156.015 173.196C156.622 173.408 157.032 173.21 157.244 172.603C157.851 172.814 158.459 173.026 159.37 173.344C158.233 174.651 157.004 175.245 155.274 175.323C155.485 174.715 155.803 173.804 156.015 173.196Z" fill="#494949"/>
<path d="M117.46 83.4412C117.46 83.4412 117.156 83.3353 117.05 83.6391C116.945 83.9429 116.535 84.1407 116.429 84.4445C116.415 85.4618 116.507 86.1753 117.207 87.1005L117.51 87.2064C117.814 87.3123 117.92 87.0085 118.026 86.7047C118.04 85.6875 118.16 84.3665 117.46 83.4412ZM120.52 90.2998C120.732 89.6923 120.746 88.675 120.654 87.9616C120.59 85.2136 120.116 82.6636 119.946 80.2194C119.946 80.2194 119.748 79.8097 119.642 80.1135C119.233 80.3114 118.823 80.5093 118.823 80.5093C118.703 81.8303 118.887 83.2572 118.767 84.5783C118.845 86.309 119.227 88.1456 118.592 89.9683L118.79 90.3779C119.094 90.4838 119.397 90.5897 119.701 90.6956C120.111 90.4977 120.415 90.6036 120.52 90.2998ZM126.141 81.0163C126.247 80.7125 126.459 80.105 126.565 79.8012C126.565 79.8012 126.367 79.3915 126.063 79.2856C125.958 79.5894 125.548 79.7873 125.852 79.8932C125.336 80.3949 125.534 80.8045 126.141 81.0163C125.824 81.9276 125.506 82.839 125.188 83.7504C124.595 82.5213 124.411 81.0944 123.817 79.8654C123.619 79.4557 123.316 79.3498 123.118 78.9402L122.814 78.8343L122.404 79.0321C122.694 80.1552 122.574 81.4763 122.864 82.5994C123.246 84.436 123.628 86.2726 123.296 88.2012L123.19 88.505L123.296 88.2012C123.6 88.3071 123.798 88.7167 124.102 88.8226C124.3 89.2323 124.907 89.4441 125.119 88.8366C125.225 88.5328 125.331 88.229 125.437 87.9252C125.634 88.3349 126.242 88.5467 126.44 88.9564C126.744 89.0623 127.048 89.1681 127.351 89.274C127.761 89.0761 128.277 88.5745 128.079 88.1648C128.093 87.1476 127.697 86.3283 127.605 85.6148C127.909 85.7207 127.909 85.7207 128.212 85.8266C129.124 86.1443 129.533 85.9463 129.745 85.3388C129.759 84.3215 129.971 83.714 129.879 83.0006C129.787 82.2871 129.285 81.7715 128.784 81.2559C128.48 81.15 127.766 81.242 127.463 81.1361C126.749 81.2281 126.445 81.1222 126.141 81.0163ZM113.801 83.1877C115.283 78.9348 119.5 75.6349 123.463 75.9943C126.211 75.9301 128.733 77.4908 130.33 79.7509L130.528 80.1606C131.412 82.5128 131.886 85.0628 131.646 87.7049C131.434 88.3124 131.526 89.0259 131.011 89.5275C130.283 90.6368 129.662 91.4422 128.934 92.5515C128.419 93.0531 127.797 93.8586 126.978 94.2543C124.11 95.6395 121.256 96.0075 118.113 95.2523C114.665 94.3912 112.171 90.7962 112.728 87.2428C113.258 85.7239 113.787 84.205 113.801 83.1877Z" fill="#494949"/>
<path d="M43.6439 72.3595C42.4149 72.9531 40.988 73.1371 39.7589 73.7308C38.6358 74.0206 38.2122 75.2357 38.9118 76.161C39.7033 77.7997 40.4949 79.4384 42.3176 80.0738C46.4646 81.8601 50.4138 83.2367 54.7865 83.3983C57.1248 83.532 59.6748 83.0581 61.8291 81.7649C63.0581 81.1712 63.8914 79.7582 64.315 78.5431C64.8444 77.0242 64.2508 75.7952 63.1416 75.0678C61.121 74.0228 58.7966 72.8718 56.4583 72.7381C55.4411 72.7242 54.4239 72.7103 53.1029 72.5905C49.9591 71.8353 46.9074 71.7936 43.6439 72.3595ZM37.7522 71.6684C40.2103 70.4811 42.3507 70.2052 44.4911 69.9292C47.6487 69.6671 51.0042 69.8147 54.1618 69.5526C57.927 69.5024 61.3745 70.3635 64.6102 71.8321C64.9139 71.938 65.2178 72.0439 65.8254 72.2557C66.0371 71.6481 66.4468 71.4502 66.6585 70.8427C66.8703 70.2351 66.7784 69.5217 66.8843 69.2179C67.4277 66.6817 67.5613 64.3434 68.1047 61.8073C68.5422 59.5749 68.7818 56.9329 69.629 54.5026C69.8408 53.895 69.8547 52.8778 70.0665 52.2702C70.3061 49.6282 69.7264 47.3819 68.0235 45.4255C66.8222 43.9847 65.3033 43.4553 63.4806 42.8199C60.9445 42.2765 58.3024 42.0369 55.4625 41.3876C52.015 40.5265 48.8434 41.8058 45.7778 42.7813C44.245 43.2691 43.108 44.5763 42.4727 46.399C42.2609 47.0065 41.9432 47.9179 41.7314 48.5254C40.8842 50.9557 40.4467 53.1881 40.5109 55.936C41.1185 56.1478 41.726 56.3596 42.3336 56.5714C42.1079 58.1962 42.1079 58.1961 41.0906 58.1822C40.7869 58.0763 40.1793 57.8646 39.9675 58.4722C39.6359 60.4007 38.287 62.3154 38.2592 64.3499C38.3234 67.0978 36.9746 69.0125 37.7522 71.6684ZM73.684 55.5755C73.9878 55.6814 74.1858 56.0911 74.4895 56.1969C77.7391 56.6483 80.8967 56.3863 83.1708 53.7721C84.2019 52.7687 85.2331 51.7654 86.2643 50.7621C86.8857 49.9566 87.5072 49.1512 87.9308 47.936C88.9898 44.8982 89.4412 41.6486 89.5888 38.2931C89.4187 35.849 88.5351 33.4967 87.9554 31.2505C86.9018 26.4541 83.588 23.2548 79.6527 20.8609C75.7175 18.467 71.4645 16.9845 67.1056 15.8057C60.0127 13.6739 52.8921 13.5766 45.8495 15.21C42.4801 16.0796 39.3086 17.3589 36.335 19.0479C32.3302 21.7402 29.4346 25.1599 26.9348 29.3989C25.8897 31.4195 24.5409 33.3342 24.711 35.7783C24.6051 36.0821 24.4992 36.3859 24.3933 36.6897C24.3794 37.7069 24.1676 38.3145 24.1537 39.3318C24.8116 43.3087 26.2888 46.8899 28.6912 49.7716C31.0936 52.6532 34.2374 53.4084 38.1085 53.0543C38.3202 52.4468 38.4261 52.143 38.6379 51.5354C39.3792 49.4089 39.7108 47.4804 40.452 45.3539C40.9815 43.835 41.7089 42.7257 43.0438 41.8283C44.3787 40.9308 45.9115 40.4431 47.1406 39.8494C50.0083 38.4642 52.968 37.7925 56.2176 38.2439C57.8425 38.4696 59.5731 38.3915 61.1979 38.6172C62.335 37.3101 63.3662 36.3067 64.5032 34.9996C65.0049 35.5152 65.2028 35.9249 64.6872 36.4266C64.0657 37.232 63.1405 37.9316 63.3245 39.3585C65.0413 40.2976 67.0618 41.3427 68.6727 42.5856C69.782 43.313 70.8912 44.0403 71.4849 45.2694C72.7781 47.4237 73.6616 49.7758 73.3161 52.7216C73.4081 53.4351 73.0904 54.3465 73.684 55.5755ZM72.1876 60.8457C71.4602 61.9549 71.4463 62.9722 71.3265 64.2932C71.1008 65.918 70.5714 67.4369 70.3457 69.0617C69.6964 71.9017 69.0471 74.7416 68.3978 77.5815C67.9603 79.8139 66.6115 81.7285 65.1707 82.9298C64.1396 83.9331 62.5008 84.7246 60.7701 84.8027C56.0797 85.5525 51.3892 86.3024 46.8325 84.714C44.0985 83.7609 41.2586 83.1116 38.7364 81.551C36.5179 80.0963 35.1187 78.2458 34.2352 75.8936C33.9453 74.7704 33.6554 73.6473 34.079 72.4322C34.7283 69.5923 35.3776 66.7523 35.6172 64.1103C35.9488 62.1817 36.2804 60.2531 36.612 58.3245C34.8952 57.3854 33.0725 56.75 31.6595 55.9167C29.1372 54.3561 26.7209 52.4917 24.8201 50.1256C21.7181 46.3187 20.7565 42.2358 20.7201 37.4534C20.6976 31.6537 22.9996 27.0051 26.8204 22.8858C30.7471 18.4628 35.875 15.4806 41.0949 13.2118C42.7336 12.4203 44.5702 12.0384 46.6047 12.0663C49.4585 11.6983 52.5102 11.74 55.562 11.7817C58.3099 11.7175 61.3616 11.7593 64.0037 11.9989C67.663 12.2524 70.7008 13.3113 73.9365 14.78C76.063 15.5212 77.9776 16.8701 80.302 18.021C82.9301 19.2779 84.9368 21.3401 86.8376 23.7062C89.4379 26.9975 91.113 30.9884 92.1805 34.7675C92.5763 35.5869 92.5624 36.6041 92.5485 37.6214C92.8886 42.5097 92.6212 47.1862 90.729 51.637C89.7759 54.371 88.0174 56.4836 85.3476 58.2785C81.8584 60.4691 78.1852 61.2329 74.0103 61.481C73.6145 60.6617 72.9011 60.7537 72.1876 60.8457Z" fill="#494949"/>
<path d="M86.5232 39.2682C87.5126 41.3166 87.8945 43.1531 86.2419 44.9619C85.6204 45.7674 85.3028 46.6788 84.6813 47.4842C83.6363 49.5048 82.3013 50.4022 80.5567 51.4975C79.2218 52.395 77.9008 52.2752 76.2899 51.0322C77.0033 50.9403 77.413 50.7424 77.7168 50.8483C79.0378 50.9681 80.1609 50.6782 81.1921 49.6749C82.527 48.7774 83.664 47.4703 84.4973 46.0573C84.7091 45.4497 85.2247 44.9481 85.4365 44.3405C86.1638 43.2313 86.5874 42.0161 86.4034 40.5892C86.2055 40.1795 86.4173 39.5719 86.5232 39.2682Z" fill="#494949"/>
<path d="M38.9217 23.3559C38.7099 23.9635 38.6041 24.2673 38.0885 24.769C37.467 25.5744 36.6476 25.9702 36.0261 26.7756C34.4794 28.2806 33.6462 29.6937 33.2087 31.926C33.1028 32.2298 33.1028 32.2298 32.9969 32.5336C32.2835 32.6256 31.8877 31.8062 31.9936 31.5025C32.4172 30.2873 32.7349 29.376 33.1585 28.1608C33.9917 26.7478 36.9792 24.0416 38.9217 23.3559Z" fill="#494949"/>
<path d="M30.561 39.521C33.4095 46.9872 33.5293 45.6662 36.5533 47.7424C35.1263 47.9264 34.215 47.6087 32.9078 46.4716C31.3108 44.2114 30.0177 42.0571 30.561 39.521Z" fill="#494949"/>
<path d="M27.1278 37.6429C27.8915 41.3161 27.7439 44.6716 30.6619 47.0516C30.1464 47.5532 29.9485 47.1436 29.6447 47.0377C27.0305 44.7636 26.4647 41.5001 26.6123 38.1446C26.4144 37.7349 26.7181 37.8408 27.1278 37.6429Z" fill="#494949"/>
<path d="M39.4648 20.8202C39.9804 20.3186 40.0863 20.0147 40.4959 19.8169C41.3153 19.4211 42.0288 19.3291 42.5443 18.8274C44.8045 17.2304 46.931 17.9717 49.0574 18.713C49.0574 18.713 48.9516 19.0168 49.1494 19.4264C48.528 20.2319 47.7225 19.6104 47.1149 19.3986C45.8998 18.975 44.473 19.1591 43.138 20.0565C42.3187 20.4523 41.1955 20.7422 39.4648 20.8202Z" fill="#494949"/>
<path d="M33.5038 25.2155C32.7764 26.3248 32.5647 26.9324 32.0491 27.434C30.6083 28.6353 30.0788 30.1541 29.8531 31.779C29.7472 32.0827 29.6412 32.3865 29.2316 32.5844C29.1257 32.8882 28.8219 32.7823 28.2144 32.5705C28.6519 30.3381 29.2873 28.5155 30.5302 26.9045C31.1517 26.0991 31.7731 25.2936 33.5038 25.2155Z" fill="#494949"/>
<path d="M82.0811 44.1926C82.2789 44.6023 82.279 44.6022 82.279 44.6022C81.4457 46.0152 80.3086 47.3224 78.8678 48.5236C78.4581 48.7215 78.0484 48.9193 77.6387 49.1172C76.9253 49.2092 76.7274 48.7996 76.3316 47.9802C79.0796 47.916 80.0327 45.182 82.0811 44.1926Z" fill="#494949"/>
<path d="M39.1452 44.2168C37.5065 45.0083 37.0049 44.4927 36.5032 43.9772C35.302 42.5364 33.9948 41.3993 34.1285 39.061C34.9479 38.6653 35.0398 39.3787 35.0398 39.3787C35.2377 39.7884 35.4357 40.1981 35.6335 40.6078C36.0154 42.4444 36.6091 43.6734 39.1452 44.2168Z" fill="#494949"/>
<path d="M53.7622 16.9463C53.7761 15.9291 54.1858 15.7312 54.8993 15.6392C56.5241 15.8649 58.043 16.3944 59.364 16.5142C59.5619 16.9239 59.1522 17.1218 58.7425 17.3197C57.0118 17.3977 55.2811 17.4758 53.7622 16.9463Z" fill="#494949"/>
<path d="M72.7142 44.676C74.5647 43.2769 75.7938 42.6832 77.1287 41.7858C77.5384 41.5879 77.8422 41.6939 78.146 41.7998C77.009 43.1069 75.5681 44.3081 74.0352 44.7958C74.339 44.9017 73.7315 44.6899 72.7142 44.676Z" fill="#494949"/>
<path d="M41.6308 40.9947C41.2211 41.1926 41.1153 41.4964 40.8115 41.3905C38.9888 40.7551 38.1973 39.1164 38.5289 37.1878C38.5289 37.1878 38.5289 37.1878 38.9386 36.9899C39.3343 37.8093 39.73 38.6286 40.2317 39.1442C40.3237 39.8577 40.9313 40.0695 41.6308 40.9947Z" fill="#494949"/>
<path d="M58.9661 38.1794C59.4956 36.6605 60.2229 35.5512 61.2541 34.5479C61.4381 35.9748 61.4242 36.9921 60.4989 37.6916C60.393 37.9954 59.7855 37.7836 58.9661 38.1794Z" fill="#494949"/>
<path d="M47.924 34.6715C48.2139 35.7947 48.9134 36.7199 49.2033 37.843L48.9915 38.4506C48.9915 38.4506 48.5818 38.6485 48.384 38.2388C47.6844 37.3136 47.0907 36.0845 47.2105 34.7635C47.6202 34.5656 47.924 34.6715 47.924 34.6715Z" fill="#494949"/>
<path d="M43.6431 35.2229C44.3426 36.1482 44.7384 36.9676 45.3321 38.1966C45.3321 38.1966 45.2262 38.5004 45.1203 38.8042L44.7106 39.002L44.4068 38.8961C43.4035 37.865 43.1136 36.7418 43.6431 35.2229Z" fill="#494949"/>
<path d="M75.03 39.0095C74.9102 40.3306 73.6811 40.9242 72.558 41.2141C72.1483 41.412 71.7387 41.6099 71.237 41.0943C71.3429 40.7905 71.3429 40.7905 71.4488 40.4867C72.5719 40.1969 73.4052 38.7838 74.8321 38.5998C74.7262 38.9036 75.03 39.0095 75.03 39.0095Z" fill="#494949"/>
<path d="M57.806 33.687C57.3824 34.9021 57.3686 35.9194 56.945 37.1345C56.4433 36.619 56.1395 36.5131 55.8358 36.4072C55.8497 35.3899 55.8636 34.3727 56.7888 33.6731C57.1985 33.4753 57.5022 33.5811 57.806 33.687Z" fill="#494949"/>
<path d="M69.668 36.7995C69.5482 38.1205 68.2133 39.018 66.9843 39.6116C67.21 37.9868 67.21 37.9868 69.668 36.7995Z" fill="#494949"/>
<path d="M52.0982 34.4231C52.7977 35.3484 53.6033 35.9699 52.5721 36.9732L52.2683 36.8673C51.0532 36.4437 51.6746 35.6383 52.0982 34.4231Z" fill="#494949"/>
<path d="M33.4708 35.0842C32.9553 35.5858 32.8494 35.8897 32.4397 36.0875C32.03 36.2854 31.4224 36.0736 31.3304 35.3601C31.4363 35.0564 31.6481 34.4488 31.9519 34.5547C32.3616 34.3568 32.6654 34.4627 33.4708 35.0842Z" fill="#494949"/>
<path d="M28.3843 35.0142C28.2784 35.318 27.8687 35.5159 27.8687 35.5159C27.5649 35.41 27.5649 35.41 27.2612 35.3041C27.367 35.0004 27.473 34.6965 27.7768 34.8024C27.5789 34.3928 27.7767 34.8024 28.3843 35.0142Z" fill="#494949"/>
<path d="M43.3085 22.5004C43.1106 22.0907 43.1105 22.0907 42.9127 21.681L43.3224 21.4831C43.6261 21.589 43.6262 21.589 43.8241 21.9987C43.8241 21.9987 43.7181 22.3025 43.3085 22.5004Z" fill="#494949"/>
<path d="M45.3126 47.0482C45.2067 47.352 45.2987 48.0655 45.1928 48.3692C44.6633 49.8881 44.4375 51.5129 43.8022 53.3356C43.6963 53.6394 43.2867 53.8373 42.9829 53.7314C42.6791 53.6255 42.4812 53.2158 42.2833 52.8061C42.9186 50.9834 43.6599 48.857 44.2953 47.0343L44.705 46.8364C45.1147 46.6385 45.0088 46.9423 45.3126 47.0482Z" fill="#494949"/>
<path d="M41.8548 61.8551C41.7489 62.1588 42.0526 62.2647 41.8548 61.8551C41.3114 64.3912 40.7679 66.9274 39.9208 69.3576C39.8149 69.6614 39.5112 69.5555 39.4053 69.8593C39.2074 69.4496 38.9036 69.3437 39.0095 69.04C39.4469 66.8076 40.1882 64.6811 40.6257 62.4487C40.8375 61.8411 41.2472 61.6433 41.8548 61.8551Z" fill="#494949"/>
<path d="M49.7415 43.1403C50.0453 43.2462 50.2432 43.6559 50.1373 43.9596C49.396 46.0861 48.7607 47.9088 48.0194 50.0353C47.9135 50.3391 47.6097 50.2332 47.2 50.431L47.0021 50.0213C47.4396 47.789 47.8771 45.5566 49.3318 43.3381C49.3318 43.3381 49.6356 43.4441 49.7415 43.1403Z" fill="#494949"/>
<path d="M45.1184 61.2893C44.9066 61.8969 45.1045 62.3066 44.9986 62.6103C44.575 63.8255 43.8476 64.9347 43.424 66.1498C43.254 63.7057 43.5716 62.7943 44.299 61.6851C44.1011 61.2754 44.4049 61.3813 45.1184 61.2893Z" fill="#494949"/>
<path d="M46.8265 55.4121C46.7206 55.7159 46.3109 55.9137 46.3109 55.9137C46.0071 55.8078 45.7034 55.702 45.8093 55.3982C45.6114 54.9885 46.021 54.7906 46.7345 54.6986C46.3248 54.8965 46.6286 55.0024 46.8265 55.4121Z" fill="#494949"/>
</g>
<defs>
<clipPath id="clip0">
<rect width="184.839" height="152.361" fill="white" transform="translate(32.5176 0.137939) rotate(19.2181)"/>
</clipPath>
</defs>
</svg>
