<svg width="141" height="116" viewBox="0 0 141 116" fill="none" xmlns="http://www.w3.org/2000/svg">
<g clip-path="url(#clip0)">
<path d="M53.8801 76.8102C53.8801 76.5653 54.1255 76.0754 54.1255 75.5855C54.6164 73.871 56.3342 72.6463 58.2974 73.1362C61.4877 73.871 61.9786 76.5652 61.2424 78.7696C60.5061 80.2392 59.2791 81.219 57.8067 81.4639C56.3342 81.7089 55.3525 80.9741 54.6163 79.7494C53.8801 78.7697 53.6347 77.7899 53.8801 76.8102Z" fill="#494949"/>
<path d="M105.416 78.0353C105.416 77.7903 105.416 77.5454 105.416 77.3005C105.171 75.5859 103.453 75.0961 102.226 76.0758C100.753 77.3005 100.753 79.2599 102.471 80.7295C103.207 81.4643 104.189 81.2194 104.925 80.4846C105.416 79.9947 105.416 79.015 105.416 78.0353ZM103.944 83.6687C102.717 83.6687 101.735 83.4238 100.999 83.1789C100.017 82.4441 99.0354 81.2194 99.2808 79.9947C99.5262 79.015 99.5263 78.2802 99.7717 77.3005C100.262 75.8309 101.244 74.8511 102.717 74.6062C103.207 74.3612 103.698 74.6062 104.189 74.6062C106.643 75.341 108.115 78.0353 107.379 80.4846C107.379 80.7295 107.134 81.2194 106.888 81.4643C106.398 82.9339 105.171 83.6687 103.944 83.6687Z" fill="#494949"/>
<path d="M92.4091 90.0367C92.4091 89.7918 92.1637 89.5468 92.1637 89.3019C91.6729 88.5671 90.6913 88.0772 89.9551 88.0772C89.2188 88.0772 88.728 88.5671 88.728 89.3019C88.9734 90.2816 89.4642 91.0165 90.2004 91.5063C90.6912 91.7513 91.182 91.7513 91.6729 91.5063C91.9183 91.0165 92.4091 90.7715 92.4091 90.0367ZM90.6912 86.6077C91.9183 86.6077 92.6545 87.0975 93.3908 88.0772L93.6362 88.3222C95.1086 90.2817 94.1269 92.2411 92.6545 93.4658C92.4091 93.7107 91.9183 93.9557 91.6729 93.9557C90.4458 94.2006 89.4642 94.2006 88.2372 93.7107C87.0101 93.2209 86.2739 91.7513 86.2739 90.2817C87.0102 87.5874 87.9918 86.6077 90.6912 86.6077Z" fill="#494949"/>
<path d="M124.558 108.897V108.652C124.312 108.407 124.067 108.407 124.067 108.897C124.067 108.897 124.067 109.142 124.312 109.142L124.558 108.897ZM124.312 105.223C124.312 105.223 124.312 104.978 124.067 104.978C123.822 105.223 123.822 105.223 123.576 105.468C123.576 105.468 123.576 105.713 123.822 105.713C123.822 105.468 124.067 105.468 124.312 105.223ZM126.767 107.427C127.503 107.427 127.994 107.182 128.484 106.937C130.938 105.223 132.902 103.264 134.374 100.569C134.374 100.324 134.374 100.079 134.62 99.8344C134.865 99.8344 134.865 99.5895 134.62 99.5895V99.8344C133.883 99.5895 133.147 100.079 132.656 100.569C131.92 101.304 131.429 102.529 130.448 103.019C128.975 104.243 127.994 105.713 126.767 107.427C126.767 107.672 126.767 107.672 126.767 107.672C126.767 107.427 126.767 107.427 126.767 107.427ZM133.147 92.7314C132.656 92.7314 132.411 92.9763 132.411 93.4661C131.92 93.4661 131.429 93.4662 130.938 93.7111C130.202 94.201 129.711 94.6908 129.221 95.1807C128.484 95.9155 127.748 96.8952 126.767 97.3851C127.012 96.8952 127.012 96.4053 127.257 95.9155C128.239 94.4459 129.221 93.4662 130.693 92.4864C131.675 91.9966 132.656 91.2618 132.902 90.0371C134.374 90.5269 135.601 89.7922 136.828 89.0574C136.828 89.0574 136.828 88.8124 137.074 88.8124V88.5675L136.828 88.3226C135.356 88.3226 134.374 89.3023 133.147 90.0371C130.202 90.282 128.239 91.7516 126.521 94.2009C125.539 95.4256 124.803 96.6503 124.067 98.1199C123.822 98.3648 123.576 98.6098 123.331 98.8547C123.331 97.63 124.067 96.4054 124.803 95.1807C126.276 92.4864 128.239 90.0371 131.675 89.3023C133.638 88.8124 135.356 87.3428 137.319 86.608C137.564 86.608 137.81 86.3631 137.81 86.1181C138.055 85.8732 138.055 85.1384 137.81 84.6485C137.564 84.4036 137.074 84.1587 136.828 84.1587C134.865 85.1384 133.147 85.8732 131.184 86.8529C128.239 88.3225 125.785 90.282 123.331 92.4864C121.122 94.6908 119.895 97.1402 119.65 100.324C119.404 103.508 119.159 106.693 118.913 109.877V110.122C118.913 110.122 118.913 110.122 118.913 110.367C118.913 110.122 118.913 110.122 118.913 109.877C119.159 109.632 119.65 109.632 119.895 109.142C120.877 107.182 121.613 105.223 121.858 103.019C122.104 102.039 122.104 100.814 123.085 99.8344C123.085 100.814 123.085 101.549 123.085 102.529C123.085 102.529 123.085 102.774 123.331 102.774C123.331 102.774 123.576 102.774 123.822 102.774C125.049 102.039 125.539 100.569 126.276 99.3446C126.766 98.3648 127.012 97.3851 127.748 96.8952C127.503 97.875 127.257 98.8547 127.012 99.8344C127.012 100.079 127.012 100.569 127.012 100.814C127.012 100.814 127.012 101.059 127.257 101.059H127.503C128.239 100.569 128.73 100.324 129.221 99.8344C129.221 100.569 128.975 101.059 128.484 101.549C127.994 102.039 127.503 102.529 127.257 103.019C127.012 103.508 126.767 103.998 126.767 104.488C126.767 104.733 126.766 104.978 127.012 105.223C127.257 105.223 127.503 105.223 127.748 105.223C129.957 102.774 132.411 100.324 134.62 98.1199C135.847 96.6503 137.074 95.1807 137.564 93.2212C137.564 92.9763 137.564 92.4864 137.564 91.9966C136.828 92.2415 136.337 92.4864 135.601 92.4864C135.356 92.2415 135.11 91.9966 134.865 91.9966C133.393 92.2415 133.147 92.4864 133.147 92.7314ZM141 86.1181C140.264 89.5472 140.264 92.7314 139.282 96.1604C138.791 98.3648 137.564 100.324 136.092 102.284C133.393 105.713 130.202 108.407 126.521 110.611C124.558 111.836 122.84 112.816 121.613 114.775C121.368 115.265 120.877 115.51 120.386 115.755C120.14 116 119.65 116 119.404 116C118.177 115.755 116.95 114.775 116.705 113.551C116.705 112.816 116.459 112.081 116.705 111.346C117.441 108.407 117.441 105.468 117.686 102.529C117.686 101.059 118.177 99.5895 118.668 98.1199C119.404 95.9155 120.386 94.201 121.858 92.4864C124.067 90.282 126.276 88.5675 128.975 87.0979C131.429 85.8732 134.129 84.6486 136.337 82.934C136.828 82.4442 137.81 82.6891 138.546 83.1789C138.791 83.4239 139.037 83.4239 139.037 83.6688C139.773 84.4036 140.509 85.1384 141 86.1181Z" fill="#494949"/>
<path d="M132.901 90.2817C134.128 89.5469 135.11 88.5671 136.582 88.5671C136.582 88.5671 136.828 88.5672 136.828 88.8121V89.057C136.828 89.057 136.828 89.3019 136.582 89.3019C135.601 90.0368 134.374 90.5266 132.901 90.2817Z" fill="white"/>
<path d="M133.147 92.7311C133.147 92.2412 133.392 92.2412 133.883 92.2412C134.129 92.2412 134.374 92.4862 134.619 92.7311C134.129 92.7311 133.638 92.7311 133.147 92.7311Z" fill="white"/>
<path d="M132.411 93.4657C132.411 92.9759 132.656 92.731 133.147 92.731C133.147 93.2208 132.901 93.4657 132.411 93.4657Z" fill="white"/>
<path d="M128.484 100.569C128.73 99.8345 128.975 98.8547 129.711 98.1199C130.448 97.1402 131.429 95.9155 132.656 94.9358C132.656 95.1807 132.656 95.6706 132.411 95.9155C130.938 97.6301 129.957 99.3446 128.484 100.569Z" fill="#494949"/>
<path d="M132.411 93.4657C132.901 93.4657 133.147 93.2208 133.147 92.731C133.638 92.731 134.128 92.731 134.865 92.731C134.374 93.9556 133.638 94.6904 132.411 95.1803C132.411 94.6904 132.411 93.9556 132.411 93.4657Z" fill="#494949"/>
<path d="M82.1023 38.6011C82.1023 38.6011 81.8569 38.6011 81.8569 38.846C81.8569 39.091 81.6115 39.3359 81.6115 39.5808C81.8569 40.3156 82.1023 40.8055 82.8385 41.2954H83.084C83.3294 41.2954 83.3294 41.0504 83.3294 40.8055C83.084 40.0707 82.8386 39.091 82.1023 38.6011ZM86.0289 42.765C86.0289 42.2751 85.7834 41.5403 85.538 41.0504C84.8018 39.091 83.8202 37.3764 83.084 35.6619C83.084 35.6619 82.8385 35.417 82.8385 35.6619C82.5931 35.9068 82.3478 36.1518 82.3478 36.1518C82.5932 37.1315 83.084 38.1112 83.3294 39.091C83.8202 40.3156 84.5564 41.5403 84.5564 43.0099L84.8018 43.2548C85.0472 43.2548 85.2926 43.2548 85.538 43.2548C85.7834 43.0099 86.0289 43.0099 86.0289 42.765ZM87.7467 34.6821C87.7467 34.4372 87.7467 33.9474 87.7467 33.7024C87.7467 33.7024 87.5013 33.4575 87.2559 33.4575C87.2559 33.7024 87.0105 33.9474 87.2559 33.9474C87.0105 34.4372 87.2559 34.6821 87.7467 34.6821C87.7467 35.4169 87.7467 36.1518 87.7467 36.8866C87.0105 36.1518 86.5197 35.172 85.7835 34.4372C85.538 34.1923 85.2927 34.1923 85.0473 33.9474H84.8018L84.5564 34.1923C85.0472 34.9271 85.2926 35.9068 85.7835 36.6416C86.5197 37.8663 87.2559 39.091 87.5013 40.5606V40.8055V40.5606C87.7467 40.5606 87.9921 40.8055 88.2375 40.8055C88.4829 41.0504 88.9737 41.0504 88.9737 40.5606C88.9737 40.3156 88.9737 40.0707 88.9737 39.8258C89.2191 40.0707 89.71 40.0707 89.9554 40.3156C90.2008 40.3156 90.4462 40.3156 90.6916 40.3156C90.937 40.0707 91.1824 39.5808 90.937 39.3359C90.6916 38.6011 90.2008 38.1112 89.9554 37.6214C90.2008 37.6214 90.2008 37.6214 90.4462 37.6214C91.1824 37.6214 91.4278 37.3764 91.4278 36.8866C91.1824 36.1518 91.1824 35.6619 90.937 35.172C90.6916 34.6822 90.2008 34.4372 89.71 34.1923C89.4646 34.1923 88.9738 34.4372 88.7284 34.4372C88.2376 34.6822 87.9921 34.6821 87.7467 34.6821ZM79.4028 39.3359C79.4028 35.9068 81.6115 32.4777 84.5564 31.7429C86.5197 31.0081 88.7283 31.498 90.4462 32.7227L90.6916 32.9676C91.9187 34.4372 92.9003 36.1518 93.3911 38.1112C93.3911 38.6011 93.6365 39.0909 93.3911 39.5808C93.1457 40.5606 92.9003 41.2954 92.6549 42.2751C92.4094 42.765 92.1641 43.4998 91.6732 43.9896C89.9554 45.7042 87.9921 46.6839 85.538 46.9288C82.8385 47.1738 80.1391 45.2143 79.6483 42.52C79.6483 41.2954 79.6482 40.0707 79.4028 39.3359Z" fill="#494949"/>
<path d="M26.1489 49.1332C25.4127 49.868 24.4311 50.3579 23.6948 51.0927C22.9586 51.5826 22.9586 52.5623 23.6948 53.0522C24.6765 54.0319 25.6581 55.0116 27.1305 55.0116C30.5663 55.2566 33.7566 55.2566 36.9469 54.2768C38.6647 53.787 40.3826 52.8072 41.6096 51.3376C42.3458 50.6028 42.5912 49.3782 42.5912 48.3984C42.5912 47.1738 41.8551 46.439 40.8734 46.194C39.1556 45.9491 37.1923 45.7042 35.4744 46.194C34.7382 46.439 34.002 46.6839 33.0203 46.9288C30.5662 47.1737 28.3576 47.9086 26.1489 49.1332ZM21.7315 50.113C23.204 48.6434 24.6765 47.9086 26.1489 47.1738C28.3576 46.194 30.8117 45.4592 33.0203 44.4795C35.7198 43.4997 38.4193 43.2548 41.1188 43.4998C41.3642 43.4998 41.6096 43.4998 42.1005 43.4998C42.1005 43.0099 42.3458 42.765 42.3458 42.2751C42.3458 41.7852 42.1005 41.2953 42.1005 41.0504C41.8551 39.0909 41.3642 37.3764 41.1188 35.4169C40.8734 33.7024 40.3826 31.7429 40.3826 29.7834C40.3826 29.2936 40.1372 28.5588 40.1372 28.0689C39.6463 26.1095 38.6647 24.6398 36.9469 23.6601C35.7198 22.9253 34.4928 22.9253 33.0203 22.9253C31.0571 23.1703 29.0938 23.6601 26.8851 23.9051C24.1856 24.15 22.2223 25.8645 20.2591 27.3341C19.2774 28.0689 18.7867 29.2936 18.7867 30.7632C18.7867 31.2531 18.7867 31.9879 18.7867 32.4777C18.7867 34.4372 19.0321 36.1517 19.7683 38.1112C20.2591 38.1112 20.75 38.1112 21.2408 38.1112C21.4862 39.3359 21.4861 39.3359 20.7499 39.5808C20.5045 39.5808 20.0137 39.5808 20.0137 40.0707C20.2591 41.5403 19.7683 43.2548 20.2591 44.7244C20.9953 46.6839 20.5045 48.3984 21.7315 50.113ZM43.5729 29.5385C43.8183 29.5385 44.0637 29.7834 44.3091 29.7834C46.7632 29.2936 48.9718 28.3139 49.9535 25.8645C50.4443 24.8848 50.9351 23.9051 51.4259 22.9253C51.6714 22.1905 51.9168 21.4557 51.9168 20.476C51.9168 18.0267 51.426 15.5773 50.6897 13.128C49.9535 11.4135 48.7265 9.94383 47.7448 8.47422C45.7816 5.29008 42.5912 3.82049 39.1555 3.08569C35.7198 2.35089 32.2841 2.35089 28.8484 2.59583C23.204 2.84076 18.0504 4.5553 13.3877 7.4945C11.179 8.96411 9.21575 10.6786 7.4979 12.6381C5.28922 15.5773 4.06215 18.7614 3.32593 22.4354C3.08052 24.15 2.5897 25.8645 3.32593 27.5791C3.32593 27.824 3.32593 28.0689 3.32593 28.3139C3.57134 29.0487 3.57137 29.5385 3.81677 30.2733C5.28922 32.9676 7.25247 35.172 9.70656 36.6416C12.1606 38.1112 14.6147 37.8663 17.3142 36.6416C17.3142 36.1517 17.3142 35.9068 17.3142 35.4169C17.3142 33.7024 17.0688 32.2328 17.0688 30.5183C17.0688 29.2936 17.3142 28.3138 18.0504 27.3341C18.7866 26.3544 19.7683 25.6196 20.5045 24.8848C22.2224 23.1702 24.1856 21.9456 26.6397 21.4557C27.8667 21.2108 29.0938 20.7209 30.3208 20.476C30.8116 19.2513 31.3025 18.2716 31.7933 17.0469C32.2841 17.2918 32.5295 17.5368 32.2841 18.0267C32.0387 18.7615 31.5479 19.4963 32.0387 20.476C33.5112 20.7209 35.229 20.9659 36.7015 21.4557C37.6831 21.7007 38.6647 21.9456 39.401 22.6804C40.8734 23.9051 42.1004 25.3747 42.5912 27.5791C42.8366 28.0689 42.8366 28.8037 43.5729 29.5385ZM43.8183 33.7024C43.5729 34.6821 43.8183 35.417 44.0637 36.3967C44.3091 37.6214 44.3091 38.846 44.5545 40.0707C44.8 42.2751 45.0453 44.4795 45.2907 46.6839C45.5361 48.3984 45.0453 50.113 44.3091 51.3376C43.8183 52.3174 42.8367 53.2971 41.6096 53.787C38.4193 55.5015 35.229 57.2161 31.5479 57.2161C29.3392 57.2161 27.1306 57.461 24.9219 56.9711C22.9586 56.4812 21.4861 55.5015 20.2591 54.0319C19.7683 53.2971 19.2775 52.5623 19.2775 51.5826C19.0321 49.3782 18.7867 47.1738 18.2958 45.2143C18.0504 43.7447 17.8051 42.2751 17.5596 40.8055C16.0872 40.5605 14.6147 40.5605 13.3877 40.3156C11.179 39.8257 8.97032 39.0909 7.00705 37.8663C3.81674 35.9068 2.09889 33.2125 0.871847 29.7834C-0.600602 25.6196 -0.109741 21.7007 1.60812 17.7817C3.32597 13.6178 6.27083 10.1888 9.46113 7.24955C10.4428 6.26982 11.6698 5.53503 13.1423 5.04517C15.1055 4.06543 17.3142 3.33063 19.5229 2.59583C21.4861 1.86103 23.6948 1.12622 25.6581 0.636351C28.3576 -0.0984499 30.8117 -0.0984424 33.5112 0.146491C35.229 0.146491 36.9468 0.636366 38.9101 0.8813C41.1188 1.12623 43.0821 2.10597 45.0453 3.33064C47.7448 5.04517 49.9535 7.4945 51.6714 9.94384C52.1622 10.4337 52.4076 11.1685 52.653 11.9033C54.1254 15.3324 55.1071 18.7614 54.8616 22.4354C54.8616 24.6398 54.1254 26.5993 52.653 28.5588C50.6897 31.0081 48.2356 32.4777 45.2907 33.7024C44.7999 33.2125 44.3091 33.4575 43.8183 33.7024Z" fill="#494949"/>
<path d="M48.7264 14.5974C49.9534 15.8221 50.6897 17.0467 49.9534 18.7613C49.708 19.4961 49.7081 20.2309 49.4627 20.9657C49.2173 22.6802 48.481 23.66 47.4994 24.8846C46.7631 25.8644 45.7815 26.1093 44.3091 25.6194C44.7999 25.3745 45.0453 25.1296 45.2907 25.1296C46.2723 24.8846 47.0085 24.3948 47.4994 23.415C48.2356 22.4353 48.7264 21.2106 48.9718 19.9859C48.9718 19.4961 49.2172 19.0062 49.2172 18.5164C49.4627 17.5366 49.4626 16.5569 48.9718 15.5772C48.7264 15.3322 48.7264 14.8423 48.7264 14.5974Z" fill="#494949"/>
<path d="M10.4429 15.0872C10.4429 15.577 10.443 15.822 10.1976 16.3118C9.95214 17.0466 9.46127 17.5365 9.21586 18.2713C8.47963 19.7409 8.23426 20.9656 8.47966 22.6801C8.47966 22.9251 8.47966 22.925 8.47966 23.17C7.98885 23.4149 7.49805 22.9251 7.49805 22.6801C7.49805 21.7004 7.49805 20.9656 7.49805 19.9858C7.74345 18.7612 9.21586 16.0669 10.4429 15.0872Z" fill="#494949"/>
<path d="M8.47949 28.8037C12.406 33.4575 12.1606 32.4777 14.8601 33.2125C13.8785 33.7024 13.1422 33.7024 11.9152 33.2125C10.1973 31.9879 8.7249 30.7632 8.47949 28.8037Z" fill="#494949"/>
<path d="M5.53451 28.314C7.00696 30.7633 7.74318 33.2126 10.4427 34.1924C10.1973 34.6822 9.95189 34.4373 9.70648 34.4373C7.2524 33.4576 6.02539 31.2532 5.28916 28.8038C5.04376 28.5589 5.2891 28.5589 5.53451 28.314Z" fill="#494949"/>
<path d="M10.1973 13.1279C10.4427 12.6381 10.4426 12.3931 10.688 12.1482C11.1789 11.6583 11.6697 11.4134 11.9151 10.9235C13.1421 9.20898 14.86 9.20898 16.5778 9.20898C16.5778 9.20898 16.5778 9.45391 16.8232 9.69884C16.5778 10.4336 15.8416 10.1887 15.3508 10.1887C14.3691 10.1887 13.3876 10.6786 12.6513 11.6583C12.1605 12.1482 11.4243 12.6381 10.1973 13.1279Z" fill="#494949"/>
<path d="M7.00724 17.7815C6.76183 18.7612 6.76188 19.2511 6.51647 19.741C5.78024 20.9656 5.78021 22.1903 6.02562 23.415C6.02562 23.6599 6.02561 23.9049 5.7802 24.1498C5.7802 24.3947 5.53482 24.3947 5.044 24.3947C4.7986 22.6802 4.79861 21.2106 5.28943 19.741C5.53484 19.0062 5.7802 18.2714 7.00724 17.7815Z" fill="#494949"/>
<path d="M46.7636 19.251C47.009 19.4959 47.009 19.4959 47.009 19.4959C46.7636 20.7206 46.2728 21.9452 45.5366 23.1699C45.2911 23.4148 45.0457 23.6598 44.8003 23.9047C44.3095 24.1496 44.0641 23.9047 43.5732 23.4148C45.5365 22.68 45.5366 20.4756 46.7636 19.251Z" fill="#494949"/>
<path d="M15.8418 30.0284C14.8601 31.0081 14.3693 30.7632 13.8785 30.5182C12.6515 29.7834 11.4244 29.2936 10.9336 27.579C11.4244 27.0892 11.6698 27.579 11.6698 27.579C11.9152 27.824 12.1606 28.0689 12.4061 28.3139C13.1423 29.5385 13.8785 30.2733 15.8418 30.0284Z" fill="#494949"/>
<path d="M19.523 6.75969C19.2776 6.02489 19.5231 5.77996 20.0139 5.53503C21.2409 5.29009 22.4679 5.2901 23.4496 5.04517C23.695 5.2901 23.4496 5.53504 23.2042 5.77997C21.9771 6.26984 20.7501 6.75969 19.523 6.75969Z" fill="#494949"/>
<path d="M40.1372 21.9457C41.1188 20.4761 41.8551 19.7412 42.5913 18.7615C42.8367 18.5166 43.0822 18.5166 43.3276 18.5166C42.8367 19.7413 42.1005 20.9659 41.1188 21.7007C41.3642 21.7007 40.8734 21.7007 40.1372 21.9457Z" fill="#494949"/>
<path d="M16.8236 27.0889C16.5782 27.3339 16.5782 27.5788 16.3328 27.5788C14.8604 27.5788 13.8787 26.5991 13.6333 25.1295C13.6333 25.1295 13.6333 25.1295 13.8787 24.8845C14.3695 25.3744 14.8603 25.8643 15.3511 26.1092C15.5965 26.5991 16.0874 26.5991 16.8236 27.0889Z" fill="#494949"/>
<path d="M28.603 20.7205C28.603 19.4959 28.8484 18.5161 29.3392 17.5364C29.83 18.5161 30.0755 19.2509 29.5846 19.9857C29.5846 20.2306 29.0938 20.2307 28.603 20.7205Z" fill="#494949"/>
<path d="M19.7687 20.9658C20.2595 21.7006 20.9957 22.1905 21.4865 22.9253V23.4152C21.4865 23.4152 21.2411 23.6601 20.9957 23.4152C20.2595 22.9253 19.5232 22.1905 19.2778 21.2107C19.5232 20.9658 19.7687 20.9658 19.7687 20.9658Z" fill="#494949"/>
<path d="M16.8237 22.4351C17.56 22.9249 18.0508 23.4148 18.787 24.1496C18.787 24.1496 18.787 24.3946 18.787 24.6395L18.5416 24.8844H18.2962C17.3146 24.3945 16.8237 23.6597 16.8237 22.4351Z" fill="#494949"/>
<path d="M40.3825 17.2916C40.6279 18.2713 39.8917 19.0061 39.1554 19.496C38.91 19.7409 38.6646 19.9858 38.1738 19.7409C38.1738 19.496 38.1738 19.496 38.1738 19.2511C38.9101 18.7612 39.1554 17.5365 40.1371 17.0466C40.1371 17.2916 40.3825 17.2916 40.3825 17.2916Z" fill="#494949"/>
<path d="M26.6397 17.7815C26.6397 18.7612 26.8851 19.496 26.8851 20.4758C26.3943 20.2308 26.1489 20.2308 25.9035 20.2308C25.6581 19.496 25.4127 18.7612 25.9035 18.0264C26.1489 17.7815 26.3943 17.7815 26.6397 17.7815Z" fill="#494949"/>
<path d="M35.9654 17.0466C36.2108 18.0264 35.4746 19.0061 34.7384 19.7409C34.493 18.5162 34.493 18.5162 35.9654 17.0466Z" fill="#494949"/>
<path d="M22.7133 19.7412C23.4495 20.2311 24.1858 20.476 23.695 21.4557H23.4496C22.4679 21.4557 22.7133 20.7209 22.7133 19.7412Z" fill="#494949"/>
<path d="M9.46123 24.8846C9.21583 25.3745 9.21587 25.6195 8.97046 25.8644C8.72505 26.1093 8.23418 26.1093 7.98877 25.6194C7.98877 25.3745 7.98878 24.8846 8.23419 24.8846C8.4796 24.6397 8.72501 24.6397 9.46123 24.8846Z" fill="#494949"/>
<path d="M5.78014 26.1091C5.78014 26.354 5.53472 26.599 5.53472 26.599C5.28931 26.599 5.28935 26.599 5.04395 26.599C5.04395 26.3541 5.04396 26.1091 5.28937 26.1091C5.04396 25.8642 5.28932 26.1091 5.78014 26.1091Z" fill="#494949"/>
<path d="M13.3878 13.3725C13.1424 13.1276 13.1424 13.1276 12.897 12.8826L13.1424 12.6377C13.3878 12.6377 13.3878 12.6377 13.6332 12.8826C13.6332 12.8826 13.6332 13.1276 13.3878 13.3725Z" fill="#494949"/>
<path d="M20.9955 30.518C20.9955 30.763 21.241 31.2529 21.241 31.4978C21.241 32.7225 21.4863 33.9471 21.4863 35.4167C21.4863 35.6616 21.241 35.9066 20.9955 35.9066C20.7501 35.9066 20.5047 35.6616 20.2593 35.4167C20.2593 33.9471 20.2593 32.2326 20.2593 30.763L20.5047 30.518C20.7501 30.2731 20.7501 30.518 20.9955 30.518Z" fill="#494949"/>
<path d="M22.2226 42.0298C22.2226 42.2747 22.468 42.2747 22.2226 42.0298C22.468 43.9893 22.7134 45.9487 22.7134 47.9082C22.7134 48.1532 22.468 48.1531 22.468 48.3981C22.2226 48.1531 21.9772 48.1532 21.9772 47.9082C21.7318 46.1937 21.7317 44.4791 21.4863 42.7646C21.4863 42.2747 21.7318 42.0298 22.2226 42.0298Z" fill="#494949"/>
<path d="M23.2041 26.5989C23.4495 26.5989 23.6949 26.8438 23.6949 27.0887C23.6949 28.8033 23.6949 30.2729 23.6949 31.9874C23.6949 32.2323 23.4495 32.2323 23.2041 32.4773L22.9587 32.2323C22.7133 30.5178 22.4678 28.8033 22.9587 26.8438C22.9587 26.8438 23.2041 26.8438 23.2041 26.5989Z" fill="#494949"/>
<path d="M24.4311 40.8052C24.4311 41.295 24.6765 41.54 24.6765 41.7849C24.6765 42.7647 24.4311 43.7444 24.4311 44.7241C23.6948 43.0096 23.6948 42.2748 23.9402 41.2951C23.6948 41.0501 23.9403 41.0501 24.4311 40.8052Z" fill="#494949"/>
<path d="M24.186 36.1517C24.186 36.3967 23.9406 36.6416 23.9406 36.6416C23.6952 36.6416 23.4498 36.6416 23.4498 36.3967C23.2044 36.1517 23.4498 35.9068 23.9406 35.6619C23.6952 35.9068 23.9406 35.9068 24.186 36.1517Z" fill="#494949"/>
</g>
<defs>
<clipPath id="clip0">
<rect width="141" height="116" fill="white"/>
</clipPath>
</defs>
</svg>
