<svg width="26" height="25" viewBox="0 0 26 25" fill="none" xmlns="http://www.w3.org/2000/svg">
<path d="M13.0029 6.01073C9.46668 6.01073 6.61436 8.74482 6.61436 12.1344C6.61436 15.5241 9.46668 18.2582 13.0029 18.2582C16.5391 18.2582 19.3914 15.5241 19.3914 12.1344C19.3914 8.74482 16.5391 6.01073 13.0029 6.01073ZM13.0029 16.1157C10.7177 16.1157 8.84951 14.3302 8.84951 12.1344C8.84951 9.93865 10.7121 8.15323 13.0029 8.15323C15.2936 8.15323 17.1563 9.93865 17.1563 12.1344C17.1563 14.3302 15.2881 16.1157 13.0029 16.1157ZM21.1429 5.76024C21.1429 6.55435 20.4756 7.18858 19.6528 7.18858C18.8243 7.18858 18.1626 6.54902 18.1626 5.76024C18.1626 4.97146 18.8299 4.33191 19.6528 4.33191C20.4756 4.33191 21.1429 4.97146 21.1429 5.76024ZM25.3741 7.20989C25.2796 5.29657 24.8236 3.60175 23.3613 2.2054C21.9046 0.80904 20.1365 0.372013 18.1404 0.27608C16.0832 0.164158 9.91704 0.164158 7.85981 0.27608C5.8693 0.366683 4.1012 0.803711 2.6389 2.20007C1.17659 3.59642 0.726227 5.29124 0.626146 7.20456C0.509384 9.17652 0.509384 15.087 0.626146 17.059C0.720667 18.9723 1.17659 20.6671 2.6389 22.0635C4.1012 23.4599 5.86374 23.8969 7.85981 23.9928C9.91704 24.1047 16.0832 24.1047 18.1404 23.9928C20.1365 23.9022 21.9046 23.4652 23.3613 22.0635C24.8181 20.6671 25.274 18.9723 25.3741 17.059C25.4908 15.087 25.4908 9.18185 25.3741 7.20989ZM22.7164 19.1749C22.2827 20.2195 21.4431 21.0242 20.3478 21.4453C18.7075 22.0688 14.8155 21.9249 13.0029 21.9249C11.1903 21.9249 7.29269 22.0635 5.65802 21.4453C4.56824 21.0296 3.72867 20.2248 3.28943 19.1749C2.6389 17.6026 2.78902 13.8719 2.78902 12.1344C2.78902 10.397 2.64446 6.66094 3.28943 5.09404C3.72311 4.04944 4.56268 3.24467 5.65802 2.82363C7.29825 2.20007 11.1903 2.34397 13.0029 2.34397C14.8155 2.34397 18.7131 2.2054 20.3478 2.82363C21.4375 3.23934 22.2771 4.04411 22.7164 5.09404C23.3669 6.66627 23.2168 10.397 23.2168 12.1344C23.2168 13.8719 23.3669 17.608 22.7164 19.1749Z" fill="#180004"/>
</svg>
