<svg width="12" height="11" viewBox="0 0 12 11" fill="none" xmlns="http://www.w3.org/2000/svg">
<path d="M6.25576 2.81966C4.73114 2.81966 3.50138 4.01639 3.50138 5.50007C3.50138 6.98375 4.73114 8.18048 6.25576 8.18048C7.78039 8.18048 9.01015 6.98375 9.01015 5.50007C9.01015 4.01639 7.78039 2.81966 6.25576 2.81966ZM6.25576 7.24269C5.27051 7.24269 4.46505 6.46119 4.46505 5.50007C4.46505 4.53895 5.26812 3.75745 6.25576 3.75745C7.24341 3.75745 8.04647 4.53895 8.04647 5.50007C8.04647 6.46119 7.24101 7.24269 6.25576 7.24269ZM9.76527 2.71001C9.76527 3.0576 9.47761 3.33521 9.12282 3.33521C8.76564 3.33521 8.48037 3.05527 8.48037 2.71001C8.48037 2.36476 8.76803 2.08482 9.12282 2.08482C9.47761 2.08482 9.76527 2.36476 9.76527 2.71001ZM11.5895 3.34454C11.5488 2.50706 11.3522 1.76522 10.7218 1.15402C10.0937 0.542821 9.33138 0.351529 8.47078 0.309539C7.58382 0.260549 4.92532 0.260549 4.03835 0.309539C3.18015 0.349197 2.41784 0.540488 1.78738 1.15169C1.15691 1.76289 0.962742 2.50473 0.919592 3.34221C0.869251 4.20535 0.869251 6.79245 0.919592 7.6556C0.960344 8.49308 1.15691 9.23492 1.78738 9.84612C2.41784 10.4573 3.17776 10.6486 4.03835 10.6906C4.92532 10.7396 7.58382 10.7396 8.47078 10.6906C9.33138 10.6509 10.0937 10.4597 10.7218 9.84612C11.3498 9.23492 11.5464 8.49308 11.5895 7.6556C11.6399 6.79245 11.6399 4.20769 11.5895 3.34454ZM10.4437 8.58173C10.2567 9.03896 9.89472 9.39122 9.42247 9.57551C8.71529 9.84845 7.03725 9.78547 6.25576 9.78547C5.47428 9.78547 3.79384 9.84612 3.08906 9.57551C2.61921 9.39355 2.25723 9.0413 2.06785 8.58173C1.78738 7.89355 1.8521 6.26057 1.8521 5.50007C1.8521 4.73957 1.78978 3.10426 2.06785 2.41841C2.25483 1.96118 2.61681 1.60892 3.08906 1.42463C3.79623 1.15169 5.47428 1.21467 6.25576 1.21467C7.03725 1.21467 8.71769 1.15402 9.42247 1.42463C9.89232 1.60659 10.2543 1.95884 10.4437 2.41841C10.7241 3.10659 10.6594 4.73957 10.6594 5.50007C10.6594 6.26057 10.7241 7.89588 10.4437 8.58173Z" fill="#F2CD84"/>
</svg>
