<svg width="12" height="11" viewBox="0 0 12 11" fill="none" xmlns="http://www.w3.org/2000/svg">
<path d="M6.25576 2.81965C4.73114 2.81965 3.50138 4.01639 3.50138 5.50006C3.50138 6.98374 4.73114 8.18048 6.25576 8.18048C7.78039 8.18048 9.01015 6.98374 9.01015 5.50006C9.01015 4.01639 7.78039 2.81965 6.25576 2.81965ZM6.25576 7.24268C5.27051 7.24268 4.46505 6.46119 4.46505 5.50006C4.46505 4.53894 5.26812 3.75744 6.25576 3.75744C7.24341 3.75744 8.04647 4.53894 8.04647 5.50006C8.04647 6.46119 7.24101 7.24268 6.25576 7.24268ZM9.76527 2.71001C9.76527 3.0576 9.47761 3.3352 9.12282 3.3352C8.76564 3.3352 8.48037 3.05526 8.48037 2.71001C8.48037 2.36475 8.76803 2.08481 9.12282 2.08481C9.47761 2.08481 9.76527 2.36475 9.76527 2.71001ZM11.5895 3.34453C11.5488 2.50705 11.3522 1.76521 10.7218 1.15401C10.0937 0.542813 9.33138 0.351522 8.47078 0.309531C7.58382 0.260542 4.92532 0.260542 4.03835 0.309531C3.18015 0.349189 2.41784 0.54048 1.78738 1.15168C1.15691 1.76288 0.962742 2.50472 0.919592 3.3422C0.869251 4.20535 0.869251 6.79245 0.919592 7.65559C0.960344 8.49307 1.15691 9.23491 1.78738 9.84611C2.41784 10.4573 3.17776 10.6486 4.03835 10.6906C4.92532 10.7396 7.58382 10.7396 8.47078 10.6906C9.33138 10.6509 10.0937 10.4596 10.7218 9.84611C11.3498 9.23491 11.5464 8.49307 11.5895 7.65559C11.6399 6.79245 11.6399 4.20768 11.5895 3.34453ZM10.4437 8.58172C10.2567 9.03896 9.89472 9.39121 9.42247 9.57551C8.71529 9.84845 7.03725 9.78546 6.25576 9.78546C5.47428 9.78546 3.79384 9.84611 3.08906 9.57551C2.61921 9.39355 2.25723 9.04129 2.06785 8.58172C1.78738 7.89354 1.8521 6.26056 1.8521 5.50006C1.8521 4.73956 1.78978 3.10425 2.06785 2.4184C2.25483 1.96117 2.61681 1.60891 3.08906 1.42462C3.79623 1.15168 5.47428 1.21467 6.25576 1.21467C7.03725 1.21467 8.71769 1.15401 9.42247 1.42462C9.89232 1.60658 10.2543 1.95884 10.4437 2.4184C10.7241 3.10659 10.6594 4.73956 10.6594 5.50006C10.6594 6.26056 10.7241 7.89587 10.4437 8.58172Z" fill="#180004"/>
</svg>
