<svg width="13" height="8" viewBox="0 0 13 8" fill="none" xmlns="http://www.w3.org/2000/svg">
<path d="M5.99312 0.241395L0.208716 6.09524C0.0695719 6.23605 0 6.40704 0 6.6082C0 6.80937 0.0695719 6.98036 0.208716 7.12117L0.864679 7.78501C1.00382 7.92582 1.17278 7.99623 1.37156 7.99623C1.57034 8.01634 1.7393 7.956 1.87844 7.81518L6.5 3.13814L11.1216 7.81518C11.2607 7.956 11.4297 8.01634 11.6284 7.99623C11.8272 7.99623 11.9962 7.92582 12.1353 7.78501L12.7913 7.12117C12.9304 6.98036 13 6.80937 13 6.6082C13 6.40704 12.9304 6.23605 12.7913 6.09524L7.00688 0.241395C6.86774 0.0804648 6.69878 0 6.5 0C6.30122 0 6.13226 0.0804648 5.99312 0.241395Z" fill="#666666"/>
</svg>
