<svg width="13" height="8" viewBox="0 0 13 8" fill="none" xmlns="http://www.w3.org/2000/svg">
<path d="M5.99312 7.75861L0.208716 1.90476C0.0695719 1.76395 0 1.59296 0 1.3918C0 1.19063 0.0695719 1.01964 0.208716 0.878831L0.864679 0.214993C1.00382 0.0741788 1.17278 0.00377181 1.37156 0.00377181C1.57034 -0.0163445 1.7393 0.0440044 1.87844 0.184818L6.5 4.86186L11.1216 0.184818C11.2607 0.0440044 11.4297 -0.0163445 11.6284 0.00377181C11.8272 0.00377181 11.9962 0.0741788 12.1353 0.214993L12.7913 0.878831C12.9304 1.01964 13 1.19063 13 1.3918C13 1.59296 12.9304 1.76395 12.7913 1.90476L7.00688 7.75861C6.86774 7.91954 6.69878 8 6.5 8C6.30122 8 6.13226 7.91954 5.99312 7.75861Z" fill="#666666"/>
</svg>
