<svg width="8" height="8" viewBox="0 0 8 8" fill="none" xmlns="http://www.w3.org/2000/svg">
<path d="M0.5 4.5H6.43L4.615 6.68C4.57298 6.73056 4.54132 6.7889 4.52185 6.85169C4.50237 6.91448 4.49545 6.9805 4.50149 7.04596C4.51368 7.17818 4.57789 7.30013 4.68 7.385C4.78211 7.46987 4.91375 7.5107 5.04596 7.49851C5.17817 7.48632 5.30013 7.42211 5.385 7.32L7.885 4.32C7.90182 4.29614 7.91686 4.27107 7.93 4.245C7.93 4.22 7.955 4.205 7.965 4.18C7.98766 4.12267 7.99953 4.06164 8 4C7.99953 3.93835 7.98766 3.87733 7.965 3.82C7.965 3.795 7.94 3.78 7.93 3.755C7.91686 3.72893 7.90182 3.70386 7.885 3.68L5.385 0.679999C5.33799 0.623558 5.27912 0.578168 5.21258 0.547057C5.14603 0.515947 5.07346 0.49988 5 0.499999C4.88317 0.499771 4.76996 0.540458 4.68 0.614999C4.62937 0.656974 4.58752 0.708524 4.55684 0.766697C4.52617 0.824871 4.50727 0.888525 4.50123 0.954013C4.49519 1.0195 4.50213 1.08554 4.52166 1.14834C4.54118 1.21114 4.5729 1.26947 4.615 1.32L6.43 3.5H0.5C0.367392 3.5 0.240215 3.55268 0.146447 3.64645C0.0526785 3.74021 0 3.86739 0 4C0 4.13261 0.0526785 4.25978 0.146447 4.35355C0.240215 4.44732 0.367392 4.5 0.5 4.5Z" fill="#F2CD84"/>
</svg>
