<svg width="12" height="12" viewBox="0 0 12 12" fill="none" xmlns="http://www.w3.org/2000/svg">
<path d="M2.25062 8.25053H3C3.82852 8.25053 4.50124 7.57782 4.50124 6.74929V6.26702C4.16983 5.87378 3.9324 5.40634 3.78401 4.91417C3.76917 4.83008 3.68755 4.79051 3.63561 4.73363C3.34872 4.44674 3.29184 3.96199 3.50701 3.61821C3.53669 3.56627 3.58862 3.51928 3.58615 3.45498C3.58615 3.01475 3.58368 2.57452 3.58615 2.13429C3.59852 1.60255 3.74938 1.05102 4.12036 0.657783C4.41962 0.341213 4.83265 0.150776 5.25804 0.06916C5.79472 -0.0322414 6.35861 -0.027295 6.89035 0.106258C7.35284 0.222499 7.78566 0.492078 8.05276 0.892738C8.29019 1.24146 8.39406 1.66438 8.41138 2.07988C8.4188 2.52753 8.41385 2.97518 8.41385 3.4253C8.40396 3.51434 8.48063 3.57617 8.51525 3.65036C8.71805 4.01887 8.62902 4.52093 8.30256 4.78804C8.22094 4.84492 8.20363 4.9488 8.17395 5.03783C8.03298 5.48054 7.79555 5.89109 7.49876 6.24723V6.74435C7.49876 7.57287 8.17148 8.24558 9 8.24558H9.74938C9.74938 8.24558 11.1096 8.62151 12 10.4962V11.2456C12 11.6611 11.6636 11.995 11.2506 11.995H0.749382C0.333883 11.995 0 11.6586 0 11.2456V10.4962C0.890355 8.62398 2.25062 8.25053 2.25062 8.25053Z" fill="#B0B0B0"/>
</svg>
