<svg width="355" height="359" viewBox="0 0 355 359" fill="none" xmlns="http://www.w3.org/2000/svg">
<path d="M17.4454 359L16.8785 348.84L8.69883 349.134L10.1566 222.645L0.0332031 32.8372L12.3433 31.6591L12.5052 14.2834L142.814 19.4372L348.602 0L348.845 27.3888L355 27.6834L353.299 321.304L351.113 321.598L351.275 340.005L136.011 345.895L17.4454 359ZM18.0933 348.84L18.4983 356.644L110.176 346.336L18.0933 348.84ZM11.1284 241.346L9.91364 346.925L16.7975 346.778L11.1284 241.346ZM11.3714 222.498L18.0124 346.631L136.092 343.391L349.979 319.389L347.711 29.5976L142.895 21.646L13.5581 33.7207L11.3714 222.498ZM350.06 321.598L162.008 342.802L350.222 337.648L350.06 321.598ZM348.926 29.5976L351.194 319.242L352.165 319.095L353.785 29.7449L348.926 29.5976ZM1.40999 34.8987L10.3996 203.797L12.3433 33.8679L1.40999 34.8987ZM13.801 16.4922L13.639 31.5119L126.373 20.9098L13.801 16.4922ZM159.497 20.0263L347.711 27.3888L347.549 2.35603L159.497 20.0263Z" fill="#F2CD84"/>
</svg>
