<svg width="20" height="20" viewBox="0 0 20 20" fill="none" xmlns="http://www.w3.org/2000/svg">
<path d="M14.4998 18.3333C11.0976 18.3289 7.83593 16.9754 5.43017 14.5696C3.02441 12.1638 1.67091 8.90219 1.6665 5.49993C1.6665 4.48327 2.07037 3.50825 2.78926 2.78936C3.50815 2.07047 4.48317 1.6666 5.49984 1.6666C5.71512 1.66496 5.93004 1.6845 6.1415 1.72493C6.34593 1.75518 6.54689 1.80542 6.7415 1.87493C6.87838 1.92296 7.00035 2.00588 7.09535 2.11549C7.19035 2.22511 7.25509 2.35762 7.28317 2.49993L8.42484 7.49993C8.45561 7.63565 8.4519 7.77692 8.41406 7.91084C8.37621 8.04475 8.30543 8.16706 8.20817 8.2666C8.09984 8.38327 8.0915 8.3916 7.0665 8.92493C7.88733 10.7256 9.3275 12.1717 11.1248 12.9999C11.6665 11.9666 11.6748 11.9583 11.7915 11.8499C11.891 11.7527 12.0133 11.6819 12.1473 11.644C12.2812 11.6062 12.4225 11.6025 12.5582 11.6333L17.5582 12.7749C17.6959 12.8069 17.8233 12.8734 17.9282 12.9681C18.0332 13.0629 18.1123 13.1828 18.1582 13.3166C18.2285 13.5144 18.2815 13.7179 18.3165 13.9249C18.35 14.1344 18.3668 14.3462 18.3665 14.5583C18.3511 15.5706 17.9359 16.5357 17.2115 17.243C16.487 17.9502 15.5122 18.3422 14.4998 18.3333Z" fill="white"/>
</svg>
