<svg width="247" height="248" viewBox="0 0 247 248" fill="none" xmlns="http://www.w3.org/2000/svg">
<path d="M12.1161 248L11.7217 240.981L6.02989 241.185L7.04426 153.805L0 22.6842L8.56582 21.8704L8.67853 9.8671L99.3523 13.4274L242.548 0L242.717 18.9204L247 19.1239L245.817 221.959L244.295 222.162L244.408 234.878L94.6185 238.947L12.1161 248ZM12.567 240.981L12.8487 246.372L76.6416 239.252L12.567 240.981ZM7.72051 166.724L6.8752 239.659L11.6653 239.557L7.72051 166.724ZM243.562 222.162L112.708 236.811L243.675 233.25L243.562 222.162ZM242.773 20.4463L244.351 220.535L245.028 220.433L246.155 20.548L242.773 20.4463ZM0.95802 24.1083L7.21332 140.784L8.56582 23.3962L0.95802 24.1083ZM9.5802 11.3929L9.46749 21.7687L87.9124 14.4446L9.5802 11.3929ZM110.961 13.8343L241.928 18.9204L241.815 1.62756L110.961 13.8343Z" fill="#111111"/>
<path d="M12.1161 248L11.7217 240.981L6.02989 241.185L7.04426 153.805L0 22.6842L8.56582 21.8704L8.67853 9.8671L99.3523 13.4274L242.548 0L242.717 18.9204L247 19.1239L245.817 221.959L244.295 222.162L244.408 234.878L94.6185 238.947L12.1161 248ZM12.567 240.981L12.8487 246.372L76.6416 239.252L12.567 240.981ZM7.72051 166.724L6.8752 239.659L11.6653 239.557L7.72051 166.724ZM7.88957 153.703L12.5106 239.455L94.6749 237.217L243.506 220.637L241.928 20.4463L99.4086 14.9532L9.41113 23.2945L7.88957 153.703ZM243.562 222.162L112.708 236.811L243.675 233.25L243.562 222.162ZM242.773 20.4463L244.351 220.535L245.028 220.433L246.155 20.548L242.773 20.4463ZM0.95802 24.1083L7.21332 140.784L8.56582 23.3962L0.95802 24.1083ZM9.5802 11.3929L9.46749 21.7687L87.9124 14.4446L9.5802 11.3929ZM110.961 13.8343L241.928 18.9204L241.815 1.62756L110.961 13.8343Z" fill="#F2CD84"/>
</svg>
