<svg width="12" height="20" viewBox="0 0 12 20" fill="none" xmlns="http://www.w3.org/2000/svg">
<path d="M0.362093 10.7798L9.14286 19.6789C9.35408 19.893 9.61056 20 9.91231 20C10.2141 20 10.4705 19.893 10.6818 19.6789L11.6775 18.6697C11.8887 18.4557 11.9943 18.1957 11.9943 17.8899C12.0245 17.5841 11.934 17.3242 11.7228 17.1101L4.70721 10L11.7228 2.88991C11.934 2.67584 12.0245 2.4159 11.9943 2.11009C11.9943 1.80428 11.8887 1.54434 11.6775 1.33027L10.6818 0.3211C10.4705 0.107033 10.2141 -7.80664e-08 9.91231 -9.1256e-08C9.61056 -1.04446e-07 9.35408 0.107033 9.14286 0.3211L0.362093 9.22018C0.120697 9.43425 4.50481e-07 9.69419 4.37114e-07 10C4.23746e-07 10.3058 0.120697 10.5657 0.362093 10.7798Z" fill="#494949"/>
</svg>
