<svg width="27" height="30" viewBox="0 0 27 30" fill="none" xmlns="http://www.w3.org/2000/svg">
<path d="M5.68421 24.167C8.81905 24.167 11.3684 21.551 11.3684 18.3341V3.54021L24.1579 8.31158V19.1463C23.298 18.6206 22.3168 18.3401 21.3158 18.3341C18.1809 18.3341 15.6316 20.9502 15.6316 24.167C15.6316 27.3839 18.1809 30 21.3158 30C24.4506 30 27 27.3839 27 24.167V7.29081C27.0002 6.99162 26.9105 6.69964 26.7432 6.45462C26.5759 6.2096 26.3391 6.02345 26.0649 5.92152L10.4334 0.0885584C10.2188 0.00805905 9.98843 -0.018102 9.76188 0.0122976C9.53533 0.0426972 9.31928 0.128759 9.13207 0.263173C8.94487 0.397587 8.79205 0.576381 8.68659 0.784368C8.58113 0.992355 8.52615 1.22339 8.52632 1.45785V13.3133C7.66639 12.7876 6.68518 12.5072 5.68421 12.5011C2.54937 12.5011 0 15.1172 0 18.3341C0 21.551 2.54937 24.167 5.68421 24.167Z" fill="#F2CD84"/>
</svg>
