<svg width="12" height="8" viewBox="0 0 12 8" fill="none" xmlns="http://www.w3.org/2000/svg">
<path fill-rule="evenodd" clip-rule="evenodd" d="M10.1712 5.49367C10.1712 5.49367 11.0835 6.5158 11.3091 6.98879C11.3135 6.99561 11.3169 7.00317 11.3193 7.01119C11.4112 7.18592 11.4338 7.32289 11.3886 7.42402C11.3125 7.59107 11.0547 7.67491 10.9672 7.68195H9.35493C9.24267 7.68195 9.00912 7.64867 8.72479 7.42594C8.5076 7.25377 8.29154 6.97023 8.08224 6.69309C7.76971 6.28155 7.49949 5.92441 7.22588 5.92441C7.19132 5.92433 7.157 5.93082 7.12434 5.94361C6.9173 6.01786 6.65441 6.35259 6.65441 7.24417C6.65441 7.52322 6.46035 7.68195 6.32439 7.68195H5.58593C5.33433 7.68195 4.0244 7.58211 2.86284 6.19259C1.43952 4.49137 0.161189 1.07869 0.148778 1.04861C0.0692343 0.827796 0.236219 0.707469 0.416743 0.707469H2.04484C2.26316 0.707469 2.33425 0.857238 2.38389 0.991646C2.44143 1.14589 2.65468 1.76289 3.00444 2.45605C3.57083 3.5838 3.91891 4.0427 4.19703 4.0427C4.24928 4.04288 4.30065 4.02742 4.34596 3.9979C4.70926 3.77133 4.64157 2.29924 4.62464 1.99586C4.62464 1.93698 4.62408 1.33855 4.43791 1.04925C4.30478 0.841877 4.07799 0.761232 3.94091 0.731791C3.97758 0.671627 4.05543 0.579462 4.15528 0.525059C4.40407 0.384251 4.85368 0.36377 5.29992 0.36377H5.54757C6.0316 0.37145 6.15684 0.406652 6.33285 0.457215C6.68713 0.55322 6.6939 0.813716 6.66287 1.70081C6.65385 1.95426 6.64425 2.23972 6.64425 2.57574C6.64425 2.64742 6.64143 2.72743 6.64143 2.80871C6.63072 3.26378 6.61661 3.77645 6.89981 3.98702C6.93654 4.01298 6.97895 4.02673 7.02223 4.0267C7.12039 4.0267 7.4143 4.0267 8.21143 2.47461C8.56119 1.78913 8.83198 0.980765 8.8506 0.919962C8.86639 0.88604 8.91378 0.790674 8.97132 0.752272C9.01225 0.727563 9.0581 0.71522 9.10446 0.71643H11.0197C11.2284 0.71643 11.37 0.752272 11.3977 0.841877C11.4439 0.987166 11.3886 1.43071 10.5142 2.77223C10.367 2.9956 10.2378 3.18889 10.1244 3.35786C9.33181 4.53809 9.33181 4.59761 10.1712 5.49367Z" fill="#F2CD84"/>
</svg>
