<svg width="286" height="160" viewBox="0 0 286 160" fill="none" xmlns="http://www.w3.org/2000/svg">
<g clip-path="url(#clip0)">
<path d="M174.106 35.0214C173.271 37.1097 172.017 38.7803 171.181 40.451C171.181 40.8686 171.181 41.2863 171.181 41.7039C172.017 42.5392 172.853 43.7922 173.688 44.6275C174.106 45.0451 174.942 44.6275 175.36 44.2098C176.196 43.3745 177.031 42.5392 177.449 41.7039C178.285 39.198 179.121 36.2744 178.703 33.3509C178.703 32.5156 178.285 31.6802 177.867 30.8449C177.867 30.8449 177.031 30.4273 176.614 30.8449C175.778 32.0979 174.942 33.7685 174.106 35.0214ZM161.57 62.1689C162.406 60.9159 163.242 60.0806 164.495 59.663C165.749 58.8277 166.585 57.9924 167.421 57.1571C168.256 56.7394 168.256 55.0688 169.928 55.0688C169.51 55.4865 169.51 55.9041 169.51 56.3218C169.51 56.3218 169.51 56.7394 169.092 56.7394C168.674 57.9924 169.092 58.41 170.346 59.2453C170.763 59.663 171.599 59.2453 172.017 60.0806C172.017 60.4983 171.599 60.4983 169.928 60.4983C169.092 60.4983 168.256 60.0806 167.421 60.0806C167.003 60.0806 166.585 60.4983 166.585 60.9159C166.585 61.3336 166.585 61.7513 167.003 62.1689L167.421 62.5866C173.271 65.5102 179.121 65.0925 184.971 61.3336L185.389 60.9159C186.224 60.0806 186.224 57.9923 184.971 57.5747C184.553 57.157 183.717 56.7394 183.299 56.7394C182.046 56.3217 180.792 56.3218 179.539 56.3218C178.703 56.3218 178.285 55.4865 178.285 55.0688C178.285 54.6512 178.703 53.8158 179.121 53.3982C179.956 52.9805 180.792 52.5629 181.21 52.1453C182.464 50.8923 183.717 50.057 184.971 48.804C185.389 48.3864 185.389 47.551 185.807 47.1334C186.224 46.2981 185.389 45.4628 184.553 45.0451C182.046 44.6274 179.956 45.0451 177.867 47.1334C177.031 47.9687 176.196 49.2217 174.942 50.057C174.106 50.8923 172.853 50.4746 172.853 49.6393C172.435 49.2217 172.435 48.3864 172.435 47.9687C172.435 47.5511 172.017 47.1334 172.017 46.7158C171.181 45.0451 168.256 44.2098 167.003 45.4628C165.331 47.1334 164.078 49.2217 163.242 51.7276C162.824 52.9805 161.57 52.9805 160.735 51.7276C160.317 51.3099 160.317 50.8923 159.899 50.4746C159.063 49.2216 157.81 49.2216 156.556 49.2216C152.377 50.0569 151.124 51.7276 150.706 55.9041C150.706 57.5747 150.706 58.8277 150.288 60.4983C150.288 61.3336 150.288 62.1689 149.87 63.0042C149.87 63.8395 148.199 64.2571 147.781 63.8395C147.363 63.4218 146.945 63.0042 146.527 62.5866C145.692 61.7513 144.438 61.3336 143.602 61.7512C142.349 62.1689 141.931 63.4219 141.931 64.2572C141.931 65.5101 141.931 66.3455 141.931 67.5984C141.931 68.8514 142.349 69.6867 144.02 69.6867C146.945 70.1043 149.452 70.522 151.542 73.4455C152.377 74.6985 153.631 75.1162 154.885 75.1162C158.645 75.5338 162.824 75.9514 166.585 76.3691C169.51 76.3691 172.853 75.9515 175.778 75.1162C176.614 74.6985 177.867 74.2808 178.703 73.4455C179.956 72.6102 179.539 70.1043 178.285 69.6867C177.449 69.269 176.614 69.269 175.778 68.8514C174.942 68.4337 174.106 68.4337 173.271 67.5984C169.51 63.8395 165.749 63.0042 161.57 62.1689ZM192.91 70.9397C192.91 72.1926 192.91 73.4455 194.582 74.2808C195 74.2808 195 74.6985 195 75.1162C195 75.5338 194.164 75.9515 193.328 75.5338C192.492 75.1161 191.239 75.1161 189.985 74.2808C190.821 75.1161 191.239 75.9514 191.657 76.3691C190.403 77.6221 189.567 75.9515 188.732 75.9515C187.478 75.9515 186.642 75.5338 185.389 75.5338L184.971 75.9515V76.3691C186.224 77.6221 187.478 78.4574 189.149 79.7103C186.224 78.4574 183.299 77.6221 180.792 76.7868C180.374 76.3691 179.539 76.3691 178.703 76.3691C178.285 76.3691 177.449 76.7868 177.031 77.2045C177.031 77.2045 177.031 78.0397 177.031 78.4574C177.031 78.875 177.449 79.2927 177.867 79.2927C178.285 79.7104 178.285 80.128 177.867 80.5456H177.449C175.778 79.7103 174.524 78.8751 172.853 78.0397C172.017 77.6221 171.181 78.4574 171.599 79.2927C171.599 79.7104 172.017 80.128 171.181 80.5456C170.346 80.128 169.928 79.7104 169.092 79.2927C168.256 78.8751 167.838 78.4574 167.003 78.0397C166.585 78.0397 165.749 77.6221 165.331 78.0397C164.913 78.4574 164.913 79.2927 164.913 79.7103C164.913 80.5456 165.331 81.381 165.749 82.2163C168.256 85.9752 171.599 88.8987 175.778 90.5693C177.031 90.987 178.285 90.987 179.539 90.987C181.628 90.5693 182.881 89.3164 182.046 87.2281C182.046 86.8104 182.046 86.8104 181.628 86.8104C181.628 86.8104 181.628 86.3928 181.21 86.3928C180.792 85.9752 180.792 85.1398 181.21 84.7222C181.628 84.3045 182.464 84.3045 182.881 84.7222C186.224 87.2281 189.567 87.6458 193.328 87.2281C194.164 87.2281 195 86.8104 195.835 86.8104C197.089 86.3928 197.925 84.7222 197.089 83.4693C196.253 82.2163 195.417 81.381 195 80.128C195 80.128 195.417 79.2927 195.835 79.2927C197.507 79.2927 198.76 79.7104 200.432 80.128C204.193 80.5457 207.953 79.7104 210.878 77.2045C211.714 76.7868 211.714 74.6985 210.878 74.2808C210.043 73.8632 209.207 73.4456 208.789 73.0279C207.953 72.6103 206.7 72.1926 205.864 71.3573L205.446 70.9397C205.446 70.522 205.446 70.1043 205.864 69.6867C209.207 68.8514 211.296 67.1808 213.385 64.6749C214.221 63.8395 214.221 62.5865 214.639 61.7512C215.057 60.4983 214.221 59.2453 212.968 58.8277C211.714 58.41 210.46 58.41 209.207 59.2453C207.953 60.0807 206.7 60.9159 205.446 61.7512H205.028L204.61 61.3336C204.193 60.4983 204.193 59.663 203.775 58.8277C202.939 56.7394 200.432 55.4865 198.342 56.3218C196.671 57.1571 195 58.41 193.746 60.0806C192.91 61.3336 192.074 62.5865 191.239 63.8395C190.821 64.2571 189.567 64.2572 188.732 63.4219C188.314 62.5866 187.896 62.1689 187.478 60.9159C185.389 62.1689 183.717 63.4219 182.046 64.6749C181.21 65.0925 180.792 65.9278 181.21 66.7631C181.628 68.4337 181.628 69.6867 181.628 71.3573C181.628 71.7749 181.628 72.1926 182.464 72.1926C184.553 71.7749 187.06 71.3573 189.149 70.522C190.821 71.3573 191.657 70.9397 192.91 70.9397ZM195.835 13.3035C195.835 12.4682 195.835 11.6329 196.253 10.7975C196.671 9.54459 197.507 7.87398 197.925 6.62102C197.925 5.78571 197.925 4.95044 197.507 4.11514C197.507 3.69748 196.253 3.2798 195.835 3.69746C195.417 4.11511 195 4.1151 194.582 4.53275C194.164 5.36806 193.746 5.78571 192.91 6.62102C192.074 7.87398 191.239 7.874 190.403 7.0387C189.567 6.20339 189.149 4.95044 187.896 4.11514C187.478 4.11514 186.224 4.1151 186.224 4.53275C186.224 5.78571 185.807 6.62103 185.807 7.87399C186.224 9.5446 186.642 11.2152 187.06 12.8858C187.06 13.3035 187.06 14.1388 186.642 14.5565C186.224 14.9741 185.389 14.5564 184.971 14.1388C184.553 13.7211 184.135 13.7211 183.717 13.3035C182.881 12.8858 182.046 13.3035 181.628 14.1388C181.21 14.9741 180.792 16.2271 181.21 17.48C181.628 19.1506 182.046 20.4036 182.464 22.0742C182.881 22.9095 182.464 23.7448 181.21 24.1624C179.956 24.5801 179.539 25.4154 179.539 26.6684C179.539 27.9213 179.956 28.7567 180.374 30.0096C181.21 32.9332 181.628 35.8568 181.21 39.198C181.21 39.198 181.21 39.6157 181.628 39.6157C182.881 40.451 184.135 40.0333 185.389 40.451C186.642 40.8686 188.314 41.7039 189.567 42.1215C191.657 40.8686 193.328 39.198 194.582 37.5274C196.253 35.4391 197.925 32.9332 200.014 30.8449C200.432 30.4273 200.432 30.0096 200.432 29.5919C200.432 29.1743 200.432 28.7566 200.014 28.339C199.596 28.339 199.178 28.339 198.76 28.339C197.925 28.7566 197.507 29.5919 197.089 30.4272C196.671 30.8449 195.835 30.8449 195.417 31.2626C195.417 30.8449 195.417 30.8449 195.417 30.4272C195.417 29.1743 195.417 28.7567 194.164 28.7567C193.328 28.7567 192.492 28.7567 191.657 29.1743C192.075 28.339 192.91 27.5037 193.328 26.6684H192.91C194.582 26.6684 195.835 25.4154 197.089 24.9978C200.014 23.3272 202.103 20.8213 202.939 17.48C203.357 16.6447 202.939 15.8094 202.939 14.9741C202.939 13.7211 201.268 12.4682 200.014 12.8858C199.178 12.8858 198.342 13.3035 197.507 13.7211C197.089 13.7211 196.253 13.3035 195.835 13.3035ZM73.4011 108.528C74.2368 108.111 74.6547 108.111 75.4904 107.693C76.3262 108.528 77.5797 108.528 78.4155 108.528C84.2656 107.693 90.5335 106.858 96.3836 106.022C98.473 104.77 100.562 103.517 102.652 102.264C103.487 101.846 103.905 101.011 104.323 100.593C104.741 100.175 104.741 99.7577 104.323 99.34C104.323 98.9224 103.905 98.5047 103.487 98.5047C103.069 98.5047 102.234 98.5047 101.398 98.5047C99.3087 99.34 97.2194 100.175 95.5479 101.011C92.205 102.264 88.8621 103.934 85.5191 104.352C81.7584 105.187 78.4155 106.022 75.0725 107.693C75.0725 108.528 74.2368 108.528 73.4011 108.528C73.4011 108.946 73.4011 108.528 73.4011 108.528ZM143.602 109.364C147.363 109.364 148.199 111.87 149.452 114.793C150.706 115.211 152.377 115.629 153.631 116.046C155.302 116.881 156.974 117.299 158.228 118.134C159.481 118.97 159.899 119.805 159.899 121.476C159.899 122.311 159.899 122.729 159.899 123.564C159.899 124.399 160.317 125.235 161.153 125.652C161.988 126.07 163.242 126.07 164.495 126.487C165.749 126.905 167.421 127.74 168.674 128.576C170.763 129.829 171.181 133.17 169.51 134.841C168.674 136.094 167.838 136.929 166.585 137.346C164.913 138.182 162.824 138.599 161.153 139.017C159.899 139.435 158.645 140.27 158.228 141.523C157.81 142.358 157.392 142.776 156.556 143.611C155.302 144.864 153.631 145.7 151.96 145.7C149.452 145.7 146.527 145.7 144.02 144.864C143.184 144.447 141.931 144.029 140.677 144.029C139.424 144.864 138.17 145.7 136.916 146.535C135.245 147.37 133.574 147.788 131.902 146.535C129.813 145.282 127.723 144.029 125.634 142.776C123.127 141.105 121.455 138.182 120.202 135.258C119.784 134.005 118.948 133.588 117.695 133.588C117.277 133.588 117.277 133.588 116.859 133.588C113.516 133.588 111.009 131.499 109.337 128.993C108.084 126.488 107.248 123.982 107.666 121.476C107.666 120.223 108.084 119.387 108.084 118.134C108.084 117.717 108.084 116.464 107.666 116.464C103.487 113.123 98.8908 110.199 93.8764 108.946C92.6228 108.528 91.3693 108.528 90.1157 108.946C84.6834 110.617 79.2512 111.034 73.8189 112.287C68.3867 113.54 62.5367 113.958 56.6866 113.958C49.165 113.958 41.2256 113.958 33.704 115.211C32.4504 115.211 31.6147 115.629 30.3611 115.629C29.1075 116.046 27.8539 117.299 27.8539 117.717C28.2718 118.552 28.6896 119.387 29.1075 119.805C30.779 121.476 32.4504 122.729 34.5397 123.564C36.2112 124.399 38.3005 125.235 39.972 126.07C41.6434 126.905 43.3149 126.487 44.9863 125.652C45.8221 125.235 46.6578 124.399 47.9114 123.982C51.2543 121.893 54.5972 121.058 58.358 123.146C59.6116 123.982 60.8652 123.564 62.1188 123.146C62.9545 122.729 63.7902 122.311 64.6259 122.311C67.551 121.058 70.4761 121.058 73.4011 123.564C73.819 123.982 74.2369 123.982 74.6547 124.399C75.4904 124.399 77.1619 123.982 78.4155 123.564C80.5048 123.146 82.5941 123.564 85.1013 123.982C86.3549 124.399 87.6085 125.235 88.0264 126.487C88.0264 126.487 88.0263 126.905 88.4442 126.905C89.2799 128.576 90.5335 129.411 92.6228 129.829C93.8764 129.829 94.7122 130.246 95.9657 130.246C98.0551 130.664 99.7265 131.499 100.144 133.588C100.562 134.841 100.98 136.094 101.398 137.346C102.652 137.764 104.323 138.182 105.577 139.017C107.666 139.852 108.502 141.523 107.666 144.029C107.666 144.447 107.248 145.282 107.248 145.7C108.084 147.788 110.173 147.788 111.009 149.458C111.845 150.711 111.845 152.382 111.009 153.217C109.337 154.888 107.248 156.559 105.577 157.811C103.905 159.064 101.816 159.482 99.7266 159.064C98.473 159.064 97.2193 159.064 95.9657 158.647C94.2943 158.229 92.6228 158.647 90.9514 159.064C87.1906 160.735 83.012 159.9 79.2512 158.647C77.1619 158.229 75.0725 156.976 73.8189 156.559C71.7296 156.559 70.8939 157.811 69.6403 158.229C68.3867 159.064 67.1331 159.064 65.8795 158.229C63.3724 156.976 61.283 154.888 59.6116 152.8C58.358 151.129 56.6865 149.458 55.0151 147.788C51.6721 147.788 48.7471 147.37 46.24 145.7C43.3149 144.029 41.2255 141.523 40.3898 138.182C40.3898 137.346 39.972 136.511 39.972 135.676C39.5541 134.423 39.1363 133.588 37.8827 133.17C36.6291 132.335 35.3755 131.917 34.5397 131.499C31.1968 129.829 27.8539 128.158 24.511 126.487C20.7503 124.399 16.9895 122.729 14.0644 119.805C11.5572 117.717 8.63218 116.464 5.28926 116.046C3.61781 116.046 2.36419 115.629 0.692734 115.211C-4.7395 114.376 -10.1717 113.123 -15.6039 112.705C-20.2004 112.287 -24.7969 111.452 -28.9756 109.781C-30.647 108.946 -32.7364 108.946 -34.8257 108.111C-38.5865 106.858 -40.2579 103.934 -40.6758 100.175C-40.6758 99.3401 -39.4222 98.0871 -38.5865 98.0871C-36.915 98.5048 -35.6614 98.5048 -33.9899 98.9224C-24.3791 101.428 -14.3504 103.099 -4.32162 105.187C1.11061 105.605 6.12499 106.022 11.5572 106.022C15.7359 106.022 19.9145 106.023 24.0931 105.187C25.3467 104.77 26.1825 104.77 27.4361 104.352C29.1075 103.934 30.3611 103.517 31.1968 102.264C32.0325 101.428 32.8683 100.593 33.704 99.7577C34.9576 98.0871 35.3755 96.4165 35.3755 94.3282C35.3755 93.0752 34.5397 91.8223 33.2861 91.4046C31.6147 90.5693 29.5254 89.734 27.8539 88.8987C25.7646 88.0634 24.511 85.9751 24.0931 83.8869C24.9289 81.3809 23.2574 79.7103 21.1681 78.4574C20.3324 77.6221 19.4966 77.2044 18.6609 76.3691C16.9894 74.6985 15.7359 73.0279 16.5716 70.522C16.9894 69.269 16.5716 68.0161 15.7359 66.7631C15.318 66.3455 14.9001 65.5101 14.9001 65.0925C13.6466 62.5865 14.0644 60.4983 16.1538 58.4101C17.4073 57.1571 19.0788 56.3218 20.7502 57.1571C21.1681 57.1571 22.0038 57.5747 22.8395 57.5747C23.6753 57.9923 24.511 57.5747 25.3467 57.1571C26.1825 56.7394 27.0182 56.3218 27.8539 55.9041C29.9432 55.0688 31.6147 55.4865 32.4504 57.1571C34.1219 60.916 37.8826 62.1689 40.3898 64.6749C40.8077 65.0925 41.6434 64.2571 42.0613 63.8395C42.4792 63.4218 42.4791 62.5865 42.4791 61.7512C43.3149 62.5865 44.1506 63.4219 44.5685 64.2572C47.0756 67.5984 47.0756 68.0161 42.4791 68.8514C42.4791 68.8514 42.0613 68.8513 42.0613 69.269C41.2256 71.3573 41.6434 73.0279 42.0613 75.1162C42.4792 76.3691 43.3149 77.6221 43.7327 78.875C44.5685 80.5457 44.1506 80.9633 42.897 82.2163C41.2256 83.4692 41.2256 83.8869 42.0613 85.5575C42.4792 86.8105 43.3149 88.0634 43.7327 88.8987C42.0613 89.3163 40.8077 88.481 39.972 86.8104C39.5541 86.3928 39.5541 85.5575 39.1363 85.1398C38.7184 83.0516 37.8826 80.9633 39.5541 78.875C39.972 78.4574 39.972 77.2044 39.5541 76.3691C39.1362 74.2808 38.7184 72.6102 38.7184 70.522C38.7184 69.269 38.7184 68.4337 38.3005 67.1807C38.3005 66.3454 37.4648 65.5101 36.6291 65.0925C35.7933 64.6748 34.9576 65.0925 34.5397 65.9278C33.704 66.7631 33.2862 66.3454 32.8683 65.9278C32.8683 65.0925 32.8683 64.2572 32.4504 63.4219C32.4504 61.7513 31.6147 60.4983 30.779 59.2453C29.5254 57.5747 27.0182 57.5747 25.7646 59.663C25.3467 60.0806 25.3467 60.916 24.9289 61.3336C24.511 61.7513 23.6753 62.1689 23.2574 61.7512C22.4217 61.3336 22.0038 60.4983 21.1681 60.0806C20.7502 59.663 19.9145 59.2453 19.4966 59.2453C19.0788 58.8277 17.4073 59.2453 16.9895 60.0806C15.7359 62.5866 15.7359 64.6749 17.8252 66.7631C18.6609 68.0161 20.3324 68.4337 20.7502 70.1043C18.6609 73.4455 18.6609 73.8632 21.1681 75.9515C22.8396 77.2044 24.0931 78.4574 26.1825 79.2927C27.0182 79.7104 28.2718 79.7103 29.1075 80.5456C29.1075 80.9633 29.5254 80.9633 29.5254 80.9633C29.1075 83.4692 29.9432 85.1398 32.4504 85.9751C32.4504 85.9751 32.8683 85.9752 32.8683 86.3928C34.5398 87.2281 36.6291 88.0634 37.047 90.1517C37.047 90.5693 37.8827 90.5693 37.8827 90.987C39.1363 91.8223 40.3899 91.8223 41.2256 90.5693C41.6435 90.1517 42.0613 89.3163 42.4791 88.8987C42.897 88.8987 43.3149 89.3164 43.7327 89.3164C47.4935 88.8987 50.8364 87.6457 54.1793 85.9751L54.5972 85.5575V85.1398C54.5972 85.1398 54.5972 84.7222 54.1793 84.7222C53.3436 84.7222 52.9258 84.7222 52.09 84.7222C50.4186 84.3045 50.0007 84.3045 50.4186 82.6339C50.4186 81.7986 50.4186 80.9633 50.0007 80.128C49.165 79.2927 49.165 78.875 50.0007 77.6221C50.4186 76.7868 51.2543 76.3691 52.09 76.3691C52.5079 76.3691 52.9258 76.3691 53.3436 76.3691C54.5972 76.3691 55.0151 76.7868 55.8508 78.0397C56.2687 79.7104 57.1044 80.128 57.9402 79.7103C61.2831 79.2927 63.7902 77.6221 65.4617 74.6985C65.8795 73.8632 65.4617 72.1926 64.2081 72.1926C62.5367 71.7749 60.8652 71.7749 59.1937 73.4455C58.358 74.6985 57.1044 74.6985 55.4329 74.2808C54.5972 72.6102 54.5972 72.6103 52.9257 73.0279C53.3436 71.775 53.7615 70.9396 55.0151 71.3573C58.7758 71.7749 62.1187 69.6867 65.4617 68.8514C65.8795 68.8514 66.7153 68.0161 67.1332 67.5984C67.9689 66.7631 69.2224 65.9278 69.6403 64.6749C70.0582 63.0042 68.3867 62.5865 67.551 61.7512L67.1332 61.3336C67.551 60.4983 67.9689 59.663 68.8046 59.2453C70.0582 58.41 71.3118 57.5747 72.5654 56.7394C73.819 55.4864 75.0726 54.6512 76.3261 52.9805C76.3261 52.5629 75.9083 51.3099 75.4904 51.3099C74.6547 51.3099 74.2368 50.8922 73.4011 51.3099C71.7297 51.7276 70.0582 52.1452 68.3868 52.5629C67.9689 52.5629 67.1332 51.7276 67.1332 51.3099C66.7153 50.8922 67.1332 50.0569 67.1332 49.2216C67.1332 48.3863 67.551 47.5511 66.7153 46.7158C66.2974 46.2981 64.626 46.2981 63.7902 46.7158C62.9545 47.1334 62.1187 47.9687 61.283 48.804C60.8652 49.2217 60.4473 50.4746 60.0295 50.8923C58.7759 53.3982 57.1044 53.3982 55.8508 51.3099C55.433 50.8922 55.0151 50.057 54.5972 49.6393C53.7615 48.804 51.6722 48.804 51.2543 50.057C50.8364 50.8923 50.4186 52.1452 50.0007 52.9805C49.165 55.4865 49.5829 57.5747 49.5829 60.0806C49.5829 60.4983 48.7471 61.3336 47.9114 60.9159C47.4935 60.4983 46.6578 60.0806 46.24 60.0806C43.7328 58.8277 42.897 59.2453 41.6434 61.7512C41.2256 62.1689 41.2256 62.5865 41.2256 63.0042C41.2256 62.5865 40.8077 61.7513 40.8077 61.3336C41.2256 59.2453 42.0613 57.9924 44.1506 57.9924C46.6578 57.5747 46.6578 57.5747 47.4936 55.0688C47.9114 53.3982 48.3292 52.1452 48.7471 50.8923C49.165 50.057 49.5828 49.2217 50.0007 48.804C51.2543 47.5511 53.3436 46.2981 55.4329 47.551C55.8508 47.551 56.2687 47.9687 56.6866 48.3863C58.358 49.6393 59.6116 48.804 60.8652 47.551C61.7009 46.7157 62.5366 45.8804 63.3723 45.4628C64.2081 44.6275 65.4617 44.2098 67.1332 43.7922C68.8046 43.7922 70.0582 43.7922 70.8939 45.8805C71.3118 47.5511 72.5654 47.9687 74.2368 48.3863C75.4904 48.3863 76.744 48.804 77.9976 48.804C79.2512 49.2217 80.0869 50.4746 80.5048 51.7276C80.9227 54.2335 80.0869 55.9041 78.4155 57.5747C77.1619 58.8277 75.4904 59.663 74.2368 60.9159C74.2368 61.7512 74.2368 62.5866 74.2368 63.4219C74.2368 65.0925 73.819 66.3455 72.9832 67.5984C72.1475 68.4337 71.3118 69.269 70.8939 70.1043C70.0582 70.9396 69.6403 71.775 70.0582 73.0279C70.8939 75.1162 70.0582 76.7868 68.3868 78.4574C67.1332 79.2927 65.8795 80.5457 64.6259 81.381C62.5366 82.6339 61.283 84.3045 61.283 86.8104C61.283 87.6457 60.4473 88.481 59.6116 88.8987C58.358 89.734 57.1044 90.5693 55.4329 90.987C54.5972 91.4046 53.3436 91.4047 52.5079 91.8223C45.4042 94.3282 44.9863 94.7458 42.897 101.428C42.897 101.846 42.4792 102.681 42.0613 103.099C40.3899 106.858 41.2255 108.528 44.5685 110.199C42.897 110.199 41.6434 110.199 39.972 110.199C37.8827 109.781 36.6291 108.111 37.8827 106.44C39.1363 103.934 39.972 101.428 40.3898 98.9224C40.3898 98.5048 40.3899 98.0871 39.972 97.2518C39.5541 98.0871 39.1362 98.9224 38.3005 99.7577C37.0469 101.428 36.2112 103.099 34.9576 104.77C32.4504 108.111 29.1075 110.199 24.9289 110.617C23.2574 110.617 21.5859 111.034 19.4966 111.034C17.8252 111.034 16.1538 111.034 14.0644 111.034C6.96074 111.87 -0.56086 111.034 -7.66455 110.199C-15.1861 108.946 -22.2898 107.693 -29.3935 105.605C-31.4828 105.187 -33.5721 104.77 -35.6614 104.352C-36.0793 104.352 -36.4971 104.77 -36.4971 105.187C-36.4971 105.605 -36.4971 106.023 -36.4971 106.44C-34.8257 107.693 -33.1542 108.528 -31.0649 108.946C-25.2148 110.617 -18.9468 111.87 -13.0967 113.123C-5.57518 114.793 1.94638 116.464 9.88579 116.464C10.7215 116.464 11.1394 116.464 11.9751 116.464C13.2287 116.464 14.0644 116.881 14.9001 118.134C16.1537 120.64 17.8252 122.311 20.3324 123.564C26.6004 126.905 32.4504 131.082 39.1363 133.17C41.6435 134.005 43.3149 135.676 44.5685 137.764C45.4042 139.852 46.24 141.941 47.4936 143.611C47.9114 144.447 48.7471 145.282 49.5829 146.117C50.4186 146.953 51.6722 147.37 53.3436 146.953C57.1044 146.117 57.1044 146.117 59.1937 149.041C60.4473 150.711 61.7009 152.382 62.9545 153.635C63.7902 154.888 65.4617 155.723 66.7153 156.559C68.3867 157.812 69.6403 157.811 71.3118 156.141C72.5654 154.888 73.4011 154.888 74.6547 155.723C75.4904 156.141 76.744 156.976 77.5798 157.394C80.9227 158.647 84.2656 159.482 87.6085 159.482C89.2799 159.482 90.5335 159.064 90.9514 156.976C91.3692 155.723 92.205 155.306 93.0407 155.723C94.7122 156.141 95.9658 156.559 97.6372 156.976C100.98 157.811 104.323 157.812 107.248 156.559C108.502 156.141 108.502 154.888 108.084 154.053C107.248 152.8 106.412 151.964 105.159 151.547C101.816 150.294 100.98 148.205 104.741 146.535L105.159 146.117C105.577 145.7 105.577 144.447 104.741 144.029C103.905 143.611 103.069 143.611 102.234 143.194C100.98 143.194 100.144 143.194 98.8908 143.194C98.0551 142.776 96.8015 142.358 95.9657 141.523C95.5479 141.105 95.5479 140.27 95.5479 139.852C95.5479 139.435 96.3836 138.599 96.8015 138.182C97.2193 137.764 97.2194 137.346 97.6372 136.929C98.0551 136.511 97.6372 135.258 96.8015 135.258C94.7121 134.423 92.6229 134.423 90.1157 134.423C88.0264 134.423 85.937 134.005 83.4298 134.005C83.4298 134.005 83.012 133.588 83.4298 133.588C84.2656 132.752 84.6834 131.917 85.5191 131.082C85.937 130.664 85.5192 129.829 85.1013 129.411C83.8477 128.576 83.012 128.158 81.3405 128.158C79.6691 128.576 78.4155 128.993 76.744 129.411C75.4904 129.829 74.2368 130.246 72.9832 130.664C72.1475 131.082 71.3118 130.246 71.3118 129.411C70.8939 128.576 70.8939 127.74 70.0582 127.323C69.2225 127.323 68.3867 126.905 67.551 127.323C66.2974 127.74 65.4617 128.158 64.6259 128.576C62.9545 129.411 61.7009 130.246 60.0295 131.082C58.7759 131.917 57.5223 131.082 56.6866 129.829C56.6866 129.829 56.6865 129.411 56.2687 129.411C56.2687 129.411 56.2687 128.993 55.8508 128.993C55.433 128.158 54.5972 128.158 53.3436 128.158C51.2543 128.576 49.5829 129.829 47.4936 131.499C45.8221 133.17 43.7328 133.588 41.2256 132.335C37.8827 131.082 34.1219 129.411 30.779 128.158C29.1075 127.323 27.4361 126.487 26.1825 125.652C24.0931 124.399 22.8396 122.729 22.0038 120.64C21.1681 118.97 22.4217 116.881 24.0931 116.464C25.7646 116.046 27.4361 116.046 29.5254 116.046C39.5541 116.464 49.5828 115.211 59.6116 114.793C61.283 114.793 62.5366 114.376 63.7902 113.54C62.5366 112.287 61.283 111.87 59.6116 111.87C58.358 111.452 57.5223 110.617 56.6866 109.364C61.2831 111.034 65.8796 111.034 70.4761 110.199C70.8939 110.199 71.7296 109.364 72.1475 109.364C74.6547 109.364 77.1619 108.946 79.6691 107.693C80.9227 106.858 81.7584 106.44 81.3405 104.77C80.9226 103.099 80.9227 102.264 82.5941 101.428C85.5192 100.175 87.6085 98.0871 89.6978 95.9988C90.1156 95.5812 90.5335 95.5812 90.9514 95.5812C90.5335 96.8341 89.6978 97.6694 89.28 98.9224C88.4442 100.593 88.8621 101.846 90.1157 102.681C88.8621 103.099 87.6085 103.517 86.7728 104.352L86.3549 104.77C86.7727 105.187 86.7728 105.605 87.1906 105.605C89.6978 105.187 92.205 104.77 94.2943 103.099L94.7121 102.681C95.13 102.681 95.9658 102.264 96.3836 102.264H96.8015H96.3836C95.9658 102.264 95.13 102.681 94.7121 102.681C93.8764 102.681 92.6228 102.681 91.7871 102.681C93.0407 101.846 93.8764 100.593 95.13 99.7577C96.8015 99.7577 98.473 99.34 99.7266 99.34C100.98 98.0871 102.652 97.6694 104.741 98.5047C105.995 98.9224 107.666 99.3401 108.92 100.175C111.845 101.428 114.77 102.264 117.695 102.681C118.948 102.681 119.366 102.264 120.202 101.011C120.202 100.593 120.202 100.175 120.62 99.7577C121.038 98.9224 121.455 98.9224 122.291 98.9224C122.709 99.3401 123.545 99.34 123.963 99.7577C126.888 101.011 130.231 101.428 133.574 100.593C133.991 100.593 134.409 100.175 133.991 99.7577C133.574 98.9224 132.738 98.0871 132.32 97.2518C131.902 96.4165 132.32 95.5811 133.574 95.1635C134.827 95.1635 135.663 94.7458 136.916 95.1635C138.588 95.1635 140.259 95.1635 141.931 94.7459C142.767 94.3282 143.602 93.9106 144.02 93.4929C144.856 93.0752 144.856 90.987 144.02 90.5693C143.184 90.1517 141.931 89.734 141.095 89.3164C139.841 88.8987 139.841 87.2281 140.677 86.8104C142.767 85.5575 144.856 84.3045 146.527 82.6339C146.945 82.2162 147.781 81.3809 148.199 80.5456C148.617 79.7103 148.617 78.4574 147.781 77.6221C146.945 76.7868 146.527 76.3691 145.274 76.7868C144.02 76.7868 143.184 77.2044 141.931 77.6221C140.677 78.0397 139.841 77.2044 139.841 75.9515C139.841 74.6985 140.259 73.4455 140.259 72.1926C140.259 71.3573 139.006 70.1043 137.752 70.522C136.081 70.9396 134.827 71.775 133.991 73.0279C132.738 74.2809 131.902 75.5338 130.231 76.7868C129.395 77.2044 128.141 77.2044 127.723 76.3691C126.888 74.2808 125.216 73.4455 123.127 72.6102C123.545 71.7749 124.38 71.3573 125.216 71.3573C126.47 71.3573 127.306 71.7749 128.559 71.7749C129.813 70.522 131.066 69.6867 132.738 68.4337C133.991 67.5984 135.663 67.1807 136.916 66.3454C138.17 65.5101 139.424 65.0925 140.259 63.8395C142.349 60.9159 144.856 59.2453 147.781 57.5747C148.199 56.3217 148.617 55.0688 149.034 53.8158C150.706 48.804 151.124 49.2216 149.452 45.0451C149.034 44.2098 149.034 43.3745 149.452 42.5392C150.288 40.8686 149.87 39.6156 148.617 38.3627C148.199 37.945 147.781 37.5273 147.363 36.692C145.692 34.6038 144.438 32.5155 144.438 29.5919C144.438 27.9213 144.02 26.6684 142.767 25.4154C141.931 24.1625 141.095 22.9095 140.259 21.6566C139.006 19.9859 139.424 17.8976 139.841 15.8094C139.841 15.3917 140.259 14.9741 140.677 14.5565C142.349 13.3035 142.767 11.6329 141.931 9.96226C141.095 7.87399 141.513 6.2034 141.931 4.11514C142.349 0.356257 146.527 -1.31438 149.452 1.19154C150.706 2.02685 151.542 3.27979 152.377 4.53275C152.795 5.36806 153.213 6.20336 153.631 6.62102C155.302 7.45632 156.556 6.62102 157.81 6.62102C159.899 6.20336 161.153 7.03867 162.406 8.70928C162.824 9.12694 163.242 9.96228 163.242 10.3799C164.078 12.4682 164.913 14.1388 167.421 14.9741C168.256 15.3917 169.092 16.227 169.928 17.0623C171.181 18.3153 171.599 19.5683 171.599 21.2389C171.599 22.4918 171.599 23.3272 171.599 24.5801C171.599 26.2507 172.435 27.0861 173.271 27.9214C172.017 29.1743 170.763 30.4273 169.51 31.2626C167.838 32.5156 165.749 33.3508 163.66 32.9332C164.495 32.0979 165.331 31.6802 166.167 30.8449C168.256 29.1743 169.092 27.5037 169.51 24.5801C169.51 23.3272 169.928 22.4918 169.928 21.2389C169.928 19.5683 169.092 17.8977 167.838 16.6447C166.585 15.8094 165.331 15.8094 164.495 16.6447C163.66 17.48 162.824 17.8977 161.988 18.733C160.317 17.48 160.317 17.48 160.735 16.2271C162.824 13.7211 161.988 11.2152 160.317 9.12696C159.481 8.29165 157.81 7.87398 156.974 8.70928C156.138 9.54459 155.302 10.3799 154.885 11.2152C154.049 12.0505 153.213 12.0505 152.795 10.7975C151.96 8.70928 150.706 7.0387 149.87 4.95043C148.617 3.27982 146.109 3.27982 144.856 4.95043C143.602 6.62104 143.602 8.29164 144.438 9.96226C145.692 12.0505 147.363 13.7211 148.617 15.8094C149.035 16.227 149.034 16.6447 149.034 17.0623C148.617 17.8977 148.199 17.48 147.363 17.48C146.945 17.48 146.527 17.0623 146.109 17.0623C144.856 16.6447 144.02 17.0624 143.184 18.3153C142.767 19.1506 142.767 20.4036 143.602 21.2389C144.856 22.4918 145.692 23.3272 146.945 24.5801C148.617 25.8331 150.288 26.6684 151.542 27.9214C151.96 28.339 151.96 29.5919 151.542 29.5919C150.706 30.0096 149.87 30.0096 149.034 30.4272C148.199 30.8449 147.363 32.0979 147.781 32.9332C148.199 33.3508 148.199 34.1861 148.617 34.6038C150.288 36.692 152.377 38.3627 154.467 39.6157C154.885 39.6157 154.885 40.8686 154.885 41.2862C154.467 41.7039 154.049 42.1216 153.631 42.5392C152.795 43.3745 152.795 45.0451 153.213 46.2981C153.631 46.7157 154.049 47.1334 154.467 47.551C156.556 49.2217 159.063 50.0569 161.57 50.4746C161.988 50.4746 162.824 50.057 163.242 49.6393C166.585 45.8804 169.928 41.7039 173.271 37.5274C173.688 36.6921 174.106 35.8568 174.524 35.4391C175.36 34.1862 175.36 32.5155 174.942 30.8449C174.524 29.592 173.271 28.7567 172.435 27.9214C173.271 27.5037 173.688 27.086 174.524 26.6684C176.614 25.8331 177.449 24.1624 177.867 22.0742C178.285 20.4036 178.285 19.1506 178.285 17.48C178.285 15.3918 179.121 14.1388 180.792 13.3035C182.464 12.4682 182.881 11.2152 182.881 9.54458C182.881 8.70927 182.882 7.874 183.299 7.0387C183.717 4.95043 185.389 3.69746 187.478 3.69746C188.314 3.69746 188.732 4.11514 189.567 4.11514C190.403 4.11514 191.239 4.11511 192.074 3.69746C193.328 3.2798 194.582 2.44449 195.417 2.02684C197.089 1.60918 199.178 2.44452 199.596 4.11514C200.432 6.2034 200.014 8.29163 200.432 10.7975C200.85 11.2152 201.268 11.6329 201.685 12.0505C205.864 14.9741 207.118 19.1506 204.61 23.3271C203.775 24.9978 202.521 26.2507 201.685 27.5037C201.268 28.7566 202.103 29.592 202.103 30.8449C202.521 32.5155 202.103 34.1861 201.267 35.8567C200.85 36.692 200.014 37.1097 199.596 37.945C195.835 41.7039 192.492 45.8804 188.732 49.2216C186.642 51.3099 185.389 53.8158 184.553 56.7394C184.553 57.1571 184.553 57.5747 184.553 57.9924C186.224 60.0806 187.478 61.7512 189.567 63.0042C190.403 63.4219 191.239 63.4219 192.074 63.0042C193.328 61.7512 195 60.9159 196.253 59.663C197.925 58.41 200.014 58.41 201.685 59.663C203.357 60.4983 204.61 61.3336 205.864 62.1689C207.953 61.3336 209.625 60.4983 211.714 60.0806C213.386 59.663 215.057 60.0807 216.728 61.3336C218.4 63.0042 219.236 65.0925 217.982 67.5984C217.564 68.8514 216.728 70.1043 216.311 70.9397C215.475 72.1926 214.639 73.0279 213.803 74.2808C212.968 75.1161 212.968 76.3691 213.385 77.2045C213.385 77.6221 213.803 78.0397 213.803 78.4574C214.221 80.128 213.803 81.7986 212.55 83.4693C210.043 85.9752 207.118 87.6457 203.357 88.0634C202.521 88.0634 202.103 88.4811 201.685 88.4811C200.432 88.8987 200.432 90.1517 199.596 91.4046C198.342 93.4929 196.253 94.7458 193.746 95.1635C191.657 95.1635 189.567 95.1635 187.06 95.1635C186.642 95.5811 186.224 95.9988 185.807 96.4165C184.971 98.0871 183.717 99.34 182.046 99.7577C179.539 100.593 177.449 100.593 174.942 99.34C173.688 98.9224 172.853 98.0871 171.599 97.2518C170.346 96.4165 169.092 96.4165 167.838 96.4165C165.749 96.8341 164.078 97.2518 161.988 97.6694C162.824 96.4165 164.495 95.9988 165.749 95.1635C166.167 94.7458 166.585 94.3282 166.585 93.4929C166.585 93.0752 166.167 92.2399 165.331 92.2399C164.495 91.8223 163.242 91.8223 162.406 91.4046C163.66 89.734 162.824 88.0634 162.406 86.3928C161.153 82.6339 159.063 80.5456 154.885 80.5456C153.213 80.5456 151.542 79.7103 149.452 80.5456C148.199 83.0515 147.363 85.5575 145.274 87.2281C144.856 87.6458 144.856 88.8987 145.274 89.734C146.109 90.987 146.945 91.8223 148.199 92.2399C149.87 92.6576 151.124 93.0752 152.795 93.0752C152.377 93.4929 151.542 93.4929 151.124 93.9106C150.288 93.9106 149.452 93.9106 148.617 93.9106C147.781 93.9106 146.945 93.9105 146.109 94.3282C145.692 94.3282 145.692 94.7458 145.692 95.1635C145.692 95.1635 145.692 95.5812 146.109 95.5812C148.199 96.8341 151.124 95.9988 153.631 97.6694C150.288 98.5047 146.945 98.0871 144.02 96.8341C141.931 95.9988 140.259 96.8341 138.17 97.6694C137.752 98.0871 137.334 98.5047 136.916 99.34C136.499 99.7577 136.499 100.593 136.081 101.011C135.663 101.846 134.827 102.681 133.574 103.099C131.902 103.934 130.231 104.352 128.559 103.934C127.306 103.934 126.052 103.517 124.798 103.517C123.545 103.517 122.709 103.517 121.873 104.352C119.366 106.023 116.859 106.023 114.352 105.187C113.934 105.187 113.516 105.187 113.098 104.77C108.92 103.517 105.577 105.187 102.234 108.111C101.816 108.528 102.234 109.364 102.652 109.781C104.741 111.452 107.248 112.287 109.755 113.123C110.591 113.54 111.427 113.123 112.262 113.123C113.516 112.705 114.77 112.705 116.023 111.87C119.784 110.199 123.545 109.781 127.306 108.946C128.559 108.528 129.813 108.946 131.066 108.946C133.156 108.946 135.245 109.781 136.499 111.87C139.424 108.946 141.513 109.364 143.602 109.364C140.677 109.781 137.334 111.034 133.991 111.034C133.574 110.617 133.156 110.199 133.156 109.781C132.738 108.111 131.902 107.275 130.648 107.275C129.395 107.275 128.141 107.275 126.888 107.275C123.545 107.693 120.62 108.946 117.277 109.781C115.605 110.199 113.934 111.034 112.262 111.452C110.591 111.87 108.92 111.87 107.248 110.617C105.577 109.364 103.487 108.528 101.398 107.693C101.398 108.111 101.816 108.111 101.816 108.528C104.323 110.199 106.83 111.87 109.337 113.54C110.591 114.376 111.427 115.211 111.427 116.882C111.427 121.893 113.516 125.652 116.859 128.993C118.113 128.576 118.948 128.158 119.784 127.74C120.202 127.74 121.038 128.158 121.455 128.576C121.873 129.411 122.291 130.664 122.709 131.499C123.127 132.335 123.545 133.588 123.963 134.423C125.634 136.511 127.723 138.182 129.395 140.27C130.648 141.523 132.738 142.358 134.409 143.194C135.663 143.611 136.916 142.776 137.334 141.523C137.334 140.688 137.752 140.27 137.752 139.435C137.752 138.599 137.752 137.764 139.006 137.346C139.841 137.346 140.259 137.764 140.677 138.182C141.513 139.435 142.767 140.27 144.02 141.105C146.527 141.941 149.034 142.776 151.542 142.358C153.631 142.358 154.885 140.688 153.631 139.017C153.213 138.182 152.795 137.346 152.377 136.929C151.96 136.511 152.795 135.676 153.213 135.676C154.467 135.676 155.72 135.676 156.974 135.676C159.481 135.676 162.406 135.258 164.913 134.423C165.331 134.005 166.167 134.005 166.585 133.17C167.003 132.752 167.003 131.917 167.003 131.499C167.003 131.082 166.167 130.246 165.749 129.829C164.078 128.576 162.406 127.74 160.317 127.323C157.81 126.905 155.72 126.488 153.213 126.07L152.795 125.652C152.795 125.235 152.795 124.817 152.795 124.399C154.049 123.146 154.885 122.311 156.138 121.476C156.556 121.058 156.556 120.223 156.138 119.805C155.72 119.387 155.302 118.97 154.885 118.552C152.377 117.299 149.87 116.881 147.363 117.299C146.527 117.299 145.692 117.299 144.856 116.882C144.438 116.882 144.438 116.046 144.438 116.046C144.856 115.211 145.274 114.376 145.692 113.54C145.692 113.123 145.692 112.287 145.692 111.87C145.274 111.034 144.438 110.199 143.602 109.364Z" fill="#494949"/>
<path d="M107.667 51.3094C110.174 48.8035 112.263 45.88 113.517 42.5388C113.934 42.1211 113.935 41.2858 113.935 40.4505C113.935 40.0328 113.517 39.6152 113.099 39.6152C112.681 39.1975 111.845 39.1975 111.009 39.1975C108.92 39.1975 106.831 40.4505 104.324 40.0328C103.488 38.7799 103.07 37.5269 101.816 36.274C101.399 35.8563 100.563 35.8563 100.145 35.8563C99.3092 36.2739 98.4735 36.6916 98.4735 37.5269C97.6378 38.7799 97.6378 40.4505 96.8021 41.7035C96.3842 42.9564 94.2949 43.374 93.4592 42.1211C92.6235 40.8681 92.2056 40.0328 91.3699 38.7798C90.952 38.3622 89.6984 38.3622 88.8627 39.1975C88.0269 40.0328 88.0269 41.2858 88.0269 42.1211C88.4448 44.627 89.2805 47.1329 90.5341 49.6388C90.952 50.4742 90.952 51.3095 90.5341 52.1448C90.1162 52.9801 89.2805 53.3977 88.4448 52.9801C88.0269 52.5624 88.0269 52.1448 87.6091 52.1448C86.7733 51.7271 85.9376 52.1448 85.5197 52.9801C85.5197 53.8154 85.1019 54.233 85.1019 55.0684C85.1019 56.739 85.5197 57.9919 86.7733 59.2449C88.0269 60.4978 89.2805 61.7508 90.5341 63.0037C90.952 63.4214 90.5341 64.2567 90.1163 64.6744C89.6984 64.6744 89.2805 64.6743 88.8627 65.092C88.0269 65.5097 87.6091 66.345 88.0269 67.1803C88.4448 67.5979 88.8627 68.4333 89.2805 68.8509C89.6984 69.2686 89.6984 70.1039 89.2805 70.5215C88.8627 70.9392 88.0269 71.3568 88.0269 72.6098C88.0269 73.4451 88.4448 74.2804 89.2805 74.698C91.3699 75.951 91.7877 78.0392 91.7877 80.5452C91.7877 81.7981 91.3699 83.0511 91.3699 84.3041C91.3699 84.7217 92.2056 85.1394 92.2056 85.1394C93.4592 84.7217 94.7128 83.8864 95.5485 83.4688C96.8021 82.6335 97.6378 81.7981 98.4735 80.9628C98.8914 80.5452 99.3093 79.2922 98.4735 78.4569C98.0557 78.0392 97.6378 78.0392 97.6378 77.6216C96.8021 76.7863 96.8021 75.951 97.6378 75.5333C98.4736 75.1157 99.7271 74.698 100.563 74.2804C104.324 72.6097 107.667 70.9391 110.592 68.0156C111.009 67.5979 111.427 67.1803 111.845 66.345C111.845 65.9273 111.845 65.5097 111.427 65.092C111.009 64.6743 110.592 64.6744 110.174 64.6744C109.338 64.6744 108.92 64.2567 108.92 63.4214C108.92 62.5861 109.338 61.3331 110.174 61.3331C111.009 60.9155 112.263 60.9155 113.099 60.4979C114.77 60.0802 115.606 59.2449 116.86 57.9919C118.113 56.3213 118.531 54.233 117.695 52.5624C116.86 50.4741 114.352 49.6388 111.845 50.4741C111.009 50.8918 110.174 51.3095 109.338 51.7271C109.756 51.7271 108.502 51.3094 107.667 51.3094ZM47.4941 107.275C48.3299 106.857 49.5834 106.44 50.4192 106.022C51.2549 105.604 52.5085 105.604 53.3442 105.187C54.1799 104.769 55.0157 104.351 55.8514 103.934C57.5229 100.593 58.7764 96.8336 59.6122 93.0748C60.03 90.1512 62.1193 88.063 64.6265 86.3923C64.6265 86.3923 65.0444 86.3923 65.0444 85.9747C67.1337 85.557 68.3873 83.8864 69.2231 81.7981C70.0588 80.1275 70.8945 78.8746 71.7302 77.204C72.5659 75.5334 74.2374 74.6981 76.3267 75.1157C76.7446 75.1157 77.1625 75.5334 77.5803 75.1157C77.9982 75.1157 78.8339 74.698 79.2518 74.2804C80.0875 73.4451 80.5054 72.6098 80.9233 71.3568C81.759 70.1038 82.1769 68.8509 83.0126 68.0156C85.1019 66.3449 85.9376 63.839 86.3554 60.9155C85.9376 60.0802 85.1019 58.8272 84.684 57.5742C83.4304 54.6507 83.4304 52.1448 85.5197 49.6388C86.7733 47.9682 87.1912 46.7153 86.3554 44.627C85.9376 42.9564 85.5198 41.2858 85.9376 39.6152C86.3555 37.1093 88.027 34.6034 91.3699 35.4387C92.6235 35.8563 93.877 35.4387 94.7127 34.1857C95.9663 32.5151 97.6378 30.8444 99.3093 29.5915C100.981 28.3385 103.488 28.7562 104.742 30.0092C105.995 31.2621 107.249 32.5151 108.502 34.1857C110.174 34.6033 111.845 35.4387 113.517 36.274C114.77 36.6916 115.606 37.9446 115.606 39.1975C115.606 41.2858 115.606 43.3741 115.606 45.88C116.024 46.2976 116.86 46.7153 117.695 47.1329C118.949 47.9682 119.785 49.2212 120.62 50.4741C121.456 52.1448 121.456 53.3977 120.62 55.0684C120.202 55.9037 119.367 57.1566 118.949 57.9919C117.695 59.6625 116.86 61.3331 116.442 63.4214C116.442 64.2567 115.606 65.5097 114.77 66.345C111.427 69.6862 108.084 73.4451 103.906 75.5333C102.652 76.3686 102.234 77.6216 102.652 78.8746C102.652 79.2922 103.07 79.7099 103.488 80.1275H103.906C104.324 79.7099 104.742 79.7099 104.742 79.2922C106.413 77.204 108.92 75.951 111.427 75.5333C112.263 75.5333 113.099 75.1157 113.517 75.1157C115.188 73.0275 116.442 71.3568 117.695 69.6862C118.531 68.8509 119.785 68.0156 121.038 68.0156C118.531 70.9391 115.606 73.8628 113.935 77.204C113.517 78.4569 112.681 78.4569 111.427 77.6216C110.174 77.2039 109.338 76.7863 108.502 77.6216C105.577 79.7099 102.652 81.7982 102.234 85.557C101.816 88.063 100.563 89.7335 98.0557 90.9865C95.9663 91.8218 94.2949 93.9101 93.0413 95.9984L92.6234 95.5807C91.3698 94.3277 91.3698 93.0748 92.6234 92.6571C94.2949 91.8218 95.9664 90.5689 97.6378 89.3159C99.7271 88.0629 100.145 85.9747 100.145 83.4688C100.145 83.0511 99.7271 82.6334 99.3093 82.6334C97.2199 83.4687 95.1306 84.3041 93.0413 85.557C92.6234 87.2277 92.2056 88.4806 91.7877 89.3159C91.3698 90.5689 90.5341 91.4042 88.8627 91.8218C88.8627 90.9865 89.2805 90.1512 89.2805 89.3159C89.2805 88.4806 89.2805 87.6453 88.4448 86.81C86.3554 85.557 86.3555 83.8864 87.1912 81.7981C87.6091 80.9628 88.0269 80.1276 88.0269 79.2922C88.4448 78.0393 87.6091 76.3686 85.9376 75.5333C84.684 75.1157 83.8483 74.2804 83.8483 72.6098C83.8483 71.3568 83.8483 70.5215 83.0126 69.6862C82.5947 69.2686 82.1768 69.2685 81.759 69.2685C81.3411 69.6862 80.5054 70.1039 80.5054 70.5215C79.2518 72.1921 78.4161 73.8627 77.5803 75.5333C77.1625 76.3686 75.9089 77.204 74.6553 76.7863C73.8196 76.7863 73.4017 76.3686 72.566 76.3686C71.7303 76.3686 70.8945 76.7863 70.4767 77.204C69.2231 78.8746 68.3873 80.9628 67.9695 83.0511C67.9695 83.8864 67.9694 85.1394 66.7159 85.9747C66.298 85.9747 65.4623 85.9747 64.6265 86.3923C62.9551 86.81 61.2836 87.6453 60.4479 89.3159C60.03 90.5689 59.1943 91.8218 58.7765 93.0748C57.9407 95.5807 57.105 98.0866 56.6871 100.593C56.2693 102.263 55.4335 103.934 54.5978 105.187C52.5085 104.769 50.837 105.604 48.7477 106.022C49.5834 107.693 48.3299 107.693 47.4941 107.275Z" fill="#494949"/>
<path d="M161.571 93.9098C159.064 94.7451 156.557 95.1627 154.049 93.9098C156.139 93.0744 159.064 93.4921 161.571 93.9098Z" fill="#494949"/>
<path d="M43.7329 108.11C44.1508 107.692 44.9865 107.275 45.4044 107.692C44.9865 108.11 44.1508 108.11 43.7329 108.11Z" fill="#494949"/>
<path d="M45.4048 107.693C45.8226 107.275 46.6584 106.858 47.0762 107.275C46.6584 107.693 46.2405 107.693 45.4048 107.693Z" fill="#494949"/>
<path d="M163.242 93.4927C162.406 93.4927 161.989 93.9104 161.153 93.9104C161.989 93.9104 162.824 93.9103 163.242 93.4927Z" fill="#494949"/>
<path d="M53.3438 72.6095C55.0152 72.1918 55.0152 72.1918 55.851 73.8624C55.0152 73.4448 54.1795 73.0271 53.3438 72.6095Z" fill="white"/>
<path d="M75.4907 108.111C74.655 108.528 74.2371 108.528 73.4014 108.946C74.2371 108.528 75.0728 108.528 75.4907 108.111Z" fill="white"/>
<path d="M94.2944 99.34C94.7123 99.34 95.548 98.9224 95.9659 98.9224C95.548 98.9224 94.7123 99.34 94.2944 99.34Z" fill="white"/>
<path d="M90.1165 145.699C89.6986 146.117 89.6986 146.534 89.2808 146.534C88.0272 146.534 86.7735 146.117 85.52 145.699C83.4306 145.281 81.7592 145.699 80.0877 146.534C79.6698 146.117 79.252 146.117 79.252 145.699C77.9984 144.446 76.7448 144.028 75.0734 145.281C74.2376 144.864 73.4019 144.446 72.5662 144.029C72.5662 143.193 72.1483 142.776 71.3126 142.358C70.8947 142.358 70.4769 142.358 70.059 142.358C69.2233 141.94 68.3875 141.105 67.5518 140.687C66.7161 140.27 65.8804 140.687 65.8804 141.523C65.8804 141.94 65.4625 142.358 65.4625 142.776C64.6267 142.358 64.2089 141.94 63.3731 141.523C63.3731 141.105 62.9553 140.27 62.9553 139.852L62.5374 139.434H62.1196C62.1196 139.852 62.1196 140.27 62.1196 140.687C62.5375 141.105 62.9553 141.523 63.791 141.523C62.9553 142.358 62.9553 142.776 63.3731 143.611C63.3731 144.446 63.791 145.281 63.791 146.117C62.1196 143.193 60.0302 140.27 58.3588 137.346L57.941 136.928C57.5231 136.928 57.1052 136.928 57.1052 137.764C57.1052 138.599 57.5231 139.434 57.5231 140.27C57.5231 141.105 57.941 141.94 57.941 142.776L57.5231 142.358C56.6873 140.687 54.1802 141.105 53.3444 139.434C52.5087 138.181 51.673 136.511 50.8372 134.84C50.4194 134.422 50.0015 134.422 49.1658 134.84C48.7479 135.258 48.3301 135.258 48.3301 135.675C47.9122 134.84 47.0765 134.422 47.0765 133.587C46.6586 132.334 47.4943 131.081 48.7479 131.499C50.0015 131.499 50.8372 131.917 52.0908 131.917C55.4337 133.169 58.7767 134.84 62.5374 136.093C63.791 136.511 65.4625 136.928 66.7161 137.346C67.5518 137.764 68.3876 137.764 69.2233 138.181C75.4912 141.94 82.1771 144.028 89.2808 145.699C90.1165 145.699 90.1165 145.699 90.1165 145.699Z" fill="#494949"/>
<path d="M77.1621 149.458C76.7442 149.458 76.3264 149.458 75.9085 149.458C73.8192 149.458 73.8192 149.458 73.4014 146.952C75.0728 147.37 75.4906 146.534 75.9085 145.281C77.1621 146.117 77.58 147.37 77.1621 149.458Z" fill="#494949"/>
<path d="M73.4013 146.534C72.1477 145.281 71.312 144.028 71.312 141.94C72.1477 142.357 72.9834 142.775 73.8192 143.193C73.4013 144.446 73.4013 145.699 73.4013 146.534Z" fill="#494949"/>
<path d="M85.9377 150.711C84.6841 151.547 83.8484 151.547 83.4305 150.711C83.0127 150.294 83.0127 149.458 83.0127 149.041C83.8484 149.458 84.6841 150.294 85.9377 150.711Z" fill="#494949"/>
<path d="M68.8049 146.952C69.2227 147.37 69.2227 147.788 69.6406 148.205V148.623C69.2227 149.041 68.8049 148.623 68.8049 148.205C68.387 147.37 68.8049 146.952 68.8049 146.952Z" fill="#494949"/>
<path d="M77.1621 149.458C77.58 149.875 78.4157 149.875 78.8336 150.293L79.2514 150.711C79.2514 151.128 78.8336 151.546 78.4157 150.711C77.9978 150.293 77.58 149.875 77.1621 149.458Z" fill="#494949"/>
<path d="M85.9375 150.711C86.3554 150.711 87.1911 150.293 87.6089 150.293C88.0268 150.293 88.4447 150.711 88.0268 151.128C88.0268 151.128 87.6089 151.546 87.6089 151.128C86.7732 151.128 86.3554 151.128 85.9375 150.711Z" fill="#494949"/>
<path d="M48.7471 135.675C49.1649 136.093 49.5828 136.511 50.0007 136.928V137.346C49.5828 137.764 49.165 137.764 49.165 137.346C49.165 136.928 49.1649 136.093 48.7471 135.675Z" fill="#494949"/>
<path d="M66.7153 144.446C67.5511 144.864 68.3868 145.699 68.8046 146.535C67.9689 146.535 67.1332 145.699 66.7153 144.446Z" fill="#494949"/>
<path d="M80.5049 146.535C81.7585 146.952 82.5942 147.788 82.5942 149.041C81.7585 148.205 80.9227 147.37 80.5049 146.535Z" fill="#494949"/>
<path d="M93.0413 145.699C92.2055 146.117 90.9519 146.117 90.1162 145.699C91.3698 145.282 92.2055 145.699 93.0413 145.699Z" fill="#494949"/>
<path d="M95.9661 146.117C94.7125 146.535 93.8767 146.117 93.041 145.699C94.2946 145.699 95.1303 145.699 95.9661 146.117Z" fill="#494949"/>
<path d="M66.2979 142.358C66.2979 143.193 66.7157 143.611 66.7157 144.446C66.7157 144.029 66.7157 143.193 66.2979 142.358Z" fill="#494949"/>
<path d="M127.305 126.07C127.305 125.652 126.887 124.817 126.887 124.399C126.887 124.817 127.305 125.652 127.305 126.07ZM129.394 118.134C128.976 118.134 128.559 117.716 128.141 117.716C126.469 117.299 125.633 116.463 126.051 114.375C126.887 114.375 127.723 114.375 128.559 113.958C129.812 113.958 130.648 113.958 131.484 114.793C132.737 116.463 134.826 117.716 136.916 118.134C138.169 118.552 139.841 119.387 141.094 119.805C141.93 120.222 143.184 120.64 144.019 121.475C144.855 122.311 145.273 123.146 146.109 123.981C145.691 124.399 145.691 124.817 145.273 125.234C144.437 126.487 144.437 127.322 145.691 127.74C147.362 128.158 149.452 128.575 151.541 129.411C151.959 129.411 152.795 129.828 153.212 130.664C153.63 131.081 153.63 131.499 153.212 131.917C153.212 132.334 152.377 132.334 152.377 132.334C151.541 131.917 150.705 131.499 149.87 131.081C149.034 130.664 148.616 130.664 148.198 131.499C147.78 131.917 147.362 132.752 146.945 133.17C146.109 131.917 145.273 131.081 144.855 129.828C144.437 129.411 143.184 128.993 143.184 129.411C143.184 129.828 142.766 130.246 142.766 130.664C142.766 131.499 144.02 132.334 143.184 133.587C142.348 133.17 141.512 132.334 140.677 131.917C140.259 131.499 139.841 131.081 139.423 131.081C138.169 130.664 137.752 129.411 136.916 128.158C136.08 126.905 135.662 126.905 133.573 127.74C133.155 127.322 132.737 126.905 132.319 126.07C131.901 125.652 131.484 125.652 131.066 126.07L130.648 126.487C130.648 127.74 131.066 128.993 131.066 130.246V130.664C130.648 131.081 130.23 131.081 129.812 130.664C128.559 130.246 127.305 129.828 126.887 128.158C126.051 126.07 125.216 123.981 124.38 122.311C123.544 119.805 121.873 118.969 119.366 119.387C118.948 118.969 118.948 118.969 118.53 118.552C118.112 118.134 117.276 117.716 116.858 118.552C116.44 118.969 116.44 119.387 116.023 119.387C115.605 118.552 115.187 117.716 115.605 116.881C115.605 116.463 116.44 115.628 116.858 116.046C118.53 116.881 120.619 117.716 121.873 118.552C126.051 121.058 130.648 123.146 135.244 124.817C136.498 125.234 137.752 125.652 139.005 125.652C139.423 125.652 140.259 125.234 140.677 125.234C141.094 124.817 140.677 123.981 140.259 123.564C139.423 123.146 138.169 122.728 137.334 121.893C136.08 121.058 134.409 120.222 132.737 119.805C131.901 119.805 130.648 118.969 129.812 118.552C130.23 118.552 129.394 118.134 129.394 118.134Z" fill="#494949"/>
<path d="M119.366 119.805C119.366 120.64 119.784 121.475 119.784 122.311V122.728C118.948 122.728 118.948 121.893 118.948 121.476C118.948 120.64 119.366 120.223 119.366 119.805Z" fill="#494949"/>
<path d="M133.156 129.828C133.574 130.246 133.992 130.663 134.41 131.081C134.41 131.081 134.828 131.499 134.41 131.499C134.41 131.916 133.992 131.916 133.574 131.499C133.574 130.663 133.574 130.246 133.156 129.828Z" fill="#494949"/>
<path d="M145.274 124.399C146.11 123.981 146.945 123.981 147.781 123.564C147.781 123.564 148.199 123.564 148.199 123.981C147.781 124.399 147.781 124.817 147.363 124.817C146.945 124.817 146.11 124.399 145.274 124.399C145.274 123.981 145.274 124.399 145.274 124.399Z" fill="#494949"/>
<path d="M125.635 114.376C125.217 113.958 125.217 113.958 124.799 113.541C125.217 113.958 125.635 113.958 125.635 114.376Z" fill="#494949"/>
<path d="M145.692 137.764H145.274V137.346C145.274 136.928 145.692 137.346 145.692 137.764C145.692 137.346 145.692 137.346 145.692 137.764Z" fill="#494949"/>
<path d="M146.109 132.752C146.527 132.752 147.363 132.752 147.363 133.587H146.945C146.527 133.169 146.527 133.169 146.109 132.752Z" fill="#494949"/>
<path d="M116.023 119.387L116.441 119.805V119.387H116.023Z" fill="#494949"/>
<path d="M130.649 118.552C130.231 118.134 129.813 118.134 129.395 117.717C129.395 118.134 130.231 118.552 130.649 118.552Z" fill="#494949"/>
<path d="M132.738 127.74C133.156 128.158 133.156 128.993 133.156 129.828C133.156 128.993 132.738 128.158 132.738 127.74Z" fill="#494949"/>
<path d="M139.841 131.499C138.588 131.916 138.588 131.916 138.588 130.663C139.006 131.081 139.424 131.499 139.841 131.499Z" fill="#494949"/>
<path d="M117.277 88.0629C116.441 87.6453 116.023 86.8099 116.441 86.8099C116.859 86.3923 117.277 86.3923 117.695 86.3923C118.113 86.3923 118.531 86.3923 118.948 86.3923C120.62 86.3923 121.873 86.3923 123.545 85.9747C125.216 85.557 126.888 85.9746 128.141 84.7217C128.559 84.7217 128.977 84.7217 129.395 84.7217C129.813 84.7217 130.231 85.9747 130.231 86.3923C129.395 87.2276 128.977 88.0629 128.141 88.4806C126.888 89.3159 125.634 89.3159 124.381 89.7336C122.709 90.1512 121.038 90.1512 119.366 89.3159C118.531 88.4806 118.113 88.4806 117.277 88.0629Z" fill="#494949"/>
<path d="M113.934 95.1631C112.681 94.7454 111.427 94.3278 110.173 93.9102C109.338 93.4925 108.502 92.2395 108.92 91.4042C109.338 89.7336 111.009 88.8983 112.68 88.063C113.098 88.063 113.516 88.063 113.934 88.063C115.188 88.8983 116.441 89.3159 118.113 90.1513C118.531 90.1513 118.531 90.9866 118.531 91.4042C116.859 92.6572 115.606 94.3278 113.934 95.1631Z" fill="#494949"/>
<path d="M132.32 81.7984C132.738 81.3808 132.738 81.3808 133.156 80.9631L133.573 81.3808C132.738 81.3808 132.738 81.7984 132.32 81.7984Z" fill="#494949"/>
<path d="M163.66 65.9273C163.242 66.3449 162.825 66.7626 162.407 67.5979C161.989 68.4332 161.153 68.8509 160.317 68.4332C159.064 68.0156 157.81 68.0156 156.557 67.5979C156.139 67.5979 155.721 68.0156 155.721 68.4332V68.8509C156.139 69.6862 157.392 69.6862 156.975 70.5215C156.139 70.5215 155.303 70.1038 154.467 69.6862C153.214 68.8509 151.96 68.0155 150.707 67.1802C152.378 65.9273 154.467 64.6743 156.139 63.839C157.81 63.0037 159.482 61.7507 161.571 61.7507C160.735 64.2567 161.989 65.092 163.66 65.9273Z" fill="#494949"/>
<path d="M163.66 66.3453C164.078 66.3453 164.495 66.3453 164.913 66.3453H165.331C165.331 66.3453 165.331 66.763 165.749 66.763C165.331 66.763 164.913 66.763 164.913 66.763C164.078 66.763 164.078 66.3453 163.66 66.3453C163.66 65.9276 163.66 66.3453 163.66 66.3453Z" fill="#494949"/>
<path d="M165.331 37.1096L165.749 36.692C166.585 35.0214 166.585 35.0214 164.496 34.6037H164.078C163.66 34.186 164.078 33.7684 164.496 33.7684C164.914 33.7684 165.331 33.3508 165.749 32.9331C166.585 32.5155 167.003 32.5155 167.421 32.9331C168.257 33.3508 168.674 34.6037 168.256 35.0214C167.421 35.8567 166.585 36.692 165.331 37.1096Z" fill="#494949"/>
<path d="M165.331 36.6914C164.913 37.5267 164.495 37.9444 164.077 38.7797C164.077 38.7797 163.242 38.7797 162.824 38.7797C162.406 38.362 162.406 37.9444 163.242 37.9444C164.077 37.5267 164.913 37.1091 165.331 36.6914C165.331 37.1091 165.331 36.6914 165.331 36.6914Z" fill="#494949"/>
<path d="M161.153 15.8088C161.153 16.2265 160.735 17.0618 160.735 17.4795C160.735 17.4795 160.735 17.8971 160.317 17.8971C159.899 17.8971 159.481 17.4795 159.899 17.0618C160.735 17.0618 161.153 16.2265 161.153 15.8088C161.571 15.8088 161.153 15.8088 161.153 15.8088Z" fill="#494949"/>
<path d="M161.988 21.2379L161.57 21.6556V20.8203L161.988 21.2379Z" fill="#494949"/>
<path d="M161.988 26.2506V25.833H162.406L161.988 26.2506Z" fill="#494949"/>
<path d="M163.242 29.1736C163.242 29.5912 162.825 30.0089 162.825 30.0089H162.407C162.825 30.0089 163.242 29.5912 163.242 29.1736C163.66 29.5912 163.242 29.1736 163.242 29.1736Z" fill="#494949"/>
<path d="M192.91 71.3568C193.746 69.6862 195.417 69.2686 197.089 69.2686C197.089 70.9392 198.342 71.7745 199.178 73.0275V73.4451L198.76 73.8628C196.671 73.4451 194.582 72.1921 192.91 71.3568Z" fill="#494949"/>
<path d="M201.686 67.1802C202.103 66.7626 202.103 66.3449 202.521 66.3449L202.939 65.9272C203.357 65.9272 203.357 66.3449 202.939 66.7626C202.521 66.7626 202.103 66.7626 201.686 67.1802Z" fill="#494949"/>
<path d="M199.596 67.1804C199.178 68.0157 198.342 68.851 197.089 69.2687C197.507 68.4334 198.342 67.5981 199.596 67.1804C199.596 67.5981 199.596 67.1804 199.596 67.1804Z" fill="#494949"/>
<path d="M201.686 67.1804C200.85 67.1804 200.432 67.1804 199.596 67.5981C200.432 67.1804 200.85 67.1804 201.686 67.1804Z" fill="#494949"/>
<path d="M67.9688 60.9155C66.2974 62.5861 64.2081 63.8391 62.1188 65.0921C61.7009 65.0921 61.283 65.0921 60.8652 65.0921C60.8652 65.0921 60.4473 65.0921 60.4473 64.6744V64.2568C60.8651 63.4215 61.283 62.5862 62.1188 62.5862C63.7902 61.7509 65.8795 61.3332 67.9688 60.9155Z" fill="#494949"/>
<path d="M62.9551 58.4098C64.2087 57.9921 65.4622 57.5744 66.7158 57.9921C66.7158 57.9921 67.1337 57.9921 67.1337 58.4098C67.1337 58.8274 67.1337 59.2451 66.7158 59.2451C65.4622 59.2451 64.2087 59.2451 62.9551 58.4098Z" fill="#494949"/>
<path d="M53.3438 72.6101C54.1795 73.0278 55.0152 73.4454 55.851 73.8631C54.1795 74.2807 54.1795 74.2807 53.3438 72.6101Z" fill="#494949"/>
<path d="M57.9404 67.1804C58.3583 67.1804 58.7761 67.1804 59.194 67.1804V67.5981C58.3582 67.5981 58.3583 67.1804 57.9404 67.1804Z" fill="#494949"/>
<path d="M63.3729 57.9922L62.9551 58.4099L63.3729 57.9922Z" fill="#494949"/>
<path d="M72.1476 103.516C72.1476 104.351 72.1476 105.604 71.7297 106.439C70.0583 105.186 67.969 105.604 66.2976 104.769C65.8797 104.769 65.4618 104.351 65.4618 103.933C65.0439 103.516 65.4618 102.68 66.2976 102.263C68.3869 101.01 70.0583 100.174 71.3119 98.0861C71.7298 96.8332 75.4905 94.7449 77.162 94.3272C77.9977 93.9096 79.2513 93.4919 80.087 93.0742C80.9227 92.6566 81.7585 93.0743 81.7585 93.9096C81.7585 94.3273 81.7585 95.5802 81.3406 95.5802C78.4156 97.2508 75.9084 99.339 73.4012 101.427C72.9834 101.845 72.5655 102.68 72.1476 103.516Z" fill="#494949"/>
<path d="M192.91 26.6682L192.493 26.2505C192.075 25.8329 191.239 25.8329 191.657 24.9976C192.91 23.7447 192.493 22.4917 192.493 21.2387C192.91 20.821 192.91 19.9858 193.328 19.5681C193.746 18.3152 195 17.4798 196.253 17.8975C196.253 19.9857 195.418 22.074 194.164 23.7446C193.746 24.9976 193.328 25.8329 192.91 26.6682Z" fill="#494949"/>
<path d="M190.821 30.4265C192.074 30.8442 193.746 30.8442 195 31.2619C193.746 33.3501 192.492 34.6031 190.403 35.4384C189.985 35.4384 189.567 35.4384 189.149 35.0207V34.603C189.567 32.9324 189.985 31.6795 190.821 30.4265Z" fill="#494949"/>
<path d="M195.836 13.3035C195.418 13.7211 195.418 13.7211 195 14.1388C195 14.1388 195 13.7211 194.582 13.7211C195 13.7211 195.418 13.7211 195.836 13.3035Z" fill="#494949"/>
<path d="M196.253 18.3155C196.671 17.8979 196.671 17.8979 197.089 17.4802C197.089 17.4802 197.089 17.8978 197.507 17.8978C196.671 18.3155 196.253 18.3155 196.253 18.3155Z" fill="#494949"/>
<path d="M192.493 21.6565L192.075 22.0741H192.493V21.6565Z" fill="#494949"/>
<path d="M191.657 29.1736C191.239 29.5912 191.239 30.0088 190.821 30.4265C190.821 30.0088 191.239 29.5912 191.657 29.1736Z" fill="#494949"/>
<path d="M29.5252 78.4575C29.1073 78.0398 28.2716 77.6222 27.8537 76.7869C26.1823 74.281 24.9287 72.1927 23.2572 69.6868C22.8394 68.8515 22.8394 67.5985 22.8394 66.3455C22.8394 65.9279 23.2572 65.5103 23.6751 65.5103H24.093C26.1823 68.0162 28.2716 70.5221 29.943 73.4456C30.7788 75.1163 31.1967 76.7869 32.8681 77.6222C32.8681 77.6222 32.8681 78.4575 32.8681 78.8751C32.4503 79.2928 32.0324 79.2928 31.6145 79.2928C31.1967 79.2928 30.3609 78.8751 29.5252 78.4575Z" fill="#494949"/>
<path d="M158.227 89.316C156.556 90.1513 154.884 90.1514 153.213 89.7337C154.884 88.4808 156.556 88.4807 158.227 89.316Z" fill="#494949"/>
<path d="M160.317 88.4812C159.899 88.8988 159.064 89.3164 158.228 88.8988C158.646 88.4812 159.482 88.4812 160.317 88.4812Z" fill="#494949"/>
<path d="M161.989 88.063C161.571 88.4806 160.735 88.8983 159.899 88.4807C160.735 88.4807 161.153 88.4806 161.989 88.063Z" fill="#494949"/>
<path d="M163.66 87.645C162.824 87.645 162.406 88.0626 161.57 88.0626C162.406 88.0626 163.242 87.645 163.66 87.645Z" fill="#494949"/>
<path d="M102.234 64.6745C101.399 63.8392 100.145 64.6745 99.3093 64.6745C98.8915 64.6745 98.4736 64.6744 98.4736 63.8391C98.4736 63.8391 98.4736 63.4215 98.8915 63.4215C100.563 62.5862 101.817 61.7509 103.906 62.5862C103.07 63.0039 102.652 63.8392 102.234 64.6745Z" fill="#494949"/>
<path d="M102.234 64.6741C103.07 64.6741 103.906 64.6741 104.741 64.6741C105.159 64.6741 105.159 65.0917 105.577 65.0917C105.159 65.5093 105.159 65.927 104.741 65.927C103.488 66.3446 102.652 67.18 101.398 66.7623C101.398 65.927 101.816 65.5094 102.234 64.6741Z" fill="#494949"/>
<path d="M104.323 57.9922C103.487 59.6628 101.816 60.0805 100.145 60.0805C101.398 58.8275 102.652 58.4098 104.323 57.9922Z" fill="#494949"/>
<path d="M100.562 54.2335C100.98 52.1452 101.398 52.1452 103.488 51.7275C103.07 52.5628 102.652 52.9805 102.234 53.8158C101.816 53.8158 101.398 54.2335 100.562 54.2335Z" fill="#494949"/>
<path d="M102.234 53.8157C102.652 54.2333 103.07 55.0686 102.652 55.4863C102.234 55.9039 101.398 56.3216 100.98 55.9039C100.145 55.4863 100.562 55.0687 100.562 54.2334C101.398 54.2334 101.816 53.8157 102.234 53.8157Z" fill="#494949"/>
<path d="M104.741 58.4096C105.159 57.9919 105.159 57.5742 105.577 57.5742C105.995 57.5742 105.995 57.5742 106.413 57.5742V57.9919L105.995 58.4096C105.159 58.4096 104.741 57.9919 104.741 58.4096Z" fill="#494949"/>
<path d="M107.667 50.8921C106.413 50.4745 105.159 51.3098 103.906 51.7274C105.159 50.4745 105.159 50.4745 107.667 50.8921C107.667 51.3098 107.667 50.8921 107.667 50.8921Z" fill="#494949"/>
<path d="M104.324 47.1328C103.906 47.5505 103.906 47.5505 103.488 47.9682V47.5505C104.324 47.5505 104.324 47.5505 104.324 47.1328Z" fill="#494949"/>
<path d="M104.741 47.5505L104.323 47.1328L104.741 47.5505Z" fill="#494949"/>
<path d="M100.562 60.4982L100.145 60.0806L100.562 60.4982Z" fill="#494949"/>
<path d="M99.3091 67.1801C100.145 67.1801 100.563 66.7625 101.398 66.7625C100.563 67.1801 99.7269 67.1801 99.3091 67.1801Z" fill="#494949"/>
<path d="M105.577 61.7507C105.159 62.1684 104.324 62.1684 103.906 62.1684C104.324 61.7508 104.741 61.7507 105.577 61.7507Z" fill="#494949"/>
<path d="M64.6265 141.105C64.2086 140.687 63.3729 140.687 62.9551 140.27C62.9551 139.852 62.9551 139.434 62.9551 139.017H63.3729L63.7908 139.434C63.7908 139.852 64.2086 140.687 64.6265 141.105C64.2086 141.105 64.6265 141.105 64.6265 141.105Z" fill="white"/>
<path d="M72.9834 146.535C72.9834 145.699 72.9834 144.446 72.9834 143.611C73.8191 144.029 74.6549 144.446 75.4906 144.864C75.4906 146.117 74.6549 146.952 72.9834 146.535Z" fill="white"/>
<path d="M73.4013 143.611C72.5655 143.193 71.7298 142.776 70.894 142.358C71.3119 142.358 71.7298 142.358 72.1476 142.358C72.9834 142.358 73.4013 142.776 73.4013 143.611Z" fill="white"/>
<path d="M130.649 118.969C130.231 118.552 129.813 118.552 129.395 118.134C129.395 118.134 130.231 118.552 130.649 118.969Z" fill="white"/>
<path d="M127.724 126.069C127.306 125.652 127.306 124.816 127.306 124.399C127.306 124.816 127.306 125.652 127.724 126.069Z" fill="white"/>
<path d="M127.306 126.07L127.724 126.487V126.07H127.306Z" fill="white"/>
<path d="M139.841 131.917C139.424 131.499 139.006 131.499 138.588 131.082C139.006 131.082 139.424 131.082 139.841 131.917Z" fill="white"/>
<path d="M102.652 53.8157C101.816 53.8157 101.398 54.2334 100.562 54.2334C101.398 54.2334 101.816 53.8157 102.652 53.8157Z" fill="white"/>
<path d="M282.751 20.8211C282.751 20.4035 282.751 19.9858 282.751 19.5682C282.333 16.6446 279.408 15.8093 277.319 17.4799C274.812 19.5682 274.812 22.9094 277.737 25.4153C278.99 26.6682 280.662 26.2506 281.916 24.9977C282.333 23.7447 282.751 22.4918 282.751 20.8211ZM279.826 30.4271C277.737 30.4271 276.065 30.0095 274.812 29.5918C273.14 28.3389 271.469 26.2506 271.887 24.1623C272.305 22.4917 272.305 21.2388 272.722 19.5682C273.558 17.0622 275.23 15.3916 277.737 14.974C278.573 14.5563 279.408 14.974 280.244 14.974C284.423 16.2269 286.93 20.8211 285.676 24.9977C285.676 25.4153 285.258 26.2506 284.841 26.6683C284.005 29.1742 281.916 30.4271 279.826 30.4271Z" fill="#494949"/>
</g>
<defs>
<clipPath id="clip0">
<rect width="286" height="160" fill="white"/>
</clipPath>
</defs>
</svg>
