<svg width="36" height="36" viewBox="0 0 36 36" fill="none" xmlns="http://www.w3.org/2000/svg">
<path d="M31.6758 20.2698C29.3555 22.5924 26.6895 24.0235 23.6777 24.563C20.666 25.1026 18.0352 24.6452 15.7852 23.1906L9.77344 29.2082L12.8672 32.305C13.2891 32.7273 13.5 33.2375 13.5 33.8358C13.5 34.434 13.2891 34.9443 12.8672 35.3666C12.4453 35.7889 11.9355 36 11.3379 36C10.7402 36 10.2305 35.7889 9.80859 35.3666L0.632812 26.217C0.210938 25.7947 0 25.2845 0 24.6862C0 24.088 0.210938 23.5777 0.632812 23.1554C1.05469 22.7331 1.56445 22.522 2.16211 22.522C2.75977 22.522 3.26953 22.7331 3.69141 23.1554L6.78516 26.2522L12.7969 20.2346C11.3672 17.9824 10.916 15.349 11.4434 12.3343C11.9707 9.31965 13.3945 6.65103 15.7148 4.32845C18.1523 1.91202 20.9648 0.469208 24.1523 0C25.5352 1.3607 26.8828 2.69795 28.1953 4.01173C29.5078 5.32551 30.9141 6.739 32.4141 8.2522C33.9141 9.7654 35.1094 10.9677 36 11.8592C35.5312 15.0499 34.0898 17.8534 31.6758 20.2698ZM23.6953 2.39296C21.4688 2.93255 19.4883 4.07038 17.7539 5.80645C16.6523 6.90909 15.7852 8.12903 15.1523 9.46628C14.5195 10.8035 14.1562 12.1525 14.0625 13.5132H33.2227C33.4102 12.9971 33.5391 12.5982 33.6094 12.3167L23.6953 2.39296Z" fill="#F2CD84"/>
</svg>
