<svg width="12" height="8" viewBox="0 0 12 8" fill="none" xmlns="http://www.w3.org/2000/svg">
<path fill-rule="evenodd" clip-rule="evenodd" d="M10.1712 5.49354C10.1712 5.49354 11.0835 6.51568 11.3091 6.98867C11.3135 6.99549 11.3169 7.00305 11.3193 7.01107C11.4112 7.1858 11.4338 7.32277 11.3886 7.42389C11.3125 7.59094 11.0547 7.67479 10.9672 7.68183H9.35493C9.24267 7.68183 9.00912 7.64855 8.72479 7.42581C8.5076 7.25364 8.29154 6.97011 8.08224 6.69297C7.76971 6.28143 7.49949 5.92429 7.22588 5.92429C7.19132 5.9242 7.157 5.9307 7.12434 5.94349C6.9173 6.01773 6.65441 6.35247 6.65441 7.24404C6.65441 7.5231 6.46035 7.68183 6.32439 7.68183H5.58593C5.33433 7.68183 4.0244 7.58198 2.86284 6.19246C1.43952 4.49125 0.161189 1.07857 0.148778 1.04849C0.0692343 0.827674 0.236219 0.707347 0.416743 0.707347H2.04484C2.26316 0.707347 2.33425 0.857116 2.38389 0.991524C2.44143 1.14577 2.65468 1.76277 3.00444 2.45593C3.57083 3.58367 3.91891 4.04258 4.19703 4.04258C4.24928 4.04275 4.30065 4.0273 4.34596 3.99778C4.70926 3.7712 4.64157 2.29912 4.62464 1.99574C4.62464 1.93686 4.62408 1.33842 4.43791 1.04913C4.30478 0.841755 4.07799 0.76111 3.94091 0.731669C3.97758 0.671505 4.05543 0.57934 4.15528 0.524937C4.40407 0.384129 4.85368 0.363647 5.29992 0.363647H5.54757C6.0316 0.371328 6.15684 0.40653 6.33285 0.457093C6.68713 0.553098 6.6939 0.813594 6.66287 1.70068C6.65385 1.95414 6.64425 2.2396 6.64425 2.57561C6.64425 2.6473 6.64143 2.7273 6.64143 2.80859C6.63072 3.26365 6.61661 3.77632 6.89981 3.9869C6.93654 4.01286 6.97895 4.0266 7.02223 4.02658C7.12039 4.02658 7.4143 4.02658 8.21143 2.47449C8.56119 1.78901 8.83198 0.980643 8.8506 0.91984C8.86639 0.885918 8.91378 0.790552 8.97132 0.75215C9.01225 0.727441 9.0581 0.715098 9.10446 0.716308H11.0197C11.2284 0.716308 11.37 0.75215 11.3977 0.841755C11.4439 0.987043 11.3886 1.43059 10.5142 2.77211C10.367 2.99548 10.2378 3.18877 10.1244 3.35774C9.33181 4.53797 9.33181 4.59749 10.1712 5.49354Z" fill="#F2CD84"/>
</svg>
