<svg width="12" height="8" viewBox="0 0 12 8" fill="none" xmlns="http://www.w3.org/2000/svg">
<path fill-rule="evenodd" clip-rule="evenodd" d="M10.1712 5.49355C10.1712 5.49355 11.0835 6.51569 11.3091 6.98868C11.3135 6.9955 11.3169 7.00306 11.3193 7.01108C11.4112 7.18581 11.4338 7.32278 11.3886 7.4239C11.3125 7.59095 11.0547 7.6748 10.9672 7.68184H9.35493C9.24267 7.68184 9.00912 7.64856 8.72479 7.42582C8.5076 7.25365 8.29154 6.97012 8.08224 6.69298C7.76971 6.28144 7.49949 5.9243 7.22588 5.9243C7.19132 5.92421 7.157 5.9307 7.12434 5.9435C6.9173 6.01774 6.65441 6.35248 6.65441 7.24405C6.65441 7.52311 6.46035 7.68184 6.32439 7.68184H5.58593C5.33433 7.68184 4.0244 7.58199 2.86284 6.19247C1.43952 4.49125 0.161189 1.07858 0.148778 1.04849C0.0692343 0.827682 0.236219 0.707355 0.416743 0.707355H2.04484C2.26316 0.707355 2.33425 0.857123 2.38389 0.991531C2.44143 1.14578 2.65468 1.76278 3.00444 2.45594C3.57083 3.58368 3.91891 4.04259 4.19703 4.04259C4.24928 4.04276 4.30065 4.02731 4.34596 3.99778C4.70926 3.77121 4.64157 2.29913 4.62464 1.99575C4.62464 1.93687 4.62408 1.33843 4.43791 1.04913C4.30478 0.841763 4.07799 0.761118 3.94091 0.731676C3.97758 0.671513 4.05543 0.579347 4.15528 0.524944C4.40407 0.384136 4.85368 0.363655 5.29992 0.363655H5.54757C6.0316 0.371336 6.15684 0.406537 6.33285 0.4571C6.68713 0.553106 6.6939 0.813601 6.66287 1.70069C6.65385 1.95415 6.64425 2.2396 6.64425 2.57562C6.64425 2.64731 6.64143 2.72731 6.64143 2.8086C6.63072 3.26366 6.61661 3.77633 6.89981 3.9869C6.93654 4.01286 6.97895 4.02661 7.02223 4.02659C7.12039 4.02659 7.4143 4.02659 8.21143 2.4745C8.56119 1.78902 8.83198 0.980651 8.8506 0.919847C8.86639 0.885925 8.91378 0.79056 8.97132 0.752157C9.01225 0.727449 9.0581 0.715106 9.10446 0.716315H11.0197C11.2284 0.716315 11.37 0.752158 11.3977 0.841763C11.4439 0.987051 11.3886 1.4306 10.5142 2.77211C10.367 2.99549 10.2378 3.18878 10.1244 3.35775C9.33181 4.53798 9.33181 4.5975 10.1712 5.49355Z" fill="#180004"/>
</svg>
