<svg width="40" height="40" viewBox="0 0 40 40" fill="none" xmlns="http://www.w3.org/2000/svg">
<g filter="url(#filter0_ii)">
<g clip-path="url(#clip0)">
<path d="M25.8059 21.6979C25.5195 21.5529 24.1245 20.8721 23.8638 20.775C23.6031 20.6821 23.4138 20.6336 23.2238 20.92C23.0381 21.1993 22.4909 21.8386 22.3238 22.025C22.1566 22.2114 21.9924 22.2257 21.7102 22.0993C21.4238 21.9543 20.5088 21.6564 19.4224 20.6821C18.5738 19.9271 18.0088 18.9971 17.8409 18.7107C17.6738 18.4279 17.8224 18.2679 17.9638 18.1264C18.0938 17.9964 18.2502 17.7993 18.3952 17.6279C18.5331 17.4564 18.5774 17.3414 18.6781 17.1557C18.7709 16.955 18.7231 16.7986 18.6524 16.6571C18.5816 16.5157 18.0124 15.1136 17.7745 14.555C17.5474 14.0007 17.3095 14.0714 17.1345 14.0714C16.9709 14.0564 16.7809 14.0564 16.5916 14.0564C16.4024 14.0564 16.0931 14.1271 15.8324 14.3986C15.5716 14.685 14.8352 15.3693 14.8352 16.7536C14.8352 18.1414 15.8545 19.4843 15.9959 19.685C16.1409 19.8707 18.0009 22.7279 20.8545 23.9557C21.5352 24.2421 22.0638 24.4136 22.4766 24.555C23.1574 24.7707 23.7788 24.7407 24.2695 24.67C24.8124 24.5807 25.9509 23.9814 26.1895 23.3121C26.4316 22.6386 26.4316 22.0807 26.3609 21.9543C26.2902 21.8243 26.1045 21.7536 25.8181 21.6271L25.8059 21.6979ZM20.6309 28.7143H20.6159C18.9266 28.7143 17.2566 28.2564 15.7981 27.4007L15.4559 27.1964L11.8845 28.1264L12.8445 24.6514L12.6138 24.2943C11.6705 22.7945 11.1701 21.0588 11.1702 19.2871C11.1702 14.1014 15.4152 9.87143 20.6381 9.87143C23.1681 9.87143 25.5416 10.8571 27.3274 12.6429C28.2083 13.5133 28.907 14.5504 29.3828 15.6938C29.8587 16.8371 30.1021 18.0637 30.0988 19.3021C30.0916 24.4843 25.8502 28.7143 20.6345 28.7143H20.6309ZM28.6852 11.285C26.5124 9.18643 23.6552 8 20.6159 8C14.3474 8 9.24307 13.0821 9.23949 19.3279C9.23949 21.3221 9.76021 23.2679 10.7574 24.99L9.14307 30.8571L15.1774 29.2836C16.849 30.1848 18.7175 30.6589 20.6166 30.6636H20.6202C26.8924 30.6636 31.9966 25.5814 32.0002 19.3314C32.0002 16.3071 30.8209 13.4607 28.6709 11.3214L28.6852 11.285Z" fill="#F2CD84"/>
</g>
</g>
<defs>
<filter id="filter0_ii" x="0" y="-3" width="40" height="48" filterUnits="userSpaceOnUse" color-interpolation-filters="sRGB">
<feFlood flood-opacity="0" result="BackgroundImageFix"/>
<feBlend mode="normal" in="SourceGraphic" in2="BackgroundImageFix" result="shape"/>
<feColorMatrix in="SourceAlpha" type="matrix" values="0 0 0 0 0 0 0 0 0 0 0 0 0 0 0 0 0 0 127 0" result="hardAlpha"/>
<feOffset dy="6"/>
<feGaussianBlur stdDeviation="2.5"/>
<feComposite in2="hardAlpha" operator="arithmetic" k2="-1" k3="1"/>
<feColorMatrix type="matrix" values="0 0 0 0 1 0 0 0 0 1 0 0 0 0 1 0 0 0 0.31 0"/>
<feBlend mode="normal" in2="shape" result="effect1_innerShadow"/>
<feColorMatrix in="SourceAlpha" type="matrix" values="0 0 0 0 0 0 0 0 0 0 0 0 0 0 0 0 0 0 127 0" result="hardAlpha"/>
<feOffset dy="-3"/>
<feGaussianBlur stdDeviation="2"/>
<feComposite in2="hardAlpha" operator="arithmetic" k2="-1" k3="1"/>
<feColorMatrix type="matrix" values="0 0 0 0 0 0 0 0 0 0 0 0 0 0 0 0 0 0 0.27 0"/>
<feBlend mode="normal" in2="effect1_innerShadow" result="effect2_innerShadow"/>
</filter>
<clipPath id="clip0">
<rect width="22.8571" height="22.8571" fill="white" transform="translate(9.14307 8)"/>
</clipPath>
</defs>
</svg>
