<svg width="23" height="23" viewBox="0 0 23 23" fill="none" xmlns="http://www.w3.org/2000/svg">
<g clip-path="url(#clip0)">
<path d="M16.8059 13.6979C16.5195 13.5529 15.1245 12.8721 14.8638 12.775C14.6031 12.6821 14.4138 12.6336 14.2238 12.92C14.0381 13.1993 13.4909 13.8386 13.3238 14.025C13.1566 14.2114 12.9924 14.2257 12.7102 14.0993C12.4238 13.9543 11.5088 13.6564 10.4224 12.6821C9.57378 11.9271 9.00878 10.9971 8.84092 10.7107C8.67378 10.4279 8.82235 10.2679 8.96378 10.1264C9.09378 9.99643 9.25021 9.79929 9.39521 9.62786C9.53307 9.45643 9.57735 9.34143 9.67807 9.15571C9.77092 8.955 9.72307 8.79857 9.65235 8.65714C9.58164 8.51571 9.01235 7.11357 8.7745 6.555C8.54735 6.00071 8.3095 6.07143 8.1345 6.07143C7.97092 6.05643 7.78092 6.05643 7.59164 6.05643C7.40235 6.05643 7.09307 6.12714 6.83235 6.39857C6.57164 6.685 5.83521 7.36929 5.83521 8.75357C5.83521 10.1414 6.8545 11.4843 6.99592 11.685C7.14092 11.8707 9.00092 14.7279 11.8545 15.9557C12.5352 16.2421 13.0638 16.4136 13.4766 16.555C14.1574 16.7707 14.7788 16.7407 15.2695 16.67C15.8124 16.5807 16.9509 15.9814 17.1895 15.3121C17.4316 14.6386 17.4316 14.0807 17.3609 13.9543C17.2902 13.8243 17.1045 13.7536 16.8181 13.6271L16.8059 13.6979ZM11.6309 20.7143H11.6159C9.92664 20.7143 8.25664 20.2564 6.79807 19.4007L6.45592 19.1964L2.8845 20.1264L3.8445 16.6514L3.61378 16.2943C2.67054 14.7945 2.17014 13.0588 2.17021 11.2871C2.17021 6.10143 6.41521 1.87143 11.6381 1.87143C14.1681 1.87143 16.5416 2.85714 18.3274 4.64286C19.2083 5.51328 19.907 6.55042 20.3828 7.69376C20.8587 8.8371 21.1021 10.0637 21.0988 11.3021C21.0916 16.4843 16.8502 20.7143 11.6345 20.7143H11.6309ZM19.6852 3.285C17.5124 1.18643 14.6552 0 11.6159 0C5.34735 0 0.243066 5.08214 0.239495 11.3279C0.239495 13.3221 0.760209 15.2679 1.75735 16.99L0.143066 22.8571L6.17735 21.2836C7.849 22.1848 9.71752 22.6589 11.6166 22.6636H11.6202C17.8924 22.6636 22.9966 17.5814 23.0002 11.3314C23.0002 8.30714 21.8209 5.46071 19.6709 3.32143L19.6852 3.285Z" fill="#F2CD84"/>
</g>
<defs>
<clipPath id="clip0">
<rect width="22.8571" height="22.8571" fill="white" transform="translate(0.143066)"/>
</clipPath>
</defs>
</svg>
